<?xml version="1.0" encoding="UTF-8" standalone="no"?>
<!DOCTYPE svg PUBLIC "-//W3C//DTD SVG 1.1//EN"
 "http://www.w3.org/Graphics/SVG/1.1/DTD/svg11.dtd">
<!-- Generated by graphviz version 2.36.0 (20140111.2315)
 -->
<!-- Title: simulations.Schelling.nextGen Pages: 1 -->
<svg width="548pt" height="185pt"
 viewBox="0.00 0.00 548.00 185.00" xmlns="http://www.w3.org/2000/svg" xmlns:xlink="http://www.w3.org/1999/xlink">
<g id="graph0" class="graph" transform="scale(1 1) rotate(0) translate(4 181)">
<title>simulations.Schelling.nextGen</title>
<polygon fill="white" stroke="none" points="-4,4 -4,-181 544,-181 544,4 -4,4"/>
<!-- Node1 -->
<g id="node1" class="node"><title>Node1</title>
<polygon fill="#bfbfbf" stroke="black" points="0.5,-78.5 0.5,-97.5 161.5,-97.5 161.5,-78.5 0.5,-78.5"/>
<text text-anchor="middle" x="81" y="-85.5" font-family="Helvetica,sans-Serif" font-size="10.00">simulations.Schelling.nextGen</text>
</g>
<!-- Node2 -->
<g id="node2" class="node"><title>Node2</title>
<g id="a_node2"><a xlink:href="../../d4/d71/classsimulations_1_1_schelling.html#a9b63adf9d7b850231a372c424c1c6a5b" target="_top" xlink:title="simulations.Schelling.compute\lTorrodialHood">
<polygon fill="white" stroke="black" points="198.5,-147 198.5,-177 361.5,-177 361.5,-147 198.5,-147"/>
<text text-anchor="start" x="206.5" y="-165" font-family="Helvetica,sans-Serif" font-size="10.00">simulations.Schelling.compute</text>
<text text-anchor="middle" x="280" y="-154" font-family="Helvetica,sans-Serif" font-size="10.00">TorrodialHood</text>
</a>
</g>
</g>
<!-- Node1&#45;&gt;Node2 -->
<g id="edge1" class="edge"><title>Node1&#45;&gt;Node2</title>
<path fill="none" stroke="midnightblue" d="M103.125,-97.6795C126.182,-108.066 164.314,-124.722 198,-137 204.317,-139.303 210.96,-141.58 217.61,-143.767"/>
<polygon fill="midnightblue" stroke="midnightblue" points="216.73,-147.16 227.322,-146.899 218.879,-140.498 216.73,-147.16"/>
</g>
<!-- Node4 -->
<g id="node4" class="node"><title>Node4</title>
<g id="a_node4"><a xlink:href="../../dc/d96/classutility_1_1_map_copier.html#a3308fa4bb52f888a9059da1c1d8380c0" target="_top" xlink:title="utility.MapCopier.copyOf\lArray">
<polygon fill="white" stroke="black" points="215,-98 215,-128 345,-128 345,-98 215,-98"/>
<text text-anchor="start" x="223" y="-116" font-family="Helvetica,sans-Serif" font-size="10.00">utility.MapCopier.copyOf</text>
<text text-anchor="middle" x="280" y="-105" font-family="Helvetica,sans-Serif" font-size="10.00">Array</text>
</a>
</g>
</g>
<!-- Node1&#45;&gt;Node4 -->
<g id="edge3" class="edge"><title>Node1&#45;&gt;Node4</title>
<path fill="none" stroke="midnightblue" d="M157.039,-97.5227C172.649,-99.5036 189.093,-101.59 204.676,-103.568"/>
<polygon fill="midnightblue" stroke="midnightblue" points="204.414,-107.063 214.775,-104.85 205.295,-100.118 204.414,-107.063"/>
</g>
<!-- Node5 -->
<g id="node5" class="node"><title>Node5</title>
<g id="a_node5"><a xlink:href="../../d9/d7b/classsimulations_1_1_sim.html#a9d7f5e97e7df8bbcd65157d9fea745fc" target="_top" xlink:title="simulations.Sim.getEmpty\lCells">
<polygon fill="white" stroke="black" points="208.5,-49 208.5,-79 351.5,-79 351.5,-49 208.5,-49"/>
<text text-anchor="start" x="216.5" y="-67" font-family="Helvetica,sans-Serif" font-size="10.00">simulations.Sim.getEmpty</text>
<text text-anchor="middle" x="280" y="-56" font-family="Helvetica,sans-Serif" font-size="10.00">Cells</text>
</a>
</g>
</g>
<!-- Node1&#45;&gt;Node5 -->
<g id="edge4" class="edge"><title>Node1&#45;&gt;Node5</title>
<path fill="none" stroke="midnightblue" d="M160.143,-78.4801C172.688,-76.9518 185.694,-75.3673 198.297,-73.8318"/>
<polygon fill="midnightblue" stroke="midnightblue" points="198.799,-77.2966 208.302,-72.6129 197.952,-70.348 198.799,-77.2966"/>
</g>
<!-- Node6 -->
<g id="node6" class="node"><title>Node6</title>
<g id="a_node6"><a xlink:href="../../d4/d71/classsimulations_1_1_schelling.html#a5c4ce8d0c6ce7bb0926e9ed32b683464" target="_top" xlink:title="simulations.Schelling.update\lState">
<polygon fill="white" stroke="black" points="203,-0 203,-30 357,-30 357,-0 203,-0"/>
<text text-anchor="start" x="211" y="-18" font-family="Helvetica,sans-Serif" font-size="10.00">simulations.Schelling.update</text>
<text text-anchor="middle" x="280" y="-7" font-family="Helvetica,sans-Serif" font-size="10.00">State</text>
</a>
</g>
</g>
<!-- Node1&#45;&gt;Node6 -->
<g id="edge5" class="edge"><title>Node1&#45;&gt;Node6</title>
<path fill="none" stroke="midnightblue" d="M103.571,-78.3666C126.689,-68.2099 164.578,-52.0432 198,-40 204.419,-37.6871 211.169,-35.392 217.92,-33.1842"/>
<polygon fill="midnightblue" stroke="midnightblue" points="219.323,-36.4099 227.774,-30.02 217.183,-29.7451 219.323,-36.4099"/>
</g>
<!-- Node3 -->
<g id="node3" class="node"><title>Node3</title>
<g id="a_node3"><a xlink:href="../../d7/d2b/classutility_1_1_neighborhood.html#ae36605fc73f9100f0aa94a139ebd4920" target="_top" xlink:title="utility.Neighborhood.get\lTorrodialNeighbors">
<polygon fill="white" stroke="black" points="404,-147 404,-177 534,-177 534,-147 404,-147"/>
<text text-anchor="start" x="412" y="-165" font-family="Helvetica,sans-Serif" font-size="10.00">utility.Neighborhood.get</text>
<text text-anchor="middle" x="469" y="-154" font-family="Helvetica,sans-Serif" font-size="10.00">TorrodialNeighbors</text>
</a>
</g>
</g>
<!-- Node2&#45;&gt;Node3 -->
<g id="edge2" class="edge"><title>Node2&#45;&gt;Node3</title>
<path fill="none" stroke="midnightblue" d="M361.662,-162C372.374,-162 383.315,-162 393.909,-162"/>
<polygon fill="midnightblue" stroke="midnightblue" points="393.94,-165.5 403.94,-162 393.94,-158.5 393.94,-165.5"/>
</g>
<!-- Node7 -->
<g id="node7" class="node"><title>Node7</title>
<g id="a_node7"><a xlink:href="../../d9/dd0/classcellsociety__team05_1_1_scene_updater.html#a5b755feda214274401674bc34e08d9d2" target="_top" xlink:title="cellsociety_team05.Scene\lUpdater.updateScene">
<polygon fill="white" stroke="black" points="398,-0 398,-30 540,-30 540,-0 398,-0"/>
<text text-anchor="start" x="406" y="-18" font-family="Helvetica,sans-Serif" font-size="10.00">cellsociety_team05.Scene</text>
<text text-anchor="middle" x="469" y="-7" font-family="Helvetica,sans-Serif" font-size="10.00">Updater.updateScene</text>
</a>
</g>
</g>
<!-- Node6&#45;&gt;Node7 -->
<g id="edge6" class="edge"><title>Node6&#45;&gt;Node7</title>
<path fill="none" stroke="midnightblue" d="M357.06,-15C367.146,-15 377.514,-15 387.669,-15"/>
<polygon fill="midnightblue" stroke="midnightblue" points="387.736,-18.5001 397.736,-15 387.736,-11.5001 387.736,-18.5001"/>
</g>
</g>
</svg>
