<?xml version="1.0" encoding="UTF-8" standalone="no"?>
<!DOCTYPE svg PUBLIC "-//W3C//DTD SVG 1.1//EN"
 "http://www.w3.org/Graphics/SVG/1.1/DTD/svg11.dtd">
<!-- Generated by graphviz version 2.36.0 (20140111.2315)
 -->
<!-- Title: simulations.Life.nextGen Pages: 1 -->
<svg width="672pt" height="131pt"
 viewBox="0.00 0.00 672.00 131.00" xmlns="http://www.w3.org/2000/svg" xmlns:xlink="http://www.w3.org/1999/xlink">
<g id="graph0" class="graph" transform="scale(1 1) rotate(0) translate(4 127)">
<title>simulations.Life.nextGen</title>
<polygon fill="white" stroke="none" points="-4,4 -4,-127 668,-127 668,4 -4,4"/>
<!-- Node1 -->
<g id="node1" class="node"><title>Node1</title>
<polygon fill="#bfbfbf" stroke="black" points="0,-49.5 0,-68.5 134,-68.5 134,-49.5 0,-49.5"/>
<text text-anchor="middle" x="67" y="-56.5" font-family="Helvetica,sans-Serif" font-size="10.00">simulations.Life.nextGen</text>
</g>
<!-- Node2 -->
<g id="node2" class="node"><title>Node2</title>
<g id="a_node2"><a xlink:href="../../dc/d96/classutility_1_1_map_copier.html#a3308fa4bb52f888a9059da1c1d8380c0" target="_top" xlink:title="utility.MapCopier.copyOf\lArray">
<polygon fill="white" stroke="black" points="182,-93 182,-123 312,-123 312,-93 182,-93"/>
<text text-anchor="start" x="190" y="-111" font-family="Helvetica,sans-Serif" font-size="10.00">utility.MapCopier.copyOf</text>
<text text-anchor="middle" x="247" y="-100" font-family="Helvetica,sans-Serif" font-size="10.00">Array</text>
</a>
</g>
</g>
<!-- Node1&#45;&gt;Node2 -->
<g id="edge1" class="edge"><title>Node1&#45;&gt;Node2</title>
<path fill="none" stroke="midnightblue" d="M102.743,-68.564C125.18,-74.7405 155.056,-82.9649 181.718,-90.3045"/>
<polygon fill="midnightblue" stroke="midnightblue" points="180.806,-93.6834 191.376,-92.963 182.664,-86.9344 180.806,-93.6834"/>
</g>
<!-- Node3 -->
<g id="node3" class="node"><title>Node3</title>
<g id="a_node3"><a xlink:href="../../d9/dd0/classcellsociety__team05_1_1_scene_updater.html#a5b755feda214274401674bc34e08d9d2" target="_top" xlink:title="cellsociety_team05.Scene\lUpdater.updateScene">
<polygon fill="white" stroke="black" points="176,-44 176,-74 318,-74 318,-44 176,-44"/>
<text text-anchor="start" x="184" y="-62" font-family="Helvetica,sans-Serif" font-size="10.00">cellsociety_team05.Scene</text>
<text text-anchor="middle" x="247" y="-51" font-family="Helvetica,sans-Serif" font-size="10.00">Updater.updateScene</text>
</a>
</g>
</g>
<!-- Node1&#45;&gt;Node3 -->
<g id="edge2" class="edge"><title>Node1&#45;&gt;Node3</title>
<path fill="none" stroke="midnightblue" d="M134.028,-59C144.375,-59 155.166,-59 165.789,-59"/>
<polygon fill="midnightblue" stroke="midnightblue" points="165.902,-62.5001 175.902,-59 165.902,-55.5001 165.902,-62.5001"/>
</g>
<!-- Node4 -->
<g id="node4" class="node"><title>Node4</title>
<g id="a_node4"><a xlink:href="../../d1/d4c/classsimulations_1_1_life.html#abe841c0629ccc8ddab9bedd99750989a" target="_top" xlink:title="simulations.Life.updateState">
<polygon fill="white" stroke="black" points="170,-5.5 170,-24.5 324,-24.5 324,-5.5 170,-5.5"/>
<text text-anchor="middle" x="247" y="-12.5" font-family="Helvetica,sans-Serif" font-size="10.00">simulations.Life.updateState</text>
</a>
</g>
</g>
<!-- Node1&#45;&gt;Node4 -->
<g id="edge3" class="edge"><title>Node1&#45;&gt;Node4</title>
<path fill="none" stroke="midnightblue" d="M106.623,-49.4527C133.331,-42.8508 169.063,-34.0181 197.661,-26.949"/>
<polygon fill="midnightblue" stroke="midnightblue" points="198.584,-30.3262 207.452,-24.5287 196.904,-23.5307 198.584,-30.3262"/>
</g>
<!-- Node5 -->
<g id="node5" class="node"><title>Node5</title>
<g id="a_node5"><a xlink:href="../../d1/d4c/classsimulations_1_1_life.html#a7c1fbd3891a4c31eba36ba4e9c9d042c" target="_top" xlink:title="simulations.Life.compute\lNeighbourhood">
<polygon fill="white" stroke="black" points="360.5,-0 360.5,-30 497.5,-30 497.5,-0 360.5,-0"/>
<text text-anchor="start" x="368.5" y="-18" font-family="Helvetica,sans-Serif" font-size="10.00">simulations.Life.compute</text>
<text text-anchor="middle" x="429" y="-7" font-family="Helvetica,sans-Serif" font-size="10.00">Neighbourhood</text>
</a>
</g>
</g>
<!-- Node4&#45;&gt;Node5 -->
<g id="edge4" class="edge"><title>Node4&#45;&gt;Node5</title>
<path fill="none" stroke="midnightblue" d="M324.075,-15C332.765,-15 341.632,-15 350.341,-15"/>
<polygon fill="midnightblue" stroke="midnightblue" points="350.474,-18.5001 360.474,-15 350.474,-11.5001 350.474,-18.5001"/>
</g>
<!-- Node6 -->
<g id="node6" class="node"><title>Node6</title>
<g id="a_node6"><a xlink:href="../../d7/d2b/classutility_1_1_neighborhood.html#ae36605fc73f9100f0aa94a139ebd4920" target="_top" xlink:title="utility.Neighborhood.get\lTorrodialNeighbors">
<polygon fill="white" stroke="black" points="534,-0 534,-30 664,-30 664,-0 534,-0"/>
<text text-anchor="start" x="542" y="-18" font-family="Helvetica,sans-Serif" font-size="10.00">utility.Neighborhood.get</text>
<text text-anchor="middle" x="599" y="-7" font-family="Helvetica,sans-Serif" font-size="10.00">TorrodialNeighbors</text>
</a>
</g>
</g>
<!-- Node5&#45;&gt;Node6 -->
<g id="edge5" class="edge"><title>Node5&#45;&gt;Node6</title>
<path fill="none" stroke="midnightblue" d="M497.848,-15C506.422,-15 515.23,-15 523.896,-15"/>
<polygon fill="midnightblue" stroke="midnightblue" points="523.98,-18.5001 533.98,-15 523.98,-11.5001 523.98,-18.5001"/>
</g>
</g>
</svg>
