<?xml version="1.0" encoding="UTF-8" standalone="no"?>
<!DOCTYPE svg PUBLIC "-//W3C//DTD SVG 1.1//EN"
 "http://www.w3.org/Graphics/SVG/1.1/DTD/svg11.dtd">
<!-- Generated by graphviz version 2.36.0 (20140111.2315)
 -->
<!-- Title: simulations.Life.updateState Pages: 1 -->
<svg width="502pt" height="38pt"
 viewBox="0.00 0.00 502.00 38.00" xmlns="http://www.w3.org/2000/svg" xmlns:xlink="http://www.w3.org/1999/xlink">
<g id="graph0" class="graph" transform="scale(1 1) rotate(0) translate(4 34)">
<title>simulations.Life.updateState</title>
<polygon fill="white" stroke="none" points="-4,4 -4,-34 498,-34 498,4 -4,4"/>
<!-- Node1 -->
<g id="node1" class="node"><title>Node1</title>
<polygon fill="#bfbfbf" stroke="black" points="0,-5.5 0,-24.5 154,-24.5 154,-5.5 0,-5.5"/>
<text text-anchor="middle" x="77" y="-12.5" font-family="Helvetica,sans-Serif" font-size="10.00">simulations.Life.updateState</text>
</g>
<!-- Node2 -->
<g id="node2" class="node"><title>Node2</title>
<g id="a_node2"><a xlink:href="../../d1/d4c/classsimulations_1_1_life.html#a7c1fbd3891a4c31eba36ba4e9c9d042c" target="_top" xlink:title="simulations.Life.compute\lNeighbourhood">
<polygon fill="white" stroke="black" points="190.5,-0 190.5,-30 327.5,-30 327.5,-0 190.5,-0"/>
<text text-anchor="start" x="198.5" y="-18" font-family="Helvetica,sans-Serif" font-size="10.00">simulations.Life.compute</text>
<text text-anchor="middle" x="259" y="-7" font-family="Helvetica,sans-Serif" font-size="10.00">Neighbourhood</text>
</a>
</g>
</g>
<!-- Node1&#45;&gt;Node2 -->
<g id="edge1" class="edge"><title>Node1&#45;&gt;Node2</title>
<path fill="none" stroke="midnightblue" d="M154.075,-15C162.765,-15 171.632,-15 180.341,-15"/>
<polygon fill="midnightblue" stroke="midnightblue" points="180.474,-18.5001 190.474,-15 180.474,-11.5001 180.474,-18.5001"/>
</g>
<!-- Node3 -->
<g id="node3" class="node"><title>Node3</title>
<g id="a_node3"><a xlink:href="../../d7/d2b/classutility_1_1_neighborhood.html#ae36605fc73f9100f0aa94a139ebd4920" target="_top" xlink:title="utility.Neighborhood.get\lTorrodialNeighbors">
<polygon fill="white" stroke="black" points="364,-0 364,-30 494,-30 494,-0 364,-0"/>
<text text-anchor="start" x="372" y="-18" font-family="Helvetica,sans-Serif" font-size="10.00">utility.Neighborhood.get</text>
<text text-anchor="middle" x="429" y="-7" font-family="Helvetica,sans-Serif" font-size="10.00">TorrodialNeighbors</text>
</a>
</g>
</g>
<!-- Node2&#45;&gt;Node3 -->
<g id="edge2" class="edge"><title>Node2&#45;&gt;Node3</title>
<path fill="none" stroke="midnightblue" d="M327.848,-15C336.422,-15 345.23,-15 353.896,-15"/>
<polygon fill="midnightblue" stroke="midnightblue" points="353.98,-18.5001 363.98,-15 353.98,-11.5001 353.98,-18.5001"/>
</g>
</g>
</svg>
