<?xml version="1.0" encoding="UTF-8" standalone="no"?>
<!DOCTYPE svg PUBLIC "-//W3C//DTD SVG 1.1//EN"
 "http://www.w3.org/Graphics/SVG/1.1/DTD/svg11.dtd">
<!-- Generated by graphviz version 2.36.0 (20140111.2315)
 -->
<!-- Title: simulations.Life.computeNeighbourhood Pages: 1 -->
<svg width="312pt" height="38pt"
 viewBox="0.00 0.00 312.00 38.00" xmlns="http://www.w3.org/2000/svg" xmlns:xlink="http://www.w3.org/1999/xlink">
<g id="graph0" class="graph" transform="scale(1 1) rotate(0) translate(4 34)">
<title>simulations.Life.computeNeighbourhood</title>
<polygon fill="white" stroke="none" points="-4,4 -4,-34 308,-34 308,4 -4,4"/>
<!-- Node1 -->
<g id="node1" class="node"><title>Node1</title>
<polygon fill="#bfbfbf" stroke="black" points="0.5,-0 0.5,-30 137.5,-30 137.5,-0 0.5,-0"/>
<text text-anchor="start" x="8.5" y="-18" font-family="Helvetica,sans-Serif" font-size="10.00">simulations.Life.compute</text>
<text text-anchor="middle" x="69" y="-7" font-family="Helvetica,sans-Serif" font-size="10.00">Neighbourhood</text>
</g>
<!-- Node2 -->
<g id="node2" class="node"><title>Node2</title>
<g id="a_node2"><a xlink:href="../../d7/d2b/classutility_1_1_neighborhood.html#ae36605fc73f9100f0aa94a139ebd4920" target="_top" xlink:title="utility.Neighborhood.get\lTorrodialNeighbors">
<polygon fill="white" stroke="black" points="174,-0 174,-30 304,-30 304,-0 174,-0"/>
<text text-anchor="start" x="182" y="-18" font-family="Helvetica,sans-Serif" font-size="10.00">utility.Neighborhood.get</text>
<text text-anchor="middle" x="239" y="-7" font-family="Helvetica,sans-Serif" font-size="10.00">TorrodialNeighbors</text>
</a>
</g>
</g>
<!-- Node1&#45;&gt;Node2 -->
<g id="edge1" class="edge"><title>Node1&#45;&gt;Node2</title>
<path fill="none" stroke="midnightblue" d="M137.848,-15C146.422,-15 155.23,-15 163.896,-15"/>
<polygon fill="midnightblue" stroke="midnightblue" points="163.98,-18.5001 173.98,-15 163.98,-11.5001 163.98,-18.5001"/>
</g>
</g>
</svg>
