<?xml version="1.0" encoding="UTF-8" standalone="no"?>
<!DOCTYPE svg PUBLIC "-//W3C//DTD SVG 1.1//EN"
 "http://www.w3.org/Graphics/SVG/1.1/DTD/svg11.dtd">
<!-- Generated by graphviz version 2.36.0 (20140111.2315)
 -->
<!-- Title: simulations.Life.computeNeighbourhood Pages: 1 -->
<svg width="506pt" height="38pt"
 viewBox="0.00 0.00 506.00 38.00" xmlns="http://www.w3.org/2000/svg" xmlns:xlink="http://www.w3.org/1999/xlink">
<g id="graph0" class="graph" transform="scale(1 1) rotate(0) translate(4 34)">
<title>simulations.Life.computeNeighbourhood</title>
<polygon fill="white" stroke="none" points="-4,4 -4,-34 502,-34 502,4 -4,4"/>
<!-- Node1 -->
<g id="node1" class="node"><title>Node1</title>
<polygon fill="#bfbfbf" stroke="black" points="0.5,-0 0.5,-30 137.5,-30 137.5,-0 0.5,-0"/>
<text text-anchor="start" x="8.5" y="-18" font-family="Helvetica,sans-Serif" font-size="10.00">simulations.Life.compute</text>
<text text-anchor="middle" x="69" y="-7" font-family="Helvetica,sans-Serif" font-size="10.00">Neighbourhood</text>
</g>
<!-- Node2 -->
<g id="node2" class="node"><title>Node2</title>
<g id="a_node2"><a xlink:href="../../d1/d4c/classsimulations_1_1_life.html#abe841c0629ccc8ddab9bedd99750989a" target="_top" xlink:title="simulations.Life.updateState">
<polygon fill="white" stroke="black" points="174,-5.5 174,-24.5 328,-24.5 328,-5.5 174,-5.5"/>
<text text-anchor="middle" x="251" y="-12.5" font-family="Helvetica,sans-Serif" font-size="10.00">simulations.Life.updateState</text>
</a>
</g>
</g>
<!-- Node1&#45;&gt;Node2 -->
<g id="edge1" class="edge"><title>Node1&#45;&gt;Node2</title>
<path fill="none" stroke="midnightblue" d="M147.666,-15C156.372,-15 165.236,-15 173.922,-15"/>
<polygon fill="midnightblue" stroke="midnightblue" points="147.538,-11.5001 137.537,-15 147.537,-18.5001 147.538,-11.5001"/>
</g>
<!-- Node3 -->
<g id="node3" class="node"><title>Node3</title>
<g id="a_node3"><a xlink:href="../../d1/d4c/classsimulations_1_1_life.html#af023a17455df6d032cdc3acb557f2f33" target="_top" xlink:title="simulations.Life.nextGen">
<polygon fill="white" stroke="black" points="364,-5.5 364,-24.5 498,-24.5 498,-5.5 364,-5.5"/>
<text text-anchor="middle" x="431" y="-12.5" font-family="Helvetica,sans-Serif" font-size="10.00">simulations.Life.nextGen</text>
</a>
</g>
</g>
<!-- Node2&#45;&gt;Node3 -->
<g id="edge2" class="edge"><title>Node2&#45;&gt;Node3</title>
<path fill="none" stroke="midnightblue" d="M338.106,-15C346.742,-15 355.414,-15 363.796,-15"/>
<polygon fill="midnightblue" stroke="midnightblue" points="338.004,-11.5001 328.004,-15 338.004,-18.5001 338.004,-11.5001"/>
</g>
</g>
</svg>
