<?xml version="1.0" encoding="UTF-8" standalone="no"?>
<!DOCTYPE svg PUBLIC "-//W3C//DTD SVG 1.1//EN"
 "http://www.w3.org/Graphics/SVG/1.1/DTD/svg11.dtd">
<!-- Generated by graphviz version 2.36.0 (20140111.2315)
 -->
<!-- Title: animation.WatorAnimation.paramSliders Pages: 1 -->
<svg width="400pt" height="136pt"
 viewBox="0.00 0.00 400.00 136.00" xmlns="http://www.w3.org/2000/svg" xmlns:xlink="http://www.w3.org/1999/xlink">
<g id="graph0" class="graph" transform="scale(1 1) rotate(0) translate(4 132)">
<title>animation.WatorAnimation.paramSliders</title>
<polygon fill="white" stroke="none" points="-4,4 -4,-132 396,-132 396,4 -4,4"/>
<!-- Node1 -->
<g id="node1" class="node"><title>Node1</title>
<polygon fill="#bfbfbf" stroke="black" points="0,-49 0,-79 178,-79 178,-49 0,-49"/>
<text text-anchor="start" x="8" y="-67" font-family="Helvetica,sans-Serif" font-size="10.00">animation.WatorAnimation.param</text>
<text text-anchor="middle" x="89" y="-56" font-family="Helvetica,sans-Serif" font-size="10.00">Sliders</text>
</g>
<!-- Node2 -->
<g id="node2" class="node"><title>Node2</title>
<g id="a_node2"><a xlink:href="../../d2/d60/classanimation_1_1_g_u_i_creator.html#a5bc0f0e5c1557be5cc7c752ea2d8fc8c" target="_top" xlink:title="animation.GUICreator.make\lSlider">
<polygon fill="white" stroke="black" points="228,-98 228,-128 378,-128 378,-98 228,-98"/>
<text text-anchor="start" x="236" y="-116" font-family="Helvetica,sans-Serif" font-size="10.00">animation.GUICreator.make</text>
<text text-anchor="middle" x="303" y="-105" font-family="Helvetica,sans-Serif" font-size="10.00">Slider</text>
</a>
</g>
</g>
<!-- Node1&#45;&gt;Node2 -->
<g id="edge1" class="edge"><title>Node1&#45;&gt;Node2</title>
<path fill="none" stroke="midnightblue" d="M155.048,-79.0346C177.839,-84.3024 203.615,-90.2601 227.144,-95.6984"/>
<polygon fill="midnightblue" stroke="midnightblue" points="226.544,-99.1519 237.075,-97.9938 228.12,-92.3317 226.544,-99.1519"/>
</g>
<!-- Node3 -->
<g id="node3" class="node"><title>Node3</title>
<g id="a_node3"><a xlink:href="../../d2/d60/classanimation_1_1_g_u_i_creator.html#a5d95860656d7fe715018221dc5fd45da" target="_top" xlink:title="animation.GUICreator.new\lParams">
<polygon fill="white" stroke="black" points="232,-49 232,-79 374,-79 374,-49 232,-49"/>
<text text-anchor="start" x="240" y="-67" font-family="Helvetica,sans-Serif" font-size="10.00">animation.GUICreator.new</text>
<text text-anchor="middle" x="303" y="-56" font-family="Helvetica,sans-Serif" font-size="10.00">Params</text>
</a>
</g>
</g>
<!-- Node1&#45;&gt;Node3 -->
<g id="edge2" class="edge"><title>Node1&#45;&gt;Node3</title>
<path fill="none" stroke="midnightblue" d="M178.065,-64C192.529,-64 207.452,-64 221.714,-64"/>
<polygon fill="midnightblue" stroke="midnightblue" points="221.966,-67.5001 231.966,-64 221.966,-60.5001 221.966,-67.5001"/>
</g>
<!-- Node4 -->
<g id="node4" class="node"><title>Node4</title>
<g id="a_node4"><a xlink:href="../../de/df1/classanimation_1_1_wator_animation.html#ad36cfc59630b75ac3e85ca5ced1a73ab" target="_top" xlink:title="animation.WatorAnimation.param\lTitles">
<polygon fill="white" stroke="black" points="214,-0 214,-30 392,-30 392,-0 214,-0"/>
<text text-anchor="start" x="222" y="-18" font-family="Helvetica,sans-Serif" font-size="10.00">animation.WatorAnimation.param</text>
<text text-anchor="middle" x="303" y="-7" font-family="Helvetica,sans-Serif" font-size="10.00">Titles</text>
</a>
</g>
</g>
<!-- Node1&#45;&gt;Node4 -->
<g id="edge3" class="edge"><title>Node1&#45;&gt;Node4</title>
<path fill="none" stroke="midnightblue" d="M155.048,-48.9654C177.839,-43.6976 203.615,-37.7399 227.144,-32.3016"/>
<polygon fill="midnightblue" stroke="midnightblue" points="228.12,-35.6683 237.075,-30.0062 226.544,-28.8481 228.12,-35.6683"/>
</g>
</g>
</svg>
