<?xml version="1.0" encoding="UTF-8" standalone="no"?>
<!DOCTYPE svg PUBLIC "-//W3C//DTD SVG 1.1//EN"
 "http://www.w3.org/Graphics/SVG/1.1/DTD/svg11.dtd">
<!-- Generated by graphviz version 2.36.0 (20140111.2315)
 -->
<!-- Title: cellsociety_team05.Master Pages: 1 -->
<!--zoomable 524 -->
<svg id="main" version="1.1" xmlns="http://www.w3.org/2000/svg" xmlns:xlink="http://www.w3.org/1999/xlink" xml:space="preserve" onload="init(evt)">
<style type="text/css"><![CDATA[
.edge:hover path { stroke: red; }
.edge:hover polygon { stroke: red; fill: red; }
]]></style>
<script type="text/javascript"><![CDATA[
var edges = document.getElementsByTagName('g');
if (edges && edges.length) {
  for (var i=0;i<edges.length;i++) {
    if (edges[i].id.substr(0,4)=='edge') {
      edges[i].setAttribute('class','edge');
    }
  }
}
]]></script>
        <defs>
                <circle id="rim" cx="0" cy="0" r="7"/>
                <circle id="rim2" cx="0" cy="0" r="3.5"/>
                <g id="zoomPlus">
                        <use xlink:href="#rim" fill="#404040">
                                <set attributeName="fill" to="#808080" begin="zoomplus.mouseover" end="zoomplus.mouseout"/>
                        </use>
                        <path d="M-4,0h8M0,-4v8" fill="none" stroke="white" stroke-width="1.5" pointer-events="none"/>
                </g>
                <g id="zoomMin">
                        <use xlink:href="#rim" fill="#404040">
                                <set attributeName="fill" to="#808080" begin="zoomminus.mouseover" end="zoomminus.mouseout"/>
                        </use>
                        <path d="M-4,0h8" fill="none" stroke="white" stroke-width="1.5" pointer-events="none"/>
                </g>
                <g id="dirArrow">
                        <path fill="none" stroke="white" stroke-width="1.5" d="M0,-3.0v7 M-2.5,-0.5L0,-3.0L2.5,-0.5"/>
                </g>
               <g id="resetDef">
                       <use xlink:href="#rim2" fill="#404040">
                               <set attributeName="fill" to="#808080" begin="reset.mouseover" end="reset.mouseout"/>
                       </use>
               </g>
        </defs>

<script type="text/javascript">
var viewWidth = 894;
var viewHeight = 524;
var sectionId = 'dynsection-0';
</script>
<script xlink:href="../../svgpan.js"/>
<svg id="graph" class="graph">
<g id="viewport">
<title>cellsociety_team05.Master</title>
<polygon fill="white" stroke="none" points="-4,4 -4,-520 890,-520 890,4 -4,4"/>
<!-- Node1 -->
<g id="node1" class="node"><title>Node1</title>
<polygon fill="#bfbfbf" stroke="black" points="740.5,-98.5 740.5,-117.5 885.5,-117.5 885.5,-98.5 740.5,-98.5"/>
<text text-anchor="middle" x="813" y="-105.5" font-family="Helvetica,sans-Serif" font-size="10.00">cellsociety_team05.Master</text>
</g>
<!-- Node2 -->
<g id="node2" class="node"><title>Node2</title>
<polygon fill="white" stroke="#bfbfbf" points="51,-160.5 51,-179.5 107,-179.5 107,-160.5 51,-160.5"/>
<text text-anchor="middle" x="79" y="-167.5" font-family="Helvetica,sans-Serif" font-size="10.00">Timeline</text>
</g>
<!-- Node2&#45;&gt;Node1 -->
<g id="edge1" class="edge"><title>Node2&#45;&gt;Node1</title>
<path fill="none" stroke="#9a32cd" stroke-dasharray="5,2" d="M117.504,-166.823C233.397,-157.007 587.171,-127.043 740.205,-114.081"/>
<polygon fill="#9a32cd" stroke="#9a32cd" points="117.028,-163.351 107.359,-167.683 117.619,-170.326 117.028,-163.351"/>
<text text-anchor="middle" x="465" y="-144" font-family="Helvetica,sans-Serif" font-size="10.00"> animation</text>
</g>
<!-- Node8 -->
<g id="node8" class="node"><title>Node8</title>
<g id="a_node8"><a xlink:href="../../d9/dd0/classcellsociety__team05_1_1_scene_updater.html" target="_top" xlink:title="cellsociety_team05.Scene\lUpdater">
<polygon fill="white" stroke="black" points="520,-349 520,-379 662,-379 662,-349 520,-349"/>
<text text-anchor="start" x="528" y="-367" font-family="Helvetica,sans-Serif" font-size="10.00">cellsociety_team05.Scene</text>
<text text-anchor="middle" x="591" y="-356" font-family="Helvetica,sans-Serif" font-size="10.00">Updater</text>
</a>
</g>
</g>
<!-- Node2&#45;&gt;Node8 -->
<g id="edge8" class="edge"><title>Node2&#45;&gt;Node8</title>
<path fill="none" stroke="#9a32cd" stroke-dasharray="5,2" d="M117.382,-172.713C150.66,-175.843 200.372,-182.29 242,-195 370.473,-234.226 510.609,-315.311 565.771,-348.908"/>
<polygon fill="#9a32cd" stroke="#9a32cd" points="117.456,-169.206 107.186,-171.809 116.838,-176.179 117.456,-169.206"/>
<text text-anchor="middle" x="335" y="-265" font-family="Helvetica,sans-Serif" font-size="10.00"> ani</text>
</g>
<!-- Node14 -->
<g id="node14" class="node"><title>Node14</title>
<g id="a_node14"><a xlink:href="../../d2/d60/classanimation_1_1_g_u_i_creator.html" target="_top" xlink:title="animation.GUICreator">
<polygon fill="white" stroke="black" points="274.5,-294.5 274.5,-313.5 395.5,-313.5 395.5,-294.5 274.5,-294.5"/>
<text text-anchor="middle" x="335" y="-301.5" font-family="Helvetica,sans-Serif" font-size="10.00">animation.GUICreator</text>
</a>
</g>
</g>
<!-- Node2&#45;&gt;Node14 -->
<g id="edge15" class="edge"><title>Node2&#45;&gt;Node14</title>
<path fill="none" stroke="#9a32cd" stroke-dasharray="5,2" d="M116.977,-179.276C150.874,-188.681 201.759,-205.113 242,-228 275.496,-247.051 308.884,-278.538 324.639,-294.334"/>
<polygon fill="#9a32cd" stroke="#9a32cd" points="117.6,-175.819 107.033,-176.584 115.771,-182.576 117.6,-175.819"/>
<text text-anchor="middle" x="209" y="-231" font-family="Helvetica,sans-Serif" font-size="10.00"> animation</text>
</g>
<!-- Node3 -->
<g id="node3" class="node"><title>Node3</title>
<g id="a_node3"><a xlink:href="../../d9/d7b/classsimulations_1_1_sim.html" target="_top" xlink:title="simulations.Sim">
<polygon fill="white" stroke="black" points="544.5,-76.5 544.5,-95.5 637.5,-95.5 637.5,-76.5 544.5,-76.5"/>
<text text-anchor="middle" x="591" y="-83.5" font-family="Helvetica,sans-Serif" font-size="10.00">simulations.Sim</text>
</a>
</g>
</g>
<!-- Node3&#45;&gt;Node1 -->
<g id="edge2" class="edge"><title>Node3&#45;&gt;Node1</title>
<path fill="none" stroke="#9a32cd" stroke-dasharray="5,2" d="M647.658,-91.5658C675.834,-94.3834 710.364,-97.8364 740.487,-100.849"/>
<polygon fill="#9a32cd" stroke="#9a32cd" points="647.883,-88.0709 637.584,-90.5584 647.186,-95.0362 647.883,-88.0709"/>
<text text-anchor="middle" x="701" y="-102" font-family="Helvetica,sans-Serif" font-size="10.00"> sim</text>
</g>
<!-- Node4 -->
<g id="node4" class="node"><title>Node4</title>
<g id="a_node4"><a xlink:href="../../dc/d26/classutility_1_1_sim_data.html" target="_top" xlink:title="utility.SimData">
<polygon fill="white" stroke="black" points="292,-0.5 292,-19.5 378,-19.5 378,-0.5 292,-0.5"/>
<text text-anchor="middle" x="335" y="-7.5" font-family="Helvetica,sans-Serif" font-size="10.00">utility.SimData</text>
</a>
</g>
</g>
<!-- Node4&#45;&gt;Node3 -->
<g id="edge3" class="edge"><title>Node4&#45;&gt;Node3</title>
<path fill="none" stroke="#9a32cd" stroke-dasharray="5,2" d="M388.572,-12.7763C422.901,-16.5859 467.573,-25.4632 502,-46 512.557,-52.2976 509.609,-60.4328 520,-67 527.345,-71.6419 535.816,-75.1618 544.272,-77.8274"/>
<polygon fill="#9a32cd" stroke="#9a32cd" points="388.571,-9.25892 378.273,-11.7494 387.877,-16.2244 388.571,-9.25892"/>
<text text-anchor="middle" x="465" y="-49" font-family="Helvetica,sans-Serif" font-size="10.00"> gameData</text>
</g>
<!-- Node5 -->
<g id="node5" class="node"><title>Node5</title>
<polygon fill="white" stroke="#bfbfbf" points="290.5,-76.5 290.5,-95.5 379.5,-95.5 379.5,-76.5 290.5,-76.5"/>
<text text-anchor="middle" x="335" y="-83.5" font-family="Helvetica,sans-Serif" font-size="10.00">List&lt; Integer &gt;</text>
</g>
<!-- Node5&#45;&gt;Node3 -->
<g id="edge4" class="edge"><title>Node5&#45;&gt;Node3</title>
<path fill="none" stroke="#9a32cd" stroke-dasharray="5,2" d="M389.727,-86C435.623,-86 500.926,-86 544.338,-86"/>
<polygon fill="#9a32cd" stroke="#9a32cd" points="389.664,-82.5001 379.664,-86 389.664,-89.5001 389.664,-82.5001"/>
<text text-anchor="middle" x="465" y="-89" font-family="Helvetica,sans-Serif" font-size="10.00"> params</text>
</g>
<!-- Node6 -->
<g id="node6" class="node"><title>Node6</title>
<polygon fill="white" stroke="#bfbfbf" points="307,-38.5 307,-57.5 363,-57.5 363,-38.5 307,-38.5"/>
<text text-anchor="middle" x="335" y="-45.5" font-family="Helvetica,sans-Serif" font-size="10.00">Random</text>
</g>
<!-- Node6&#45;&gt;Node3 -->
<g id="edge5" class="edge"><title>Node6&#45;&gt;Node3</title>
<path fill="none" stroke="#9a32cd" stroke-dasharray="5,2" d="M373.365,-52.8389C407.041,-57.2805 457.892,-64.1868 502,-71 515.785,-73.1293 530.754,-75.6154 544.37,-77.9442"/>
<polygon fill="#9a32cd" stroke="#9a32cd" points="373.436,-49.3182 363.065,-51.4867 372.524,-56.2586 373.436,-49.3182"/>
<text text-anchor="middle" x="465" y="-74" font-family="Helvetica,sans-Serif" font-size="10.00"> rand</text>
</g>
<!-- Node7 -->
<g id="node7" class="node"><title>Node7</title>
<polygon fill="white" stroke="#bfbfbf" points="559.5,-38.5 559.5,-57.5 622.5,-57.5 622.5,-38.5 559.5,-38.5"/>
<text text-anchor="middle" x="591" y="-45.5" font-family="Helvetica,sans-Serif" font-size="10.00">KeyFrame</text>
</g>
<!-- Node7&#45;&gt;Node1 -->
<g id="edge6" class="edge"><title>Node7&#45;&gt;Node1</title>
<path fill="none" stroke="#9a32cd" stroke-dasharray="5,2" d="M632.346,-57.7688C658.075,-64.115 692.084,-72.7198 722,-81 741.81,-86.483 763.921,-93.1094 781.27,-98.4254"/>
<polygon fill="#9a32cd" stroke="#9a32cd" points="633.113,-54.3532 622.567,-55.367 631.444,-61.1512 633.113,-54.3532"/>
<text text-anchor="middle" x="701" y="-84" font-family="Helvetica,sans-Serif" font-size="10.00"> frame</text>
</g>
<!-- Node8&#45;&gt;Node1 -->
<g id="edge7" class="edge"><title>Node8&#45;&gt;Node1</title>
<path fill="none" stroke="#9a32cd" stroke-dasharray="5,2" d="M611.67,-341.111C657.929,-287.283 772.099,-154.431 803.748,-117.602"/>
<polygon fill="#9a32cd" stroke="#9a32cd" points="608.966,-338.887 605.103,-348.753 614.275,-343.45 608.966,-338.887"/>
<text text-anchor="middle" x="701" y="-262" font-family="Helvetica,sans-Serif" font-size="10.00"> updater</text>
</g>
<!-- Node9 -->
<g id="node9" class="node"><title>Node9</title>
<polygon fill="white" stroke="#bfbfbf" points="56.5,-343.5 56.5,-362.5 101.5,-362.5 101.5,-343.5 56.5,-343.5"/>
<text text-anchor="middle" x="79" y="-350.5" font-family="Helvetica,sans-Serif" font-size="10.00">Stage</text>
</g>
<!-- Node9&#45;&gt;Node8 -->
<g id="edge9" class="edge"><title>Node9&#45;&gt;Node8</title>
<path fill="none" stroke="#9a32cd" stroke-dasharray="5,2" d="M111.621,-353.682C192.293,-355.422 407.292,-360.059 519.546,-362.48"/>
<polygon fill="#9a32cd" stroke="#9a32cd" points="111.661,-350.182 101.588,-353.466 111.51,-357.181 111.661,-350.182"/>
<text text-anchor="middle" x="335" y="-363" font-family="Helvetica,sans-Serif" font-size="10.00"> s</text>
</g>
<!-- Node9&#45;&gt;Node14 -->
<g id="edge16" class="edge"><title>Node9&#45;&gt;Node14</title>
<path fill="none" stroke="#9a32cd" stroke-dasharray="5,2" d="M111.621,-346.9C154.926,-338.546 233.13,-323.459 284.305,-313.587"/>
<polygon fill="#9a32cd" stroke="#9a32cd" points="110.812,-343.491 101.656,-348.822 112.138,-350.365 110.812,-343.491"/>
<text text-anchor="middle" x="209" y="-338" font-family="Helvetica,sans-Serif" font-size="10.00"> s</text>
</g>
<!-- Node10 -->
<g id="node10" class="node"><title>Node10</title>
<g id="a_node10"><a xlink:href="../../da/d16/classanimation_1_1_animated_graph.html" target="_top" xlink:title="animation.AnimatedGraph">
<polygon fill="white" stroke="black" points="263.5,-469.5 263.5,-488.5 406.5,-488.5 406.5,-469.5 263.5,-469.5"/>
<text text-anchor="middle" x="335" y="-476.5" font-family="Helvetica,sans-Serif" font-size="10.00">animation.AnimatedGraph</text>
</a>
</g>
</g>
<!-- Node10&#45;&gt;Node8 -->
<g id="edge10" class="edge"><title>Node10&#45;&gt;Node8</title>
<path fill="none" stroke="#9a32cd" stroke-dasharray="5,2" d="M417.007,-468.063C444.96,-462.217 475.81,-453.355 502,-440 532.212,-424.594 560.669,-396.678 576.664,-379.306"/>
<polygon fill="#9a32cd" stroke="#9a32cd" points="415.978,-464.699 406.853,-470.083 417.344,-471.564 415.978,-464.699"/>
<text text-anchor="middle" x="465" y="-467" font-family="Helvetica,sans-Serif" font-size="10.00"> ag</text>
</g>
<!-- Node11 -->
<g id="node11" class="node"><title>Node11</title>
<polygon fill="white" stroke="#bfbfbf" points="3,-486 3,-516 155,-516 155,-486 3,-486"/>
<text text-anchor="start" x="11" y="-504" font-family="Helvetica,sans-Serif" font-size="10.00">HashMap&lt; Integer, XYChart.</text>
<text text-anchor="middle" x="79" y="-493" font-family="Helvetica,sans-Serif" font-size="10.00">Series &gt;</text>
</g>
<!-- Node11&#45;&gt;Node10 -->
<g id="edge11" class="edge"><title>Node11&#45;&gt;Node10</title>
<path fill="none" stroke="#9a32cd" stroke-dasharray="5,2" d="M165.368,-493.606C197.215,-490.848 232.99,-487.749 263.367,-485.118"/>
<polygon fill="#9a32cd" stroke="#9a32cd" points="164.838,-490.139 155.177,-494.489 165.442,-497.113 164.838,-490.139"/>
<text text-anchor="middle" x="209" y="-495" font-family="Helvetica,sans-Serif" font-size="10.00"> seriesMap</text>
</g>
<!-- Node12 -->
<g id="node12" class="node"><title>Node12</title>
<polygon fill="white" stroke="#bfbfbf" points="3,-447.5 3,-466.5 155,-466.5 155,-447.5 3,-447.5"/>
<text text-anchor="middle" x="79" y="-454.5" font-family="Helvetica,sans-Serif" font-size="10.00">HashMap&lt; Integer, String &gt;</text>
</g>
<!-- Node12&#45;&gt;Node10 -->
<g id="edge12" class="edge"><title>Node12&#45;&gt;Node10</title>
<path fill="none" stroke="#9a32cd" stroke-dasharray="5,2" d="M165.368,-464.394C197.215,-467.152 232.99,-470.251 263.367,-472.882"/>
<polygon fill="#9a32cd" stroke="#9a32cd" points="165.442,-460.887 155.177,-463.511 164.838,-467.861 165.442,-460.887"/>
<text text-anchor="middle" x="209" y="-473" font-family="Helvetica,sans-Serif" font-size="10.00"> paramLabels</text>
</g>
<!-- Node13 -->
<g id="node13" class="node"><title>Node13</title>
<polygon fill="white" stroke="#bfbfbf" points="276.5,-431.5 276.5,-450.5 393.5,-450.5 393.5,-431.5 276.5,-431.5"/>
<text text-anchor="middle" x="335" y="-438.5" font-family="Helvetica,sans-Serif" font-size="10.00">LinkedList&lt; Shape &gt;</text>
</g>
<!-- Node13&#45;&gt;Node8 -->
<g id="edge13" class="edge"><title>Node13&#45;&gt;Node8</title>
<path fill="none" stroke="#9a32cd" stroke-dasharray="5,2" d="M403.797,-429.836C434.245,-423.923 470.362,-415.653 502,-405 522.606,-398.062 544.79,-387.705 561.729,-379.137"/>
<polygon fill="#9a32cd" stroke="#9a32cd" points="402.875,-426.448 393.703,-431.751 404.18,-433.326 402.875,-426.448"/>
<text text-anchor="middle" x="465" y="-428" font-family="Helvetica,sans-Serif" font-size="10.00"> indexMap</text>
</g>
<!-- Node14&#45;&gt;Node8 -->
<g id="edge14" class="edge"><title>Node14&#45;&gt;Node8</title>
<path fill="none" stroke="#9a32cd" stroke-dasharray="5,2" d="M395.601,-315.53C427.318,-321.927 466.911,-330.328 502,-339 514.181,-342.01 527.224,-345.544 539.437,-348.99"/>
<polygon fill="#9a32cd" stroke="#9a32cd" points="396.089,-312.059 385.596,-313.526 394.714,-318.922 396.089,-312.059"/>
<text text-anchor="middle" x="465" y="-342" font-family="Helvetica,sans-Serif" font-size="10.00"> gc</text>
</g>
<!-- Node15 -->
<g id="node15" class="node"><title>Node15</title>
<polygon fill="white" stroke="#bfbfbf" points="0,-294.5 0,-313.5 158,-313.5 158,-294.5 0,-294.5"/>
<text text-anchor="middle" x="79" y="-301.5" font-family="Helvetica,sans-Serif" font-size="10.00">HashMap&lt; Integer, Integer &gt;</text>
</g>
<!-- Node15&#45;&gt;Node14 -->
<g id="edge17" class="edge"><title>Node15&#45;&gt;Node14</title>
<path fill="none" stroke="#9a32cd" stroke-dasharray="5,2" d="M168.487,-304C203.415,-304 242.635,-304 274.127,-304"/>
<polygon fill="#9a32cd" stroke="#9a32cd" points="168.281,-300.5 158.281,-304 168.281,-307.5 168.281,-300.5"/>
<text text-anchor="middle" x="209" y="-307" font-family="Helvetica,sans-Serif" font-size="10.00"> newParams</text>
</g>
<!-- Node16 -->
<g id="node16" class="node"><title>Node16</title>
<polygon fill="white" stroke="#bfbfbf" points="54.5,-227.5 54.5,-246.5 103.5,-246.5 103.5,-227.5 54.5,-227.5"/>
<text text-anchor="middle" x="79" y="-234.5" font-family="Helvetica,sans-Serif" font-size="10.00">Button</text>
</g>
<!-- Node16&#45;&gt;Node14 -->
<g id="edge18" class="edge"><title>Node16&#45;&gt;Node14</title>
<path fill="none" stroke="#9a32cd" stroke-dasharray="5,2" d="M113.734,-237.412C147.021,-238.635 199.021,-242.761 242,-256 271.269,-265.016 302.235,-283.225 319.737,-294.441"/>
<polygon fill="#9a32cd" stroke="#9a32cd" points="113.719,-233.91 103.619,-237.108 113.51,-240.906 113.719,-233.91"/>
<text text-anchor="middle" x="209" y="-292" font-family="Helvetica,sans-Serif" font-size="10.00"> play</text>
<text text-anchor="middle" x="209" y="-281" font-family="Helvetica,sans-Serif" font-size="10.00">load</text>
<text text-anchor="middle" x="209" y="-270" font-family="Helvetica,sans-Serif" font-size="10.00">step</text>
<text text-anchor="middle" x="209" y="-259" font-family="Helvetica,sans-Serif" font-size="10.00">pause</text>
</g>
<!-- Node17 -->
<g id="node17" class="node"><title>Node17</title>
<polygon fill="white" stroke="#bfbfbf" points="260.5,-393.5 260.5,-412.5 409.5,-412.5 409.5,-393.5 260.5,-393.5"/>
<text text-anchor="middle" x="335" y="-400.5" font-family="Helvetica,sans-Serif" font-size="10.00">HashMap&lt; Integer, Color &gt;</text>
</g>
<!-- Node17&#45;&gt;Node8 -->
<g id="edge19" class="edge"><title>Node17&#45;&gt;Node8</title>
<path fill="none" stroke="#9a32cd" stroke-dasharray="5,2" d="M410.215,-391.957C438.899,-387.654 471.985,-382.648 502,-378 507.809,-377.1 513.833,-376.159 519.879,-375.209"/>
<polygon fill="#9a32cd" stroke="#9a32cd" points="409.636,-388.505 400.265,-393.448 410.674,-395.428 409.636,-388.505"/>
<text text-anchor="middle" x="465" y="-393" font-family="Helvetica,sans-Serif" font-size="10.00"> stateColorMap</text>
</g>
</g>
</svg>
        <g id="navigator" transform="translate(0 0)" fill="#404254">
                <rect fill="#f2f5e9" fill-opacity="0.5" stroke="#606060" stroke-width=".5" x="0" y="0" width="60" height="60"/>
                <use id="zoomplus" xlink:href="#zoomPlus" x="17" y="9" onmousedown="handleZoom(evt,'in')"/>
                <use id="zoomminus" xlink:href="#zoomMin" x="42" y="9" onmousedown="handleZoom(evt,'out')"/>
                <use id="reset" xlink:href="#resetDef" x="30" y="36" onmousedown="handleReset()"/>
                <g id="arrowUp" xlink:href="#dirArrow" transform="translate(30 24)" onmousedown="handlePan(0,-1)">
                  <use xlink:href="#rim" fill="#404040">
                        <set attributeName="fill" to="#808080" begin="arrowUp.mouseover" end="arrowUp.mouseout"/>
                  </use>
                  <path fill="none" stroke="white" stroke-width="1.5" d="M0,-3.0v7 M-2.5,-0.5L0,-3.0L2.5,-0.5"/>
                </g>
                <g id="arrowRight" xlink:href="#dirArrow" transform="rotate(90) translate(36 -43)" onmousedown="handlePan(1,0)">
                  <use xlink:href="#rim" fill="#404040">
                        <set attributeName="fill" to="#808080" begin="arrowRight.mouseover" end="arrowRight.mouseout"/>
                  </use>
                  <path fill="none" stroke="white" stroke-width="1.5" d="M0,-3.0v7 M-2.5,-0.5L0,-3.0L2.5,-0.5"/>
                </g>
                <g id="arrowDown" xlink:href="#dirArrow" transform="rotate(180) translate(-30 -48)" onmousedown="handlePan(0,1)">
                  <use xlink:href="#rim" fill="#404040">
                        <set attributeName="fill" to="#808080" begin="arrowDown.mouseover" end="arrowDown.mouseout"/>
                  </use>
                  <path fill="none" stroke="white" stroke-width="1.5" d="M0,-3.0v7 M-2.5,-0.5L0,-3.0L2.5,-0.5"/>
                </g>
                <g id="arrowLeft" xlink:href="#dirArrow" transform="rotate(270) translate(-36 17)" onmousedown="handlePan(-1,0)">
                  <use xlink:href="#rim" fill="#404040">
                        <set attributeName="fill" to="#808080" begin="arrowLeft.mouseover" end="arrowLeft.mouseout"/>
                  </use>
                  <path fill="none" stroke="white" stroke-width="1.5" d="M0,-3.0v7 M-2.5,-0.5L0,-3.0L2.5,-0.5"/>
                </g>
        </g>
        <svg viewBox="0 0 15 15" width="100%" height="30px" preserveAspectRatio="xMaxYMin meet">
         <g id="arrow_out" transform="scale(0.3 0.3)">
          <a xlink:href="classcellsociety__team05_1_1_master__coll__graph_org.svg" target="_base">
           <rect id="button" ry="5" rx="5" y="6" x="6" height="38" width="38"
                fill="#f2f5e9" fill-opacity="0.5" stroke="#606060" stroke-width="1.0"/>
           <path id="arrow"
             d="M 11.500037,31.436501 C 11.940474,20.09759 22.043105,11.32322 32.158766,21.979434 L 37.068811,17.246167 C 37.068811,17.246167 37.088388,32 37.088388,32 L 22.160133,31.978069 C 22.160133,31.978069 26.997745,27.140456 26.997745,27.140456 C 18.528582,18.264221 13.291696,25.230495 11.500037,31.436501 z"
             style="fill:#404040;"/>
          </a>
         </g>
        </svg>
</svg>
