<?xml version="1.0" encoding="UTF-8" standalone="no"?>
<!DOCTYPE svg PUBLIC "-//W3C//DTD SVG 1.1//EN"
 "http://www.w3.org/Graphics/SVG/1.1/DTD/svg11.dtd">
<!-- Generated by graphviz version 2.36.0 (20140111.2315)
 -->
<!-- Title: error.XMLNotFoundException Pages: 1 -->
<svg width="239pt" height="96pt"
 viewBox="0.00 0.00 239.00 96.00" xmlns="http://www.w3.org/2000/svg" xmlns:xlink="http://www.w3.org/1999/xlink">
<g id="graph0" class="graph" transform="scale(1 1) rotate(0) translate(4 92)">
<title>error.XMLNotFoundException</title>
<polygon fill="white" stroke="none" points="-4,4 -4,-92 235,-92 235,4 -4,4"/>
<!-- Node1 -->
<g id="node1" class="node"><title>Node1</title>
<polygon fill="#bfbfbf" stroke="black" points="46.5,-0.5 46.5,-19.5 201.5,-19.5 201.5,-0.5 46.5,-0.5"/>
<text text-anchor="middle" x="124" y="-7.5" font-family="Helvetica,sans-Serif" font-size="10.00">error.XMLNotFoundException</text>
</g>
<!-- Node2 -->
<g id="node2" class="node"><title>Node2</title>
<polygon fill="white" stroke="#bfbfbf" points="-0.5,-68.5 -0.5,-87.5 124.5,-87.5 124.5,-68.5 -0.5,-68.5"/>
<text text-anchor="middle" x="62" y="-75.5" font-family="Helvetica,sans-Serif" font-size="10.00">FileNotFoundException</text>
</g>
<!-- Node2&#45;&gt;Node1 -->
<g id="edge1" class="edge"><title>Node2&#45;&gt;Node1</title>
<path fill="none" stroke="midnightblue" d="M76.9858,-61.0474C89.138,-48.1111 105.816,-30.3567 115.695,-19.8411"/>
<polygon fill="midnightblue" stroke="midnightblue" points="74.4012,-58.6868 70.1054,-68.3717 79.5032,-63.4795 74.4012,-58.6868"/>
</g>
<!-- Node3 -->
<g id="node3" class="node"><title>Node3</title>
<polygon fill="white" stroke="#bfbfbf" points="142.5,-68.5 142.5,-87.5 231.5,-87.5 231.5,-68.5 142.5,-68.5"/>
<text text-anchor="middle" x="187" y="-75.5" font-family="Helvetica,sans-Serif" font-size="10.00">List&lt; Integer &gt;</text>
</g>
<!-- Node3&#45;&gt;Node1 -->
<g id="edge2" class="edge"><title>Node3&#45;&gt;Node1</title>
<path fill="none" stroke="#9a32cd" stroke-dasharray="5,2" d="M171.773,-61.0474C159.424,-48.1111 142.477,-30.3567 132.439,-19.8411"/>
<polygon fill="#9a32cd" stroke="#9a32cd" points="169.327,-63.5547 178.764,-68.3717 174.391,-58.7214 169.327,-63.5547"/>
<text text-anchor="middle" x="182" y="-41.5" font-family="Helvetica,sans-Serif" font-size="10.00"> params</text>
</g>
</g>
</svg>
