<?xml version="1.0" encoding="UTF-8" standalone="no"?>
<!DOCTYPE svg PUBLIC "-//W3C//DTD SVG 1.1//EN"
 "http://www.w3.org/Graphics/SVG/1.1/DTD/svg11.dtd">
<!-- Generated by graphviz version 2.36.0 (20140111.2315)
 -->
<!-- Title: simulations.Sugar.updateHash Pages: 1 -->
<svg width="350pt" height="77pt"
 viewBox="0.00 0.00 350.00 77.00" xmlns="http://www.w3.org/2000/svg" xmlns:xlink="http://www.w3.org/1999/xlink">
<g id="graph0" class="graph" transform="scale(1 1) rotate(0) translate(4 73)">
<title>simulations.Sugar.updateHash</title>
<polygon fill="white" stroke="none" points="-4,4 -4,-73 346,-73 346,4 -4,4"/>
<!-- Node1 -->
<g id="node1" class="node"><title>Node1</title>
<polygon fill="#bfbfbf" stroke="black" points="0,-27.5 0,-46.5 164,-46.5 164,-27.5 0,-27.5"/>
<text text-anchor="middle" x="82" y="-34.5" font-family="Helvetica,sans-Serif" font-size="10.00">simulations.Sugar.updateHash</text>
</g>
<!-- Node2 -->
<g id="node2" class="node"><title>Node2</title>
<g id="a_node2"><a xlink:href="../../d9/d7b/classsimulations_1_1_sim.html#a4da2ab43816b7e030ba62c1a10c82cf6" target="_top" xlink:title="simulations.Sim.setCell">
<polygon fill="white" stroke="black" points="207,-49.5 207,-68.5 335,-68.5 335,-49.5 207,-49.5"/>
<text text-anchor="middle" x="271" y="-56.5" font-family="Helvetica,sans-Serif" font-size="10.00">simulations.Sim.setCell</text>
</a>
</g>
</g>
<!-- Node1&#45;&gt;Node2 -->
<g id="edge1" class="edge"><title>Node1&#45;&gt;Node2</title>
<path fill="none" stroke="midnightblue" d="M163.933,-46.5216C174.855,-47.8064 186.009,-49.1187 196.785,-50.3865"/>
<polygon fill="midnightblue" stroke="midnightblue" points="196.641,-53.8936 206.982,-51.5861 197.459,-46.9415 196.641,-53.8936"/>
</g>
<!-- Node3 -->
<g id="node3" class="node"><title>Node3</title>
<g id="a_node3"><a xlink:href="../../d9/dd0/classcellsociety__team05_1_1_scene_updater.html#a5b755feda214274401674bc34e08d9d2" target="_top" xlink:title="cellsociety_team05.Scene\lUpdater.updateScene">
<polygon fill="white" stroke="black" points="200,-0 200,-30 342,-30 342,-0 200,-0"/>
<text text-anchor="start" x="208" y="-18" font-family="Helvetica,sans-Serif" font-size="10.00">cellsociety_team05.Scene</text>
<text text-anchor="middle" x="271" y="-7" font-family="Helvetica,sans-Serif" font-size="10.00">Updater.updateScene</text>
</a>
</g>
</g>
<!-- Node1&#45;&gt;Node3 -->
<g id="edge2" class="edge"><title>Node1&#45;&gt;Node3</title>
<path fill="none" stroke="midnightblue" d="M163.933,-27.4784C172.518,-26.4685 181.246,-25.4416 189.822,-24.4327"/>
<polygon fill="midnightblue" stroke="midnightblue" points="190.279,-27.9031 199.802,-23.2586 189.461,-20.9511 190.279,-27.9031"/>
</g>
</g>
</svg>
