<?xml version="1.0" encoding="UTF-8" standalone="no"?>
<!DOCTYPE svg PUBLIC "-//W3C//DTD SVG 1.1//EN"
 "http://www.w3.org/Graphics/SVG/1.1/DTD/svg11.dtd">
<!-- Generated by graphviz version 2.36.0 (20140111.2315)
 -->
<!-- Title: simulations.Sugar.initMap Pages: 1 -->
<!--zoomable 104 -->
<svg id="main" version="1.1" xmlns="http://www.w3.org/2000/svg" xmlns:xlink="http://www.w3.org/1999/xlink" xml:space="preserve" onload="init(evt)">
<style type="text/css"><![CDATA[
.edge:hover path { stroke: red; }
.edge:hover polygon { stroke: red; fill: red; }
]]></style>
<script type="text/javascript"><![CDATA[
var edges = document.getElementsByTagName('g');
if (edges && edges.length) {
  for (var i=0;i<edges.length;i++) {
    if (edges[i].id.substr(0,4)=='edge') {
      edges[i].setAttribute('class','edge');
    }
  }
}
]]></script>
        <defs>
                <circle id="rim" cx="0" cy="0" r="7"/>
                <circle id="rim2" cx="0" cy="0" r="3.5"/>
                <g id="zoomPlus">
                        <use xlink:href="#rim" fill="#404040">
                                <set attributeName="fill" to="#808080" begin="zoomplus.mouseover" end="zoomplus.mouseout"/>
                        </use>
                        <path d="M-4,0h8M0,-4v8" fill="none" stroke="white" stroke-width="1.5" pointer-events="none"/>
                </g>
                <g id="zoomMin">
                        <use xlink:href="#rim" fill="#404040">
                                <set attributeName="fill" to="#808080" begin="zoomminus.mouseover" end="zoomminus.mouseout"/>
                        </use>
                        <path d="M-4,0h8" fill="none" stroke="white" stroke-width="1.5" pointer-events="none"/>
                </g>
                <g id="dirArrow">
                        <path fill="none" stroke="white" stroke-width="1.5" d="M0,-3.0v7 M-2.5,-0.5L0,-3.0L2.5,-0.5"/>
                </g>
               <g id="resetDef">
                       <use xlink:href="#rim2" fill="#404040">
                               <set attributeName="fill" to="#808080" begin="reset.mouseover" end="reset.mouseout"/>
                       </use>
               </g>
        </defs>

<script type="text/javascript">
var viewWidth = 698;
var viewHeight = 104;
var sectionId = 'dynsection-8';
</script>
<script xlink:href="../../svgpan.js"/>
<svg id="graph" class="graph">
<g id="viewport">
<title>simulations.Sugar.initMap</title>
<polygon fill="white" stroke="none" points="-4,4 -4,-100 694,-100 694,4 -4,4"/>
<!-- Node1 -->
<g id="node1" class="node"><title>Node1</title>
<polygon fill="#bfbfbf" stroke="black" points="0,-19.5 0,-38.5 140,-38.5 140,-19.5 0,-19.5"/>
<text text-anchor="middle" x="70" y="-26.5" font-family="Helvetica,sans-Serif" font-size="10.00">simulations.Sugar.initMap</text>
</g>
<!-- Node2 -->
<g id="node2" class="node"><title>Node2</title>
<g id="a_node2"><a xlink:href="../../d7/d0c/classsimulations_1_1_sugar.html#a7a1008455430c8ea6ae4acc3c9ecf39c" target="_top" xlink:title="simulations.Sugar.fillAgents">
<polygon fill="white" stroke="black" points="176.5,-38.5 176.5,-57.5 325.5,-57.5 325.5,-38.5 176.5,-38.5"/>
<text text-anchor="middle" x="251" y="-45.5" font-family="Helvetica,sans-Serif" font-size="10.00">simulations.Sugar.fillAgents</text>
</a>
</g>
</g>
<!-- Node1&#45;&gt;Node2 -->
<g id="edge1" class="edge"><title>Node1&#45;&gt;Node2</title>
<path fill="none" stroke="midnightblue" d="M140.206,-36.3459C148.691,-37.2466 157.434,-38.1745 166.105,-39.095"/>
<polygon fill="midnightblue" stroke="midnightblue" points="165.92,-42.5948 176.233,-40.17 166.658,-35.6339 165.92,-42.5948"/>
</g>
<!-- Node5 -->
<g id="node5" class="node"><title>Node5</title>
<g id="a_node5"><a xlink:href="../../d9/d7b/classsimulations_1_1_sim.html#a8053def01cba47bd9c66e26745495087" target="_top" xlink:title="simulations.Sim.populate">
<polygon fill="white" stroke="black" points="182,-0.5 182,-19.5 320,-19.5 320,-0.5 182,-0.5"/>
<text text-anchor="middle" x="251" y="-7.5" font-family="Helvetica,sans-Serif" font-size="10.00">simulations.Sim.populate</text>
</a>
</g>
</g>
<!-- Node1&#45;&gt;Node5 -->
<g id="edge4" class="edge"><title>Node1&#45;&gt;Node5</title>
<path fill="none" stroke="midnightblue" d="M140.206,-21.6541C150.569,-20.5541 161.315,-19.4135 171.848,-18.2954"/>
<polygon fill="midnightblue" stroke="midnightblue" points="172.287,-21.7686 181.862,-17.2325 171.548,-14.8077 172.287,-21.7686"/>
</g>
<!-- Node3 -->
<g id="node3" class="node"><title>Node3</title>
<g id="a_node3"><a xlink:href="../../d3/dce/classutility_1_1_random_range.html#a6bc141d5e8b7a4e73c784003269c00e2" target="_top" xlink:title="utility.RandomRange.randInt">
<polygon fill="white" stroke="black" points="362,-76.5 362,-95.5 512,-95.5 512,-76.5 362,-76.5"/>
<text text-anchor="middle" x="437" y="-83.5" font-family="Helvetica,sans-Serif" font-size="10.00">utility.RandomRange.randInt</text>
</a>
</g>
</g>
<!-- Node2&#45;&gt;Node3 -->
<g id="edge2" class="edge"><title>Node2&#45;&gt;Node3</title>
<path fill="none" stroke="midnightblue" d="M298.431,-57.589C323.149,-62.6939 353.739,-69.0113 379.792,-74.3918"/>
<polygon fill="midnightblue" stroke="midnightblue" points="379.402,-77.885 389.903,-76.4799 380.817,-71.0297 379.402,-77.885"/>
</g>
<!-- Node4 -->
<g id="node4" class="node"><title>Node4</title>
<g id="a_node4"><a xlink:href="../../d9/d7b/classsimulations_1_1_sim.html#a4da2ab43816b7e030ba62c1a10c82cf6" target="_top" xlink:title="simulations.Sim.setCell">
<polygon fill="white" stroke="black" points="555,-38.5 555,-57.5 683,-57.5 683,-38.5 555,-38.5"/>
<text text-anchor="middle" x="619" y="-45.5" font-family="Helvetica,sans-Serif" font-size="10.00">simulations.Sim.setCell</text>
</a>
</g>
</g>
<!-- Node2&#45;&gt;Node4 -->
<g id="edge3" class="edge"><title>Node2&#45;&gt;Node4</title>
<path fill="none" stroke="midnightblue" d="M325.625,-48C389.297,-48 480.871,-48 544.505,-48"/>
<polygon fill="midnightblue" stroke="midnightblue" points="544.863,-51.5001 554.863,-48 544.863,-44.5001 544.863,-51.5001"/>
</g>
<!-- Node6 -->
<g id="node6" class="node"><title>Node6</title>
<g id="a_node6"><a xlink:href="../../d9/d7b/classsimulations_1_1_sim.html#adbed7e9c387ef5889ce9cf6c7c302ef3" target="_top" xlink:title="simulations.Sim.fillCell">
<polygon fill="white" stroke="black" points="375.5,-0.5 375.5,-19.5 498.5,-19.5 498.5,-0.5 375.5,-0.5"/>
<text text-anchor="middle" x="437" y="-7.5" font-family="Helvetica,sans-Serif" font-size="10.00">simulations.Sim.fillCell</text>
</a>
</g>
</g>
<!-- Node5&#45;&gt;Node6 -->
<g id="edge5" class="edge"><title>Node5&#45;&gt;Node6</title>
<path fill="none" stroke="midnightblue" d="M320.253,-10C334.962,-10 350.539,-10 365.337,-10"/>
<polygon fill="midnightblue" stroke="midnightblue" points="365.437,-13.5001 375.437,-10 365.437,-6.5001 365.437,-13.5001"/>
</g>
<!-- Node6&#45;&gt;Node4 -->
<g id="edge7" class="edge"><title>Node6&#45;&gt;Node4</title>
<path fill="none" stroke="midnightblue" d="M483.422,-19.589C507.603,-24.6939 537.527,-31.0113 563.014,-36.3918"/>
<polygon fill="midnightblue" stroke="midnightblue" points="562.398,-39.8388 572.905,-38.4799 563.844,-32.9898 562.398,-39.8388"/>
</g>
<!-- Node7 -->
<g id="node7" class="node"><title>Node7</title>
<g id="a_node7"><a xlink:href="../../d9/d7b/classsimulations_1_1_sim.html#a16809fc8db2a3e21f8169a487aeff124" target="_top" xlink:title="simulations.Sim.checkCell">
<polygon fill="white" stroke="black" points="548.5,-0.5 548.5,-19.5 689.5,-19.5 689.5,-0.5 548.5,-0.5"/>
<text text-anchor="middle" x="619" y="-7.5" font-family="Helvetica,sans-Serif" font-size="10.00">simulations.Sim.checkCell</text>
</a>
</g>
</g>
<!-- Node6&#45;&gt;Node7 -->
<g id="edge6" class="edge"><title>Node6&#45;&gt;Node7</title>
<path fill="none" stroke="midnightblue" d="M498.689,-10C511.376,-10 524.937,-10 538.197,-10"/>
<polygon fill="midnightblue" stroke="midnightblue" points="538.26,-13.5001 548.26,-10 538.26,-6.5001 538.26,-13.5001"/>
</g>
</g>
</svg>
        <g id="navigator" transform="translate(0 0)" fill="#404254">
                <rect fill="#f2f5e9" fill-opacity="0.5" stroke="#606060" stroke-width=".5" x="0" y="0" width="60" height="60"/>
                <use id="zoomplus" xlink:href="#zoomPlus" x="17" y="9" onmousedown="handleZoom(evt,'in')"/>
                <use id="zoomminus" xlink:href="#zoomMin" x="42" y="9" onmousedown="handleZoom(evt,'out')"/>
                <use id="reset" xlink:href="#resetDef" x="30" y="36" onmousedown="handleReset()"/>
                <g id="arrowUp" xlink:href="#dirArrow" transform="translate(30 24)" onmousedown="handlePan(0,-1)">
                  <use xlink:href="#rim" fill="#404040">
                        <set attributeName="fill" to="#808080" begin="arrowUp.mouseover" end="arrowUp.mouseout"/>
                  </use>
                  <path fill="none" stroke="white" stroke-width="1.5" d="M0,-3.0v7 M-2.5,-0.5L0,-3.0L2.5,-0.5"/>
                </g>
                <g id="arrowRight" xlink:href="#dirArrow" transform="rotate(90) translate(36 -43)" onmousedown="handlePan(1,0)">
                  <use xlink:href="#rim" fill="#404040">
                        <set attributeName="fill" to="#808080" begin="arrowRight.mouseover" end="arrowRight.mouseout"/>
                  </use>
                  <path fill="none" stroke="white" stroke-width="1.5" d="M0,-3.0v7 M-2.5,-0.5L0,-3.0L2.5,-0.5"/>
                </g>
                <g id="arrowDown" xlink:href="#dirArrow" transform="rotate(180) translate(-30 -48)" onmousedown="handlePan(0,1)">
                  <use xlink:href="#rim" fill="#404040">
                        <set attributeName="fill" to="#808080" begin="arrowDown.mouseover" end="arrowDown.mouseout"/>
                  </use>
                  <path fill="none" stroke="white" stroke-width="1.5" d="M0,-3.0v7 M-2.5,-0.5L0,-3.0L2.5,-0.5"/>
                </g>
                <g id="arrowLeft" xlink:href="#dirArrow" transform="rotate(270) translate(-36 17)" onmousedown="handlePan(-1,0)">
                  <use xlink:href="#rim" fill="#404040">
                        <set attributeName="fill" to="#808080" begin="arrowLeft.mouseover" end="arrowLeft.mouseout"/>
                  </use>
                  <path fill="none" stroke="white" stroke-width="1.5" d="M0,-3.0v7 M-2.5,-0.5L0,-3.0L2.5,-0.5"/>
                </g>
        </g>
        <svg viewBox="0 0 15 15" width="100%" height="30px" preserveAspectRatio="xMaxYMin meet">
         <g id="arrow_out" transform="scale(0.3 0.3)">
          <a xlink:href="classsimulations_1_1_sugar_ae585bf3ece593c9e21f074ce7f6f38ea_cgraph_org.svg" target="_base">
           <rect id="button" ry="5" rx="5" y="6" x="6" height="38" width="38"
                fill="#f2f5e9" fill-opacity="0.5" stroke="#606060" stroke-width="1.0"/>
           <path id="arrow"
             d="M 11.500037,31.436501 C 11.940474,20.09759 22.043105,11.32322 32.158766,21.979434 L 37.068811,17.246167 C 37.068811,17.246167 37.088388,32 37.088388,32 L 22.160133,31.978069 C 22.160133,31.978069 26.997745,27.140456 26.997745,27.140456 C 18.528582,18.264221 13.291696,25.230495 11.500037,31.436501 z"
             style="fill:#404040;"/>
          </a>
         </g>
        </svg>
</svg>
