<?xml version="1.0" encoding="UTF-8" standalone="no"?>
<!DOCTYPE svg PUBLIC "-//W3C//DTD SVG 1.1//EN"
 "http://www.w3.org/Graphics/SVG/1.1/DTD/svg11.dtd">
<!-- Generated by graphviz version 2.36.0 (20140111.2315)
 -->
<!-- Title: simulations.Sugar.nextGen Pages: 1 -->
<svg width="898pt" height="299pt"
 viewBox="0.00 0.00 898.00 299.00" xmlns="http://www.w3.org/2000/svg" xmlns:xlink="http://www.w3.org/1999/xlink">
<g id="graph0" class="graph" transform="scale(1 1) rotate(0) translate(4 295)">
<title>simulations.Sugar.nextGen</title>
<polygon fill="white" stroke="none" points="-4,4 -4,-295 894,-295 894,4 -4,4"/>
<!-- Node1 -->
<g id="node1" class="node"><title>Node1</title>
<polygon fill="#bfbfbf" stroke="black" points="0,-191.5 0,-210.5 146,-210.5 146,-191.5 0,-191.5"/>
<text text-anchor="middle" x="73" y="-198.5" font-family="Helvetica,sans-Serif" font-size="10.00">simulations.Sugar.nextGen</text>
</g>
<!-- Node2 -->
<g id="node2" class="node"><title>Node2</title>
<g id="a_node2"><a xlink:href="../../d7/d0c/classsimulations_1_1_sugar.html#a143ed823e6c8d400f9a1da80dff0bddc" target="_top" xlink:title="simulations.Sugar.growSugar">
<polygon fill="white" stroke="black" points="182,-231.5 182,-250.5 338,-250.5 338,-231.5 182,-231.5"/>
<text text-anchor="middle" x="260" y="-238.5" font-family="Helvetica,sans-Serif" font-size="10.00">simulations.Sugar.growSugar</text>
</a>
</g>
</g>
<!-- Node1&#45;&gt;Node2 -->
<g id="edge1" class="edge"><title>Node1&#45;&gt;Node2</title>
<path fill="none" stroke="midnightblue" d="M118.312,-210.581C144.398,-216.221 177.578,-223.395 205.163,-229.36"/>
<polygon fill="midnightblue" stroke="midnightblue" points="204.536,-232.805 215.049,-231.497 206.015,-225.963 204.536,-232.805"/>
</g>
<!-- Node4 -->
<g id="node4" class="node"><title>Node4</title>
<g id="a_node4"><a xlink:href="../../d7/d0c/classsimulations_1_1_sugar.html#ae28e368a8530f222d34a6ee29b55fb16" target="_top" xlink:title="simulations.Sugar.update\lAgent">
<polygon fill="white" stroke="black" points="190.5,-147 190.5,-177 329.5,-177 329.5,-147 190.5,-147"/>
<text text-anchor="start" x="198.5" y="-165" font-family="Helvetica,sans-Serif" font-size="10.00">simulations.Sugar.update</text>
<text text-anchor="middle" x="260" y="-154" font-family="Helvetica,sans-Serif" font-size="10.00">Agent</text>
</a>
</g>
</g>
<!-- Node1&#45;&gt;Node4 -->
<g id="edge3" class="edge"><title>Node1&#45;&gt;Node4</title>
<path fill="none" stroke="midnightblue" d="M119.256,-191.46C137.725,-187.566 159.629,-182.948 180.551,-178.538"/>
<polygon fill="midnightblue" stroke="midnightblue" points="181.337,-181.949 190.4,-176.462 179.893,-175.1 181.337,-181.949"/>
</g>
<!-- Node3 -->
<g id="node3" class="node"><title>Node3</title>
<g id="a_node3"><a xlink:href="../../d9/dd0/classcellsociety__team05_1_1_scene_updater.html#a5b755feda214274401674bc34e08d9d2" target="_top" xlink:title="cellsociety_team05.Scene\lUpdater.updateScene">
<polygon fill="white" stroke="black" points="578,-261 578,-291 720,-291 720,-261 578,-261"/>
<text text-anchor="start" x="586" y="-279" font-family="Helvetica,sans-Serif" font-size="10.00">cellsociety_team05.Scene</text>
<text text-anchor="middle" x="649" y="-268" font-family="Helvetica,sans-Serif" font-size="10.00">Updater.updateScene</text>
</a>
</g>
</g>
<!-- Node2&#45;&gt;Node3 -->
<g id="edge2" class="edge"><title>Node2&#45;&gt;Node3</title>
<path fill="none" stroke="midnightblue" d="M322.48,-250.518C339.167,-252.879 357.251,-255.236 374,-257 438.932,-263.839 512.79,-268.798 567.45,-271.931"/>
<polygon fill="midnightblue" stroke="midnightblue" points="567.59,-275.445 577.772,-272.514 567.985,-268.456 567.59,-275.445"/>
</g>
<!-- Node5 -->
<g id="node5" class="node"><title>Node5</title>
<g id="a_node5"><a xlink:href="../../d4/d2e/classutility_1_1_agent.html#a27b7d4f9d43ee311933b0b2f8777f144" target="_top" xlink:title="utility.Agent.findNext">
<polygon fill="white" stroke="black" points="398.5,-190.5 398.5,-209.5 513.5,-209.5 513.5,-190.5 398.5,-190.5"/>
<text text-anchor="middle" x="456" y="-197.5" font-family="Helvetica,sans-Serif" font-size="10.00">utility.Agent.findNext</text>
</a>
</g>
</g>
<!-- Node4&#45;&gt;Node5 -->
<g id="edge4" class="edge"><title>Node4&#45;&gt;Node5</title>
<path fill="none" stroke="midnightblue" d="M329.67,-175.451C351.402,-179.708 375.213,-184.372 396.189,-188.48"/>
<polygon fill="midnightblue" stroke="midnightblue" points="395.751,-191.961 406.237,-190.449 397.097,-185.092 395.751,-191.961"/>
</g>
<!-- Node6 -->
<g id="node6" class="node"><title>Node6</title>
<g id="a_node6"><a xlink:href="../../d7/d2b/classutility_1_1_neighborhood.html#a70ff5a6a5c76877fd88d25400547d5f0" target="_top" xlink:title="utility.Neighborhood.get\lNeighbors">
<polygon fill="white" stroke="black" points="760,-128 760,-158 890,-158 890,-128 760,-128"/>
<text text-anchor="start" x="768" y="-146" font-family="Helvetica,sans-Serif" font-size="10.00">utility.Neighborhood.get</text>
<text text-anchor="middle" x="825" y="-135" font-family="Helvetica,sans-Serif" font-size="10.00">Neighbors</text>
</a>
</g>
</g>
<!-- Node4&#45;&gt;Node6 -->
<g id="edge5" class="edge"><title>Node4&#45;&gt;Node6</title>
<path fill="none" stroke="midnightblue" d="M329.753,-159.68C436.175,-156.088 639.938,-149.212 749.659,-145.509"/>
<polygon fill="midnightblue" stroke="midnightblue" points="750.101,-148.996 759.977,-145.161 749.865,-142 750.101,-148.996"/>
</g>
<!-- Node7 -->
<g id="node7" class="node"><title>Node7</title>
<g id="a_node7"><a xlink:href="../../d4/d2e/classutility_1_1_agent.html#a4e9d745c1021def9e1c69fe90a2016b4" target="_top" xlink:title="utility.Agent.mate">
<polygon fill="white" stroke="black" points="405.5,-114.5 405.5,-133.5 506.5,-133.5 506.5,-114.5 405.5,-114.5"/>
<text text-anchor="middle" x="456" y="-121.5" font-family="Helvetica,sans-Serif" font-size="10.00">utility.Agent.mate</text>
</a>
</g>
</g>
<!-- Node4&#45;&gt;Node7 -->
<g id="edge6" class="edge"><title>Node4&#45;&gt;Node7</title>
<path fill="none" stroke="midnightblue" d="M329.67,-148.549C351.402,-144.292 375.213,-139.628 396.189,-135.52"/>
<polygon fill="midnightblue" stroke="midnightblue" points="397.097,-138.908 406.237,-133.551 395.751,-132.039 397.097,-138.908"/>
</g>
<!-- Node12 -->
<g id="node12" class="node"><title>Node12</title>
<g id="a_node12"><a xlink:href="../../d4/d2e/classutility_1_1_agent.html#ab0cba5e111ee52c79c432586242c9219" target="_top" xlink:title="utility.Agent.eat">
<polygon fill="white" stroke="black" points="410.5,-76.5 410.5,-95.5 501.5,-95.5 501.5,-76.5 410.5,-76.5"/>
<text text-anchor="middle" x="456" y="-83.5" font-family="Helvetica,sans-Serif" font-size="10.00">utility.Agent.eat</text>
</a>
</g>
</g>
<!-- Node4&#45;&gt;Node12 -->
<g id="edge12" class="edge"><title>Node4&#45;&gt;Node12</title>
<path fill="none" stroke="midnightblue" d="M286.699,-146.822C309.108,-134.133 342.819,-116.339 374,-105 382.383,-101.951 391.436,-99.2678 400.347,-96.9508"/>
<polygon fill="midnightblue" stroke="midnightblue" points="401.436,-100.287 410.304,-94.4905 399.756,-93.4914 401.436,-100.287"/>
</g>
<!-- Node13 -->
<g id="node13" class="node"><title>Node13</title>
<g id="a_node13"><a xlink:href="../../d4/d2e/classutility_1_1_agent.html#a94563d4cd2d621d01406899d2685f053" target="_top" xlink:title="utility.Agent.grow">
<polygon fill="white" stroke="black" points="407,-38.5 407,-57.5 505,-57.5 505,-38.5 407,-38.5"/>
<text text-anchor="middle" x="456" y="-45.5" font-family="Helvetica,sans-Serif" font-size="10.00">utility.Agent.grow</text>
</a>
</g>
</g>
<!-- Node4&#45;&gt;Node13 -->
<g id="edge13" class="edge"><title>Node4&#45;&gt;Node13</title>
<path fill="none" stroke="midnightblue" d="M274.388,-146.967C294.082,-125.815 332.988,-87.5618 374,-67 381.16,-63.4101 389.019,-60.484 396.938,-58.1024"/>
<polygon fill="midnightblue" stroke="midnightblue" points="397.864,-61.4777 406.584,-55.4596 396.015,-54.7265 397.864,-61.4777"/>
</g>
<!-- Node14 -->
<g id="node14" class="node"><title>Node14</title>
<g id="a_node14"><a xlink:href="../../d7/d0c/classsimulations_1_1_sugar.html#a2e18269db2d46ed65c7624ac1d35d195" target="_top" xlink:title="simulations.Sugar.updateHash">
<polygon fill="white" stroke="black" points="374,-228.5 374,-247.5 538,-247.5 538,-228.5 374,-228.5"/>
<text text-anchor="middle" x="456" y="-235.5" font-family="Helvetica,sans-Serif" font-size="10.00">simulations.Sugar.updateHash</text>
</a>
</g>
</g>
<!-- Node4&#45;&gt;Node14 -->
<g id="edge14" class="edge"><title>Node4&#45;&gt;Node14</title>
<path fill="none" stroke="midnightblue" d="M286.699,-177.178C309.108,-189.867 342.819,-207.661 374,-219 381.079,-221.574 388.635,-223.888 396.18,-225.941"/>
<polygon fill="midnightblue" stroke="midnightblue" points="395.494,-229.379 406.051,-228.489 397.243,-222.601 395.494,-229.379"/>
</g>
<!-- Node8 -->
<g id="node8" class="node"><title>Node8</title>
<g id="a_node8"><a xlink:href="../../d4/d2e/classutility_1_1_agent.html#a251a662ecad2a3ef3083b679b2c41281" target="_top" xlink:title="utility.Agent.active">
<polygon fill="white" stroke="black" points="597,-38.5 597,-57.5 701,-57.5 701,-38.5 597,-38.5"/>
<text text-anchor="middle" x="649" y="-45.5" font-family="Helvetica,sans-Serif" font-size="10.00">utility.Agent.active</text>
</a>
</g>
</g>
<!-- Node7&#45;&gt;Node8 -->
<g id="edge7" class="edge"><title>Node7&#45;&gt;Node8</title>
<path fill="none" stroke="midnightblue" d="M506.704,-117.139C517.475,-114.364 528.481,-110.468 538,-105 558.173,-93.4119 553.949,-78.7985 574,-67 578.14,-64.5636 582.59,-62.4364 587.18,-60.5795"/>
<polygon fill="midnightblue" stroke="midnightblue" points="588.519,-63.8174 596.74,-57.1353 586.146,-57.2317 588.519,-63.8174"/>
</g>
<!-- Node9 -->
<g id="node9" class="node"><title>Node9</title>
<g id="a_node9"><a xlink:href="../../d4/d2e/classutility_1_1_agent.html#a3dd7670f907213a6cdadd7c7c0131ba6" target="_top" xlink:title="utility.Agent.hungry">
<polygon fill="white" stroke="black" points="595,-0.5 595,-19.5 703,-19.5 703,-0.5 595,-0.5"/>
<text text-anchor="middle" x="649" y="-7.5" font-family="Helvetica,sans-Serif" font-size="10.00">utility.Agent.hungry</text>
</a>
</g>
</g>
<!-- Node7&#45;&gt;Node9 -->
<g id="edge8" class="edge"><title>Node7&#45;&gt;Node9</title>
<path fill="none" stroke="midnightblue" d="M506.889,-119.594C518.011,-116.724 529.123,-112.17 538,-105 567.076,-81.5155 545.171,-52.7874 574,-29 577.49,-26.1206 581.363,-23.6712 585.456,-21.5883"/>
<polygon fill="midnightblue" stroke="midnightblue" points="586.914,-24.7711 594.703,-17.5894 584.136,-18.3461 586.914,-24.7711"/>
</g>
<!-- Node10 -->
<g id="node10" class="node"><title>Node10</title>
<g id="a_node10"><a xlink:href="../../d4/d2e/classutility_1_1_agent.html#a35c4a8a52e006df0dea07a267caec828" target="_top" xlink:title="utility.Agent.hasEmptyPatch">
<polygon fill="white" stroke="black" points="574.5,-114.5 574.5,-133.5 723.5,-133.5 723.5,-114.5 574.5,-114.5"/>
<text text-anchor="middle" x="649" y="-121.5" font-family="Helvetica,sans-Serif" font-size="10.00">utility.Agent.hasEmptyPatch</text>
</a>
</g>
</g>
<!-- Node7&#45;&gt;Node10 -->
<g id="edge9" class="edge"><title>Node7&#45;&gt;Node10</title>
<path fill="none" stroke="midnightblue" d="M506.684,-124C524.286,-124 544.608,-124 564.257,-124"/>
<polygon fill="midnightblue" stroke="midnightblue" points="564.452,-127.5 574.452,-124 564.452,-120.5 564.452,-127.5"/>
</g>
<!-- Node11 -->
<g id="node11" class="node"><title>Node11</title>
<g id="a_node11"><a xlink:href="../../d4/d2e/classutility_1_1_agent.html#a51ae7ca7f7e7a34c1ee3db4f61b32111" target="_top" xlink:title="utility.Agent.getIndex">
<polygon fill="white" stroke="black" points="591,-76.5 591,-95.5 707,-95.5 707,-76.5 591,-76.5"/>
<text text-anchor="middle" x="649" y="-83.5" font-family="Helvetica,sans-Serif" font-size="10.00">utility.Agent.getIndex</text>
</a>
</g>
</g>
<!-- Node7&#45;&gt;Node11 -->
<g id="edge11" class="edge"><title>Node7&#45;&gt;Node11</title>
<path fill="none" stroke="midnightblue" d="M505.197,-114.411C530.97,-109.284 562.891,-102.933 590.012,-97.5368"/>
<polygon fill="midnightblue" stroke="midnightblue" points="591.024,-100.904 600.149,-95.5201 589.658,-94.0387 591.024,-100.904"/>
</g>
<!-- Node10&#45;&gt;Node6 -->
<g id="edge10" class="edge"><title>Node10&#45;&gt;Node6</title>
<path fill="none" stroke="midnightblue" d="M723.539,-132.03C732.206,-132.977 741.055,-133.943 749.731,-134.89"/>
<polygon fill="midnightblue" stroke="midnightblue" points="749.495,-138.385 759.816,-135.991 750.255,-131.427 749.495,-138.385"/>
</g>
<!-- Node14&#45;&gt;Node3 -->
<g id="edge16" class="edge"><title>Node14&#45;&gt;Node3</title>
<path fill="none" stroke="midnightblue" d="M505.197,-247.589C524.183,-251.366 546.505,-255.807 567.787,-260.041"/>
<polygon fill="midnightblue" stroke="midnightblue" points="567.312,-263.515 577.802,-262.034 568.678,-256.65 567.312,-263.515"/>
</g>
<!-- Node15 -->
<g id="node15" class="node"><title>Node15</title>
<g id="a_node15"><a xlink:href="../../d9/d7b/classsimulations_1_1_sim.html#a4da2ab43816b7e030ba62c1a10c82cf6" target="_top" xlink:title="simulations.Sim.setCell">
<polygon fill="white" stroke="black" points="585,-222.5 585,-241.5 713,-241.5 713,-222.5 585,-222.5"/>
<text text-anchor="middle" x="649" y="-229.5" font-family="Helvetica,sans-Serif" font-size="10.00">simulations.Sim.setCell</text>
</a>
</g>
</g>
<!-- Node14&#45;&gt;Node15 -->
<g id="edge15" class="edge"><title>Node14&#45;&gt;Node15</title>
<path fill="none" stroke="midnightblue" d="M538.001,-235.455C550.112,-235.075 562.54,-234.685 574.484,-234.309"/>
<polygon fill="midnightblue" stroke="midnightblue" points="574.95,-237.797 584.835,-233.984 574.73,-230.8 574.95,-237.797"/>
</g>
</g>
</svg>
