<?xml version="1.0" encoding="UTF-8" standalone="no"?>
<!DOCTYPE svg PUBLIC "-//W3C//DTD SVG 1.1//EN"
 "http://www.w3.org/Graphics/SVG/1.1/DTD/svg11.dtd">
<!-- Generated by graphviz version 2.36.0 (20140111.2315)
 -->
<!-- Title: simulations.Sugar.updateAgent Pages: 1 -->
<!--zoomable 343 -->
<svg id="main" version="1.1" xmlns="http://www.w3.org/2000/svg" xmlns:xlink="http://www.w3.org/1999/xlink" xml:space="preserve" onload="init(evt)">
<style type="text/css"><![CDATA[
.edge:hover path { stroke: red; }
.edge:hover polygon { stroke: red; fill: red; }
]]></style>
<script type="text/javascript"><![CDATA[
var edges = document.getElementsByTagName('g');
if (edges && edges.length) {
  for (var i=0;i<edges.length;i++) {
    if (edges[i].id.substr(0,4)=='edge') {
      edges[i].setAttribute('class','edge');
    }
  }
}
]]></script>
        <defs>
                <circle id="rim" cx="0" cy="0" r="7"/>
                <circle id="rim2" cx="0" cy="0" r="3.5"/>
                <g id="zoomPlus">
                        <use xlink:href="#rim" fill="#404040">
                                <set attributeName="fill" to="#808080" begin="zoomplus.mouseover" end="zoomplus.mouseout"/>
                        </use>
                        <path d="M-4,0h8M0,-4v8" fill="none" stroke="white" stroke-width="1.5" pointer-events="none"/>
                </g>
                <g id="zoomMin">
                        <use xlink:href="#rim" fill="#404040">
                                <set attributeName="fill" to="#808080" begin="zoomminus.mouseover" end="zoomminus.mouseout"/>
                        </use>
                        <path d="M-4,0h8" fill="none" stroke="white" stroke-width="1.5" pointer-events="none"/>
                </g>
                <g id="dirArrow">
                        <path fill="none" stroke="white" stroke-width="1.5" d="M0,-3.0v7 M-2.5,-0.5L0,-3.0L2.5,-0.5"/>
                </g>
               <g id="resetDef">
                       <use xlink:href="#rim2" fill="#404040">
                               <set attributeName="fill" to="#808080" begin="reset.mouseover" end="reset.mouseout"/>
                       </use>
               </g>
        </defs>

<script type="text/javascript">
var viewWidth = 700;
var viewHeight = 343;
var sectionId = 'dynsection-10';
</script>
<script xlink:href="../../svgpan.js"/>
<svg id="graph" class="graph">
<g id="viewport">
<title>simulations.Sugar.updateAgent</title>
<polygon fill="white" stroke="none" points="-4,4 -4,-339 696,-339 696,4 -4,4"/>
<!-- Node1 -->
<g id="node1" class="node"><title>Node1</title>
<polygon fill="#bfbfbf" stroke="black" points="0.5,-215 0.5,-245 139.5,-245 139.5,-215 0.5,-215"/>
<text text-anchor="start" x="8.5" y="-233" font-family="Helvetica,sans-Serif" font-size="10.00">simulations.Sugar.update</text>
<text text-anchor="middle" x="70" y="-222" font-family="Helvetica,sans-Serif" font-size="10.00">Agent</text>
</g>
<!-- Node2 -->
<g id="node2" class="node"><title>Node2</title>
<g id="a_node2"><a xlink:href="../../d4/d2e/classutility_1_1_agent.html#ab0cba5e111ee52c79c432586242c9219" target="_top" xlink:title="utility.Agent.eat">
<polygon fill="white" stroke="black" points="212.5,-315.5 212.5,-334.5 303.5,-334.5 303.5,-315.5 212.5,-315.5"/>
<text text-anchor="middle" x="258" y="-322.5" font-family="Helvetica,sans-Serif" font-size="10.00">utility.Agent.eat</text>
</a>
</g>
</g>
<!-- Node1&#45;&gt;Node2 -->
<g id="edge1" class="edge"><title>Node1&#45;&gt;Node2</title>
<path fill="none" stroke="midnightblue" d="M87.5014,-245.199C107.139,-262.471 141.612,-290.293 176,-306 184.298,-309.79 193.431,-312.867 202.483,-315.351"/>
<polygon fill="midnightblue" stroke="midnightblue" points="201.677,-318.757 212.23,-317.82 203.395,-311.971 201.677,-318.757"/>
</g>
<!-- Node3 -->
<g id="node3" class="node"><title>Node3</title>
<g id="a_node3"><a xlink:href="../../d4/d2e/classutility_1_1_agent.html#a27b7d4f9d43ee311933b0b2f8777f144" target="_top" xlink:title="utility.Agent.findNext">
<polygon fill="white" stroke="black" points="200.5,-277.5 200.5,-296.5 315.5,-296.5 315.5,-277.5 200.5,-277.5"/>
<text text-anchor="middle" x="258" y="-284.5" font-family="Helvetica,sans-Serif" font-size="10.00">utility.Agent.findNext</text>
</a>
</g>
</g>
<!-- Node1&#45;&gt;Node3 -->
<g id="edge2" class="edge"><title>Node1&#45;&gt;Node3</title>
<path fill="none" stroke="midnightblue" d="M118.252,-245.032C136.301,-250.726 157.085,-257.226 176,-263 188.508,-266.818 202.129,-270.888 214.57,-274.571"/>
<polygon fill="midnightblue" stroke="midnightblue" points="213.67,-277.955 224.252,-277.43 215.652,-271.241 213.67,-277.955"/>
</g>
<!-- Node4 -->
<g id="node4" class="node"><title>Node4</title>
<g id="a_node4"><a xlink:href="../../d7/d2b/classutility_1_1_neighborhood.html#a70ff5a6a5c76877fd88d25400547d5f0" target="_top" xlink:title="utility.Neighborhood.get\lNeighbors">
<polygon fill="white" stroke="black" points="562,-177 562,-207 692,-207 692,-177 562,-177"/>
<text text-anchor="start" x="570" y="-195" font-family="Helvetica,sans-Serif" font-size="10.00">utility.Neighborhood.get</text>
<text text-anchor="middle" x="627" y="-184" font-family="Helvetica,sans-Serif" font-size="10.00">Neighbors</text>
</a>
</g>
</g>
<!-- Node1&#45;&gt;Node4 -->
<g id="edge3" class="edge"><title>Node1&#45;&gt;Node4</title>
<path fill="none" stroke="midnightblue" d="M139.532,-237.64C229.196,-245.9 390.812,-254.82 526,-230 546.191,-226.293 567.588,-218.703 585.386,-211.275"/>
<polygon fill="midnightblue" stroke="midnightblue" points="587.073,-214.359 594.873,-207.19 584.304,-207.93 587.073,-214.359"/>
</g>
<!-- Node5 -->
<g id="node5" class="node"><title>Node5</title>
<g id="a_node5"><a xlink:href="../../d4/d2e/classutility_1_1_agent.html#a94563d4cd2d621d01406899d2685f053" target="_top" xlink:title="utility.Agent.grow">
<polygon fill="white" stroke="black" points="209,-201.5 209,-220.5 307,-220.5 307,-201.5 209,-201.5"/>
<text text-anchor="middle" x="258" y="-208.5" font-family="Helvetica,sans-Serif" font-size="10.00">utility.Agent.grow</text>
</a>
</g>
</g>
<!-- Node1&#45;&gt;Node5 -->
<g id="edge4" class="edge"><title>Node1&#45;&gt;Node5</title>
<path fill="none" stroke="midnightblue" d="M139.731,-222.979C159.115,-220.999 180.012,-218.864 198.72,-216.953"/>
<polygon fill="midnightblue" stroke="midnightblue" points="199.272,-220.415 208.864,-215.917 198.56,-213.452 199.272,-220.415"/>
</g>
<!-- Node6 -->
<g id="node6" class="node"><title>Node6</title>
<g id="a_node6"><a xlink:href="../../d4/d2e/classutility_1_1_agent.html#a4e9d745c1021def9e1c69fe90a2016b4" target="_top" xlink:title="utility.Agent.mate">
<polygon fill="white" stroke="black" points="207.5,-163.5 207.5,-182.5 308.5,-182.5 308.5,-163.5 207.5,-163.5"/>
<text text-anchor="middle" x="258" y="-170.5" font-family="Helvetica,sans-Serif" font-size="10.00">utility.Agent.mate</text>
</a>
</g>
</g>
<!-- Node1&#45;&gt;Node6 -->
<g id="edge5" class="edge"><title>Node1&#45;&gt;Node6</title>
<path fill="none" stroke="midnightblue" d="M109.535,-214.831C129.235,-207.39 153.7,-198.626 176,-192 184.45,-189.489 193.475,-187.096 202.32,-184.906"/>
<polygon fill="midnightblue" stroke="midnightblue" points="203.29,-188.273 212.19,-182.526 201.648,-181.468 203.29,-188.273"/>
</g>
<!-- Node11 -->
<g id="node11" class="node"><title>Node11</title>
<g id="a_node11"><a xlink:href="../../d7/d0c/classsimulations_1_1_sugar.html#a2e18269db2d46ed65c7624ac1d35d195" target="_top" xlink:title="simulations.Sugar.updateHash">
<polygon fill="white" stroke="black" points="176,-49.5 176,-68.5 340,-68.5 340,-49.5 176,-49.5"/>
<text text-anchor="middle" x="258" y="-56.5" font-family="Helvetica,sans-Serif" font-size="10.00">simulations.Sugar.updateHash</text>
</a>
</g>
</g>
<!-- Node1&#45;&gt;Node11 -->
<g id="edge11" class="edge"><title>Node1&#45;&gt;Node11</title>
<path fill="none" stroke="midnightblue" d="M87.5063,-214.825C122.241,-182.891 202.653,-108.964 238.811,-75.7221"/>
<polygon fill="midnightblue" stroke="midnightblue" points="241.615,-77.899 246.608,-68.5543 236.877,-72.7458 241.615,-77.899"/>
</g>
<!-- Node7 -->
<g id="node7" class="node"><title>Node7</title>
<g id="a_node7"><a xlink:href="../../d4/d2e/classutility_1_1_agent.html#a251a662ecad2a3ef3083b679b2c41281" target="_top" xlink:title="utility.Agent.active">
<polygon fill="white" stroke="black" points="399,-201.5 399,-220.5 503,-220.5 503,-201.5 399,-201.5"/>
<text text-anchor="middle" x="451" y="-208.5" font-family="Helvetica,sans-Serif" font-size="10.00">utility.Agent.active</text>
</a>
</g>
</g>
<!-- Node6&#45;&gt;Node7 -->
<g id="edge6" class="edge"><title>Node6&#45;&gt;Node7</title>
<path fill="none" stroke="midnightblue" d="M307.197,-182.589C332.97,-187.716 364.891,-194.067 392.012,-199.463"/>
<polygon fill="midnightblue" stroke="midnightblue" points="391.658,-202.961 402.149,-201.48 393.024,-196.096 391.658,-202.961"/>
</g>
<!-- Node8 -->
<g id="node8" class="node"><title>Node8</title>
<g id="a_node8"><a xlink:href="../../d4/d2e/classutility_1_1_agent.html#a3dd7670f907213a6cdadd7c7c0131ba6" target="_top" xlink:title="utility.Agent.hungry">
<polygon fill="white" stroke="black" points="397,-163.5 397,-182.5 505,-182.5 505,-163.5 397,-163.5"/>
<text text-anchor="middle" x="451" y="-170.5" font-family="Helvetica,sans-Serif" font-size="10.00">utility.Agent.hungry</text>
</a>
</g>
</g>
<!-- Node6&#45;&gt;Node8 -->
<g id="edge7" class="edge"><title>Node6&#45;&gt;Node8</title>
<path fill="none" stroke="midnightblue" d="M308.684,-173C332.485,-173 361.262,-173 386.62,-173"/>
<polygon fill="midnightblue" stroke="midnightblue" points="386.884,-176.5 396.884,-173 386.884,-169.5 386.884,-176.5"/>
</g>
<!-- Node9 -->
<g id="node9" class="node"><title>Node9</title>
<g id="a_node9"><a xlink:href="../../d4/d2e/classutility_1_1_agent.html#a35c4a8a52e006df0dea07a267caec828" target="_top" xlink:title="utility.Agent.hasEmptyPatch">
<polygon fill="white" stroke="black" points="376.5,-125.5 376.5,-144.5 525.5,-144.5 525.5,-125.5 376.5,-125.5"/>
<text text-anchor="middle" x="451" y="-132.5" font-family="Helvetica,sans-Serif" font-size="10.00">utility.Agent.hasEmptyPatch</text>
</a>
</g>
</g>
<!-- Node6&#45;&gt;Node9 -->
<g id="edge8" class="edge"><title>Node6&#45;&gt;Node9</title>
<path fill="none" stroke="midnightblue" d="M307.197,-163.411C332.97,-158.284 364.891,-151.933 392.012,-146.537"/>
<polygon fill="midnightblue" stroke="midnightblue" points="393.024,-149.904 402.149,-144.52 391.658,-143.039 393.024,-149.904"/>
</g>
<!-- Node10 -->
<g id="node10" class="node"><title>Node10</title>
<g id="a_node10"><a xlink:href="../../d4/d2e/classutility_1_1_agent.html#a51ae7ca7f7e7a34c1ee3db4f61b32111" target="_top" xlink:title="utility.Agent.getIndex">
<polygon fill="white" stroke="black" points="393,-87.5 393,-106.5 509,-106.5 509,-87.5 393,-87.5"/>
<text text-anchor="middle" x="451" y="-94.5" font-family="Helvetica,sans-Serif" font-size="10.00">utility.Agent.getIndex</text>
</a>
</g>
</g>
<!-- Node6&#45;&gt;Node10 -->
<g id="edge10" class="edge"><title>Node6&#45;&gt;Node10</title>
<path fill="none" stroke="midnightblue" d="M275.965,-163.378C298.31,-151.024 339.1,-129.567 376,-116 382.761,-113.514 389.985,-111.228 397.17,-109.168"/>
<polygon fill="midnightblue" stroke="midnightblue" points="398.177,-112.521 406.896,-106.503 396.327,-105.77 398.177,-112.521"/>
</g>
<!-- Node9&#45;&gt;Node4 -->
<g id="edge9" class="edge"><title>Node9&#45;&gt;Node4</title>
<path fill="none" stroke="midnightblue" d="M492.559,-144.543C503.485,-147.35 515.254,-150.59 526,-154 543.758,-159.634 562.953,-166.688 579.733,-173.183"/>
<polygon fill="midnightblue" stroke="midnightblue" points="578.717,-176.544 589.305,-176.928 581.267,-170.025 578.717,-176.544"/>
</g>
<!-- Node12 -->
<g id="node12" class="node"><title>Node12</title>
<g id="a_node12"><a xlink:href="../../d9/d7b/classsimulations_1_1_sim.html#a4da2ab43816b7e030ba62c1a10c82cf6" target="_top" xlink:title="simulations.Sim.setCell">
<polygon fill="white" stroke="black" points="387,-49.5 387,-68.5 515,-68.5 515,-49.5 387,-49.5"/>
<text text-anchor="middle" x="451" y="-56.5" font-family="Helvetica,sans-Serif" font-size="10.00">simulations.Sim.setCell</text>
</a>
</g>
</g>
<!-- Node11&#45;&gt;Node12 -->
<g id="edge12" class="edge"><title>Node11&#45;&gt;Node12</title>
<path fill="none" stroke="midnightblue" d="M340.001,-59C352.112,-59 364.54,-59 376.484,-59"/>
<polygon fill="midnightblue" stroke="midnightblue" points="376.835,-62.5001 386.835,-59 376.835,-55.5001 376.835,-62.5001"/>
</g>
<!-- Node13 -->
<g id="node13" class="node"><title>Node13</title>
<g id="a_node13"><a xlink:href="../../d9/dd0/classcellsociety__team05_1_1_scene_updater.html#a5b755feda214274401674bc34e08d9d2" target="_top" xlink:title="cellsociety_team05.Scene\lUpdater.updateScene">
<polygon fill="white" stroke="black" points="380,-0 380,-30 522,-30 522,-0 380,-0"/>
<text text-anchor="start" x="388" y="-18" font-family="Helvetica,sans-Serif" font-size="10.00">cellsociety_team05.Scene</text>
<text text-anchor="middle" x="451" y="-7" font-family="Helvetica,sans-Serif" font-size="10.00">Updater.updateScene</text>
</a>
</g>
</g>
<!-- Node11&#45;&gt;Node13 -->
<g id="edge13" class="edge"><title>Node11&#45;&gt;Node13</title>
<path fill="none" stroke="midnightblue" d="M300.444,-49.4527C322.141,-44.4545 349.387,-38.1778 374.66,-32.3558"/>
<polygon fill="midnightblue" stroke="midnightblue" points="375.644,-35.721 384.603,-30.0654 374.072,-28.8996 375.644,-35.721"/>
</g>
</g>
</svg>
        <g id="navigator" transform="translate(0 0)" fill="#404254">
                <rect fill="#f2f5e9" fill-opacity="0.5" stroke="#606060" stroke-width=".5" x="0" y="0" width="60" height="60"/>
                <use id="zoomplus" xlink:href="#zoomPlus" x="17" y="9" onmousedown="handleZoom(evt,'in')"/>
                <use id="zoomminus" xlink:href="#zoomMin" x="42" y="9" onmousedown="handleZoom(evt,'out')"/>
                <use id="reset" xlink:href="#resetDef" x="30" y="36" onmousedown="handleReset()"/>
                <g id="arrowUp" xlink:href="#dirArrow" transform="translate(30 24)" onmousedown="handlePan(0,-1)">
                  <use xlink:href="#rim" fill="#404040">
                        <set attributeName="fill" to="#808080" begin="arrowUp.mouseover" end="arrowUp.mouseout"/>
                  </use>
                  <path fill="none" stroke="white" stroke-width="1.5" d="M0,-3.0v7 M-2.5,-0.5L0,-3.0L2.5,-0.5"/>
                </g>
                <g id="arrowRight" xlink:href="#dirArrow" transform="rotate(90) translate(36 -43)" onmousedown="handlePan(1,0)">
                  <use xlink:href="#rim" fill="#404040">
                        <set attributeName="fill" to="#808080" begin="arrowRight.mouseover" end="arrowRight.mouseout"/>
                  </use>
                  <path fill="none" stroke="white" stroke-width="1.5" d="M0,-3.0v7 M-2.5,-0.5L0,-3.0L2.5,-0.5"/>
                </g>
                <g id="arrowDown" xlink:href="#dirArrow" transform="rotate(180) translate(-30 -48)" onmousedown="handlePan(0,1)">
                  <use xlink:href="#rim" fill="#404040">
                        <set attributeName="fill" to="#808080" begin="arrowDown.mouseover" end="arrowDown.mouseout"/>
                  </use>
                  <path fill="none" stroke="white" stroke-width="1.5" d="M0,-3.0v7 M-2.5,-0.5L0,-3.0L2.5,-0.5"/>
                </g>
                <g id="arrowLeft" xlink:href="#dirArrow" transform="rotate(270) translate(-36 17)" onmousedown="handlePan(-1,0)">
                  <use xlink:href="#rim" fill="#404040">
                        <set attributeName="fill" to="#808080" begin="arrowLeft.mouseover" end="arrowLeft.mouseout"/>
                  </use>
                  <path fill="none" stroke="white" stroke-width="1.5" d="M0,-3.0v7 M-2.5,-0.5L0,-3.0L2.5,-0.5"/>
                </g>
        </g>
        <svg viewBox="0 0 15 15" width="100%" height="30px" preserveAspectRatio="xMaxYMin meet">
         <g id="arrow_out" transform="scale(0.3 0.3)">
          <a xlink:href="classsimulations_1_1_sugar_ae28e368a8530f222d34a6ee29b55fb16_cgraph_org.svg" target="_base">
           <rect id="button" ry="5" rx="5" y="6" x="6" height="38" width="38"
                fill="#f2f5e9" fill-opacity="0.5" stroke="#606060" stroke-width="1.0"/>
           <path id="arrow"
             d="M 11.500037,31.436501 C 11.940474,20.09759 22.043105,11.32322 32.158766,21.979434 L 37.068811,17.246167 C 37.068811,17.246167 37.088388,32 37.088388,32 L 22.160133,31.978069 C 22.160133,31.978069 26.997745,27.140456 26.997745,27.140456 C 18.528582,18.264221 13.291696,25.230495 11.500037,31.436501 z"
             style="fill:#404040;"/>
          </a>
         </g>
        </svg>
</svg>
