<?xml version="1.0" encoding="UTF-8" standalone="no"?>
<!DOCTYPE svg PUBLIC "-//W3C//DTD SVG 1.1//EN"
 "http://www.w3.org/Graphics/SVG/1.1/DTD/svg11.dtd">
<!-- Generated by graphviz version 2.36.0 (20140111.2315)
 -->
<!-- Title: simulations.Sim.getData Pages: 1 -->
<!--zoomable 77 -->
<svg id="main" version="1.1" xmlns="http://www.w3.org/2000/svg" xmlns:xlink="http://www.w3.org/1999/xlink" xml:space="preserve" onload="init(evt)">
<style type="text/css"><![CDATA[
.edge:hover path { stroke: red; }
.edge:hover polygon { stroke: red; fill: red; }
]]></style>
<script type="text/javascript"><![CDATA[
var edges = document.getElementsByTagName('g');
if (edges && edges.length) {
  for (var i=0;i<edges.length;i++) {
    if (edges[i].id.substr(0,4)=='edge') {
      edges[i].setAttribute('class','edge');
    }
  }
}
]]></script>
        <defs>
                <circle id="rim" cx="0" cy="0" r="7"/>
                <circle id="rim2" cx="0" cy="0" r="3.5"/>
                <g id="zoomPlus">
                        <use xlink:href="#rim" fill="#404040">
                                <set attributeName="fill" to="#808080" begin="zoomplus.mouseover" end="zoomplus.mouseout"/>
                        </use>
                        <path d="M-4,0h8M0,-4v8" fill="none" stroke="white" stroke-width="1.5" pointer-events="none"/>
                </g>
                <g id="zoomMin">
                        <use xlink:href="#rim" fill="#404040">
                                <set attributeName="fill" to="#808080" begin="zoomminus.mouseover" end="zoomminus.mouseout"/>
                        </use>
                        <path d="M-4,0h8" fill="none" stroke="white" stroke-width="1.5" pointer-events="none"/>
                </g>
                <g id="dirArrow">
                        <path fill="none" stroke="white" stroke-width="1.5" d="M0,-3.0v7 M-2.5,-0.5L0,-3.0L2.5,-0.5"/>
                </g>
               <g id="resetDef">
                       <use xlink:href="#rim2" fill="#404040">
                               <set attributeName="fill" to="#808080" begin="reset.mouseover" end="reset.mouseout"/>
                       </use>
               </g>
        </defs>

<script type="text/javascript">
var viewWidth = 948;
var viewHeight = 77;
var sectionId = 'dynsection-8';
</script>
<script xlink:href="../../svgpan.js"/>
<svg id="graph" class="graph">
<g id="viewport">
<title>simulations.Sim.getData</title>
<polygon fill="white" stroke="none" points="-4,4 -4,-73 944,-73 944,4 -4,4"/>
<!-- Node1 -->
<g id="node1" class="node"><title>Node1</title>
<polygon fill="#bfbfbf" stroke="black" points="0.5,-22.5 0.5,-41.5 135.5,-41.5 135.5,-22.5 0.5,-22.5"/>
<text text-anchor="middle" x="68" y="-29.5" font-family="Helvetica,sans-Serif" font-size="10.00">simulations.Sim.getData</text>
</g>
<!-- Node2 -->
<g id="node2" class="node"><title>Node2</title>
<g id="a_node2"><a xlink:href="../../d6/da5/classcellsociety__team05_1_1_master.html#ac10570db09b5b348c023bbd5e1df801b" target="_top" xlink:title="cellsociety_team05.Master.init">
<polygon fill="white" stroke="black" points="172.5,-22.5 172.5,-41.5 333.5,-41.5 333.5,-22.5 172.5,-22.5"/>
<text text-anchor="middle" x="253" y="-29.5" font-family="Helvetica,sans-Serif" font-size="10.00">cellsociety_team05.Master.init</text>
</a>
</g>
</g>
<!-- Node1&#45;&gt;Node2 -->
<g id="edge1" class="edge"><title>Node1&#45;&gt;Node2</title>
<path fill="none" stroke="midnightblue" d="M145.799,-32C154.59,-32 163.567,-32 172.394,-32"/>
<polygon fill="midnightblue" stroke="midnightblue" points="145.585,-28.5001 135.585,-32 145.585,-35.5001 145.585,-28.5001"/>
</g>
<!-- Node3 -->
<g id="node3" class="node"><title>Node3</title>
<g id="a_node3"><a xlink:href="../../d2/d60/classanimation_1_1_g_u_i_creator.html#a61c68b3e24b62788dab86e5240991107" target="_top" xlink:title="animation.GUICreator.load\lAction">
<polygon fill="white" stroke="black" points="378.5,-39 378.5,-69 521.5,-69 521.5,-39 378.5,-39"/>
<text text-anchor="start" x="386.5" y="-57" font-family="Helvetica,sans-Serif" font-size="10.00">animation.GUICreator.load</text>
<text text-anchor="middle" x="450" y="-46" font-family="Helvetica,sans-Serif" font-size="10.00">Action</text>
</a>
</g>
</g>
<!-- Node2&#45;&gt;Node3 -->
<g id="edge2" class="edge"><title>Node2&#45;&gt;Node3</title>
<path fill="none" stroke="midnightblue" d="M343.759,-42.1267C355.388,-43.4386 367.164,-44.7673 378.421,-46.0373"/>
<polygon fill="midnightblue" stroke="midnightblue" points="343.925,-38.6232 333.595,-40.98 343.14,-45.5791 343.925,-38.6232"/>
</g>
<!-- Node6 -->
<g id="node6" class="node"><title>Node6</title>
<g id="a_node6"><a xlink:href="../../de/d00/classcellsociety__team05_1_1_main.html#a7663311e53af8548f912c74dcc829624" target="_top" xlink:title="cellsociety_team05.Main.start">
<polygon fill="white" stroke="black" points="370,-0.5 370,-19.5 530,-19.5 530,-0.5 370,-0.5"/>
<text text-anchor="middle" x="450" y="-7.5" font-family="Helvetica,sans-Serif" font-size="10.00">cellsociety_team05.Main.start</text>
</a>
</g>
</g>
<!-- Node2&#45;&gt;Node6 -->
<g id="edge5" class="edge"><title>Node2&#45;&gt;Node6</title>
<path fill="none" stroke="midnightblue" d="M343.797,-21.8691C352.534,-20.8833 361.355,-19.8882 369.975,-18.9157"/>
<polygon fill="midnightblue" stroke="midnightblue" points="343.14,-18.4209 333.595,-23.02 343.925,-25.3768 343.14,-18.4209"/>
</g>
<!-- Node4 -->
<g id="node4" class="node"><title>Node4</title>
<g id="a_node4"><a xlink:href="../../d2/d60/classanimation_1_1_g_u_i_creator.html#ac4c8bd0d5bc08d30393866736d995aa5" target="_top" xlink:title="animation.GUICreator.addload\lXMLButton">
<polygon fill="white" stroke="black" points="566.5,-39 566.5,-69 727.5,-69 727.5,-39 566.5,-39"/>
<text text-anchor="start" x="574.5" y="-57" font-family="Helvetica,sans-Serif" font-size="10.00">animation.GUICreator.addload</text>
<text text-anchor="middle" x="647" y="-46" font-family="Helvetica,sans-Serif" font-size="10.00">XMLButton</text>
</a>
</g>
</g>
<!-- Node3&#45;&gt;Node4 -->
<g id="edge3" class="edge"><title>Node3&#45;&gt;Node4</title>
<path fill="none" stroke="midnightblue" d="M531.991,-54C543.338,-54 554.992,-54 566.314,-54"/>
<polygon fill="midnightblue" stroke="midnightblue" points="531.675,-50.5001 521.675,-54 531.675,-57.5001 531.675,-50.5001"/>
</g>
<!-- Node5 -->
<g id="node5" class="node"><title>Node5</title>
<g id="a_node5"><a xlink:href="../../d2/d60/classanimation_1_1_g_u_i_creator.html#a9a94a22da284976e0a39d9b58e6646ae" target="_top" xlink:title="animation.GUICreator.GUICreator">
<polygon fill="white" stroke="black" points="764,-44.5 764,-63.5 940,-63.5 940,-44.5 764,-44.5"/>
<text text-anchor="middle" x="852" y="-51.5" font-family="Helvetica,sans-Serif" font-size="10.00">animation.GUICreator.GUICreator</text>
</a>
</g>
</g>
<!-- Node4&#45;&gt;Node5 -->
<g id="edge4" class="edge"><title>Node4&#45;&gt;Node5</title>
<path fill="none" stroke="midnightblue" d="M737.761,-54C746.433,-54 755.222,-54 763.869,-54"/>
<polygon fill="midnightblue" stroke="midnightblue" points="737.648,-50.5001 727.648,-54 737.648,-57.5001 737.648,-50.5001"/>
</g>
</g>
</svg>
        <g id="navigator" transform="translate(0 0)" fill="#404254">
                <rect fill="#f2f5e9" fill-opacity="0.5" stroke="#606060" stroke-width=".5" x="0" y="0" width="60" height="60"/>
                <use id="zoomplus" xlink:href="#zoomPlus" x="17" y="9" onmousedown="handleZoom(evt,'in')"/>
                <use id="zoomminus" xlink:href="#zoomMin" x="42" y="9" onmousedown="handleZoom(evt,'out')"/>
                <use id="reset" xlink:href="#resetDef" x="30" y="36" onmousedown="handleReset()"/>
                <g id="arrowUp" xlink:href="#dirArrow" transform="translate(30 24)" onmousedown="handlePan(0,-1)">
                  <use xlink:href="#rim" fill="#404040">
                        <set attributeName="fill" to="#808080" begin="arrowUp.mouseover" end="arrowUp.mouseout"/>
                  </use>
                  <path fill="none" stroke="white" stroke-width="1.5" d="M0,-3.0v7 M-2.5,-0.5L0,-3.0L2.5,-0.5"/>
                </g>
                <g id="arrowRight" xlink:href="#dirArrow" transform="rotate(90) translate(36 -43)" onmousedown="handlePan(1,0)">
                  <use xlink:href="#rim" fill="#404040">
                        <set attributeName="fill" to="#808080" begin="arrowRight.mouseover" end="arrowRight.mouseout"/>
                  </use>
                  <path fill="none" stroke="white" stroke-width="1.5" d="M0,-3.0v7 M-2.5,-0.5L0,-3.0L2.5,-0.5"/>
                </g>
                <g id="arrowDown" xlink:href="#dirArrow" transform="rotate(180) translate(-30 -48)" onmousedown="handlePan(0,1)">
                  <use xlink:href="#rim" fill="#404040">
                        <set attributeName="fill" to="#808080" begin="arrowDown.mouseover" end="arrowDown.mouseout"/>
                  </use>
                  <path fill="none" stroke="white" stroke-width="1.5" d="M0,-3.0v7 M-2.5,-0.5L0,-3.0L2.5,-0.5"/>
                </g>
                <g id="arrowLeft" xlink:href="#dirArrow" transform="rotate(270) translate(-36 17)" onmousedown="handlePan(-1,0)">
                  <use xlink:href="#rim" fill="#404040">
                        <set attributeName="fill" to="#808080" begin="arrowLeft.mouseover" end="arrowLeft.mouseout"/>
                  </use>
                  <path fill="none" stroke="white" stroke-width="1.5" d="M0,-3.0v7 M-2.5,-0.5L0,-3.0L2.5,-0.5"/>
                </g>
        </g>
        <svg viewBox="0 0 15 15" width="100%" height="30px" preserveAspectRatio="xMaxYMin meet">
         <g id="arrow_out" transform="scale(0.3 0.3)">
          <a xlink:href="classsimulations_1_1_sim_af34d99b6d024da2704ee799bb0e94e48_icgraph_org.svg" target="_base">
           <rect id="button" ry="5" rx="5" y="6" x="6" height="38" width="38"
                fill="#f2f5e9" fill-opacity="0.5" stroke="#606060" stroke-width="1.0"/>
           <path id="arrow"
             d="M 11.500037,31.436501 C 11.940474,20.09759 22.043105,11.32322 32.158766,21.979434 L 37.068811,17.246167 C 37.068811,17.246167 37.088388,32 37.088388,32 L 22.160133,31.978069 C 22.160133,31.978069 26.997745,27.140456 26.997745,27.140456 C 18.528582,18.264221 13.291696,25.230495 11.500037,31.436501 z"
             style="fill:#404040;"/>
          </a>
         </g>
        </svg>
</svg>
