<?xml version="1.0" encoding="UTF-8" standalone="no"?>
<!DOCTYPE svg PUBLIC "-//W3C//DTD SVG 1.1//EN"
 "http://www.w3.org/Graphics/SVG/1.1/DTD/svg11.dtd">
<!-- Generated by graphviz version 2.36.0 (20140111.2315)
 -->
<!-- Title: simulations.Sim.simTitle Pages: 1 -->
<svg width="1118pt" height="77pt"
 viewBox="0.00 0.00 1118.00 77.00" xmlns="http://www.w3.org/2000/svg" xmlns:xlink="http://www.w3.org/1999/xlink">
<g id="graph0" class="graph" transform="scale(1 1) rotate(0) translate(4 73)">
<title>simulations.Sim.simTitle</title>
<polygon fill="white" stroke="none" points="-4,4 -4,-73 1114,-73 1114,4 -4,4"/>
<!-- Node1 -->
<g id="node1" class="node"><title>Node1</title>
<polygon fill="#bfbfbf" stroke="black" points="0.5,-22.5 0.5,-41.5 133.5,-41.5 133.5,-22.5 0.5,-22.5"/>
<text text-anchor="middle" x="67" y="-29.5" font-family="Helvetica,sans-Serif" font-size="10.00">simulations.Sim.simTitle</text>
</g>
<!-- Node2 -->
<g id="node2" class="node"><title>Node2</title>
<g id="a_node2"><a xlink:href="../../d9/d7b/classsimulations_1_1_sim.html#af34d99b6d024da2704ee799bb0e94e48" target="_top" xlink:title="simulations.Sim.getData">
<polygon fill="white" stroke="black" points="170.5,-22.5 170.5,-41.5 305.5,-41.5 305.5,-22.5 170.5,-22.5"/>
<text text-anchor="middle" x="238" y="-29.5" font-family="Helvetica,sans-Serif" font-size="10.00">simulations.Sim.getData</text>
</a>
</g>
</g>
<!-- Node1&#45;&gt;Node2 -->
<g id="edge1" class="edge"><title>Node1&#45;&gt;Node2</title>
<path fill="none" stroke="midnightblue" d="M144.013,-32C152.761,-32 161.63,-32 170.243,-32"/>
<polygon fill="midnightblue" stroke="midnightblue" points="143.824,-28.5001 133.824,-32 143.824,-35.5001 143.824,-28.5001"/>
</g>
<!-- Node3 -->
<g id="node3" class="node"><title>Node3</title>
<g id="a_node3"><a xlink:href="../../d6/da5/classcellsociety__team05_1_1_master.html#ac10570db09b5b348c023bbd5e1df801b" target="_top" xlink:title="cellsociety_team05.Master.init">
<polygon fill="white" stroke="black" points="342.5,-22.5 342.5,-41.5 503.5,-41.5 503.5,-22.5 342.5,-22.5"/>
<text text-anchor="middle" x="423" y="-29.5" font-family="Helvetica,sans-Serif" font-size="10.00">cellsociety_team05.Master.init</text>
</a>
</g>
</g>
<!-- Node2&#45;&gt;Node3 -->
<g id="edge2" class="edge"><title>Node2&#45;&gt;Node3</title>
<path fill="none" stroke="midnightblue" d="M315.799,-32C324.59,-32 333.567,-32 342.394,-32"/>
<polygon fill="midnightblue" stroke="midnightblue" points="315.585,-28.5001 305.585,-32 315.585,-35.5001 315.585,-28.5001"/>
</g>
<!-- Node4 -->
<g id="node4" class="node"><title>Node4</title>
<g id="a_node4"><a xlink:href="../../d2/d60/classanimation_1_1_g_u_i_creator.html#a61c68b3e24b62788dab86e5240991107" target="_top" xlink:title="animation.GUICreator.load\lAction">
<polygon fill="white" stroke="black" points="548.5,-39 548.5,-69 691.5,-69 691.5,-39 548.5,-39"/>
<text text-anchor="start" x="556.5" y="-57" font-family="Helvetica,sans-Serif" font-size="10.00">animation.GUICreator.load</text>
<text text-anchor="middle" x="620" y="-46" font-family="Helvetica,sans-Serif" font-size="10.00">Action</text>
</a>
</g>
</g>
<!-- Node3&#45;&gt;Node4 -->
<g id="edge3" class="edge"><title>Node3&#45;&gt;Node4</title>
<path fill="none" stroke="midnightblue" d="M513.759,-42.1267C525.388,-43.4386 537.164,-44.7673 548.421,-46.0373"/>
<polygon fill="midnightblue" stroke="midnightblue" points="513.925,-38.6232 503.595,-40.98 513.14,-45.5791 513.925,-38.6232"/>
</g>
<!-- Node7 -->
<g id="node7" class="node"><title>Node7</title>
<g id="a_node7"><a xlink:href="../../de/d00/classcellsociety__team05_1_1_main.html#a7663311e53af8548f912c74dcc829624" target="_top" xlink:title="cellsociety_team05.Main.start">
<polygon fill="white" stroke="black" points="540,-0.5 540,-19.5 700,-19.5 700,-0.5 540,-0.5"/>
<text text-anchor="middle" x="620" y="-7.5" font-family="Helvetica,sans-Serif" font-size="10.00">cellsociety_team05.Main.start</text>
</a>
</g>
</g>
<!-- Node3&#45;&gt;Node7 -->
<g id="edge6" class="edge"><title>Node3&#45;&gt;Node7</title>
<path fill="none" stroke="midnightblue" d="M513.797,-21.8691C522.534,-20.8833 531.355,-19.8882 539.975,-18.9157"/>
<polygon fill="midnightblue" stroke="midnightblue" points="513.14,-18.4209 503.595,-23.02 513.925,-25.3768 513.14,-18.4209"/>
</g>
<!-- Node5 -->
<g id="node5" class="node"><title>Node5</title>
<g id="a_node5"><a xlink:href="../../d2/d60/classanimation_1_1_g_u_i_creator.html#ac4c8bd0d5bc08d30393866736d995aa5" target="_top" xlink:title="animation.GUICreator.addload\lXMLButton">
<polygon fill="white" stroke="black" points="736.5,-39 736.5,-69 897.5,-69 897.5,-39 736.5,-39"/>
<text text-anchor="start" x="744.5" y="-57" font-family="Helvetica,sans-Serif" font-size="10.00">animation.GUICreator.addload</text>
<text text-anchor="middle" x="817" y="-46" font-family="Helvetica,sans-Serif" font-size="10.00">XMLButton</text>
</a>
</g>
</g>
<!-- Node4&#45;&gt;Node5 -->
<g id="edge4" class="edge"><title>Node4&#45;&gt;Node5</title>
<path fill="none" stroke="midnightblue" d="M701.991,-54C713.338,-54 724.992,-54 736.314,-54"/>
<polygon fill="midnightblue" stroke="midnightblue" points="701.675,-50.5001 691.675,-54 701.675,-57.5001 701.675,-50.5001"/>
</g>
<!-- Node6 -->
<g id="node6" class="node"><title>Node6</title>
<g id="a_node6"><a xlink:href="../../d2/d60/classanimation_1_1_g_u_i_creator.html#a9a94a22da284976e0a39d9b58e6646ae" target="_top" xlink:title="animation.GUICreator.GUICreator">
<polygon fill="white" stroke="black" points="934,-44.5 934,-63.5 1110,-63.5 1110,-44.5 934,-44.5"/>
<text text-anchor="middle" x="1022" y="-51.5" font-family="Helvetica,sans-Serif" font-size="10.00">animation.GUICreator.GUICreator</text>
</a>
</g>
</g>
<!-- Node5&#45;&gt;Node6 -->
<g id="edge5" class="edge"><title>Node5&#45;&gt;Node6</title>
<path fill="none" stroke="midnightblue" d="M907.761,-54C916.433,-54 925.222,-54 933.869,-54"/>
<polygon fill="midnightblue" stroke="midnightblue" points="907.648,-50.5001 897.648,-54 907.648,-57.5001 907.648,-50.5001"/>
</g>
</g>
</svg>
