<?xml version="1.0" encoding="UTF-8" standalone="no"?>
<!DOCTYPE svg PUBLIC "-//W3C//DTD SVG 1.1//EN"
 "http://www.w3.org/Graphics/SVG/1.1/DTD/svg11.dtd">
<!-- Generated by graphviz version 2.36.0 (20140111.2315)
 -->
<!-- Title: simulations.Sim.initMap Pages: 1 -->
<svg width="1164pt" height="77pt"
 viewBox="0.00 0.00 1164.00 77.00" xmlns="http://www.w3.org/2000/svg" xmlns:xlink="http://www.w3.org/1999/xlink">
<g id="graph0" class="graph" transform="scale(1 1) rotate(0) translate(4 73)">
<title>simulations.Sim.initMap</title>
<polygon fill="white" stroke="none" points="-4,4 -4,-73 1160,-73 1160,4 -4,4"/>
<!-- Node1 -->
<g id="node1" class="node"><title>Node1</title>
<polygon fill="#bfbfbf" stroke="black" points="0.5,-22.5 0.5,-41.5 131.5,-41.5 131.5,-22.5 0.5,-22.5"/>
<text text-anchor="middle" x="66" y="-29.5" font-family="Helvetica,sans-Serif" font-size="10.00">simulations.Sim.initMap</text>
</g>
<!-- Node2 -->
<g id="node2" class="node"><title>Node2</title>
<g id="a_node2"><a xlink:href="../../d6/da5/classcellsociety__team05_1_1_master.html#ac10570db09b5b348c023bbd5e1df801b" target="_top" xlink:title="cellsociety_team05.Master.init">
<polygon fill="white" stroke="black" points="388.5,-22.5 388.5,-41.5 549.5,-41.5 549.5,-22.5 388.5,-22.5"/>
<text text-anchor="middle" x="469" y="-29.5" font-family="Helvetica,sans-Serif" font-size="10.00">cellsociety_team05.Master.init</text>
</a>
</g>
</g>
<!-- Node1&#45;&gt;Node2 -->
<g id="edge1" class="edge"><title>Node1&#45;&gt;Node2</title>
<path fill="none" stroke="midnightblue" d="M141.973,-32C212.17,-32 316.711,-32 388.377,-32"/>
<polygon fill="midnightblue" stroke="midnightblue" points="141.873,-28.5001 131.873,-32 141.873,-35.5001 141.873,-28.5001"/>
</g>
<!-- Node7 -->
<g id="node7" class="node"><title>Node7</title>
<g id="a_node7"><a xlink:href="../../df/dd6/classcellsociety__team05_1_1_initializer.html#abb7d4a529b0f347ca21442045dd4e3f3" target="_top" xlink:title="cellsociety_team05.Initializer.setup">
<polygon fill="white" stroke="black" points="168.5,-3.5 168.5,-22.5 351.5,-22.5 351.5,-3.5 168.5,-3.5"/>
<text text-anchor="middle" x="260" y="-10.5" font-family="Helvetica,sans-Serif" font-size="10.00">cellsociety_team05.Initializer.setup</text>
</a>
</g>
</g>
<!-- Node1&#45;&gt;Node7 -->
<g id="edge6" class="edge"><title>Node1&#45;&gt;Node7</title>
<path fill="none" stroke="midnightblue" d="M141.804,-24.5976C150.492,-23.7378 159.424,-22.8539 168.295,-21.976"/>
<polygon fill="midnightblue" stroke="midnightblue" points="141.341,-21.1261 131.735,-25.594 142.031,-28.0921 141.341,-21.1261"/>
</g>
<!-- Node3 -->
<g id="node3" class="node"><title>Node3</title>
<g id="a_node3"><a xlink:href="../../d2/d60/classanimation_1_1_g_u_i_creator.html#a61c68b3e24b62788dab86e5240991107" target="_top" xlink:title="animation.GUICreator.load\lAction">
<polygon fill="white" stroke="black" points="594.5,-39 594.5,-69 737.5,-69 737.5,-39 594.5,-39"/>
<text text-anchor="start" x="602.5" y="-57" font-family="Helvetica,sans-Serif" font-size="10.00">animation.GUICreator.load</text>
<text text-anchor="middle" x="666" y="-46" font-family="Helvetica,sans-Serif" font-size="10.00">Action</text>
</a>
</g>
</g>
<!-- Node2&#45;&gt;Node3 -->
<g id="edge2" class="edge"><title>Node2&#45;&gt;Node3</title>
<path fill="none" stroke="midnightblue" d="M559.759,-42.1267C571.388,-43.4386 583.164,-44.7673 594.421,-46.0373"/>
<polygon fill="midnightblue" stroke="midnightblue" points="559.925,-38.6232 549.595,-40.98 559.14,-45.5791 559.925,-38.6232"/>
</g>
<!-- Node6 -->
<g id="node6" class="node"><title>Node6</title>
<g id="a_node6"><a xlink:href="../../de/d00/classcellsociety__team05_1_1_main.html#a7663311e53af8548f912c74dcc829624" target="_top" xlink:title="cellsociety_team05.Main.start">
<polygon fill="white" stroke="black" points="586,-0.5 586,-19.5 746,-19.5 746,-0.5 586,-0.5"/>
<text text-anchor="middle" x="666" y="-7.5" font-family="Helvetica,sans-Serif" font-size="10.00">cellsociety_team05.Main.start</text>
</a>
</g>
</g>
<!-- Node2&#45;&gt;Node6 -->
<g id="edge5" class="edge"><title>Node2&#45;&gt;Node6</title>
<path fill="none" stroke="midnightblue" d="M559.797,-21.8691C568.534,-20.8833 577.355,-19.8882 585.975,-18.9157"/>
<polygon fill="midnightblue" stroke="midnightblue" points="559.14,-18.4209 549.595,-23.02 559.925,-25.3768 559.14,-18.4209"/>
</g>
<!-- Node4 -->
<g id="node4" class="node"><title>Node4</title>
<g id="a_node4"><a xlink:href="../../d2/d60/classanimation_1_1_g_u_i_creator.html#ac4c8bd0d5bc08d30393866736d995aa5" target="_top" xlink:title="animation.GUICreator.addload\lXMLButton">
<polygon fill="white" stroke="black" points="782.5,-39 782.5,-69 943.5,-69 943.5,-39 782.5,-39"/>
<text text-anchor="start" x="790.5" y="-57" font-family="Helvetica,sans-Serif" font-size="10.00">animation.GUICreator.addload</text>
<text text-anchor="middle" x="863" y="-46" font-family="Helvetica,sans-Serif" font-size="10.00">XMLButton</text>
</a>
</g>
</g>
<!-- Node3&#45;&gt;Node4 -->
<g id="edge3" class="edge"><title>Node3&#45;&gt;Node4</title>
<path fill="none" stroke="midnightblue" d="M747.991,-54C759.338,-54 770.992,-54 782.314,-54"/>
<polygon fill="midnightblue" stroke="midnightblue" points="747.675,-50.5001 737.675,-54 747.675,-57.5001 747.675,-50.5001"/>
</g>
<!-- Node5 -->
<g id="node5" class="node"><title>Node5</title>
<g id="a_node5"><a xlink:href="../../d2/d60/classanimation_1_1_g_u_i_creator.html#a9a94a22da284976e0a39d9b58e6646ae" target="_top" xlink:title="animation.GUICreator.GUICreator">
<polygon fill="white" stroke="black" points="980,-44.5 980,-63.5 1156,-63.5 1156,-44.5 980,-44.5"/>
<text text-anchor="middle" x="1068" y="-51.5" font-family="Helvetica,sans-Serif" font-size="10.00">animation.GUICreator.GUICreator</text>
</a>
</g>
</g>
<!-- Node4&#45;&gt;Node5 -->
<g id="edge4" class="edge"><title>Node4&#45;&gt;Node5</title>
<path fill="none" stroke="midnightblue" d="M953.761,-54C962.433,-54 971.222,-54 979.869,-54"/>
<polygon fill="midnightblue" stroke="midnightblue" points="953.648,-50.5001 943.648,-54 953.648,-57.5001 953.648,-50.5001"/>
</g>
<!-- Node7&#45;&gt;Node2 -->
<g id="edge7" class="edge"><title>Node7&#45;&gt;Node2</title>
<path fill="none" stroke="midnightblue" d="M361.813,-22.2534C370.71,-23.07 379.633,-23.889 388.32,-24.6864"/>
<polygon fill="midnightblue" stroke="midnightblue" points="362.071,-18.7625 351.793,-21.3337 361.431,-25.7331 362.071,-18.7625"/>
</g>
</g>
</svg>
