<?xml version="1.0" encoding="UTF-8" standalone="no"?>
<!DOCTYPE svg PUBLIC "-//W3C//DTD SVG 1.1//EN"
 "http://www.w3.org/Graphics/SVG/1.1/DTD/svg11.dtd">
<!-- Generated by graphviz version 2.36.0 (20140111.2315)
 -->
<!-- Title: simulations.Sim.populate Pages: 1 -->
<svg width="1346pt" height="104pt"
 viewBox="0.00 0.00 1346.00 104.00" xmlns="http://www.w3.org/2000/svg" xmlns:xlink="http://www.w3.org/1999/xlink">
<g id="graph0" class="graph" transform="scale(1 1) rotate(0) translate(4 100)">
<title>simulations.Sim.populate</title>
<polygon fill="white" stroke="none" points="-4,4 -4,-100 1342,-100 1342,4 -4,4"/>
<!-- Node1 -->
<g id="node1" class="node"><title>Node1</title>
<polygon fill="#bfbfbf" stroke="black" points="0,-38.5 0,-57.5 138,-57.5 138,-38.5 0,-38.5"/>
<text text-anchor="middle" x="69" y="-45.5" font-family="Helvetica,sans-Serif" font-size="10.00">simulations.Sim.populate</text>
</g>
<!-- Node2 -->
<g id="node2" class="node"><title>Node2</title>
<g id="a_node2"><a xlink:href="../../d3/d55/classsimulations_1_1_wator.html#ab76c98995fa57167e03d73adb3aebec3" target="_top" xlink:title="simulations.Wator.initMap">
<polygon fill="white" stroke="black" points="175,-76.5 175,-95.5 313,-95.5 313,-76.5 175,-76.5"/>
<text text-anchor="middle" x="244" y="-83.5" font-family="Helvetica,sans-Serif" font-size="10.00">simulations.Wator.initMap</text>
</a>
</g>
</g>
<!-- Node1&#45;&gt;Node2 -->
<g id="edge1" class="edge"><title>Node1&#45;&gt;Node2</title>
<path fill="none" stroke="midnightblue" d="M123.505,-59.7526C147.967,-65.1258 176.571,-71.4086 199.659,-76.4799"/>
<polygon fill="midnightblue" stroke="midnightblue" points="124.173,-56.316 113.655,-57.589 122.671,-63.153 124.173,-56.316"/>
</g>
<!-- Node3 -->
<g id="node3" class="node"><title>Node3</title>
<g id="a_node3"><a xlink:href="../../d9/d7b/classsimulations_1_1_sim.html#a252032535fe50e2eeabefc83cff438b3" target="_top" xlink:title="simulations.Sim.initMap">
<polygon fill="white" stroke="black" points="178.5,-38.5 178.5,-57.5 309.5,-57.5 309.5,-38.5 178.5,-38.5"/>
<text text-anchor="middle" x="244" y="-45.5" font-family="Helvetica,sans-Serif" font-size="10.00">simulations.Sim.initMap</text>
</a>
</g>
</g>
<!-- Node1&#45;&gt;Node3 -->
<g id="edge2" class="edge"><title>Node1&#45;&gt;Node3</title>
<path fill="none" stroke="midnightblue" d="M148.622,-48C158.525,-48 168.568,-48 178.224,-48"/>
<polygon fill="midnightblue" stroke="midnightblue" points="148.374,-44.5001 138.374,-48 148.374,-51.5001 148.374,-44.5001"/>
</g>
<!-- Node10 -->
<g id="node10" class="node"><title>Node10</title>
<g id="a_node10"><a xlink:href="../../d7/d0c/classsimulations_1_1_sugar.html#ae585bf3ece593c9e21f074ce7f6f38ea" target="_top" xlink:title="simulations.Sugar.initMap">
<polygon fill="white" stroke="black" points="174,-0.5 174,-19.5 314,-19.5 314,-0.5 174,-0.5"/>
<text text-anchor="middle" x="244" y="-7.5" font-family="Helvetica,sans-Serif" font-size="10.00">simulations.Sugar.initMap</text>
</a>
</g>
</g>
<!-- Node1&#45;&gt;Node10 -->
<g id="edge10" class="edge"><title>Node1&#45;&gt;Node10</title>
<path fill="none" stroke="midnightblue" d="M123.505,-36.2474C147.967,-30.8742 176.571,-24.5914 199.659,-19.5201"/>
<polygon fill="midnightblue" stroke="midnightblue" points="122.671,-32.847 113.655,-38.411 124.173,-39.684 122.671,-32.847"/>
</g>
<!-- Node4 -->
<g id="node4" class="node"><title>Node4</title>
<g id="a_node4"><a xlink:href="../../d6/da5/classcellsociety__team05_1_1_master.html#ac10570db09b5b348c023bbd5e1df801b" target="_top" xlink:title="cellsociety_team05.Master.init">
<polygon fill="white" stroke="black" points="570.5,-38.5 570.5,-57.5 731.5,-57.5 731.5,-38.5 570.5,-38.5"/>
<text text-anchor="middle" x="651" y="-45.5" font-family="Helvetica,sans-Serif" font-size="10.00">cellsociety_team05.Master.init</text>
</a>
</g>
</g>
<!-- Node3&#45;&gt;Node4 -->
<g id="edge3" class="edge"><title>Node3&#45;&gt;Node4</title>
<path fill="none" stroke="midnightblue" d="M319.851,-48C390.984,-48 497.601,-48 570.296,-48"/>
<polygon fill="midnightblue" stroke="midnightblue" points="319.621,-44.5001 309.621,-48 319.621,-51.5001 319.621,-44.5001"/>
</g>
<!-- Node9 -->
<g id="node9" class="node"><title>Node9</title>
<g id="a_node9"><a xlink:href="../../df/dd6/classcellsociety__team05_1_1_initializer.html#abb7d4a529b0f347ca21442045dd4e3f3" target="_top" xlink:title="cellsociety_team05.Initializer.setup">
<polygon fill="white" stroke="black" points="350.5,-19.5 350.5,-38.5 533.5,-38.5 533.5,-19.5 350.5,-19.5"/>
<text text-anchor="middle" x="442" y="-26.5" font-family="Helvetica,sans-Serif" font-size="10.00">cellsociety_team05.Initializer.setup</text>
</a>
</g>
</g>
<!-- Node3&#45;&gt;Node9 -->
<g id="edge8" class="edge"><title>Node3&#45;&gt;Node9</title>
<path fill="none" stroke="midnightblue" d="M319.971,-40.7324C329.941,-39.7659 340.249,-38.7667 350.448,-37.778"/>
<polygon fill="midnightblue" stroke="midnightblue" points="319.337,-37.2774 309.721,-41.726 320.012,-44.2447 319.337,-37.2774"/>
</g>
<!-- Node5 -->
<g id="node5" class="node"><title>Node5</title>
<g id="a_node5"><a xlink:href="../../d2/d60/classanimation_1_1_g_u_i_creator.html#a61c68b3e24b62788dab86e5240991107" target="_top" xlink:title="animation.GUICreator.load\lAction">
<polygon fill="white" stroke="black" points="776.5,-55 776.5,-85 919.5,-85 919.5,-55 776.5,-55"/>
<text text-anchor="start" x="784.5" y="-73" font-family="Helvetica,sans-Serif" font-size="10.00">animation.GUICreator.load</text>
<text text-anchor="middle" x="848" y="-62" font-family="Helvetica,sans-Serif" font-size="10.00">Action</text>
</a>
</g>
</g>
<!-- Node4&#45;&gt;Node5 -->
<g id="edge4" class="edge"><title>Node4&#45;&gt;Node5</title>
<path fill="none" stroke="midnightblue" d="M741.759,-58.1267C753.388,-59.4386 765.164,-60.7673 776.421,-62.0373"/>
<polygon fill="midnightblue" stroke="midnightblue" points="741.925,-54.6232 731.595,-56.98 741.14,-61.5791 741.925,-54.6232"/>
</g>
<!-- Node8 -->
<g id="node8" class="node"><title>Node8</title>
<g id="a_node8"><a xlink:href="../../de/d00/classcellsociety__team05_1_1_main.html#a7663311e53af8548f912c74dcc829624" target="_top" xlink:title="cellsociety_team05.Main.start">
<polygon fill="white" stroke="black" points="768,-16.5 768,-35.5 928,-35.5 928,-16.5 768,-16.5"/>
<text text-anchor="middle" x="848" y="-23.5" font-family="Helvetica,sans-Serif" font-size="10.00">cellsociety_team05.Main.start</text>
</a>
</g>
</g>
<!-- Node4&#45;&gt;Node8 -->
<g id="edge7" class="edge"><title>Node4&#45;&gt;Node8</title>
<path fill="none" stroke="midnightblue" d="M741.797,-37.8691C750.534,-36.8833 759.355,-35.8882 767.975,-34.9157"/>
<polygon fill="midnightblue" stroke="midnightblue" points="741.14,-34.4209 731.595,-39.02 741.925,-41.3768 741.14,-34.4209"/>
</g>
<!-- Node6 -->
<g id="node6" class="node"><title>Node6</title>
<g id="a_node6"><a xlink:href="../../d2/d60/classanimation_1_1_g_u_i_creator.html#ac4c8bd0d5bc08d30393866736d995aa5" target="_top" xlink:title="animation.GUICreator.addload\lXMLButton">
<polygon fill="white" stroke="black" points="964.5,-55 964.5,-85 1125.5,-85 1125.5,-55 964.5,-55"/>
<text text-anchor="start" x="972.5" y="-73" font-family="Helvetica,sans-Serif" font-size="10.00">animation.GUICreator.addload</text>
<text text-anchor="middle" x="1045" y="-62" font-family="Helvetica,sans-Serif" font-size="10.00">XMLButton</text>
</a>
</g>
</g>
<!-- Node5&#45;&gt;Node6 -->
<g id="edge5" class="edge"><title>Node5&#45;&gt;Node6</title>
<path fill="none" stroke="midnightblue" d="M929.991,-70C941.338,-70 952.992,-70 964.314,-70"/>
<polygon fill="midnightblue" stroke="midnightblue" points="929.675,-66.5001 919.675,-70 929.675,-73.5001 929.675,-66.5001"/>
</g>
<!-- Node7 -->
<g id="node7" class="node"><title>Node7</title>
<g id="a_node7"><a xlink:href="../../d2/d60/classanimation_1_1_g_u_i_creator.html#a9a94a22da284976e0a39d9b58e6646ae" target="_top" xlink:title="animation.GUICreator.GUICreator">
<polygon fill="white" stroke="black" points="1162,-60.5 1162,-79.5 1338,-79.5 1338,-60.5 1162,-60.5"/>
<text text-anchor="middle" x="1250" y="-67.5" font-family="Helvetica,sans-Serif" font-size="10.00">animation.GUICreator.GUICreator</text>
</a>
</g>
</g>
<!-- Node6&#45;&gt;Node7 -->
<g id="edge6" class="edge"><title>Node6&#45;&gt;Node7</title>
<path fill="none" stroke="midnightblue" d="M1135.76,-70C1144.43,-70 1153.22,-70 1161.87,-70"/>
<polygon fill="midnightblue" stroke="midnightblue" points="1135.65,-66.5001 1125.65,-70 1135.65,-73.5001 1135.65,-66.5001"/>
</g>
<!-- Node9&#45;&gt;Node4 -->
<g id="edge9" class="edge"><title>Node9&#45;&gt;Node4</title>
<path fill="none" stroke="midnightblue" d="M543.813,-38.2534C552.71,-39.07 561.633,-39.889 570.32,-40.6864"/>
<polygon fill="midnightblue" stroke="midnightblue" points="544.071,-34.7625 533.793,-37.3337 543.431,-41.7331 544.071,-34.7625"/>
</g>
</g>
</svg>
