<?xml version="1.0" encoding="UTF-8" standalone="no"?>
<!DOCTYPE svg PUBLIC "-//W3C//DTD SVG 1.1//EN"
 "http://www.w3.org/Graphics/SVG/1.1/DTD/svg11.dtd">
<!-- Generated by graphviz version 2.36.0 (20140111.2315)
 -->
<!-- Title: simulations.Sim.setCell Pages: 1 -->
<svg width="1728pt" height="147pt"
 viewBox="0.00 0.00 1728.00 147.00" xmlns="http://www.w3.org/2000/svg" xmlns:xlink="http://www.w3.org/1999/xlink">
<g id="graph0" class="graph" transform="scale(1 1) rotate(0) translate(4 143)">
<title>simulations.Sim.setCell</title>
<polygon fill="white" stroke="none" points="-4,4 -4,-143 1724,-143 1724,4 -4,4"/>
<!-- Node1 -->
<g id="node1" class="node"><title>Node1</title>
<polygon fill="#bfbfbf" stroke="black" points="0,-62.5 0,-81.5 128,-81.5 128,-62.5 0,-62.5"/>
<text text-anchor="middle" x="64" y="-69.5" font-family="Helvetica,sans-Serif" font-size="10.00">simulations.Sim.setCell</text>
</g>
<!-- Node2 -->
<g id="node2" class="node"><title>Node2</title>
<g id="a_node2"><a xlink:href="../../d7/d0c/classsimulations_1_1_sugar.html#a7a1008455430c8ea6ae4acc3c9ecf39c" target="_top" xlink:title="simulations.Sugar.fillAgents">
<polygon fill="white" stroke="black" points="364.5,-119.5 364.5,-138.5 513.5,-138.5 513.5,-119.5 364.5,-119.5"/>
<text text-anchor="middle" x="439" y="-126.5" font-family="Helvetica,sans-Serif" font-size="10.00">simulations.Sugar.fillAgents</text>
</a>
</g>
</g>
<!-- Node1&#45;&gt;Node2 -->
<g id="edge1" class="edge"><title>Node1&#45;&gt;Node2</title>
<path fill="none" stroke="midnightblue" d="M93.7428,-85.65C113.134,-94.1988 139.551,-104.587 164,-110 230.809,-124.79 308.813,-128.969 364.469,-129.786"/>
<polygon fill="midnightblue" stroke="midnightblue" points="95.1141,-82.429 84.5594,-81.5075 92.2357,-88.8099 95.1141,-82.429"/>
</g>
<!-- Node4 -->
<g id="node4" class="node"><title>Node4</title>
<g id="a_node4"><a xlink:href="../../d9/d7b/classsimulations_1_1_sim.html#adbed7e9c387ef5889ce9cf6c7c302ef3" target="_top" xlink:title="simulations.Sim.fillCell">
<polygon fill="white" stroke="black" points="184.5,-81.5 184.5,-100.5 307.5,-100.5 307.5,-81.5 184.5,-81.5"/>
<text text-anchor="middle" x="246" y="-88.5" font-family="Helvetica,sans-Serif" font-size="10.00">simulations.Sim.fillCell</text>
</a>
</g>
</g>
<!-- Node1&#45;&gt;Node4 -->
<g id="edge3" class="edge"><title>Node1&#45;&gt;Node4</title>
<path fill="none" stroke="midnightblue" d="M138.174,-79.7239C153.518,-81.3435 169.538,-83.0346 184.364,-84.5995"/>
<polygon fill="midnightblue" stroke="midnightblue" points="138.52,-76.2411 128.208,-78.672 137.785,-83.2024 138.52,-76.2411"/>
</g>
<!-- Node14 -->
<g id="node14" class="node"><title>Node14</title>
<g id="a_node14"><a xlink:href="../../da/d7a/classsimulations_1_1_forage.html#a526947e9fd2cb32f932717b868a3d9fa" target="_top" xlink:title="simulations.Forage.initMap">
<polygon fill="white" stroke="black" points="173.5,-43.5 173.5,-62.5 318.5,-62.5 318.5,-43.5 173.5,-43.5"/>
<text text-anchor="middle" x="246" y="-50.5" font-family="Helvetica,sans-Serif" font-size="10.00">simulations.Forage.initMap</text>
</a>
</g>
</g>
<!-- Node1&#45;&gt;Node14 -->
<g id="edge15" class="edge"><title>Node1&#45;&gt;Node14</title>
<path fill="none" stroke="midnightblue" d="M138.262,-64.2668C149.837,-63.045 161.795,-61.7827 173.334,-60.5648"/>
<polygon fill="midnightblue" stroke="midnightblue" points="137.785,-60.7976 128.208,-65.328 138.52,-67.7589 137.785,-60.7976"/>
</g>
<!-- Node15 -->
<g id="node15" class="node"><title>Node15</title>
<g id="a_node15"><a xlink:href="../../d7/d0c/classsimulations_1_1_sugar.html#a2e18269db2d46ed65c7624ac1d35d195" target="_top" xlink:title="simulations.Sugar.updateHash">
<polygon fill="white" stroke="black" points="164,-5.5 164,-24.5 328,-24.5 328,-5.5 164,-5.5"/>
<text text-anchor="middle" x="246" y="-12.5" font-family="Helvetica,sans-Serif" font-size="10.00">simulations.Sugar.updateHash</text>
</a>
</g>
</g>
<!-- Node1&#45;&gt;Node15 -->
<g id="edge16" class="edge"><title>Node1&#45;&gt;Node15</title>
<path fill="none" stroke="midnightblue" d="M96.9655,-58.4578C116.171,-50.6427 141.224,-41.0068 164,-34 175.321,-30.5173 187.7,-27.3164 199.297,-24.5739"/>
<polygon fill="midnightblue" stroke="midnightblue" points="95.4134,-55.3117 87.4987,-62.3551 98.0782,-61.7847 95.4134,-55.3117"/>
</g>
<!-- Node3 -->
<g id="node3" class="node"><title>Node3</title>
<g id="a_node3"><a xlink:href="../../d7/d0c/classsimulations_1_1_sugar.html#ae585bf3ece593c9e21f074ce7f6f38ea" target="_top" xlink:title="simulations.Sugar.initMap">
<polygon fill="white" stroke="black" points="553,-119.5 553,-138.5 693,-138.5 693,-119.5 553,-119.5"/>
<text text-anchor="middle" x="623" y="-126.5" font-family="Helvetica,sans-Serif" font-size="10.00">simulations.Sugar.initMap</text>
</a>
</g>
</g>
<!-- Node2&#45;&gt;Node3 -->
<g id="edge2" class="edge"><title>Node2&#45;&gt;Node3</title>
<path fill="none" stroke="midnightblue" d="M523.654,-129C533.454,-129 543.368,-129 552.938,-129"/>
<polygon fill="midnightblue" stroke="midnightblue" points="523.502,-125.5 513.502,-129 523.502,-132.5 523.502,-125.5"/>
</g>
<!-- Node5 -->
<g id="node5" class="node"><title>Node5</title>
<g id="a_node5"><a xlink:href="../../d9/d7b/classsimulations_1_1_sim.html#a8053def01cba47bd9c66e26745495087" target="_top" xlink:title="simulations.Sim.populate">
<polygon fill="white" stroke="black" points="370,-81.5 370,-100.5 508,-100.5 508,-81.5 370,-81.5"/>
<text text-anchor="middle" x="439" y="-88.5" font-family="Helvetica,sans-Serif" font-size="10.00">simulations.Sim.populate</text>
</a>
</g>
</g>
<!-- Node4&#45;&gt;Node5 -->
<g id="edge4" class="edge"><title>Node4&#45;&gt;Node5</title>
<path fill="none" stroke="midnightblue" d="M318.074,-91C335.003,-91 353.03,-91 369.826,-91"/>
<polygon fill="midnightblue" stroke="midnightblue" points="317.696,-87.5001 307.696,-91 317.696,-94.5001 317.696,-87.5001"/>
</g>
<!-- Node5&#45;&gt;Node3 -->
<g id="edge14" class="edge"><title>Node5&#45;&gt;Node3</title>
<path fill="none" stroke="midnightblue" d="M495.946,-102.681C521.756,-108.07 552.007,-114.386 576.404,-119.48"/>
<polygon fill="midnightblue" stroke="midnightblue" points="496.431,-99.2068 485.926,-100.589 495,-106.059 496.431,-99.2068"/>
</g>
<!-- Node6 -->
<g id="node6" class="node"><title>Node6</title>
<g id="a_node6"><a xlink:href="../../d3/d55/classsimulations_1_1_wator.html#ab76c98995fa57167e03d73adb3aebec3" target="_top" xlink:title="simulations.Wator.initMap">
<polygon fill="white" stroke="black" points="554,-81.5 554,-100.5 692,-100.5 692,-81.5 554,-81.5"/>
<text text-anchor="middle" x="623" y="-88.5" font-family="Helvetica,sans-Serif" font-size="10.00">simulations.Wator.initMap</text>
</a>
</g>
</g>
<!-- Node5&#45;&gt;Node6 -->
<g id="edge5" class="edge"><title>Node5&#45;&gt;Node6</title>
<path fill="none" stroke="midnightblue" d="M518.301,-91C530.099,-91 542.186,-91 553.751,-91"/>
<polygon fill="midnightblue" stroke="midnightblue" points="518.029,-87.5001 508.029,-91 518.029,-94.5001 518.029,-87.5001"/>
</g>
<!-- Node7 -->
<g id="node7" class="node"><title>Node7</title>
<g id="a_node7"><a xlink:href="../../d9/d7b/classsimulations_1_1_sim.html#a252032535fe50e2eeabefc83cff438b3" target="_top" xlink:title="simulations.Sim.initMap">
<polygon fill="white" stroke="black" points="557.5,-43.5 557.5,-62.5 688.5,-62.5 688.5,-43.5 557.5,-43.5"/>
<text text-anchor="middle" x="623" y="-50.5" font-family="Helvetica,sans-Serif" font-size="10.00">simulations.Sim.initMap</text>
</a>
</g>
</g>
<!-- Node5&#45;&gt;Node7 -->
<g id="edge6" class="edge"><title>Node5&#45;&gt;Node7</title>
<path fill="none" stroke="midnightblue" d="M495.946,-79.319C521.756,-73.9301 552.007,-67.6139 576.404,-62.5201"/>
<polygon fill="midnightblue" stroke="midnightblue" points="495,-75.941 485.926,-81.411 496.431,-82.7932 495,-75.941"/>
</g>
<!-- Node8 -->
<g id="node8" class="node"><title>Node8</title>
<g id="a_node8"><a xlink:href="../../d6/da5/classcellsociety__team05_1_1_master.html#ac10570db09b5b348c023bbd5e1df801b" target="_top" xlink:title="cellsociety_team05.Master.init">
<polygon fill="white" stroke="black" points="952.5,-43.5 952.5,-62.5 1113.5,-62.5 1113.5,-43.5 952.5,-43.5"/>
<text text-anchor="middle" x="1033" y="-50.5" font-family="Helvetica,sans-Serif" font-size="10.00">cellsociety_team05.Master.init</text>
</a>
</g>
</g>
<!-- Node7&#45;&gt;Node8 -->
<g id="edge7" class="edge"><title>Node7&#45;&gt;Node8</title>
<path fill="none" stroke="midnightblue" d="M698.977,-53C770.814,-53 878.857,-53 952.247,-53"/>
<polygon fill="midnightblue" stroke="midnightblue" points="698.649,-49.5001 688.649,-53 698.649,-56.5001 698.649,-49.5001"/>
</g>
<!-- Node13 -->
<g id="node13" class="node"><title>Node13</title>
<g id="a_node13"><a xlink:href="../../df/dd6/classcellsociety__team05_1_1_initializer.html#abb7d4a529b0f347ca21442045dd4e3f3" target="_top" xlink:title="cellsociety_team05.Initializer.setup">
<polygon fill="white" stroke="black" points="732.5,-24.5 732.5,-43.5 915.5,-43.5 915.5,-24.5 732.5,-24.5"/>
<text text-anchor="middle" x="824" y="-31.5" font-family="Helvetica,sans-Serif" font-size="10.00">cellsociety_team05.Initializer.setup</text>
</a>
</g>
</g>
<!-- Node7&#45;&gt;Node13 -->
<g id="edge12" class="edge"><title>Node7&#45;&gt;Node13</title>
<path fill="none" stroke="midnightblue" d="M698.581,-45.8792C709.59,-44.8281 721.034,-43.7355 732.325,-42.6574"/>
<polygon fill="midnightblue" stroke="midnightblue" points="698.232,-42.3965 688.61,-46.8312 698.897,-49.3649 698.232,-42.3965"/>
</g>
<!-- Node9 -->
<g id="node9" class="node"><title>Node9</title>
<g id="a_node9"><a xlink:href="../../d2/d60/classanimation_1_1_g_u_i_creator.html#a61c68b3e24b62788dab86e5240991107" target="_top" xlink:title="animation.GUICreator.load\lAction">
<polygon fill="white" stroke="black" points="1158.5,-60 1158.5,-90 1301.5,-90 1301.5,-60 1158.5,-60"/>
<text text-anchor="start" x="1166.5" y="-78" font-family="Helvetica,sans-Serif" font-size="10.00">animation.GUICreator.load</text>
<text text-anchor="middle" x="1230" y="-67" font-family="Helvetica,sans-Serif" font-size="10.00">Action</text>
</a>
</g>
</g>
<!-- Node8&#45;&gt;Node9 -->
<g id="edge8" class="edge"><title>Node8&#45;&gt;Node9</title>
<path fill="none" stroke="midnightblue" d="M1123.76,-63.1267C1135.39,-64.4386 1147.16,-65.7673 1158.42,-67.0373"/>
<polygon fill="midnightblue" stroke="midnightblue" points="1123.92,-59.6232 1113.6,-61.98 1123.14,-66.5791 1123.92,-59.6232"/>
</g>
<!-- Node12 -->
<g id="node12" class="node"><title>Node12</title>
<g id="a_node12"><a xlink:href="../../de/d00/classcellsociety__team05_1_1_main.html#a7663311e53af8548f912c74dcc829624" target="_top" xlink:title="cellsociety_team05.Main.start">
<polygon fill="white" stroke="black" points="1150,-21.5 1150,-40.5 1310,-40.5 1310,-21.5 1150,-21.5"/>
<text text-anchor="middle" x="1230" y="-28.5" font-family="Helvetica,sans-Serif" font-size="10.00">cellsociety_team05.Main.start</text>
</a>
</g>
</g>
<!-- Node8&#45;&gt;Node12 -->
<g id="edge11" class="edge"><title>Node8&#45;&gt;Node12</title>
<path fill="none" stroke="midnightblue" d="M1123.8,-42.8691C1132.53,-41.8833 1141.35,-40.8882 1149.97,-39.9157"/>
<polygon fill="midnightblue" stroke="midnightblue" points="1123.14,-39.4209 1113.6,-44.02 1123.92,-46.3768 1123.14,-39.4209"/>
</g>
<!-- Node10 -->
<g id="node10" class="node"><title>Node10</title>
<g id="a_node10"><a xlink:href="../../d2/d60/classanimation_1_1_g_u_i_creator.html#ac4c8bd0d5bc08d30393866736d995aa5" target="_top" xlink:title="animation.GUICreator.addload\lXMLButton">
<polygon fill="white" stroke="black" points="1346.5,-60 1346.5,-90 1507.5,-90 1507.5,-60 1346.5,-60"/>
<text text-anchor="start" x="1354.5" y="-78" font-family="Helvetica,sans-Serif" font-size="10.00">animation.GUICreator.addload</text>
<text text-anchor="middle" x="1427" y="-67" font-family="Helvetica,sans-Serif" font-size="10.00">XMLButton</text>
</a>
</g>
</g>
<!-- Node9&#45;&gt;Node10 -->
<g id="edge9" class="edge"><title>Node9&#45;&gt;Node10</title>
<path fill="none" stroke="midnightblue" d="M1311.99,-75C1323.34,-75 1334.99,-75 1346.31,-75"/>
<polygon fill="midnightblue" stroke="midnightblue" points="1311.68,-71.5001 1301.68,-75 1311.68,-78.5001 1311.68,-71.5001"/>
</g>
<!-- Node11 -->
<g id="node11" class="node"><title>Node11</title>
<g id="a_node11"><a xlink:href="../../d2/d60/classanimation_1_1_g_u_i_creator.html#a9a94a22da284976e0a39d9b58e6646ae" target="_top" xlink:title="animation.GUICreator.GUICreator">
<polygon fill="white" stroke="black" points="1544,-65.5 1544,-84.5 1720,-84.5 1720,-65.5 1544,-65.5"/>
<text text-anchor="middle" x="1632" y="-72.5" font-family="Helvetica,sans-Serif" font-size="10.00">animation.GUICreator.GUICreator</text>
</a>
</g>
</g>
<!-- Node10&#45;&gt;Node11 -->
<g id="edge10" class="edge"><title>Node10&#45;&gt;Node11</title>
<path fill="none" stroke="midnightblue" d="M1517.76,-75C1526.43,-75 1535.22,-75 1543.87,-75"/>
<polygon fill="midnightblue" stroke="midnightblue" points="1517.65,-71.5001 1507.65,-75 1517.65,-78.5001 1517.65,-71.5001"/>
</g>
<!-- Node13&#45;&gt;Node8 -->
<g id="edge13" class="edge"><title>Node13&#45;&gt;Node8</title>
<path fill="none" stroke="midnightblue" d="M925.813,-43.2534C934.71,-44.07 943.633,-44.889 952.32,-45.6864"/>
<polygon fill="midnightblue" stroke="midnightblue" points="926.071,-39.7625 915.793,-42.3337 925.431,-46.7331 926.071,-39.7625"/>
</g>
<!-- Node16 -->
<g id="node16" class="node"><title>Node16</title>
<g id="a_node16"><a xlink:href="../../d7/d0c/classsimulations_1_1_sugar.html#ae28e368a8530f222d34a6ee29b55fb16" target="_top" xlink:title="simulations.Sugar.update\lAgent">
<polygon fill="white" stroke="black" points="369.5,-0 369.5,-30 508.5,-30 508.5,-0 369.5,-0"/>
<text text-anchor="start" x="377.5" y="-18" font-family="Helvetica,sans-Serif" font-size="10.00">simulations.Sugar.update</text>
<text text-anchor="middle" x="439" y="-7" font-family="Helvetica,sans-Serif" font-size="10.00">Agent</text>
</a>
</g>
</g>
<!-- Node15&#45;&gt;Node16 -->
<g id="edge17" class="edge"><title>Node15&#45;&gt;Node16</title>
<path fill="none" stroke="midnightblue" d="M338.029,-15C348.529,-15 359.101,-15 369.236,-15"/>
<polygon fill="midnightblue" stroke="midnightblue" points="338.001,-11.5001 328.001,-15 338.001,-18.5001 338.001,-11.5001"/>
</g>
<!-- Node17 -->
<g id="node17" class="node"><title>Node17</title>
<g id="a_node17"><a xlink:href="../../d7/d0c/classsimulations_1_1_sugar.html#ad4fb26c7153efcfd9f960b745512687f" target="_top" xlink:title="simulations.Sugar.nextGen">
<polygon fill="white" stroke="black" points="550,-5.5 550,-24.5 696,-24.5 696,-5.5 550,-5.5"/>
<text text-anchor="middle" x="623" y="-12.5" font-family="Helvetica,sans-Serif" font-size="10.00">simulations.Sugar.nextGen</text>
</a>
</g>
</g>
<!-- Node16&#45;&gt;Node17 -->
<g id="edge18" class="edge"><title>Node16&#45;&gt;Node17</title>
<path fill="none" stroke="midnightblue" d="M518.786,-15C529.116,-15 539.66,-15 549.872,-15"/>
<polygon fill="midnightblue" stroke="midnightblue" points="518.547,-11.5001 508.547,-15 518.547,-18.5001 518.547,-11.5001"/>
</g>
</g>
</svg>
