<?xml version="1.0" encoding="UTF-8" standalone="no"?>
<!DOCTYPE svg PUBLIC "-//W3C//DTD SVG 1.1//EN"
 "http://www.w3.org/Graphics/SVG/1.1/DTD/svg11.dtd">
<!-- Generated by graphviz version 2.36.0 (20140111.2315)
 -->
<!-- Title: simulations.Sim.checkCell Pages: 1 -->
<!--zoomable 131 -->
<svg id="main" version="1.1" xmlns="http://www.w3.org/2000/svg" xmlns:xlink="http://www.w3.org/1999/xlink" xml:space="preserve" onload="init(evt)">
<style type="text/css"><![CDATA[
.edge:hover path { stroke: red; }
.edge:hover polygon { stroke: red; fill: red; }
]]></style>
<script type="text/javascript"><![CDATA[
var edges = document.getElementsByTagName('g');
if (edges && edges.length) {
  for (var i=0;i<edges.length;i++) {
    if (edges[i].id.substr(0,4)=='edge') {
      edges[i].setAttribute('class','edge');
    }
  }
}
]]></script>
        <defs>
                <circle id="rim" cx="0" cy="0" r="7"/>
                <circle id="rim2" cx="0" cy="0" r="3.5"/>
                <g id="zoomPlus">
                        <use xlink:href="#rim" fill="#404040">
                                <set attributeName="fill" to="#808080" begin="zoomplus.mouseover" end="zoomplus.mouseout"/>
                        </use>
                        <path d="M-4,0h8M0,-4v8" fill="none" stroke="white" stroke-width="1.5" pointer-events="none"/>
                </g>
                <g id="zoomMin">
                        <use xlink:href="#rim" fill="#404040">
                                <set attributeName="fill" to="#808080" begin="zoomminus.mouseover" end="zoomminus.mouseout"/>
                        </use>
                        <path d="M-4,0h8" fill="none" stroke="white" stroke-width="1.5" pointer-events="none"/>
                </g>
                <g id="dirArrow">
                        <path fill="none" stroke="white" stroke-width="1.5" d="M0,-3.0v7 M-2.5,-0.5L0,-3.0L2.5,-0.5"/>
                </g>
               <g id="resetDef">
                       <use xlink:href="#rim2" fill="#404040">
                               <set attributeName="fill" to="#808080" begin="reset.mouseover" end="reset.mouseout"/>
                       </use>
               </g>
        </defs>

<script type="text/javascript">
var viewWidth = 1684;
var viewHeight = 131;
var sectionId = 'dynsection-4';
</script>
<script xlink:href="../../svgpan.js"/>
<svg id="graph" class="graph">
<g id="viewport">
<title>simulations.Sim.checkCell</title>
<polygon fill="white" stroke="none" points="-4,4 -4,-127 1680,-127 1680,4 -4,4"/>
<!-- Node1 -->
<g id="node1" class="node"><title>Node1</title>
<polygon fill="#bfbfbf" stroke="black" points="0.5,-38.5 0.5,-57.5 141.5,-57.5 141.5,-38.5 0.5,-38.5"/>
<text text-anchor="middle" x="71" y="-45.5" font-family="Helvetica,sans-Serif" font-size="10.00">simulations.Sim.checkCell</text>
</g>
<!-- Node2 -->
<g id="node2" class="node"><title>Node2</title>
<g id="a_node2"><a xlink:href="../../d9/d7b/classsimulations_1_1_sim.html#adbed7e9c387ef5889ce9cf6c7c302ef3" target="_top" xlink:title="simulations.Sim.fillCell">
<polygon fill="white" stroke="black" points="178.5,-38.5 178.5,-57.5 301.5,-57.5 301.5,-38.5 178.5,-38.5"/>
<text text-anchor="middle" x="240" y="-45.5" font-family="Helvetica,sans-Serif" font-size="10.00">simulations.Sim.fillCell</text>
</a>
</g>
</g>
<!-- Node1&#45;&gt;Node2 -->
<g id="edge1" class="edge"><title>Node1&#45;&gt;Node2</title>
<path fill="none" stroke="midnightblue" d="M151.894,-48C160.825,-48 169.812,-48 178.444,-48"/>
<polygon fill="midnightblue" stroke="midnightblue" points="151.855,-44.5001 141.855,-48 151.855,-51.5001 151.855,-44.5001"/>
</g>
<!-- Node3 -->
<g id="node3" class="node"><title>Node3</title>
<g id="a_node3"><a xlink:href="../../d9/d7b/classsimulations_1_1_sim.html#a8053def01cba47bd9c66e26745495087" target="_top" xlink:title="simulations.Sim.populate">
<polygon fill="white" stroke="black" points="338,-38.5 338,-57.5 476,-57.5 476,-38.5 338,-38.5"/>
<text text-anchor="middle" x="407" y="-45.5" font-family="Helvetica,sans-Serif" font-size="10.00">simulations.Sim.populate</text>
</a>
</g>
</g>
<!-- Node2&#45;&gt;Node3 -->
<g id="edge2" class="edge"><title>Node2&#45;&gt;Node3</title>
<path fill="none" stroke="midnightblue" d="M311.645,-48C320.376,-48 329.288,-48 337.978,-48"/>
<polygon fill="midnightblue" stroke="midnightblue" points="311.503,-44.5001 301.503,-48 311.503,-51.5001 311.503,-44.5001"/>
</g>
<!-- Node4 -->
<g id="node4" class="node"><title>Node4</title>
<g id="a_node4"><a xlink:href="../../d9/d7b/classsimulations_1_1_sim.html#a252032535fe50e2eeabefc83cff438b3" target="_top" xlink:title="simulations.Sim.initMap">
<polygon fill="white" stroke="black" points="516.5,-76.5 516.5,-95.5 647.5,-95.5 647.5,-76.5 516.5,-76.5"/>
<text text-anchor="middle" x="582" y="-83.5" font-family="Helvetica,sans-Serif" font-size="10.00">simulations.Sim.initMap</text>
</a>
</g>
</g>
<!-- Node3&#45;&gt;Node4 -->
<g id="edge3" class="edge"><title>Node3&#45;&gt;Node4</title>
<path fill="none" stroke="midnightblue" d="M461.505,-59.7526C485.967,-65.1258 514.571,-71.4086 537.659,-76.4799"/>
<polygon fill="midnightblue" stroke="midnightblue" points="462.173,-56.316 451.655,-57.589 460.671,-63.153 462.173,-56.316"/>
</g>
<!-- Node11 -->
<g id="node11" class="node"><title>Node11</title>
<g id="a_node11"><a xlink:href="../../d7/d0c/classsimulations_1_1_sugar.html#ae585bf3ece593c9e21f074ce7f6f38ea" target="_top" xlink:title="simulations.Sugar.initMap">
<polygon fill="white" stroke="black" points="512,-38.5 512,-57.5 652,-57.5 652,-38.5 512,-38.5"/>
<text text-anchor="middle" x="582" y="-45.5" font-family="Helvetica,sans-Serif" font-size="10.00">simulations.Sugar.initMap</text>
</a>
</g>
</g>
<!-- Node3&#45;&gt;Node11 -->
<g id="edge11" class="edge"><title>Node3&#45;&gt;Node11</title>
<path fill="none" stroke="midnightblue" d="M486.624,-48C495.087,-48 503.651,-48 511.989,-48"/>
<polygon fill="midnightblue" stroke="midnightblue" points="486.374,-44.5001 476.374,-48 486.374,-51.5001 486.374,-44.5001"/>
</g>
<!-- Node12 -->
<g id="node12" class="node"><title>Node12</title>
<g id="a_node12"><a xlink:href="../../d3/d55/classsimulations_1_1_wator.html#ab76c98995fa57167e03d73adb3aebec3" target="_top" xlink:title="simulations.Wator.initMap">
<polygon fill="white" stroke="black" points="513,-0.5 513,-19.5 651,-19.5 651,-0.5 513,-0.5"/>
<text text-anchor="middle" x="582" y="-7.5" font-family="Helvetica,sans-Serif" font-size="10.00">simulations.Wator.initMap</text>
</a>
</g>
</g>
<!-- Node3&#45;&gt;Node12 -->
<g id="edge12" class="edge"><title>Node3&#45;&gt;Node12</title>
<path fill="none" stroke="midnightblue" d="M461.505,-36.2474C485.967,-30.8742 514.571,-24.5914 537.659,-19.5201"/>
<polygon fill="midnightblue" stroke="midnightblue" points="460.671,-32.847 451.655,-38.411 462.173,-39.684 460.671,-32.847"/>
</g>
<!-- Node5 -->
<g id="node5" class="node"><title>Node5</title>
<g id="a_node5"><a xlink:href="../../df/dd6/classcellsociety__team05_1_1_initializer.html#abb7d4a529b0f347ca21442045dd4e3f3" target="_top" xlink:title="cellsociety_team05.Initializer.setup">
<polygon fill="white" stroke="black" points="688.5,-95.5 688.5,-114.5 871.5,-114.5 871.5,-95.5 688.5,-95.5"/>
<text text-anchor="middle" x="780" y="-102.5" font-family="Helvetica,sans-Serif" font-size="10.00">cellsociety_team05.Initializer.setup</text>
</a>
</g>
</g>
<!-- Node4&#45;&gt;Node5 -->
<g id="edge4" class="edge"><title>Node4&#45;&gt;Node5</title>
<path fill="none" stroke="midnightblue" d="M657.971,-93.2676C667.941,-94.2341 678.249,-95.2333 688.448,-96.222"/>
<polygon fill="midnightblue" stroke="midnightblue" points="658.012,-89.7553 647.721,-92.274 657.337,-96.7226 658.012,-89.7553"/>
</g>
<!-- Node6 -->
<g id="node6" class="node"><title>Node6</title>
<g id="a_node6"><a xlink:href="../../d6/da5/classcellsociety__team05_1_1_master.html#ac10570db09b5b348c023bbd5e1df801b" target="_top" xlink:title="cellsociety_team05.Master.init">
<polygon fill="white" stroke="black" points="908.5,-76.5 908.5,-95.5 1069.5,-95.5 1069.5,-76.5 908.5,-76.5"/>
<text text-anchor="middle" x="989" y="-83.5" font-family="Helvetica,sans-Serif" font-size="10.00">cellsociety_team05.Master.init</text>
</a>
</g>
</g>
<!-- Node4&#45;&gt;Node6 -->
<g id="edge10" class="edge"><title>Node4&#45;&gt;Node6</title>
<path fill="none" stroke="midnightblue" d="M657.851,-86C728.984,-86 835.601,-86 908.296,-86"/>
<polygon fill="midnightblue" stroke="midnightblue" points="657.621,-82.5001 647.621,-86 657.621,-89.5001 657.621,-82.5001"/>
</g>
<!-- Node5&#45;&gt;Node6 -->
<g id="edge5" class="edge"><title>Node5&#45;&gt;Node6</title>
<path fill="none" stroke="midnightblue" d="M881.813,-95.7466C890.71,-94.93 899.633,-94.111 908.32,-93.3136"/>
<polygon fill="midnightblue" stroke="midnightblue" points="881.431,-92.2669 871.793,-96.6663 882.071,-99.2375 881.431,-92.2669"/>
</g>
<!-- Node7 -->
<g id="node7" class="node"><title>Node7</title>
<g id="a_node7"><a xlink:href="../../d2/d60/classanimation_1_1_g_u_i_creator.html#a61c68b3e24b62788dab86e5240991107" target="_top" xlink:title="animation.GUICreator.load\lAction">
<polygon fill="white" stroke="black" points="1114.5,-93 1114.5,-123 1257.5,-123 1257.5,-93 1114.5,-93"/>
<text text-anchor="start" x="1122.5" y="-111" font-family="Helvetica,sans-Serif" font-size="10.00">animation.GUICreator.load</text>
<text text-anchor="middle" x="1186" y="-100" font-family="Helvetica,sans-Serif" font-size="10.00">Action</text>
</a>
</g>
</g>
<!-- Node6&#45;&gt;Node7 -->
<g id="edge6" class="edge"><title>Node6&#45;&gt;Node7</title>
<path fill="none" stroke="midnightblue" d="M1079.76,-96.1267C1091.39,-97.4386 1103.16,-98.7673 1114.42,-100.037"/>
<polygon fill="midnightblue" stroke="midnightblue" points="1079.92,-92.6232 1069.6,-94.98 1079.14,-99.5791 1079.92,-92.6232"/>
</g>
<!-- Node10 -->
<g id="node10" class="node"><title>Node10</title>
<g id="a_node10"><a xlink:href="../../de/d00/classcellsociety__team05_1_1_main.html#a7663311e53af8548f912c74dcc829624" target="_top" xlink:title="cellsociety_team05.Main.start">
<polygon fill="white" stroke="black" points="1106,-54.5 1106,-73.5 1266,-73.5 1266,-54.5 1106,-54.5"/>
<text text-anchor="middle" x="1186" y="-61.5" font-family="Helvetica,sans-Serif" font-size="10.00">cellsociety_team05.Main.start</text>
</a>
</g>
</g>
<!-- Node6&#45;&gt;Node10 -->
<g id="edge9" class="edge"><title>Node6&#45;&gt;Node10</title>
<path fill="none" stroke="midnightblue" d="M1079.8,-75.8691C1088.53,-74.8833 1097.35,-73.8882 1105.97,-72.9157"/>
<polygon fill="midnightblue" stroke="midnightblue" points="1079.14,-72.4209 1069.6,-77.02 1079.92,-79.3768 1079.14,-72.4209"/>
</g>
<!-- Node8 -->
<g id="node8" class="node"><title>Node8</title>
<g id="a_node8"><a xlink:href="../../d2/d60/classanimation_1_1_g_u_i_creator.html#ac4c8bd0d5bc08d30393866736d995aa5" target="_top" xlink:title="animation.GUICreator.addload\lXMLButton">
<polygon fill="white" stroke="black" points="1302.5,-93 1302.5,-123 1463.5,-123 1463.5,-93 1302.5,-93"/>
<text text-anchor="start" x="1310.5" y="-111" font-family="Helvetica,sans-Serif" font-size="10.00">animation.GUICreator.addload</text>
<text text-anchor="middle" x="1383" y="-100" font-family="Helvetica,sans-Serif" font-size="10.00">XMLButton</text>
</a>
</g>
</g>
<!-- Node7&#45;&gt;Node8 -->
<g id="edge7" class="edge"><title>Node7&#45;&gt;Node8</title>
<path fill="none" stroke="midnightblue" d="M1267.99,-108C1279.34,-108 1290.99,-108 1302.31,-108"/>
<polygon fill="midnightblue" stroke="midnightblue" points="1267.68,-104.5 1257.68,-108 1267.68,-111.5 1267.68,-104.5"/>
</g>
<!-- Node9 -->
<g id="node9" class="node"><title>Node9</title>
<g id="a_node9"><a xlink:href="../../d2/d60/classanimation_1_1_g_u_i_creator.html#a9a94a22da284976e0a39d9b58e6646ae" target="_top" xlink:title="animation.GUICreator.GUICreator">
<polygon fill="white" stroke="black" points="1500,-98.5 1500,-117.5 1676,-117.5 1676,-98.5 1500,-98.5"/>
<text text-anchor="middle" x="1588" y="-105.5" font-family="Helvetica,sans-Serif" font-size="10.00">animation.GUICreator.GUICreator</text>
</a>
</g>
</g>
<!-- Node8&#45;&gt;Node9 -->
<g id="edge8" class="edge"><title>Node8&#45;&gt;Node9</title>
<path fill="none" stroke="midnightblue" d="M1473.76,-108C1482.43,-108 1491.22,-108 1499.87,-108"/>
<polygon fill="midnightblue" stroke="midnightblue" points="1473.65,-104.5 1463.65,-108 1473.65,-111.5 1473.65,-104.5"/>
</g>
</g>
</svg>
        <g id="navigator" transform="translate(0 0)" fill="#404254">
                <rect fill="#f2f5e9" fill-opacity="0.5" stroke="#606060" stroke-width=".5" x="0" y="0" width="60" height="60"/>
                <use id="zoomplus" xlink:href="#zoomPlus" x="17" y="9" onmousedown="handleZoom(evt,'in')"/>
                <use id="zoomminus" xlink:href="#zoomMin" x="42" y="9" onmousedown="handleZoom(evt,'out')"/>
                <use id="reset" xlink:href="#resetDef" x="30" y="36" onmousedown="handleReset()"/>
                <g id="arrowUp" xlink:href="#dirArrow" transform="translate(30 24)" onmousedown="handlePan(0,-1)">
                  <use xlink:href="#rim" fill="#404040">
                        <set attributeName="fill" to="#808080" begin="arrowUp.mouseover" end="arrowUp.mouseout"/>
                  </use>
                  <path fill="none" stroke="white" stroke-width="1.5" d="M0,-3.0v7 M-2.5,-0.5L0,-3.0L2.5,-0.5"/>
                </g>
                <g id="arrowRight" xlink:href="#dirArrow" transform="rotate(90) translate(36 -43)" onmousedown="handlePan(1,0)">
                  <use xlink:href="#rim" fill="#404040">
                        <set attributeName="fill" to="#808080" begin="arrowRight.mouseover" end="arrowRight.mouseout"/>
                  </use>
                  <path fill="none" stroke="white" stroke-width="1.5" d="M0,-3.0v7 M-2.5,-0.5L0,-3.0L2.5,-0.5"/>
                </g>
                <g id="arrowDown" xlink:href="#dirArrow" transform="rotate(180) translate(-30 -48)" onmousedown="handlePan(0,1)">
                  <use xlink:href="#rim" fill="#404040">
                        <set attributeName="fill" to="#808080" begin="arrowDown.mouseover" end="arrowDown.mouseout"/>
                  </use>
                  <path fill="none" stroke="white" stroke-width="1.5" d="M0,-3.0v7 M-2.5,-0.5L0,-3.0L2.5,-0.5"/>
                </g>
                <g id="arrowLeft" xlink:href="#dirArrow" transform="rotate(270) translate(-36 17)" onmousedown="handlePan(-1,0)">
                  <use xlink:href="#rim" fill="#404040">
                        <set attributeName="fill" to="#808080" begin="arrowLeft.mouseover" end="arrowLeft.mouseout"/>
                  </use>
                  <path fill="none" stroke="white" stroke-width="1.5" d="M0,-3.0v7 M-2.5,-0.5L0,-3.0L2.5,-0.5"/>
                </g>
        </g>
        <svg viewBox="0 0 15 15" width="100%" height="30px" preserveAspectRatio="xMaxYMin meet">
         <g id="arrow_out" transform="scale(0.3 0.3)">
          <a xlink:href="classsimulations_1_1_sim_a16809fc8db2a3e21f8169a487aeff124_icgraph_org.svg" target="_base">
           <rect id="button" ry="5" rx="5" y="6" x="6" height="38" width="38"
                fill="#f2f5e9" fill-opacity="0.5" stroke="#606060" stroke-width="1.0"/>
           <path id="arrow"
             d="M 11.500037,31.436501 C 11.940474,20.09759 22.043105,11.32322 32.158766,21.979434 L 37.068811,17.246167 C 37.068811,17.246167 37.088388,32 37.088388,32 L 22.160133,31.978069 C 22.160133,31.978069 26.997745,27.140456 26.997745,27.140456 C 18.528582,18.264221 13.291696,25.230495 11.500037,31.436501 z"
             style="fill:#404040;"/>
          </a>
         </g>
        </svg>
</svg>
