<?xml version="1.0" encoding="UTF-8" standalone="no"?>
<!DOCTYPE svg PUBLIC "-//W3C//DTD SVG 1.1//EN"
 "http://www.w3.org/Graphics/SVG/1.1/DTD/svg11.dtd">
<!-- Generated by graphviz version 2.36.0 (20140111.2315)
 -->
<!-- Title: simulations.Sim.calculateTotal Pages: 1 -->
<svg width="366pt" height="256pt"
 viewBox="0.00 0.00 366.00 256.00" xmlns="http://www.w3.org/2000/svg" xmlns:xlink="http://www.w3.org/1999/xlink">
<g id="graph0" class="graph" transform="scale(1 1) rotate(0) translate(4 252)">
<title>simulations.Sim.calculateTotal</title>
<polygon fill="white" stroke="none" points="-4,4 -4,-252 362,-252 362,4 -4,4"/>
<!-- Node1 -->
<g id="node1" class="node"><title>Node1</title>
<polygon fill="#bfbfbf" stroke="black" points="0.5,-109 0.5,-139 139.5,-139 139.5,-109 0.5,-109"/>
<text text-anchor="start" x="8.5" y="-127" font-family="Helvetica,sans-Serif" font-size="10.00">simulations.Sim.calculate</text>
<text text-anchor="middle" x="70" y="-116" font-family="Helvetica,sans-Serif" font-size="10.00">Total</text>
</g>
<!-- Node2 -->
<g id="node2" class="node"><title>Node2</title>
<g id="a_node2"><a xlink:href="../../d1/d4c/classsimulations_1_1_life.html#ac82b13d7693eac342068734221371dbd" target="_top" xlink:title="simulations.Life.cellProportions">
<polygon fill="white" stroke="black" points="185,-228.5 185,-247.5 349,-247.5 349,-228.5 185,-228.5"/>
<text text-anchor="middle" x="267" y="-235.5" font-family="Helvetica,sans-Serif" font-size="10.00">simulations.Life.cellProportions</text>
</a>
</g>
</g>
<!-- Node1&#45;&gt;Node2 -->
<g id="edge1" class="edge"><title>Node1&#45;&gt;Node2</title>
<path fill="none" stroke="midnightblue" d="M89.9054,-147.046C109.222,-169.005 141.243,-201.268 176,-219 183.682,-222.919 192.127,-226.03 200.672,-228.499"/>
<polygon fill="midnightblue" stroke="midnightblue" points="92.3195,-144.485 83.145,-139.186 87.0126,-149.05 92.3195,-144.485"/>
</g>
<!-- Node3 -->
<g id="node3" class="node"><title>Node3</title>
<g id="a_node3"><a xlink:href="../../d7/da3/classsimulations_1_1_fire.html#a24e43370f9e3c678afbdd969137ba10e" target="_top" xlink:title="simulations.Fire.cellProportions">
<polygon fill="white" stroke="black" points="185,-190.5 185,-209.5 349,-209.5 349,-190.5 185,-190.5"/>
<text text-anchor="middle" x="267" y="-197.5" font-family="Helvetica,sans-Serif" font-size="10.00">simulations.Fire.cellProportions</text>
</a>
</g>
</g>
<!-- Node1&#45;&gt;Node3 -->
<g id="edge2" class="edge"><title>Node1&#45;&gt;Node3</title>
<path fill="none" stroke="midnightblue" d="M103.041,-144.559C123.27,-156.725 150.342,-171.556 176,-181 186.341,-184.806 197.645,-187.941 208.643,-190.49"/>
<polygon fill="midnightblue" stroke="midnightblue" points="104.615,-141.419 94.2583,-139.186 100.962,-147.391 104.615,-141.419"/>
</g>
<!-- Node4 -->
<g id="node4" class="node"><title>Node4</title>
<g id="a_node4"><a xlink:href="../../da/d7a/classsimulations_1_1_forage.html#a77842f4d221c4eba79ba3a6f44bb6354" target="_top" xlink:title="simulations.Forage.cellProportions">
<polygon fill="white" stroke="black" points="176.5,-152.5 176.5,-171.5 357.5,-171.5 357.5,-152.5 176.5,-152.5"/>
<text text-anchor="middle" x="267" y="-159.5" font-family="Helvetica,sans-Serif" font-size="10.00">simulations.Forage.cellProportions</text>
</a>
</g>
</g>
<!-- Node1&#45;&gt;Node4 -->
<g id="edge3" class="edge"><title>Node1&#45;&gt;Node4</title>
<path fill="none" stroke="midnightblue" d="M149.757,-139.348C172.547,-143.789 196.758,-148.507 217.15,-152.481"/>
<polygon fill="midnightblue" stroke="midnightblue" points="150.235,-135.875 139.75,-137.397 148.896,-142.746 150.235,-135.875"/>
</g>
<!-- Node5 -->
<g id="node5" class="node"><title>Node5</title>
<g id="a_node5"><a xlink:href="../../d3/d55/classsimulations_1_1_wator.html#addd9ca0bc7a20fbbb5b546eacdd32923" target="_top" xlink:title="simulations.Wator.cellProportions">
<polygon fill="white" stroke="black" points="180,-114.5 180,-133.5 354,-133.5 354,-114.5 180,-114.5"/>
<text text-anchor="middle" x="267" y="-121.5" font-family="Helvetica,sans-Serif" font-size="10.00">simulations.Wator.cellProportions</text>
</a>
</g>
</g>
<!-- Node1&#45;&gt;Node5 -->
<g id="edge4" class="edge"><title>Node1&#45;&gt;Node5</title>
<path fill="none" stroke="midnightblue" d="M149.887,-124C159.724,-124 169.822,-124 179.763,-124"/>
<polygon fill="midnightblue" stroke="midnightblue" points="149.75,-120.5 139.75,-124 149.75,-127.5 149.75,-120.5"/>
</g>
<!-- Node6 -->
<g id="node6" class="node"><title>Node6</title>
<g id="a_node6"><a xlink:href="../../d7/d0c/classsimulations_1_1_sugar.html#ad31e952cb9a7c56402d972de211b93c0" target="_top" xlink:title="simulations.Sugar.cellProportions">
<polygon fill="white" stroke="black" points="179,-76.5 179,-95.5 355,-95.5 355,-76.5 179,-76.5"/>
<text text-anchor="middle" x="267" y="-83.5" font-family="Helvetica,sans-Serif" font-size="10.00">simulations.Sugar.cellProportions</text>
</a>
</g>
</g>
<!-- Node1&#45;&gt;Node6 -->
<g id="edge5" class="edge"><title>Node1&#45;&gt;Node6</title>
<path fill="none" stroke="midnightblue" d="M149.757,-108.652C172.547,-104.211 196.758,-99.4934 217.15,-95.5195"/>
<polygon fill="midnightblue" stroke="midnightblue" points="148.896,-105.254 139.75,-110.603 150.235,-112.125 148.896,-105.254"/>
</g>
<!-- Node7 -->
<g id="node7" class="node"><title>Node7</title>
<g id="a_node7"><a xlink:href="../../d7/da3/classsimulations_1_1_fire.html#ae1d44d46fa48d618685257a49c3699fc" target="_top" xlink:title="simulations.Fire.Fire">
<polygon fill="white" stroke="black" points="212,-38.5 212,-57.5 322,-57.5 322,-38.5 212,-38.5"/>
<text text-anchor="middle" x="267" y="-45.5" font-family="Helvetica,sans-Serif" font-size="10.00">simulations.Fire.Fire</text>
</a>
</g>
</g>
<!-- Node1&#45;&gt;Node7 -->
<g id="edge6" class="edge"><title>Node1&#45;&gt;Node7</title>
<path fill="none" stroke="midnightblue" d="M103.041,-103.441C123.27,-91.2745 150.342,-76.4443 176,-67 187.39,-62.8076 199.949,-59.4298 211.979,-56.7526"/>
<polygon fill="midnightblue" stroke="midnightblue" points="100.962,-100.609 94.2583,-108.814 104.615,-106.581 100.962,-100.609"/>
</g>
<!-- Node8 -->
<g id="node8" class="node"><title>Node8</title>
<g id="a_node8"><a xlink:href="../../d7/d0c/classsimulations_1_1_sugar.html#a5094e9217565115f8e99c89c762194cd" target="_top" xlink:title="simulations.Sugar.Sugar">
<polygon fill="white" stroke="black" points="200,-0.5 200,-19.5 334,-19.5 334,-0.5 200,-0.5"/>
<text text-anchor="middle" x="267" y="-7.5" font-family="Helvetica,sans-Serif" font-size="10.00">simulations.Sugar.Sugar</text>
</a>
</g>
</g>
<!-- Node1&#45;&gt;Node8 -->
<g id="edge7" class="edge"><title>Node1&#45;&gt;Node8</title>
<path fill="none" stroke="midnightblue" d="M89.9054,-100.954C109.222,-78.9951 141.243,-46.7318 176,-29 183.682,-25.0811 192.127,-21.9701 200.672,-19.5005"/>
<polygon fill="midnightblue" stroke="midnightblue" points="87.0126,-98.9501 83.145,-108.814 92.3195,-103.515 87.0126,-98.9501"/>
</g>
</g>
</svg>
