<?xml version="1.0" encoding="UTF-8" standalone="no"?>
<!DOCTYPE svg PUBLIC "-//W3C//DTD SVG 1.1//EN"
 "http://www.w3.org/Graphics/SVG/1.1/DTD/svg11.dtd">
<!-- Generated by graphviz version 2.36.0 (20140111.2315)
 -->
<!-- Title: utility.MapCopier.copyOfDoubleArray Pages: 1 -->
<svg width="506pt" height="38pt"
 viewBox="0.00 0.00 506.00 38.00" xmlns="http://www.w3.org/2000/svg" xmlns:xlink="http://www.w3.org/1999/xlink">
<g id="graph0" class="graph" transform="scale(1 1) rotate(0) translate(4 34)">
<title>utility.MapCopier.copyOfDoubleArray</title>
<polygon fill="white" stroke="none" points="-4,4 -4,-34 502,-34 502,4 -4,4"/>
<!-- Node1 -->
<g id="node1" class="node"><title>Node1</title>
<polygon fill="#bfbfbf" stroke="black" points="0,-0 0,-30 130,-30 130,-0 0,-0"/>
<text text-anchor="start" x="8" y="-18" font-family="Helvetica,sans-Serif" font-size="10.00">utility.MapCopier.copyOf</text>
<text text-anchor="middle" x="65" y="-7" font-family="Helvetica,sans-Serif" font-size="10.00">DoubleArray</text>
</g>
<!-- Node2 -->
<g id="node2" class="node"><title>Node2</title>
<g id="a_node2"><a xlink:href="../../df/dbf/classutility_1_1_pheromone.html#a7918d271386a364c9bdadbfda01de995" target="_top" xlink:title="utility.Pheromone.nextGen">
<polygon fill="white" stroke="black" points="166.5,-5.5 166.5,-24.5 309.5,-24.5 309.5,-5.5 166.5,-5.5"/>
<text text-anchor="middle" x="238" y="-12.5" font-family="Helvetica,sans-Serif" font-size="10.00">utility.Pheromone.nextGen</text>
</a>
</g>
</g>
<!-- Node1&#45;&gt;Node2 -->
<g id="edge1" class="edge"><title>Node1&#45;&gt;Node2</title>
<path fill="none" stroke="midnightblue" d="M140.272,-15C148.966,-15 157.818,-15 166.46,-15"/>
<polygon fill="midnightblue" stroke="midnightblue" points="140.161,-11.5001 130.161,-15 140.161,-18.5001 140.161,-11.5001"/>
</g>
<!-- Node3 -->
<g id="node3" class="node"><title>Node3</title>
<g id="a_node3"><a xlink:href="../../da/d7a/classsimulations_1_1_forage.html#adae17e0a4217696191ba95b430ab4c81" target="_top" xlink:title="simulations.Forage.nextGen">
<polygon fill="white" stroke="black" points="346.5,-5.5 346.5,-24.5 497.5,-24.5 497.5,-5.5 346.5,-5.5"/>
<text text-anchor="middle" x="422" y="-12.5" font-family="Helvetica,sans-Serif" font-size="10.00">simulations.Forage.nextGen</text>
</a>
</g>
</g>
<!-- Node2&#45;&gt;Node3 -->
<g id="edge2" class="edge"><title>Node2&#45;&gt;Node3</title>
<path fill="none" stroke="midnightblue" d="M319.842,-15C328.61,-15 337.506,-15 346.198,-15"/>
<polygon fill="midnightblue" stroke="midnightblue" points="319.626,-11.5001 309.626,-15 319.626,-18.5001 319.626,-11.5001"/>
</g>
</g>
</svg>
