<?xml version="1.0" encoding="UTF-8" standalone="no"?>
<!DOCTYPE svg PUBLIC "-//W3C//DTD SVG 1.1//EN"
 "http://www.w3.org/Graphics/SVG/1.1/DTD/svg11.dtd">
<!-- Generated by graphviz version 2.36.0 (20140111.2315)
 -->
<!-- Title: utility.MapCopier.copyOfArray Pages: 1 -->
<svg width="1146pt" height="283pt"
 viewBox="0.00 0.00 1146.00 283.00" xmlns="http://www.w3.org/2000/svg" xmlns:xlink="http://www.w3.org/1999/xlink">
<g id="graph0" class="graph" transform="scale(1 1) rotate(0) translate(4 279)">
<title>utility.MapCopier.copyOfArray</title>
<polygon fill="white" stroke="none" points="-4,4 -4,-279 1142,-279 1142,4 -4,4"/>
<!-- Node1 -->
<g id="node1" class="node"><title>Node1</title>
<polygon fill="#bfbfbf" stroke="black" points="0,-109 0,-139 130,-139 130,-109 0,-109"/>
<text text-anchor="start" x="8" y="-127" font-family="Helvetica,sans-Serif" font-size="10.00">utility.MapCopier.copyOf</text>
<text text-anchor="middle" x="65" y="-116" font-family="Helvetica,sans-Serif" font-size="10.00">Array</text>
</g>
<!-- Node2 -->
<g id="node2" class="node"><title>Node2</title>
<g id="a_node2"><a xlink:href="../../d9/d7b/classsimulations_1_1_sim.html#af34d99b6d024da2704ee799bb0e94e48" target="_top" xlink:title="simulations.Sim.getData">
<polygon fill="white" stroke="black" points="182.5,-228.5 182.5,-247.5 317.5,-247.5 317.5,-228.5 182.5,-228.5"/>
<text text-anchor="middle" x="250" y="-235.5" font-family="Helvetica,sans-Serif" font-size="10.00">simulations.Sim.getData</text>
</a>
</g>
</g>
<!-- Node1&#45;&gt;Node2 -->
<g id="edge1" class="edge"><title>Node1&#45;&gt;Node2</title>
<path fill="none" stroke="midnightblue" d="M83.8358,-146.944C102.105,-168.825 132.507,-201.032 166,-219 173.295,-222.913 181.37,-226.024 189.534,-228.496"/>
<polygon fill="midnightblue" stroke="midnightblue" points="86.4809,-144.649 77.4469,-139.114 81.0573,-149.075 86.4809,-144.649"/>
</g>
<!-- Node8 -->
<g id="node8" class="node"><title>Node8</title>
<g id="a_node8"><a xlink:href="../../da/d98/classsimulations_1_1_infinite.html#af1e96a4f8f5c8cdd682dd3cc16cf6da2" target="_top" xlink:title="simulations.Infinite.Infinite">
<polygon fill="white" stroke="black" points="180,-190.5 180,-209.5 320,-209.5 320,-190.5 180,-190.5"/>
<text text-anchor="middle" x="250" y="-197.5" font-family="Helvetica,sans-Serif" font-size="10.00">simulations.Infinite.Infinite</text>
</a>
</g>
</g>
<!-- Node1&#45;&gt;Node8 -->
<g id="edge7" class="edge"><title>Node1&#45;&gt;Node8</title>
<path fill="none" stroke="midnightblue" d="M96.6999,-144.64C115.909,-156.743 141.567,-171.48 166,-181 175.642,-184.757 186.216,-187.88 196.493,-190.435"/>
<polygon fill="midnightblue" stroke="midnightblue" points="98.3967,-141.57 88.0894,-139.118 94.6181,-147.462 98.3967,-141.57"/>
</g>
<!-- Node9 -->
<g id="node9" class="node"><title>Node9</title>
<g id="a_node9"><a xlink:href="../../d1/d4c/classsimulations_1_1_life.html#af023a17455df6d032cdc3acb557f2f33" target="_top" xlink:title="simulations.Life.nextGen">
<polygon fill="white" stroke="black" points="183,-152.5 183,-171.5 317,-171.5 317,-152.5 183,-152.5"/>
<text text-anchor="middle" x="250" y="-159.5" font-family="Helvetica,sans-Serif" font-size="10.00">simulations.Life.nextGen</text>
</a>
</g>
</g>
<!-- Node1&#45;&gt;Node9 -->
<g id="edge8" class="edge"><title>Node1&#45;&gt;Node9</title>
<path fill="none" stroke="midnightblue" d="M140.035,-139.373C161.396,-143.809 184.077,-148.519 203.183,-152.486"/>
<polygon fill="midnightblue" stroke="midnightblue" points="140.507,-135.897 130.005,-137.291 139.084,-142.751 140.507,-135.897"/>
</g>
<!-- Node10 -->
<g id="node10" class="node"><title>Node10</title>
<g id="a_node10"><a xlink:href="../../d7/da3/classsimulations_1_1_fire.html#aaa551ede57a5d1978c90879551f65e43" target="_top" xlink:title="simulations.Fire.nextGen">
<polygon fill="white" stroke="black" points="183,-114.5 183,-133.5 317,-133.5 317,-114.5 183,-114.5"/>
<text text-anchor="middle" x="250" y="-121.5" font-family="Helvetica,sans-Serif" font-size="10.00">simulations.Fire.nextGen</text>
</a>
</g>
</g>
<!-- Node1&#45;&gt;Node10 -->
<g id="edge9" class="edge"><title>Node1&#45;&gt;Node10</title>
<path fill="none" stroke="midnightblue" d="M140.171,-124C154.3,-124 169.002,-124 182.86,-124"/>
<polygon fill="midnightblue" stroke="midnightblue" points="140.005,-120.5 130.005,-124 140.004,-127.5 140.005,-120.5"/>
</g>
<!-- Node11 -->
<g id="node11" class="node"><title>Node11</title>
<g id="a_node11"><a xlink:href="../../d3/d55/classsimulations_1_1_wator.html#ae6531260f046fa980999a599be53532a" target="_top" xlink:title="simulations.Wator.nextGen">
<polygon fill="white" stroke="black" points="178,-76.5 178,-95.5 322,-95.5 322,-76.5 178,-76.5"/>
<text text-anchor="middle" x="250" y="-83.5" font-family="Helvetica,sans-Serif" font-size="10.00">simulations.Wator.nextGen</text>
</a>
</g>
</g>
<!-- Node1&#45;&gt;Node11 -->
<g id="edge10" class="edge"><title>Node1&#45;&gt;Node11</title>
<path fill="none" stroke="midnightblue" d="M140.035,-108.627C161.396,-104.191 184.077,-99.4813 203.183,-95.5139"/>
<polygon fill="midnightblue" stroke="midnightblue" points="139.084,-105.249 130.005,-110.709 140.507,-112.103 139.084,-105.249"/>
</g>
<!-- Node12 -->
<g id="node12" class="node"><title>Node12</title>
<g id="a_node12"><a xlink:href="../../d4/d71/classsimulations_1_1_schelling.html#aaf5e92d9a18f4d6b6991bfb11d1fe922" target="_top" xlink:title="simulations.Schelling.nextGen">
<polygon fill="white" stroke="black" points="169.5,-38.5 169.5,-57.5 330.5,-57.5 330.5,-38.5 169.5,-38.5"/>
<text text-anchor="middle" x="250" y="-45.5" font-family="Helvetica,sans-Serif" font-size="10.00">simulations.Schelling.nextGen</text>
</a>
</g>
</g>
<!-- Node1&#45;&gt;Node12 -->
<g id="edge11" class="edge"><title>Node1&#45;&gt;Node12</title>
<path fill="none" stroke="midnightblue" d="M96.6999,-103.36C115.909,-91.2565 141.567,-76.5202 166,-67 175.642,-63.2431 186.216,-60.1202 196.493,-57.5654"/>
<polygon fill="midnightblue" stroke="midnightblue" points="94.6181,-100.538 88.0894,-108.882 98.3967,-106.43 94.6181,-100.538"/>
</g>
<!-- Node13 -->
<g id="node13" class="node"><title>Node13</title>
<g id="a_node13"><a xlink:href="../../dc/d9d/classsimulations_1_1_slime_mold.html#a4cf08e9b64271d89ce0b50375bf1e1c6" target="_top" xlink:title="simulations.SlimeMold.nextGen">
<polygon fill="white" stroke="black" points="166.5,-0.5 166.5,-19.5 333.5,-19.5 333.5,-0.5 166.5,-0.5"/>
<text text-anchor="middle" x="250" y="-7.5" font-family="Helvetica,sans-Serif" font-size="10.00">simulations.SlimeMold.nextGen</text>
</a>
</g>
</g>
<!-- Node1&#45;&gt;Node13 -->
<g id="edge12" class="edge"><title>Node1&#45;&gt;Node13</title>
<path fill="none" stroke="midnightblue" d="M83.8358,-101.056C102.105,-79.1746 132.507,-46.9682 166,-29 173.295,-25.0866 181.37,-21.9761 189.534,-19.5045"/>
<polygon fill="midnightblue" stroke="midnightblue" points="81.0573,-98.9254 77.4469,-108.886 86.4809,-103.351 81.0573,-98.9254"/>
</g>
<!-- Node3 -->
<g id="node3" class="node"><title>Node3</title>
<g id="a_node3"><a xlink:href="../../d6/da5/classcellsociety__team05_1_1_master.html#ac10570db09b5b348c023bbd5e1df801b" target="_top" xlink:title="cellsociety_team05.Master.init">
<polygon fill="white" stroke="black" points="370.5,-228.5 370.5,-247.5 531.5,-247.5 531.5,-228.5 370.5,-228.5"/>
<text text-anchor="middle" x="451" y="-235.5" font-family="Helvetica,sans-Serif" font-size="10.00">cellsociety_team05.Master.init</text>
</a>
</g>
</g>
<!-- Node2&#45;&gt;Node3 -->
<g id="edge2" class="edge"><title>Node2&#45;&gt;Node3</title>
<path fill="none" stroke="midnightblue" d="M327.619,-238C341.639,-238 356.299,-238 370.404,-238"/>
<polygon fill="midnightblue" stroke="midnightblue" points="327.541,-234.5 317.541,-238 327.541,-241.5 327.541,-234.5"/>
</g>
<!-- Node4 -->
<g id="node4" class="node"><title>Node4</title>
<g id="a_node4"><a xlink:href="../../d2/d60/classanimation_1_1_g_u_i_creator.html#a61c68b3e24b62788dab86e5240991107" target="_top" xlink:title="animation.GUICreator.load\lAction">
<polygon fill="white" stroke="black" points="576.5,-245 576.5,-275 719.5,-275 719.5,-245 576.5,-245"/>
<text text-anchor="start" x="584.5" y="-263" font-family="Helvetica,sans-Serif" font-size="10.00">animation.GUICreator.load</text>
<text text-anchor="middle" x="648" y="-252" font-family="Helvetica,sans-Serif" font-size="10.00">Action</text>
</a>
</g>
</g>
<!-- Node3&#45;&gt;Node4 -->
<g id="edge3" class="edge"><title>Node3&#45;&gt;Node4</title>
<path fill="none" stroke="midnightblue" d="M541.759,-248.127C553.388,-249.439 565.164,-250.767 576.421,-252.037"/>
<polygon fill="midnightblue" stroke="midnightblue" points="541.925,-244.623 531.595,-246.98 541.14,-251.579 541.925,-244.623"/>
</g>
<!-- Node7 -->
<g id="node7" class="node"><title>Node7</title>
<g id="a_node7"><a xlink:href="../../de/d00/classcellsociety__team05_1_1_main.html#a7663311e53af8548f912c74dcc829624" target="_top" xlink:title="cellsociety_team05.Main.start">
<polygon fill="white" stroke="black" points="568,-206.5 568,-225.5 728,-225.5 728,-206.5 568,-206.5"/>
<text text-anchor="middle" x="648" y="-213.5" font-family="Helvetica,sans-Serif" font-size="10.00">cellsociety_team05.Main.start</text>
</a>
</g>
</g>
<!-- Node3&#45;&gt;Node7 -->
<g id="edge6" class="edge"><title>Node3&#45;&gt;Node7</title>
<path fill="none" stroke="midnightblue" d="M541.797,-227.869C550.534,-226.883 559.355,-225.888 567.975,-224.916"/>
<polygon fill="midnightblue" stroke="midnightblue" points="541.14,-224.421 531.595,-229.02 541.925,-231.377 541.14,-224.421"/>
</g>
<!-- Node5 -->
<g id="node5" class="node"><title>Node5</title>
<g id="a_node5"><a xlink:href="../../d2/d60/classanimation_1_1_g_u_i_creator.html#ac4c8bd0d5bc08d30393866736d995aa5" target="_top" xlink:title="animation.GUICreator.addload\lXMLButton">
<polygon fill="white" stroke="black" points="764.5,-245 764.5,-275 925.5,-275 925.5,-245 764.5,-245"/>
<text text-anchor="start" x="772.5" y="-263" font-family="Helvetica,sans-Serif" font-size="10.00">animation.GUICreator.addload</text>
<text text-anchor="middle" x="845" y="-252" font-family="Helvetica,sans-Serif" font-size="10.00">XMLButton</text>
</a>
</g>
</g>
<!-- Node4&#45;&gt;Node5 -->
<g id="edge4" class="edge"><title>Node4&#45;&gt;Node5</title>
<path fill="none" stroke="midnightblue" d="M729.991,-260C741.338,-260 752.992,-260 764.314,-260"/>
<polygon fill="midnightblue" stroke="midnightblue" points="729.675,-256.5 719.675,-260 729.675,-263.5 729.675,-256.5"/>
</g>
<!-- Node6 -->
<g id="node6" class="node"><title>Node6</title>
<g id="a_node6"><a xlink:href="../../d2/d60/classanimation_1_1_g_u_i_creator.html#a9a94a22da284976e0a39d9b58e6646ae" target="_top" xlink:title="animation.GUICreator.GUICreator">
<polygon fill="white" stroke="black" points="962,-250.5 962,-269.5 1138,-269.5 1138,-250.5 962,-250.5"/>
<text text-anchor="middle" x="1050" y="-257.5" font-family="Helvetica,sans-Serif" font-size="10.00">animation.GUICreator.GUICreator</text>
</a>
</g>
</g>
<!-- Node5&#45;&gt;Node6 -->
<g id="edge5" class="edge"><title>Node5&#45;&gt;Node6</title>
<path fill="none" stroke="midnightblue" d="M935.761,-260C944.433,-260 953.222,-260 961.869,-260"/>
<polygon fill="midnightblue" stroke="midnightblue" points="935.648,-256.5 925.648,-260 935.648,-263.5 935.648,-256.5"/>
</g>
</g>
</svg>
