<?xml version="1.0" encoding="UTF-8" standalone="no"?>
<!DOCTYPE svg PUBLIC "-//W3C//DTD SVG 1.1//EN"
 "http://www.w3.org/Graphics/SVG/1.1/DTD/svg11.dtd">
<!-- Generated by graphviz version 2.36.0 (20140111.2315)
 -->
<!-- Title: cellsociety_team05.Initializer.setup Pages: 1 -->
<svg width="872pt" height="85pt"
 viewBox="0.00 0.00 872.00 85.00" xmlns="http://www.w3.org/2000/svg" xmlns:xlink="http://www.w3.org/1999/xlink">
<g id="graph0" class="graph" transform="scale(1 1) rotate(0) translate(4 81)">
<title>cellsociety_team05.Initializer.setup</title>
<polygon fill="white" stroke="none" points="-4,4 -4,-81 868,-81 868,4 -4,4"/>
<!-- Node1 -->
<g id="node1" class="node"><title>Node1</title>
<polygon fill="#bfbfbf" stroke="black" points="0.5,-19.5 0.5,-38.5 183.5,-38.5 183.5,-19.5 0.5,-19.5"/>
<text text-anchor="middle" x="92" y="-26.5" font-family="Helvetica,sans-Serif" font-size="10.00">cellsociety_team05.Initializer.setup</text>
</g>
<!-- Node2 -->
<g id="node2" class="node"><title>Node2</title>
<g id="a_node2"><a xlink:href="../../d9/d7b/classsimulations_1_1_sim.html#a252032535fe50e2eeabefc83cff438b3" target="_top" xlink:title="simulations.Sim.initMap">
<polygon fill="white" stroke="black" points="220.5,-38.5 220.5,-57.5 351.5,-57.5 351.5,-38.5 220.5,-38.5"/>
<text text-anchor="middle" x="286" y="-45.5" font-family="Helvetica,sans-Serif" font-size="10.00">simulations.Sim.initMap</text>
</a>
</g>
</g>
<!-- Node1&#45;&gt;Node2 -->
<g id="edge1" class="edge"><title>Node1&#45;&gt;Node2</title>
<path fill="none" stroke="midnightblue" d="M183.659,-37.9714C192.591,-38.8554 201.586,-39.7455 210.332,-40.611"/>
<polygon fill="midnightblue" stroke="midnightblue" points="210.17,-44.1119 220.466,-41.6138 210.859,-37.146 210.17,-44.1119"/>
</g>
<!-- Node7 -->
<g id="node7" class="node"><title>Node7</title>
<g id="a_node7"><a xlink:href="../../d3/dcc/classutility_1_1_reader.html#a69e7980c5726194ebc4f42f6baf66ca1" target="_top" xlink:title="utility.Reader.returnSim">
<polygon fill="white" stroke="black" points="222.5,-0.5 222.5,-19.5 349.5,-19.5 349.5,-0.5 222.5,-0.5"/>
<text text-anchor="middle" x="286" y="-7.5" font-family="Helvetica,sans-Serif" font-size="10.00">utility.Reader.returnSim</text>
</a>
</g>
</g>
<!-- Node1&#45;&gt;Node7 -->
<g id="edge6" class="edge"><title>Node1&#45;&gt;Node7</title>
<path fill="none" stroke="midnightblue" d="M183.659,-20.0286C193.285,-19.076 202.983,-18.1163 212.364,-17.188"/>
<polygon fill="midnightblue" stroke="midnightblue" points="212.794,-20.6626 222.4,-16.1948 212.104,-13.6966 212.794,-20.6626"/>
</g>
<!-- Node3 -->
<g id="node3" class="node"><title>Node3</title>
<g id="a_node3"><a xlink:href="../../d9/d7b/classsimulations_1_1_sim.html#a8053def01cba47bd9c66e26745495087" target="_top" xlink:title="simulations.Sim.populate">
<polygon fill="white" stroke="black" points="388,-38.5 388,-57.5 526,-57.5 526,-38.5 388,-38.5"/>
<text text-anchor="middle" x="457" y="-45.5" font-family="Helvetica,sans-Serif" font-size="10.00">simulations.Sim.populate</text>
</a>
</g>
</g>
<!-- Node2&#45;&gt;Node3 -->
<g id="edge2" class="edge"><title>Node2&#45;&gt;Node3</title>
<path fill="none" stroke="midnightblue" d="M351.856,-48C360.353,-48 369.131,-48 377.818,-48"/>
<polygon fill="midnightblue" stroke="midnightblue" points="377.954,-51.5001 387.954,-48 377.954,-44.5001 377.954,-51.5001"/>
</g>
<!-- Node4 -->
<g id="node4" class="node"><title>Node4</title>
<g id="a_node4"><a xlink:href="../../d9/d7b/classsimulations_1_1_sim.html#adbed7e9c387ef5889ce9cf6c7c302ef3" target="_top" xlink:title="simulations.Sim.fillCell">
<polygon fill="white" stroke="black" points="562.5,-38.5 562.5,-57.5 685.5,-57.5 685.5,-38.5 562.5,-38.5"/>
<text text-anchor="middle" x="624" y="-45.5" font-family="Helvetica,sans-Serif" font-size="10.00">simulations.Sim.fillCell</text>
</a>
</g>
</g>
<!-- Node3&#45;&gt;Node4 -->
<g id="edge3" class="edge"><title>Node3&#45;&gt;Node4</title>
<path fill="none" stroke="midnightblue" d="M526.064,-48C534.742,-48 543.639,-48 552.356,-48"/>
<polygon fill="midnightblue" stroke="midnightblue" points="552.482,-51.5001 562.482,-48 552.482,-44.5001 552.482,-51.5001"/>
</g>
<!-- Node5 -->
<g id="node5" class="node"><title>Node5</title>
<g id="a_node5"><a xlink:href="../../d9/d7b/classsimulations_1_1_sim.html#a16809fc8db2a3e21f8169a487aeff124" target="_top" xlink:title="simulations.Sim.checkCell">
<polygon fill="white" stroke="black" points="722.5,-57.5 722.5,-76.5 863.5,-76.5 863.5,-57.5 722.5,-57.5"/>
<text text-anchor="middle" x="793" y="-64.5" font-family="Helvetica,sans-Serif" font-size="10.00">simulations.Sim.checkCell</text>
</a>
</g>
</g>
<!-- Node4&#45;&gt;Node5 -->
<g id="edge4" class="edge"><title>Node4&#45;&gt;Node5</title>
<path fill="none" stroke="midnightblue" d="M685.763,-54.9132C694.369,-55.8922 703.323,-56.911 712.221,-57.9233"/>
<polygon fill="midnightblue" stroke="midnightblue" points="711.889,-61.4081 722.221,-59.0611 712.681,-54.453 711.889,-61.4081"/>
</g>
<!-- Node6 -->
<g id="node6" class="node"><title>Node6</title>
<g id="a_node6"><a xlink:href="../../d9/d7b/classsimulations_1_1_sim.html#a4da2ab43816b7e030ba62c1a10c82cf6" target="_top" xlink:title="simulations.Sim.setCell">
<polygon fill="white" stroke="black" points="729,-19.5 729,-38.5 857,-38.5 857,-19.5 729,-19.5"/>
<text text-anchor="middle" x="793" y="-26.5" font-family="Helvetica,sans-Serif" font-size="10.00">simulations.Sim.setCell</text>
</a>
</g>
</g>
<!-- Node4&#45;&gt;Node6 -->
<g id="edge5" class="edge"><title>Node4&#45;&gt;Node6</title>
<path fill="none" stroke="midnightblue" d="M685.763,-41.0868C696.474,-39.8683 707.724,-38.5883 718.734,-37.3357"/>
<polygon fill="midnightblue" stroke="midnightblue" points="719.215,-40.8037 728.755,-36.1956 718.423,-33.8485 719.215,-40.8037"/>
</g>
</g>
</svg>
