<?xml version="1.0" encoding="UTF-8" standalone="no"?>
<!DOCTYPE svg PUBLIC "-//W3C//DTD SVG 1.1//EN"
 "http://www.w3.org/Graphics/SVG/1.1/DTD/svg11.dtd">
<!-- Generated by graphviz version 2.36.0 (20140111.2315)
 -->
<!-- Title: cellsociety_team05.Initializer.readXML Pages: 1 -->
<svg width="1010pt" height="77pt"
 viewBox="0.00 0.00 1010.00 77.00" xmlns="http://www.w3.org/2000/svg" xmlns:xlink="http://www.w3.org/1999/xlink">
<g id="graph0" class="graph" transform="scale(1 1) rotate(0) translate(4 73)">
<title>cellsociety_team05.Initializer.readXML</title>
<polygon fill="white" stroke="none" points="-4,4 -4,-73 1006,-73 1006,4 -4,4"/>
<!-- Node1 -->
<g id="node1" class="node"><title>Node1</title>
<polygon fill="#bfbfbf" stroke="black" points="0.5,-22.5 0.5,-41.5 197.5,-41.5 197.5,-22.5 0.5,-22.5"/>
<text text-anchor="middle" x="99" y="-29.5" font-family="Helvetica,sans-Serif" font-size="10.00">cellsociety_team05.Initializer.readXML</text>
</g>
<!-- Node2 -->
<g id="node2" class="node"><title>Node2</title>
<g id="a_node2"><a xlink:href="../../d6/da5/classcellsociety__team05_1_1_master.html#ac10570db09b5b348c023bbd5e1df801b" target="_top" xlink:title="cellsociety_team05.Master.init">
<polygon fill="white" stroke="black" points="234.5,-22.5 234.5,-41.5 395.5,-41.5 395.5,-22.5 234.5,-22.5"/>
<text text-anchor="middle" x="315" y="-29.5" font-family="Helvetica,sans-Serif" font-size="10.00">cellsociety_team05.Master.init</text>
</a>
</g>
</g>
<!-- Node1&#45;&gt;Node2 -->
<g id="edge1" class="edge"><title>Node1&#45;&gt;Node2</title>
<path fill="none" stroke="midnightblue" d="M207.758,-32C216.76,-32 225.753,-32 234.485,-32"/>
<polygon fill="midnightblue" stroke="midnightblue" points="207.606,-28.5001 197.606,-32 207.606,-35.5001 207.606,-28.5001"/>
</g>
<!-- Node3 -->
<g id="node3" class="node"><title>Node3</title>
<g id="a_node3"><a xlink:href="../../d2/d60/classanimation_1_1_g_u_i_creator.html#a61c68b3e24b62788dab86e5240991107" target="_top" xlink:title="animation.GUICreator.load\lAction">
<polygon fill="white" stroke="black" points="440.5,-39 440.5,-69 583.5,-69 583.5,-39 440.5,-39"/>
<text text-anchor="start" x="448.5" y="-57" font-family="Helvetica,sans-Serif" font-size="10.00">animation.GUICreator.load</text>
<text text-anchor="middle" x="512" y="-46" font-family="Helvetica,sans-Serif" font-size="10.00">Action</text>
</a>
</g>
</g>
<!-- Node2&#45;&gt;Node3 -->
<g id="edge2" class="edge"><title>Node2&#45;&gt;Node3</title>
<path fill="none" stroke="midnightblue" d="M405.759,-42.1267C417.388,-43.4386 429.164,-44.7673 440.421,-46.0373"/>
<polygon fill="midnightblue" stroke="midnightblue" points="405.925,-38.6232 395.595,-40.98 405.14,-45.5791 405.925,-38.6232"/>
</g>
<!-- Node6 -->
<g id="node6" class="node"><title>Node6</title>
<g id="a_node6"><a xlink:href="../../de/d00/classcellsociety__team05_1_1_main.html#a7663311e53af8548f912c74dcc829624" target="_top" xlink:title="cellsociety_team05.Main.start">
<polygon fill="white" stroke="black" points="432,-0.5 432,-19.5 592,-19.5 592,-0.5 432,-0.5"/>
<text text-anchor="middle" x="512" y="-7.5" font-family="Helvetica,sans-Serif" font-size="10.00">cellsociety_team05.Main.start</text>
</a>
</g>
</g>
<!-- Node2&#45;&gt;Node6 -->
<g id="edge5" class="edge"><title>Node2&#45;&gt;Node6</title>
<path fill="none" stroke="midnightblue" d="M405.797,-21.8691C414.534,-20.8833 423.355,-19.8882 431.975,-18.9157"/>
<polygon fill="midnightblue" stroke="midnightblue" points="405.14,-18.4209 395.595,-23.02 405.925,-25.3768 405.14,-18.4209"/>
</g>
<!-- Node4 -->
<g id="node4" class="node"><title>Node4</title>
<g id="a_node4"><a xlink:href="../../d2/d60/classanimation_1_1_g_u_i_creator.html#ac4c8bd0d5bc08d30393866736d995aa5" target="_top" xlink:title="animation.GUICreator.addload\lXMLButton">
<polygon fill="white" stroke="black" points="628.5,-39 628.5,-69 789.5,-69 789.5,-39 628.5,-39"/>
<text text-anchor="start" x="636.5" y="-57" font-family="Helvetica,sans-Serif" font-size="10.00">animation.GUICreator.addload</text>
<text text-anchor="middle" x="709" y="-46" font-family="Helvetica,sans-Serif" font-size="10.00">XMLButton</text>
</a>
</g>
</g>
<!-- Node3&#45;&gt;Node4 -->
<g id="edge3" class="edge"><title>Node3&#45;&gt;Node4</title>
<path fill="none" stroke="midnightblue" d="M593.991,-54C605.338,-54 616.992,-54 628.314,-54"/>
<polygon fill="midnightblue" stroke="midnightblue" points="593.675,-50.5001 583.675,-54 593.675,-57.5001 593.675,-50.5001"/>
</g>
<!-- Node5 -->
<g id="node5" class="node"><title>Node5</title>
<g id="a_node5"><a xlink:href="../../d2/d60/classanimation_1_1_g_u_i_creator.html#a9a94a22da284976e0a39d9b58e6646ae" target="_top" xlink:title="animation.GUICreator.GUICreator">
<polygon fill="white" stroke="black" points="826,-44.5 826,-63.5 1002,-63.5 1002,-44.5 826,-44.5"/>
<text text-anchor="middle" x="914" y="-51.5" font-family="Helvetica,sans-Serif" font-size="10.00">animation.GUICreator.GUICreator</text>
</a>
</g>
</g>
<!-- Node4&#45;&gt;Node5 -->
<g id="edge4" class="edge"><title>Node4&#45;&gt;Node5</title>
<path fill="none" stroke="midnightblue" d="M799.761,-54C808.433,-54 817.222,-54 825.869,-54"/>
<polygon fill="midnightblue" stroke="midnightblue" points="799.648,-50.5001 789.648,-54 799.648,-57.5001 799.648,-50.5001"/>
</g>
</g>
</svg>
