<?xml version="1.0" encoding="UTF-8" standalone="no"?>
<!DOCTYPE svg PUBLIC "-//W3C//DTD SVG 1.1//EN"
 "http://www.w3.org/Graphics/SVG/1.1/DTD/svg11.dtd">
<!-- Generated by graphviz version 2.36.0 (20140111.2315)
 -->
<!-- Title: animation.SchellingAnimation Pages: 1 -->
<svg width="372pt" height="186pt"
 viewBox="0.00 0.00 372.00 186.00" xmlns="http://www.w3.org/2000/svg" xmlns:xlink="http://www.w3.org/1999/xlink">
<g id="graph0" class="graph" transform="scale(1 1) rotate(0) translate(4 182)">
<title>animation.SchellingAnimation</title>
<polygon fill="white" stroke="none" points="-4,4 -4,-182 368,-182 368,4 -4,4"/>
<!-- Node1 -->
<g id="node1" class="node"><title>Node1</title>
<polygon fill="#bfbfbf" stroke="black" points="79.5,-0.5 79.5,-19.5 238.5,-19.5 238.5,-0.5 79.5,-0.5"/>
<text text-anchor="middle" x="159" y="-7.5" font-family="Helvetica,sans-Serif" font-size="10.00">animation.SchellingAnimation</text>
</g>
<!-- Node2 -->
<g id="node2" class="node"><title>Node2</title>
<g id="a_node2"><a xlink:href="../../d2/d60/classanimation_1_1_g_u_i_creator.html" target="_top" xlink:title="animation.GUICreator">
<polygon fill="white" stroke="black" points="98.5,-58.5 98.5,-77.5 219.5,-77.5 219.5,-58.5 98.5,-58.5"/>
<text text-anchor="middle" x="159" y="-65.5" font-family="Helvetica,sans-Serif" font-size="10.00">animation.GUICreator</text>
</a>
</g>
</g>
<!-- Node2&#45;&gt;Node1 -->
<g id="edge1" class="edge"><title>Node2&#45;&gt;Node1</title>
<path fill="none" stroke="midnightblue" d="M159,-47.953C159,-38.2875 159,-27.0312 159,-19.5052"/>
<polygon fill="midnightblue" stroke="midnightblue" points="155.5,-48.25 159,-58.25 162.5,-48.25 155.5,-48.25"/>
</g>
<!-- Node3 -->
<g id="node3" class="node"><title>Node3</title>
<polygon fill="white" stroke="#bfbfbf" points="0,-158.5 0,-177.5 56,-177.5 56,-158.5 0,-158.5"/>
<text text-anchor="middle" x="28" y="-165.5" font-family="Helvetica,sans-Serif" font-size="10.00">Timeline</text>
</g>
<!-- Node3&#45;&gt;Node2 -->
<g id="edge2" class="edge"><title>Node3&#45;&gt;Node2</title>
<path fill="none" stroke="#9a32cd" stroke-dasharray="5,2" d="M32.3247,-148.214C36.9921,-132.098 46.004,-109.414 62,-96 72.3805,-87.295 85.3658,-81.3861 98.4274,-77.3781"/>
<polygon fill="#9a32cd" stroke="#9a32cd" points="28.8763,-147.569 29.7551,-158.127 35.6524,-149.326 28.8763,-147.569"/>
<text text-anchor="middle" x="88" y="-115.5" font-family="Helvetica,sans-Serif" font-size="10.00"> animation</text>
</g>
<!-- Node4 -->
<g id="node4" class="node"><title>Node4</title>
<polygon fill="white" stroke="#bfbfbf" points="77.5,-158.5 77.5,-177.5 122.5,-177.5 122.5,-158.5 77.5,-158.5"/>
<text text-anchor="middle" x="100" y="-165.5" font-family="Helvetica,sans-Serif" font-size="10.00">Stage</text>
</g>
<!-- Node4&#45;&gt;Node2 -->
<g id="edge3" class="edge"><title>Node4&#45;&gt;Node2</title>
<path fill="none" stroke="#9a32cd" stroke-dasharray="5,2" d="M110.433,-149.67C123.169,-128.515 144.201,-93.581 153.86,-77.5374"/>
<polygon fill="#9a32cd" stroke="#9a32cd" points="107.395,-147.931 105.236,-158.303 113.392,-151.541 107.395,-147.931"/>
<text text-anchor="middle" x="146.5" y="-115.5" font-family="Helvetica,sans-Serif" font-size="10.00"> s</text>
</g>
<!-- Node5 -->
<g id="node5" class="node"><title>Node5</title>
<polygon fill="white" stroke="#bfbfbf" points="140,-158.5 140,-177.5 298,-177.5 298,-158.5 140,-158.5"/>
<text text-anchor="middle" x="219" y="-165.5" font-family="Helvetica,sans-Serif" font-size="10.00">HashMap&lt; Integer, Integer &gt;</text>
</g>
<!-- Node5&#45;&gt;Node2 -->
<g id="edge4" class="edge"><title>Node5&#45;&gt;Node2</title>
<path fill="none" stroke="#9a32cd" stroke-dasharray="5,2" d="M208.39,-149.67C195.438,-128.515 174.05,-93.581 164.227,-77.5374"/>
<polygon fill="#9a32cd" stroke="#9a32cd" points="205.469,-151.602 213.675,-158.303 211.439,-147.947 205.469,-151.602"/>
<text text-anchor="middle" x="231" y="-115.5" font-family="Helvetica,sans-Serif" font-size="10.00"> newParams</text>
</g>
<!-- Node6 -->
<g id="node6" class="node"><title>Node6</title>
<polygon fill="white" stroke="#bfbfbf" points="315.5,-158.5 315.5,-177.5 364.5,-177.5 364.5,-158.5 315.5,-158.5"/>
<text text-anchor="middle" x="340" y="-165.5" font-family="Helvetica,sans-Serif" font-size="10.00">Button</text>
</g>
<!-- Node6&#45;&gt;Node2 -->
<g id="edge5" class="edge"><title>Node6&#45;&gt;Node2</title>
<path fill="none" stroke="#9a32cd" stroke-dasharray="5,2" d="M326.278,-149.974C312.285,-133.736 289.114,-109.77 264,-96 248.486,-87.4936 230.208,-81.5938 213.288,-77.5332"/>
<polygon fill="#9a32cd" stroke="#9a32cd" points="323.962,-152.661 333.062,-158.087 329.332,-148.171 323.962,-152.661"/>
<text text-anchor="middle" x="333" y="-132" font-family="Helvetica,sans-Serif" font-size="10.00"> play</text>
<text text-anchor="middle" x="333" y="-121" font-family="Helvetica,sans-Serif" font-size="10.00">load</text>
<text text-anchor="middle" x="333" y="-110" font-family="Helvetica,sans-Serif" font-size="10.00">step</text>
<text text-anchor="middle" x="333" y="-99" font-family="Helvetica,sans-Serif" font-size="10.00">pause</text>
</g>
</g>
</svg>
