<?xml version="1.0" encoding="UTF-8" standalone="no"?>
<!DOCTYPE svg PUBLIC "-//W3C//DTD SVG 1.1//EN"
 "http://www.w3.org/Graphics/SVG/1.1/DTD/svg11.dtd">
<!-- Generated by graphviz version 2.36.0 (20140111.2315)
 -->
<!-- Title: simulations.Fire.checkFire Pages: 1 -->
<svg width="336pt" height="126pt"
 viewBox="0.00 0.00 336.00 126.00" xmlns="http://www.w3.org/2000/svg" xmlns:xlink="http://www.w3.org/1999/xlink">
<g id="graph0" class="graph" transform="scale(1 1) rotate(0) translate(4 122)">
<title>simulations.Fire.checkFire</title>
<polygon fill="white" stroke="none" points="-4,4 -4,-122 332,-122 332,4 -4,4"/>
<!-- Node1 -->
<g id="node1" class="node"><title>Node1</title>
<polygon fill="#bfbfbf" stroke="black" points="0,-44.5 0,-63.5 138,-63.5 138,-44.5 0,-44.5"/>
<text text-anchor="middle" x="69" y="-51.5" font-family="Helvetica,sans-Serif" font-size="10.00">simulations.Fire.checkFire</text>
</g>
<!-- Node2 -->
<g id="node2" class="node"><title>Node2</title>
<g id="a_node2"><a xlink:href="../../d7/d2b/classutility_1_1_neighborhood.html#a70ff5a6a5c76877fd88d25400547d5f0" target="_top" xlink:title="utility.Neighborhood.get\lNeighbors">
<polygon fill="white" stroke="black" points="186,-88 186,-118 316,-118 316,-88 186,-88"/>
<text text-anchor="start" x="194" y="-106" font-family="Helvetica,sans-Serif" font-size="10.00">utility.Neighborhood.get</text>
<text text-anchor="middle" x="251" y="-95" font-family="Helvetica,sans-Serif" font-size="10.00">Neighbors</text>
</a>
</g>
</g>
<!-- Node1&#45;&gt;Node2 -->
<g id="edge1" class="edge"><title>Node1&#45;&gt;Node2</title>
<path fill="none" stroke="midnightblue" d="M105.133,-63.564C127.822,-69.7405 158.034,-77.9649 184.996,-85.3045"/>
<polygon fill="midnightblue" stroke="midnightblue" points="184.194,-88.7134 194.762,-87.963 186.033,-81.9592 184.194,-88.7134"/>
</g>
<!-- Node3 -->
<g id="node3" class="node"><title>Node3</title>
<g id="a_node3"><a xlink:href="../../d9/dd0/classcellsociety__team05_1_1_scene_updater.html#a5b755feda214274401674bc34e08d9d2" target="_top" xlink:title="cellsociety_team05.Scene\lUpdater.updateScene">
<polygon fill="white" stroke="black" points="180,-39 180,-69 322,-69 322,-39 180,-39"/>
<text text-anchor="start" x="188" y="-57" font-family="Helvetica,sans-Serif" font-size="10.00">cellsociety_team05.Scene</text>
<text text-anchor="middle" x="251" y="-46" font-family="Helvetica,sans-Serif" font-size="10.00">Updater.updateScene</text>
</a>
</g>
</g>
<!-- Node1&#45;&gt;Node3 -->
<g id="edge2" class="edge"><title>Node1&#45;&gt;Node3</title>
<path fill="none" stroke="midnightblue" d="M138.05,-54C148.386,-54 159.134,-54 169.7,-54"/>
<polygon fill="midnightblue" stroke="midnightblue" points="169.757,-57.5001 179.757,-54 169.757,-50.5001 169.757,-57.5001"/>
</g>
<!-- Node4 -->
<g id="node4" class="node"><title>Node4</title>
<g id="a_node4"><a xlink:href="../../d7/da3/classsimulations_1_1_fire.html#a62a8c101c2cf3045c887661cf0f67666" target="_top" xlink:title="simulations.Fire.updateState">
<polygon fill="white" stroke="black" points="174,-0.5 174,-19.5 328,-19.5 328,-0.5 174,-0.5"/>
<text text-anchor="middle" x="251" y="-7.5" font-family="Helvetica,sans-Serif" font-size="10.00">simulations.Fire.updateState</text>
</a>
</g>
</g>
<!-- Node1&#45;&gt;Node4 -->
<g id="edge3" class="edge"><title>Node1&#45;&gt;Node4</title>
<path fill="none" stroke="midnightblue" d="M109.057,-44.4527C136.065,-37.8508 172.199,-29.0181 201.118,-21.949"/>
<polygon fill="midnightblue" stroke="midnightblue" points="202.136,-25.3032 211.019,-19.5287 200.474,-18.5034 202.136,-25.3032"/>
</g>
</g>
</svg>
