<?xml version="1.0" encoding="UTF-8" standalone="no"?>
<!DOCTYPE svg PUBLIC "-//W3C//DTD SVG 1.1//EN"
 "http://www.w3.org/Graphics/SVG/1.1/DTD/svg11.dtd">
<!-- Generated by graphviz version 2.36.0 (20140111.2315)
 -->
<!-- Title: simulations.Fire.checkTorroFire Pages: 1 -->
<svg width="360pt" height="126pt"
 viewBox="0.00 0.00 360.00 126.00" xmlns="http://www.w3.org/2000/svg" xmlns:xlink="http://www.w3.org/1999/xlink">
<g id="graph0" class="graph" transform="scale(1 1) rotate(0) translate(4 122)">
<title>simulations.Fire.checkTorroFire</title>
<polygon fill="white" stroke="none" points="-4,4 -4,-122 356,-122 356,4 -4,4"/>
<!-- Node1 -->
<g id="node1" class="node"><title>Node1</title>
<polygon fill="#bfbfbf" stroke="black" points="0.5,-44.5 0.5,-63.5 161.5,-63.5 161.5,-44.5 0.5,-44.5"/>
<text text-anchor="middle" x="81" y="-51.5" font-family="Helvetica,sans-Serif" font-size="10.00">simulations.Fire.checkTorroFire</text>
</g>
<!-- Node2 -->
<g id="node2" class="node"><title>Node2</title>
<g id="a_node2"><a xlink:href="../../d7/d2b/classutility_1_1_neighborhood.html#ada879cc8728cae9d270a496f7a3e6827" target="_top" xlink:title="utility.Neighborhood.get\lTorroFire">
<polygon fill="white" stroke="black" points="210,-88 210,-118 340,-118 340,-88 210,-88"/>
<text text-anchor="start" x="218" y="-106" font-family="Helvetica,sans-Serif" font-size="10.00">utility.Neighborhood.get</text>
<text text-anchor="middle" x="275" y="-95" font-family="Helvetica,sans-Serif" font-size="10.00">TorroFire</text>
</a>
</g>
</g>
<!-- Node1&#45;&gt;Node2 -->
<g id="edge1" class="edge"><title>Node1&#45;&gt;Node2</title>
<path fill="none" stroke="midnightblue" d="M119.475,-63.564C143.783,-69.7676 176.186,-78.0371 205.041,-85.401"/>
<polygon fill="midnightblue" stroke="midnightblue" points="204.525,-88.8814 215.08,-87.963 206.256,-82.0988 204.525,-88.8814"/>
</g>
<!-- Node3 -->
<g id="node3" class="node"><title>Node3</title>
<g id="a_node3"><a xlink:href="../../d9/dd0/classcellsociety__team05_1_1_scene_updater.html#a5b755feda214274401674bc34e08d9d2" target="_top" xlink:title="cellsociety_team05.Scene\lUpdater.updateScene">
<polygon fill="white" stroke="black" points="204,-39 204,-69 346,-69 346,-39 204,-39"/>
<text text-anchor="start" x="212" y="-57" font-family="Helvetica,sans-Serif" font-size="10.00">cellsociety_team05.Scene</text>
<text text-anchor="middle" x="275" y="-46" font-family="Helvetica,sans-Serif" font-size="10.00">Updater.updateScene</text>
</a>
</g>
</g>
<!-- Node1&#45;&gt;Node3 -->
<g id="edge2" class="edge"><title>Node1&#45;&gt;Node3</title>
<path fill="none" stroke="midnightblue" d="M161.757,-54C172.376,-54 183.268,-54 193.892,-54"/>
<polygon fill="midnightblue" stroke="midnightblue" points="193.979,-57.5001 203.979,-54 193.979,-50.5001 193.979,-57.5001"/>
</g>
<!-- Node4 -->
<g id="node4" class="node"><title>Node4</title>
<g id="a_node4"><a xlink:href="../../d7/da3/classsimulations_1_1_fire.html#a62a8c101c2cf3045c887661cf0f67666" target="_top" xlink:title="simulations.Fire.updateState">
<polygon fill="white" stroke="black" points="198,-0.5 198,-19.5 352,-19.5 352,-0.5 198,-0.5"/>
<text text-anchor="middle" x="275" y="-7.5" font-family="Helvetica,sans-Serif" font-size="10.00">simulations.Fire.updateState</text>
</a>
</g>
</g>
<!-- Node1&#45;&gt;Node4 -->
<g id="edge3" class="edge"><title>Node1&#45;&gt;Node4</title>
<path fill="none" stroke="midnightblue" d="M123.661,-44.4527C152.721,-37.7931 191.686,-28.8637 222.665,-21.7642"/>
<polygon fill="midnightblue" stroke="midnightblue" points="223.455,-25.1741 232.42,-19.5287 221.891,-18.351 223.455,-25.1741"/>
</g>
</g>
</svg>
