<?xml version="1.0" encoding="UTF-8" standalone="no"?>
<!DOCTYPE svg PUBLIC "-//W3C//DTD SVG 1.1//EN"
 "http://www.w3.org/Graphics/SVG/1.1/DTD/svg11.dtd">
<!-- Generated by graphviz version 2.36.0 (20140111.2315)
 -->
<!-- Title: simulations.Fire.nextGen Pages: 1 -->
<svg width="530pt" height="131pt"
 viewBox="0.00 0.00 530.00 131.00" xmlns="http://www.w3.org/2000/svg" xmlns:xlink="http://www.w3.org/1999/xlink">
<g id="graph0" class="graph" transform="scale(1 1) rotate(0) translate(4 127)">
<title>simulations.Fire.nextGen</title>
<polygon fill="white" stroke="none" points="-4,4 -4,-127 526,-127 526,4 -4,4"/>
<!-- Node1 -->
<g id="node1" class="node"><title>Node1</title>
<polygon fill="#bfbfbf" stroke="black" points="0,-27.5 0,-46.5 134,-46.5 134,-27.5 0,-27.5"/>
<text text-anchor="middle" x="67" y="-34.5" font-family="Helvetica,sans-Serif" font-size="10.00">simulations.Fire.nextGen</text>
</g>
<!-- Node2 -->
<g id="node2" class="node"><title>Node2</title>
<g id="a_node2"><a xlink:href="../../d7/da3/classsimulations_1_1_fire.html#ad27ddff9517302f372b3c3a587cf796d" target="_top" xlink:title="simulations.Fire.checkTorroFire">
<polygon fill="white" stroke="black" points="170.5,-49.5 170.5,-68.5 331.5,-68.5 331.5,-49.5 170.5,-49.5"/>
<text text-anchor="middle" x="251" y="-56.5" font-family="Helvetica,sans-Serif" font-size="10.00">simulations.Fire.checkTorroFire</text>
</a>
</g>
</g>
<!-- Node1&#45;&gt;Node2 -->
<g id="edge1" class="edge"><title>Node1&#45;&gt;Node2</title>
<path fill="none" stroke="midnightblue" d="M134.221,-45.0047C142.935,-46.0581 151.977,-47.151 160.993,-48.2409"/>
<polygon fill="midnightblue" stroke="midnightblue" points="160.794,-51.7423 171.142,-49.4677 161.634,-44.7928 160.794,-51.7423"/>
</g>
<!-- Node6 -->
<g id="node6" class="node"><title>Node6</title>
<g id="a_node6"><a xlink:href="../../dc/d96/classutility_1_1_map_copier.html#a3308fa4bb52f888a9059da1c1d8380c0" target="_top" xlink:title="utility.MapCopier.copyOf\lArray">
<polygon fill="white" stroke="black" points="186,-0 186,-30 316,-30 316,-0 186,-0"/>
<text text-anchor="start" x="194" y="-18" font-family="Helvetica,sans-Serif" font-size="10.00">utility.MapCopier.copyOf</text>
<text text-anchor="middle" x="251" y="-7" font-family="Helvetica,sans-Serif" font-size="10.00">Array</text>
</a>
</g>
</g>
<!-- Node1&#45;&gt;Node6 -->
<g id="edge5" class="edge"><title>Node1&#45;&gt;Node6</title>
<path fill="none" stroke="midnightblue" d="M134.221,-28.9953C147.798,-27.3541 162.171,-25.6167 176,-23.945"/>
<polygon fill="midnightblue" stroke="midnightblue" points="176.448,-27.4165 185.956,-22.7416 175.608,-20.4671 176.448,-27.4165"/>
</g>
<!-- Node3 -->
<g id="node3" class="node"><title>Node3</title>
<g id="a_node3"><a xlink:href="../../d7/d2b/classutility_1_1_neighborhood.html#ada879cc8728cae9d270a496f7a3e6827" target="_top" xlink:title="utility.Neighborhood.get\lTorroFire">
<polygon fill="white" stroke="black" points="380,-93 380,-123 510,-123 510,-93 380,-93"/>
<text text-anchor="start" x="388" y="-111" font-family="Helvetica,sans-Serif" font-size="10.00">utility.Neighborhood.get</text>
<text text-anchor="middle" x="445" y="-100" font-family="Helvetica,sans-Serif" font-size="10.00">TorroFire</text>
</a>
</g>
</g>
<!-- Node2&#45;&gt;Node3 -->
<g id="edge2" class="edge"><title>Node2&#45;&gt;Node3</title>
<path fill="none" stroke="midnightblue" d="M289.475,-68.564C313.783,-74.7676 346.186,-83.0371 375.041,-90.401"/>
<polygon fill="midnightblue" stroke="midnightblue" points="374.525,-93.8814 385.08,-92.963 376.256,-87.0988 374.525,-93.8814"/>
</g>
<!-- Node4 -->
<g id="node4" class="node"><title>Node4</title>
<g id="a_node4"><a xlink:href="../../d9/dd0/classcellsociety__team05_1_1_scene_updater.html#a5b755feda214274401674bc34e08d9d2" target="_top" xlink:title="cellsociety_team05.Scene\lUpdater.updateScene">
<polygon fill="white" stroke="black" points="374,-44 374,-74 516,-74 516,-44 374,-44"/>
<text text-anchor="start" x="382" y="-62" font-family="Helvetica,sans-Serif" font-size="10.00">cellsociety_team05.Scene</text>
<text text-anchor="middle" x="445" y="-51" font-family="Helvetica,sans-Serif" font-size="10.00">Updater.updateScene</text>
</a>
</g>
</g>
<!-- Node2&#45;&gt;Node4 -->
<g id="edge3" class="edge"><title>Node2&#45;&gt;Node4</title>
<path fill="none" stroke="midnightblue" d="M331.757,-59C342.376,-59 353.268,-59 363.892,-59"/>
<polygon fill="midnightblue" stroke="midnightblue" points="363.979,-62.5001 373.979,-59 363.979,-55.5001 363.979,-62.5001"/>
</g>
<!-- Node5 -->
<g id="node5" class="node"><title>Node5</title>
<g id="a_node5"><a xlink:href="../../d7/da3/classsimulations_1_1_fire.html#a62a8c101c2cf3045c887661cf0f67666" target="_top" xlink:title="simulations.Fire.updateState">
<polygon fill="white" stroke="black" points="368,-5.5 368,-24.5 522,-24.5 522,-5.5 368,-5.5"/>
<text text-anchor="middle" x="445" y="-12.5" font-family="Helvetica,sans-Serif" font-size="10.00">simulations.Fire.updateState</text>
</a>
</g>
</g>
<!-- Node2&#45;&gt;Node5 -->
<g id="edge4" class="edge"><title>Node2&#45;&gt;Node5</title>
<path fill="none" stroke="midnightblue" d="M293.661,-49.4527C322.721,-42.7931 361.686,-33.8637 392.665,-26.7642"/>
<polygon fill="midnightblue" stroke="midnightblue" points="393.455,-30.1741 402.42,-24.5287 391.891,-23.351 393.455,-30.1741"/>
</g>
</g>
</svg>
