<?xml version="1.0" encoding="UTF-8" standalone="no"?>
<!DOCTYPE svg PUBLIC "-//W3C//DTD SVG 1.1//EN"
 "http://www.w3.org/Graphics/SVG/1.1/DTD/svg11.dtd">
<!-- Generated by graphviz version 2.36.0 (20140111.2315)
 -->
<!-- Title: simulations.Fire.updateState Pages: 1 -->
<svg width="530pt" height="66pt"
 viewBox="0.00 0.00 530.00 66.00" xmlns="http://www.w3.org/2000/svg" xmlns:xlink="http://www.w3.org/1999/xlink">
<g id="graph0" class="graph" transform="scale(1 1) rotate(0) translate(4 62)">
<title>simulations.Fire.updateState</title>
<polygon fill="white" stroke="none" points="-4,4 -4,-62 526,-62 526,4 -4,4"/>
<!-- Node1 -->
<g id="node1" class="node"><title>Node1</title>
<polygon fill="#bfbfbf" stroke="black" points="0,-19.5 0,-38.5 154,-38.5 154,-19.5 0,-19.5"/>
<text text-anchor="middle" x="77" y="-26.5" font-family="Helvetica,sans-Serif" font-size="10.00">simulations.Fire.updateState</text>
</g>
<!-- Node2 -->
<g id="node2" class="node"><title>Node2</title>
<g id="a_node2"><a xlink:href="../../d7/da3/classsimulations_1_1_fire.html#aa9dab50c3701daab0ca3e44f2216c69c" target="_top" xlink:title="simulations.Fire.checkFire">
<polygon fill="white" stroke="black" points="202,-38.5 202,-57.5 340,-57.5 340,-38.5 202,-38.5"/>
<text text-anchor="middle" x="271" y="-45.5" font-family="Helvetica,sans-Serif" font-size="10.00">simulations.Fire.checkFire</text>
</a>
</g>
</g>
<!-- Node1&#45;&gt;Node2 -->
<g id="edge1" class="edge"><title>Node1&#45;&gt;Node2</title>
<path fill="none" stroke="midnightblue" d="M164.18,-37.5282C176.755,-38.7727 189.559,-40.0397 201.713,-41.2425"/>
<polygon fill="midnightblue" stroke="midnightblue" points="164.455,-34.0385 154.159,-36.5366 163.766,-41.0044 164.455,-34.0385"/>
</g>
<!-- Node3 -->
<g id="node3" class="node"><title>Node3</title>
<g id="a_node3"><a xlink:href="../../d7/da3/classsimulations_1_1_fire.html#ad27ddff9517302f372b3c3a587cf796d" target="_top" xlink:title="simulations.Fire.checkTorroFire">
<polygon fill="white" stroke="black" points="190.5,-0.5 190.5,-19.5 351.5,-19.5 351.5,-0.5 190.5,-0.5"/>
<text text-anchor="middle" x="271" y="-7.5" font-family="Helvetica,sans-Serif" font-size="10.00">simulations.Fire.checkTorroFire</text>
</a>
</g>
</g>
<!-- Node1&#45;&gt;Node3 -->
<g id="edge2" class="edge"><title>Node1&#45;&gt;Node3</title>
<path fill="none" stroke="midnightblue" d="M164.314,-20.4585C173.021,-19.5969 181.836,-18.7246 190.467,-17.8704"/>
<polygon fill="midnightblue" stroke="midnightblue" points="163.766,-16.9956 154.159,-21.4634 164.455,-23.9615 163.766,-16.9956"/>
</g>
<!-- Node4 -->
<g id="node4" class="node"><title>Node4</title>
<g id="a_node4"><a xlink:href="../../d7/da3/classsimulations_1_1_fire.html#aaa551ede57a5d1978c90879551f65e43" target="_top" xlink:title="simulations.Fire.nextGen">
<polygon fill="white" stroke="black" points="388,-0.5 388,-19.5 522,-19.5 522,-0.5 388,-0.5"/>
<text text-anchor="middle" x="455" y="-7.5" font-family="Helvetica,sans-Serif" font-size="10.00">simulations.Fire.nextGen</text>
</a>
</g>
</g>
<!-- Node3&#45;&gt;Node4 -->
<g id="edge3" class="edge"><title>Node3&#45;&gt;Node4</title>
<path fill="none" stroke="midnightblue" d="M361.572,-10C370.46,-10 379.366,-10 387.951,-10"/>
<polygon fill="midnightblue" stroke="midnightblue" points="361.563,-6.5001 351.563,-10 361.563,-13.5001 361.563,-6.5001"/>
</g>
</g>
</svg>
