<?xml version="1.0" encoding="UTF-8" standalone="no"?>
<!DOCTYPE svg PUBLIC "-//W3C//DTD SVG 1.1//EN"
 "http://www.w3.org/Graphics/SVG/1.1/DTD/svg11.dtd">
<!-- Generated by graphviz version 2.36.0 (20140111.2315)
 -->
<!-- Title: cellsociety_team05.Initializer Pages: 1 -->
<svg width="229pt" height="164pt"
 viewBox="0.00 0.00 229.00 164.00" xmlns="http://www.w3.org/2000/svg" xmlns:xlink="http://www.w3.org/1999/xlink">
<g id="graph0" class="graph" transform="scale(1 1) rotate(0) translate(4 160)">
<title>cellsociety_team05.Initializer</title>
<polygon fill="white" stroke="none" points="-4,4 -4,-160 225,-160 225,4 -4,4"/>
<!-- Node1 -->
<g id="node1" class="node"><title>Node1</title>
<polygon fill="#bfbfbf" stroke="black" points="27,-0.5 27,-19.5 181,-19.5 181,-0.5 27,-0.5"/>
<text text-anchor="middle" x="104" y="-7.5" font-family="Helvetica,sans-Serif" font-size="10.00">cellsociety_team05.Initializer</text>
</g>
<!-- Node2 -->
<g id="node2" class="node"><title>Node2</title>
<g id="a_node2"><a xlink:href="../../d3/dcc/classutility_1_1_reader.html" target="_top" xlink:title="utility.Reader">
<polygon fill="white" stroke="black" points="65.5,-68.5 65.5,-87.5 142.5,-87.5 142.5,-68.5 65.5,-68.5"/>
<text text-anchor="middle" x="104" y="-75.5" font-family="Helvetica,sans-Serif" font-size="10.00">utility.Reader</text>
</a>
</g>
</g>
<!-- Node2&#45;&gt;Node1 -->
<g id="edge1" class="edge"><title>Node2&#45;&gt;Node1</title>
<path fill="none" stroke="#9a32cd" stroke-dasharray="5,2" d="M104,-58.0413C104,-45.4724 104,-29.5631 104,-19.8411"/>
<polygon fill="#9a32cd" stroke="#9a32cd" points="100.5,-58.3716 104,-68.3717 107.5,-58.3717 100.5,-58.3716"/>
<text text-anchor="middle" x="121.5" y="-41.5" font-family="Helvetica,sans-Serif" font-size="10.00"> reader</text>
</g>
<!-- Node3 -->
<g id="node3" class="node"><title>Node3</title>
<polygon fill="white" stroke="#bfbfbf" points="-0.5,-136.5 -0.5,-155.5 88.5,-155.5 88.5,-136.5 -0.5,-136.5"/>
<text text-anchor="middle" x="44" y="-143.5" font-family="Helvetica,sans-Serif" font-size="10.00">DefaultHandler</text>
</g>
<!-- Node3&#45;&gt;Node2 -->
<g id="edge2" class="edge"><title>Node3&#45;&gt;Node2</title>
<path fill="none" stroke="midnightblue" d="M58.8364,-128.68C70.5666,-115.777 86.4932,-98.2575 95.9626,-87.8411"/>
<polygon fill="midnightblue" stroke="midnightblue" points="55.9809,-126.618 51.844,-136.372 61.1605,-131.327 55.9809,-126.618"/>
</g>
<!-- Node4 -->
<g id="node4" class="node"><title>Node4</title>
<polygon fill="white" stroke="#bfbfbf" points="106.5,-136.5 106.5,-155.5 221.5,-155.5 221.5,-136.5 106.5,-136.5"/>
<text text-anchor="middle" x="164" y="-143.5" font-family="Helvetica,sans-Serif" font-size="10.00">ArrayList&lt; Integer &gt;</text>
</g>
<!-- Node4&#45;&gt;Node2 -->
<g id="edge3" class="edge"><title>Node4&#45;&gt;Node2</title>
<path fill="none" stroke="#9a32cd" stroke-dasharray="5,2" d="M149.164,-128.68C137.433,-115.777 121.507,-98.2575 112.037,-87.8411"/>
<polygon fill="#9a32cd" stroke="#9a32cd" points="146.839,-131.327 156.156,-136.372 152.019,-126.618 146.839,-131.327"/>
<text text-anchor="middle" x="168.5" y="-109.5" font-family="Helvetica,sans-Serif" font-size="10.00"> paramsList</text>
</g>
</g>
</svg>
