<?xml version="1.0" encoding="UTF-8" standalone="no"?>
<!DOCTYPE svg PUBLIC "-//W3C//DTD SVG 1.1//EN"
 "http://www.w3.org/Graphics/SVG/1.1/DTD/svg11.dtd">
<!-- Generated by graphviz version 2.36.0 (20140111.2315)
 -->
<!-- Title: utility.Pheromone.nextGen Pages: 1 -->
<svg width="318pt" height="87pt"
 viewBox="0.00 0.00 318.00 87.00" xmlns="http://www.w3.org/2000/svg" xmlns:xlink="http://www.w3.org/1999/xlink">
<g id="graph0" class="graph" transform="scale(1 1) rotate(0) translate(4 83)">
<title>utility.Pheromone.nextGen</title>
<polygon fill="white" stroke="none" points="-4,4 -4,-83 314,-83 314,4 -4,4"/>
<!-- Node1 -->
<g id="node1" class="node"><title>Node1</title>
<polygon fill="#bfbfbf" stroke="black" points="0.5,-29.5 0.5,-48.5 143.5,-48.5 143.5,-29.5 0.5,-29.5"/>
<text text-anchor="middle" x="72" y="-36.5" font-family="Helvetica,sans-Serif" font-size="10.00">utility.Pheromone.nextGen</text>
</g>
<!-- Node2 -->
<g id="node2" class="node"><title>Node2</title>
<g id="a_node2"><a xlink:href="../../dc/d96/classutility_1_1_map_copier.html#ac8e90b5098e6d4ddb43054bd12f47842" target="_top" xlink:title="utility.MapCopier.copyOf\lDoubleArray">
<polygon fill="white" stroke="black" points="180,-49 180,-79 310,-79 310,-49 180,-49"/>
<text text-anchor="start" x="188" y="-67" font-family="Helvetica,sans-Serif" font-size="10.00">utility.MapCopier.copyOf</text>
<text text-anchor="middle" x="245" y="-56" font-family="Helvetica,sans-Serif" font-size="10.00">DoubleArray</text>
</a>
</g>
</g>
<!-- Node1&#45;&gt;Node2 -->
<g id="edge1" class="edge"><title>Node1&#45;&gt;Node2</title>
<path fill="none" stroke="midnightblue" d="M138.136,-48.5227C148.507,-50.039 159.302,-51.6173 169.863,-53.1612"/>
<polygon fill="midnightblue" stroke="midnightblue" points="169.492,-56.6442 179.894,-54.6277 170.505,-49.7178 169.492,-56.6442"/>
</g>
<!-- Node3 -->
<g id="node3" class="node"><title>Node3</title>
<g id="a_node3"><a xlink:href="../../d7/d2b/classutility_1_1_neighborhood.html#a70ff5a6a5c76877fd88d25400547d5f0" target="_top" xlink:title="utility.Neighborhood.get\lNeighbors">
<polygon fill="white" stroke="black" points="180,-0 180,-30 310,-30 310,-0 180,-0"/>
<text text-anchor="start" x="188" y="-18" font-family="Helvetica,sans-Serif" font-size="10.00">utility.Neighborhood.get</text>
<text text-anchor="middle" x="245" y="-7" font-family="Helvetica,sans-Serif" font-size="10.00">Neighbors</text>
</a>
</g>
</g>
<!-- Node1&#45;&gt;Node3 -->
<g id="edge2" class="edge"><title>Node1&#45;&gt;Node3</title>
<path fill="none" stroke="midnightblue" d="M141.075,-29.4456C150.446,-28.1304 160.108,-26.7744 169.585,-25.4442"/>
<polygon fill="midnightblue" stroke="midnightblue" points="170.357,-28.8702 179.774,-24.0142 169.384,-21.9381 170.357,-28.8702"/>
</g>
</g>
</svg>
