<?xml version="1.0" encoding="UTF-8" standalone="no"?>
<!DOCTYPE svg PUBLIC "-//W3C//DTD SVG 1.1//EN"
 "http://www.w3.org/Graphics/SVG/1.1/DTD/svg11.dtd">
<!-- Generated by graphviz version 2.36.0 (20140111.2315)
 -->
<!-- Title: cellsociety_team05.SceneUpdater Pages: 1 -->
<!--zoomable 333 -->
<svg id="main" version="1.1" xmlns="http://www.w3.org/2000/svg" xmlns:xlink="http://www.w3.org/1999/xlink" xml:space="preserve" onload="init(evt)">
<style type="text/css"><![CDATA[
.edge:hover path { stroke: red; }
.edge:hover polygon { stroke: red; fill: red; }
]]></style>
<script type="text/javascript"><![CDATA[
var edges = document.getElementsByTagName('g');
if (edges && edges.length) {
  for (var i=0;i<edges.length;i++) {
    if (edges[i].id.substr(0,4)=='edge') {
      edges[i].setAttribute('class','edge');
    }
  }
}
]]></script>
        <defs>
                <circle id="rim" cx="0" cy="0" r="7"/>
                <circle id="rim2" cx="0" cy="0" r="3.5"/>
                <g id="zoomPlus">
                        <use xlink:href="#rim" fill="#404040">
                                <set attributeName="fill" to="#808080" begin="zoomplus.mouseover" end="zoomplus.mouseout"/>
                        </use>
                        <path d="M-4,0h8M0,-4v8" fill="none" stroke="white" stroke-width="1.5" pointer-events="none"/>
                </g>
                <g id="zoomMin">
                        <use xlink:href="#rim" fill="#404040">
                                <set attributeName="fill" to="#808080" begin="zoomminus.mouseover" end="zoomminus.mouseout"/>
                        </use>
                        <path d="M-4,0h8" fill="none" stroke="white" stroke-width="1.5" pointer-events="none"/>
                </g>
                <g id="dirArrow">
                        <path fill="none" stroke="white" stroke-width="1.5" d="M0,-3.0v7 M-2.5,-0.5L0,-3.0L2.5,-0.5"/>
                </g>
               <g id="resetDef">
                       <use xlink:href="#rim2" fill="#404040">
                               <set attributeName="fill" to="#808080" begin="reset.mouseover" end="reset.mouseout"/>
                       </use>
               </g>
        </defs>

<script type="text/javascript">
var viewWidth = 670;
var viewHeight = 333;
var sectionId = 'dynsection-0';
</script>
<script xlink:href="../../svgpan.js"/>
<svg id="graph" class="graph">
<g id="viewport">
<title>cellsociety_team05.SceneUpdater</title>
<polygon fill="white" stroke="none" points="-4,4 -4,-329 666,-329 666,4 -4,4"/>
<!-- Node1 -->
<g id="node1" class="node"><title>Node1</title>
<polygon fill="#bfbfbf" stroke="black" points="520,-99 520,-129 662,-129 662,-99 520,-99"/>
<text text-anchor="start" x="528" y="-117" font-family="Helvetica,sans-Serif" font-size="10.00">cellsociety_team05.Scene</text>
<text text-anchor="middle" x="591" y="-106" font-family="Helvetica,sans-Serif" font-size="10.00">Updater</text>
</g>
<!-- Node2 -->
<g id="node2" class="node"><title>Node2</title>
<polygon fill="white" stroke="#bfbfbf" points="51,-305.5 51,-324.5 107,-324.5 107,-305.5 51,-305.5"/>
<text text-anchor="middle" x="79" y="-312.5" font-family="Helvetica,sans-Serif" font-size="10.00">Timeline</text>
</g>
<!-- Node2&#45;&gt;Node1 -->
<g id="edge1" class="edge"><title>Node2&#45;&gt;Node1</title>
<path fill="none" stroke="#9a32cd" stroke-dasharray="5,2" d="M117.286,-318.832C150.5,-321.185 200.173,-322.078 242,-312 367.026,-281.875 393.495,-254.034 502,-185 528.665,-168.035 556.597,-144.326 573.655,-129.067"/>
<polygon fill="#9a32cd" stroke="#9a32cd" points="117.356,-315.327 107.111,-318.029 116.805,-322.305 117.356,-315.327"/>
<text text-anchor="middle" x="335" y="-309" font-family="Helvetica,sans-Serif" font-size="10.00"> ani</text>
</g>
<!-- Node8 -->
<g id="node8" class="node"><title>Node8</title>
<g id="a_node8"><a xlink:href="../../d2/d60/classanimation_1_1_g_u_i_creator.html" target="_top" xlink:title="animation.GUICreator">
<polygon fill="white" stroke="black" points="274.5,-189.5 274.5,-208.5 395.5,-208.5 395.5,-189.5 274.5,-189.5"/>
<text text-anchor="middle" x="335" y="-196.5" font-family="Helvetica,sans-Serif" font-size="10.00">animation.GUICreator</text>
</a>
</g>
</g>
<!-- Node2&#45;&gt;Node8 -->
<g id="edge8" class="edge"><title>Node2&#45;&gt;Node8</title>
<path fill="none" stroke="#9a32cd" stroke-dasharray="5,2" d="M117.011,-310.32C150.932,-304.966 201.833,-294.198 242,-274 276.428,-256.688 309.649,-224.649 325.055,-208.636"/>
<polygon fill="#9a32cd" stroke="#9a32cd" points="116.431,-306.868 107.06,-311.813 117.469,-313.791 116.431,-306.868"/>
<text text-anchor="middle" x="209" y="-300" font-family="Helvetica,sans-Serif" font-size="10.00"> animation</text>
</g>
<!-- Node3 -->
<g id="node3" class="node"><title>Node3</title>
<polygon fill="white" stroke="#bfbfbf" points="56.5,-141.5 56.5,-160.5 101.5,-160.5 101.5,-141.5 56.5,-141.5"/>
<text text-anchor="middle" x="79" y="-148.5" font-family="Helvetica,sans-Serif" font-size="10.00">Stage</text>
</g>
<!-- Node3&#45;&gt;Node1 -->
<g id="edge2" class="edge"><title>Node3&#45;&gt;Node1</title>
<path fill="none" stroke="#9a32cd" stroke-dasharray="5,2" d="M111.621,-148.706C192.293,-142.853 407.292,-127.255 519.546,-119.111"/>
<polygon fill="#9a32cd" stroke="#9a32cd" points="111.309,-145.219 101.588,-149.434 111.815,-152.201 111.309,-145.219"/>
<text text-anchor="middle" x="335" y="-141" font-family="Helvetica,sans-Serif" font-size="10.00"> s</text>
</g>
<!-- Node3&#45;&gt;Node8 -->
<g id="edge9" class="edge"><title>Node3&#45;&gt;Node8</title>
<path fill="none" stroke="#9a32cd" stroke-dasharray="5,2" d="M111.557,-156.964C154.569,-165.092 232.096,-179.742 283.31,-189.421"/>
<polygon fill="#9a32cd" stroke="#9a32cd" points="112.132,-153.51 101.656,-155.092 110.832,-160.389 112.132,-153.51"/>
<text text-anchor="middle" x="209" y="-184" font-family="Helvetica,sans-Serif" font-size="10.00"> s</text>
</g>
<!-- Node4 -->
<g id="node4" class="node"><title>Node4</title>
<g id="a_node4"><a xlink:href="../../da/d16/classanimation_1_1_animated_graph.html" target="_top" xlink:title="animation.AnimatedGraph">
<polygon fill="white" stroke="black" points="263.5,-76.5 263.5,-95.5 406.5,-95.5 406.5,-76.5 263.5,-76.5"/>
<text text-anchor="middle" x="335" y="-83.5" font-family="Helvetica,sans-Serif" font-size="10.00">animation.AnimatedGraph</text>
</a>
</g>
</g>
<!-- Node4&#45;&gt;Node1 -->
<g id="edge3" class="edge"><title>Node4&#45;&gt;Node1</title>
<path fill="none" stroke="#9a32cd" stroke-dasharray="5,2" d="M416.84,-94.9115C449.881,-98.5538 487.747,-102.728 519.626,-106.242"/>
<polygon fill="#9a32cd" stroke="#9a32cd" points="417.076,-91.4164 406.753,-93.7996 416.309,-98.3743 417.076,-91.4164"/>
<text text-anchor="middle" x="465" y="-108" font-family="Helvetica,sans-Serif" font-size="10.00"> ag</text>
</g>
<!-- Node5 -->
<g id="node5" class="node"><title>Node5</title>
<polygon fill="white" stroke="#bfbfbf" points="3,-81 3,-111 155,-111 155,-81 3,-81"/>
<text text-anchor="start" x="11" y="-99" font-family="Helvetica,sans-Serif" font-size="10.00">HashMap&lt; Integer, XYChart.</text>
<text text-anchor="middle" x="79" y="-88" font-family="Helvetica,sans-Serif" font-size="10.00">Series &gt;</text>
</g>
<!-- Node5&#45;&gt;Node4 -->
<g id="edge4" class="edge"><title>Node5&#45;&gt;Node4</title>
<path fill="none" stroke="#9a32cd" stroke-dasharray="5,2" d="M165.368,-92.6391C197.215,-91.3852 232.99,-89.9768 263.367,-88.7808"/>
<polygon fill="#9a32cd" stroke="#9a32cd" points="165.032,-89.1495 155.177,-93.0403 165.307,-96.1441 165.032,-89.1495"/>
<text text-anchor="middle" x="209" y="-96" font-family="Helvetica,sans-Serif" font-size="10.00"> seriesMap</text>
</g>
<!-- Node6 -->
<g id="node6" class="node"><title>Node6</title>
<polygon fill="white" stroke="#bfbfbf" points="3,-42.5 3,-61.5 155,-61.5 155,-42.5 3,-42.5"/>
<text text-anchor="middle" x="79" y="-49.5" font-family="Helvetica,sans-Serif" font-size="10.00">HashMap&lt; Integer, String &gt;</text>
</g>
<!-- Node6&#45;&gt;Node4 -->
<g id="edge5" class="edge"><title>Node6&#45;&gt;Node4</title>
<path fill="none" stroke="#9a32cd" stroke-dasharray="5,2" d="M161.132,-62.8602C194.014,-67.2617 231.635,-72.2976 263.366,-76.5451"/>
<polygon fill="#9a32cd" stroke="#9a32cd" points="161.467,-59.3739 151.091,-61.5161 160.538,-66.312 161.467,-59.3739"/>
<text text-anchor="middle" x="209" y="-77" font-family="Helvetica,sans-Serif" font-size="10.00"> paramLabels</text>
</g>
<!-- Node7 -->
<g id="node7" class="node"><title>Node7</title>
<polygon fill="white" stroke="#bfbfbf" points="276.5,-38.5 276.5,-57.5 393.5,-57.5 393.5,-38.5 276.5,-38.5"/>
<text text-anchor="middle" x="335" y="-45.5" font-family="Helvetica,sans-Serif" font-size="10.00">LinkedList&lt; Shape &gt;</text>
</g>
<!-- Node7&#45;&gt;Node1 -->
<g id="edge6" class="edge"><title>Node7&#45;&gt;Node1</title>
<path fill="none" stroke="#9a32cd" stroke-dasharray="5,2" d="M403.054,-59.4133C433.502,-65.188 469.826,-72.9083 502,-82 518.739,-86.7301 536.859,-93.0964 552.281,-98.9049"/>
<polygon fill="#9a32cd" stroke="#9a32cd" points="403.44,-55.925 392.967,-57.5303 402.155,-62.8061 403.44,-55.925"/>
<text text-anchor="middle" x="465" y="-85" font-family="Helvetica,sans-Serif" font-size="10.00"> indexMap</text>
</g>
<!-- Node8&#45;&gt;Node1 -->
<g id="edge7" class="edge"><title>Node8&#45;&gt;Node1</title>
<path fill="none" stroke="#9a32cd" stroke-dasharray="5,2" d="M376.963,-186.419C410.652,-175.953 459.577,-160.479 502,-146 517.539,-140.696 534.514,-134.597 549.374,-129.155"/>
<polygon fill="#9a32cd" stroke="#9a32cd" points="375.537,-183.196 367.021,-189.5 377.609,-189.883 375.537,-183.196"/>
<text text-anchor="middle" x="465" y="-173" font-family="Helvetica,sans-Serif" font-size="10.00"> gc</text>
</g>
<!-- Node9 -->
<g id="node9" class="node"><title>Node9</title>
<polygon fill="white" stroke="#bfbfbf" points="0,-256.5 0,-275.5 158,-275.5 158,-256.5 0,-256.5"/>
<text text-anchor="middle" x="79" y="-263.5" font-family="Helvetica,sans-Serif" font-size="10.00">HashMap&lt; Integer, Integer &gt;</text>
</g>
<!-- Node9&#45;&gt;Node8 -->
<g id="edge10" class="edge"><title>Node9&#45;&gt;Node8</title>
<path fill="none" stroke="#9a32cd" stroke-dasharray="5,2" d="M168.057,-259.232C192.353,-255.97 218.489,-251.143 242,-244 270.241,-235.42 300.54,-219.046 318.354,-208.594"/>
<polygon fill="#9a32cd" stroke="#9a32cd" points="167.61,-255.761 158.13,-260.493 168.492,-262.705 167.61,-255.761"/>
<text text-anchor="middle" x="209" y="-262" font-family="Helvetica,sans-Serif" font-size="10.00"> newParams</text>
</g>
<!-- Node10 -->
<g id="node10" class="node"><title>Node10</title>
<polygon fill="white" stroke="#bfbfbf" points="54.5,-189.5 54.5,-208.5 103.5,-208.5 103.5,-189.5 54.5,-189.5"/>
<text text-anchor="middle" x="79" y="-196.5" font-family="Helvetica,sans-Serif" font-size="10.00">Button</text>
</g>
<!-- Node10&#45;&gt;Node8 -->
<g id="edge11" class="edge"><title>Node10&#45;&gt;Node8</title>
<path fill="none" stroke="#9a32cd" stroke-dasharray="5,2" d="M114.156,-199C155.091,-199 224.394,-199 274.256,-199"/>
<polygon fill="#9a32cd" stroke="#9a32cd" points="113.896,-195.5 103.896,-199 113.896,-202.5 113.896,-195.5"/>
<text text-anchor="middle" x="209" y="-235" font-family="Helvetica,sans-Serif" font-size="10.00"> play</text>
<text text-anchor="middle" x="209" y="-224" font-family="Helvetica,sans-Serif" font-size="10.00">load</text>
<text text-anchor="middle" x="209" y="-213" font-family="Helvetica,sans-Serif" font-size="10.00">step</text>
<text text-anchor="middle" x="209" y="-202" font-family="Helvetica,sans-Serif" font-size="10.00">pause</text>
</g>
<!-- Node11 -->
<g id="node11" class="node"><title>Node11</title>
<polygon fill="white" stroke="#bfbfbf" points="260.5,-0.5 260.5,-19.5 409.5,-19.5 409.5,-0.5 260.5,-0.5"/>
<text text-anchor="middle" x="335" y="-7.5" font-family="Helvetica,sans-Serif" font-size="10.00">HashMap&lt; Integer, Color &gt;</text>
</g>
<!-- Node11&#45;&gt;Node1 -->
<g id="edge12" class="edge"><title>Node11&#45;&gt;Node1</title>
<path fill="none" stroke="#9a32cd" stroke-dasharray="5,2" d="M411.174,-21.6143C440.389,-27.7802 473.592,-36.8811 502,-50 529.269,-62.593 556.612,-84.2316 573.417,-98.8217"/>
<polygon fill="#9a32cd" stroke="#9a32cd" points="411.518,-18.1127 401.022,-19.5539 410.126,-24.9729 411.518,-18.1127"/>
<text text-anchor="middle" x="465" y="-53" font-family="Helvetica,sans-Serif" font-size="10.00"> stateColorMap</text>
</g>
</g>
</svg>
        <g id="navigator" transform="translate(0 0)" fill="#404254">
                <rect fill="#f2f5e9" fill-opacity="0.5" stroke="#606060" stroke-width=".5" x="0" y="0" width="60" height="60"/>
                <use id="zoomplus" xlink:href="#zoomPlus" x="17" y="9" onmousedown="handleZoom(evt,'in')"/>
                <use id="zoomminus" xlink:href="#zoomMin" x="42" y="9" onmousedown="handleZoom(evt,'out')"/>
                <use id="reset" xlink:href="#resetDef" x="30" y="36" onmousedown="handleReset()"/>
                <g id="arrowUp" xlink:href="#dirArrow" transform="translate(30 24)" onmousedown="handlePan(0,-1)">
                  <use xlink:href="#rim" fill="#404040">
                        <set attributeName="fill" to="#808080" begin="arrowUp.mouseover" end="arrowUp.mouseout"/>
                  </use>
                  <path fill="none" stroke="white" stroke-width="1.5" d="M0,-3.0v7 M-2.5,-0.5L0,-3.0L2.5,-0.5"/>
                </g>
                <g id="arrowRight" xlink:href="#dirArrow" transform="rotate(90) translate(36 -43)" onmousedown="handlePan(1,0)">
                  <use xlink:href="#rim" fill="#404040">
                        <set attributeName="fill" to="#808080" begin="arrowRight.mouseover" end="arrowRight.mouseout"/>
                  </use>
                  <path fill="none" stroke="white" stroke-width="1.5" d="M0,-3.0v7 M-2.5,-0.5L0,-3.0L2.5,-0.5"/>
                </g>
                <g id="arrowDown" xlink:href="#dirArrow" transform="rotate(180) translate(-30 -48)" onmousedown="handlePan(0,1)">
                  <use xlink:href="#rim" fill="#404040">
                        <set attributeName="fill" to="#808080" begin="arrowDown.mouseover" end="arrowDown.mouseout"/>
                  </use>
                  <path fill="none" stroke="white" stroke-width="1.5" d="M0,-3.0v7 M-2.5,-0.5L0,-3.0L2.5,-0.5"/>
                </g>
                <g id="arrowLeft" xlink:href="#dirArrow" transform="rotate(270) translate(-36 17)" onmousedown="handlePan(-1,0)">
                  <use xlink:href="#rim" fill="#404040">
                        <set attributeName="fill" to="#808080" begin="arrowLeft.mouseover" end="arrowLeft.mouseout"/>
                  </use>
                  <path fill="none" stroke="white" stroke-width="1.5" d="M0,-3.0v7 M-2.5,-0.5L0,-3.0L2.5,-0.5"/>
                </g>
        </g>
        <svg viewBox="0 0 15 15" width="100%" height="30px" preserveAspectRatio="xMaxYMin meet">
         <g id="arrow_out" transform="scale(0.3 0.3)">
          <a xlink:href="classcellsociety__team05_1_1_scene_updater__coll__graph_org.svg" target="_base">
           <rect id="button" ry="5" rx="5" y="6" x="6" height="38" width="38"
                fill="#f2f5e9" fill-opacity="0.5" stroke="#606060" stroke-width="1.0"/>
           <path id="arrow"
             d="M 11.500037,31.436501 C 11.940474,20.09759 22.043105,11.32322 32.158766,21.979434 L 37.068811,17.246167 C 37.068811,17.246167 37.088388,32 37.088388,32 L 22.160133,31.978069 C 22.160133,31.978069 26.997745,27.140456 26.997745,27.140456 C 18.528582,18.264221 13.291696,25.230495 11.500037,31.436501 z"
             style="fill:#404040;"/>
          </a>
         </g>
        </svg>
</svg>
