<?xml version="1.0" encoding="UTF-8" standalone="no"?>
<!DOCTYPE svg PUBLIC "-//W3C//DTD SVG 1.1//EN"
 "http://www.w3.org/Graphics/SVG/1.1/DTD/svg11.dtd">
<!-- Generated by graphviz version 2.36.0 (20140111.2315)
 -->
<!-- Title: cellsociety_team05.SceneUpdater.newScene Pages: 1 -->
<svg width="954pt" height="77pt"
 viewBox="0.00 0.00 954.00 77.00" xmlns="http://www.w3.org/2000/svg" xmlns:xlink="http://www.w3.org/1999/xlink">
<g id="graph0" class="graph" transform="scale(1 1) rotate(0) translate(4 73)">
<title>cellsociety_team05.SceneUpdater.newScene</title>
<polygon fill="white" stroke="none" points="-4,4 -4,-73 950,-73 950,4 -4,4"/>
<!-- Node1 -->
<g id="node1" class="node"><title>Node1</title>
<polygon fill="#bfbfbf" stroke="black" points="0,-17 0,-47 142,-47 142,-17 0,-17"/>
<text text-anchor="start" x="8" y="-35" font-family="Helvetica,sans-Serif" font-size="10.00">cellsociety_team05.Scene</text>
<text text-anchor="middle" x="71" y="-24" font-family="Helvetica,sans-Serif" font-size="10.00">Updater.newScene</text>
</g>
<!-- Node2 -->
<g id="node2" class="node"><title>Node2</title>
<g id="a_node2"><a xlink:href="../../d6/da5/classcellsociety__team05_1_1_master.html#ac10570db09b5b348c023bbd5e1df801b" target="_top" xlink:title="cellsociety_team05.Master.init">
<polygon fill="white" stroke="black" points="178.5,-22.5 178.5,-41.5 339.5,-41.5 339.5,-22.5 178.5,-22.5"/>
<text text-anchor="middle" x="259" y="-29.5" font-family="Helvetica,sans-Serif" font-size="10.00">cellsociety_team05.Master.init</text>
</a>
</g>
</g>
<!-- Node1&#45;&gt;Node2 -->
<g id="edge1" class="edge"><title>Node1&#45;&gt;Node2</title>
<path fill="none" stroke="midnightblue" d="M152.153,-32C160.831,-32 169.662,-32 178.335,-32"/>
<polygon fill="midnightblue" stroke="midnightblue" points="152.054,-28.5001 142.054,-32 152.054,-35.5001 152.054,-28.5001"/>
</g>
<!-- Node3 -->
<g id="node3" class="node"><title>Node3</title>
<g id="a_node3"><a xlink:href="../../d2/d60/classanimation_1_1_g_u_i_creator.html#a61c68b3e24b62788dab86e5240991107" target="_top" xlink:title="animation.GUICreator.load\lAction">
<polygon fill="white" stroke="black" points="384.5,-39 384.5,-69 527.5,-69 527.5,-39 384.5,-39"/>
<text text-anchor="start" x="392.5" y="-57" font-family="Helvetica,sans-Serif" font-size="10.00">animation.GUICreator.load</text>
<text text-anchor="middle" x="456" y="-46" font-family="Helvetica,sans-Serif" font-size="10.00">Action</text>
</a>
</g>
</g>
<!-- Node2&#45;&gt;Node3 -->
<g id="edge2" class="edge"><title>Node2&#45;&gt;Node3</title>
<path fill="none" stroke="midnightblue" d="M349.759,-42.1267C361.388,-43.4386 373.164,-44.7673 384.421,-46.0373"/>
<polygon fill="midnightblue" stroke="midnightblue" points="349.925,-38.6232 339.595,-40.98 349.14,-45.5791 349.925,-38.6232"/>
</g>
<!-- Node6 -->
<g id="node6" class="node"><title>Node6</title>
<g id="a_node6"><a xlink:href="../../de/d00/classcellsociety__team05_1_1_main.html#a7663311e53af8548f912c74dcc829624" target="_top" xlink:title="cellsociety_team05.Main.start">
<polygon fill="white" stroke="black" points="376,-0.5 376,-19.5 536,-19.5 536,-0.5 376,-0.5"/>
<text text-anchor="middle" x="456" y="-7.5" font-family="Helvetica,sans-Serif" font-size="10.00">cellsociety_team05.Main.start</text>
</a>
</g>
</g>
<!-- Node2&#45;&gt;Node6 -->
<g id="edge5" class="edge"><title>Node2&#45;&gt;Node6</title>
<path fill="none" stroke="midnightblue" d="M349.797,-21.8691C358.534,-20.8833 367.355,-19.8882 375.975,-18.9157"/>
<polygon fill="midnightblue" stroke="midnightblue" points="349.14,-18.4209 339.595,-23.02 349.925,-25.3768 349.14,-18.4209"/>
</g>
<!-- Node4 -->
<g id="node4" class="node"><title>Node4</title>
<g id="a_node4"><a xlink:href="../../d2/d60/classanimation_1_1_g_u_i_creator.html#ac4c8bd0d5bc08d30393866736d995aa5" target="_top" xlink:title="animation.GUICreator.addload\lXMLButton">
<polygon fill="white" stroke="black" points="572.5,-39 572.5,-69 733.5,-69 733.5,-39 572.5,-39"/>
<text text-anchor="start" x="580.5" y="-57" font-family="Helvetica,sans-Serif" font-size="10.00">animation.GUICreator.addload</text>
<text text-anchor="middle" x="653" y="-46" font-family="Helvetica,sans-Serif" font-size="10.00">XMLButton</text>
</a>
</g>
</g>
<!-- Node3&#45;&gt;Node4 -->
<g id="edge3" class="edge"><title>Node3&#45;&gt;Node4</title>
<path fill="none" stroke="midnightblue" d="M537.991,-54C549.338,-54 560.992,-54 572.314,-54"/>
<polygon fill="midnightblue" stroke="midnightblue" points="537.675,-50.5001 527.675,-54 537.675,-57.5001 537.675,-50.5001"/>
</g>
<!-- Node5 -->
<g id="node5" class="node"><title>Node5</title>
<g id="a_node5"><a xlink:href="../../d2/d60/classanimation_1_1_g_u_i_creator.html#a9a94a22da284976e0a39d9b58e6646ae" target="_top" xlink:title="animation.GUICreator.GUICreator">
<polygon fill="white" stroke="black" points="770,-44.5 770,-63.5 946,-63.5 946,-44.5 770,-44.5"/>
<text text-anchor="middle" x="858" y="-51.5" font-family="Helvetica,sans-Serif" font-size="10.00">animation.GUICreator.GUICreator</text>
</a>
</g>
</g>
<!-- Node4&#45;&gt;Node5 -->
<g id="edge4" class="edge"><title>Node4&#45;&gt;Node5</title>
<path fill="none" stroke="midnightblue" d="M743.761,-54C752.433,-54 761.222,-54 769.869,-54"/>
<polygon fill="midnightblue" stroke="midnightblue" points="743.648,-50.5001 733.648,-54 743.648,-57.5001 743.648,-50.5001"/>
</g>
</g>
</svg>
