<?xml version="1.0" encoding="UTF-8" standalone="no"?>
<!DOCTYPE svg PUBLIC "-//W3C//DTD SVG 1.1//EN"
 "http://www.w3.org/Graphics/SVG/1.1/DTD/svg11.dtd">
<!-- Generated by graphviz version 2.36.0 (20140111.2315)
 -->
<!-- Title: cellsociety_team05.SceneUpdater.newParams Pages: 1 -->
<svg width="1574pt" height="77pt"
 viewBox="0.00 0.00 1574.00 77.00" xmlns="http://www.w3.org/2000/svg" xmlns:xlink="http://www.w3.org/1999/xlink">
<g id="graph0" class="graph" transform="scale(1 1) rotate(0) translate(4 73)">
<title>cellsociety_team05.SceneUpdater.newParams</title>
<polygon fill="white" stroke="none" points="-4,4 -4,-73 1570,-73 1570,4 -4,4"/>
<!-- Node1 -->
<g id="node1" class="node"><title>Node1</title>
<polygon fill="#bfbfbf" stroke="black" points="0,-17 0,-47 142,-47 142,-17 0,-17"/>
<text text-anchor="start" x="8" y="-35" font-family="Helvetica,sans-Serif" font-size="10.00">cellsociety_team05.Scene</text>
<text text-anchor="middle" x="71" y="-24" font-family="Helvetica,sans-Serif" font-size="10.00">Updater.newParams</text>
</g>
<!-- Node2 -->
<g id="node2" class="node"><title>Node2</title>
<g id="a_node2"><a xlink:href="../../d6/da5/classcellsociety__team05_1_1_master.html#aef1f14e30284edb3e1f8c0c5636de390" target="_top" xlink:title="cellsociety_team05.Master.evolve">
<polygon fill="white" stroke="black" points="178,-22.5 178,-41.5 356,-41.5 356,-22.5 178,-22.5"/>
<text text-anchor="middle" x="267" y="-29.5" font-family="Helvetica,sans-Serif" font-size="10.00">cellsociety_team05.Master.evolve</text>
</a>
</g>
</g>
<!-- Node1&#45;&gt;Node2 -->
<g id="edge1" class="edge"><title>Node1&#45;&gt;Node2</title>
<path fill="none" stroke="midnightblue" d="M152.232,-32C160.674,-32 169.291,-32 177.817,-32"/>
<polygon fill="midnightblue" stroke="midnightblue" points="152.038,-28.5001 142.038,-32 152.038,-35.5001 152.038,-28.5001"/>
</g>
<!-- Node3 -->
<g id="node3" class="node"><title>Node3</title>
<g id="a_node3"><a xlink:href="../../d6/da5/classcellsociety__team05_1_1_master.html#a9e0818f6e4d1389a401b337b2c5c9f81" target="_top" xlink:title="cellsociety_team05.Master.add\lKeyFrame">
<polygon fill="white" stroke="black" points="392.5,-17 392.5,-47 557.5,-47 557.5,-17 392.5,-17"/>
<text text-anchor="start" x="400.5" y="-35" font-family="Helvetica,sans-Serif" font-size="10.00">cellsociety_team05.Master.add</text>
<text text-anchor="middle" x="475" y="-24" font-family="Helvetica,sans-Serif" font-size="10.00">KeyFrame</text>
</a>
</g>
</g>
<!-- Node2&#45;&gt;Node3 -->
<g id="edge2" class="edge"><title>Node2&#45;&gt;Node3</title>
<path fill="none" stroke="midnightblue" d="M366.444,-32C375.15,-32 383.9,-32 392.444,-32"/>
<polygon fill="midnightblue" stroke="midnightblue" points="366.259,-28.5001 356.259,-32 366.259,-35.5001 366.259,-28.5001"/>
</g>
<!-- Node4 -->
<g id="node4" class="node"><title>Node4</title>
<g id="a_node4"><a xlink:href="../../d6/da5/classcellsociety__team05_1_1_master.html#ac07c303c9783fa437ccf0c702effcffd" target="_top" xlink:title="cellsociety_team05.Master.play">
<polygon fill="white" stroke="black" points="594.5,-22.5 594.5,-41.5 761.5,-41.5 761.5,-22.5 594.5,-22.5"/>
<text text-anchor="middle" x="678" y="-29.5" font-family="Helvetica,sans-Serif" font-size="10.00">cellsociety_team05.Master.play</text>
</a>
</g>
</g>
<!-- Node3&#45;&gt;Node4 -->
<g id="edge3" class="edge"><title>Node3&#45;&gt;Node4</title>
<path fill="none" stroke="midnightblue" d="M568.006,-32C576.787,-32 585.655,-32 594.339,-32"/>
<polygon fill="midnightblue" stroke="midnightblue" points="567.754,-28.5001 557.754,-32 567.754,-35.5001 567.754,-28.5001"/>
</g>
<!-- Node5 -->
<g id="node5" class="node"><title>Node5</title>
<g id="a_node5"><a xlink:href="../../d6/da5/classcellsociety__team05_1_1_master.html#ac10570db09b5b348c023bbd5e1df801b" target="_top" xlink:title="cellsociety_team05.Master.init">
<polygon fill="white" stroke="black" points="798.5,-22.5 798.5,-41.5 959.5,-41.5 959.5,-22.5 798.5,-22.5"/>
<text text-anchor="middle" x="879" y="-29.5" font-family="Helvetica,sans-Serif" font-size="10.00">cellsociety_team05.Master.init</text>
</a>
</g>
</g>
<!-- Node4&#45;&gt;Node5 -->
<g id="edge4" class="edge"><title>Node4&#45;&gt;Node5</title>
<path fill="none" stroke="midnightblue" d="M771.714,-32C780.655,-32 789.67,-32 798.467,-32"/>
<polygon fill="midnightblue" stroke="midnightblue" points="771.665,-28.5001 761.665,-32 771.665,-35.5001 771.665,-28.5001"/>
</g>
<!-- Node6 -->
<g id="node6" class="node"><title>Node6</title>
<g id="a_node6"><a xlink:href="../../d2/d60/classanimation_1_1_g_u_i_creator.html#a61c68b3e24b62788dab86e5240991107" target="_top" xlink:title="animation.GUICreator.load\lAction">
<polygon fill="white" stroke="black" points="1004.5,-39 1004.5,-69 1147.5,-69 1147.5,-39 1004.5,-39"/>
<text text-anchor="start" x="1012.5" y="-57" font-family="Helvetica,sans-Serif" font-size="10.00">animation.GUICreator.load</text>
<text text-anchor="middle" x="1076" y="-46" font-family="Helvetica,sans-Serif" font-size="10.00">Action</text>
</a>
</g>
</g>
<!-- Node5&#45;&gt;Node6 -->
<g id="edge5" class="edge"><title>Node5&#45;&gt;Node6</title>
<path fill="none" stroke="midnightblue" d="M969.759,-42.1267C981.388,-43.4386 993.164,-44.7673 1004.42,-46.0373"/>
<polygon fill="midnightblue" stroke="midnightblue" points="969.925,-38.6232 959.595,-40.98 969.14,-45.5791 969.925,-38.6232"/>
</g>
<!-- Node9 -->
<g id="node9" class="node"><title>Node9</title>
<g id="a_node9"><a xlink:href="../../de/d00/classcellsociety__team05_1_1_main.html#a7663311e53af8548f912c74dcc829624" target="_top" xlink:title="cellsociety_team05.Main.start">
<polygon fill="white" stroke="black" points="996,-0.5 996,-19.5 1156,-19.5 1156,-0.5 996,-0.5"/>
<text text-anchor="middle" x="1076" y="-7.5" font-family="Helvetica,sans-Serif" font-size="10.00">cellsociety_team05.Main.start</text>
</a>
</g>
</g>
<!-- Node5&#45;&gt;Node9 -->
<g id="edge8" class="edge"><title>Node5&#45;&gt;Node9</title>
<path fill="none" stroke="midnightblue" d="M969.797,-21.8691C978.534,-20.8833 987.355,-19.8882 995.975,-18.9157"/>
<polygon fill="midnightblue" stroke="midnightblue" points="969.14,-18.4209 959.595,-23.02 969.925,-25.3768 969.14,-18.4209"/>
</g>
<!-- Node7 -->
<g id="node7" class="node"><title>Node7</title>
<g id="a_node7"><a xlink:href="../../d2/d60/classanimation_1_1_g_u_i_creator.html#ac4c8bd0d5bc08d30393866736d995aa5" target="_top" xlink:title="animation.GUICreator.addload\lXMLButton">
<polygon fill="white" stroke="black" points="1192.5,-39 1192.5,-69 1353.5,-69 1353.5,-39 1192.5,-39"/>
<text text-anchor="start" x="1200.5" y="-57" font-family="Helvetica,sans-Serif" font-size="10.00">animation.GUICreator.addload</text>
<text text-anchor="middle" x="1273" y="-46" font-family="Helvetica,sans-Serif" font-size="10.00">XMLButton</text>
</a>
</g>
</g>
<!-- Node6&#45;&gt;Node7 -->
<g id="edge6" class="edge"><title>Node6&#45;&gt;Node7</title>
<path fill="none" stroke="midnightblue" d="M1157.99,-54C1169.34,-54 1180.99,-54 1192.31,-54"/>
<polygon fill="midnightblue" stroke="midnightblue" points="1157.68,-50.5001 1147.68,-54 1157.68,-57.5001 1157.68,-50.5001"/>
</g>
<!-- Node8 -->
<g id="node8" class="node"><title>Node8</title>
<g id="a_node8"><a xlink:href="../../d2/d60/classanimation_1_1_g_u_i_creator.html#a9a94a22da284976e0a39d9b58e6646ae" target="_top" xlink:title="animation.GUICreator.GUICreator">
<polygon fill="white" stroke="black" points="1390,-44.5 1390,-63.5 1566,-63.5 1566,-44.5 1390,-44.5"/>
<text text-anchor="middle" x="1478" y="-51.5" font-family="Helvetica,sans-Serif" font-size="10.00">animation.GUICreator.GUICreator</text>
</a>
</g>
</g>
<!-- Node7&#45;&gt;Node8 -->
<g id="edge7" class="edge"><title>Node7&#45;&gt;Node8</title>
<path fill="none" stroke="midnightblue" d="M1363.76,-54C1372.43,-54 1381.22,-54 1389.87,-54"/>
<polygon fill="midnightblue" stroke="midnightblue" points="1363.65,-50.5001 1353.65,-54 1363.65,-57.5001 1363.65,-50.5001"/>
</g>
</g>
</svg>
