<?xml version="1.0" encoding="UTF-8" standalone="no"?>
<!DOCTYPE svg PUBLIC "-//W3C//DTD SVG 1.1//EN"
 "http://www.w3.org/Graphics/SVG/1.1/DTD/svg11.dtd">
<!-- Generated by graphviz version 2.36.0 (20140111.2315)
 -->
<!-- Title: cellsociety_team05.SceneUpdater.updateScene Pages: 1 -->
<!--zoomable 386 -->
<svg id="main" version="1.1" xmlns="http://www.w3.org/2000/svg" xmlns:xlink="http://www.w3.org/1999/xlink" xml:space="preserve" onload="init(evt)">
<style type="text/css"><![CDATA[
.edge:hover path { stroke: red; }
.edge:hover polygon { stroke: red; fill: red; }
]]></style>
<script type="text/javascript"><![CDATA[
var edges = document.getElementsByTagName('g');
if (edges && edges.length) {
  for (var i=0;i<edges.length;i++) {
    if (edges[i].id.substr(0,4)=='edge') {
      edges[i].setAttribute('class','edge');
    }
  }
}
]]></script>
        <defs>
                <circle id="rim" cx="0" cy="0" r="7"/>
                <circle id="rim2" cx="0" cy="0" r="3.5"/>
                <g id="zoomPlus">
                        <use xlink:href="#rim" fill="#404040">
                                <set attributeName="fill" to="#808080" begin="zoomplus.mouseover" end="zoomplus.mouseout"/>
                        </use>
                        <path d="M-4,0h8M0,-4v8" fill="none" stroke="white" stroke-width="1.5" pointer-events="none"/>
                </g>
                <g id="zoomMin">
                        <use xlink:href="#rim" fill="#404040">
                                <set attributeName="fill" to="#808080" begin="zoomminus.mouseover" end="zoomminus.mouseout"/>
                        </use>
                        <path d="M-4,0h8" fill="none" stroke="white" stroke-width="1.5" pointer-events="none"/>
                </g>
                <g id="dirArrow">
                        <path fill="none" stroke="white" stroke-width="1.5" d="M0,-3.0v7 M-2.5,-0.5L0,-3.0L2.5,-0.5"/>
                </g>
               <g id="resetDef">
                       <use xlink:href="#rim2" fill="#404040">
                               <set attributeName="fill" to="#808080" begin="reset.mouseover" end="reset.mouseout"/>
                       </use>
               </g>
        </defs>

<script type="text/javascript">
var viewWidth = 734;
var viewHeight = 386;
var sectionId = 'dynsection-7';
</script>
<script xlink:href="../../svgpan.js"/>
<svg id="graph" class="graph">
<g id="viewport">
<title>cellsociety_team05.SceneUpdater.updateScene</title>
<polygon fill="white" stroke="none" points="-4,4 -4,-382 730,-382 730,4 -4,4"/>
<!-- Node1 -->
<g id="node1" class="node"><title>Node1</title>
<polygon fill="#bfbfbf" stroke="black" points="0,-177 0,-207 142,-207 142,-177 0,-177"/>
<text text-anchor="start" x="8" y="-195" font-family="Helvetica,sans-Serif" font-size="10.00">cellsociety_team05.Scene</text>
<text text-anchor="middle" x="71" y="-184" font-family="Helvetica,sans-Serif" font-size="10.00">Updater.updateScene</text>
</g>
<!-- Node2 -->
<g id="node2" class="node"><title>Node2</title>
<g id="a_node2"><a xlink:href="../../d3/d55/classsimulations_1_1_wator.html#acfdaa850faa0a0953a41154de03bdb04" target="_top" xlink:title="simulations.Wator.cellNextGen">
<polygon fill="white" stroke="black" points="181.5,-315.5 181.5,-334.5 342.5,-334.5 342.5,-315.5 181.5,-315.5"/>
<text text-anchor="middle" x="262" y="-322.5" font-family="Helvetica,sans-Serif" font-size="10.00">simulations.Wator.cellNextGen</text>
</a>
</g>
</g>
<!-- Node1&#45;&gt;Node2 -->
<g id="edge1" class="edge"><title>Node1&#45;&gt;Node2</title>
<path fill="none" stroke="midnightblue" d="M87.5571,-215.867C105.957,-242.11 139.054,-283.525 178,-306 184.786,-309.916 192.319,-313.025 200,-315.493"/>
<polygon fill="midnightblue" stroke="midnightblue" points="90.2123,-213.55 81.6763,-207.274 84.4354,-217.503 90.2123,-213.55"/>
</g>
<!-- Node3 -->
<g id="node3" class="node"><title>Node3</title>
<g id="a_node3"><a xlink:href="../../d3/d55/classsimulations_1_1_wator.html#a4d9e261b6fe7133fe9833238370173ba" target="_top" xlink:title="simulations.Wator.update\lShark">
<polygon fill="white" stroke="black" points="394.5,-348 394.5,-378 531.5,-378 531.5,-348 394.5,-348"/>
<text text-anchor="start" x="402.5" y="-366" font-family="Helvetica,sans-Serif" font-size="10.00">simulations.Wator.update</text>
<text text-anchor="middle" x="463" y="-355" font-family="Helvetica,sans-Serif" font-size="10.00">Shark</text>
</a>
</g>
</g>
<!-- Node1&#45;&gt;Node3 -->
<g id="edge18" class="edge"><title>Node1&#45;&gt;Node3</title>
<path fill="none" stroke="midnightblue" d="M81.0983,-216.579C95.585,-251.79 127.523,-315.478 178,-344 244.255,-381.437 333.57,-380.708 394.225,-374.184"/>
<polygon fill="midnightblue" stroke="midnightblue" points="84.2575,-215.051 77.3174,-207.046 77.7506,-217.632 84.2575,-215.051"/>
</g>
<!-- Node6 -->
<g id="node6" class="node"><title>Node6</title>
<g id="a_node6"><a xlink:href="../../d7/da3/classsimulations_1_1_fire.html#aa9dab50c3701daab0ca3e44f2216c69c" target="_top" xlink:title="simulations.Fire.checkFire">
<polygon fill="white" stroke="black" points="193,-277.5 193,-296.5 331,-296.5 331,-277.5 193,-277.5"/>
<text text-anchor="middle" x="262" y="-284.5" font-family="Helvetica,sans-Serif" font-size="10.00">simulations.Fire.checkFire</text>
</a>
</g>
</g>
<!-- Node1&#45;&gt;Node6 -->
<g id="edge6" class="edge"><title>Node1&#45;&gt;Node6</title>
<path fill="none" stroke="midnightblue" d="M96.5089,-213.932C116.936,-231.085 147.519,-254.259 178,-268 186.49,-271.827 195.828,-274.922 205.083,-277.412"/>
<polygon fill="midnightblue" stroke="midnightblue" points="98.5445,-211.067 88.6709,-207.225 93.9934,-216.386 98.5445,-211.067"/>
</g>
<!-- Node7 -->
<g id="node7" class="node"><title>Node7</title>
<g id="a_node7"><a xlink:href="../../d7/da3/classsimulations_1_1_fire.html#ad27ddff9517302f372b3c3a587cf796d" target="_top" xlink:title="simulations.Fire.checkTorroFire">
<polygon fill="white" stroke="black" points="181.5,-239.5 181.5,-258.5 342.5,-258.5 342.5,-239.5 181.5,-239.5"/>
<text text-anchor="middle" x="262" y="-246.5" font-family="Helvetica,sans-Serif" font-size="10.00">simulations.Fire.checkTorroFire</text>
</a>
</g>
</g>
<!-- Node1&#45;&gt;Node7 -->
<g id="edge7" class="edge"><title>Node1&#45;&gt;Node7</title>
<path fill="none" stroke="midnightblue" d="M129.307,-210.074C145.068,-214.982 162.178,-220.25 178,-225 194.234,-229.874 212.308,-235.121 227.435,-239.462"/>
<polygon fill="midnightblue" stroke="midnightblue" points="130.279,-206.711 119.691,-207.073 128.194,-213.394 130.279,-206.711"/>
</g>
<!-- Node9 -->
<g id="node9" class="node"><title>Node9</title>
<g id="a_node9"><a xlink:href="../../d7/d0c/classsimulations_1_1_sugar.html#a143ed823e6c8d400f9a1da80dff0bddc" target="_top" xlink:title="simulations.Sugar.growSugar">
<polygon fill="white" stroke="black" points="385,-201.5 385,-220.5 541,-220.5 541,-201.5 385,-201.5"/>
<text text-anchor="middle" x="463" y="-208.5" font-family="Helvetica,sans-Serif" font-size="10.00">simulations.Sugar.growSugar</text>
</a>
</g>
</g>
<!-- Node1&#45;&gt;Node9 -->
<g id="edge9" class="edge"><title>Node1&#45;&gt;Node9</title>
<path fill="none" stroke="midnightblue" d="M152.426,-195.918C220.524,-199.236 317.51,-203.961 384.703,-207.234"/>
<polygon fill="midnightblue" stroke="midnightblue" points="152.333,-192.41 142.175,-195.419 151.992,-199.401 152.333,-192.41"/>
</g>
<!-- Node11 -->
<g id="node11" class="node"><title>Node11</title>
<g id="a_node11"><a xlink:href="../../da/d7a/classsimulations_1_1_forage.html#a91ba1a576c24aeb6466b9c45769630ec" target="_top" xlink:title="simulations.Forage.moveAnt">
<polygon fill="white" stroke="black" points="185,-163.5 185,-182.5 339,-182.5 339,-163.5 185,-163.5"/>
<text text-anchor="middle" x="262" y="-170.5" font-family="Helvetica,sans-Serif" font-size="10.00">simulations.Forage.moveAnt</text>
</a>
</g>
</g>
<!-- Node1&#45;&gt;Node11 -->
<g id="edge11" class="edge"><title>Node1&#45;&gt;Node11</title>
<path fill="none" stroke="midnightblue" d="M152.375,-183.92C163.184,-182.833 174.245,-181.721 184.976,-180.643"/>
<polygon fill="midnightblue" stroke="midnightblue" points="151.708,-180.469 142.108,-184.952 152.408,-187.434 151.708,-180.469"/>
</g>
<!-- Node13 -->
<g id="node13" class="node"><title>Node13</title>
<g id="a_node13"><a xlink:href="../../d1/d4c/classsimulations_1_1_life.html#af023a17455df6d032cdc3acb557f2f33" target="_top" xlink:title="simulations.Life.nextGen">
<polygon fill="white" stroke="black" points="195,-125.5 195,-144.5 329,-144.5 329,-125.5 195,-125.5"/>
<text text-anchor="middle" x="262" y="-132.5" font-family="Helvetica,sans-Serif" font-size="10.00">simulations.Life.nextGen</text>
</a>
</g>
</g>
<!-- Node1&#45;&gt;Node13 -->
<g id="edge13" class="edge"><title>Node1&#45;&gt;Node13</title>
<path fill="none" stroke="midnightblue" d="M120.1,-173.388C138.108,-166.782 158.844,-159.604 178,-154 189.776,-150.555 202.64,-147.346 214.65,-144.583"/>
<polygon fill="midnightblue" stroke="midnightblue" points="118.561,-170.225 110.403,-176.984 120.996,-176.788 118.561,-170.225"/>
</g>
<!-- Node14 -->
<g id="node14" class="node"><title>Node14</title>
<g id="a_node14"><a xlink:href="../../dc/d9d/classsimulations_1_1_slime_mold.html#a4cf08e9b64271d89ce0b50375bf1e1c6" target="_top" xlink:title="simulations.SlimeMold.nextGen">
<polygon fill="white" stroke="black" points="178.5,-87.5 178.5,-106.5 345.5,-106.5 345.5,-87.5 178.5,-87.5"/>
<text text-anchor="middle" x="262" y="-94.5" font-family="Helvetica,sans-Serif" font-size="10.00">simulations.SlimeMold.nextGen</text>
</a>
</g>
</g>
<!-- Node1&#45;&gt;Node14 -->
<g id="edge14" class="edge"><title>Node1&#45;&gt;Node14</title>
<path fill="none" stroke="midnightblue" d="M96.5089,-170.068C116.936,-152.915 147.519,-129.741 178,-116 186.49,-112.173 195.828,-109.078 205.083,-106.588"/>
<polygon fill="midnightblue" stroke="midnightblue" points="93.9934,-167.614 88.6709,-176.775 98.5445,-172.933 93.9934,-167.614"/>
</g>
<!-- Node15 -->
<g id="node15" class="node"><title>Node15</title>
<g id="a_node15"><a xlink:href="../../d7/d0c/classsimulations_1_1_sugar.html#a2e18269db2d46ed65c7624ac1d35d195" target="_top" xlink:title="simulations.Sugar.updateHash">
<polygon fill="white" stroke="black" points="180,-49.5 180,-68.5 344,-68.5 344,-49.5 180,-49.5"/>
<text text-anchor="middle" x="262" y="-56.5" font-family="Helvetica,sans-Serif" font-size="10.00">simulations.Sugar.updateHash</text>
</a>
</g>
</g>
<!-- Node1&#45;&gt;Node15 -->
<g id="edge15" class="edge"><title>Node1&#45;&gt;Node15</title>
<path fill="none" stroke="midnightblue" d="M87.5571,-168.133C105.957,-141.89 139.054,-100.475 178,-78 184.786,-74.0841 192.319,-70.9752 200,-68.507"/>
<polygon fill="midnightblue" stroke="midnightblue" points="84.4354,-166.497 81.6763,-176.726 90.2123,-170.45 84.4354,-166.497"/>
</g>
<!-- Node17 -->
<g id="node17" class="node"><title>Node17</title>
<g id="a_node17"><a xlink:href="../../d4/d71/classsimulations_1_1_schelling.html#a5c4ce8d0c6ce7bb0926e9ed32b683464" target="_top" xlink:title="simulations.Schelling.update\lState">
<polygon fill="white" stroke="black" points="185,-0 185,-30 339,-30 339,-0 185,-0"/>
<text text-anchor="start" x="193" y="-18" font-family="Helvetica,sans-Serif" font-size="10.00">simulations.Schelling.update</text>
<text text-anchor="middle" x="262" y="-7" font-family="Helvetica,sans-Serif" font-size="10.00">State</text>
</a>
</g>
</g>
<!-- Node1&#45;&gt;Node17 -->
<g id="edge19" class="edge"><title>Node1&#45;&gt;Node17</title>
<path fill="none" stroke="midnightblue" d="M82.5072,-167.848C98.3531,-134.231 131.531,-73.6821 178,-40 183.361,-36.1139 189.332,-32.8251 195.543,-30.0431"/>
<polygon fill="midnightblue" stroke="midnightblue" points="79.3137,-166.415 78.3251,-176.964 85.6761,-169.334 79.3137,-166.415"/>
</g>
<!-- Node2&#45;&gt;Node3 -->
<g id="edge2" class="edge"><title>Node2&#45;&gt;Node3</title>
<path fill="none" stroke="midnightblue" d="M323.043,-336.466C345.527,-340.759 371.219,-345.665 394.345,-350.081"/>
<polygon fill="midnightblue" stroke="midnightblue" points="323.438,-332.978 312.959,-334.54 322.125,-339.854 323.438,-332.978"/>
</g>
<!-- Node5 -->
<g id="node5" class="node"><title>Node5</title>
<g id="a_node5"><a xlink:href="../../d3/d55/classsimulations_1_1_wator.html#aff30f2d7c64fbc6c278a4613f0f43e4f" target="_top" xlink:title="simulations.Wator.updateFish">
<polygon fill="white" stroke="black" points="385.5,-309.5 385.5,-328.5 540.5,-328.5 540.5,-309.5 385.5,-309.5"/>
<text text-anchor="middle" x="463" y="-316.5" font-family="Helvetica,sans-Serif" font-size="10.00">simulations.Wator.updateFish</text>
</a>
</g>
</g>
<!-- Node2&#45;&gt;Node5 -->
<g id="edge4" class="edge"><title>Node2&#45;&gt;Node5</title>
<path fill="none" stroke="midnightblue" d="M352.815,-322.292C363.631,-321.966 374.602,-321.635 385.209,-321.315"/>
<polygon fill="midnightblue" stroke="midnightblue" points="352.398,-318.803 342.508,-322.603 352.609,-325.8 352.398,-318.803"/>
</g>
<!-- Node4 -->
<g id="node4" class="node"><title>Node4</title>
<g id="a_node4"><a xlink:href="../../d3/d55/classsimulations_1_1_wator.html#ae6531260f046fa980999a599be53532a" target="_top" xlink:title="simulations.Wator.nextGen">
<polygon fill="white" stroke="black" points="581,-331.5 581,-350.5 725,-350.5 725,-331.5 581,-331.5"/>
<text text-anchor="middle" x="653" y="-338.5" font-family="Helvetica,sans-Serif" font-size="10.00">simulations.Wator.nextGen</text>
</a>
</g>
</g>
<!-- Node3&#45;&gt;Node4 -->
<g id="edge3" class="edge"><title>Node3&#45;&gt;Node4</title>
<path fill="none" stroke="midnightblue" d="M541.861,-353.889C554.784,-352.376 568.126,-350.815 580.871,-349.324"/>
<polygon fill="midnightblue" stroke="midnightblue" points="541.132,-350.45 531.607,-355.089 541.946,-357.402 541.132,-350.45"/>
</g>
<!-- Node5&#45;&gt;Node4 -->
<g id="edge5" class="edge"><title>Node5&#45;&gt;Node4</title>
<path fill="none" stroke="midnightblue" d="M550.786,-329.156C560.888,-330.338 571.102,-331.533 580.957,-332.686"/>
<polygon fill="midnightblue" stroke="midnightblue" points="551.077,-325.666 540.738,-327.98 550.263,-332.619 551.077,-325.666"/>
</g>
<!-- Node8 -->
<g id="node8" class="node"><title>Node8</title>
<g id="a_node8"><a xlink:href="../../d7/da3/classsimulations_1_1_fire.html#aaa551ede57a5d1978c90879551f65e43" target="_top" xlink:title="simulations.Fire.nextGen">
<polygon fill="white" stroke="black" points="396,-239.5 396,-258.5 530,-258.5 530,-239.5 396,-239.5"/>
<text text-anchor="middle" x="463" y="-246.5" font-family="Helvetica,sans-Serif" font-size="10.00">simulations.Fire.nextGen</text>
</a>
</g>
</g>
<!-- Node7&#45;&gt;Node8 -->
<g id="edge8" class="edge"><title>Node7&#45;&gt;Node8</title>
<path fill="none" stroke="midnightblue" d="M352.511,-249C367.048,-249 381.873,-249 395.727,-249"/>
<polygon fill="midnightblue" stroke="midnightblue" points="352.508,-245.5 342.508,-249 352.508,-252.5 352.508,-245.5"/>
</g>
<!-- Node10 -->
<g id="node10" class="node"><title>Node10</title>
<g id="a_node10"><a xlink:href="../../d7/d0c/classsimulations_1_1_sugar.html#ad4fb26c7153efcfd9f960b745512687f" target="_top" xlink:title="simulations.Sugar.nextGen">
<polygon fill="white" stroke="black" points="580,-143.5 580,-162.5 726,-162.5 726,-143.5 580,-143.5"/>
<text text-anchor="middle" x="653" y="-150.5" font-family="Helvetica,sans-Serif" font-size="10.00">simulations.Sugar.nextGen</text>
</a>
</g>
</g>
<!-- Node9&#45;&gt;Node10 -->
<g id="edge10" class="edge"><title>Node9&#45;&gt;Node10</title>
<path fill="none" stroke="midnightblue" d="M517.999,-199.058C526.736,-196.873 535.651,-194.49 544,-192 573.228,-183.282 606.096,-171.055 627.814,-162.626"/>
<polygon fill="midnightblue" stroke="midnightblue" points="517.137,-195.666 508.251,-201.436 518.796,-202.466 517.137,-195.666"/>
</g>
<!-- Node12 -->
<g id="node12" class="node"><title>Node12</title>
<g id="a_node12"><a xlink:href="../../da/d7a/classsimulations_1_1_forage.html#adae17e0a4217696191ba95b430ab4c81" target="_top" xlink:title="simulations.Forage.nextGen">
<polygon fill="white" stroke="black" points="387.5,-163.5 387.5,-182.5 538.5,-182.5 538.5,-163.5 387.5,-163.5"/>
<text text-anchor="middle" x="463" y="-170.5" font-family="Helvetica,sans-Serif" font-size="10.00">simulations.Forage.nextGen</text>
</a>
</g>
</g>
<!-- Node11&#45;&gt;Node12 -->
<g id="edge12" class="edge"><title>Node11&#45;&gt;Node12</title>
<path fill="none" stroke="midnightblue" d="M349.179,-173C361.864,-173 374.843,-173 387.272,-173"/>
<polygon fill="midnightblue" stroke="midnightblue" points="349.085,-169.5 339.085,-173 349.085,-176.5 349.085,-169.5"/>
</g>
<!-- Node16 -->
<g id="node16" class="node"><title>Node16</title>
<g id="a_node16"><a xlink:href="../../d7/d0c/classsimulations_1_1_sugar.html#ae28e368a8530f222d34a6ee29b55fb16" target="_top" xlink:title="simulations.Sugar.update\lAgent">
<polygon fill="white" stroke="black" points="393.5,-79 393.5,-109 532.5,-109 532.5,-79 393.5,-79"/>
<text text-anchor="start" x="401.5" y="-97" font-family="Helvetica,sans-Serif" font-size="10.00">simulations.Sugar.update</text>
<text text-anchor="middle" x="463" y="-86" font-family="Helvetica,sans-Serif" font-size="10.00">Agent</text>
</a>
</g>
</g>
<!-- Node15&#45;&gt;Node16 -->
<g id="edge16" class="edge"><title>Node15&#45;&gt;Node16</title>
<path fill="none" stroke="midnightblue" d="M326.967,-70.2505C348.134,-73.9733 371.77,-78.1304 393.278,-81.9133"/>
<polygon fill="midnightblue" stroke="midnightblue" points="327.57,-66.8029 317.115,-68.5177 326.357,-73.6971 327.57,-66.8029"/>
</g>
<!-- Node16&#45;&gt;Node10 -->
<g id="edge17" class="edge"><title>Node16&#45;&gt;Node10</title>
<path fill="none" stroke="midnightblue" d="M521.469,-112.035C554.457,-122.388 594.553,-134.971 621.529,-143.437"/>
<polygon fill="midnightblue" stroke="midnightblue" points="522.516,-108.696 511.927,-109.041 520.42,-115.375 522.516,-108.696"/>
</g>
<!-- Node18 -->
<g id="node18" class="node"><title>Node18</title>
<g id="a_node18"><a xlink:href="../../d4/d71/classsimulations_1_1_schelling.html#aaf5e92d9a18f4d6b6991bfb11d1fe922" target="_top" xlink:title="simulations.Schelling.nextGen">
<polygon fill="white" stroke="black" points="382.5,-5.5 382.5,-24.5 543.5,-24.5 543.5,-5.5 382.5,-5.5"/>
<text text-anchor="middle" x="463" y="-12.5" font-family="Helvetica,sans-Serif" font-size="10.00">simulations.Schelling.nextGen</text>
</a>
</g>
</g>
<!-- Node17&#45;&gt;Node18 -->
<g id="edge20" class="edge"><title>Node17&#45;&gt;Node18</title>
<path fill="none" stroke="midnightblue" d="M349.132,-15C360.157,-15 371.406,-15 382.323,-15"/>
<polygon fill="midnightblue" stroke="midnightblue" points="349.085,-11.5001 339.085,-15 349.085,-18.5001 349.085,-11.5001"/>
</g>
</g>
</svg>
        <g id="navigator" transform="translate(0 0)" fill="#404254">
                <rect fill="#f2f5e9" fill-opacity="0.5" stroke="#606060" stroke-width=".5" x="0" y="0" width="60" height="60"/>
                <use id="zoomplus" xlink:href="#zoomPlus" x="17" y="9" onmousedown="handleZoom(evt,'in')"/>
                <use id="zoomminus" xlink:href="#zoomMin" x="42" y="9" onmousedown="handleZoom(evt,'out')"/>
                <use id="reset" xlink:href="#resetDef" x="30" y="36" onmousedown="handleReset()"/>
                <g id="arrowUp" xlink:href="#dirArrow" transform="translate(30 24)" onmousedown="handlePan(0,-1)">
                  <use xlink:href="#rim" fill="#404040">
                        <set attributeName="fill" to="#808080" begin="arrowUp.mouseover" end="arrowUp.mouseout"/>
                  </use>
                  <path fill="none" stroke="white" stroke-width="1.5" d="M0,-3.0v7 M-2.5,-0.5L0,-3.0L2.5,-0.5"/>
                </g>
                <g id="arrowRight" xlink:href="#dirArrow" transform="rotate(90) translate(36 -43)" onmousedown="handlePan(1,0)">
                  <use xlink:href="#rim" fill="#404040">
                        <set attributeName="fill" to="#808080" begin="arrowRight.mouseover" end="arrowRight.mouseout"/>
                  </use>
                  <path fill="none" stroke="white" stroke-width="1.5" d="M0,-3.0v7 M-2.5,-0.5L0,-3.0L2.5,-0.5"/>
                </g>
                <g id="arrowDown" xlink:href="#dirArrow" transform="rotate(180) translate(-30 -48)" onmousedown="handlePan(0,1)">
                  <use xlink:href="#rim" fill="#404040">
                        <set attributeName="fill" to="#808080" begin="arrowDown.mouseover" end="arrowDown.mouseout"/>
                  </use>
                  <path fill="none" stroke="white" stroke-width="1.5" d="M0,-3.0v7 M-2.5,-0.5L0,-3.0L2.5,-0.5"/>
                </g>
                <g id="arrowLeft" xlink:href="#dirArrow" transform="rotate(270) translate(-36 17)" onmousedown="handlePan(-1,0)">
                  <use xlink:href="#rim" fill="#404040">
                        <set attributeName="fill" to="#808080" begin="arrowLeft.mouseover" end="arrowLeft.mouseout"/>
                  </use>
                  <path fill="none" stroke="white" stroke-width="1.5" d="M0,-3.0v7 M-2.5,-0.5L0,-3.0L2.5,-0.5"/>
                </g>
        </g>
        <svg viewBox="0 0 15 15" width="100%" height="30px" preserveAspectRatio="xMaxYMin meet">
         <g id="arrow_out" transform="scale(0.3 0.3)">
          <a xlink:href="classcellsociety__team05_1_1_scene_updater_a5b755feda214274401674bc34e08d9d2_icgraph_org.svg" target="_base">
           <rect id="button" ry="5" rx="5" y="6" x="6" height="38" width="38"
                fill="#f2f5e9" fill-opacity="0.5" stroke="#606060" stroke-width="1.0"/>
           <path id="arrow"
             d="M 11.500037,31.436501 C 11.940474,20.09759 22.043105,11.32322 32.158766,21.979434 L 37.068811,17.246167 C 37.068811,17.246167 37.088388,32 37.088388,32 L 22.160133,31.978069 C 22.160133,31.978069 26.997745,27.140456 26.997745,27.140456 C 18.528582,18.264221 13.291696,25.230495 11.500037,31.436501 z"
             style="fill:#404040;"/>
          </a>
         </g>
        </svg>
</svg>
