<?xml version="1.0" encoding="UTF-8" standalone="no"?>
<!DOCTYPE svg PUBLIC "-//W3C//DTD SVG 1.1//EN"
 "http://www.w3.org/Graphics/SVG/1.1/DTD/svg11.dtd">
<!-- Generated by graphviz version 2.36.0 (20140111.2315)
 -->
<!-- Title: simulations.Wator Pages: 1 -->
<svg width="362pt" height="176pt"
 viewBox="0.00 0.00 362.00 176.00" xmlns="http://www.w3.org/2000/svg" xmlns:xlink="http://www.w3.org/1999/xlink">
<g id="graph0" class="graph" transform="scale(1 1) rotate(0) translate(4 172)">
<title>simulations.Wator</title>
<polygon fill="white" stroke="none" points="-4,4 -4,-172 358,-172 358,4 -4,4"/>
<!-- Node1 -->
<g id="node1" class="node"><title>Node1</title>
<polygon fill="#bfbfbf" stroke="black" points="199.5,-0.5 199.5,-19.5 300.5,-19.5 300.5,-0.5 199.5,-0.5"/>
<text text-anchor="middle" x="250" y="-7.5" font-family="Helvetica,sans-Serif" font-size="10.00">simulations.Wator</text>
</g>
<!-- Node2 -->
<g id="node2" class="node"><title>Node2</title>
<g id="a_node2"><a xlink:href="../../d9/d7b/classsimulations_1_1_sim.html" target="_top" xlink:title="simulations.Sim">
<polygon fill="white" stroke="black" points="102.5,-74.5 102.5,-93.5 195.5,-93.5 195.5,-74.5 102.5,-74.5"/>
<text text-anchor="middle" x="149" y="-81.5" font-family="Helvetica,sans-Serif" font-size="10.00">simulations.Sim</text>
</a>
</g>
</g>
<!-- Node2&#45;&gt;Node1 -->
<g id="edge1" class="edge"><title>Node2&#45;&gt;Node1</title>
<path fill="none" stroke="midnightblue" d="M169.354,-68.4903C189.954,-53.8054 221.109,-31.5955 238.033,-19.531"/>
<polygon fill="midnightblue" stroke="midnightblue" points="167.094,-65.8031 160.983,-74.4579 171.157,-71.5031 167.094,-65.8031"/>
</g>
<!-- Node3 -->
<g id="node3" class="node"><title>Node3</title>
<g id="a_node3"><a xlink:href="../../dc/d26/classutility_1_1_sim_data.html" target="_top" xlink:title="utility.SimData">
<polygon fill="white" stroke="black" points="0,-148.5 0,-167.5 86,-167.5 86,-148.5 0,-148.5"/>
<text text-anchor="middle" x="43" y="-155.5" font-family="Helvetica,sans-Serif" font-size="10.00">utility.SimData</text>
</a>
</g>
</g>
<!-- Node3&#45;&gt;Node2 -->
<g id="edge2" class="edge"><title>Node3&#45;&gt;Node2</title>
<path fill="none" stroke="#9a32cd" stroke-dasharray="5,2" d="M59.8748,-141.719C68.5738,-134.177 79.5313,-125.182 90,-118 103.452,-108.771 119.69,-99.8353 131.723,-93.5951"/>
<polygon fill="#9a32cd" stroke="#9a32cd" points="57.493,-139.153 52.3163,-148.397 62.1278,-144.398 57.493,-139.153"/>
<text text-anchor="middle" x="117.5" y="-121.5" font-family="Helvetica,sans-Serif" font-size="10.00"> gameData</text>
</g>
<!-- Node4 -->
<g id="node4" class="node"><title>Node4</title>
<polygon fill="white" stroke="#bfbfbf" points="104.5,-148.5 104.5,-167.5 193.5,-167.5 193.5,-148.5 104.5,-148.5"/>
<text text-anchor="middle" x="149" y="-155.5" font-family="Helvetica,sans-Serif" font-size="10.00">List&lt; Integer &gt;</text>
</g>
<!-- Node4&#45;&gt;Node2 -->
<g id="edge3" class="edge"><title>Node4&#45;&gt;Node2</title>
<path fill="none" stroke="#9a32cd" stroke-dasharray="5,2" d="M149,-138.156C149,-123.712 149,-104.459 149,-93.531"/>
<polygon fill="#9a32cd" stroke="#9a32cd" points="145.5,-138.458 149,-148.458 152.5,-138.458 145.5,-138.458"/>
<text text-anchor="middle" x="169" y="-121.5" font-family="Helvetica,sans-Serif" font-size="10.00"> params</text>
</g>
<!-- Node5 -->
<g id="node5" class="node"><title>Node5</title>
<polygon fill="white" stroke="#bfbfbf" points="211,-148.5 211,-167.5 267,-167.5 267,-148.5 211,-148.5"/>
<text text-anchor="middle" x="239" y="-155.5" font-family="Helvetica,sans-Serif" font-size="10.00">Random</text>
</g>
<!-- Node5&#45;&gt;Node2 -->
<g id="edge4" class="edge"><title>Node5&#45;&gt;Node2</title>
<path fill="none" stroke="#9a32cd" stroke-dasharray="5,2" d="M221.512,-141.749C213.007,-134.442 202.576,-125.639 193,-118 182.401,-109.544 170.022,-100.316 161.099,-93.7734"/>
<polygon fill="#9a32cd" stroke="#9a32cd" points="219.418,-144.565 229.271,-148.459 223.997,-139.271 219.418,-144.565"/>
<text text-anchor="middle" x="220.5" y="-121.5" font-family="Helvetica,sans-Serif" font-size="10.00"> rand</text>
</g>
<!-- Node6 -->
<g id="node6" class="node"><title>Node6</title>
<polygon fill="white" stroke="#bfbfbf" points="214,-69 214,-99 354,-99 354,-69 214,-69"/>
<text text-anchor="start" x="222" y="-87" font-family="Helvetica,sans-Serif" font-size="10.00">HashMap&lt; Integer, utility.</text>
<text text-anchor="middle" x="284" y="-76" font-family="Helvetica,sans-Serif" font-size="10.00">Fish &gt;</text>
</g>
<!-- Node6&#45;&gt;Node1 -->
<g id="edge5" class="edge"><title>Node6&#45;&gt;Node1</title>
<path fill="none" stroke="#9a32cd" stroke-dasharray="5,2" d="M272.895,-59.4835C266.473,-45.8836 258.77,-29.571 254.136,-19.7589"/>
<polygon fill="#9a32cd" stroke="#9a32cd" points="269.848,-61.2272 277.283,-68.7751 276.177,-58.2381 269.848,-61.2272"/>
<text text-anchor="middle" x="289" y="-41.5" font-family="Helvetica,sans-Serif" font-size="10.00"> fishMap</text>
</g>
</g>
</svg>
