<?xml version="1.0" encoding="UTF-8" standalone="no"?>
<!DOCTYPE svg PUBLIC "-//W3C//DTD SVG 1.1//EN"
 "http://www.w3.org/Graphics/SVG/1.1/DTD/svg11.dtd">
<!-- Generated by graphviz version 2.36.0 (20140111.2315)
 -->
<!-- Title: simulations.Wator.updateShark Pages: 1 -->
<svg width="522pt" height="53pt"
 viewBox="0.00 0.00 522.00 53.00" xmlns="http://www.w3.org/2000/svg" xmlns:xlink="http://www.w3.org/1999/xlink">
<g id="graph0" class="graph" transform="scale(1 1) rotate(0) translate(4 49)">
<title>simulations.Wator.updateShark</title>
<polygon fill="white" stroke="none" points="-4,4 -4,-49 518,-49 518,4 -4,4"/>
<!-- Node1 -->
<g id="node1" class="node"><title>Node1</title>
<polygon fill="#bfbfbf" stroke="black" points="0.5,-1 0.5,-31 137.5,-31 137.5,-1 0.5,-1"/>
<text text-anchor="start" x="8.5" y="-19" font-family="Helvetica,sans-Serif" font-size="10.00">simulations.Wator.update</text>
<text text-anchor="middle" x="69" y="-8" font-family="Helvetica,sans-Serif" font-size="10.00">Shark</text>
</g>
<!-- Node2 -->
<g id="node2" class="node"><title>Node2</title>
<g id="a_node2"><a xlink:href="../../d3/d55/classsimulations_1_1_wator.html#acfdaa850faa0a0953a41154de03bdb04" target="_top" xlink:title="simulations.Wator.cellNextGen">
<polygon fill="white" stroke="black" points="174.5,-25.5 174.5,-44.5 335.5,-44.5 335.5,-25.5 174.5,-25.5"/>
<text text-anchor="middle" x="255" y="-32.5" font-family="Helvetica,sans-Serif" font-size="10.00">simulations.Wator.cellNextGen</text>
</a>
</g>
</g>
<!-- Node1&#45;&gt;Node2 -->
<g id="edge1" class="edge"><title>Node1&#45;&gt;Node2</title>
<path fill="none" stroke="midnightblue" d="M137.731,-22.994C146.367,-23.8857 155.311,-24.8093 164.226,-25.7299"/>
<polygon fill="midnightblue" stroke="midnightblue" points="163.956,-29.2205 174.263,-26.7663 164.675,-22.2575 163.956,-29.2205"/>
</g>
<!-- Node3 -->
<g id="node3" class="node"><title>Node3</title>
<g id="a_node3"><a xlink:href="../../d9/dd0/classcellsociety__team05_1_1_scene_updater.html#a5b755feda214274401674bc34e08d9d2" target="_top" xlink:title="cellsociety_team05.Scene\lUpdater.updateScene">
<polygon fill="white" stroke="black" points="372,-1 372,-31 514,-31 514,-1 372,-1"/>
<text text-anchor="start" x="380" y="-19" font-family="Helvetica,sans-Serif" font-size="10.00">cellsociety_team05.Scene</text>
<text text-anchor="middle" x="443" y="-8" font-family="Helvetica,sans-Serif" font-size="10.00">Updater.updateScene</text>
</a>
</g>
</g>
<!-- Node1&#45;&gt;Node3 -->
<g id="edge3" class="edge"><title>Node1&#45;&gt;Node3</title>
<path fill="none" stroke="midnightblue" d="M137.798,-16C200.887,-16 294.955,-16 361.76,-16"/>
<polygon fill="midnightblue" stroke="midnightblue" points="361.825,-19.5001 371.825,-16 361.825,-12.5001 361.825,-19.5001"/>
</g>
<!-- Node2&#45;&gt;Node3 -->
<g id="edge2" class="edge"><title>Node2&#45;&gt;Node3</title>
<path fill="none" stroke="midnightblue" d="M335.69,-26.8596C344.336,-25.9764 353.139,-25.0772 361.791,-24.1934"/>
<polygon fill="midnightblue" stroke="midnightblue" points="362.268,-27.663 371.861,-23.1648 361.557,-20.6992 362.268,-27.663"/>
</g>
</g>
</svg>
