<?xml version="1.0" encoding="UTF-8" standalone="no"?>
<!DOCTYPE svg PUBLIC "-//W3C//DTD SVG 1.1//EN"
 "http://www.w3.org/Graphics/SVG/1.1/DTD/svg11.dtd">
<!-- Generated by graphviz version 2.36.0 (20140111.2315)
 -->
<!-- Title: simulations.Wator.initMap Pages: 1 -->
<svg width="672pt" height="85pt"
 viewBox="0.00 0.00 672.00 85.00" xmlns="http://www.w3.org/2000/svg" xmlns:xlink="http://www.w3.org/1999/xlink">
<g id="graph0" class="graph" transform="scale(1 1) rotate(0) translate(4 81)">
<title>simulations.Wator.initMap</title>
<polygon fill="white" stroke="none" points="-4,4 -4,-81 668,-81 668,4 -4,4"/>
<!-- Node1 -->
<g id="node1" class="node"><title>Node1</title>
<polygon fill="#bfbfbf" stroke="black" points="0,-38.5 0,-57.5 138,-57.5 138,-38.5 0,-38.5"/>
<text text-anchor="middle" x="69" y="-45.5" font-family="Helvetica,sans-Serif" font-size="10.00">simulations.Wator.initMap</text>
</g>
<!-- Node2 -->
<g id="node2" class="node"><title>Node2</title>
<g id="a_node2"><a xlink:href="../../d3/d55/classsimulations_1_1_wator.html#a28de4bcec4c5d874390ecdded58489d0" target="_top" xlink:title="simulations.Wator.createFish">
<polygon fill="white" stroke="black" points="174,-57.5 174,-76.5 326,-76.5 326,-57.5 174,-57.5"/>
<text text-anchor="middle" x="250" y="-64.5" font-family="Helvetica,sans-Serif" font-size="10.00">simulations.Wator.createFish</text>
</a>
</g>
</g>
<!-- Node1&#45;&gt;Node2 -->
<g id="edge1" class="edge"><title>Node1&#45;&gt;Node2</title>
<path fill="none" stroke="midnightblue" d="M138.183,-55.2373C146.562,-56.1267 155.206,-57.0443 163.798,-57.9562"/>
<polygon fill="midnightblue" stroke="midnightblue" points="163.526,-61.4469 173.84,-59.0221 164.265,-54.486 163.526,-61.4469"/>
</g>
<!-- Node3 -->
<g id="node3" class="node"><title>Node3</title>
<g id="a_node3"><a xlink:href="../../d9/d7b/classsimulations_1_1_sim.html#a8053def01cba47bd9c66e26745495087" target="_top" xlink:title="simulations.Sim.populate">
<polygon fill="white" stroke="black" points="181,-19.5 181,-38.5 319,-38.5 319,-19.5 181,-19.5"/>
<text text-anchor="middle" x="250" y="-26.5" font-family="Helvetica,sans-Serif" font-size="10.00">simulations.Sim.populate</text>
</a>
</g>
</g>
<!-- Node1&#45;&gt;Node3 -->
<g id="edge2" class="edge"><title>Node1&#45;&gt;Node3</title>
<path fill="none" stroke="midnightblue" d="M138.183,-40.7627C148.74,-39.6422 159.717,-38.477 170.479,-37.3347"/>
<polygon fill="midnightblue" stroke="midnightblue" points="171.136,-40.7847 180.71,-36.2486 170.397,-33.8238 171.136,-40.7847"/>
</g>
<!-- Node4 -->
<g id="node4" class="node"><title>Node4</title>
<g id="a_node4"><a xlink:href="../../d9/d7b/classsimulations_1_1_sim.html#adbed7e9c387ef5889ce9cf6c7c302ef3" target="_top" xlink:title="simulations.Sim.fillCell">
<polygon fill="white" stroke="black" points="362.5,-19.5 362.5,-38.5 485.5,-38.5 485.5,-19.5 362.5,-19.5"/>
<text text-anchor="middle" x="424" y="-26.5" font-family="Helvetica,sans-Serif" font-size="10.00">simulations.Sim.fillCell</text>
</a>
</g>
</g>
<!-- Node3&#45;&gt;Node4 -->
<g id="edge3" class="edge"><title>Node3&#45;&gt;Node4</title>
<path fill="none" stroke="midnightblue" d="M319.473,-29C330.193,-29 341.293,-29 352.066,-29"/>
<polygon fill="midnightblue" stroke="midnightblue" points="352.273,-32.5001 362.273,-29 352.273,-25.5001 352.273,-32.5001"/>
</g>
<!-- Node5 -->
<g id="node5" class="node"><title>Node5</title>
<g id="a_node5"><a xlink:href="../../d9/d7b/classsimulations_1_1_sim.html#a16809fc8db2a3e21f8169a487aeff124" target="_top" xlink:title="simulations.Sim.checkCell">
<polygon fill="white" stroke="black" points="522.5,-38.5 522.5,-57.5 663.5,-57.5 663.5,-38.5 522.5,-38.5"/>
<text text-anchor="middle" x="593" y="-45.5" font-family="Helvetica,sans-Serif" font-size="10.00">simulations.Sim.checkCell</text>
</a>
</g>
</g>
<!-- Node4&#45;&gt;Node5 -->
<g id="edge4" class="edge"><title>Node4&#45;&gt;Node5</title>
<path fill="none" stroke="midnightblue" d="M485.763,-35.9132C494.369,-36.8922 503.323,-37.911 512.221,-38.9233"/>
<polygon fill="midnightblue" stroke="midnightblue" points="511.889,-42.4081 522.221,-40.0611 512.681,-35.453 511.889,-42.4081"/>
</g>
<!-- Node6 -->
<g id="node6" class="node"><title>Node6</title>
<g id="a_node6"><a xlink:href="../../d9/d7b/classsimulations_1_1_sim.html#a4da2ab43816b7e030ba62c1a10c82cf6" target="_top" xlink:title="simulations.Sim.setCell">
<polygon fill="white" stroke="black" points="529,-0.5 529,-19.5 657,-19.5 657,-0.5 529,-0.5"/>
<text text-anchor="middle" x="593" y="-7.5" font-family="Helvetica,sans-Serif" font-size="10.00">simulations.Sim.setCell</text>
</a>
</g>
</g>
<!-- Node4&#45;&gt;Node6 -->
<g id="edge5" class="edge"><title>Node4&#45;&gt;Node6</title>
<path fill="none" stroke="midnightblue" d="M485.763,-22.0868C496.474,-20.8683 507.724,-19.5883 518.734,-18.3357"/>
<polygon fill="midnightblue" stroke="midnightblue" points="519.215,-21.8037 528.755,-17.1956 518.423,-14.8485 519.215,-21.8037"/>
</g>
</g>
</svg>
