<?xml version="1.0" encoding="UTF-8" standalone="no"?>
<!DOCTYPE svg PUBLIC "-//W3C//DTD SVG 1.1//EN"
 "http://www.w3.org/Graphics/SVG/1.1/DTD/svg11.dtd">
<!-- Generated by graphviz version 2.36.0 (20140111.2315)
 -->
<!-- Title: simulations.Wator.nextGen Pages: 1 -->
<!--zoomable 164 -->
<svg id="main" version="1.1" xmlns="http://www.w3.org/2000/svg" xmlns:xlink="http://www.w3.org/1999/xlink" xml:space="preserve" onload="init(evt)">
<style type="text/css"><![CDATA[
.edge:hover path { stroke: red; }
.edge:hover polygon { stroke: red; fill: red; }
]]></style>
<script type="text/javascript"><![CDATA[
var edges = document.getElementsByTagName('g');
if (edges && edges.length) {
  for (var i=0;i<edges.length;i++) {
    if (edges[i].id.substr(0,4)=='edge') {
      edges[i].setAttribute('class','edge');
    }
  }
}
]]></script>
        <defs>
                <circle id="rim" cx="0" cy="0" r="7"/>
                <circle id="rim2" cx="0" cy="0" r="3.5"/>
                <g id="zoomPlus">
                        <use xlink:href="#rim" fill="#404040">
                                <set attributeName="fill" to="#808080" begin="zoomplus.mouseover" end="zoomplus.mouseout"/>
                        </use>
                        <path d="M-4,0h8M0,-4v8" fill="none" stroke="white" stroke-width="1.5" pointer-events="none"/>
                </g>
                <g id="zoomMin">
                        <use xlink:href="#rim" fill="#404040">
                                <set attributeName="fill" to="#808080" begin="zoomminus.mouseover" end="zoomminus.mouseout"/>
                        </use>
                        <path d="M-4,0h8" fill="none" stroke="white" stroke-width="1.5" pointer-events="none"/>
                </g>
                <g id="dirArrow">
                        <path fill="none" stroke="white" stroke-width="1.5" d="M0,-3.0v7 M-2.5,-0.5L0,-3.0L2.5,-0.5"/>
                </g>
               <g id="resetDef">
                       <use xlink:href="#rim2" fill="#404040">
                               <set attributeName="fill" to="#808080" begin="reset.mouseover" end="reset.mouseout"/>
                       </use>
               </g>
        </defs>

<script type="text/javascript">
var viewWidth = 726;
var viewHeight = 164;
var sectionId = 'dynsection-10';
</script>
<script xlink:href="../../svgpan.js"/>
<svg id="graph" class="graph">
<g id="viewport">
<title>simulations.Wator.nextGen</title>
<polygon fill="white" stroke="none" points="-4,4 -4,-160 722,-160 722,4 -4,4"/>
<!-- Node1 -->
<g id="node1" class="node"><title>Node1</title>
<polygon fill="#bfbfbf" stroke="black" points="0,-68.5 0,-87.5 144,-87.5 144,-68.5 0,-68.5"/>
<text text-anchor="middle" x="72" y="-75.5" font-family="Helvetica,sans-Serif" font-size="10.00">simulations.Wator.nextGen</text>
</g>
<!-- Node2 -->
<g id="node2" class="node"><title>Node2</title>
<g id="a_node2"><a xlink:href="../../dc/d96/classutility_1_1_map_copier.html#a3308fa4bb52f888a9059da1c1d8380c0" target="_top" xlink:title="utility.MapCopier.copyOf\lArray">
<polygon fill="white" stroke="black" points="196,-126 196,-156 326,-156 326,-126 196,-126"/>
<text text-anchor="start" x="204" y="-144" font-family="Helvetica,sans-Serif" font-size="10.00">utility.MapCopier.copyOf</text>
<text text-anchor="middle" x="261" y="-133" font-family="Helvetica,sans-Serif" font-size="10.00">Array</text>
</a>
</g>
</g>
<!-- Node1&#45;&gt;Node2 -->
<g id="edge1" class="edge"><title>Node1&#45;&gt;Node2</title>
<path fill="none" stroke="midnightblue" d="M99.2862,-87.6523C120.887,-95.5075 152.325,-106.765 180,-116 186.833,-118.28 194.014,-120.613 201.154,-122.893"/>
<polygon fill="midnightblue" stroke="midnightblue" points="200.237,-126.274 210.827,-125.96 202.352,-119.601 200.237,-126.274"/>
</g>
<!-- Node3 -->
<g id="node3" class="node"><title>Node3</title>
<g id="a_node3"><a xlink:href="../../d3/d55/classsimulations_1_1_wator.html#a723c07d93c4921b81a66374136037e5c" target="_top" xlink:title="simulations.Wator.findTorroFish">
<polygon fill="white" stroke="black" points="180,-87.5 180,-106.5 342,-106.5 342,-87.5 180,-87.5"/>
<text text-anchor="middle" x="261" y="-94.5" font-family="Helvetica,sans-Serif" font-size="10.00">simulations.Wator.findTorroFish</text>
</a>
</g>
</g>
<!-- Node1&#45;&gt;Node3 -->
<g id="edge2" class="edge"><title>Node1&#45;&gt;Node3</title>
<path fill="none" stroke="midnightblue" d="M144.23,-85.2373C152.613,-86.089 161.25,-86.9665 169.849,-87.8402"/>
<polygon fill="midnightblue" stroke="midnightblue" points="169.605,-91.3334 179.908,-88.8623 170.313,-84.3693 169.605,-91.3334"/>
</g>
<!-- Node5 -->
<g id="node5" class="node"><title>Node5</title>
<g id="a_node5"><a xlink:href="../../d3/d55/classsimulations_1_1_wator.html#aff30f2d7c64fbc6c278a4613f0f43e4f" target="_top" xlink:title="simulations.Wator.updateFish">
<polygon fill="white" stroke="black" points="183.5,-49.5 183.5,-68.5 338.5,-68.5 338.5,-49.5 183.5,-49.5"/>
<text text-anchor="middle" x="261" y="-56.5" font-family="Helvetica,sans-Serif" font-size="10.00">simulations.Wator.updateFish</text>
</a>
</g>
</g>
<!-- Node1&#45;&gt;Node5 -->
<g id="edge4" class="edge"><title>Node1&#45;&gt;Node5</title>
<path fill="none" stroke="midnightblue" d="M144.23,-70.7627C153.729,-69.7976 163.554,-68.7994 173.28,-67.8111"/>
<polygon fill="midnightblue" stroke="midnightblue" points="173.767,-71.2797 183.362,-66.7867 173.06,-64.3156 173.767,-71.2797"/>
</g>
<!-- Node8 -->
<g id="node8" class="node"><title>Node8</title>
<g id="a_node8"><a xlink:href="../../d3/d55/classsimulations_1_1_wator.html#a4d9e261b6fe7133fe9833238370173ba" target="_top" xlink:title="simulations.Wator.update\lShark">
<polygon fill="white" stroke="black" points="192.5,-0 192.5,-30 329.5,-30 329.5,-0 192.5,-0"/>
<text text-anchor="start" x="200.5" y="-18" font-family="Helvetica,sans-Serif" font-size="10.00">simulations.Wator.update</text>
<text text-anchor="middle" x="261" y="-7" font-family="Helvetica,sans-Serif" font-size="10.00">Shark</text>
</a>
</g>
</g>
<!-- Node1&#45;&gt;Node8 -->
<g id="edge7" class="edge"><title>Node1&#45;&gt;Node8</title>
<path fill="none" stroke="midnightblue" d="M99.2862,-68.3477C120.887,-60.4925 152.325,-49.2348 180,-40 186.833,-37.7201 194.014,-35.3872 201.154,-33.107"/>
<polygon fill="midnightblue" stroke="midnightblue" points="202.352,-36.3987 210.827,-30.0403 200.237,-29.726 202.352,-36.3987"/>
</g>
<!-- Node4 -->
<g id="node4" class="node"><title>Node4</title>
<g id="a_node4"><a xlink:href="../../d7/d2b/classutility_1_1_neighborhood.html#a70ff5a6a5c76877fd88d25400547d5f0" target="_top" xlink:title="utility.Neighborhood.get\lNeighbors">
<polygon fill="white" stroke="black" points="394,-82 394,-112 524,-112 524,-82 394,-82"/>
<text text-anchor="start" x="402" y="-100" font-family="Helvetica,sans-Serif" font-size="10.00">utility.Neighborhood.get</text>
<text text-anchor="middle" x="459" y="-89" font-family="Helvetica,sans-Serif" font-size="10.00">Neighbors</text>
</a>
</g>
</g>
<!-- Node3&#45;&gt;Node4 -->
<g id="edge3" class="edge"><title>Node3&#45;&gt;Node4</title>
<path fill="none" stroke="midnightblue" d="M342.003,-97C355.753,-97 369.991,-97 383.586,-97"/>
<polygon fill="midnightblue" stroke="midnightblue" points="383.838,-100.5 393.838,-97 383.838,-93.5001 383.838,-100.5"/>
</g>
<!-- Node6 -->
<g id="node6" class="node"><title>Node6</title>
<g id="a_node6"><a xlink:href="../../d3/d55/classsimulations_1_1_wator.html#acfdaa850faa0a0953a41154de03bdb04" target="_top" xlink:title="simulations.Wator.cellNextGen">
<polygon fill="white" stroke="black" points="378.5,-43.5 378.5,-62.5 539.5,-62.5 539.5,-43.5 378.5,-43.5"/>
<text text-anchor="middle" x="459" y="-50.5" font-family="Helvetica,sans-Serif" font-size="10.00">simulations.Wator.cellNextGen</text>
</a>
</g>
</g>
<!-- Node5&#45;&gt;Node6 -->
<g id="edge5" class="edge"><title>Node5&#45;&gt;Node6</title>
<path fill="none" stroke="midnightblue" d="M338.621,-56.6545C348.263,-56.3593 358.195,-56.0552 368.02,-55.7545"/>
<polygon fill="midnightblue" stroke="midnightblue" points="368.313,-59.2472 378.201,-55.4428 368.099,-52.2505 368.313,-59.2472"/>
</g>
<!-- Node7 -->
<g id="node7" class="node"><title>Node7</title>
<g id="a_node7"><a xlink:href="../../d9/dd0/classcellsociety__team05_1_1_scene_updater.html#a5b755feda214274401674bc34e08d9d2" target="_top" xlink:title="cellsociety_team05.Scene\lUpdater.updateScene">
<polygon fill="white" stroke="black" points="576,-19 576,-49 718,-49 718,-19 576,-19"/>
<text text-anchor="start" x="584" y="-37" font-family="Helvetica,sans-Serif" font-size="10.00">cellsociety_team05.Scene</text>
<text text-anchor="middle" x="647" y="-26" font-family="Helvetica,sans-Serif" font-size="10.00">Updater.updateScene</text>
</a>
</g>
</g>
<!-- Node6&#45;&gt;Node7 -->
<g id="edge6" class="edge"><title>Node6&#45;&gt;Node7</title>
<path fill="none" stroke="midnightblue" d="M539.69,-44.8596C548.336,-43.9764 557.139,-43.0772 565.791,-42.1934"/>
<polygon fill="midnightblue" stroke="midnightblue" points="566.268,-45.663 575.861,-41.1648 565.557,-38.6992 566.268,-45.663"/>
</g>
<!-- Node8&#45;&gt;Node6 -->
<g id="edge8" class="edge"><title>Node8&#45;&gt;Node6</title>
<path fill="none" stroke="midnightblue" d="M329.727,-28.1307C352.174,-32.4828 376.972,-37.2905 398.733,-41.5095"/>
<polygon fill="midnightblue" stroke="midnightblue" points="398.339,-44.9981 408.822,-43.4655 399.671,-38.1261 398.339,-44.9981"/>
</g>
<!-- Node8&#45;&gt;Node7 -->
<g id="edge9" class="edge"><title>Node8&#45;&gt;Node7</title>
<path fill="none" stroke="midnightblue" d="M329.768,-18.3531C395.745,-21.6176 496.021,-26.5792 565.908,-30.0371"/>
<polygon fill="midnightblue" stroke="midnightblue" points="565.831,-33.5375 575.991,-30.536 566.177,-26.546 565.831,-33.5375"/>
</g>
</g>
</svg>
        <g id="navigator" transform="translate(0 0)" fill="#404254">
                <rect fill="#f2f5e9" fill-opacity="0.5" stroke="#606060" stroke-width=".5" x="0" y="0" width="60" height="60"/>
                <use id="zoomplus" xlink:href="#zoomPlus" x="17" y="9" onmousedown="handleZoom(evt,'in')"/>
                <use id="zoomminus" xlink:href="#zoomMin" x="42" y="9" onmousedown="handleZoom(evt,'out')"/>
                <use id="reset" xlink:href="#resetDef" x="30" y="36" onmousedown="handleReset()"/>
                <g id="arrowUp" xlink:href="#dirArrow" transform="translate(30 24)" onmousedown="handlePan(0,-1)">
                  <use xlink:href="#rim" fill="#404040">
                        <set attributeName="fill" to="#808080" begin="arrowUp.mouseover" end="arrowUp.mouseout"/>
                  </use>
                  <path fill="none" stroke="white" stroke-width="1.5" d="M0,-3.0v7 M-2.5,-0.5L0,-3.0L2.5,-0.5"/>
                </g>
                <g id="arrowRight" xlink:href="#dirArrow" transform="rotate(90) translate(36 -43)" onmousedown="handlePan(1,0)">
                  <use xlink:href="#rim" fill="#404040">
                        <set attributeName="fill" to="#808080" begin="arrowRight.mouseover" end="arrowRight.mouseout"/>
                  </use>
                  <path fill="none" stroke="white" stroke-width="1.5" d="M0,-3.0v7 M-2.5,-0.5L0,-3.0L2.5,-0.5"/>
                </g>
                <g id="arrowDown" xlink:href="#dirArrow" transform="rotate(180) translate(-30 -48)" onmousedown="handlePan(0,1)">
                  <use xlink:href="#rim" fill="#404040">
                        <set attributeName="fill" to="#808080" begin="arrowDown.mouseover" end="arrowDown.mouseout"/>
                  </use>
                  <path fill="none" stroke="white" stroke-width="1.5" d="M0,-3.0v7 M-2.5,-0.5L0,-3.0L2.5,-0.5"/>
                </g>
                <g id="arrowLeft" xlink:href="#dirArrow" transform="rotate(270) translate(-36 17)" onmousedown="handlePan(-1,0)">
                  <use xlink:href="#rim" fill="#404040">
                        <set attributeName="fill" to="#808080" begin="arrowLeft.mouseover" end="arrowLeft.mouseout"/>
                  </use>
                  <path fill="none" stroke="white" stroke-width="1.5" d="M0,-3.0v7 M-2.5,-0.5L0,-3.0L2.5,-0.5"/>
                </g>
        </g>
        <svg viewBox="0 0 15 15" width="100%" height="30px" preserveAspectRatio="xMaxYMin meet">
         <g id="arrow_out" transform="scale(0.3 0.3)">
          <a xlink:href="classsimulations_1_1_wator_ae6531260f046fa980999a599be53532a_cgraph_org.svg" target="_base">
           <rect id="button" ry="5" rx="5" y="6" x="6" height="38" width="38"
                fill="#f2f5e9" fill-opacity="0.5" stroke="#606060" stroke-width="1.0"/>
           <path id="arrow"
             d="M 11.500037,31.436501 C 11.940474,20.09759 22.043105,11.32322 32.158766,21.979434 L 37.068811,17.246167 C 37.068811,17.246167 37.088388,32 37.088388,32 L 22.160133,31.978069 C 22.160133,31.978069 26.997745,27.140456 26.997745,27.140456 C 18.528582,18.264221 13.291696,25.230495 11.500037,31.436501 z"
             style="fill:#404040;"/>
          </a>
         </g>
        </svg>
</svg>
