<?xml version="1.0" encoding="UTF-8" standalone="no"?>
<!DOCTYPE svg PUBLIC "-//W3C//DTD SVG 1.1//EN"
 "http://www.w3.org/Graphics/SVG/1.1/DTD/svg11.dtd">
<!-- Generated by graphviz version 2.36.0 (20140111.2315)
 -->
<!-- Title: simulations.Wator.cellNextGen Pages: 1 -->
<svg width="542pt" height="77pt"
 viewBox="0.00 0.00 542.00 77.00" xmlns="http://www.w3.org/2000/svg" xmlns:xlink="http://www.w3.org/1999/xlink">
<g id="graph0" class="graph" transform="scale(1 1) rotate(0) translate(4 73)">
<title>simulations.Wator.cellNextGen</title>
<polygon fill="white" stroke="none" points="-4,4 -4,-73 538,-73 538,4 -4,4"/>
<!-- Node1 -->
<g id="node1" class="node"><title>Node1</title>
<polygon fill="#bfbfbf" stroke="black" points="0.5,-27.5 0.5,-46.5 161.5,-46.5 161.5,-27.5 0.5,-27.5"/>
<text text-anchor="middle" x="81" y="-34.5" font-family="Helvetica,sans-Serif" font-size="10.00">simulations.Wator.cellNextGen</text>
</g>
<!-- Node2 -->
<g id="node2" class="node"><title>Node2</title>
<g id="a_node2"><a xlink:href="../../d3/d55/classsimulations_1_1_wator.html#aff30f2d7c64fbc6c278a4613f0f43e4f" target="_top" xlink:title="simulations.Wator.updateFish">
<polygon fill="white" stroke="black" points="198.5,-49.5 198.5,-68.5 353.5,-68.5 353.5,-49.5 198.5,-49.5"/>
<text text-anchor="middle" x="276" y="-56.5" font-family="Helvetica,sans-Serif" font-size="10.00">simulations.Wator.updateFish</text>
</a>
</g>
</g>
<!-- Node1&#45;&gt;Node2 -->
<g id="edge1" class="edge"><title>Node1&#45;&gt;Node2</title>
<path fill="none" stroke="midnightblue" d="M171.647,-47.2188C180.577,-48.2367 189.585,-49.2636 198.364,-50.2643"/>
<polygon fill="midnightblue" stroke="midnightblue" points="171.947,-43.7304 161.615,-46.0753 171.154,-50.6854 171.947,-43.7304"/>
</g>
<!-- Node4 -->
<g id="node4" class="node"><title>Node4</title>
<g id="a_node4"><a xlink:href="../../d3/d55/classsimulations_1_1_wator.html#a4d9e261b6fe7133fe9833238370173ba" target="_top" xlink:title="simulations.Wator.update\lShark">
<polygon fill="white" stroke="black" points="207.5,-0 207.5,-30 344.5,-30 344.5,-0 207.5,-0"/>
<text text-anchor="start" x="215.5" y="-18" font-family="Helvetica,sans-Serif" font-size="10.00">simulations.Wator.update</text>
<text text-anchor="middle" x="276" y="-7" font-family="Helvetica,sans-Serif" font-size="10.00">Shark</text>
</a>
</g>
</g>
<!-- Node1&#45;&gt;Node4 -->
<g id="edge3" class="edge"><title>Node1&#45;&gt;Node4</title>
<path fill="none" stroke="midnightblue" d="M171.63,-26.7832C183.611,-25.4174 195.735,-24.0354 207.256,-22.7221"/>
<polygon fill="midnightblue" stroke="midnightblue" points="171.154,-23.3146 161.615,-27.9247 171.947,-30.2696 171.154,-23.3146"/>
</g>
<!-- Node3 -->
<g id="node3" class="node"><title>Node3</title>
<g id="a_node3"><a xlink:href="../../d3/d55/classsimulations_1_1_wator.html#ae6531260f046fa980999a599be53532a" target="_top" xlink:title="simulations.Wator.nextGen">
<polygon fill="white" stroke="black" points="390,-27.5 390,-46.5 534,-46.5 534,-27.5 390,-27.5"/>
<text text-anchor="middle" x="462" y="-34.5" font-family="Helvetica,sans-Serif" font-size="10.00">simulations.Wator.nextGen</text>
</a>
</g>
</g>
<!-- Node2&#45;&gt;Node3 -->
<g id="edge2" class="edge"><title>Node2&#45;&gt;Node3</title>
<path fill="none" stroke="midnightblue" d="M363.833,-48.6178C372.504,-47.581 381.237,-46.5369 389.721,-45.5224"/>
<polygon fill="midnightblue" stroke="midnightblue" points="363.214,-45.1668 353.7,-49.8293 364.045,-52.1173 363.214,-45.1668"/>
</g>
<!-- Node4&#45;&gt;Node3 -->
<g id="edge4" class="edge"><title>Node4&#45;&gt;Node3</title>
<path fill="none" stroke="midnightblue" d="M354.808,-24.3031C366.386,-25.6875 378.272,-27.1086 389.707,-28.4758"/>
<polygon fill="midnightblue" stroke="midnightblue" points="355.076,-20.8103 344.731,-23.0983 354.245,-27.7608 355.076,-20.8103"/>
</g>
</g>
</svg>
