<?xml version="1.0" encoding="UTF-8" standalone="no"?>
<!DOCTYPE svg PUBLIC "-//W3C//DTD SVG 1.1//EN"
 "http://www.w3.org/Graphics/SVG/1.1/DTD/svg11.dtd">
<!-- Generated by graphviz version 2.36.0 (20140111.2315)
 -->
<!-- Title: simulations.Forage.moveAnt Pages: 1 -->
<!--zoomable 490 -->
<svg id="main" version="1.1" xmlns="http://www.w3.org/2000/svg" xmlns:xlink="http://www.w3.org/1999/xlink" xml:space="preserve" onload="init(evt)">
<style type="text/css"><![CDATA[
.edge:hover path { stroke: red; }
.edge:hover polygon { stroke: red; fill: red; }
]]></style>
<script type="text/javascript"><![CDATA[
var edges = document.getElementsByTagName('g');
if (edges && edges.length) {
  for (var i=0;i<edges.length;i++) {
    if (edges[i].id.substr(0,4)=='edge') {
      edges[i].setAttribute('class','edge');
    }
  }
}
]]></script>
        <defs>
                <circle id="rim" cx="0" cy="0" r="7"/>
                <circle id="rim2" cx="0" cy="0" r="3.5"/>
                <g id="zoomPlus">
                        <use xlink:href="#rim" fill="#404040">
                                <set attributeName="fill" to="#808080" begin="zoomplus.mouseover" end="zoomplus.mouseout"/>
                        </use>
                        <path d="M-4,0h8M0,-4v8" fill="none" stroke="white" stroke-width="1.5" pointer-events="none"/>
                </g>
                <g id="zoomMin">
                        <use xlink:href="#rim" fill="#404040">
                                <set attributeName="fill" to="#808080" begin="zoomminus.mouseover" end="zoomminus.mouseout"/>
                        </use>
                        <path d="M-4,0h8" fill="none" stroke="white" stroke-width="1.5" pointer-events="none"/>
                </g>
                <g id="dirArrow">
                        <path fill="none" stroke="white" stroke-width="1.5" d="M0,-3.0v7 M-2.5,-0.5L0,-3.0L2.5,-0.5"/>
                </g>
               <g id="resetDef">
                       <use xlink:href="#rim2" fill="#404040">
                               <set attributeName="fill" to="#808080" begin="reset.mouseover" end="reset.mouseout"/>
                       </use>
               </g>
        </defs>

<script type="text/javascript">
var viewWidth = 516;
var viewHeight = 490;
var sectionId = 'dynsection-4';
</script>
<script xlink:href="../../svgpan.js"/>
<svg id="graph" class="graph">
<g id="viewport">
<title>simulations.Forage.moveAnt</title>
<polygon fill="white" stroke="none" points="-4,4 -4,-486 512,-486 512,4 -4,4"/>
<!-- Node1 -->
<g id="node1" class="node"><title>Node1</title>
<polygon fill="#bfbfbf" stroke="black" points="0,-253.5 0,-272.5 154,-272.5 154,-253.5 0,-253.5"/>
<text text-anchor="middle" x="77" y="-260.5" font-family="Helvetica,sans-Serif" font-size="10.00">simulations.Forage.moveAnt</text>
</g>
<!-- Node2 -->
<g id="node2" class="node"><title>Node2</title>
<g id="a_node2"><a xlink:href="../../d3/d7b/classutility_1_1_ant.html#ae89d1c43e0721e2a2284555173a9bc79" target="_top" xlink:title="utility.Ant.atFood">
<polygon fill="white" stroke="black" points="218,-462.5 218,-481.5 314,-481.5 314,-462.5 218,-462.5"/>
<text text-anchor="middle" x="266" y="-469.5" font-family="Helvetica,sans-Serif" font-size="10.00">utility.Ant.atFood</text>
</a>
</g>
</g>
<!-- Node1&#45;&gt;Node2 -->
<g id="edge1" class="edge"><title>Node1&#45;&gt;Node2</title>
<path fill="none" stroke="midnightblue" d="M80.7599,-272.696C90.2197,-304.105 124.428,-403.859 190,-453 195.416,-457.059 201.606,-460.256 208.055,-462.774"/>
<polygon fill="midnightblue" stroke="midnightblue" points="207.036,-466.124 217.63,-465.997 209.269,-459.489 207.036,-466.124"/>
</g>
<!-- Node3 -->
<g id="node3" class="node"><title>Node3</title>
<g id="a_node3"><a xlink:href="../../d3/d7b/classutility_1_1_ant.html#a239e16ca79b61d1b54f9cafb72833734" target="_top" xlink:title="utility.Ant.atHome">
<polygon fill="white" stroke="black" points="215,-424.5 215,-443.5 317,-443.5 317,-424.5 215,-424.5"/>
<text text-anchor="middle" x="266" y="-431.5" font-family="Helvetica,sans-Serif" font-size="10.00">utility.Ant.atHome</text>
</a>
</g>
</g>
<!-- Node1&#45;&gt;Node3 -->
<g id="edge2" class="edge"><title>Node1&#45;&gt;Node3</title>
<path fill="none" stroke="midnightblue" d="M82.1904,-272.624C94.4745,-299.653 133.148,-376.774 190,-415 194.668,-418.138 199.815,-420.759 205.16,-422.946"/>
<polygon fill="midnightblue" stroke="midnightblue" points="204.34,-426.369 214.935,-426.434 206.693,-419.777 204.34,-426.369"/>
</g>
<!-- Node4 -->
<g id="node4" class="node"><title>Node4</title>
<g id="a_node4"><a xlink:href="../../d3/d7b/classutility_1_1_ant.html#aee02c90ebbd6ca28e0a2fd943ebacc4d" target="_top" xlink:title="utility.Ant.changeDir">
<polygon fill="white" stroke="black" points="210,-386.5 210,-405.5 322,-405.5 322,-386.5 210,-386.5"/>
<text text-anchor="middle" x="266" y="-393.5" font-family="Helvetica,sans-Serif" font-size="10.00">utility.Ant.changeDir</text>
</a>
</g>
</g>
<!-- Node1&#45;&gt;Node4 -->
<g id="edge3" class="edge"><title>Node1&#45;&gt;Node4</title>
<path fill="none" stroke="midnightblue" d="M84.5906,-272.68C100.174,-294.791 141.636,-349.233 190,-377 193.906,-379.243 198.075,-381.224 202.372,-382.973"/>
<polygon fill="midnightblue" stroke="midnightblue" points="201.336,-386.32 211.93,-386.445 203.726,-379.741 201.336,-386.32"/>
</g>
<!-- Node5 -->
<g id="node5" class="node"><title>Node5</title>
<g id="a_node5"><a xlink:href="../../d3/d7b/classutility_1_1_ant.html#a5b16885803c8be619fbe6dee6d19f809" target="_top" xlink:title="utility.Ant.getFrontNeighbors">
<polygon fill="white" stroke="black" points="190,-348.5 190,-367.5 342,-367.5 342,-348.5 190,-348.5"/>
<text text-anchor="middle" x="266" y="-355.5" font-family="Helvetica,sans-Serif" font-size="10.00">utility.Ant.getFrontNeighbors</text>
</a>
</g>
</g>
<!-- Node1&#45;&gt;Node5 -->
<g id="edge4" class="edge"><title>Node1&#45;&gt;Node5</title>
<path fill="none" stroke="midnightblue" d="M89.2873,-272.663C108.631,-288.742 149.916,-320.996 190,-339 195.416,-341.433 201.198,-343.592 207.058,-345.499"/>
<polygon fill="midnightblue" stroke="midnightblue" points="206.358,-348.944 216.942,-348.476 208.376,-342.241 206.358,-348.944"/>
</g>
<!-- Node6 -->
<g id="node6" class="node"><title>Node6</title>
<g id="a_node6"><a xlink:href="../../d3/d7b/classutility_1_1_ant.html#a1a614418fae5683ec07f3367f2e631e7" target="_top" xlink:title="utility.Ant.getSideNeighbors">
<polygon fill="white" stroke="black" points="191.5,-310.5 191.5,-329.5 340.5,-329.5 340.5,-310.5 191.5,-310.5"/>
<text text-anchor="middle" x="266" y="-317.5" font-family="Helvetica,sans-Serif" font-size="10.00">utility.Ant.getSideNeighbors</text>
</a>
</g>
</g>
<!-- Node1&#45;&gt;Node6 -->
<g id="edge5" class="edge"><title>Node1&#45;&gt;Node6</title>
<path fill="none" stroke="midnightblue" d="M104.514,-272.656C127.089,-280.719 160.465,-292.263 190,-301 198.054,-303.383 206.649,-305.735 215.039,-307.929"/>
<polygon fill="midnightblue" stroke="midnightblue" points="214.193,-311.326 224.75,-310.425 215.936,-304.546 214.193,-311.326"/>
</g>
<!-- Node7 -->
<g id="node7" class="node"><title>Node7</title>
<g id="a_node7"><a xlink:href="../../d3/d7b/classutility_1_1_ant.html#a6d958463e7e144911949606eaa876a05" target="_top" xlink:title="utility.Ant.grow">
<polygon fill="white" stroke="black" points="223,-272.5 223,-291.5 309,-291.5 309,-272.5 223,-272.5"/>
<text text-anchor="middle" x="266" y="-279.5" font-family="Helvetica,sans-Serif" font-size="10.00">utility.Ant.grow</text>
</a>
</g>
</g>
<!-- Node1&#45;&gt;Node7 -->
<g id="edge6" class="edge"><title>Node1&#45;&gt;Node7</title>
<path fill="none" stroke="midnightblue" d="M154.06,-270.728C173.762,-272.73 194.535,-274.84 212.711,-276.687"/>
<polygon fill="midnightblue" stroke="midnightblue" points="212.498,-280.183 222.8,-277.712 213.205,-273.219 212.498,-280.183"/>
</g>
<!-- Node8 -->
<g id="node8" class="node"><title>Node8</title>
<g id="a_node8"><a xlink:href="../../df/dbf/classutility_1_1_pheromone.html#aa8258a23282824cfdba35eacd2431210" target="_top" xlink:title="utility.Pheromone.maxPhero">
<polygon fill="white" stroke="black" points="190.5,-234.5 190.5,-253.5 341.5,-253.5 341.5,-234.5 190.5,-234.5"/>
<text text-anchor="middle" x="266" y="-241.5" font-family="Helvetica,sans-Serif" font-size="10.00">utility.Pheromone.maxPhero</text>
</a>
</g>
</g>
<!-- Node1&#45;&gt;Node8 -->
<g id="edge7" class="edge"><title>Node1&#45;&gt;Node8</title>
<path fill="none" stroke="midnightblue" d="M154.06,-255.272C162.636,-254.401 171.415,-253.509 180.094,-252.627"/>
<polygon fill="midnightblue" stroke="midnightblue" points="180.624,-256.091 190.219,-251.598 179.917,-249.127 180.624,-256.091"/>
</g>
<!-- Node9 -->
<g id="node9" class="node"><title>Node9</title>
<g id="a_node9"><a xlink:href="../../d3/d7b/classutility_1_1_ant.html#a12017e9d6478795fea20c3aa807ee775" target="_top" xlink:title="utility.Ant.moveTo">
<polygon fill="white" stroke="black" points="216,-196.5 216,-215.5 316,-215.5 316,-196.5 216,-196.5"/>
<text text-anchor="middle" x="266" y="-203.5" font-family="Helvetica,sans-Serif" font-size="10.00">utility.Ant.moveTo</text>
</a>
</g>
</g>
<!-- Node1&#45;&gt;Node9 -->
<g id="edge8" class="edge"><title>Node1&#45;&gt;Node9</title>
<path fill="none" stroke="midnightblue" d="M104.514,-253.344C127.089,-245.281 160.465,-233.737 190,-225 198.054,-222.617 206.649,-220.265 215.039,-218.071"/>
<polygon fill="midnightblue" stroke="midnightblue" points="215.936,-221.454 224.75,-215.575 214.193,-214.674 215.936,-221.454"/>
</g>
<!-- Node10 -->
<g id="node10" class="node"><title>Node10</title>
<g id="a_node10"><a xlink:href="../../df/dbf/classutility_1_1_pheromone.html#a7d8bfd24db712f1aa06efa00cf2afaaa" target="_top" xlink:title="utility.Pheromone.select\lFrontLoc">
<polygon fill="white" stroke="black" points="200.5,-147 200.5,-177 331.5,-177 331.5,-147 200.5,-147"/>
<text text-anchor="start" x="208.5" y="-165" font-family="Helvetica,sans-Serif" font-size="10.00">utility.Pheromone.select</text>
<text text-anchor="middle" x="266" y="-154" font-family="Helvetica,sans-Serif" font-size="10.00">FrontLoc</text>
</a>
</g>
</g>
<!-- Node1&#45;&gt;Node10 -->
<g id="edge9" class="edge"><title>Node1&#45;&gt;Node10</title>
<path fill="none" stroke="midnightblue" d="M89.7534,-253.404C109.447,-237.709 150.816,-206.364 190,-187 194.499,-184.777 199.243,-182.679 204.069,-180.715"/>
<polygon fill="midnightblue" stroke="midnightblue" points="205.343,-183.975 213.411,-177.108 202.822,-177.445 205.343,-183.975"/>
</g>
<!-- Node11 -->
<g id="node11" class="node"><title>Node11</title>
<g id="a_node11"><a xlink:href="../../df/dbf/classutility_1_1_pheromone.html#aaa1d60779720c755c8b182ede220c239" target="_top" xlink:title="utility.Pheromone.select\lSideLoc">
<polygon fill="white" stroke="black" points="200.5,-98 200.5,-128 331.5,-128 331.5,-98 200.5,-98"/>
<text text-anchor="start" x="208.5" y="-116" font-family="Helvetica,sans-Serif" font-size="10.00">utility.Pheromone.select</text>
<text text-anchor="middle" x="266" y="-105" font-family="Helvetica,sans-Serif" font-size="10.00">SideLoc</text>
</a>
</g>
</g>
<!-- Node1&#45;&gt;Node11 -->
<g id="edge10" class="edge"><title>Node1&#45;&gt;Node11</title>
<path fill="none" stroke="midnightblue" d="M84.0559,-253.32C99.1008,-230.042 140.554,-170.464 190,-138 193.109,-135.959 196.399,-134.07 199.799,-132.324"/>
<polygon fill="midnightblue" stroke="midnightblue" points="201.42,-135.43 209,-128.028 198.459,-129.087 201.42,-135.43"/>
</g>
<!-- Node12 -->
<g id="node12" class="node"><title>Node12</title>
<g id="a_node12"><a xlink:href="../../df/dbf/classutility_1_1_pheromone.html#a8d9e31109017715159ac1c35af9567d9" target="_top" xlink:title="utility.Pheromone.topOff\lPhero">
<polygon fill="white" stroke="black" points="200.5,-49 200.5,-79 331.5,-79 331.5,-49 200.5,-49"/>
<text text-anchor="start" x="208.5" y="-67" font-family="Helvetica,sans-Serif" font-size="10.00">utility.Pheromone.topOff</text>
<text text-anchor="middle" x="266" y="-56" font-family="Helvetica,sans-Serif" font-size="10.00">Phero</text>
</a>
</g>
</g>
<!-- Node1&#45;&gt;Node12 -->
<g id="edge11" class="edge"><title>Node1&#45;&gt;Node12</title>
<path fill="none" stroke="midnightblue" d="M81.4576,-253.487C92.514,-224.386 129.848,-135.715 190,-89 192.415,-87.1242 194.978,-85.3856 197.645,-83.7745"/>
<polygon fill="midnightblue" stroke="midnightblue" points="199.299,-86.8589 206.461,-79.0509 195.993,-80.6888 199.299,-86.8589"/>
</g>
<!-- Node14 -->
<g id="node14" class="node"><title>Node14</title>
<g id="a_node14"><a xlink:href="../../d9/dd0/classcellsociety__team05_1_1_scene_updater.html#a5b755feda214274401674bc34e08d9d2" target="_top" xlink:title="cellsociety_team05.Scene\lUpdater.updateScene">
<polygon fill="white" stroke="black" points="195,-0 195,-30 337,-30 337,-0 195,-0"/>
<text text-anchor="start" x="203" y="-18" font-family="Helvetica,sans-Serif" font-size="10.00">cellsociety_team05.Scene</text>
<text text-anchor="middle" x="266" y="-7" font-family="Helvetica,sans-Serif" font-size="10.00">Updater.updateScene</text>
</a>
</g>
</g>
<!-- Node1&#45;&gt;Node14 -->
<g id="edge13" class="edge"><title>Node1&#45;&gt;Node14</title>
<path fill="none" stroke="midnightblue" d="M80.0573,-253.335C87.8692,-218.979 118.922,-101.534 190,-40 191.952,-38.31 194.022,-36.7334 196.183,-35.2626"/>
<polygon fill="midnightblue" stroke="midnightblue" points="198.083,-38.2052 204.904,-30.0984 194.516,-32.182 198.083,-38.2052"/>
</g>
<!-- Node13 -->
<g id="node13" class="node"><title>Node13</title>
<g id="a_node13"><a xlink:href="../../d7/d2b/classutility_1_1_neighborhood.html#a70ff5a6a5c76877fd88d25400547d5f0" target="_top" xlink:title="utility.Neighborhood.get\lNeighbors">
<polygon fill="white" stroke="black" points="378,-49 378,-79 508,-79 508,-49 378,-49"/>
<text text-anchor="start" x="386" y="-67" font-family="Helvetica,sans-Serif" font-size="10.00">utility.Neighborhood.get</text>
<text text-anchor="middle" x="443" y="-56" font-family="Helvetica,sans-Serif" font-size="10.00">Neighbors</text>
</a>
</g>
</g>
<!-- Node12&#45;&gt;Node13 -->
<g id="edge12" class="edge"><title>Node12&#45;&gt;Node13</title>
<path fill="none" stroke="midnightblue" d="M331.666,-64C343.457,-64 355.842,-64 367.881,-64"/>
<polygon fill="midnightblue" stroke="midnightblue" points="367.891,-67.5001 377.891,-64 367.891,-60.5001 367.891,-67.5001"/>
</g>
</g>
</svg>
        <g id="navigator" transform="translate(0 0)" fill="#404254">
                <rect fill="#f2f5e9" fill-opacity="0.5" stroke="#606060" stroke-width=".5" x="0" y="0" width="60" height="60"/>
                <use id="zoomplus" xlink:href="#zoomPlus" x="17" y="9" onmousedown="handleZoom(evt,'in')"/>
                <use id="zoomminus" xlink:href="#zoomMin" x="42" y="9" onmousedown="handleZoom(evt,'out')"/>
                <use id="reset" xlink:href="#resetDef" x="30" y="36" onmousedown="handleReset()"/>
                <g id="arrowUp" xlink:href="#dirArrow" transform="translate(30 24)" onmousedown="handlePan(0,-1)">
                  <use xlink:href="#rim" fill="#404040">
                        <set attributeName="fill" to="#808080" begin="arrowUp.mouseover" end="arrowUp.mouseout"/>
                  </use>
                  <path fill="none" stroke="white" stroke-width="1.5" d="M0,-3.0v7 M-2.5,-0.5L0,-3.0L2.5,-0.5"/>
                </g>
                <g id="arrowRight" xlink:href="#dirArrow" transform="rotate(90) translate(36 -43)" onmousedown="handlePan(1,0)">
                  <use xlink:href="#rim" fill="#404040">
                        <set attributeName="fill" to="#808080" begin="arrowRight.mouseover" end="arrowRight.mouseout"/>
                  </use>
                  <path fill="none" stroke="white" stroke-width="1.5" d="M0,-3.0v7 M-2.5,-0.5L0,-3.0L2.5,-0.5"/>
                </g>
                <g id="arrowDown" xlink:href="#dirArrow" transform="rotate(180) translate(-30 -48)" onmousedown="handlePan(0,1)">
                  <use xlink:href="#rim" fill="#404040">
                        <set attributeName="fill" to="#808080" begin="arrowDown.mouseover" end="arrowDown.mouseout"/>
                  </use>
                  <path fill="none" stroke="white" stroke-width="1.5" d="M0,-3.0v7 M-2.5,-0.5L0,-3.0L2.5,-0.5"/>
                </g>
                <g id="arrowLeft" xlink:href="#dirArrow" transform="rotate(270) translate(-36 17)" onmousedown="handlePan(-1,0)">
                  <use xlink:href="#rim" fill="#404040">
                        <set attributeName="fill" to="#808080" begin="arrowLeft.mouseover" end="arrowLeft.mouseout"/>
                  </use>
                  <path fill="none" stroke="white" stroke-width="1.5" d="M0,-3.0v7 M-2.5,-0.5L0,-3.0L2.5,-0.5"/>
                </g>
        </g>
        <svg viewBox="0 0 15 15" width="100%" height="30px" preserveAspectRatio="xMaxYMin meet">
         <g id="arrow_out" transform="scale(0.3 0.3)">
          <a xlink:href="classsimulations_1_1_forage_a91ba1a576c24aeb6466b9c45769630ec_cgraph_org.svg" target="_base">
           <rect id="button" ry="5" rx="5" y="6" x="6" height="38" width="38"
                fill="#f2f5e9" fill-opacity="0.5" stroke="#606060" stroke-width="1.0"/>
           <path id="arrow"
             d="M 11.500037,31.436501 C 11.940474,20.09759 22.043105,11.32322 32.158766,21.979434 L 37.068811,17.246167 C 37.068811,17.246167 37.088388,32 37.088388,32 L 22.160133,31.978069 C 22.160133,31.978069 26.997745,27.140456 26.997745,27.140456 C 18.528582,18.264221 13.291696,25.230495 11.500037,31.436501 z"
             style="fill:#404040;"/>
          </a>
         </g>
        </svg>
</svg>
