<?xml version="1.0" encoding="UTF-8" standalone="no"?>
<!DOCTYPE svg PUBLIC "-//W3C//DTD SVG 1.1//EN"
 "http://www.w3.org/Graphics/SVG/1.1/DTD/svg11.dtd">
<!-- Generated by graphviz version 2.36.0 (20140111.2315)
 -->
<!-- Title: simulations.Forage.nextGen Pages: 1 -->
<svg width="710pt" height="578pt"
 viewBox="0.00 0.00 710.00 578.00" xmlns="http://www.w3.org/2000/svg" xmlns:xlink="http://www.w3.org/1999/xlink">
<g id="graph0" class="graph" transform="scale(1 1) rotate(0) translate(4 574)">
<title>simulations.Forage.nextGen</title>
<polygon fill="white" stroke="none" points="-4,4 -4,-574 706,-574 706,4 -4,4"/>
<!-- Node1 -->
<g id="node1" class="node"><title>Node1</title>
<polygon fill="#bfbfbf" stroke="black" points="0.5,-49.5 0.5,-68.5 151.5,-68.5 151.5,-49.5 0.5,-49.5"/>
<text text-anchor="middle" x="76" y="-56.5" font-family="Helvetica,sans-Serif" font-size="10.00">simulations.Forage.nextGen</text>
</g>
<!-- Node2 -->
<g id="node2" class="node"><title>Node2</title>
<g id="a_node2"><a xlink:href="../../da/d7a/classsimulations_1_1_forage.html#a91ba1a576c24aeb6466b9c45769630ec" target="_top" xlink:title="simulations.Forage.moveAnt">
<polygon fill="white" stroke="black" points="191,-322.5 191,-341.5 345,-341.5 345,-322.5 191,-322.5"/>
<text text-anchor="middle" x="268" y="-329.5" font-family="Helvetica,sans-Serif" font-size="10.00">simulations.Forage.moveAnt</text>
</a>
</g>
</g>
<!-- Node1&#45;&gt;Node2 -->
<g id="edge1" class="edge"><title>Node1&#45;&gt;Node2</title>
<path fill="none" stroke="midnightblue" d="M83.7622,-68.7162C111.638,-108.769 217.889,-261.436 254.508,-314.051"/>
<polygon fill="midnightblue" stroke="midnightblue" points="251.734,-316.192 260.319,-322.4 257.479,-312.193 251.734,-316.192"/>
</g>
<!-- Node16 -->
<g id="node16" class="node"><title>Node16</title>
<g id="a_node16"><a xlink:href="../../df/dbf/classutility_1_1_pheromone.html#a7918d271386a364c9bdadbfda01de995" target="_top" xlink:title="utility.Pheromone.nextGen">
<polygon fill="white" stroke="black" points="196.5,-49.5 196.5,-68.5 339.5,-68.5 339.5,-49.5 196.5,-49.5"/>
<text text-anchor="middle" x="268" y="-56.5" font-family="Helvetica,sans-Serif" font-size="10.00">utility.Pheromone.nextGen</text>
</a>
</g>
</g>
<!-- Node1&#45;&gt;Node16 -->
<g id="edge15" class="edge"><title>Node1&#45;&gt;Node16</title>
<path fill="none" stroke="midnightblue" d="M151.548,-59C162.966,-59 174.798,-59 186.341,-59"/>
<polygon fill="midnightblue" stroke="midnightblue" points="186.392,-62.5001 196.392,-59 186.392,-55.5001 186.392,-62.5001"/>
</g>
<!-- Node18 -->
<g id="node18" class="node"><title>Node18</title>
<g id="a_node18"><a xlink:href="../../da/d7a/classsimulations_1_1_forage.html#aee4dfc6bbd68b54dc8b48b0a0b0e4295" target="_top" xlink:title="simulations.Forage.reproduce">
<polygon fill="white" stroke="black" points="188.5,-11.5 188.5,-30.5 347.5,-30.5 347.5,-11.5 188.5,-11.5"/>
<text text-anchor="middle" x="268" y="-18.5" font-family="Helvetica,sans-Serif" font-size="10.00">simulations.Forage.reproduce</text>
</a>
</g>
</g>
<!-- Node1&#45;&gt;Node18 -->
<g id="edge18" class="edge"><title>Node1&#45;&gt;Node18</title>
<path fill="none" stroke="midnightblue" d="M124.945,-49.411C150.582,-44.2835 182.336,-37.9328 209.316,-32.5368"/>
<polygon fill="midnightblue" stroke="midnightblue" points="210.28,-35.9133 219.4,-30.5201 208.908,-29.0493 210.28,-35.9133"/>
</g>
<!-- Node3 -->
<g id="node3" class="node"><title>Node3</title>
<g id="a_node3"><a xlink:href="../../d3/d7b/classutility_1_1_ant.html#ae89d1c43e0721e2a2284555173a9bc79" target="_top" xlink:title="utility.Ant.atFood">
<polygon fill="white" stroke="black" points="412,-550.5 412,-569.5 508,-569.5 508,-550.5 412,-550.5"/>
<text text-anchor="middle" x="460" y="-557.5" font-family="Helvetica,sans-Serif" font-size="10.00">utility.Ant.atFood</text>
</a>
</g>
</g>
<!-- Node2&#45;&gt;Node3 -->
<g id="edge2" class="edge"><title>Node2&#45;&gt;Node3</title>
<path fill="none" stroke="midnightblue" d="M271.361,-341.707C280.01,-375.116 313.218,-486.299 384,-541 389.427,-545.194 395.673,-548.471 402.195,-551.03"/>
<polygon fill="midnightblue" stroke="midnightblue" points="401.292,-554.418 411.886,-554.288 403.523,-547.783 401.292,-554.418"/>
</g>
<!-- Node4 -->
<g id="node4" class="node"><title>Node4</title>
<g id="a_node4"><a xlink:href="../../d3/d7b/classutility_1_1_ant.html#a239e16ca79b61d1b54f9cafb72833734" target="_top" xlink:title="utility.Ant.atHome">
<polygon fill="white" stroke="black" points="409,-512.5 409,-531.5 511,-531.5 511,-512.5 409,-512.5"/>
<text text-anchor="middle" x="460" y="-519.5" font-family="Helvetica,sans-Serif" font-size="10.00">utility.Ant.atHome</text>
</a>
</g>
</g>
<!-- Node2&#45;&gt;Node4 -->
<g id="edge3" class="edge"><title>Node2&#45;&gt;Node4</title>
<path fill="none" stroke="midnightblue" d="M272.528,-341.549C283.815,-370.721 321.982,-459.337 384,-503 388.599,-506.238 393.701,-508.925 399.017,-511.155"/>
<polygon fill="midnightblue" stroke="midnightblue" points="398.161,-514.568 408.756,-514.695 400.553,-507.989 398.161,-514.568"/>
</g>
<!-- Node5 -->
<g id="node5" class="node"><title>Node5</title>
<g id="a_node5"><a xlink:href="../../d3/d7b/classutility_1_1_ant.html#aee02c90ebbd6ca28e0a2fd943ebacc4d" target="_top" xlink:title="utility.Ant.changeDir">
<polygon fill="white" stroke="black" points="404,-474.5 404,-493.5 516,-493.5 516,-474.5 404,-474.5"/>
<text text-anchor="middle" x="460" y="-481.5" font-family="Helvetica,sans-Serif" font-size="10.00">utility.Ant.changeDir</text>
</a>
</g>
</g>
<!-- Node2&#45;&gt;Node5 -->
<g id="edge4" class="edge"><title>Node2&#45;&gt;Node5</title>
<path fill="none" stroke="midnightblue" d="M274.534,-341.819C289.039,-366.618 330.75,-432.133 384,-465 387.438,-467.122 391.103,-469.008 394.895,-470.683"/>
<polygon fill="midnightblue" stroke="midnightblue" points="393.936,-474.065 404.525,-474.43 396.475,-467.542 393.936,-474.065"/>
</g>
<!-- Node6 -->
<g id="node6" class="node"><title>Node6</title>
<g id="a_node6"><a xlink:href="../../d3/d7b/classutility_1_1_ant.html#a5b16885803c8be619fbe6dee6d19f809" target="_top" xlink:title="utility.Ant.getFrontNeighbors">
<polygon fill="white" stroke="black" points="384,-436.5 384,-455.5 536,-455.5 536,-436.5 384,-436.5"/>
<text text-anchor="middle" x="460" y="-443.5" font-family="Helvetica,sans-Serif" font-size="10.00">utility.Ant.getFrontNeighbors</text>
</a>
</g>
</g>
<!-- Node2&#45;&gt;Node6 -->
<g id="edge5" class="edge"><title>Node2&#45;&gt;Node6</title>
<path fill="none" stroke="midnightblue" d="M277.805,-341.721C295.811,-360.996 338.961,-404.162 384,-427 388.599,-429.332 393.506,-431.392 398.524,-433.209"/>
<polygon fill="midnightblue" stroke="midnightblue" points="397.667,-436.612 408.26,-436.411 399.854,-429.962 397.667,-436.612"/>
</g>
<!-- Node7 -->
<g id="node7" class="node"><title>Node7</title>
<g id="a_node7"><a xlink:href="../../d3/d7b/classutility_1_1_ant.html#a1a614418fae5683ec07f3367f2e631e7" target="_top" xlink:title="utility.Ant.getSideNeighbors">
<polygon fill="white" stroke="black" points="385.5,-398.5 385.5,-417.5 534.5,-417.5 534.5,-398.5 385.5,-398.5"/>
<text text-anchor="middle" x="460" y="-405.5" font-family="Helvetica,sans-Serif" font-size="10.00">utility.Ant.getSideNeighbors</text>
</a>
</g>
</g>
<!-- Node2&#45;&gt;Node7 -->
<g id="edge6" class="edge"><title>Node2&#45;&gt;Node7</title>
<path fill="none" stroke="midnightblue" d="M285.645,-341.66C307.575,-354.054 347.633,-375.554 384,-389 390.756,-391.498 397.973,-393.783 405.16,-395.835"/>
<polygon fill="midnightblue" stroke="midnightblue" points="404.329,-399.236 414.898,-398.486 406.169,-392.482 404.329,-399.236"/>
</g>
<!-- Node8 -->
<g id="node8" class="node"><title>Node8</title>
<g id="a_node8"><a xlink:href="../../d3/d7b/classutility_1_1_ant.html#a6d958463e7e144911949606eaa876a05" target="_top" xlink:title="utility.Ant.grow">
<polygon fill="white" stroke="black" points="417,-360.5 417,-379.5 503,-379.5 503,-360.5 417,-360.5"/>
<text text-anchor="middle" x="460" y="-367.5" font-family="Helvetica,sans-Serif" font-size="10.00">utility.Ant.grow</text>
</a>
</g>
</g>
<!-- Node2&#45;&gt;Node8 -->
<g id="edge7" class="edge"><title>Node2&#45;&gt;Node8</title>
<path fill="none" stroke="midnightblue" d="M316.945,-341.589C344.36,-347.072 378.769,-353.954 406.855,-359.571"/>
<polygon fill="midnightblue" stroke="midnightblue" points="406.4,-363.049 416.892,-361.578 407.772,-356.185 406.4,-363.049"/>
</g>
<!-- Node9 -->
<g id="node9" class="node"><title>Node9</title>
<g id="a_node9"><a xlink:href="../../df/dbf/classutility_1_1_pheromone.html#aa8258a23282824cfdba35eacd2431210" target="_top" xlink:title="utility.Pheromone.maxPhero">
<polygon fill="white" stroke="black" points="384.5,-322.5 384.5,-341.5 535.5,-341.5 535.5,-322.5 384.5,-322.5"/>
<text text-anchor="middle" x="460" y="-329.5" font-family="Helvetica,sans-Serif" font-size="10.00">utility.Pheromone.maxPhero</text>
</a>
</g>
</g>
<!-- Node2&#45;&gt;Node9 -->
<g id="edge8" class="edge"><title>Node2&#45;&gt;Node9</title>
<path fill="none" stroke="midnightblue" d="M345.185,-332C354.764,-332 364.607,-332 374.306,-332"/>
<polygon fill="midnightblue" stroke="midnightblue" points="374.344,-335.5 384.344,-332 374.344,-328.5 374.344,-335.5"/>
</g>
<!-- Node10 -->
<g id="node10" class="node"><title>Node10</title>
<g id="a_node10"><a xlink:href="../../d3/d7b/classutility_1_1_ant.html#a12017e9d6478795fea20c3aa807ee775" target="_top" xlink:title="utility.Ant.moveTo">
<polygon fill="white" stroke="black" points="410,-284.5 410,-303.5 510,-303.5 510,-284.5 410,-284.5"/>
<text text-anchor="middle" x="460" y="-291.5" font-family="Helvetica,sans-Serif" font-size="10.00">utility.Ant.moveTo</text>
</a>
</g>
</g>
<!-- Node2&#45;&gt;Node10 -->
<g id="edge9" class="edge"><title>Node2&#45;&gt;Node10</title>
<path fill="none" stroke="midnightblue" d="M316.945,-322.411C342.582,-317.284 374.336,-310.933 401.316,-305.537"/>
<polygon fill="midnightblue" stroke="midnightblue" points="402.28,-308.913 411.4,-303.52 400.908,-302.049 402.28,-308.913"/>
</g>
<!-- Node11 -->
<g id="node11" class="node"><title>Node11</title>
<g id="a_node11"><a xlink:href="../../df/dbf/classutility_1_1_pheromone.html#a7d8bfd24db712f1aa06efa00cf2afaaa" target="_top" xlink:title="utility.Pheromone.select\lFrontLoc">
<polygon fill="white" stroke="black" points="394.5,-235 394.5,-265 525.5,-265 525.5,-235 394.5,-235"/>
<text text-anchor="start" x="402.5" y="-253" font-family="Helvetica,sans-Serif" font-size="10.00">utility.Pheromone.select</text>
<text text-anchor="middle" x="460" y="-242" font-family="Helvetica,sans-Serif" font-size="10.00">FrontLoc</text>
</a>
</g>
</g>
<!-- Node2&#45;&gt;Node11 -->
<g id="edge10" class="edge"><title>Node2&#45;&gt;Node11</title>
<path fill="none" stroke="midnightblue" d="M286.574,-322.334C308.833,-310.316 348.565,-289.605 384,-275 389.447,-272.755 395.175,-270.56 400.938,-268.462"/>
<polygon fill="midnightblue" stroke="midnightblue" points="402.368,-271.668 410.625,-265.029 400.03,-265.07 402.368,-271.668"/>
</g>
<!-- Node12 -->
<g id="node12" class="node"><title>Node12</title>
<g id="a_node12"><a xlink:href="../../df/dbf/classutility_1_1_pheromone.html#aaa1d60779720c755c8b182ede220c239" target="_top" xlink:title="utility.Pheromone.select\lSideLoc">
<polygon fill="white" stroke="black" points="394.5,-186 394.5,-216 525.5,-216 525.5,-186 394.5,-186"/>
<text text-anchor="start" x="402.5" y="-204" font-family="Helvetica,sans-Serif" font-size="10.00">utility.Pheromone.select</text>
<text text-anchor="middle" x="460" y="-193" font-family="Helvetica,sans-Serif" font-size="10.00">SideLoc</text>
</a>
</g>
</g>
<!-- Node2&#45;&gt;Node12 -->
<g id="edge11" class="edge"><title>Node2&#45;&gt;Node12</title>
<path fill="none" stroke="midnightblue" d="M276.905,-322.351C294.227,-301.793 337.701,-253.328 384,-226 387.59,-223.881 391.384,-221.913 395.283,-220.089"/>
<polygon fill="midnightblue" stroke="midnightblue" points="396.734,-223.275 404.525,-216.095 393.957,-216.85 396.734,-223.275"/>
</g>
<!-- Node13 -->
<g id="node13" class="node"><title>Node13</title>
<g id="a_node13"><a xlink:href="../../df/dbf/classutility_1_1_pheromone.html#a8d9e31109017715159ac1c35af9567d9" target="_top" xlink:title="utility.Pheromone.topOff\lPhero">
<polygon fill="white" stroke="black" points="394.5,-137 394.5,-167 525.5,-167 525.5,-137 394.5,-137"/>
<text text-anchor="start" x="402.5" y="-155" font-family="Helvetica,sans-Serif" font-size="10.00">utility.Pheromone.topOff</text>
<text text-anchor="middle" x="460" y="-144" font-family="Helvetica,sans-Serif" font-size="10.00">Phero</text>
</a>
</g>
</g>
<!-- Node2&#45;&gt;Node13 -->
<g id="edge12" class="edge"><title>Node2&#45;&gt;Node13</title>
<path fill="none" stroke="midnightblue" d="M273.471,-322.4C286.529,-295.4 327.295,-218.095 384,-177 386.667,-175.067 389.494,-173.277 392.426,-171.619"/>
<polygon fill="midnightblue" stroke="midnightblue" points="394.143,-174.673 401.486,-167.036 390.983,-168.427 394.143,-174.673"/>
</g>
<!-- Node15 -->
<g id="node15" class="node"><title>Node15</title>
<g id="a_node15"><a xlink:href="../../d9/dd0/classcellsociety__team05_1_1_scene_updater.html#a5b755feda214274401674bc34e08d9d2" target="_top" xlink:title="cellsociety_team05.Scene\lUpdater.updateScene">
<polygon fill="white" stroke="black" points="389,-88 389,-118 531,-118 531,-88 389,-88"/>
<text text-anchor="start" x="397" y="-106" font-family="Helvetica,sans-Serif" font-size="10.00">cellsociety_team05.Scene</text>
<text text-anchor="middle" x="460" y="-95" font-family="Helvetica,sans-Serif" font-size="10.00">Updater.updateScene</text>
</a>
</g>
</g>
<!-- Node2&#45;&gt;Node15 -->
<g id="edge14" class="edge"><title>Node2&#45;&gt;Node15</title>
<path fill="none" stroke="midnightblue" d="M271.715,-322.258C281.285,-289.703 316.563,-183.615 384,-128 386.038,-126.319 388.194,-124.749 390.438,-123.284"/>
<polygon fill="midnightblue" stroke="midnightblue" points="392.518,-126.128 399.471,-118.133 389.05,-120.047 392.518,-126.128"/>
</g>
<!-- Node14 -->
<g id="node14" class="node"><title>Node14</title>
<g id="a_node14"><a xlink:href="../../d7/d2b/classutility_1_1_neighborhood.html#a70ff5a6a5c76877fd88d25400547d5f0" target="_top" xlink:title="utility.Neighborhood.get\lNeighbors">
<polygon fill="white" stroke="black" points="572,-90 572,-120 702,-120 702,-90 572,-90"/>
<text text-anchor="start" x="580" y="-108" font-family="Helvetica,sans-Serif" font-size="10.00">utility.Neighborhood.get</text>
<text text-anchor="middle" x="637" y="-97" font-family="Helvetica,sans-Serif" font-size="10.00">Neighbors</text>
</a>
</g>
</g>
<!-- Node13&#45;&gt;Node14 -->
<g id="edge13" class="edge"><title>Node13&#45;&gt;Node14</title>
<path fill="none" stroke="midnightblue" d="M516.852,-137C533.743,-132.463 552.452,-127.439 569.943,-122.741"/>
<polygon fill="midnightblue" stroke="midnightblue" points="571.328,-125.993 580.078,-120.019 569.513,-119.233 571.328,-125.993"/>
</g>
<!-- Node16&#45;&gt;Node14 -->
<g id="edge17" class="edge"><title>Node16&#45;&gt;Node14</title>
<path fill="none" stroke="midnightblue" d="M339.682,-60.8379C393.741,-63.0766 469.967,-68.034 536,-79 548.973,-81.1545 562.717,-84.2073 575.727,-87.4672"/>
<polygon fill="midnightblue" stroke="midnightblue" points="574.95,-90.8812 585.507,-89.989 576.697,-84.1029 574.95,-90.8812"/>
</g>
<!-- Node17 -->
<g id="node17" class="node"><title>Node17</title>
<g id="a_node17"><a xlink:href="../../dc/d96/classutility_1_1_map_copier.html#ac8e90b5098e6d4ddb43054bd12f47842" target="_top" xlink:title="utility.MapCopier.copyOf\lDoubleArray">
<polygon fill="white" stroke="black" points="395,-0 395,-30 525,-30 525,-0 395,-0"/>
<text text-anchor="start" x="403" y="-18" font-family="Helvetica,sans-Serif" font-size="10.00">utility.MapCopier.copyOf</text>
<text text-anchor="middle" x="460" y="-7" font-family="Helvetica,sans-Serif" font-size="10.00">DoubleArray</text>
</a>
</g>
</g>
<!-- Node16&#45;&gt;Node17 -->
<g id="edge16" class="edge"><title>Node16&#45;&gt;Node17</title>
<path fill="none" stroke="midnightblue" d="M310.227,-49.4527C332.003,-44.4099 359.398,-38.0657 384.727,-32.2"/>
<polygon fill="midnightblue" stroke="midnightblue" points="385.735,-35.5594 394.687,-29.8935 384.155,-28.7399 385.735,-35.5594"/>
</g>
</g>
</svg>
