<?xml version="1.0" encoding="UTF-8" standalone="no"?>
<!DOCTYPE svg PUBLIC "-//W3C//DTD SVG 1.1//EN"
 "http://www.w3.org/Graphics/SVG/1.1/DTD/svg11.dtd">
<!-- Generated by graphviz version 2.36.0 (20140111.2315)
 -->
<!-- Title: animation.GUICreator.GUICreator Pages: 1 -->
<svg width="1846pt" height="717pt"
 viewBox="0.00 0.00 1846.00 717.00" xmlns="http://www.w3.org/2000/svg" xmlns:xlink="http://www.w3.org/1999/xlink">
<g id="graph0" class="graph" transform="scale(1 1) rotate(0) translate(4 713)">
<title>animation.GUICreator.GUICreator</title>
<polygon fill="white" stroke="none" points="-4,4 -4,-713 1842,-713 1842,4 -4,4"/>
<!-- Node1 -->
<g id="node1" class="node"><title>Node1</title>
<polygon fill="#bfbfbf" stroke="black" points="0,-393.5 0,-412.5 176,-412.5 176,-393.5 0,-393.5"/>
<text text-anchor="middle" x="88" y="-400.5" font-family="Helvetica,sans-Serif" font-size="10.00">animation.GUICreator.GUICreator</text>
</g>
<!-- Node2 -->
<g id="node2" class="node"><title>Node2</title>
<g id="a_node2"><a xlink:href="../../d2/d60/classanimation_1_1_g_u_i_creator.html#a9e1146fc27571ad138c4718cd237494b" target="_top" xlink:title="animation.GUICreator.add\lButtonGrid">
<polygon fill="white" stroke="black" points="1042.5,-678 1042.5,-708 1183.5,-708 1183.5,-678 1042.5,-678"/>
<text text-anchor="start" x="1050.5" y="-696" font-family="Helvetica,sans-Serif" font-size="10.00">animation.GUICreator.add</text>
<text text-anchor="middle" x="1113" y="-685" font-family="Helvetica,sans-Serif" font-size="10.00">ButtonGrid</text>
</a>
</g>
</g>
<!-- Node1&#45;&gt;Node2 -->
<g id="edge1" class="edge"><title>Node1&#45;&gt;Node2</title>
<path fill="none" stroke="midnightblue" d="M97.722,-412.625C137.58,-455.5 308.07,-627 485,-627 485,-627 485,-627 680,-627 808.993,-627 957.193,-656.111 1042.19,-675.666"/>
<polygon fill="midnightblue" stroke="midnightblue" points="1041.45,-679.087 1051.99,-677.941 1043.04,-672.269 1041.45,-679.087"/>
</g>
<!-- Node3 -->
<g id="node3" class="node"><title>Node3</title>
<g id="a_node3"><a xlink:href="../../d2/d60/classanimation_1_1_g_u_i_creator.html#ac4c8bd0d5bc08d30393866736d995aa5" target="_top" xlink:title="animation.GUICreator.addload\lXMLButton">
<polygon fill="white" stroke="black" points="212.5,-437 212.5,-467 373.5,-467 373.5,-437 212.5,-437"/>
<text text-anchor="start" x="220.5" y="-455" font-family="Helvetica,sans-Serif" font-size="10.00">animation.GUICreator.addload</text>
<text text-anchor="middle" x="293" y="-444" font-family="Helvetica,sans-Serif" font-size="10.00">XMLButton</text>
</a>
</g>
</g>
<!-- Node1&#45;&gt;Node3 -->
<g id="edge2" class="edge"><title>Node1&#45;&gt;Node3</title>
<path fill="none" stroke="midnightblue" d="M128.622,-412.564C154.547,-418.822 189.181,-427.182 219.888,-434.594"/>
<polygon fill="midnightblue" stroke="midnightblue" points="219.162,-438.019 229.704,-436.963 220.804,-431.214 219.162,-438.019"/>
</g>
<!-- Node40 -->
<g id="node40" class="node"><title>Node40</title>
<g id="a_node40"><a xlink:href="../../d2/d60/classanimation_1_1_g_u_i_creator.html#a9b3a3c39fb8e2707d27583f19179cb72" target="_top" xlink:title="animation.GUICreator.add\lPauseButton">
<polygon fill="white" stroke="black" points="222.5,-388 222.5,-418 363.5,-418 363.5,-388 222.5,-388"/>
<text text-anchor="start" x="230.5" y="-406" font-family="Helvetica,sans-Serif" font-size="10.00">animation.GUICreator.add</text>
<text text-anchor="middle" x="293" y="-395" font-family="Helvetica,sans-Serif" font-size="10.00">PauseButton</text>
</a>
</g>
</g>
<!-- Node1&#45;&gt;Node40 -->
<g id="edge41" class="edge"><title>Node1&#45;&gt;Node40</title>
<path fill="none" stroke="midnightblue" d="M176.268,-403C188.154,-403 200.305,-403 212.052,-403"/>
<polygon fill="midnightblue" stroke="midnightblue" points="212.254,-406.5 222.254,-403 212.254,-399.5 212.254,-406.5"/>
</g>
<!-- Node42 -->
<g id="node42" class="node"><title>Node42</title>
<g id="a_node42"><a xlink:href="../../d2/d60/classanimation_1_1_g_u_i_creator.html#a0caeab021a4cf55ae58528baea185816" target="_top" xlink:title="animation.GUICreator.add\lPlayButton">
<polygon fill="white" stroke="black" points="222.5,-339 222.5,-369 363.5,-369 363.5,-339 222.5,-339"/>
<text text-anchor="start" x="230.5" y="-357" font-family="Helvetica,sans-Serif" font-size="10.00">animation.GUICreator.add</text>
<text text-anchor="middle" x="293" y="-346" font-family="Helvetica,sans-Serif" font-size="10.00">PlayButton</text>
</a>
</g>
</g>
<!-- Node1&#45;&gt;Node42 -->
<g id="edge43" class="edge"><title>Node1&#45;&gt;Node42</title>
<path fill="none" stroke="midnightblue" d="M128.622,-393.436C154.547,-387.178 189.181,-378.818 219.888,-371.406"/>
<polygon fill="midnightblue" stroke="midnightblue" points="220.804,-374.786 229.704,-369.037 219.162,-367.981 220.804,-374.786"/>
</g>
<!-- Node44 -->
<g id="node44" class="node"><title>Node44</title>
<g id="a_node44"><a xlink:href="../../d2/d60/classanimation_1_1_g_u_i_creator.html#abca39c7b569172fd9bb8c7c8feef886c" target="_top" xlink:title="animation.GUICreator.add\lStepButton">
<polygon fill="white" stroke="black" points="222.5,-290 222.5,-320 363.5,-320 363.5,-290 222.5,-290"/>
<text text-anchor="start" x="230.5" y="-308" font-family="Helvetica,sans-Serif" font-size="10.00">animation.GUICreator.add</text>
<text text-anchor="middle" x="293" y="-297" font-family="Helvetica,sans-Serif" font-size="10.00">StepButton</text>
</a>
</g>
</g>
<!-- Node1&#45;&gt;Node44 -->
<g id="edge45" class="edge"><title>Node1&#45;&gt;Node44</title>
<path fill="none" stroke="midnightblue" d="M102.406,-393.386C124.379,-377.992 169.838,-347.653 212,-329 216.409,-327.049 221.023,-325.2 225.713,-323.46"/>
<polygon fill="midnightblue" stroke="midnightblue" points="227.14,-326.668 235.407,-320.041 224.812,-320.066 227.14,-326.668"/>
</g>
<!-- Node4 -->
<g id="node4" class="node"><title>Node4</title>
<g id="a_node4"><a xlink:href="../../d2/d60/classanimation_1_1_g_u_i_creator.html#a61c68b3e24b62788dab86e5240991107" target="_top" xlink:title="animation.GUICreator.load\lAction">
<polygon fill="white" stroke="black" points="414.5,-437 414.5,-467 557.5,-467 557.5,-437 414.5,-437"/>
<text text-anchor="start" x="422.5" y="-455" font-family="Helvetica,sans-Serif" font-size="10.00">animation.GUICreator.load</text>
<text text-anchor="middle" x="486" y="-444" font-family="Helvetica,sans-Serif" font-size="10.00">Action</text>
</a>
</g>
</g>
<!-- Node3&#45;&gt;Node4 -->
<g id="edge3" class="edge"><title>Node3&#45;&gt;Node4</title>
<path fill="none" stroke="midnightblue" d="M373.618,-452C383.752,-452 394.131,-452 404.282,-452"/>
<polygon fill="midnightblue" stroke="midnightblue" points="404.339,-455.5 414.339,-452 404.339,-448.5 404.339,-455.5"/>
</g>
<!-- Node5 -->
<g id="node5" class="node"><title>Node5</title>
<g id="a_node5"><a xlink:href="../../d6/da5/classcellsociety__team05_1_1_master.html#ac10570db09b5b348c023bbd5e1df801b" target="_top" xlink:title="cellsociety_team05.Master.init">
<polygon fill="white" stroke="black" points="598.5,-267.5 598.5,-286.5 759.5,-286.5 759.5,-267.5 598.5,-267.5"/>
<text text-anchor="middle" x="679" y="-274.5" font-family="Helvetica,sans-Serif" font-size="10.00">cellsociety_team05.Master.init</text>
</a>
</g>
</g>
<!-- Node4&#45;&gt;Node5 -->
<g id="edge4" class="edge"><title>Node4&#45;&gt;Node5</title>
<path fill="none" stroke="midnightblue" d="M544.438,-436.858C550.632,-434.074 556.627,-430.813 562,-427 612.39,-391.243 651.244,-327.29 668.393,-295.704"/>
<polygon fill="midnightblue" stroke="midnightblue" points="671.594,-297.138 673.185,-286.663 665.409,-293.86 671.594,-297.138"/>
</g>
<!-- Node6 -->
<g id="node6" class="node"><title>Node6</title>
<g id="a_node6"><a xlink:href="../../df/dd6/classcellsociety__team05_1_1_initializer.html#a27fd92c138189041dcd519cff632d61e" target="_top" xlink:title="cellsociety_team05.Initializer.readXML">
<polygon fill="white" stroke="black" points="796.5,-365.5 796.5,-384.5 993.5,-384.5 993.5,-365.5 796.5,-365.5"/>
<text text-anchor="middle" x="895" y="-372.5" font-family="Helvetica,sans-Serif" font-size="10.00">cellsociety_team05.Initializer.readXML</text>
</a>
</g>
</g>
<!-- Node5&#45;&gt;Node6 -->
<g id="edge5" class="edge"><title>Node5&#45;&gt;Node6</title>
<path fill="none" stroke="midnightblue" d="M690.942,-286.763C710.522,-303.671 753.49,-338.292 796,-356 802.288,-358.619 808.955,-360.882 815.737,-362.836"/>
<polygon fill="midnightblue" stroke="midnightblue" points="815.162,-366.305 825.725,-365.484 816.955,-359.538 815.162,-366.305"/>
</g>
<!-- Node7 -->
<g id="node7" class="node"><title>Node7</title>
<g id="a_node7"><a xlink:href="../../df/dd6/classcellsociety__team05_1_1_initializer.html#abb7d4a529b0f347ca21442045dd4e3f3" target="_top" xlink:title="cellsociety_team05.Initializer.setup">
<polygon fill="white" stroke="black" points="803.5,-327.5 803.5,-346.5 986.5,-346.5 986.5,-327.5 803.5,-327.5"/>
<text text-anchor="middle" x="895" y="-334.5" font-family="Helvetica,sans-Serif" font-size="10.00">cellsociety_team05.Initializer.setup</text>
</a>
</g>
</g>
<!-- Node5&#45;&gt;Node7 -->
<g id="edge6" class="edge"><title>Node5&#45;&gt;Node7</title>
<path fill="none" stroke="midnightblue" d="M708.936,-286.516C732.316,-294.075 766.13,-304.716 796,-313 810.949,-317.146 827.283,-321.296 842.256,-324.95"/>
<polygon fill="midnightblue" stroke="midnightblue" points="841.827,-328.448 852.37,-327.395 843.472,-321.644 841.827,-328.448"/>
</g>
<!-- Node9 -->
<g id="node9" class="node"><title>Node9</title>
<g id="a_node9"><a xlink:href="../../d9/d7b/classsimulations_1_1_sim.html#a252032535fe50e2eeabefc83cff438b3" target="_top" xlink:title="simulations.Sim.initMap">
<polygon fill="white" stroke="black" points="1047.5,-289.5 1047.5,-308.5 1178.5,-308.5 1178.5,-289.5 1047.5,-289.5"/>
<text text-anchor="middle" x="1113" y="-296.5" font-family="Helvetica,sans-Serif" font-size="10.00">simulations.Sim.initMap</text>
</a>
</g>
</g>
<!-- Node5&#45;&gt;Node9 -->
<g id="edge14" class="edge"><title>Node5&#45;&gt;Node9</title>
<path fill="none" stroke="midnightblue" d="M759.739,-281.061C838.951,-285.095 959.487,-291.233 1037,-295.181"/>
<polygon fill="midnightblue" stroke="midnightblue" points="1037.01,-298.685 1047.17,-295.699 1037.36,-291.694 1037.01,-298.685"/>
</g>
<!-- Node14 -->
<g id="node14" class="node"><title>Node14</title>
<g id="a_node14"><a xlink:href="../../d5/d80/classerror_1_1_x_m_l_not_found_exception.html#abf33f412c1b987517e43b10021909e5f" target="_top" xlink:title="error.XMLNotFoundException.return\lDefaultSim">
<polygon fill="white" stroke="black" points="801.5,-240 801.5,-270 988.5,-270 988.5,-240 801.5,-240"/>
<text text-anchor="start" x="809.5" y="-258" font-family="Helvetica,sans-Serif" font-size="10.00">error.XMLNotFoundException.return</text>
<text text-anchor="middle" x="895" y="-247" font-family="Helvetica,sans-Serif" font-size="10.00">DefaultSim</text>
</a>
</g>
</g>
<!-- Node5&#45;&gt;Node14 -->
<g id="edge13" class="edge"><title>Node5&#45;&gt;Node14</title>
<path fill="none" stroke="midnightblue" d="M759.686,-268.808C769.952,-267.753 780.578,-266.66 791.149,-265.573"/>
<polygon fill="midnightblue" stroke="midnightblue" points="791.665,-269.039 801.255,-264.535 790.949,-262.076 791.665,-269.039"/>
</g>
<!-- Node15 -->
<g id="node15" class="node"><title>Node15</title>
<g id="a_node15"><a xlink:href="../../d9/d7b/classsimulations_1_1_sim.html#af34d99b6d024da2704ee799bb0e94e48" target="_top" xlink:title="simulations.Sim.getData">
<polygon fill="white" stroke="black" points="827.5,-201.5 827.5,-220.5 962.5,-220.5 962.5,-201.5 827.5,-201.5"/>
<text text-anchor="middle" x="895" y="-208.5" font-family="Helvetica,sans-Serif" font-size="10.00">simulations.Sim.getData</text>
</a>
</g>
</g>
<!-- Node5&#45;&gt;Node15 -->
<g id="edge15" class="edge"><title>Node5&#45;&gt;Node15</title>
<path fill="none" stroke="midnightblue" d="M700.108,-267.459C722.91,-256.971 761.418,-240.253 796,-230 805.346,-227.229 815.317,-224.758 825.186,-222.59"/>
<polygon fill="midnightblue" stroke="midnightblue" points="825.931,-226.01 834.994,-220.522 824.488,-219.16 825.931,-226.01"/>
</g>
<!-- Node18 -->
<g id="node18" class="node"><title>Node18</title>
<g id="a_node18"><a xlink:href="../../dc/d26/classutility_1_1_sim_data.html#acc4d2abaf2a354b4838b175eaa0e1514" target="_top" xlink:title="utility.SimData.simFPS">
<polygon fill="white" stroke="black" points="833,-163.5 833,-182.5 957,-182.5 957,-163.5 833,-163.5"/>
<text text-anchor="middle" x="895" y="-170.5" font-family="Helvetica,sans-Serif" font-size="10.00">utility.SimData.simFPS</text>
</a>
</g>
</g>
<!-- Node5&#45;&gt;Node18 -->
<g id="edge18" class="edge"><title>Node5&#45;&gt;Node18</title>
<path fill="none" stroke="midnightblue" d="M689.889,-267.317C708.787,-249.409 752.074,-211.193 796,-192 804.455,-188.306 813.633,-185.326 822.866,-182.924"/>
<polygon fill="midnightblue" stroke="midnightblue" points="823.96,-186.261 832.875,-180.537 822.336,-179.452 823.96,-186.261"/>
</g>
<!-- Node19 -->
<g id="node19" class="node"><title>Node19</title>
<g id="a_node19"><a xlink:href="../../d9/dd0/classcellsociety__team05_1_1_scene_updater.html#a797cf5fc8c06caca14a6415e348ee2d0" target="_top" xlink:title="cellsociety_team05.Scene\lUpdater.newScene">
<polygon fill="white" stroke="black" points="824,-503 824,-533 966,-533 966,-503 824,-503"/>
<text text-anchor="start" x="832" y="-521" font-family="Helvetica,sans-Serif" font-size="10.00">cellsociety_team05.Scene</text>
<text text-anchor="middle" x="895" y="-510" font-family="Helvetica,sans-Serif" font-size="10.00">Updater.newScene</text>
</a>
</g>
</g>
<!-- Node5&#45;&gt;Node19 -->
<g id="edge19" class="edge"><title>Node5&#45;&gt;Node19</title>
<path fill="none" stroke="midnightblue" d="M688.654,-286.746C720.051,-322.104 828.491,-444.226 873.828,-495.283"/>
<polygon fill="midnightblue" stroke="midnightblue" points="871.284,-497.689 880.541,-502.843 876.518,-493.042 871.284,-497.689"/>
</g>
<!-- Node30 -->
<g id="node30" class="node"><title>Node30</title>
<g id="a_node30"><a xlink:href="../../d9/d7b/classsimulations_1_1_sim.html#a8c026c1b2a11b896470c72c4dc123b5e" target="_top" xlink:title="simulations.Sim.getParameters">
<polygon fill="white" stroke="black" points="811.5,-125.5 811.5,-144.5 978.5,-144.5 978.5,-125.5 811.5,-125.5"/>
<text text-anchor="middle" x="895" y="-132.5" font-family="Helvetica,sans-Serif" font-size="10.00">simulations.Sim.getParameters</text>
</a>
</g>
</g>
<!-- Node5&#45;&gt;Node30 -->
<g id="edge31" class="edge"><title>Node5&#45;&gt;Node30</title>
<path fill="none" stroke="midnightblue" d="M685.921,-267.41C701.027,-243.835 743.54,-182.87 796,-154 800.192,-151.693 804.62,-149.663 809.184,-147.876"/>
<polygon fill="midnightblue" stroke="midnightblue" points="810.429,-151.149 818.71,-144.541 808.116,-144.542 810.429,-151.149"/>
</g>
<!-- Node31 -->
<g id="node31" class="node"><title>Node31</title>
<g id="a_node31"><a xlink:href="../../d6/da5/classcellsociety__team05_1_1_master.html#ac07c303c9783fa437ccf0c702effcffd" target="_top" xlink:title="cellsociety_team05.Master.play">
<polygon fill="white" stroke="black" points="811.5,-87.5 811.5,-106.5 978.5,-106.5 978.5,-87.5 811.5,-87.5"/>
<text text-anchor="middle" x="895" y="-94.5" font-family="Helvetica,sans-Serif" font-size="10.00">cellsociety_team05.Master.play</text>
</a>
</g>
</g>
<!-- Node5&#45;&gt;Node31 -->
<g id="edge32" class="edge"><title>Node5&#45;&gt;Node31</title>
<path fill="none" stroke="midnightblue" d="M683.816,-267.455C695.668,-239.142 734.761,-155.164 796,-116 799.219,-113.941 802.61,-112.097 806.12,-110.444"/>
<polygon fill="midnightblue" stroke="midnightblue" points="807.749,-113.558 815.653,-106.503 805.074,-107.089 807.749,-113.558"/>
</g>
<!-- Node8 -->
<g id="node8" class="node"><title>Node8</title>
<g id="a_node8"><a xlink:href="../../d3/dcc/classutility_1_1_reader.html#a69e7980c5726194ebc4f42f6baf66ca1" target="_top" xlink:title="utility.Reader.returnSim">
<polygon fill="white" stroke="black" points="1049.5,-327.5 1049.5,-346.5 1176.5,-346.5 1176.5,-327.5 1049.5,-327.5"/>
<text text-anchor="middle" x="1113" y="-334.5" font-family="Helvetica,sans-Serif" font-size="10.00">utility.Reader.returnSim</text>
</a>
</g>
</g>
<!-- Node7&#45;&gt;Node8 -->
<g id="edge7" class="edge"><title>Node7&#45;&gt;Node8</title>
<path fill="none" stroke="midnightblue" d="M986.665,-337C1004.16,-337 1022.28,-337 1039.12,-337"/>
<polygon fill="midnightblue" stroke="midnightblue" points="1039.42,-340.5 1049.42,-337 1039.42,-333.5 1039.42,-340.5"/>
</g>
<!-- Node7&#45;&gt;Node9 -->
<g id="edge8" class="edge"><title>Node7&#45;&gt;Node9</title>
<path fill="none" stroke="midnightblue" d="M950.227,-327.46C979.884,-322.243 1016.8,-315.747 1047.88,-310.28"/>
<polygon fill="midnightblue" stroke="midnightblue" points="1048.51,-313.724 1057.75,-308.544 1047.3,-306.83 1048.51,-313.724"/>
</g>
<!-- Node10 -->
<g id="node10" class="node"><title>Node10</title>
<g id="a_node10"><a xlink:href="../../d9/d7b/classsimulations_1_1_sim.html#a8053def01cba47bd9c66e26745495087" target="_top" xlink:title="simulations.Sim.populate">
<polygon fill="white" stroke="black" points="1252,-289.5 1252,-308.5 1390,-308.5 1390,-289.5 1252,-289.5"/>
<text text-anchor="middle" x="1321" y="-296.5" font-family="Helvetica,sans-Serif" font-size="10.00">simulations.Sim.populate</text>
</a>
</g>
</g>
<!-- Node9&#45;&gt;Node10 -->
<g id="edge9" class="edge"><title>Node9&#45;&gt;Node10</title>
<path fill="none" stroke="midnightblue" d="M1178.61,-299C1198.59,-299 1220.81,-299 1241.62,-299"/>
<polygon fill="midnightblue" stroke="midnightblue" points="1241.7,-302.5 1251.7,-299 1241.7,-295.5 1241.7,-302.5"/>
</g>
<!-- Node11 -->
<g id="node11" class="node"><title>Node11</title>
<g id="a_node11"><a xlink:href="../../d9/d7b/classsimulations_1_1_sim.html#adbed7e9c387ef5889ce9cf6c7c302ef3" target="_top" xlink:title="simulations.Sim.fillCell">
<polygon fill="white" stroke="black" points="1468.5,-289.5 1468.5,-308.5 1591.5,-308.5 1591.5,-289.5 1468.5,-289.5"/>
<text text-anchor="middle" x="1530" y="-296.5" font-family="Helvetica,sans-Serif" font-size="10.00">simulations.Sim.fillCell</text>
</a>
</g>
</g>
<!-- Node10&#45;&gt;Node11 -->
<g id="edge10" class="edge"><title>Node10&#45;&gt;Node11</title>
<path fill="none" stroke="midnightblue" d="M1390.07,-299C1411.84,-299 1435.98,-299 1457.96,-299"/>
<polygon fill="midnightblue" stroke="midnightblue" points="1458.22,-302.5 1468.22,-299 1458.22,-295.5 1458.22,-302.5"/>
</g>
<!-- Node12 -->
<g id="node12" class="node"><title>Node12</title>
<g id="a_node12"><a xlink:href="../../d9/d7b/classsimulations_1_1_sim.html#a16809fc8db2a3e21f8169a487aeff124" target="_top" xlink:title="simulations.Sim.checkCell">
<polygon fill="white" stroke="black" points="1673.5,-308.5 1673.5,-327.5 1814.5,-327.5 1814.5,-308.5 1673.5,-308.5"/>
<text text-anchor="middle" x="1744" y="-315.5" font-family="Helvetica,sans-Serif" font-size="10.00">simulations.Sim.checkCell</text>
</a>
</g>
</g>
<!-- Node11&#45;&gt;Node12 -->
<g id="edge11" class="edge"><title>Node11&#45;&gt;Node12</title>
<path fill="none" stroke="midnightblue" d="M1591.75,-304.445C1614.02,-306.44 1639.57,-308.73 1663.25,-310.853"/>
<polygon fill="midnightblue" stroke="midnightblue" points="1663,-314.344 1673.27,-311.751 1663.62,-307.372 1663,-314.344"/>
</g>
<!-- Node13 -->
<g id="node13" class="node"><title>Node13</title>
<g id="a_node13"><a xlink:href="../../d9/d7b/classsimulations_1_1_sim.html#a4da2ab43816b7e030ba62c1a10c82cf6" target="_top" xlink:title="simulations.Sim.setCell">
<polygon fill="white" stroke="black" points="1680,-270.5 1680,-289.5 1808,-289.5 1808,-270.5 1680,-270.5"/>
<text text-anchor="middle" x="1744" y="-277.5" font-family="Helvetica,sans-Serif" font-size="10.00">simulations.Sim.setCell</text>
</a>
</g>
</g>
<!-- Node11&#45;&gt;Node13 -->
<g id="edge12" class="edge"><title>Node11&#45;&gt;Node13</title>
<path fill="none" stroke="midnightblue" d="M1591.75,-293.555C1616.05,-291.377 1644.26,-288.849 1669.69,-286.57"/>
<polygon fill="midnightblue" stroke="midnightblue" points="1670.01,-290.056 1679.66,-285.677 1669.38,-283.084 1670.01,-290.056"/>
</g>
<!-- Node16 -->
<g id="node16" class="node"><title>Node16</title>
<g id="a_node16"><a xlink:href="../../dc/d96/classutility_1_1_map_copier.html#a3308fa4bb52f888a9059da1c1d8380c0" target="_top" xlink:title="utility.MapCopier.copyOf\lArray">
<polygon fill="white" stroke="black" points="1048,-218 1048,-248 1178,-248 1178,-218 1048,-218"/>
<text text-anchor="start" x="1056" y="-236" font-family="Helvetica,sans-Serif" font-size="10.00">utility.MapCopier.copyOf</text>
<text text-anchor="middle" x="1113" y="-225" font-family="Helvetica,sans-Serif" font-size="10.00">Array</text>
</a>
</g>
</g>
<!-- Node15&#45;&gt;Node16 -->
<g id="edge16" class="edge"><title>Node15&#45;&gt;Node16</title>
<path fill="none" stroke="midnightblue" d="M962.57,-217.78C986.323,-220.2 1013.23,-222.94 1037.6,-225.422"/>
<polygon fill="midnightblue" stroke="midnightblue" points="1037.57,-228.937 1047.87,-226.468 1038.28,-221.973 1037.57,-228.937"/>
</g>
<!-- Node17 -->
<g id="node17" class="node"><title>Node17</title>
<g id="a_node17"><a xlink:href="../../d9/d7b/classsimulations_1_1_sim.html#afc6df6fab0b427978dff42e7ef600759" target="_top" xlink:title="simulations.Sim.simTitle">
<polygon fill="white" stroke="black" points="1046.5,-179.5 1046.5,-198.5 1179.5,-198.5 1179.5,-179.5 1046.5,-179.5"/>
<text text-anchor="middle" x="1113" y="-186.5" font-family="Helvetica,sans-Serif" font-size="10.00">simulations.Sim.simTitle</text>
</a>
</g>
</g>
<!-- Node15&#45;&gt;Node17 -->
<g id="edge17" class="edge"><title>Node15&#45;&gt;Node17</title>
<path fill="none" stroke="midnightblue" d="M962.57,-204.22C985.889,-201.845 1012.25,-199.16 1036.26,-196.714"/>
<polygon fill="midnightblue" stroke="midnightblue" points="1036.8,-200.178 1046.39,-195.682 1036.09,-193.214 1036.8,-200.178"/>
</g>
<!-- Node19&#45;&gt;Node2 -->
<g id="edge27" class="edge"><title>Node19&#45;&gt;Node2</title>
<path fill="none" stroke="midnightblue" d="M913.793,-533.078C934.368,-550.983 968.652,-582.304 994,-613 1012.6,-635.527 1006.63,-650.469 1030,-668 1032.48,-669.86 1035.1,-671.583 1037.82,-673.179"/>
<polygon fill="midnightblue" stroke="midnightblue" points="1036.31,-676.339 1046.8,-677.855 1039.54,-670.131 1036.31,-676.339"/>
</g>
<!-- Node20 -->
<g id="node20" class="node"><title>Node20</title>
<g id="a_node20"><a xlink:href="../../d1/d85/classutility_1_1_color_picker.html#a2bbe92796cec2866c8aac7f7576dbb34" target="_top" xlink:title="utility.ColorPicker.setColors">
<polygon fill="white" stroke="black" points="1041,-639.5 1041,-658.5 1185,-658.5 1185,-639.5 1041,-639.5"/>
<text text-anchor="middle" x="1113" y="-646.5" font-family="Helvetica,sans-Serif" font-size="10.00">utility.ColorPicker.setColors</text>
</a>
</g>
</g>
<!-- Node19&#45;&gt;Node20 -->
<g id="edge20" class="edge"><title>Node19&#45;&gt;Node20</title>
<path fill="none" stroke="midnightblue" d="M909.617,-533.297C932.169,-557.643 979.787,-605 1030,-630 1034.82,-632.402 1039.96,-634.506 1045.22,-636.348"/>
<polygon fill="midnightblue" stroke="midnightblue" points="1044.18,-639.691 1054.77,-639.389 1046.3,-633.021 1044.18,-639.691"/>
</g>
<!-- Node21 -->
<g id="node21" class="node"><title>Node21</title>
<g id="a_node21"><a xlink:href="../../df/d60/classutility_1_1_grid_filler.html#a30e2905099098e9d06cb1d22339af1c7" target="_top" xlink:title="utility.GridFiller.fill">
<polygon fill="white" stroke="black" points="1065,-601.5 1065,-620.5 1161,-620.5 1161,-601.5 1065,-601.5"/>
<text text-anchor="middle" x="1113" y="-608.5" font-family="Helvetica,sans-Serif" font-size="10.00">utility.GridFiller.fill</text>
</a>
</g>
</g>
<!-- Node19&#45;&gt;Node21 -->
<g id="edge21" class="edge"><title>Node19&#45;&gt;Node21</title>
<path fill="none" stroke="midnightblue" d="M919.304,-533.138C945.349,-549.465 989.231,-575.233 1030,-591 1037.96,-594.077 1046.54,-596.789 1055.04,-599.143"/>
<polygon fill="midnightblue" stroke="midnightblue" points="1054.39,-602.591 1064.95,-601.742 1056.17,-595.82 1054.39,-602.591"/>
</g>
<!-- Node23 -->
<g id="node23" class="node"><title>Node23</title>
<g id="a_node23"><a xlink:href="../../d9/dd0/classcellsociety__team05_1_1_scene_updater.html#a545cdd62a8b34d5d85411323a3395bf7" target="_top" xlink:title="cellsociety_team05.Scene\lUpdater.returnGUI">
<polygon fill="white" stroke="black" points="1042,-552 1042,-582 1184,-582 1184,-552 1042,-552"/>
<text text-anchor="start" x="1050" y="-570" font-family="Helvetica,sans-Serif" font-size="10.00">cellsociety_team05.Scene</text>
<text text-anchor="middle" x="1113" y="-559" font-family="Helvetica,sans-Serif" font-size="10.00">Updater.returnGUI</text>
</a>
</g>
</g>
<!-- Node19&#45;&gt;Node23 -->
<g id="edge23" class="edge"><title>Node19&#45;&gt;Node23</title>
<path fill="none" stroke="midnightblue" d="M962.275,-533.035C985.6,-538.326 1011.99,-544.313 1036.05,-549.771"/>
<polygon fill="midnightblue" stroke="midnightblue" points="1035.32,-553.195 1045.85,-551.994 1036.87,-546.368 1035.32,-553.195"/>
</g>
<!-- Node24 -->
<g id="node24" class="node"><title>Node24</title>
<g id="a_node24"><a xlink:href="../../d2/d60/classanimation_1_1_g_u_i_creator.html#a02433f642bdae8ac5c8f6485f71c0c2b" target="_top" xlink:title="animation.GUICreator.param\lLabels">
<polygon fill="white" stroke="black" points="1035.5,-503 1035.5,-533 1190.5,-533 1190.5,-503 1035.5,-503"/>
<text text-anchor="start" x="1043.5" y="-521" font-family="Helvetica,sans-Serif" font-size="10.00">animation.GUICreator.param</text>
<text text-anchor="middle" x="1113" y="-510" font-family="Helvetica,sans-Serif" font-size="10.00">Labels</text>
</a>
</g>
</g>
<!-- Node19&#45;&gt;Node24 -->
<g id="edge24" class="edge"><title>Node19&#45;&gt;Node24</title>
<path fill="none" stroke="midnightblue" d="M966.129,-518C984.906,-518 1005.43,-518 1025,-518"/>
<polygon fill="midnightblue" stroke="midnightblue" points="1025.13,-521.5 1035.13,-518 1025.13,-514.5 1025.13,-521.5"/>
</g>
<!-- Node25 -->
<g id="node25" class="node"><title>Node25</title>
<g id="a_node25"><a xlink:href="../../da/d16/classanimation_1_1_animated_graph.html#a5044ded5b535e0e440c6d1d5ce4585c8" target="_top" xlink:title="animation.AnimatedGraph.init">
<polygon fill="white" stroke="black" points="1032.5,-464.5 1032.5,-483.5 1193.5,-483.5 1193.5,-464.5 1032.5,-464.5"/>
<text text-anchor="middle" x="1113" y="-471.5" font-family="Helvetica,sans-Serif" font-size="10.00">animation.AnimatedGraph.init</text>
</a>
</g>
</g>
<!-- Node19&#45;&gt;Node25 -->
<g id="edge25" class="edge"><title>Node19&#45;&gt;Node25</title>
<path fill="none" stroke="midnightblue" d="M966.129,-503.714C994.857,-497.863 1027.68,-491.177 1054.9,-485.631"/>
<polygon fill="midnightblue" stroke="midnightblue" points="1055.94,-488.991 1065.04,-483.565 1054.55,-482.132 1055.94,-488.991"/>
</g>
<!-- Node27 -->
<g id="node27" class="node"><title>Node27</title>
<g id="a_node27"><a xlink:href="../../d2/d60/classanimation_1_1_g_u_i_creator.html#a66bb402660c9929c3b89d9625728ef1e" target="_top" xlink:title="animation.GUICreator.fps\lSlider">
<polygon fill="white" stroke="black" points="1044.5,-415 1044.5,-445 1181.5,-445 1181.5,-415 1044.5,-415"/>
<text text-anchor="start" x="1052.5" y="-433" font-family="Helvetica,sans-Serif" font-size="10.00">animation.GUICreator.fps</text>
<text text-anchor="middle" x="1113" y="-422" font-family="Helvetica,sans-Serif" font-size="10.00">Slider</text>
</a>
</g>
</g>
<!-- Node19&#45;&gt;Node27 -->
<g id="edge28" class="edge"><title>Node19&#45;&gt;Node27</title>
<path fill="none" stroke="midnightblue" d="M925.012,-502.876C951.804,-489.268 992.938,-469.277 1030,-455 1036.16,-452.628 1042.64,-450.327 1049.16,-448.144"/>
<polygon fill="midnightblue" stroke="midnightblue" points="1050.27,-451.465 1058.69,-445.037 1048.1,-444.81 1050.27,-451.465"/>
</g>
<!-- Node29 -->
<g id="node29" class="node"><title>Node29</title>
<g id="a_node29"><a xlink:href="../../d2/d60/classanimation_1_1_g_u_i_creator.html#aad6a5704677eac1c4eb00bb8fb6ee42e" target="_top" xlink:title="animation.GUICreator.param\lSliders">
<polygon fill="white" stroke="black" points="1035.5,-366 1035.5,-396 1190.5,-396 1190.5,-366 1035.5,-366"/>
<text text-anchor="start" x="1043.5" y="-384" font-family="Helvetica,sans-Serif" font-size="10.00">animation.GUICreator.param</text>
<text text-anchor="middle" x="1113" y="-373" font-family="Helvetica,sans-Serif" font-size="10.00">Sliders</text>
</a>
</g>
</g>
<!-- Node19&#45;&gt;Node29 -->
<g id="edge30" class="edge"><title>Node19&#45;&gt;Node29</title>
<path fill="none" stroke="midnightblue" d="M909.758,-502.89C932.507,-478.782 980.397,-431.627 1030,-405 1033.43,-403.158 1037.02,-401.442 1040.7,-399.845"/>
<polygon fill="midnightblue" stroke="midnightblue" points="1042.01,-403.088 1049.99,-396.116 1039.41,-396.592 1042.01,-403.088"/>
</g>
<!-- Node22 -->
<g id="node22" class="node"><title>Node22</title>
<g id="a_node22"><a xlink:href="../../d6/dff/classutility_1_1_cell_gen.html#a3a8e739f206100620d83c9a293902584" target="_top" xlink:title="utility.CellGen.makeShape">
<polygon fill="white" stroke="black" points="1250.5,-601.5 1250.5,-620.5 1391.5,-620.5 1391.5,-601.5 1250.5,-601.5"/>
<text text-anchor="middle" x="1321" y="-608.5" font-family="Helvetica,sans-Serif" font-size="10.00">utility.CellGen.makeShape</text>
</a>
</g>
</g>
<!-- Node21&#45;&gt;Node22 -->
<g id="edge22" class="edge"><title>Node21&#45;&gt;Node22</title>
<path fill="none" stroke="midnightblue" d="M1161,-611C1184.38,-611 1213.28,-611 1240.01,-611"/>
<polygon fill="midnightblue" stroke="midnightblue" points="1240.13,-614.5 1250.13,-611 1240.13,-607.5 1240.13,-614.5"/>
</g>
<!-- Node26 -->
<g id="node26" class="node"><title>Node26</title>
<g id="a_node26"><a xlink:href="../../da/d16/classanimation_1_1_animated_graph.html#a150d323ef1d77399b14739d2fa245021" target="_top" xlink:title="animation.AnimatedGraph.create\lAddSeries">
<polygon fill="white" stroke="black" points="1232.5,-461 1232.5,-491 1409.5,-491 1409.5,-461 1232.5,-461"/>
<text text-anchor="start" x="1240.5" y="-479" font-family="Helvetica,sans-Serif" font-size="10.00">animation.AnimatedGraph.create</text>
<text text-anchor="middle" x="1321" y="-468" font-family="Helvetica,sans-Serif" font-size="10.00">AddSeries</text>
</a>
</g>
</g>
<!-- Node25&#45;&gt;Node26 -->
<g id="edge26" class="edge"><title>Node25&#45;&gt;Node26</title>
<path fill="none" stroke="midnightblue" d="M1193.64,-474.773C1202.96,-474.864 1212.54,-474.957 1222.06,-475.049"/>
<polygon fill="midnightblue" stroke="midnightblue" points="1222.32,-478.552 1232.36,-475.149 1222.39,-471.552 1222.32,-478.552"/>
</g>
<!-- Node28 -->
<g id="node28" class="node"><title>Node28</title>
<g id="a_node28"><a xlink:href="../../d2/d60/classanimation_1_1_g_u_i_creator.html#a5bc0f0e5c1557be5cc7c752ea2d8fc8c" target="_top" xlink:title="animation.GUICreator.make\lSlider">
<polygon fill="white" stroke="black" points="1246,-412 1246,-442 1396,-442 1396,-412 1246,-412"/>
<text text-anchor="start" x="1254" y="-430" font-family="Helvetica,sans-Serif" font-size="10.00">animation.GUICreator.make</text>
<text text-anchor="middle" x="1321" y="-419" font-family="Helvetica,sans-Serif" font-size="10.00">Slider</text>
</a>
</g>
</g>
<!-- Node27&#45;&gt;Node28 -->
<g id="edge29" class="edge"><title>Node27&#45;&gt;Node28</title>
<path fill="none" stroke="midnightblue" d="M1181.74,-429.014C1198.97,-428.763 1217.71,-428.49 1235.66,-428.228"/>
<polygon fill="midnightblue" stroke="midnightblue" points="1235.88,-431.726 1245.83,-428.08 1235.78,-424.726 1235.88,-431.726"/>
</g>
<!-- Node32 -->
<g id="node32" class="node"><title>Node32</title>
<g id="a_node32"><a xlink:href="../../d6/da5/classcellsociety__team05_1_1_master.html#a9e0818f6e4d1389a401b337b2c5c9f81" target="_top" xlink:title="cellsociety_team05.Master.add\lKeyFrame">
<polygon fill="white" stroke="black" points="1030.5,-82 1030.5,-112 1195.5,-112 1195.5,-82 1030.5,-82"/>
<text text-anchor="start" x="1038.5" y="-100" font-family="Helvetica,sans-Serif" font-size="10.00">cellsociety_team05.Master.add</text>
<text text-anchor="middle" x="1113" y="-89" font-family="Helvetica,sans-Serif" font-size="10.00">KeyFrame</text>
</a>
</g>
</g>
<!-- Node31&#45;&gt;Node32 -->
<g id="edge33" class="edge"><title>Node31&#45;&gt;Node32</title>
<path fill="none" stroke="midnightblue" d="M978.585,-97C992.061,-97 1006.1,-97 1019.79,-97"/>
<polygon fill="midnightblue" stroke="midnightblue" points="1020.17,-100.5 1030.17,-97 1020.17,-93.5001 1020.17,-100.5"/>
</g>
<!-- Node33 -->
<g id="node33" class="node"><title>Node33</title>
<g id="a_node33"><a xlink:href="../../d6/da5/classcellsociety__team05_1_1_master.html#aef1f14e30284edb3e1f8c0c5636de390" target="_top" xlink:title="cellsociety_team05.Master.evolve">
<polygon fill="white" stroke="black" points="1232,-87.5 1232,-106.5 1410,-106.5 1410,-87.5 1232,-87.5"/>
<text text-anchor="middle" x="1321" y="-94.5" font-family="Helvetica,sans-Serif" font-size="10.00">cellsociety_team05.Master.evolve</text>
</a>
</g>
</g>
<!-- Node32&#45;&gt;Node33 -->
<g id="edge34" class="edge"><title>Node32&#45;&gt;Node33</title>
<path fill="none" stroke="midnightblue" d="M1195.71,-97C1204.27,-97 1213.03,-97 1221.75,-97"/>
<polygon fill="midnightblue" stroke="midnightblue" points="1221.95,-100.5 1231.95,-97 1221.95,-93.5001 1221.95,-100.5"/>
</g>
<!-- Node34 -->
<g id="node34" class="node"><title>Node34</title>
<g id="a_node34"><a xlink:href="../../d9/d7b/classsimulations_1_1_sim.html#a864a4b1e5ab91624cd70ed9fbdc855ac" target="_top" xlink:title="simulations.Sim.nextGen">
<polygon fill="white" stroke="black" points="1461.5,-175.5 1461.5,-194.5 1598.5,-194.5 1598.5,-175.5 1461.5,-175.5"/>
<text text-anchor="middle" x="1530" y="-182.5" font-family="Helvetica,sans-Serif" font-size="10.00">simulations.Sim.nextGen</text>
</a>
</g>
</g>
<!-- Node33&#45;&gt;Node34 -->
<g id="edge35" class="edge"><title>Node33&#45;&gt;Node34</title>
<path fill="none" stroke="midnightblue" d="M1336.65,-106.72C1359.23,-121.312 1404.32,-148.882 1446,-165 1453.75,-167.997 1462.09,-170.641 1470.38,-172.942"/>
<polygon fill="midnightblue" stroke="midnightblue" points="1469.5,-176.329 1480.06,-175.487 1471.28,-169.559 1469.5,-176.329"/>
</g>
<!-- Node35 -->
<g id="node35" class="node"><title>Node35</title>
<g id="a_node35"><a xlink:href="../../d9/dd0/classcellsociety__team05_1_1_scene_updater.html#a426e94fe0be8484ef5796171e64f8a3a" target="_top" xlink:title="cellsociety_team05.Scene\lUpdater.updateGraph">
<polygon fill="white" stroke="black" points="1459,-126 1459,-156 1601,-156 1601,-126 1459,-126"/>
<text text-anchor="start" x="1467" y="-144" font-family="Helvetica,sans-Serif" font-size="10.00">cellsociety_team05.Scene</text>
<text text-anchor="middle" x="1530" y="-133" font-family="Helvetica,sans-Serif" font-size="10.00">Updater.updateGraph</text>
</a>
</g>
</g>
<!-- Node33&#45;&gt;Node35 -->
<g id="edge36" class="edge"><title>Node33&#45;&gt;Node35</title>
<path fill="none" stroke="midnightblue" d="M1366.92,-106.547C1390.85,-111.635 1421.02,-118.047 1448.81,-123.956"/>
<polygon fill="midnightblue" stroke="midnightblue" points="1448.42,-127.451 1458.93,-126.106 1449.88,-120.604 1448.42,-127.451"/>
</g>
<!-- Node37 -->
<g id="node37" class="node"><title>Node37</title>
<g id="a_node37"><a xlink:href="../../d9/d7b/classsimulations_1_1_sim.html#ae840fd3e0813718f05bee889fb097fcc" target="_top" xlink:title="simulations.Sim.cellProportions">
<polygon fill="white" stroke="black" points="1446.5,-87.5 1446.5,-106.5 1613.5,-106.5 1613.5,-87.5 1446.5,-87.5"/>
<text text-anchor="middle" x="1530" y="-94.5" font-family="Helvetica,sans-Serif" font-size="10.00">simulations.Sim.cellProportions</text>
</a>
</g>
</g>
<!-- Node33&#45;&gt;Node37 -->
<g id="edge38" class="edge"><title>Node33&#45;&gt;Node37</title>
<path fill="none" stroke="midnightblue" d="M1410.09,-97C1418.71,-97 1427.47,-97 1436.14,-97"/>
<polygon fill="midnightblue" stroke="midnightblue" points="1436.25,-100.5 1446.25,-97 1436.25,-93.5001 1436.25,-100.5"/>
</g>
<!-- Node38 -->
<g id="node38" class="node"><title>Node38</title>
<g id="a_node38"><a xlink:href="../../d9/d7b/classsimulations_1_1_sim.html#aae4b6d35eccef9920616ce7a2fb86794" target="_top" xlink:title="simulations.Sim.setNewParams">
<polygon fill="white" stroke="black" points="1446.5,-49.5 1446.5,-68.5 1613.5,-68.5 1613.5,-49.5 1446.5,-49.5"/>
<text text-anchor="middle" x="1530" y="-56.5" font-family="Helvetica,sans-Serif" font-size="10.00">simulations.Sim.setNewParams</text>
</a>
</g>
</g>
<!-- Node33&#45;&gt;Node38 -->
<g id="edge39" class="edge"><title>Node33&#45;&gt;Node38</title>
<path fill="none" stroke="midnightblue" d="M1373.97,-87.46C1402.27,-82.2652 1437.46,-75.8037 1467.17,-70.3511"/>
<polygon fill="midnightblue" stroke="midnightblue" points="1467.81,-73.792 1477.01,-68.5439 1466.54,-66.9071 1467.81,-73.792"/>
</g>
<!-- Node39 -->
<g id="node39" class="node"><title>Node39</title>
<g id="a_node39"><a xlink:href="../../d9/dd0/classcellsociety__team05_1_1_scene_updater.html#abc68af978ebd0da668f37510dd34aaf4" target="_top" xlink:title="cellsociety_team05.Scene\lUpdater.newParams">
<polygon fill="white" stroke="black" points="1459,-0 1459,-30 1601,-30 1601,-0 1459,-0"/>
<text text-anchor="start" x="1467" y="-18" font-family="Helvetica,sans-Serif" font-size="10.00">cellsociety_team05.Scene</text>
<text text-anchor="middle" x="1530" y="-7" font-family="Helvetica,sans-Serif" font-size="10.00">Updater.newParams</text>
</a>
</g>
</g>
<!-- Node33&#45;&gt;Node39 -->
<g id="edge40" class="edge"><title>Node33&#45;&gt;Node39</title>
<path fill="none" stroke="midnightblue" d="M1340.56,-87.4844C1364.51,-75.4366 1407.66,-54.5054 1446,-40 1452.24,-37.6384 1458.81,-35.3449 1465.41,-33.1666"/>
<polygon fill="midnightblue" stroke="midnightblue" points="1466.61,-36.4569 1475.06,-30.0633 1464.47,-29.7931 1466.61,-36.4569"/>
</g>
<!-- Node36 -->
<g id="node36" class="node"><title>Node36</title>
<g id="a_node36"><a xlink:href="../../da/d16/classanimation_1_1_animated_graph.html#a784a1784f9e1ad102bcc7e194da19c44" target="_top" xlink:title="animation.AnimatedGraph.addData">
<polygon fill="white" stroke="black" points="1650,-131.5 1650,-150.5 1838,-150.5 1838,-131.5 1650,-131.5"/>
<text text-anchor="middle" x="1744" y="-138.5" font-family="Helvetica,sans-Serif" font-size="10.00">animation.AnimatedGraph.addData</text>
</a>
</g>
</g>
<!-- Node35&#45;&gt;Node36 -->
<g id="edge37" class="edge"><title>Node35&#45;&gt;Node36</title>
<path fill="none" stroke="midnightblue" d="M1601,-141C1613.28,-141 1626.29,-141 1639.25,-141"/>
<polygon fill="midnightblue" stroke="midnightblue" points="1639.62,-144.5 1649.62,-141 1639.62,-137.5 1639.62,-144.5"/>
</g>
<!-- Node41 -->
<g id="node41" class="node"><title>Node41</title>
<g id="a_node41"><a xlink:href="../../d2/d60/classanimation_1_1_g_u_i_creator.html#aa40b112271b6720e901c2b93c988d2eb" target="_top" xlink:title="animation.GUICreator.pause\lAction">
<polygon fill="white" stroke="black" points="410,-388 410,-418 562,-418 562,-388 410,-388"/>
<text text-anchor="start" x="418" y="-406" font-family="Helvetica,sans-Serif" font-size="10.00">animation.GUICreator.pause</text>
<text text-anchor="middle" x="486" y="-395" font-family="Helvetica,sans-Serif" font-size="10.00">Action</text>
</a>
</g>
</g>
<!-- Node40&#45;&gt;Node41 -->
<g id="edge42" class="edge"><title>Node40&#45;&gt;Node41</title>
<path fill="none" stroke="midnightblue" d="M363.766,-403C375.505,-403 387.805,-403 399.88,-403"/>
<polygon fill="midnightblue" stroke="midnightblue" points="399.953,-406.5 409.953,-403 399.953,-399.5 399.953,-406.5"/>
</g>
<!-- Node43 -->
<g id="node43" class="node"><title>Node43</title>
<g id="a_node43"><a xlink:href="../../d2/d60/classanimation_1_1_g_u_i_creator.html#a9631b5573447aeb7a796dad4e7380274" target="_top" xlink:title="animation.GUICreator.play\lAction">
<polygon fill="white" stroke="black" points="414.5,-339 414.5,-369 557.5,-369 557.5,-339 414.5,-339"/>
<text text-anchor="start" x="422.5" y="-357" font-family="Helvetica,sans-Serif" font-size="10.00">animation.GUICreator.play</text>
<text text-anchor="middle" x="486" y="-346" font-family="Helvetica,sans-Serif" font-size="10.00">Action</text>
</a>
</g>
</g>
<!-- Node42&#45;&gt;Node43 -->
<g id="edge44" class="edge"><title>Node42&#45;&gt;Node43</title>
<path fill="none" stroke="midnightblue" d="M363.766,-354C376.929,-354 390.796,-354 404.262,-354"/>
<polygon fill="midnightblue" stroke="midnightblue" points="404.463,-357.5 414.463,-354 404.463,-350.5 404.463,-357.5"/>
</g>
<!-- Node45 -->
<g id="node45" class="node"><title>Node45</title>
<g id="a_node45"><a xlink:href="../../d2/d60/classanimation_1_1_g_u_i_creator.html#ad7ab3add303595d363478b109df11111" target="_top" xlink:title="animation.GUICreator.step\lAction">
<polygon fill="white" stroke="black" points="414,-290 414,-320 558,-320 558,-290 414,-290"/>
<text text-anchor="start" x="422" y="-308" font-family="Helvetica,sans-Serif" font-size="10.00">animation.GUICreator.step</text>
<text text-anchor="middle" x="486" y="-297" font-family="Helvetica,sans-Serif" font-size="10.00">Action</text>
</a>
</g>
</g>
<!-- Node44&#45;&gt;Node45 -->
<g id="edge46" class="edge"><title>Node44&#45;&gt;Node45</title>
<path fill="none" stroke="midnightblue" d="M363.766,-305C376.759,-305 390.438,-305 403.741,-305"/>
<polygon fill="midnightblue" stroke="midnightblue" points="403.822,-308.5 413.822,-305 403.822,-301.5 403.822,-308.5"/>
</g>
</g>
</svg>
