<?xml version="1.0" encoding="UTF-8" standalone="no"?>
<!DOCTYPE svg PUBLIC "-//W3C//DTD SVG 1.1//EN"
 "http://www.w3.org/Graphics/SVG/1.1/DTD/svg11.dtd">
<!-- Generated by graphviz version 2.36.0 (20140111.2315)
 -->
<!-- Title: animation.GUICreator.newParams Pages: 1 -->
<svg width="380pt" height="185pt"
 viewBox="0.00 0.00 380.00 185.00" xmlns="http://www.w3.org/2000/svg" xmlns:xlink="http://www.w3.org/1999/xlink">
<g id="graph0" class="graph" transform="scale(1 1) rotate(0) translate(4 181)">
<title>animation.GUICreator.newParams</title>
<polygon fill="white" stroke="none" points="-4,4 -4,-181 376,-181 376,4 -4,4"/>
<!-- Node1 -->
<g id="node1" class="node"><title>Node1</title>
<polygon fill="#bfbfbf" stroke="black" points="0,-73 0,-103 142,-103 142,-73 0,-73"/>
<text text-anchor="start" x="8" y="-91" font-family="Helvetica,sans-Serif" font-size="10.00">animation.GUICreator.new</text>
<text text-anchor="middle" x="71" y="-80" font-family="Helvetica,sans-Serif" font-size="10.00">Params</text>
</g>
<!-- Node2 -->
<g id="node2" class="node"><title>Node2</title>
<g id="a_node2"><a xlink:href="../../d5/d52/classanimation_1_1_fire_animation.html#a91ff45e2f1ca4b877a906ef4f0bcde3b" target="_top" xlink:title="animation.FireAnimation.param\lSliders">
<polygon fill="white" stroke="black" points="191.5,-147 191.5,-177 358.5,-177 358.5,-147 191.5,-147"/>
<text text-anchor="start" x="199.5" y="-165" font-family="Helvetica,sans-Serif" font-size="10.00">animation.FireAnimation.param</text>
<text text-anchor="middle" x="275" y="-154" font-family="Helvetica,sans-Serif" font-size="10.00">Sliders</text>
</a>
</g>
</g>
<!-- Node1&#45;&gt;Node2 -->
<g id="edge1" class="edge"><title>Node1&#45;&gt;Node2</title>
<path fill="none" stroke="midnightblue" d="M110.145,-107.642C130.019,-117.357 154.932,-128.739 178,-137 188.134,-140.629 199.042,-143.976 209.741,-146.963"/>
<polygon fill="midnightblue" stroke="midnightblue" points="111.624,-104.469 101.109,-103.17 108.519,-110.742 111.624,-104.469"/>
</g>
<!-- Node3 -->
<g id="node3" class="node"><title>Node3</title>
<g id="a_node3"><a xlink:href="../../da/dfb/classanimation_1_1_schelling_animation.html#a33bfb54fb619d4814a21fa8c2eb3c299" target="_top" xlink:title="animation.SchellingAnimation.param\lSliders">
<polygon fill="white" stroke="black" points="178,-98 178,-128 372,-128 372,-98 178,-98"/>
<text text-anchor="start" x="186" y="-116" font-family="Helvetica,sans-Serif" font-size="10.00">animation.SchellingAnimation.param</text>
<text text-anchor="middle" x="275" y="-105" font-family="Helvetica,sans-Serif" font-size="10.00">Sliders</text>
</a>
</g>
</g>
<!-- Node1&#45;&gt;Node3 -->
<g id="edge2" class="edge"><title>Node1&#45;&gt;Node3</title>
<path fill="none" stroke="midnightblue" d="M152.195,-97.9252C160.581,-98.963 169.166,-100.025 177.706,-101.082"/>
<polygon fill="midnightblue" stroke="midnightblue" points="152.437,-94.4285 142.083,-96.6736 151.577,-101.375 152.437,-94.4285"/>
</g>
<!-- Node4 -->
<g id="node4" class="node"><title>Node4</title>
<g id="a_node4"><a xlink:href="../../de/df1/classanimation_1_1_wator_animation.html#ab11df8058d084470d02df276636b2fb9" target="_top" xlink:title="animation.WatorAnimation.param\lSliders">
<polygon fill="white" stroke="black" points="186,-49 186,-79 364,-79 364,-49 186,-49"/>
<text text-anchor="start" x="194" y="-67" font-family="Helvetica,sans-Serif" font-size="10.00">animation.WatorAnimation.param</text>
<text text-anchor="middle" x="275" y="-56" font-family="Helvetica,sans-Serif" font-size="10.00">Sliders</text>
</a>
</g>
</g>
<!-- Node1&#45;&gt;Node4 -->
<g id="edge3" class="edge"><title>Node1&#45;&gt;Node4</title>
<path fill="none" stroke="midnightblue" d="M152.149,-78.4774C163.235,-77.1602 174.671,-75.8015 185.891,-74.4684"/>
<polygon fill="midnightblue" stroke="midnightblue" points="151.6,-75.0179 142.083,-79.6733 152.426,-81.969 151.6,-75.0179"/>
</g>
<!-- Node5 -->
<g id="node5" class="node"><title>Node5</title>
<g id="a_node5"><a xlink:href="../../d0/dad/classanimation_1_1_forage_animation.html#aa6bc700d830bcd494d17dbcab2d86b15" target="_top" xlink:title="animation.ForageAnimation.param\lSliders">
<polygon fill="white" stroke="black" points="183,-0 183,-30 367,-30 367,-0 183,-0"/>
<text text-anchor="start" x="191" y="-18" font-family="Helvetica,sans-Serif" font-size="10.00">animation.ForageAnimation.param</text>
<text text-anchor="middle" x="275" y="-7" font-family="Helvetica,sans-Serif" font-size="10.00">Sliders</text>
</a>
</g>
</g>
<!-- Node1&#45;&gt;Node5 -->
<g id="edge4" class="edge"><title>Node1&#45;&gt;Node5</title>
<path fill="none" stroke="midnightblue" d="M110.614,-68.5965C130.428,-59.1354 155.146,-48.0837 178,-40 188.229,-36.3818 199.238,-33.0304 210.022,-30.0335"/>
<polygon fill="midnightblue" stroke="midnightblue" points="109.077,-65.4518 101.596,-72.9539 112.123,-71.7546 109.077,-65.4518"/>
</g>
</g>
</svg>
