<?xml version="1.0" encoding="UTF-8" standalone="no"?>
<!DOCTYPE svg PUBLIC "-//W3C//DTD SVG 1.1//EN"
 "http://www.w3.org/Graphics/SVG/1.1/DTD/svg11.dtd">
<!-- Generated by graphviz version 2.36.0 (20140111.2315)
 -->
<!-- Title: animation.GUICreator.loadAction Pages: 1 -->
<svg width="1428pt" height="664pt"
 viewBox="0.00 0.00 1428.00 664.00" xmlns="http://www.w3.org/2000/svg" xmlns:xlink="http://www.w3.org/1999/xlink">
<g id="graph0" class="graph" transform="scale(1 1) rotate(0) translate(4 660)">
<title>animation.GUICreator.loadAction</title>
<polygon fill="white" stroke="none" points="-4,4 -4,-660 1424,-660 1424,4 -4,4"/>
<!-- Node1 -->
<g id="node1" class="node"><title>Node1</title>
<polygon fill="#bfbfbf" stroke="black" points="0.5,-467 0.5,-497 143.5,-497 143.5,-467 0.5,-467"/>
<text text-anchor="start" x="8.5" y="-485" font-family="Helvetica,sans-Serif" font-size="10.00">animation.GUICreator.load</text>
<text text-anchor="middle" x="72" y="-474" font-family="Helvetica,sans-Serif" font-size="10.00">Action</text>
</g>
<!-- Node2 -->
<g id="node2" class="node"><title>Node2</title>
<g id="a_node2"><a xlink:href="../../d6/da5/classcellsociety__team05_1_1_master.html#ac10570db09b5b348c023bbd5e1df801b" target="_top" xlink:title="cellsociety_team05.Master.init">
<polygon fill="white" stroke="black" points="180.5,-472.5 180.5,-491.5 341.5,-491.5 341.5,-472.5 180.5,-472.5"/>
<text text-anchor="middle" x="261" y="-479.5" font-family="Helvetica,sans-Serif" font-size="10.00">cellsociety_team05.Master.init</text>
</a>
</g>
</g>
<!-- Node1&#45;&gt;Node2 -->
<g id="edge1" class="edge"><title>Node1&#45;&gt;Node2</title>
<path fill="none" stroke="midnightblue" d="M143.697,-482C152.414,-482 161.412,-482 170.364,-482"/>
<polygon fill="midnightblue" stroke="midnightblue" points="170.433,-485.5 180.432,-482 170.432,-478.5 170.433,-485.5"/>
</g>
<!-- Node3 -->
<g id="node3" class="node"><title>Node3</title>
<g id="a_node3"><a xlink:href="../../df/dd6/classcellsociety__team05_1_1_initializer.html#a27fd92c138189041dcd519cff632d61e" target="_top" xlink:title="cellsociety_team05.Initializer.readXML">
<polygon fill="white" stroke="black" points="378.5,-636.5 378.5,-655.5 575.5,-655.5 575.5,-636.5 378.5,-636.5"/>
<text text-anchor="middle" x="477" y="-643.5" font-family="Helvetica,sans-Serif" font-size="10.00">cellsociety_team05.Initializer.readXML</text>
</a>
</g>
</g>
<!-- Node2&#45;&gt;Node3 -->
<g id="edge2" class="edge"><title>Node2&#45;&gt;Node3</title>
<path fill="none" stroke="midnightblue" d="M266.653,-491.722C279.903,-518.268 320.617,-592.308 378,-627 381.587,-629.169 385.371,-631.097 389.283,-632.812"/>
<polygon fill="midnightblue" stroke="midnightblue" points="388.022,-636.076 398.61,-636.435 390.557,-629.551 388.022,-636.076"/>
</g>
<!-- Node4 -->
<g id="node4" class="node"><title>Node4</title>
<g id="a_node4"><a xlink:href="../../df/dd6/classcellsociety__team05_1_1_initializer.html#abb7d4a529b0f347ca21442045dd4e3f3" target="_top" xlink:title="cellsociety_team05.Initializer.setup">
<polygon fill="white" stroke="black" points="385.5,-598.5 385.5,-617.5 568.5,-617.5 568.5,-598.5 385.5,-598.5"/>
<text text-anchor="middle" x="477" y="-605.5" font-family="Helvetica,sans-Serif" font-size="10.00">cellsociety_team05.Initializer.setup</text>
</a>
</g>
</g>
<!-- Node2&#45;&gt;Node4 -->
<g id="edge3" class="edge"><title>Node2&#45;&gt;Node4</title>
<path fill="none" stroke="midnightblue" d="M269.915,-491.554C287.275,-511.857 330.92,-559.447 378,-584 387.18,-588.788 397.346,-592.644 407.553,-595.744"/>
<polygon fill="midnightblue" stroke="midnightblue" points="406.746,-599.153 417.32,-598.49 408.64,-592.414 406.746,-599.153"/>
</g>
<!-- Node6 -->
<g id="node6" class="node"><title>Node6</title>
<g id="a_node6"><a xlink:href="../../d9/d7b/classsimulations_1_1_sim.html#a252032535fe50e2eeabefc83cff438b3" target="_top" xlink:title="simulations.Sim.initMap">
<polygon fill="white" stroke="black" points="629.5,-579.5 629.5,-598.5 760.5,-598.5 760.5,-579.5 629.5,-579.5"/>
<text text-anchor="middle" x="695" y="-586.5" font-family="Helvetica,sans-Serif" font-size="10.00">simulations.Sim.initMap</text>
</a>
</g>
</g>
<!-- Node2&#45;&gt;Node6 -->
<g id="edge11" class="edge"><title>Node2&#45;&gt;Node6</title>
<path fill="none" stroke="midnightblue" d="M274.38,-491.594C294.732,-506.805 337.095,-536.149 378,-550 457.517,-576.927 553.905,-585.631 619.158,-588.256"/>
<polygon fill="midnightblue" stroke="midnightblue" points="619.236,-591.761 629.357,-588.628 619.491,-584.766 619.236,-591.761"/>
</g>
<!-- Node11 -->
<g id="node11" class="node"><title>Node11</title>
<g id="a_node11"><a xlink:href="../../d5/d80/classerror_1_1_x_m_l_not_found_exception.html#abf33f412c1b987517e43b10021909e5f" target="_top" xlink:title="error.XMLNotFoundException.return\lDefaultSim">
<polygon fill="white" stroke="black" points="383.5,-511 383.5,-541 570.5,-541 570.5,-511 383.5,-511"/>
<text text-anchor="start" x="391.5" y="-529" font-family="Helvetica,sans-Serif" font-size="10.00">error.XMLNotFoundException.return</text>
<text text-anchor="middle" x="477" y="-518" font-family="Helvetica,sans-Serif" font-size="10.00">DefaultSim</text>
</a>
</g>
</g>
<!-- Node2&#45;&gt;Node11 -->
<g id="edge10" class="edge"><title>Node2&#45;&gt;Node11</title>
<path fill="none" stroke="midnightblue" d="M308.435,-491.547C333.067,-496.612 364.083,-502.989 392.714,-508.876"/>
<polygon fill="midnightblue" stroke="midnightblue" points="392.228,-512.349 402.728,-510.935 393.637,-505.492 392.228,-512.349"/>
</g>
<!-- Node12 -->
<g id="node12" class="node"><title>Node12</title>
<g id="a_node12"><a xlink:href="../../d9/d7b/classsimulations_1_1_sim.html#af34d99b6d024da2704ee799bb0e94e48" target="_top" xlink:title="simulations.Sim.getData">
<polygon fill="white" stroke="black" points="409.5,-472.5 409.5,-491.5 544.5,-491.5 544.5,-472.5 409.5,-472.5"/>
<text text-anchor="middle" x="477" y="-479.5" font-family="Helvetica,sans-Serif" font-size="10.00">simulations.Sim.getData</text>
</a>
</g>
</g>
<!-- Node2&#45;&gt;Node12 -->
<g id="edge12" class="edge"><title>Node2&#45;&gt;Node12</title>
<path fill="none" stroke="midnightblue" d="M341.686,-482C360.436,-482 380.385,-482 399.013,-482"/>
<polygon fill="midnightblue" stroke="midnightblue" points="399.211,-485.5 409.211,-482 399.21,-478.5 399.211,-485.5"/>
</g>
<!-- Node15 -->
<g id="node15" class="node"><title>Node15</title>
<g id="a_node15"><a xlink:href="../../dc/d26/classutility_1_1_sim_data.html#acc4d2abaf2a354b4838b175eaa0e1514" target="_top" xlink:title="utility.SimData.simFPS">
<polygon fill="white" stroke="black" points="415,-434.5 415,-453.5 539,-453.5 539,-434.5 415,-434.5"/>
<text text-anchor="middle" x="477" y="-441.5" font-family="Helvetica,sans-Serif" font-size="10.00">utility.SimData.simFPS</text>
</a>
</g>
</g>
<!-- Node2&#45;&gt;Node15 -->
<g id="edge15" class="edge"><title>Node2&#45;&gt;Node15</title>
<path fill="none" stroke="midnightblue" d="M315.725,-472.46C344.98,-467.265 381.369,-460.804 412.076,-455.351"/>
<polygon fill="midnightblue" stroke="midnightblue" points="413.019,-458.738 422.253,-453.544 411.795,-451.846 413.019,-458.738"/>
</g>
<!-- Node16 -->
<g id="node16" class="node"><title>Node16</title>
<g id="a_node16"><a xlink:href="../../d9/dd0/classcellsociety__team05_1_1_scene_updater.html#a797cf5fc8c06caca14a6415e348ee2d0" target="_top" xlink:title="cellsociety_team05.Scene\lUpdater.newScene">
<polygon fill="white" stroke="black" points="406,-341 406,-371 548,-371 548,-341 406,-341"/>
<text text-anchor="start" x="414" y="-359" font-family="Helvetica,sans-Serif" font-size="10.00">cellsociety_team05.Scene</text>
<text text-anchor="middle" x="477" y="-348" font-family="Helvetica,sans-Serif" font-size="10.00">Updater.newScene</text>
</a>
</g>
</g>
<!-- Node2&#45;&gt;Node16 -->
<g id="edge16" class="edge"><title>Node2&#45;&gt;Node16</title>
<path fill="none" stroke="midnightblue" d="M278.437,-472.322C313.212,-451.847 394.867,-403.77 441.587,-376.262"/>
<polygon fill="midnightblue" stroke="midnightblue" points="443.6,-379.138 450.441,-371.049 440.048,-373.106 443.6,-379.138"/>
</g>
<!-- Node28 -->
<g id="node28" class="node"><title>Node28</title>
<g id="a_node28"><a xlink:href="../../d9/d7b/classsimulations_1_1_sim.html#a8c026c1b2a11b896470c72c4dc123b5e" target="_top" xlink:title="simulations.Sim.getParameters">
<polygon fill="white" stroke="black" points="393.5,-302.5 393.5,-321.5 560.5,-321.5 560.5,-302.5 393.5,-302.5"/>
<text text-anchor="middle" x="477" y="-309.5" font-family="Helvetica,sans-Serif" font-size="10.00">simulations.Sim.getParameters</text>
</a>
</g>
</g>
<!-- Node2&#45;&gt;Node28 -->
<g id="edge28" class="edge"><title>Node2&#45;&gt;Node28</title>
<path fill="none" stroke="midnightblue" d="M266.388,-472.366C279.238,-445.332 319.594,-368.368 378,-332 382.157,-329.411 386.588,-327.15 391.181,-325.176"/>
<polygon fill="midnightblue" stroke="midnightblue" points="392.702,-328.342 400.803,-321.514 390.212,-321.8 392.702,-328.342"/>
</g>
<!-- Node29 -->
<g id="node29" class="node"><title>Node29</title>
<g id="a_node29"><a xlink:href="../../d6/da5/classcellsociety__team05_1_1_master.html#ac07c303c9783fa437ccf0c702effcffd" target="_top" xlink:title="cellsociety_team05.Master.play">
<polygon fill="white" stroke="black" points="393.5,-188.5 393.5,-207.5 560.5,-207.5 560.5,-188.5 393.5,-188.5"/>
<text text-anchor="middle" x="477" y="-195.5" font-family="Helvetica,sans-Serif" font-size="10.00">cellsociety_team05.Master.play</text>
</a>
</g>
</g>
<!-- Node2&#45;&gt;Node29 -->
<g id="edge29" class="edge"><title>Node2&#45;&gt;Node29</title>
<path fill="none" stroke="midnightblue" d="M266.783,-472.409C281.335,-443.678 327.192,-356.384 378,-293 402.228,-262.775 435.476,-232.412 456.344,-214.414"/>
<polygon fill="midnightblue" stroke="midnightblue" points="458.868,-216.861 464.209,-207.711 454.327,-211.534 458.868,-216.861"/>
</g>
<!-- Node5 -->
<g id="node5" class="node"><title>Node5</title>
<g id="a_node5"><a xlink:href="../../d3/dcc/classutility_1_1_reader.html#a69e7980c5726194ebc4f42f6baf66ca1" target="_top" xlink:title="utility.Reader.returnSim">
<polygon fill="white" stroke="black" points="631.5,-617.5 631.5,-636.5 758.5,-636.5 758.5,-617.5 631.5,-617.5"/>
<text text-anchor="middle" x="695" y="-624.5" font-family="Helvetica,sans-Serif" font-size="10.00">utility.Reader.returnSim</text>
</a>
</g>
</g>
<!-- Node4&#45;&gt;Node5 -->
<g id="edge4" class="edge"><title>Node4&#45;&gt;Node5</title>
<path fill="none" stroke="midnightblue" d="M568.665,-615.975C586.161,-617.514 604.28,-619.108 621.121,-620.589"/>
<polygon fill="midnightblue" stroke="midnightblue" points="621.156,-624.106 631.425,-621.496 621.77,-617.133 621.156,-624.106"/>
</g>
<!-- Node4&#45;&gt;Node6 -->
<g id="edge5" class="edge"><title>Node4&#45;&gt;Node6</title>
<path fill="none" stroke="midnightblue" d="M568.665,-600.025C585.587,-598.536 603.093,-596.996 619.461,-595.557"/>
<polygon fill="midnightblue" stroke="midnightblue" points="619.835,-599.037 629.489,-594.675 619.221,-592.064 619.835,-599.037"/>
</g>
<!-- Node7 -->
<g id="node7" class="node"><title>Node7</title>
<g id="a_node7"><a xlink:href="../../d9/d7b/classsimulations_1_1_sim.html#a8053def01cba47bd9c66e26745495087" target="_top" xlink:title="simulations.Sim.populate">
<polygon fill="white" stroke="black" points="834,-579.5 834,-598.5 972,-598.5 972,-579.5 834,-579.5"/>
<text text-anchor="middle" x="903" y="-586.5" font-family="Helvetica,sans-Serif" font-size="10.00">simulations.Sim.populate</text>
</a>
</g>
</g>
<!-- Node6&#45;&gt;Node7 -->
<g id="edge6" class="edge"><title>Node6&#45;&gt;Node7</title>
<path fill="none" stroke="midnightblue" d="M760.614,-589C780.591,-589 802.814,-589 823.616,-589"/>
<polygon fill="midnightblue" stroke="midnightblue" points="823.697,-592.5 833.697,-589 823.697,-585.5 823.697,-592.5"/>
</g>
<!-- Node8 -->
<g id="node8" class="node"><title>Node8</title>
<g id="a_node8"><a xlink:href="../../d9/d7b/classsimulations_1_1_sim.html#adbed7e9c387ef5889ce9cf6c7c302ef3" target="_top" xlink:title="simulations.Sim.fillCell">
<polygon fill="white" stroke="black" points="1050.5,-579.5 1050.5,-598.5 1173.5,-598.5 1173.5,-579.5 1050.5,-579.5"/>
<text text-anchor="middle" x="1112" y="-586.5" font-family="Helvetica,sans-Serif" font-size="10.00">simulations.Sim.fillCell</text>
</a>
</g>
</g>
<!-- Node7&#45;&gt;Node8 -->
<g id="edge7" class="edge"><title>Node7&#45;&gt;Node8</title>
<path fill="none" stroke="midnightblue" d="M972.066,-589C993.836,-589 1017.98,-589 1039.96,-589"/>
<polygon fill="midnightblue" stroke="midnightblue" points="1040.22,-592.5 1050.22,-589 1040.22,-585.5 1040.22,-592.5"/>
</g>
<!-- Node9 -->
<g id="node9" class="node"><title>Node9</title>
<g id="a_node9"><a xlink:href="../../d9/d7b/classsimulations_1_1_sim.html#a16809fc8db2a3e21f8169a487aeff124" target="_top" xlink:title="simulations.Sim.checkCell">
<polygon fill="white" stroke="black" points="1255.5,-598.5 1255.5,-617.5 1396.5,-617.5 1396.5,-598.5 1255.5,-598.5"/>
<text text-anchor="middle" x="1326" y="-605.5" font-family="Helvetica,sans-Serif" font-size="10.00">simulations.Sim.checkCell</text>
</a>
</g>
</g>
<!-- Node8&#45;&gt;Node9 -->
<g id="edge8" class="edge"><title>Node8&#45;&gt;Node9</title>
<path fill="none" stroke="midnightblue" d="M1173.75,-594.445C1196.02,-596.44 1221.57,-598.73 1245.25,-600.853"/>
<polygon fill="midnightblue" stroke="midnightblue" points="1245,-604.344 1255.27,-601.751 1245.62,-597.372 1245,-604.344"/>
</g>
<!-- Node10 -->
<g id="node10" class="node"><title>Node10</title>
<g id="a_node10"><a xlink:href="../../d9/d7b/classsimulations_1_1_sim.html#a4da2ab43816b7e030ba62c1a10c82cf6" target="_top" xlink:title="simulations.Sim.setCell">
<polygon fill="white" stroke="black" points="1262,-560.5 1262,-579.5 1390,-579.5 1390,-560.5 1262,-560.5"/>
<text text-anchor="middle" x="1326" y="-567.5" font-family="Helvetica,sans-Serif" font-size="10.00">simulations.Sim.setCell</text>
</a>
</g>
</g>
<!-- Node8&#45;&gt;Node10 -->
<g id="edge9" class="edge"><title>Node8&#45;&gt;Node10</title>
<path fill="none" stroke="midnightblue" d="M1173.75,-583.555C1198.05,-581.377 1226.26,-578.849 1251.69,-576.57"/>
<polygon fill="midnightblue" stroke="midnightblue" points="1252.01,-580.056 1261.66,-575.677 1251.38,-573.084 1252.01,-580.056"/>
</g>
<!-- Node13 -->
<g id="node13" class="node"><title>Node13</title>
<g id="a_node13"><a xlink:href="../../dc/d96/classutility_1_1_map_copier.html#a3308fa4bb52f888a9059da1c1d8380c0" target="_top" xlink:title="utility.MapCopier.copyOf\lArray">
<polygon fill="white" stroke="black" points="630,-530 630,-560 760,-560 760,-530 630,-530"/>
<text text-anchor="start" x="638" y="-548" font-family="Helvetica,sans-Serif" font-size="10.00">utility.MapCopier.copyOf</text>
<text text-anchor="middle" x="695" y="-537" font-family="Helvetica,sans-Serif" font-size="10.00">Array</text>
</a>
</g>
</g>
<!-- Node12&#45;&gt;Node13 -->
<g id="edge13" class="edge"><title>Node12&#45;&gt;Node13</title>
<path fill="none" stroke="midnightblue" d="M537.492,-491.537C550.361,-494.319 563.772,-497.778 576,-502 592.909,-507.839 595.386,-513.368 612,-520 617.805,-522.317 623.913,-524.547 630.068,-526.656"/>
<polygon fill="midnightblue" stroke="midnightblue" points="629.147,-530.038 639.741,-529.865 631.352,-523.394 629.147,-530.038"/>
</g>
<!-- Node14 -->
<g id="node14" class="node"><title>Node14</title>
<g id="a_node14"><a xlink:href="../../d9/d7b/classsimulations_1_1_sim.html#afc6df6fab0b427978dff42e7ef600759" target="_top" xlink:title="simulations.Sim.simTitle">
<polygon fill="white" stroke="black" points="628.5,-491.5 628.5,-510.5 761.5,-510.5 761.5,-491.5 628.5,-491.5"/>
<text text-anchor="middle" x="695" y="-498.5" font-family="Helvetica,sans-Serif" font-size="10.00">simulations.Sim.simTitle</text>
</a>
</g>
</g>
<!-- Node12&#45;&gt;Node14 -->
<g id="edge14" class="edge"><title>Node12&#45;&gt;Node14</title>
<path fill="none" stroke="midnightblue" d="M544.57,-487.856C567.889,-489.907 594.246,-492.225 618.26,-494.338"/>
<polygon fill="midnightblue" stroke="midnightblue" points="618.124,-497.839 628.392,-495.229 618.737,-490.866 618.124,-497.839"/>
</g>
<!-- Node17 -->
<g id="node17" class="node"><title>Node17</title>
<g id="a_node17"><a xlink:href="../../d1/d85/classutility_1_1_color_picker.html#a2bbe92796cec2866c8aac7f7576dbb34" target="_top" xlink:title="utility.ColorPicker.setColors">
<polygon fill="white" stroke="black" points="623,-453.5 623,-472.5 767,-472.5 767,-453.5 623,-453.5"/>
<text text-anchor="middle" x="695" y="-460.5" font-family="Helvetica,sans-Serif" font-size="10.00">utility.ColorPicker.setColors</text>
</a>
</g>
</g>
<!-- Node16&#45;&gt;Node17 -->
<g id="edge17" class="edge"><title>Node16&#45;&gt;Node17</title>
<path fill="none" stroke="midnightblue" d="M499.021,-371.126C530.492,-393.539 588.652,-434.008 612,-444 617.819,-446.49 624.016,-448.682 630.297,-450.604"/>
<polygon fill="midnightblue" stroke="midnightblue" points="629.618,-454.05 640.193,-453.408 631.526,-447.315 629.618,-454.05"/>
</g>
<!-- Node18 -->
<g id="node18" class="node"><title>Node18</title>
<g id="a_node18"><a xlink:href="../../df/d60/classutility_1_1_grid_filler.html#a30e2905099098e9d06cb1d22339af1c7" target="_top" xlink:title="utility.GridFiller.fill">
<polygon fill="white" stroke="black" points="647,-415.5 647,-434.5 743,-434.5 743,-415.5 647,-415.5"/>
<text text-anchor="middle" x="695" y="-422.5" font-family="Helvetica,sans-Serif" font-size="10.00">utility.GridFiller.fill</text>
</a>
</g>
</g>
<!-- Node16&#45;&gt;Node18 -->
<g id="edge18" class="edge"><title>Node16&#45;&gt;Node18</title>
<path fill="none" stroke="midnightblue" d="M515.74,-371.079C542.381,-381.407 579.055,-394.993 612,-405 621.261,-407.813 631.203,-410.506 640.857,-412.954"/>
<polygon fill="midnightblue" stroke="midnightblue" points="640.224,-416.403 650.772,-415.41 641.908,-409.608 640.224,-416.403"/>
</g>
<!-- Node20 -->
<g id="node20" class="node"><title>Node20</title>
<g id="a_node20"><a xlink:href="../../d9/dd0/classcellsociety__team05_1_1_scene_updater.html#a545cdd62a8b34d5d85411323a3395bf7" target="_top" xlink:title="cellsociety_team05.Scene\lUpdater.returnGUI">
<polygon fill="white" stroke="black" points="624,-366 624,-396 766,-396 766,-366 624,-366"/>
<text text-anchor="start" x="632" y="-384" font-family="Helvetica,sans-Serif" font-size="10.00">cellsociety_team05.Scene</text>
<text text-anchor="middle" x="695" y="-373" font-family="Helvetica,sans-Serif" font-size="10.00">Updater.returnGUI</text>
</a>
</g>
</g>
<!-- Node16&#45;&gt;Node20 -->
<g id="edge20" class="edge"><title>Node16&#45;&gt;Node20</title>
<path fill="none" stroke="midnightblue" d="M548.129,-364.117C569.079,-366.542 592.205,-369.218 613.751,-371.712"/>
<polygon fill="midnightblue" stroke="midnightblue" points="613.517,-375.208 623.854,-372.881 614.322,-368.255 613.517,-375.208"/>
</g>
<!-- Node21 -->
<g id="node21" class="node"><title>Node21</title>
<g id="a_node21"><a xlink:href="../../d2/d60/classanimation_1_1_g_u_i_creator.html#a02433f642bdae8ac5c8f6485f71c0c2b" target="_top" xlink:title="animation.GUICreator.param\lLabels">
<polygon fill="white" stroke="black" points="617.5,-317 617.5,-347 772.5,-347 772.5,-317 617.5,-317"/>
<text text-anchor="start" x="625.5" y="-335" font-family="Helvetica,sans-Serif" font-size="10.00">animation.GUICreator.param</text>
<text text-anchor="middle" x="695" y="-324" font-family="Helvetica,sans-Serif" font-size="10.00">Labels</text>
</a>
</g>
</g>
<!-- Node16&#45;&gt;Node21 -->
<g id="edge21" class="edge"><title>Node16&#45;&gt;Node21</title>
<path fill="none" stroke="midnightblue" d="M548.129,-348.208C566.906,-346.122 587.432,-343.841 607.001,-341.667"/>
<polygon fill="midnightblue" stroke="midnightblue" points="607.58,-345.124 617.132,-340.541 606.807,-338.167 607.58,-345.124"/>
</g>
<!-- Node22 -->
<g id="node22" class="node"><title>Node22</title>
<g id="a_node22"><a xlink:href="../../da/d16/classanimation_1_1_animated_graph.html#a5044ded5b535e0e440c6d1d5ce4585c8" target="_top" xlink:title="animation.AnimatedGraph.init">
<polygon fill="white" stroke="black" points="614.5,-278.5 614.5,-297.5 775.5,-297.5 775.5,-278.5 614.5,-278.5"/>
<text text-anchor="middle" x="695" y="-285.5" font-family="Helvetica,sans-Serif" font-size="10.00">animation.AnimatedGraph.init</text>
</a>
</g>
</g>
<!-- Node16&#45;&gt;Node22 -->
<g id="edge22" class="edge"><title>Node16&#45;&gt;Node22</title>
<path fill="none" stroke="midnightblue" d="M548.248,-340.993C557.737,-338.126 567.22,-334.807 576,-331 593.42,-323.447 594.541,-315.462 612,-308 618.763,-305.11 626.025,-302.584 633.332,-300.391"/>
<polygon fill="midnightblue" stroke="midnightblue" points="634.595,-303.672 643.28,-297.604 632.706,-296.932 634.595,-303.672"/>
</g>
<!-- Node24 -->
<g id="node24" class="node"><title>Node24</title>
<g id="a_node24"><a xlink:href="../../d2/d60/classanimation_1_1_g_u_i_creator.html#a9e1146fc27571ad138c4718cd237494b" target="_top" xlink:title="animation.GUICreator.add\lButtonGrid">
<polygon fill="white" stroke="black" points="624.5,-229 624.5,-259 765.5,-259 765.5,-229 624.5,-229"/>
<text text-anchor="start" x="632.5" y="-247" font-family="Helvetica,sans-Serif" font-size="10.00">animation.GUICreator.add</text>
<text text-anchor="middle" x="695" y="-236" font-family="Helvetica,sans-Serif" font-size="10.00">ButtonGrid</text>
</a>
</g>
</g>
<!-- Node16&#45;&gt;Node24 -->
<g id="edge24" class="edge"><title>Node16&#45;&gt;Node24</title>
<path fill="none" stroke="midnightblue" d="M548.101,-345.469C558.075,-341.942 567.736,-337.247 576,-331 601.419,-311.786 587.031,-288.795 612,-269 614.296,-267.18 616.724,-265.492 619.25,-263.926"/>
<polygon fill="midnightblue" stroke="midnightblue" points="621.064,-266.923 628.166,-259.061 617.711,-260.778 621.064,-266.923"/>
</g>
<!-- Node25 -->
<g id="node25" class="node"><title>Node25</title>
<g id="a_node25"><a xlink:href="../../d2/d60/classanimation_1_1_g_u_i_creator.html#a66bb402660c9929c3b89d9625728ef1e" target="_top" xlink:title="animation.GUICreator.fps\lSlider">
<polygon fill="white" stroke="black" points="626.5,-180 626.5,-210 763.5,-210 763.5,-180 626.5,-180"/>
<text text-anchor="start" x="634.5" y="-198" font-family="Helvetica,sans-Serif" font-size="10.00">animation.GUICreator.fps</text>
<text text-anchor="middle" x="695" y="-187" font-family="Helvetica,sans-Serif" font-size="10.00">Slider</text>
</a>
</g>
</g>
<!-- Node16&#45;&gt;Node25 -->
<g id="edge25" class="edge"><title>Node16&#45;&gt;Node25</title>
<path fill="none" stroke="midnightblue" d="M548.128,-347.447C558.392,-343.685 568.134,-338.399 576,-331 614.086,-295.177 574.546,-255.483 612,-219 613.859,-217.189 615.848,-215.513 617.939,-213.963"/>
<polygon fill="midnightblue" stroke="midnightblue" points="619.871,-216.882 626.458,-208.583 616.134,-210.963 619.871,-216.882"/>
</g>
<!-- Node27 -->
<g id="node27" class="node"><title>Node27</title>
<g id="a_node27"><a xlink:href="../../d2/d60/classanimation_1_1_g_u_i_creator.html#aad6a5704677eac1c4eb00bb8fb6ee42e" target="_top" xlink:title="animation.GUICreator.param\lSliders">
<polygon fill="white" stroke="black" points="617.5,-131 617.5,-161 772.5,-161 772.5,-131 617.5,-131"/>
<text text-anchor="start" x="625.5" y="-149" font-family="Helvetica,sans-Serif" font-size="10.00">animation.GUICreator.param</text>
<text text-anchor="middle" x="695" y="-138" font-family="Helvetica,sans-Serif" font-size="10.00">Sliders</text>
</a>
</g>
</g>
<!-- Node16&#45;&gt;Node27 -->
<g id="edge27" class="edge"><title>Node16&#45;&gt;Node27</title>
<path fill="none" stroke="midnightblue" d="M548.477,-348.147C558.76,-344.306 568.418,-338.812 576,-331 627.069,-278.387 561.858,-223.498 612,-170 612.913,-169.026 613.863,-168.091 614.847,-167.193"/>
<polygon fill="midnightblue" stroke="midnightblue" points="617.134,-169.851 622.979,-161.014 612.899,-164.277 617.134,-169.851"/>
</g>
<!-- Node19 -->
<g id="node19" class="node"><title>Node19</title>
<g id="a_node19"><a xlink:href="../../d6/dff/classutility_1_1_cell_gen.html#a3a8e739f206100620d83c9a293902584" target="_top" xlink:title="utility.CellGen.makeShape">
<polygon fill="white" stroke="black" points="832.5,-415.5 832.5,-434.5 973.5,-434.5 973.5,-415.5 832.5,-415.5"/>
<text text-anchor="middle" x="903" y="-422.5" font-family="Helvetica,sans-Serif" font-size="10.00">utility.CellGen.makeShape</text>
</a>
</g>
</g>
<!-- Node18&#45;&gt;Node19 -->
<g id="edge19" class="edge"><title>Node18&#45;&gt;Node19</title>
<path fill="none" stroke="midnightblue" d="M743.002,-425C766.378,-425 795.282,-425 822.008,-425"/>
<polygon fill="midnightblue" stroke="midnightblue" points="822.129,-428.5 832.129,-425 822.129,-421.5 822.129,-428.5"/>
</g>
<!-- Node23 -->
<g id="node23" class="node"><title>Node23</title>
<g id="a_node23"><a xlink:href="../../da/d16/classanimation_1_1_animated_graph.html#a150d323ef1d77399b14739d2fa245021" target="_top" xlink:title="animation.AnimatedGraph.create\lAddSeries">
<polygon fill="white" stroke="black" points="814.5,-273 814.5,-303 991.5,-303 991.5,-273 814.5,-273"/>
<text text-anchor="start" x="822.5" y="-291" font-family="Helvetica,sans-Serif" font-size="10.00">animation.AnimatedGraph.create</text>
<text text-anchor="middle" x="903" y="-280" font-family="Helvetica,sans-Serif" font-size="10.00">AddSeries</text>
</a>
</g>
</g>
<!-- Node22&#45;&gt;Node23 -->
<g id="edge23" class="edge"><title>Node22&#45;&gt;Node23</title>
<path fill="none" stroke="midnightblue" d="M775.645,-288C784.957,-288 794.538,-288 804.062,-288"/>
<polygon fill="midnightblue" stroke="midnightblue" points="804.357,-291.5 814.357,-288 804.357,-284.5 804.357,-291.5"/>
</g>
<!-- Node26 -->
<g id="node26" class="node"><title>Node26</title>
<g id="a_node26"><a xlink:href="../../d2/d60/classanimation_1_1_g_u_i_creator.html#a5bc0f0e5c1557be5cc7c752ea2d8fc8c" target="_top" xlink:title="animation.GUICreator.make\lSlider">
<polygon fill="white" stroke="black" points="828,-180 828,-210 978,-210 978,-180 828,-180"/>
<text text-anchor="start" x="836" y="-198" font-family="Helvetica,sans-Serif" font-size="10.00">animation.GUICreator.make</text>
<text text-anchor="middle" x="903" y="-187" font-family="Helvetica,sans-Serif" font-size="10.00">Slider</text>
</a>
</g>
</g>
<!-- Node25&#45;&gt;Node26 -->
<g id="edge26" class="edge"><title>Node25&#45;&gt;Node26</title>
<path fill="none" stroke="midnightblue" d="M763.737,-195C780.973,-195 799.706,-195 817.657,-195"/>
<polygon fill="midnightblue" stroke="midnightblue" points="817.825,-198.5 827.825,-195 817.825,-191.5 817.825,-198.5"/>
</g>
<!-- Node30 -->
<g id="node30" class="node"><title>Node30</title>
<g id="a_node30"><a xlink:href="../../d6/da5/classcellsociety__team05_1_1_master.html#a9e0818f6e4d1389a401b337b2c5c9f81" target="_top" xlink:title="cellsociety_team05.Master.add\lKeyFrame">
<polygon fill="white" stroke="black" points="612.5,-82 612.5,-112 777.5,-112 777.5,-82 612.5,-82"/>
<text text-anchor="start" x="620.5" y="-100" font-family="Helvetica,sans-Serif" font-size="10.00">cellsociety_team05.Master.add</text>
<text text-anchor="middle" x="695" y="-89" font-family="Helvetica,sans-Serif" font-size="10.00">KeyFrame</text>
</a>
</g>
</g>
<!-- Node29&#45;&gt;Node30 -->
<g id="edge30" class="edge"><title>Node29&#45;&gt;Node30</title>
<path fill="none" stroke="midnightblue" d="M492.281,-188.269C516.158,-172.355 566.095,-140.579 612,-121 616.656,-119.014 621.528,-117.131 626.475,-115.359"/>
<polygon fill="midnightblue" stroke="midnightblue" points="627.714,-118.635 636.045,-112.09 625.451,-112.011 627.714,-118.635"/>
</g>
<!-- Node31 -->
<g id="node31" class="node"><title>Node31</title>
<g id="a_node31"><a xlink:href="../../d6/da5/classcellsociety__team05_1_1_master.html#aef1f14e30284edb3e1f8c0c5636de390" target="_top" xlink:title="cellsociety_team05.Master.evolve">
<polygon fill="white" stroke="black" points="814,-87.5 814,-106.5 992,-106.5 992,-87.5 814,-87.5"/>
<text text-anchor="middle" x="903" y="-94.5" font-family="Helvetica,sans-Serif" font-size="10.00">cellsociety_team05.Master.evolve</text>
</a>
</g>
</g>
<!-- Node30&#45;&gt;Node31 -->
<g id="edge31" class="edge"><title>Node30&#45;&gt;Node31</title>
<path fill="none" stroke="midnightblue" d="M777.713,-97C786.271,-97 795.034,-97 803.752,-97"/>
<polygon fill="midnightblue" stroke="midnightblue" points="803.95,-100.5 813.95,-97 803.95,-93.5001 803.95,-100.5"/>
</g>
<!-- Node32 -->
<g id="node32" class="node"><title>Node32</title>
<g id="a_node32"><a xlink:href="../../d9/d7b/classsimulations_1_1_sim.html#a864a4b1e5ab91624cd70ed9fbdc855ac" target="_top" xlink:title="simulations.Sim.nextGen">
<polygon fill="white" stroke="black" points="1043.5,-175.5 1043.5,-194.5 1180.5,-194.5 1180.5,-175.5 1043.5,-175.5"/>
<text text-anchor="middle" x="1112" y="-182.5" font-family="Helvetica,sans-Serif" font-size="10.00">simulations.Sim.nextGen</text>
</a>
</g>
</g>
<!-- Node31&#45;&gt;Node32 -->
<g id="edge32" class="edge"><title>Node31&#45;&gt;Node32</title>
<path fill="none" stroke="midnightblue" d="M918.646,-106.72C941.232,-121.312 986.323,-148.882 1028,-165 1035.75,-167.997 1044.09,-170.641 1052.38,-172.942"/>
<polygon fill="midnightblue" stroke="midnightblue" points="1051.5,-176.329 1062.06,-175.487 1053.28,-169.559 1051.5,-176.329"/>
</g>
<!-- Node33 -->
<g id="node33" class="node"><title>Node33</title>
<g id="a_node33"><a xlink:href="../../d9/dd0/classcellsociety__team05_1_1_scene_updater.html#a426e94fe0be8484ef5796171e64f8a3a" target="_top" xlink:title="cellsociety_team05.Scene\lUpdater.updateGraph">
<polygon fill="white" stroke="black" points="1041,-126 1041,-156 1183,-156 1183,-126 1041,-126"/>
<text text-anchor="start" x="1049" y="-144" font-family="Helvetica,sans-Serif" font-size="10.00">cellsociety_team05.Scene</text>
<text text-anchor="middle" x="1112" y="-133" font-family="Helvetica,sans-Serif" font-size="10.00">Updater.updateGraph</text>
</a>
</g>
</g>
<!-- Node31&#45;&gt;Node33 -->
<g id="edge33" class="edge"><title>Node31&#45;&gt;Node33</title>
<path fill="none" stroke="midnightblue" d="M948.916,-106.547C972.85,-111.635 1003.02,-118.047 1030.81,-123.956"/>
<polygon fill="midnightblue" stroke="midnightblue" points="1030.42,-127.451 1040.93,-126.106 1031.88,-120.604 1030.42,-127.451"/>
</g>
<!-- Node35 -->
<g id="node35" class="node"><title>Node35</title>
<g id="a_node35"><a xlink:href="../../d9/d7b/classsimulations_1_1_sim.html#ae840fd3e0813718f05bee889fb097fcc" target="_top" xlink:title="simulations.Sim.cellProportions">
<polygon fill="white" stroke="black" points="1028.5,-87.5 1028.5,-106.5 1195.5,-106.5 1195.5,-87.5 1028.5,-87.5"/>
<text text-anchor="middle" x="1112" y="-94.5" font-family="Helvetica,sans-Serif" font-size="10.00">simulations.Sim.cellProportions</text>
</a>
</g>
</g>
<!-- Node31&#45;&gt;Node35 -->
<g id="edge35" class="edge"><title>Node31&#45;&gt;Node35</title>
<path fill="none" stroke="midnightblue" d="M992.087,-97C1000.71,-97 1009.47,-97 1018.14,-97"/>
<polygon fill="midnightblue" stroke="midnightblue" points="1018.25,-100.5 1028.25,-97 1018.25,-93.5001 1018.25,-100.5"/>
</g>
<!-- Node36 -->
<g id="node36" class="node"><title>Node36</title>
<g id="a_node36"><a xlink:href="../../d9/d7b/classsimulations_1_1_sim.html#aae4b6d35eccef9920616ce7a2fb86794" target="_top" xlink:title="simulations.Sim.setNewParams">
<polygon fill="white" stroke="black" points="1028.5,-49.5 1028.5,-68.5 1195.5,-68.5 1195.5,-49.5 1028.5,-49.5"/>
<text text-anchor="middle" x="1112" y="-56.5" font-family="Helvetica,sans-Serif" font-size="10.00">simulations.Sim.setNewParams</text>
</a>
</g>
</g>
<!-- Node31&#45;&gt;Node36 -->
<g id="edge36" class="edge"><title>Node31&#45;&gt;Node36</title>
<path fill="none" stroke="midnightblue" d="M955.968,-87.46C984.266,-82.2652 1019.46,-75.8037 1049.17,-70.3511"/>
<polygon fill="midnightblue" stroke="midnightblue" points="1049.81,-73.792 1059.01,-68.5439 1048.54,-66.9071 1049.81,-73.792"/>
</g>
<!-- Node37 -->
<g id="node37" class="node"><title>Node37</title>
<g id="a_node37"><a xlink:href="../../d9/dd0/classcellsociety__team05_1_1_scene_updater.html#abc68af978ebd0da668f37510dd34aaf4" target="_top" xlink:title="cellsociety_team05.Scene\lUpdater.newParams">
<polygon fill="white" stroke="black" points="1041,-0 1041,-30 1183,-30 1183,-0 1041,-0"/>
<text text-anchor="start" x="1049" y="-18" font-family="Helvetica,sans-Serif" font-size="10.00">cellsociety_team05.Scene</text>
<text text-anchor="middle" x="1112" y="-7" font-family="Helvetica,sans-Serif" font-size="10.00">Updater.newParams</text>
</a>
</g>
</g>
<!-- Node31&#45;&gt;Node37 -->
<g id="edge37" class="edge"><title>Node31&#45;&gt;Node37</title>
<path fill="none" stroke="midnightblue" d="M922.562,-87.4844C946.512,-75.4366 989.663,-54.5054 1028,-40 1034.24,-37.6384 1040.81,-35.3449 1047.41,-33.1666"/>
<polygon fill="midnightblue" stroke="midnightblue" points="1048.61,-36.4569 1057.06,-30.0633 1046.47,-29.7931 1048.61,-36.4569"/>
</g>
<!-- Node34 -->
<g id="node34" class="node"><title>Node34</title>
<g id="a_node34"><a xlink:href="../../da/d16/classanimation_1_1_animated_graph.html#a784a1784f9e1ad102bcc7e194da19c44" target="_top" xlink:title="animation.AnimatedGraph.addData">
<polygon fill="white" stroke="black" points="1232,-131.5 1232,-150.5 1420,-150.5 1420,-131.5 1232,-131.5"/>
<text text-anchor="middle" x="1326" y="-138.5" font-family="Helvetica,sans-Serif" font-size="10.00">animation.AnimatedGraph.addData</text>
</a>
</g>
</g>
<!-- Node33&#45;&gt;Node34 -->
<g id="edge34" class="edge"><title>Node33&#45;&gt;Node34</title>
<path fill="none" stroke="midnightblue" d="M1183,-141C1195.28,-141 1208.29,-141 1221.25,-141"/>
<polygon fill="midnightblue" stroke="midnightblue" points="1221.62,-144.5 1231.62,-141 1221.62,-137.5 1221.62,-144.5"/>
</g>
</g>
</svg>
