<?xml version="1.0" encoding="UTF-8" standalone="no"?>
<!DOCTYPE svg PUBLIC "-//W3C//DTD SVG 1.1//EN"
 "http://www.w3.org/Graphics/SVG/1.1/DTD/svg11.dtd">
<!-- Generated by graphviz version 2.36.0 (20140111.2315)
 -->
<!-- Title: animation.GUICreator.addButtonGrid Pages: 1 -->
<svg width="1132pt" height="106pt"
 viewBox="0.00 0.00 1132.00 106.00" xmlns="http://www.w3.org/2000/svg" xmlns:xlink="http://www.w3.org/1999/xlink">
<g id="graph0" class="graph" transform="scale(1 1) rotate(0) translate(4 102)">
<title>animation.GUICreator.addButtonGrid</title>
<polygon fill="white" stroke="none" points="-4,4 -4,-102 1128,-102 1128,4 -4,4"/>
<!-- Node1 -->
<g id="node1" class="node"><title>Node1</title>
<polygon fill="#bfbfbf" stroke="black" points="0.5,-61 0.5,-91 141.5,-91 141.5,-61 0.5,-61"/>
<text text-anchor="start" x="8.5" y="-79" font-family="Helvetica,sans-Serif" font-size="10.00">animation.GUICreator.add</text>
<text text-anchor="middle" x="71" y="-68" font-family="Helvetica,sans-Serif" font-size="10.00">ButtonGrid</text>
</g>
<!-- Node2 -->
<g id="node2" class="node"><title>Node2</title>
<g id="a_node2"><a xlink:href="../../d2/d60/classanimation_1_1_g_u_i_creator.html#a9a94a22da284976e0a39d9b58e6646ae" target="_top" xlink:title="animation.GUICreator.GUICreator">
<polygon fill="white" stroke="black" points="948,-66.5 948,-85.5 1124,-85.5 1124,-66.5 948,-66.5"/>
<text text-anchor="middle" x="1036" y="-73.5" font-family="Helvetica,sans-Serif" font-size="10.00">animation.GUICreator.GUICreator</text>
</a>
</g>
</g>
<!-- Node1&#45;&gt;Node2 -->
<g id="edge1" class="edge"><title>Node1&#45;&gt;Node2</title>
<path fill="none" stroke="midnightblue" d="M151.841,-83.6053C225.533,-89.9638 338.045,-98 436,-98 436,-98 436,-98 635,-98 742.802,-98 866.699,-89.935 947.682,-83.5712"/>
<polygon fill="midnightblue" stroke="midnightblue" points="151.972,-80.1036 141.706,-82.7203 151.363,-87.077 151.972,-80.1036"/>
</g>
<!-- Node3 -->
<g id="node3" class="node"><title>Node3</title>
<g id="a_node3"><a xlink:href="../../d9/dd0/classcellsociety__team05_1_1_scene_updater.html#a797cf5fc8c06caca14a6415e348ee2d0" target="_top" xlink:title="cellsociety_team05.Scene\lUpdater.newScene">
<polygon fill="white" stroke="black" points="178,-39 178,-69 320,-69 320,-39 178,-39"/>
<text text-anchor="start" x="186" y="-57" font-family="Helvetica,sans-Serif" font-size="10.00">cellsociety_team05.Scene</text>
<text text-anchor="middle" x="249" y="-46" font-family="Helvetica,sans-Serif" font-size="10.00">Updater.newScene</text>
</a>
</g>
</g>
<!-- Node1&#45;&gt;Node3 -->
<g id="edge2" class="edge"><title>Node1&#45;&gt;Node3</title>
<path fill="none" stroke="midnightblue" d="M151.704,-66.037C160.406,-64.9493 169.217,-63.8479 177.792,-62.776"/>
<polygon fill="midnightblue" stroke="midnightblue" points="151.048,-62.5916 141.56,-67.305 151.917,-69.5376 151.048,-62.5916"/>
</g>
<!-- Node4 -->
<g id="node4" class="node"><title>Node4</title>
<g id="a_node4"><a xlink:href="../../d6/da5/classcellsociety__team05_1_1_master.html#ac10570db09b5b348c023bbd5e1df801b" target="_top" xlink:title="cellsociety_team05.Master.init">
<polygon fill="white" stroke="black" points="356.5,-44.5 356.5,-63.5 517.5,-63.5 517.5,-44.5 356.5,-44.5"/>
<text text-anchor="middle" x="437" y="-51.5" font-family="Helvetica,sans-Serif" font-size="10.00">cellsociety_team05.Master.init</text>
</a>
</g>
</g>
<!-- Node3&#45;&gt;Node4 -->
<g id="edge3" class="edge"><title>Node3&#45;&gt;Node4</title>
<path fill="none" stroke="midnightblue" d="M330.153,-54C338.831,-54 347.662,-54 356.335,-54"/>
<polygon fill="midnightblue" stroke="midnightblue" points="330.054,-50.5001 320.054,-54 330.054,-57.5001 330.054,-50.5001"/>
</g>
<!-- Node5 -->
<g id="node5" class="node"><title>Node5</title>
<g id="a_node5"><a xlink:href="../../d2/d60/classanimation_1_1_g_u_i_creator.html#a61c68b3e24b62788dab86e5240991107" target="_top" xlink:title="animation.GUICreator.load\lAction">
<polygon fill="white" stroke="black" points="562.5,-39 562.5,-69 705.5,-69 705.5,-39 562.5,-39"/>
<text text-anchor="start" x="570.5" y="-57" font-family="Helvetica,sans-Serif" font-size="10.00">animation.GUICreator.load</text>
<text text-anchor="middle" x="634" y="-46" font-family="Helvetica,sans-Serif" font-size="10.00">Action</text>
</a>
</g>
</g>
<!-- Node4&#45;&gt;Node5 -->
<g id="edge4" class="edge"><title>Node4&#45;&gt;Node5</title>
<path fill="none" stroke="midnightblue" d="M527.759,-54C539.388,-54 551.164,-54 562.421,-54"/>
<polygon fill="midnightblue" stroke="midnightblue" points="527.595,-50.5001 517.595,-54 527.595,-57.5001 527.595,-50.5001"/>
</g>
<!-- Node7 -->
<g id="node7" class="node"><title>Node7</title>
<g id="a_node7"><a xlink:href="../../de/d00/classcellsociety__team05_1_1_main.html#a7663311e53af8548f912c74dcc829624" target="_top" xlink:title="cellsociety_team05.Main.start">
<polygon fill="white" stroke="black" points="554,-0.5 554,-19.5 714,-19.5 714,-0.5 554,-0.5"/>
<text text-anchor="middle" x="634" y="-7.5" font-family="Helvetica,sans-Serif" font-size="10.00">cellsociety_team05.Main.start</text>
</a>
</g>
</g>
<!-- Node4&#45;&gt;Node7 -->
<g id="edge7" class="edge"><title>Node4&#45;&gt;Node7</title>
<path fill="none" stroke="midnightblue" d="M490.225,-42.2159C521.703,-35.1131 561.275,-26.184 590.77,-19.5287"/>
<polygon fill="midnightblue" stroke="midnightblue" points="489.296,-38.8373 480.312,-44.4527 490.837,-45.6657 489.296,-38.8373"/>
</g>
<!-- Node6 -->
<g id="node6" class="node"><title>Node6</title>
<g id="a_node6"><a xlink:href="../../d2/d60/classanimation_1_1_g_u_i_creator.html#ac4c8bd0d5bc08d30393866736d995aa5" target="_top" xlink:title="animation.GUICreator.addload\lXMLButton">
<polygon fill="white" stroke="black" points="750.5,-39 750.5,-69 911.5,-69 911.5,-39 750.5,-39"/>
<text text-anchor="start" x="758.5" y="-57" font-family="Helvetica,sans-Serif" font-size="10.00">animation.GUICreator.addload</text>
<text text-anchor="middle" x="831" y="-46" font-family="Helvetica,sans-Serif" font-size="10.00">XMLButton</text>
</a>
</g>
</g>
<!-- Node5&#45;&gt;Node6 -->
<g id="edge5" class="edge"><title>Node5&#45;&gt;Node6</title>
<path fill="none" stroke="midnightblue" d="M715.991,-54C727.338,-54 738.992,-54 750.314,-54"/>
<polygon fill="midnightblue" stroke="midnightblue" points="715.675,-50.5001 705.675,-54 715.675,-57.5001 715.675,-50.5001"/>
</g>
<!-- Node6&#45;&gt;Node2 -->
<g id="edge6" class="edge"><title>Node6&#45;&gt;Node2</title>
<path fill="none" stroke="midnightblue" d="M921.761,-63.7278C930.433,-64.6677 939.222,-65.6201 947.869,-66.5572"/>
<polygon fill="midnightblue" stroke="midnightblue" points="921.967,-60.2297 911.648,-62.6318 921.213,-67.189 921.967,-60.2297"/>
</g>
</g>
</svg>
