<?xml version="1.0" encoding="UTF-8" standalone="no"?>
<!DOCTYPE svg PUBLIC "-//W3C//DTD SVG 1.1//EN"
 "http://www.w3.org/Graphics/SVG/1.1/DTD/svg11.dtd">
<!-- Generated by graphviz version 2.36.0 (20140111.2315)
 -->
<!-- Title: animation.GUICreator.addloadXMLButton Pages: 1 -->
<!--zoomable 664 -->
<svg id="main" version="1.1" xmlns="http://www.w3.org/2000/svg" xmlns:xlink="http://www.w3.org/1999/xlink" xml:space="preserve" onload="init(evt)">
<style type="text/css"><![CDATA[
.edge:hover path { stroke: red; }
.edge:hover polygon { stroke: red; fill: red; }
]]></style>
<script type="text/javascript"><![CDATA[
var edges = document.getElementsByTagName('g');
if (edges && edges.length) {
  for (var i=0;i<edges.length;i++) {
    if (edges[i].id.substr(0,4)=='edge') {
      edges[i].setAttribute('class','edge');
    }
  }
}
]]></script>
        <defs>
                <circle id="rim" cx="0" cy="0" r="7"/>
                <circle id="rim2" cx="0" cy="0" r="3.5"/>
                <g id="zoomPlus">
                        <use xlink:href="#rim" fill="#404040">
                                <set attributeName="fill" to="#808080" begin="zoomplus.mouseover" end="zoomplus.mouseout"/>
                        </use>
                        <path d="M-4,0h8M0,-4v8" fill="none" stroke="white" stroke-width="1.5" pointer-events="none"/>
                </g>
                <g id="zoomMin">
                        <use xlink:href="#rim" fill="#404040">
                                <set attributeName="fill" to="#808080" begin="zoomminus.mouseover" end="zoomminus.mouseout"/>
                        </use>
                        <path d="M-4,0h8" fill="none" stroke="white" stroke-width="1.5" pointer-events="none"/>
                </g>
                <g id="dirArrow">
                        <path fill="none" stroke="white" stroke-width="1.5" d="M0,-3.0v7 M-2.5,-0.5L0,-3.0L2.5,-0.5"/>
                </g>
               <g id="resetDef">
                       <use xlink:href="#rim2" fill="#404040">
                               <set attributeName="fill" to="#808080" begin="reset.mouseover" end="reset.mouseout"/>
                       </use>
               </g>
        </defs>

<script type="text/javascript">
var viewWidth = 1626;
var viewHeight = 664;
var sectionId = 'dynsection-4';
</script>
<script xlink:href="../../svgpan.js"/>
<svg id="graph" class="graph">
<g id="viewport">
<title>animation.GUICreator.addloadXMLButton</title>
<polygon fill="white" stroke="none" points="-4,4 -4,-660 1622,-660 1622,4 -4,4"/>
<!-- Node1 -->
<g id="node1" class="node"><title>Node1</title>
<polygon fill="#bfbfbf" stroke="black" points="0.5,-467 0.5,-497 161.5,-497 161.5,-467 0.5,-467"/>
<text text-anchor="start" x="8.5" y="-485" font-family="Helvetica,sans-Serif" font-size="10.00">animation.GUICreator.addload</text>
<text text-anchor="middle" x="81" y="-474" font-family="Helvetica,sans-Serif" font-size="10.00">XMLButton</text>
</g>
<!-- Node2 -->
<g id="node2" class="node"><title>Node2</title>
<g id="a_node2"><a xlink:href="../../d2/d60/classanimation_1_1_g_u_i_creator.html#a61c68b3e24b62788dab86e5240991107" target="_top" xlink:title="animation.GUICreator.load\lAction">
<polygon fill="white" stroke="black" points="198.5,-467 198.5,-497 341.5,-497 341.5,-467 198.5,-467"/>
<text text-anchor="start" x="206.5" y="-485" font-family="Helvetica,sans-Serif" font-size="10.00">animation.GUICreator.load</text>
<text text-anchor="middle" x="270" y="-474" font-family="Helvetica,sans-Serif" font-size="10.00">Action</text>
</a>
</g>
</g>
<!-- Node1&#45;&gt;Node2 -->
<g id="edge1" class="edge"><title>Node1&#45;&gt;Node2</title>
<path fill="none" stroke="midnightblue" d="M161.576,-482C170.364,-482 179.32,-482 188.124,-482"/>
<polygon fill="midnightblue" stroke="midnightblue" points="188.371,-485.5 198.37,-482 188.37,-478.5 188.371,-485.5"/>
</g>
<!-- Node3 -->
<g id="node3" class="node"><title>Node3</title>
<g id="a_node3"><a xlink:href="../../d6/da5/classcellsociety__team05_1_1_master.html#ac10570db09b5b348c023bbd5e1df801b" target="_top" xlink:title="cellsociety_team05.Master.init">
<polygon fill="white" stroke="black" points="378.5,-472.5 378.5,-491.5 539.5,-491.5 539.5,-472.5 378.5,-472.5"/>
<text text-anchor="middle" x="459" y="-479.5" font-family="Helvetica,sans-Serif" font-size="10.00">cellsociety_team05.Master.init</text>
</a>
</g>
</g>
<!-- Node2&#45;&gt;Node3 -->
<g id="edge2" class="edge"><title>Node2&#45;&gt;Node3</title>
<path fill="none" stroke="midnightblue" d="M341.697,-482C350.414,-482 359.412,-482 368.364,-482"/>
<polygon fill="midnightblue" stroke="midnightblue" points="368.433,-485.5 378.432,-482 368.432,-478.5 368.433,-485.5"/>
</g>
<!-- Node4 -->
<g id="node4" class="node"><title>Node4</title>
<g id="a_node4"><a xlink:href="../../df/dd6/classcellsociety__team05_1_1_initializer.html#a27fd92c138189041dcd519cff632d61e" target="_top" xlink:title="cellsociety_team05.Initializer.readXML">
<polygon fill="white" stroke="black" points="576.5,-636.5 576.5,-655.5 773.5,-655.5 773.5,-636.5 576.5,-636.5"/>
<text text-anchor="middle" x="675" y="-643.5" font-family="Helvetica,sans-Serif" font-size="10.00">cellsociety_team05.Initializer.readXML</text>
</a>
</g>
</g>
<!-- Node3&#45;&gt;Node4 -->
<g id="edge3" class="edge"><title>Node3&#45;&gt;Node4</title>
<path fill="none" stroke="midnightblue" d="M464.653,-491.722C477.903,-518.268 518.617,-592.308 576,-627 579.587,-629.169 583.371,-631.097 587.283,-632.812"/>
<polygon fill="midnightblue" stroke="midnightblue" points="586.022,-636.076 596.61,-636.435 588.557,-629.551 586.022,-636.076"/>
</g>
<!-- Node5 -->
<g id="node5" class="node"><title>Node5</title>
<g id="a_node5"><a xlink:href="../../df/dd6/classcellsociety__team05_1_1_initializer.html#abb7d4a529b0f347ca21442045dd4e3f3" target="_top" xlink:title="cellsociety_team05.Initializer.setup">
<polygon fill="white" stroke="black" points="583.5,-598.5 583.5,-617.5 766.5,-617.5 766.5,-598.5 583.5,-598.5"/>
<text text-anchor="middle" x="675" y="-605.5" font-family="Helvetica,sans-Serif" font-size="10.00">cellsociety_team05.Initializer.setup</text>
</a>
</g>
</g>
<!-- Node3&#45;&gt;Node5 -->
<g id="edge4" class="edge"><title>Node3&#45;&gt;Node5</title>
<path fill="none" stroke="midnightblue" d="M467.915,-491.554C485.275,-511.857 528.92,-559.447 576,-584 585.18,-588.788 595.346,-592.644 605.553,-595.744"/>
<polygon fill="midnightblue" stroke="midnightblue" points="604.746,-599.153 615.32,-598.49 606.64,-592.414 604.746,-599.153"/>
</g>
<!-- Node7 -->
<g id="node7" class="node"><title>Node7</title>
<g id="a_node7"><a xlink:href="../../d9/d7b/classsimulations_1_1_sim.html#a252032535fe50e2eeabefc83cff438b3" target="_top" xlink:title="simulations.Sim.initMap">
<polygon fill="white" stroke="black" points="827.5,-579.5 827.5,-598.5 958.5,-598.5 958.5,-579.5 827.5,-579.5"/>
<text text-anchor="middle" x="893" y="-586.5" font-family="Helvetica,sans-Serif" font-size="10.00">simulations.Sim.initMap</text>
</a>
</g>
</g>
<!-- Node3&#45;&gt;Node7 -->
<g id="edge12" class="edge"><title>Node3&#45;&gt;Node7</title>
<path fill="none" stroke="midnightblue" d="M472.38,-491.594C492.732,-506.805 535.095,-536.149 576,-550 655.517,-576.927 751.905,-585.631 817.158,-588.256"/>
<polygon fill="midnightblue" stroke="midnightblue" points="817.236,-591.761 827.357,-588.628 817.491,-584.766 817.236,-591.761"/>
</g>
<!-- Node12 -->
<g id="node12" class="node"><title>Node12</title>
<g id="a_node12"><a xlink:href="../../d5/d80/classerror_1_1_x_m_l_not_found_exception.html#abf33f412c1b987517e43b10021909e5f" target="_top" xlink:title="error.XMLNotFoundException.return\lDefaultSim">
<polygon fill="white" stroke="black" points="581.5,-511 581.5,-541 768.5,-541 768.5,-511 581.5,-511"/>
<text text-anchor="start" x="589.5" y="-529" font-family="Helvetica,sans-Serif" font-size="10.00">error.XMLNotFoundException.return</text>
<text text-anchor="middle" x="675" y="-518" font-family="Helvetica,sans-Serif" font-size="10.00">DefaultSim</text>
</a>
</g>
</g>
<!-- Node3&#45;&gt;Node12 -->
<g id="edge11" class="edge"><title>Node3&#45;&gt;Node12</title>
<path fill="none" stroke="midnightblue" d="M506.435,-491.547C531.067,-496.612 562.083,-502.989 590.714,-508.876"/>
<polygon fill="midnightblue" stroke="midnightblue" points="590.228,-512.349 600.728,-510.935 591.637,-505.492 590.228,-512.349"/>
</g>
<!-- Node13 -->
<g id="node13" class="node"><title>Node13</title>
<g id="a_node13"><a xlink:href="../../d9/d7b/classsimulations_1_1_sim.html#af34d99b6d024da2704ee799bb0e94e48" target="_top" xlink:title="simulations.Sim.getData">
<polygon fill="white" stroke="black" points="607.5,-472.5 607.5,-491.5 742.5,-491.5 742.5,-472.5 607.5,-472.5"/>
<text text-anchor="middle" x="675" y="-479.5" font-family="Helvetica,sans-Serif" font-size="10.00">simulations.Sim.getData</text>
</a>
</g>
</g>
<!-- Node3&#45;&gt;Node13 -->
<g id="edge13" class="edge"><title>Node3&#45;&gt;Node13</title>
<path fill="none" stroke="midnightblue" d="M539.686,-482C558.436,-482 578.385,-482 597.013,-482"/>
<polygon fill="midnightblue" stroke="midnightblue" points="597.211,-485.5 607.211,-482 597.21,-478.5 597.211,-485.5"/>
</g>
<!-- Node16 -->
<g id="node16" class="node"><title>Node16</title>
<g id="a_node16"><a xlink:href="../../dc/d26/classutility_1_1_sim_data.html#acc4d2abaf2a354b4838b175eaa0e1514" target="_top" xlink:title="utility.SimData.simFPS">
<polygon fill="white" stroke="black" points="613,-434.5 613,-453.5 737,-453.5 737,-434.5 613,-434.5"/>
<text text-anchor="middle" x="675" y="-441.5" font-family="Helvetica,sans-Serif" font-size="10.00">utility.SimData.simFPS</text>
</a>
</g>
</g>
<!-- Node3&#45;&gt;Node16 -->
<g id="edge16" class="edge"><title>Node3&#45;&gt;Node16</title>
<path fill="none" stroke="midnightblue" d="M513.725,-472.46C542.98,-467.265 579.369,-460.804 610.076,-455.351"/>
<polygon fill="midnightblue" stroke="midnightblue" points="611.019,-458.738 620.253,-453.544 609.795,-451.846 611.019,-458.738"/>
</g>
<!-- Node17 -->
<g id="node17" class="node"><title>Node17</title>
<g id="a_node17"><a xlink:href="../../d9/dd0/classcellsociety__team05_1_1_scene_updater.html#a797cf5fc8c06caca14a6415e348ee2d0" target="_top" xlink:title="cellsociety_team05.Scene\lUpdater.newScene">
<polygon fill="white" stroke="black" points="604,-341 604,-371 746,-371 746,-341 604,-341"/>
<text text-anchor="start" x="612" y="-359" font-family="Helvetica,sans-Serif" font-size="10.00">cellsociety_team05.Scene</text>
<text text-anchor="middle" x="675" y="-348" font-family="Helvetica,sans-Serif" font-size="10.00">Updater.newScene</text>
</a>
</g>
</g>
<!-- Node3&#45;&gt;Node17 -->
<g id="edge17" class="edge"><title>Node3&#45;&gt;Node17</title>
<path fill="none" stroke="midnightblue" d="M476.437,-472.322C511.212,-451.847 592.867,-403.77 639.587,-376.262"/>
<polygon fill="midnightblue" stroke="midnightblue" points="641.6,-379.138 648.441,-371.049 638.048,-373.106 641.6,-379.138"/>
</g>
<!-- Node29 -->
<g id="node29" class="node"><title>Node29</title>
<g id="a_node29"><a xlink:href="../../d9/d7b/classsimulations_1_1_sim.html#a8c026c1b2a11b896470c72c4dc123b5e" target="_top" xlink:title="simulations.Sim.getParameters">
<polygon fill="white" stroke="black" points="591.5,-302.5 591.5,-321.5 758.5,-321.5 758.5,-302.5 591.5,-302.5"/>
<text text-anchor="middle" x="675" y="-309.5" font-family="Helvetica,sans-Serif" font-size="10.00">simulations.Sim.getParameters</text>
</a>
</g>
</g>
<!-- Node3&#45;&gt;Node29 -->
<g id="edge29" class="edge"><title>Node3&#45;&gt;Node29</title>
<path fill="none" stroke="midnightblue" d="M464.388,-472.366C477.238,-445.332 517.594,-368.368 576,-332 580.157,-329.411 584.588,-327.15 589.181,-325.176"/>
<polygon fill="midnightblue" stroke="midnightblue" points="590.702,-328.342 598.803,-321.514 588.212,-321.8 590.702,-328.342"/>
</g>
<!-- Node30 -->
<g id="node30" class="node"><title>Node30</title>
<g id="a_node30"><a xlink:href="../../d6/da5/classcellsociety__team05_1_1_master.html#ac07c303c9783fa437ccf0c702effcffd" target="_top" xlink:title="cellsociety_team05.Master.play">
<polygon fill="white" stroke="black" points="591.5,-188.5 591.5,-207.5 758.5,-207.5 758.5,-188.5 591.5,-188.5"/>
<text text-anchor="middle" x="675" y="-195.5" font-family="Helvetica,sans-Serif" font-size="10.00">cellsociety_team05.Master.play</text>
</a>
</g>
</g>
<!-- Node3&#45;&gt;Node30 -->
<g id="edge30" class="edge"><title>Node3&#45;&gt;Node30</title>
<path fill="none" stroke="midnightblue" d="M464.783,-472.409C479.335,-443.678 525.192,-356.384 576,-293 600.228,-262.775 633.476,-232.412 654.344,-214.414"/>
<polygon fill="midnightblue" stroke="midnightblue" points="656.868,-216.861 662.209,-207.711 652.327,-211.534 656.868,-216.861"/>
</g>
<!-- Node6 -->
<g id="node6" class="node"><title>Node6</title>
<g id="a_node6"><a xlink:href="../../d3/dcc/classutility_1_1_reader.html#a69e7980c5726194ebc4f42f6baf66ca1" target="_top" xlink:title="utility.Reader.returnSim">
<polygon fill="white" stroke="black" points="829.5,-617.5 829.5,-636.5 956.5,-636.5 956.5,-617.5 829.5,-617.5"/>
<text text-anchor="middle" x="893" y="-624.5" font-family="Helvetica,sans-Serif" font-size="10.00">utility.Reader.returnSim</text>
</a>
</g>
</g>
<!-- Node5&#45;&gt;Node6 -->
<g id="edge5" class="edge"><title>Node5&#45;&gt;Node6</title>
<path fill="none" stroke="midnightblue" d="M766.665,-615.975C784.161,-617.514 802.28,-619.108 819.121,-620.589"/>
<polygon fill="midnightblue" stroke="midnightblue" points="819.156,-624.106 829.425,-621.496 819.77,-617.133 819.156,-624.106"/>
</g>
<!-- Node5&#45;&gt;Node7 -->
<g id="edge6" class="edge"><title>Node5&#45;&gt;Node7</title>
<path fill="none" stroke="midnightblue" d="M766.665,-600.025C783.587,-598.536 801.093,-596.996 817.461,-595.557"/>
<polygon fill="midnightblue" stroke="midnightblue" points="817.835,-599.037 827.489,-594.675 817.221,-592.064 817.835,-599.037"/>
</g>
<!-- Node8 -->
<g id="node8" class="node"><title>Node8</title>
<g id="a_node8"><a xlink:href="../../d9/d7b/classsimulations_1_1_sim.html#a8053def01cba47bd9c66e26745495087" target="_top" xlink:title="simulations.Sim.populate">
<polygon fill="white" stroke="black" points="1032,-579.5 1032,-598.5 1170,-598.5 1170,-579.5 1032,-579.5"/>
<text text-anchor="middle" x="1101" y="-586.5" font-family="Helvetica,sans-Serif" font-size="10.00">simulations.Sim.populate</text>
</a>
</g>
</g>
<!-- Node7&#45;&gt;Node8 -->
<g id="edge7" class="edge"><title>Node7&#45;&gt;Node8</title>
<path fill="none" stroke="midnightblue" d="M958.614,-589C978.591,-589 1000.81,-589 1021.62,-589"/>
<polygon fill="midnightblue" stroke="midnightblue" points="1021.7,-592.5 1031.7,-589 1021.7,-585.5 1021.7,-592.5"/>
</g>
<!-- Node9 -->
<g id="node9" class="node"><title>Node9</title>
<g id="a_node9"><a xlink:href="../../d9/d7b/classsimulations_1_1_sim.html#adbed7e9c387ef5889ce9cf6c7c302ef3" target="_top" xlink:title="simulations.Sim.fillCell">
<polygon fill="white" stroke="black" points="1248.5,-579.5 1248.5,-598.5 1371.5,-598.5 1371.5,-579.5 1248.5,-579.5"/>
<text text-anchor="middle" x="1310" y="-586.5" font-family="Helvetica,sans-Serif" font-size="10.00">simulations.Sim.fillCell</text>
</a>
</g>
</g>
<!-- Node8&#45;&gt;Node9 -->
<g id="edge8" class="edge"><title>Node8&#45;&gt;Node9</title>
<path fill="none" stroke="midnightblue" d="M1170.07,-589C1191.84,-589 1215.98,-589 1237.96,-589"/>
<polygon fill="midnightblue" stroke="midnightblue" points="1238.22,-592.5 1248.22,-589 1238.22,-585.5 1238.22,-592.5"/>
</g>
<!-- Node10 -->
<g id="node10" class="node"><title>Node10</title>
<g id="a_node10"><a xlink:href="../../d9/d7b/classsimulations_1_1_sim.html#a16809fc8db2a3e21f8169a487aeff124" target="_top" xlink:title="simulations.Sim.checkCell">
<polygon fill="white" stroke="black" points="1453.5,-598.5 1453.5,-617.5 1594.5,-617.5 1594.5,-598.5 1453.5,-598.5"/>
<text text-anchor="middle" x="1524" y="-605.5" font-family="Helvetica,sans-Serif" font-size="10.00">simulations.Sim.checkCell</text>
</a>
</g>
</g>
<!-- Node9&#45;&gt;Node10 -->
<g id="edge9" class="edge"><title>Node9&#45;&gt;Node10</title>
<path fill="none" stroke="midnightblue" d="M1371.75,-594.445C1394.02,-596.44 1419.57,-598.73 1443.25,-600.853"/>
<polygon fill="midnightblue" stroke="midnightblue" points="1443,-604.344 1453.27,-601.751 1443.62,-597.372 1443,-604.344"/>
</g>
<!-- Node11 -->
<g id="node11" class="node"><title>Node11</title>
<g id="a_node11"><a xlink:href="../../d9/d7b/classsimulations_1_1_sim.html#a4da2ab43816b7e030ba62c1a10c82cf6" target="_top" xlink:title="simulations.Sim.setCell">
<polygon fill="white" stroke="black" points="1460,-560.5 1460,-579.5 1588,-579.5 1588,-560.5 1460,-560.5"/>
<text text-anchor="middle" x="1524" y="-567.5" font-family="Helvetica,sans-Serif" font-size="10.00">simulations.Sim.setCell</text>
</a>
</g>
</g>
<!-- Node9&#45;&gt;Node11 -->
<g id="edge10" class="edge"><title>Node9&#45;&gt;Node11</title>
<path fill="none" stroke="midnightblue" d="M1371.75,-583.555C1396.05,-581.377 1424.26,-578.849 1449.69,-576.57"/>
<polygon fill="midnightblue" stroke="midnightblue" points="1450.01,-580.056 1459.66,-575.677 1449.38,-573.084 1450.01,-580.056"/>
</g>
<!-- Node14 -->
<g id="node14" class="node"><title>Node14</title>
<g id="a_node14"><a xlink:href="../../dc/d96/classutility_1_1_map_copier.html#a3308fa4bb52f888a9059da1c1d8380c0" target="_top" xlink:title="utility.MapCopier.copyOf\lArray">
<polygon fill="white" stroke="black" points="828,-530 828,-560 958,-560 958,-530 828,-530"/>
<text text-anchor="start" x="836" y="-548" font-family="Helvetica,sans-Serif" font-size="10.00">utility.MapCopier.copyOf</text>
<text text-anchor="middle" x="893" y="-537" font-family="Helvetica,sans-Serif" font-size="10.00">Array</text>
</a>
</g>
</g>
<!-- Node13&#45;&gt;Node14 -->
<g id="edge14" class="edge"><title>Node13&#45;&gt;Node14</title>
<path fill="none" stroke="midnightblue" d="M735.492,-491.537C748.361,-494.319 761.772,-497.778 774,-502 790.909,-507.839 793.386,-513.368 810,-520 815.805,-522.317 821.913,-524.547 828.068,-526.656"/>
<polygon fill="midnightblue" stroke="midnightblue" points="827.147,-530.038 837.741,-529.865 829.352,-523.394 827.147,-530.038"/>
</g>
<!-- Node15 -->
<g id="node15" class="node"><title>Node15</title>
<g id="a_node15"><a xlink:href="../../d9/d7b/classsimulations_1_1_sim.html#afc6df6fab0b427978dff42e7ef600759" target="_top" xlink:title="simulations.Sim.simTitle">
<polygon fill="white" stroke="black" points="826.5,-491.5 826.5,-510.5 959.5,-510.5 959.5,-491.5 826.5,-491.5"/>
<text text-anchor="middle" x="893" y="-498.5" font-family="Helvetica,sans-Serif" font-size="10.00">simulations.Sim.simTitle</text>
</a>
</g>
</g>
<!-- Node13&#45;&gt;Node15 -->
<g id="edge15" class="edge"><title>Node13&#45;&gt;Node15</title>
<path fill="none" stroke="midnightblue" d="M742.57,-487.856C765.889,-489.907 792.246,-492.225 816.26,-494.338"/>
<polygon fill="midnightblue" stroke="midnightblue" points="816.124,-497.839 826.392,-495.229 816.737,-490.866 816.124,-497.839"/>
</g>
<!-- Node18 -->
<g id="node18" class="node"><title>Node18</title>
<g id="a_node18"><a xlink:href="../../d1/d85/classutility_1_1_color_picker.html#a2bbe92796cec2866c8aac7f7576dbb34" target="_top" xlink:title="utility.ColorPicker.setColors">
<polygon fill="white" stroke="black" points="821,-453.5 821,-472.5 965,-472.5 965,-453.5 821,-453.5"/>
<text text-anchor="middle" x="893" y="-460.5" font-family="Helvetica,sans-Serif" font-size="10.00">utility.ColorPicker.setColors</text>
</a>
</g>
</g>
<!-- Node17&#45;&gt;Node18 -->
<g id="edge18" class="edge"><title>Node17&#45;&gt;Node18</title>
<path fill="none" stroke="midnightblue" d="M697.021,-371.126C728.492,-393.539 786.652,-434.008 810,-444 815.819,-446.49 822.016,-448.682 828.297,-450.604"/>
<polygon fill="midnightblue" stroke="midnightblue" points="827.618,-454.05 838.193,-453.408 829.526,-447.315 827.618,-454.05"/>
</g>
<!-- Node19 -->
<g id="node19" class="node"><title>Node19</title>
<g id="a_node19"><a xlink:href="../../df/d60/classutility_1_1_grid_filler.html#a30e2905099098e9d06cb1d22339af1c7" target="_top" xlink:title="utility.GridFiller.fill">
<polygon fill="white" stroke="black" points="845,-415.5 845,-434.5 941,-434.5 941,-415.5 845,-415.5"/>
<text text-anchor="middle" x="893" y="-422.5" font-family="Helvetica,sans-Serif" font-size="10.00">utility.GridFiller.fill</text>
</a>
</g>
</g>
<!-- Node17&#45;&gt;Node19 -->
<g id="edge19" class="edge"><title>Node17&#45;&gt;Node19</title>
<path fill="none" stroke="midnightblue" d="M713.74,-371.079C740.381,-381.407 777.055,-394.993 810,-405 819.261,-407.813 829.203,-410.506 838.857,-412.954"/>
<polygon fill="midnightblue" stroke="midnightblue" points="838.224,-416.403 848.772,-415.41 839.908,-409.608 838.224,-416.403"/>
</g>
<!-- Node21 -->
<g id="node21" class="node"><title>Node21</title>
<g id="a_node21"><a xlink:href="../../d9/dd0/classcellsociety__team05_1_1_scene_updater.html#a545cdd62a8b34d5d85411323a3395bf7" target="_top" xlink:title="cellsociety_team05.Scene\lUpdater.returnGUI">
<polygon fill="white" stroke="black" points="822,-366 822,-396 964,-396 964,-366 822,-366"/>
<text text-anchor="start" x="830" y="-384" font-family="Helvetica,sans-Serif" font-size="10.00">cellsociety_team05.Scene</text>
<text text-anchor="middle" x="893" y="-373" font-family="Helvetica,sans-Serif" font-size="10.00">Updater.returnGUI</text>
</a>
</g>
</g>
<!-- Node17&#45;&gt;Node21 -->
<g id="edge21" class="edge"><title>Node17&#45;&gt;Node21</title>
<path fill="none" stroke="midnightblue" d="M746.129,-364.117C767.079,-366.542 790.205,-369.218 811.751,-371.712"/>
<polygon fill="midnightblue" stroke="midnightblue" points="811.517,-375.208 821.854,-372.881 812.322,-368.255 811.517,-375.208"/>
</g>
<!-- Node22 -->
<g id="node22" class="node"><title>Node22</title>
<g id="a_node22"><a xlink:href="../../d2/d60/classanimation_1_1_g_u_i_creator.html#a02433f642bdae8ac5c8f6485f71c0c2b" target="_top" xlink:title="animation.GUICreator.param\lLabels">
<polygon fill="white" stroke="black" points="815.5,-317 815.5,-347 970.5,-347 970.5,-317 815.5,-317"/>
<text text-anchor="start" x="823.5" y="-335" font-family="Helvetica,sans-Serif" font-size="10.00">animation.GUICreator.param</text>
<text text-anchor="middle" x="893" y="-324" font-family="Helvetica,sans-Serif" font-size="10.00">Labels</text>
</a>
</g>
</g>
<!-- Node17&#45;&gt;Node22 -->
<g id="edge22" class="edge"><title>Node17&#45;&gt;Node22</title>
<path fill="none" stroke="midnightblue" d="M746.129,-348.208C764.906,-346.122 785.432,-343.841 805.001,-341.667"/>
<polygon fill="midnightblue" stroke="midnightblue" points="805.58,-345.124 815.132,-340.541 804.807,-338.167 805.58,-345.124"/>
</g>
<!-- Node23 -->
<g id="node23" class="node"><title>Node23</title>
<g id="a_node23"><a xlink:href="../../da/d16/classanimation_1_1_animated_graph.html#a5044ded5b535e0e440c6d1d5ce4585c8" target="_top" xlink:title="animation.AnimatedGraph.init">
<polygon fill="white" stroke="black" points="812.5,-278.5 812.5,-297.5 973.5,-297.5 973.5,-278.5 812.5,-278.5"/>
<text text-anchor="middle" x="893" y="-285.5" font-family="Helvetica,sans-Serif" font-size="10.00">animation.AnimatedGraph.init</text>
</a>
</g>
</g>
<!-- Node17&#45;&gt;Node23 -->
<g id="edge23" class="edge"><title>Node17&#45;&gt;Node23</title>
<path fill="none" stroke="midnightblue" d="M746.248,-340.993C755.737,-338.126 765.22,-334.807 774,-331 791.42,-323.447 792.541,-315.462 810,-308 816.763,-305.11 824.025,-302.584 831.332,-300.391"/>
<polygon fill="midnightblue" stroke="midnightblue" points="832.595,-303.672 841.28,-297.604 830.706,-296.932 832.595,-303.672"/>
</g>
<!-- Node25 -->
<g id="node25" class="node"><title>Node25</title>
<g id="a_node25"><a xlink:href="../../d2/d60/classanimation_1_1_g_u_i_creator.html#a9e1146fc27571ad138c4718cd237494b" target="_top" xlink:title="animation.GUICreator.add\lButtonGrid">
<polygon fill="white" stroke="black" points="822.5,-229 822.5,-259 963.5,-259 963.5,-229 822.5,-229"/>
<text text-anchor="start" x="830.5" y="-247" font-family="Helvetica,sans-Serif" font-size="10.00">animation.GUICreator.add</text>
<text text-anchor="middle" x="893" y="-236" font-family="Helvetica,sans-Serif" font-size="10.00">ButtonGrid</text>
</a>
</g>
</g>
<!-- Node17&#45;&gt;Node25 -->
<g id="edge25" class="edge"><title>Node17&#45;&gt;Node25</title>
<path fill="none" stroke="midnightblue" d="M746.101,-345.469C756.075,-341.942 765.736,-337.247 774,-331 799.419,-311.786 785.031,-288.795 810,-269 812.296,-267.18 814.724,-265.492 817.25,-263.926"/>
<polygon fill="midnightblue" stroke="midnightblue" points="819.064,-266.923 826.166,-259.061 815.711,-260.778 819.064,-266.923"/>
</g>
<!-- Node26 -->
<g id="node26" class="node"><title>Node26</title>
<g id="a_node26"><a xlink:href="../../d2/d60/classanimation_1_1_g_u_i_creator.html#a66bb402660c9929c3b89d9625728ef1e" target="_top" xlink:title="animation.GUICreator.fps\lSlider">
<polygon fill="white" stroke="black" points="824.5,-180 824.5,-210 961.5,-210 961.5,-180 824.5,-180"/>
<text text-anchor="start" x="832.5" y="-198" font-family="Helvetica,sans-Serif" font-size="10.00">animation.GUICreator.fps</text>
<text text-anchor="middle" x="893" y="-187" font-family="Helvetica,sans-Serif" font-size="10.00">Slider</text>
</a>
</g>
</g>
<!-- Node17&#45;&gt;Node26 -->
<g id="edge26" class="edge"><title>Node17&#45;&gt;Node26</title>
<path fill="none" stroke="midnightblue" d="M746.128,-347.447C756.392,-343.685 766.134,-338.399 774,-331 812.086,-295.177 772.546,-255.483 810,-219 811.859,-217.189 813.848,-215.513 815.939,-213.963"/>
<polygon fill="midnightblue" stroke="midnightblue" points="817.871,-216.882 824.458,-208.583 814.134,-210.963 817.871,-216.882"/>
</g>
<!-- Node28 -->
<g id="node28" class="node"><title>Node28</title>
<g id="a_node28"><a xlink:href="../../d2/d60/classanimation_1_1_g_u_i_creator.html#aad6a5704677eac1c4eb00bb8fb6ee42e" target="_top" xlink:title="animation.GUICreator.param\lSliders">
<polygon fill="white" stroke="black" points="815.5,-131 815.5,-161 970.5,-161 970.5,-131 815.5,-131"/>
<text text-anchor="start" x="823.5" y="-149" font-family="Helvetica,sans-Serif" font-size="10.00">animation.GUICreator.param</text>
<text text-anchor="middle" x="893" y="-138" font-family="Helvetica,sans-Serif" font-size="10.00">Sliders</text>
</a>
</g>
</g>
<!-- Node17&#45;&gt;Node28 -->
<g id="edge28" class="edge"><title>Node17&#45;&gt;Node28</title>
<path fill="none" stroke="midnightblue" d="M746.477,-348.147C756.76,-344.306 766.418,-338.812 774,-331 825.069,-278.387 759.858,-223.498 810,-170 810.913,-169.026 811.863,-168.091 812.847,-167.193"/>
<polygon fill="midnightblue" stroke="midnightblue" points="815.134,-169.851 820.979,-161.014 810.899,-164.277 815.134,-169.851"/>
</g>
<!-- Node20 -->
<g id="node20" class="node"><title>Node20</title>
<g id="a_node20"><a xlink:href="../../d6/dff/classutility_1_1_cell_gen.html#a3a8e739f206100620d83c9a293902584" target="_top" xlink:title="utility.CellGen.makeShape">
<polygon fill="white" stroke="black" points="1030.5,-415.5 1030.5,-434.5 1171.5,-434.5 1171.5,-415.5 1030.5,-415.5"/>
<text text-anchor="middle" x="1101" y="-422.5" font-family="Helvetica,sans-Serif" font-size="10.00">utility.CellGen.makeShape</text>
</a>
</g>
</g>
<!-- Node19&#45;&gt;Node20 -->
<g id="edge20" class="edge"><title>Node19&#45;&gt;Node20</title>
<path fill="none" stroke="midnightblue" d="M941.002,-425C964.378,-425 993.282,-425 1020.01,-425"/>
<polygon fill="midnightblue" stroke="midnightblue" points="1020.13,-428.5 1030.13,-425 1020.13,-421.5 1020.13,-428.5"/>
</g>
<!-- Node24 -->
<g id="node24" class="node"><title>Node24</title>
<g id="a_node24"><a xlink:href="../../da/d16/classanimation_1_1_animated_graph.html#a150d323ef1d77399b14739d2fa245021" target="_top" xlink:title="animation.AnimatedGraph.create\lAddSeries">
<polygon fill="white" stroke="black" points="1012.5,-273 1012.5,-303 1189.5,-303 1189.5,-273 1012.5,-273"/>
<text text-anchor="start" x="1020.5" y="-291" font-family="Helvetica,sans-Serif" font-size="10.00">animation.AnimatedGraph.create</text>
<text text-anchor="middle" x="1101" y="-280" font-family="Helvetica,sans-Serif" font-size="10.00">AddSeries</text>
</a>
</g>
</g>
<!-- Node23&#45;&gt;Node24 -->
<g id="edge24" class="edge"><title>Node23&#45;&gt;Node24</title>
<path fill="none" stroke="midnightblue" d="M973.645,-288C982.957,-288 992.538,-288 1002.06,-288"/>
<polygon fill="midnightblue" stroke="midnightblue" points="1002.36,-291.5 1012.36,-288 1002.36,-284.5 1002.36,-291.5"/>
</g>
<!-- Node27 -->
<g id="node27" class="node"><title>Node27</title>
<g id="a_node27"><a xlink:href="../../d2/d60/classanimation_1_1_g_u_i_creator.html#a5bc0f0e5c1557be5cc7c752ea2d8fc8c" target="_top" xlink:title="animation.GUICreator.make\lSlider">
<polygon fill="white" stroke="black" points="1026,-180 1026,-210 1176,-210 1176,-180 1026,-180"/>
<text text-anchor="start" x="1034" y="-198" font-family="Helvetica,sans-Serif" font-size="10.00">animation.GUICreator.make</text>
<text text-anchor="middle" x="1101" y="-187" font-family="Helvetica,sans-Serif" font-size="10.00">Slider</text>
</a>
</g>
</g>
<!-- Node26&#45;&gt;Node27 -->
<g id="edge27" class="edge"><title>Node26&#45;&gt;Node27</title>
<path fill="none" stroke="midnightblue" d="M961.737,-195C978.973,-195 997.706,-195 1015.66,-195"/>
<polygon fill="midnightblue" stroke="midnightblue" points="1015.83,-198.5 1025.83,-195 1015.83,-191.5 1015.83,-198.5"/>
</g>
<!-- Node31 -->
<g id="node31" class="node"><title>Node31</title>
<g id="a_node31"><a xlink:href="../../d6/da5/classcellsociety__team05_1_1_master.html#a9e0818f6e4d1389a401b337b2c5c9f81" target="_top" xlink:title="cellsociety_team05.Master.add\lKeyFrame">
<polygon fill="white" stroke="black" points="810.5,-82 810.5,-112 975.5,-112 975.5,-82 810.5,-82"/>
<text text-anchor="start" x="818.5" y="-100" font-family="Helvetica,sans-Serif" font-size="10.00">cellsociety_team05.Master.add</text>
<text text-anchor="middle" x="893" y="-89" font-family="Helvetica,sans-Serif" font-size="10.00">KeyFrame</text>
</a>
</g>
</g>
<!-- Node30&#45;&gt;Node31 -->
<g id="edge31" class="edge"><title>Node30&#45;&gt;Node31</title>
<path fill="none" stroke="midnightblue" d="M690.281,-188.269C714.158,-172.355 764.095,-140.579 810,-121 814.656,-119.014 819.528,-117.131 824.475,-115.359"/>
<polygon fill="midnightblue" stroke="midnightblue" points="825.714,-118.635 834.045,-112.09 823.451,-112.011 825.714,-118.635"/>
</g>
<!-- Node32 -->
<g id="node32" class="node"><title>Node32</title>
<g id="a_node32"><a xlink:href="../../d6/da5/classcellsociety__team05_1_1_master.html#aef1f14e30284edb3e1f8c0c5636de390" target="_top" xlink:title="cellsociety_team05.Master.evolve">
<polygon fill="white" stroke="black" points="1012,-87.5 1012,-106.5 1190,-106.5 1190,-87.5 1012,-87.5"/>
<text text-anchor="middle" x="1101" y="-94.5" font-family="Helvetica,sans-Serif" font-size="10.00">cellsociety_team05.Master.evolve</text>
</a>
</g>
</g>
<!-- Node31&#45;&gt;Node32 -->
<g id="edge32" class="edge"><title>Node31&#45;&gt;Node32</title>
<path fill="none" stroke="midnightblue" d="M975.713,-97C984.271,-97 993.034,-97 1001.75,-97"/>
<polygon fill="midnightblue" stroke="midnightblue" points="1001.95,-100.5 1011.95,-97 1001.95,-93.5001 1001.95,-100.5"/>
</g>
<!-- Node33 -->
<g id="node33" class="node"><title>Node33</title>
<g id="a_node33"><a xlink:href="../../d9/d7b/classsimulations_1_1_sim.html#a864a4b1e5ab91624cd70ed9fbdc855ac" target="_top" xlink:title="simulations.Sim.nextGen">
<polygon fill="white" stroke="black" points="1241.5,-175.5 1241.5,-194.5 1378.5,-194.5 1378.5,-175.5 1241.5,-175.5"/>
<text text-anchor="middle" x="1310" y="-182.5" font-family="Helvetica,sans-Serif" font-size="10.00">simulations.Sim.nextGen</text>
</a>
</g>
</g>
<!-- Node32&#45;&gt;Node33 -->
<g id="edge33" class="edge"><title>Node32&#45;&gt;Node33</title>
<path fill="none" stroke="midnightblue" d="M1116.65,-106.72C1139.23,-121.312 1184.32,-148.882 1226,-165 1233.75,-167.997 1242.09,-170.641 1250.38,-172.942"/>
<polygon fill="midnightblue" stroke="midnightblue" points="1249.5,-176.329 1260.06,-175.487 1251.28,-169.559 1249.5,-176.329"/>
</g>
<!-- Node34 -->
<g id="node34" class="node"><title>Node34</title>
<g id="a_node34"><a xlink:href="../../d9/dd0/classcellsociety__team05_1_1_scene_updater.html#a426e94fe0be8484ef5796171e64f8a3a" target="_top" xlink:title="cellsociety_team05.Scene\lUpdater.updateGraph">
<polygon fill="white" stroke="black" points="1239,-126 1239,-156 1381,-156 1381,-126 1239,-126"/>
<text text-anchor="start" x="1247" y="-144" font-family="Helvetica,sans-Serif" font-size="10.00">cellsociety_team05.Scene</text>
<text text-anchor="middle" x="1310" y="-133" font-family="Helvetica,sans-Serif" font-size="10.00">Updater.updateGraph</text>
</a>
</g>
</g>
<!-- Node32&#45;&gt;Node34 -->
<g id="edge34" class="edge"><title>Node32&#45;&gt;Node34</title>
<path fill="none" stroke="midnightblue" d="M1146.92,-106.547C1170.85,-111.635 1201.02,-118.047 1228.81,-123.956"/>
<polygon fill="midnightblue" stroke="midnightblue" points="1228.42,-127.451 1238.93,-126.106 1229.88,-120.604 1228.42,-127.451"/>
</g>
<!-- Node36 -->
<g id="node36" class="node"><title>Node36</title>
<g id="a_node36"><a xlink:href="../../d9/d7b/classsimulations_1_1_sim.html#ae840fd3e0813718f05bee889fb097fcc" target="_top" xlink:title="simulations.Sim.cellProportions">
<polygon fill="white" stroke="black" points="1226.5,-87.5 1226.5,-106.5 1393.5,-106.5 1393.5,-87.5 1226.5,-87.5"/>
<text text-anchor="middle" x="1310" y="-94.5" font-family="Helvetica,sans-Serif" font-size="10.00">simulations.Sim.cellProportions</text>
</a>
</g>
</g>
<!-- Node32&#45;&gt;Node36 -->
<g id="edge36" class="edge"><title>Node32&#45;&gt;Node36</title>
<path fill="none" stroke="midnightblue" d="M1190.09,-97C1198.71,-97 1207.47,-97 1216.14,-97"/>
<polygon fill="midnightblue" stroke="midnightblue" points="1216.25,-100.5 1226.25,-97 1216.25,-93.5001 1216.25,-100.5"/>
</g>
<!-- Node37 -->
<g id="node37" class="node"><title>Node37</title>
<g id="a_node37"><a xlink:href="../../d9/d7b/classsimulations_1_1_sim.html#aae4b6d35eccef9920616ce7a2fb86794" target="_top" xlink:title="simulations.Sim.setNewParams">
<polygon fill="white" stroke="black" points="1226.5,-49.5 1226.5,-68.5 1393.5,-68.5 1393.5,-49.5 1226.5,-49.5"/>
<text text-anchor="middle" x="1310" y="-56.5" font-family="Helvetica,sans-Serif" font-size="10.00">simulations.Sim.setNewParams</text>
</a>
</g>
</g>
<!-- Node32&#45;&gt;Node37 -->
<g id="edge37" class="edge"><title>Node32&#45;&gt;Node37</title>
<path fill="none" stroke="midnightblue" d="M1153.97,-87.46C1182.27,-82.2652 1217.46,-75.8037 1247.17,-70.3511"/>
<polygon fill="midnightblue" stroke="midnightblue" points="1247.81,-73.792 1257.01,-68.5439 1246.54,-66.9071 1247.81,-73.792"/>
</g>
<!-- Node38 -->
<g id="node38" class="node"><title>Node38</title>
<g id="a_node38"><a xlink:href="../../d9/dd0/classcellsociety__team05_1_1_scene_updater.html#abc68af978ebd0da668f37510dd34aaf4" target="_top" xlink:title="cellsociety_team05.Scene\lUpdater.newParams">
<polygon fill="white" stroke="black" points="1239,-0 1239,-30 1381,-30 1381,-0 1239,-0"/>
<text text-anchor="start" x="1247" y="-18" font-family="Helvetica,sans-Serif" font-size="10.00">cellsociety_team05.Scene</text>
<text text-anchor="middle" x="1310" y="-7" font-family="Helvetica,sans-Serif" font-size="10.00">Updater.newParams</text>
</a>
</g>
</g>
<!-- Node32&#45;&gt;Node38 -->
<g id="edge38" class="edge"><title>Node32&#45;&gt;Node38</title>
<path fill="none" stroke="midnightblue" d="M1120.56,-87.4844C1144.51,-75.4366 1187.66,-54.5054 1226,-40 1232.24,-37.6384 1238.81,-35.3449 1245.41,-33.1666"/>
<polygon fill="midnightblue" stroke="midnightblue" points="1246.61,-36.4569 1255.06,-30.0633 1244.47,-29.7931 1246.61,-36.4569"/>
</g>
<!-- Node35 -->
<g id="node35" class="node"><title>Node35</title>
<g id="a_node35"><a xlink:href="../../da/d16/classanimation_1_1_animated_graph.html#a784a1784f9e1ad102bcc7e194da19c44" target="_top" xlink:title="animation.AnimatedGraph.addData">
<polygon fill="white" stroke="black" points="1430,-131.5 1430,-150.5 1618,-150.5 1618,-131.5 1430,-131.5"/>
<text text-anchor="middle" x="1524" y="-138.5" font-family="Helvetica,sans-Serif" font-size="10.00">animation.AnimatedGraph.addData</text>
</a>
</g>
</g>
<!-- Node34&#45;&gt;Node35 -->
<g id="edge35" class="edge"><title>Node34&#45;&gt;Node35</title>
<path fill="none" stroke="midnightblue" d="M1381,-141C1393.28,-141 1406.29,-141 1419.25,-141"/>
<polygon fill="midnightblue" stroke="midnightblue" points="1419.62,-144.5 1429.62,-141 1419.62,-137.5 1419.62,-144.5"/>
</g>
</g>
</svg>
        <g id="navigator" transform="translate(0 0)" fill="#404254">
                <rect fill="#f2f5e9" fill-opacity="0.5" stroke="#606060" stroke-width=".5" x="0" y="0" width="60" height="60"/>
                <use id="zoomplus" xlink:href="#zoomPlus" x="17" y="9" onmousedown="handleZoom(evt,'in')"/>
                <use id="zoomminus" xlink:href="#zoomMin" x="42" y="9" onmousedown="handleZoom(evt,'out')"/>
                <use id="reset" xlink:href="#resetDef" x="30" y="36" onmousedown="handleReset()"/>
                <g id="arrowUp" xlink:href="#dirArrow" transform="translate(30 24)" onmousedown="handlePan(0,-1)">
                  <use xlink:href="#rim" fill="#404040">
                        <set attributeName="fill" to="#808080" begin="arrowUp.mouseover" end="arrowUp.mouseout"/>
                  </use>
                  <path fill="none" stroke="white" stroke-width="1.5" d="M0,-3.0v7 M-2.5,-0.5L0,-3.0L2.5,-0.5"/>
                </g>
                <g id="arrowRight" xlink:href="#dirArrow" transform="rotate(90) translate(36 -43)" onmousedown="handlePan(1,0)">
                  <use xlink:href="#rim" fill="#404040">
                        <set attributeName="fill" to="#808080" begin="arrowRight.mouseover" end="arrowRight.mouseout"/>
                  </use>
                  <path fill="none" stroke="white" stroke-width="1.5" d="M0,-3.0v7 M-2.5,-0.5L0,-3.0L2.5,-0.5"/>
                </g>
                <g id="arrowDown" xlink:href="#dirArrow" transform="rotate(180) translate(-30 -48)" onmousedown="handlePan(0,1)">
                  <use xlink:href="#rim" fill="#404040">
                        <set attributeName="fill" to="#808080" begin="arrowDown.mouseover" end="arrowDown.mouseout"/>
                  </use>
                  <path fill="none" stroke="white" stroke-width="1.5" d="M0,-3.0v7 M-2.5,-0.5L0,-3.0L2.5,-0.5"/>
                </g>
                <g id="arrowLeft" xlink:href="#dirArrow" transform="rotate(270) translate(-36 17)" onmousedown="handlePan(-1,0)">
                  <use xlink:href="#rim" fill="#404040">
                        <set attributeName="fill" to="#808080" begin="arrowLeft.mouseover" end="arrowLeft.mouseout"/>
                  </use>
                  <path fill="none" stroke="white" stroke-width="1.5" d="M0,-3.0v7 M-2.5,-0.5L0,-3.0L2.5,-0.5"/>
                </g>
        </g>
        <svg viewBox="0 0 15 15" width="100%" height="30px" preserveAspectRatio="xMaxYMin meet">
         <g id="arrow_out" transform="scale(0.3 0.3)">
          <a xlink:href="classanimation_1_1_g_u_i_creator_ac4c8bd0d5bc08d30393866736d995aa5_cgraph_org.svg" target="_base">
           <rect id="button" ry="5" rx="5" y="6" x="6" height="38" width="38"
                fill="#f2f5e9" fill-opacity="0.5" stroke="#606060" stroke-width="1.0"/>
           <path id="arrow"
             d="M 11.500037,31.436501 C 11.940474,20.09759 22.043105,11.32322 32.158766,21.979434 L 37.068811,17.246167 C 37.068811,17.246167 37.088388,32 37.088388,32 L 22.160133,31.978069 C 22.160133,31.978069 26.997745,27.140456 26.997745,27.140456 C 18.528582,18.264221 13.291696,25.230495 11.500037,31.436501 z"
             style="fill:#404040;"/>
          </a>
         </g>
        </svg>
</svg>
