<?xml version="1.0" encoding="UTF-8" standalone="no"?>
<!DOCTYPE svg PUBLIC "-//W3C//DTD SVG 1.1//EN"
 "http://www.w3.org/Graphics/SVG/1.1/DTD/svg11.dtd">
<!-- Generated by graphviz version 2.36.0 (20140111.2315)
 -->
<!-- Title: animation.GUICreator.addPlayButton Pages: 1 -->
<svg width="330pt" height="38pt"
 viewBox="0.00 0.00 330.00 38.00" xmlns="http://www.w3.org/2000/svg" xmlns:xlink="http://www.w3.org/1999/xlink">
<g id="graph0" class="graph" transform="scale(1 1) rotate(0) translate(4 34)">
<title>animation.GUICreator.addPlayButton</title>
<polygon fill="white" stroke="none" points="-4,4 -4,-34 326,-34 326,4 -4,4"/>
<!-- Node1 -->
<g id="node1" class="node"><title>Node1</title>
<polygon fill="#bfbfbf" stroke="black" points="0.5,-0 0.5,-30 141.5,-30 141.5,-0 0.5,-0"/>
<text text-anchor="start" x="8.5" y="-18" font-family="Helvetica,sans-Serif" font-size="10.00">animation.GUICreator.add</text>
<text text-anchor="middle" x="71" y="-7" font-family="Helvetica,sans-Serif" font-size="10.00">PlayButton</text>
</g>
<!-- Node2 -->
<g id="node2" class="node"><title>Node2</title>
<g id="a_node2"><a xlink:href="../../d2/d60/classanimation_1_1_g_u_i_creator.html#a9631b5573447aeb7a796dad4e7380274" target="_top" xlink:title="animation.GUICreator.play\lAction">
<polygon fill="white" stroke="black" points="178.5,-0 178.5,-30 321.5,-30 321.5,-0 178.5,-0"/>
<text text-anchor="start" x="186.5" y="-18" font-family="Helvetica,sans-Serif" font-size="10.00">animation.GUICreator.play</text>
<text text-anchor="middle" x="250" y="-7" font-family="Helvetica,sans-Serif" font-size="10.00">Action</text>
</a>
</g>
</g>
<!-- Node1&#45;&gt;Node2 -->
<g id="edge1" class="edge"><title>Node1&#45;&gt;Node2</title>
<path fill="none" stroke="midnightblue" d="M141.701,-15C150.487,-15 159.532,-15 168.468,-15"/>
<polygon fill="midnightblue" stroke="midnightblue" points="168.491,-18.5001 178.491,-15 168.491,-11.5001 168.491,-18.5001"/>
</g>
</g>
</svg>
