<?xml version="1.0" encoding="UTF-8" standalone="no"?>
<!DOCTYPE svg PUBLIC "-//W3C//DTD SVG 1.1//EN"
 "http://www.w3.org/Graphics/SVG/1.1/DTD/svg11.dtd">
<!-- Generated by graphviz version 2.36.0 (20140111.2315)
 -->
<!-- Title: animation.GUICreator.fpsSlider Pages: 1 -->
<svg width="1128pt" height="77pt"
 viewBox="0.00 0.00 1128.00 77.00" xmlns="http://www.w3.org/2000/svg" xmlns:xlink="http://www.w3.org/1999/xlink">
<g id="graph0" class="graph" transform="scale(1 1) rotate(0) translate(4 73)">
<title>animation.GUICreator.fpsSlider</title>
<polygon fill="white" stroke="none" points="-4,4 -4,-73 1124,-73 1124,4 -4,4"/>
<!-- Node1 -->
<g id="node1" class="node"><title>Node1</title>
<polygon fill="#bfbfbf" stroke="black" points="0.5,-17 0.5,-47 137.5,-47 137.5,-17 0.5,-17"/>
<text text-anchor="start" x="8.5" y="-35" font-family="Helvetica,sans-Serif" font-size="10.00">animation.GUICreator.fps</text>
<text text-anchor="middle" x="69" y="-24" font-family="Helvetica,sans-Serif" font-size="10.00">Slider</text>
</g>
<!-- Node2 -->
<g id="node2" class="node"><title>Node2</title>
<g id="a_node2"><a xlink:href="../../d9/dd0/classcellsociety__team05_1_1_scene_updater.html#a797cf5fc8c06caca14a6415e348ee2d0" target="_top" xlink:title="cellsociety_team05.Scene\lUpdater.newScene">
<polygon fill="white" stroke="black" points="174,-17 174,-47 316,-47 316,-17 174,-17"/>
<text text-anchor="start" x="182" y="-35" font-family="Helvetica,sans-Serif" font-size="10.00">cellsociety_team05.Scene</text>
<text text-anchor="middle" x="245" y="-24" font-family="Helvetica,sans-Serif" font-size="10.00">Updater.newScene</text>
</a>
</g>
</g>
<!-- Node1&#45;&gt;Node2 -->
<g id="edge1" class="edge"><title>Node1&#45;&gt;Node2</title>
<path fill="none" stroke="midnightblue" d="M147.852,-32C156.506,-32 165.281,-32 173.831,-32"/>
<polygon fill="midnightblue" stroke="midnightblue" points="147.771,-28.5001 137.771,-32 147.771,-35.5001 147.771,-28.5001"/>
</g>
<!-- Node3 -->
<g id="node3" class="node"><title>Node3</title>
<g id="a_node3"><a xlink:href="../../d6/da5/classcellsociety__team05_1_1_master.html#ac10570db09b5b348c023bbd5e1df801b" target="_top" xlink:title="cellsociety_team05.Master.init">
<polygon fill="white" stroke="black" points="352.5,-22.5 352.5,-41.5 513.5,-41.5 513.5,-22.5 352.5,-22.5"/>
<text text-anchor="middle" x="433" y="-29.5" font-family="Helvetica,sans-Serif" font-size="10.00">cellsociety_team05.Master.init</text>
</a>
</g>
</g>
<!-- Node2&#45;&gt;Node3 -->
<g id="edge2" class="edge"><title>Node2&#45;&gt;Node3</title>
<path fill="none" stroke="midnightblue" d="M326.153,-32C334.831,-32 343.662,-32 352.335,-32"/>
<polygon fill="midnightblue" stroke="midnightblue" points="326.054,-28.5001 316.054,-32 326.054,-35.5001 326.054,-28.5001"/>
</g>
<!-- Node4 -->
<g id="node4" class="node"><title>Node4</title>
<g id="a_node4"><a xlink:href="../../d2/d60/classanimation_1_1_g_u_i_creator.html#a61c68b3e24b62788dab86e5240991107" target="_top" xlink:title="animation.GUICreator.load\lAction">
<polygon fill="white" stroke="black" points="558.5,-39 558.5,-69 701.5,-69 701.5,-39 558.5,-39"/>
<text text-anchor="start" x="566.5" y="-57" font-family="Helvetica,sans-Serif" font-size="10.00">animation.GUICreator.load</text>
<text text-anchor="middle" x="630" y="-46" font-family="Helvetica,sans-Serif" font-size="10.00">Action</text>
</a>
</g>
</g>
<!-- Node3&#45;&gt;Node4 -->
<g id="edge3" class="edge"><title>Node3&#45;&gt;Node4</title>
<path fill="none" stroke="midnightblue" d="M523.759,-42.1267C535.388,-43.4386 547.164,-44.7673 558.421,-46.0373"/>
<polygon fill="midnightblue" stroke="midnightblue" points="523.925,-38.6232 513.595,-40.98 523.14,-45.5791 523.925,-38.6232"/>
</g>
<!-- Node7 -->
<g id="node7" class="node"><title>Node7</title>
<g id="a_node7"><a xlink:href="../../de/d00/classcellsociety__team05_1_1_main.html#a7663311e53af8548f912c74dcc829624" target="_top" xlink:title="cellsociety_team05.Main.start">
<polygon fill="white" stroke="black" points="550,-0.5 550,-19.5 710,-19.5 710,-0.5 550,-0.5"/>
<text text-anchor="middle" x="630" y="-7.5" font-family="Helvetica,sans-Serif" font-size="10.00">cellsociety_team05.Main.start</text>
</a>
</g>
</g>
<!-- Node3&#45;&gt;Node7 -->
<g id="edge6" class="edge"><title>Node3&#45;&gt;Node7</title>
<path fill="none" stroke="midnightblue" d="M523.797,-21.8691C532.534,-20.8833 541.355,-19.8882 549.975,-18.9157"/>
<polygon fill="midnightblue" stroke="midnightblue" points="523.14,-18.4209 513.595,-23.02 523.925,-25.3768 523.14,-18.4209"/>
</g>
<!-- Node5 -->
<g id="node5" class="node"><title>Node5</title>
<g id="a_node5"><a xlink:href="../../d2/d60/classanimation_1_1_g_u_i_creator.html#ac4c8bd0d5bc08d30393866736d995aa5" target="_top" xlink:title="animation.GUICreator.addload\lXMLButton">
<polygon fill="white" stroke="black" points="746.5,-39 746.5,-69 907.5,-69 907.5,-39 746.5,-39"/>
<text text-anchor="start" x="754.5" y="-57" font-family="Helvetica,sans-Serif" font-size="10.00">animation.GUICreator.addload</text>
<text text-anchor="middle" x="827" y="-46" font-family="Helvetica,sans-Serif" font-size="10.00">XMLButton</text>
</a>
</g>
</g>
<!-- Node4&#45;&gt;Node5 -->
<g id="edge4" class="edge"><title>Node4&#45;&gt;Node5</title>
<path fill="none" stroke="midnightblue" d="M711.991,-54C723.338,-54 734.992,-54 746.314,-54"/>
<polygon fill="midnightblue" stroke="midnightblue" points="711.675,-50.5001 701.675,-54 711.675,-57.5001 711.675,-50.5001"/>
</g>
<!-- Node6 -->
<g id="node6" class="node"><title>Node6</title>
<g id="a_node6"><a xlink:href="../../d2/d60/classanimation_1_1_g_u_i_creator.html#a9a94a22da284976e0a39d9b58e6646ae" target="_top" xlink:title="animation.GUICreator.GUICreator">
<polygon fill="white" stroke="black" points="944,-44.5 944,-63.5 1120,-63.5 1120,-44.5 944,-44.5"/>
<text text-anchor="middle" x="1032" y="-51.5" font-family="Helvetica,sans-Serif" font-size="10.00">animation.GUICreator.GUICreator</text>
</a>
</g>
</g>
<!-- Node5&#45;&gt;Node6 -->
<g id="edge5" class="edge"><title>Node5&#45;&gt;Node6</title>
<path fill="none" stroke="midnightblue" d="M917.761,-54C926.433,-54 935.222,-54 943.869,-54"/>
<polygon fill="midnightblue" stroke="midnightblue" points="917.648,-50.5001 907.648,-54 917.648,-57.5001 917.648,-50.5001"/>
</g>
</g>
</svg>
