<?xml version="1.0" encoding="UTF-8" standalone="no"?>
<!DOCTYPE svg PUBLIC "-//W3C//DTD SVG 1.1//EN"
 "http://www.w3.org/Graphics/SVG/1.1/DTD/svg11.dtd">
<!-- Generated by graphviz version 2.36.0 (20140111.2315)
 -->
<!-- Title: animation.GUICreator.makeSlider Pages: 1 -->
<!--zoomable 257 -->
<svg id="main" version="1.1" xmlns="http://www.w3.org/2000/svg" xmlns:xlink="http://www.w3.org/1999/xlink" xml:space="preserve" onload="init(evt)">
<style type="text/css"><![CDATA[
.edge:hover path { stroke: red; }
.edge:hover polygon { stroke: red; fill: red; }
]]></style>
<script type="text/javascript"><![CDATA[
var edges = document.getElementsByTagName('g');
if (edges && edges.length) {
  for (var i=0;i<edges.length;i++) {
    if (edges[i].id.substr(0,4)=='edge') {
      edges[i].setAttribute('class','edge');
    }
  }
}
]]></script>
        <defs>
                <circle id="rim" cx="0" cy="0" r="7"/>
                <circle id="rim2" cx="0" cy="0" r="3.5"/>
                <g id="zoomPlus">
                        <use xlink:href="#rim" fill="#404040">
                                <set attributeName="fill" to="#808080" begin="zoomplus.mouseover" end="zoomplus.mouseout"/>
                        </use>
                        <path d="M-4,0h8M0,-4v8" fill="none" stroke="white" stroke-width="1.5" pointer-events="none"/>
                </g>
                <g id="zoomMin">
                        <use xlink:href="#rim" fill="#404040">
                                <set attributeName="fill" to="#808080" begin="zoomminus.mouseover" end="zoomminus.mouseout"/>
                        </use>
                        <path d="M-4,0h8" fill="none" stroke="white" stroke-width="1.5" pointer-events="none"/>
                </g>
                <g id="dirArrow">
                        <path fill="none" stroke="white" stroke-width="1.5" d="M0,-3.0v7 M-2.5,-0.5L0,-3.0L2.5,-0.5"/>
                </g>
               <g id="resetDef">
                       <use xlink:href="#rim2" fill="#404040">
                               <set attributeName="fill" to="#808080" begin="reset.mouseover" end="reset.mouseout"/>
                       </use>
               </g>
        </defs>

<script type="text/javascript">
var viewWidth = 1370;
var viewHeight = 257;
var sectionId = 'dynsection-16';
</script>
<script xlink:href="../../svgpan.js"/>
<svg id="graph" class="graph">
<g id="viewport">
<title>animation.GUICreator.makeSlider</title>
<polygon fill="white" stroke="none" points="-4,4 -4,-253 1366,-253 1366,4 -4,4"/>
<!-- Node1 -->
<g id="node1" class="node"><title>Node1</title>
<polygon fill="#bfbfbf" stroke="black" points="0,-99 0,-129 150,-129 150,-99 0,-99"/>
<text text-anchor="start" x="8" y="-117" font-family="Helvetica,sans-Serif" font-size="10.00">animation.GUICreator.make</text>
<text text-anchor="middle" x="75" y="-106" font-family="Helvetica,sans-Serif" font-size="10.00">Slider</text>
</g>
<!-- Node2 -->
<g id="node2" class="node"><title>Node2</title>
<g id="a_node2"><a xlink:href="../../d2/d60/classanimation_1_1_g_u_i_creator.html#a66bb402660c9929c3b89d9625728ef1e" target="_top" xlink:title="animation.GUICreator.fps\lSlider">
<polygon fill="white" stroke="black" points="214.5,-197 214.5,-227 351.5,-227 351.5,-197 214.5,-197"/>
<text text-anchor="start" x="222.5" y="-215" font-family="Helvetica,sans-Serif" font-size="10.00">animation.GUICreator.fps</text>
<text text-anchor="middle" x="283" y="-204" font-family="Helvetica,sans-Serif" font-size="10.00">Slider</text>
</a>
</g>
</g>
<!-- Node1&#45;&gt;Node2 -->
<g id="edge1" class="edge"><title>Node1&#45;&gt;Node2</title>
<path fill="none" stroke="midnightblue" d="M102.701,-135.4C124.112,-151.622 155.52,-173.376 186,-187 194.962,-191.006 204.693,-194.467 214.405,-197.428"/>
<polygon fill="midnightblue" stroke="midnightblue" points="104.788,-132.59 94.7286,-129.265 100.519,-138.137 104.788,-132.59"/>
</g>
<!-- Node9 -->
<g id="node9" class="node"><title>Node9</title>
<g id="a_node9"><a xlink:href="../../da/dfb/classanimation_1_1_schelling_animation.html#a33bfb54fb619d4814a21fa8c2eb3c299" target="_top" xlink:title="animation.SchellingAnimation.param\lSliders">
<polygon fill="white" stroke="black" points="186,-148 186,-178 380,-178 380,-148 186,-148"/>
<text text-anchor="start" x="194" y="-166" font-family="Helvetica,sans-Serif" font-size="10.00">animation.SchellingAnimation.param</text>
<text text-anchor="middle" x="283" y="-155" font-family="Helvetica,sans-Serif" font-size="10.00">Sliders</text>
</a>
</g>
</g>
<!-- Node1&#45;&gt;Node9 -->
<g id="edge8" class="edge"><title>Node1&#45;&gt;Node9</title>
<path fill="none" stroke="midnightblue" d="M149.167,-131.404C171.955,-136.824 196.876,-142.752 218.913,-147.994"/>
<polygon fill="midnightblue" stroke="midnightblue" points="149.745,-127.944 139.207,-129.035 148.125,-134.754 149.745,-127.944"/>
</g>
<!-- Node10 -->
<g id="node10" class="node"><title>Node10</title>
<g id="a_node10"><a xlink:href="../../d5/d52/classanimation_1_1_fire_animation.html#a91ff45e2f1ca4b877a906ef4f0bcde3b" target="_top" xlink:title="animation.FireAnimation.param\lSliders">
<polygon fill="white" stroke="black" points="199.5,-99 199.5,-129 366.5,-129 366.5,-99 199.5,-99"/>
<text text-anchor="start" x="207.5" y="-117" font-family="Helvetica,sans-Serif" font-size="10.00">animation.FireAnimation.param</text>
<text text-anchor="middle" x="283" y="-106" font-family="Helvetica,sans-Serif" font-size="10.00">Sliders</text>
</a>
</g>
</g>
<!-- Node1&#45;&gt;Node10 -->
<g id="edge9" class="edge"><title>Node1&#45;&gt;Node10</title>
<path fill="none" stroke="midnightblue" d="M160.345,-114C173.274,-114 186.609,-114 199.498,-114"/>
<polygon fill="midnightblue" stroke="midnightblue" points="160.08,-110.5 150.08,-114 160.08,-117.5 160.08,-110.5"/>
</g>
<!-- Node11 -->
<g id="node11" class="node"><title>Node11</title>
<g id="a_node11"><a xlink:href="../../de/df1/classanimation_1_1_wator_animation.html#ab11df8058d084470d02df276636b2fb9" target="_top" xlink:title="animation.WatorAnimation.param\lSliders">
<polygon fill="white" stroke="black" points="194,-50 194,-80 372,-80 372,-50 194,-50"/>
<text text-anchor="start" x="202" y="-68" font-family="Helvetica,sans-Serif" font-size="10.00">animation.WatorAnimation.param</text>
<text text-anchor="middle" x="283" y="-57" font-family="Helvetica,sans-Serif" font-size="10.00">Sliders</text>
</a>
</g>
</g>
<!-- Node1&#45;&gt;Node11 -->
<g id="edge10" class="edge"><title>Node1&#45;&gt;Node11</title>
<path fill="none" stroke="midnightblue" d="M149.167,-96.5962C171.955,-91.1757 196.876,-85.248 218.913,-80.0062"/>
<polygon fill="midnightblue" stroke="midnightblue" points="148.125,-93.2462 139.207,-98.9654 149.745,-100.056 148.125,-93.2462"/>
</g>
<!-- Node12 -->
<g id="node12" class="node"><title>Node12</title>
<g id="a_node12"><a xlink:href="../../d0/dad/classanimation_1_1_forage_animation.html#aa6bc700d830bcd494d17dbcab2d86b15" target="_top" xlink:title="animation.ForageAnimation.param\lSliders">
<polygon fill="white" stroke="black" points="191,-1 191,-31 375,-31 375,-1 191,-1"/>
<text text-anchor="start" x="199" y="-19" font-family="Helvetica,sans-Serif" font-size="10.00">animation.ForageAnimation.param</text>
<text text-anchor="middle" x="283" y="-8" font-family="Helvetica,sans-Serif" font-size="10.00">Sliders</text>
</a>
</g>
</g>
<!-- Node1&#45;&gt;Node12 -->
<g id="edge11" class="edge"><title>Node1&#45;&gt;Node12</title>
<path fill="none" stroke="midnightblue" d="M102.701,-92.5998C124.112,-76.3781 155.52,-54.6236 186,-41 194.491,-37.205 203.671,-33.8986 212.872,-31.0436"/>
<polygon fill="midnightblue" stroke="midnightblue" points="100.519,-89.8627 94.7286,-98.7353 104.788,-95.4102 100.519,-89.8627"/>
</g>
<!-- Node3 -->
<g id="node3" class="node"><title>Node3</title>
<g id="a_node3"><a xlink:href="../../d9/dd0/classcellsociety__team05_1_1_scene_updater.html#a797cf5fc8c06caca14a6415e348ee2d0" target="_top" xlink:title="cellsociety_team05.Scene\lUpdater.newScene">
<polygon fill="white" stroke="black" points="416,-197 416,-227 558,-227 558,-197 416,-197"/>
<text text-anchor="start" x="424" y="-215" font-family="Helvetica,sans-Serif" font-size="10.00">cellsociety_team05.Scene</text>
<text text-anchor="middle" x="487" y="-204" font-family="Helvetica,sans-Serif" font-size="10.00">Updater.newScene</text>
</a>
</g>
</g>
<!-- Node2&#45;&gt;Node3 -->
<g id="edge2" class="edge"><title>Node2&#45;&gt;Node3</title>
<path fill="none" stroke="midnightblue" d="M361.857,-212C379.601,-212 398.352,-212 415.756,-212"/>
<polygon fill="midnightblue" stroke="midnightblue" points="361.544,-208.5 351.544,-212 361.544,-215.5 361.544,-208.5"/>
</g>
<!-- Node4 -->
<g id="node4" class="node"><title>Node4</title>
<g id="a_node4"><a xlink:href="../../d6/da5/classcellsociety__team05_1_1_master.html#ac10570db09b5b348c023bbd5e1df801b" target="_top" xlink:title="cellsociety_team05.Master.init">
<polygon fill="white" stroke="black" points="594.5,-202.5 594.5,-221.5 755.5,-221.5 755.5,-202.5 594.5,-202.5"/>
<text text-anchor="middle" x="675" y="-209.5" font-family="Helvetica,sans-Serif" font-size="10.00">cellsociety_team05.Master.init</text>
</a>
</g>
</g>
<!-- Node3&#45;&gt;Node4 -->
<g id="edge3" class="edge"><title>Node3&#45;&gt;Node4</title>
<path fill="none" stroke="midnightblue" d="M568.153,-212C576.831,-212 585.662,-212 594.335,-212"/>
<polygon fill="midnightblue" stroke="midnightblue" points="568.054,-208.5 558.054,-212 568.054,-215.5 568.054,-208.5"/>
</g>
<!-- Node5 -->
<g id="node5" class="node"><title>Node5</title>
<g id="a_node5"><a xlink:href="../../d2/d60/classanimation_1_1_g_u_i_creator.html#a61c68b3e24b62788dab86e5240991107" target="_top" xlink:title="animation.GUICreator.load\lAction">
<polygon fill="white" stroke="black" points="800.5,-219 800.5,-249 943.5,-249 943.5,-219 800.5,-219"/>
<text text-anchor="start" x="808.5" y="-237" font-family="Helvetica,sans-Serif" font-size="10.00">animation.GUICreator.load</text>
<text text-anchor="middle" x="872" y="-226" font-family="Helvetica,sans-Serif" font-size="10.00">Action</text>
</a>
</g>
</g>
<!-- Node4&#45;&gt;Node5 -->
<g id="edge4" class="edge"><title>Node4&#45;&gt;Node5</title>
<path fill="none" stroke="midnightblue" d="M765.759,-222.127C777.388,-223.439 789.164,-224.767 800.421,-226.037"/>
<polygon fill="midnightblue" stroke="midnightblue" points="765.925,-218.623 755.595,-220.98 765.14,-225.579 765.925,-218.623"/>
</g>
<!-- Node8 -->
<g id="node8" class="node"><title>Node8</title>
<g id="a_node8"><a xlink:href="../../de/d00/classcellsociety__team05_1_1_main.html#a7663311e53af8548f912c74dcc829624" target="_top" xlink:title="cellsociety_team05.Main.start">
<polygon fill="white" stroke="black" points="792,-180.5 792,-199.5 952,-199.5 952,-180.5 792,-180.5"/>
<text text-anchor="middle" x="872" y="-187.5" font-family="Helvetica,sans-Serif" font-size="10.00">cellsociety_team05.Main.start</text>
</a>
</g>
</g>
<!-- Node4&#45;&gt;Node8 -->
<g id="edge7" class="edge"><title>Node4&#45;&gt;Node8</title>
<path fill="none" stroke="midnightblue" d="M765.797,-201.869C774.534,-200.883 783.355,-199.888 791.975,-198.916"/>
<polygon fill="midnightblue" stroke="midnightblue" points="765.14,-198.421 755.595,-203.02 765.925,-205.377 765.14,-198.421"/>
</g>
<!-- Node6 -->
<g id="node6" class="node"><title>Node6</title>
<g id="a_node6"><a xlink:href="../../d2/d60/classanimation_1_1_g_u_i_creator.html#ac4c8bd0d5bc08d30393866736d995aa5" target="_top" xlink:title="animation.GUICreator.addload\lXMLButton">
<polygon fill="white" stroke="black" points="988.5,-219 988.5,-249 1149.5,-249 1149.5,-219 988.5,-219"/>
<text text-anchor="start" x="996.5" y="-237" font-family="Helvetica,sans-Serif" font-size="10.00">animation.GUICreator.addload</text>
<text text-anchor="middle" x="1069" y="-226" font-family="Helvetica,sans-Serif" font-size="10.00">XMLButton</text>
</a>
</g>
</g>
<!-- Node5&#45;&gt;Node6 -->
<g id="edge5" class="edge"><title>Node5&#45;&gt;Node6</title>
<path fill="none" stroke="midnightblue" d="M953.991,-234C965.338,-234 976.992,-234 988.314,-234"/>
<polygon fill="midnightblue" stroke="midnightblue" points="953.675,-230.5 943.675,-234 953.675,-237.5 953.675,-230.5"/>
</g>
<!-- Node7 -->
<g id="node7" class="node"><title>Node7</title>
<g id="a_node7"><a xlink:href="../../d2/d60/classanimation_1_1_g_u_i_creator.html#a9a94a22da284976e0a39d9b58e6646ae" target="_top" xlink:title="animation.GUICreator.GUICreator">
<polygon fill="white" stroke="black" points="1186,-224.5 1186,-243.5 1362,-243.5 1362,-224.5 1186,-224.5"/>
<text text-anchor="middle" x="1274" y="-231.5" font-family="Helvetica,sans-Serif" font-size="10.00">animation.GUICreator.GUICreator</text>
</a>
</g>
</g>
<!-- Node6&#45;&gt;Node7 -->
<g id="edge6" class="edge"><title>Node6&#45;&gt;Node7</title>
<path fill="none" stroke="midnightblue" d="M1159.76,-234C1168.43,-234 1177.22,-234 1185.87,-234"/>
<polygon fill="midnightblue" stroke="midnightblue" points="1159.65,-230.5 1149.65,-234 1159.65,-237.5 1159.65,-230.5"/>
</g>
</g>
</svg>
        <g id="navigator" transform="translate(0 0)" fill="#404254">
                <rect fill="#f2f5e9" fill-opacity="0.5" stroke="#606060" stroke-width=".5" x="0" y="0" width="60" height="60"/>
                <use id="zoomplus" xlink:href="#zoomPlus" x="17" y="9" onmousedown="handleZoom(evt,'in')"/>
                <use id="zoomminus" xlink:href="#zoomMin" x="42" y="9" onmousedown="handleZoom(evt,'out')"/>
                <use id="reset" xlink:href="#resetDef" x="30" y="36" onmousedown="handleReset()"/>
                <g id="arrowUp" xlink:href="#dirArrow" transform="translate(30 24)" onmousedown="handlePan(0,-1)">
                  <use xlink:href="#rim" fill="#404040">
                        <set attributeName="fill" to="#808080" begin="arrowUp.mouseover" end="arrowUp.mouseout"/>
                  </use>
                  <path fill="none" stroke="white" stroke-width="1.5" d="M0,-3.0v7 M-2.5,-0.5L0,-3.0L2.5,-0.5"/>
                </g>
                <g id="arrowRight" xlink:href="#dirArrow" transform="rotate(90) translate(36 -43)" onmousedown="handlePan(1,0)">
                  <use xlink:href="#rim" fill="#404040">
                        <set attributeName="fill" to="#808080" begin="arrowRight.mouseover" end="arrowRight.mouseout"/>
                  </use>
                  <path fill="none" stroke="white" stroke-width="1.5" d="M0,-3.0v7 M-2.5,-0.5L0,-3.0L2.5,-0.5"/>
                </g>
                <g id="arrowDown" xlink:href="#dirArrow" transform="rotate(180) translate(-30 -48)" onmousedown="handlePan(0,1)">
                  <use xlink:href="#rim" fill="#404040">
                        <set attributeName="fill" to="#808080" begin="arrowDown.mouseover" end="arrowDown.mouseout"/>
                  </use>
                  <path fill="none" stroke="white" stroke-width="1.5" d="M0,-3.0v7 M-2.5,-0.5L0,-3.0L2.5,-0.5"/>
                </g>
                <g id="arrowLeft" xlink:href="#dirArrow" transform="rotate(270) translate(-36 17)" onmousedown="handlePan(-1,0)">
                  <use xlink:href="#rim" fill="#404040">
                        <set attributeName="fill" to="#808080" begin="arrowLeft.mouseover" end="arrowLeft.mouseout"/>
                  </use>
                  <path fill="none" stroke="white" stroke-width="1.5" d="M0,-3.0v7 M-2.5,-0.5L0,-3.0L2.5,-0.5"/>
                </g>
        </g>
        <svg viewBox="0 0 15 15" width="100%" height="30px" preserveAspectRatio="xMaxYMin meet">
         <g id="arrow_out" transform="scale(0.3 0.3)">
          <a xlink:href="classanimation_1_1_g_u_i_creator_a5bc0f0e5c1557be5cc7c752ea2d8fc8c_icgraph_org.svg" target="_base">
           <rect id="button" ry="5" rx="5" y="6" x="6" height="38" width="38"
                fill="#f2f5e9" fill-opacity="0.5" stroke="#606060" stroke-width="1.0"/>
           <path id="arrow"
             d="M 11.500037,31.436501 C 11.940474,20.09759 22.043105,11.32322 32.158766,21.979434 L 37.068811,17.246167 C 37.068811,17.246167 37.088388,32 37.088388,32 L 22.160133,31.978069 C 22.160133,31.978069 26.997745,27.140456 26.997745,27.140456 C 18.528582,18.264221 13.291696,25.230495 11.500037,31.436501 z"
             style="fill:#404040;"/>
          </a>
         </g>
        </svg>
</svg>
