<?xml version="1.0" encoding="UTF-8" standalone="no"?>
<!DOCTYPE svg PUBLIC "-//W3C//DTD SVG 1.1//EN"
 "http://www.w3.org/Graphics/SVG/1.1/DTD/svg11.dtd">
<!-- Generated by graphviz version 2.36.0 (20140111.2315)
 -->
<!-- Title: utility.ColorPicker.setColors Pages: 1 -->
<svg width="1134pt" height="77pt"
 viewBox="0.00 0.00 1134.00 77.00" xmlns="http://www.w3.org/2000/svg" xmlns:xlink="http://www.w3.org/1999/xlink">
<g id="graph0" class="graph" transform="scale(1 1) rotate(0) translate(4 73)">
<title>utility.ColorPicker.setColors</title>
<polygon fill="white" stroke="none" points="-4,4 -4,-73 1130,-73 1130,4 -4,4"/>
<!-- Node1 -->
<g id="node1" class="node"><title>Node1</title>
<polygon fill="#bfbfbf" stroke="black" points="0,-22.5 0,-41.5 144,-41.5 144,-22.5 0,-22.5"/>
<text text-anchor="middle" x="72" y="-29.5" font-family="Helvetica,sans-Serif" font-size="10.00">utility.ColorPicker.setColors</text>
</g>
<!-- Node2 -->
<g id="node2" class="node"><title>Node2</title>
<g id="a_node2"><a xlink:href="../../d9/dd0/classcellsociety__team05_1_1_scene_updater.html#a797cf5fc8c06caca14a6415e348ee2d0" target="_top" xlink:title="cellsociety_team05.Scene\lUpdater.newScene">
<polygon fill="white" stroke="black" points="180,-17 180,-47 322,-47 322,-17 180,-17"/>
<text text-anchor="start" x="188" y="-35" font-family="Helvetica,sans-Serif" font-size="10.00">cellsociety_team05.Scene</text>
<text text-anchor="middle" x="251" y="-24" font-family="Helvetica,sans-Serif" font-size="10.00">Updater.newScene</text>
</a>
</g>
</g>
<!-- Node1&#45;&gt;Node2 -->
<g id="edge1" class="edge"><title>Node1&#45;&gt;Node2</title>
<path fill="none" stroke="midnightblue" d="M154.475,-32C162.928,-32 171.468,-32 179.782,-32"/>
<polygon fill="midnightblue" stroke="midnightblue" points="154.228,-28.5001 144.228,-32 154.228,-35.5001 154.228,-28.5001"/>
</g>
<!-- Node3 -->
<g id="node3" class="node"><title>Node3</title>
<g id="a_node3"><a xlink:href="../../d6/da5/classcellsociety__team05_1_1_master.html#ac10570db09b5b348c023bbd5e1df801b" target="_top" xlink:title="cellsociety_team05.Master.init">
<polygon fill="white" stroke="black" points="358.5,-22.5 358.5,-41.5 519.5,-41.5 519.5,-22.5 358.5,-22.5"/>
<text text-anchor="middle" x="439" y="-29.5" font-family="Helvetica,sans-Serif" font-size="10.00">cellsociety_team05.Master.init</text>
</a>
</g>
</g>
<!-- Node2&#45;&gt;Node3 -->
<g id="edge2" class="edge"><title>Node2&#45;&gt;Node3</title>
<path fill="none" stroke="midnightblue" d="M332.153,-32C340.831,-32 349.662,-32 358.335,-32"/>
<polygon fill="midnightblue" stroke="midnightblue" points="332.054,-28.5001 322.054,-32 332.054,-35.5001 332.054,-28.5001"/>
</g>
<!-- Node4 -->
<g id="node4" class="node"><title>Node4</title>
<g id="a_node4"><a xlink:href="../../d2/d60/classanimation_1_1_g_u_i_creator.html#a61c68b3e24b62788dab86e5240991107" target="_top" xlink:title="animation.GUICreator.load\lAction">
<polygon fill="white" stroke="black" points="564.5,-39 564.5,-69 707.5,-69 707.5,-39 564.5,-39"/>
<text text-anchor="start" x="572.5" y="-57" font-family="Helvetica,sans-Serif" font-size="10.00">animation.GUICreator.load</text>
<text text-anchor="middle" x="636" y="-46" font-family="Helvetica,sans-Serif" font-size="10.00">Action</text>
</a>
</g>
</g>
<!-- Node3&#45;&gt;Node4 -->
<g id="edge3" class="edge"><title>Node3&#45;&gt;Node4</title>
<path fill="none" stroke="midnightblue" d="M529.759,-42.1267C541.388,-43.4386 553.164,-44.7673 564.421,-46.0373"/>
<polygon fill="midnightblue" stroke="midnightblue" points="529.925,-38.6232 519.595,-40.98 529.14,-45.5791 529.925,-38.6232"/>
</g>
<!-- Node7 -->
<g id="node7" class="node"><title>Node7</title>
<g id="a_node7"><a xlink:href="../../de/d00/classcellsociety__team05_1_1_main.html#a7663311e53af8548f912c74dcc829624" target="_top" xlink:title="cellsociety_team05.Main.start">
<polygon fill="white" stroke="black" points="556,-0.5 556,-19.5 716,-19.5 716,-0.5 556,-0.5"/>
<text text-anchor="middle" x="636" y="-7.5" font-family="Helvetica,sans-Serif" font-size="10.00">cellsociety_team05.Main.start</text>
</a>
</g>
</g>
<!-- Node3&#45;&gt;Node7 -->
<g id="edge6" class="edge"><title>Node3&#45;&gt;Node7</title>
<path fill="none" stroke="midnightblue" d="M529.797,-21.8691C538.534,-20.8833 547.355,-19.8882 555.975,-18.9157"/>
<polygon fill="midnightblue" stroke="midnightblue" points="529.14,-18.4209 519.595,-23.02 529.925,-25.3768 529.14,-18.4209"/>
</g>
<!-- Node5 -->
<g id="node5" class="node"><title>Node5</title>
<g id="a_node5"><a xlink:href="../../d2/d60/classanimation_1_1_g_u_i_creator.html#ac4c8bd0d5bc08d30393866736d995aa5" target="_top" xlink:title="animation.GUICreator.addload\lXMLButton">
<polygon fill="white" stroke="black" points="752.5,-39 752.5,-69 913.5,-69 913.5,-39 752.5,-39"/>
<text text-anchor="start" x="760.5" y="-57" font-family="Helvetica,sans-Serif" font-size="10.00">animation.GUICreator.addload</text>
<text text-anchor="middle" x="833" y="-46" font-family="Helvetica,sans-Serif" font-size="10.00">XMLButton</text>
</a>
</g>
</g>
<!-- Node4&#45;&gt;Node5 -->
<g id="edge4" class="edge"><title>Node4&#45;&gt;Node5</title>
<path fill="none" stroke="midnightblue" d="M717.991,-54C729.338,-54 740.992,-54 752.314,-54"/>
<polygon fill="midnightblue" stroke="midnightblue" points="717.675,-50.5001 707.675,-54 717.675,-57.5001 717.675,-50.5001"/>
</g>
<!-- Node6 -->
<g id="node6" class="node"><title>Node6</title>
<g id="a_node6"><a xlink:href="../../d2/d60/classanimation_1_1_g_u_i_creator.html#a9a94a22da284976e0a39d9b58e6646ae" target="_top" xlink:title="animation.GUICreator.GUICreator">
<polygon fill="white" stroke="black" points="950,-44.5 950,-63.5 1126,-63.5 1126,-44.5 950,-44.5"/>
<text text-anchor="middle" x="1038" y="-51.5" font-family="Helvetica,sans-Serif" font-size="10.00">animation.GUICreator.GUICreator</text>
</a>
</g>
</g>
<!-- Node5&#45;&gt;Node6 -->
<g id="edge5" class="edge"><title>Node5&#45;&gt;Node6</title>
<path fill="none" stroke="midnightblue" d="M923.761,-54C932.433,-54 941.222,-54 949.869,-54"/>
<polygon fill="midnightblue" stroke="midnightblue" points="923.648,-50.5001 913.648,-54 923.648,-57.5001 923.648,-50.5001"/>
</g>
</g>
</svg>
