<?xml version="1.0" encoding="UTF-8" standalone="no"?>
<!DOCTYPE svg PUBLIC "-//W3C//DTD SVG 1.1//EN"
 "http://www.w3.org/Graphics/SVG/1.1/DTD/svg11.dtd">
<!-- Generated by graphviz version 2.36.0 (20140111.2315)
 -->
<!-- Title: simulations.Forage Pages: 1 -->
<svg width="482pt" height="174pt"
 viewBox="0.00 0.00 482.00 174.00" xmlns="http://www.w3.org/2000/svg" xmlns:xlink="http://www.w3.org/1999/xlink">
<g id="graph0" class="graph" transform="scale(1 1) rotate(0) translate(4 170)">
<title>simulations.Forage</title>
<polygon fill="white" stroke="none" points="-4,4 -4,-170 478,-170 478,4 -4,4"/>
<!-- Node1 -->
<g id="node1" class="node"><title>Node1</title>
<polygon fill="#bfbfbf" stroke="black" points="231.5,-0.5 231.5,-19.5 338.5,-19.5 338.5,-0.5 231.5,-0.5"/>
<text text-anchor="middle" x="285" y="-7.5" font-family="Helvetica,sans-Serif" font-size="10.00">simulations.Forage</text>
</g>
<!-- Node2 -->
<g id="node2" class="node"><title>Node2</title>
<g id="a_node2"><a xlink:href="../../d9/d7b/classsimulations_1_1_sim.html" target="_top" xlink:title="simulations.Sim">
<polygon fill="white" stroke="black" points="102.5,-78.5 102.5,-97.5 195.5,-97.5 195.5,-78.5 102.5,-78.5"/>
<text text-anchor="middle" x="149" y="-85.5" font-family="Helvetica,sans-Serif" font-size="10.00">simulations.Sim</text>
</a>
</g>
</g>
<!-- Node2&#45;&gt;Node1 -->
<g id="edge1" class="edge"><title>Node2&#45;&gt;Node1</title>
<path fill="none" stroke="midnightblue" d="M173.43,-73.348C201.304,-57.771 246.053,-32.7645 269.511,-19.6557"/>
<polygon fill="midnightblue" stroke="midnightblue" points="171.359,-70.496 164.337,-78.4296 174.773,-76.6066 171.359,-70.496"/>
</g>
<!-- Node3 -->
<g id="node3" class="node"><title>Node3</title>
<g id="a_node3"><a xlink:href="../../dc/d26/classutility_1_1_sim_data.html" target="_top" xlink:title="utility.SimData">
<polygon fill="white" stroke="black" points="0,-146.5 0,-165.5 86,-165.5 86,-146.5 0,-146.5"/>
<text text-anchor="middle" x="43" y="-153.5" font-family="Helvetica,sans-Serif" font-size="10.00">utility.SimData</text>
</a>
</g>
</g>
<!-- Node3&#45;&gt;Node2 -->
<g id="edge2" class="edge"><title>Node3&#45;&gt;Node2</title>
<path fill="none" stroke="#9a32cd" stroke-dasharray="5,2" d="M59.3086,-139.643C67.9962,-131.948 79.1137,-122.839 90,-116 101.542,-108.749 115.354,-102.321 126.711,-97.5572"/>
<polygon fill="#9a32cd" stroke="#9a32cd" points="56.8505,-137.148 51.8107,-146.467 61.5622,-142.325 56.8505,-137.148"/>
<text text-anchor="middle" x="117.5" y="-119.5" font-family="Helvetica,sans-Serif" font-size="10.00"> gameData</text>
</g>
<!-- Node4 -->
<g id="node4" class="node"><title>Node4</title>
<polygon fill="white" stroke="#bfbfbf" points="104.5,-146.5 104.5,-165.5 193.5,-165.5 193.5,-146.5 104.5,-146.5"/>
<text text-anchor="middle" x="149" y="-153.5" font-family="Helvetica,sans-Serif" font-size="10.00">List&lt; Integer &gt;</text>
</g>
<!-- Node4&#45;&gt;Node2 -->
<g id="edge3" class="edge"><title>Node4&#45;&gt;Node2</title>
<path fill="none" stroke="#9a32cd" stroke-dasharray="5,2" d="M149,-136.041C149,-123.472 149,-107.563 149,-97.8411"/>
<polygon fill="#9a32cd" stroke="#9a32cd" points="145.5,-136.372 149,-146.372 152.5,-136.372 145.5,-136.372"/>
<text text-anchor="middle" x="169" y="-119.5" font-family="Helvetica,sans-Serif" font-size="10.00"> params</text>
</g>
<!-- Node5 -->
<g id="node5" class="node"><title>Node5</title>
<polygon fill="white" stroke="#bfbfbf" points="211,-146.5 211,-165.5 267,-165.5 267,-146.5 211,-146.5"/>
<text text-anchor="middle" x="239" y="-153.5" font-family="Helvetica,sans-Serif" font-size="10.00">Random</text>
</g>
<!-- Node5&#45;&gt;Node2 -->
<g id="edge4" class="edge"><title>Node5&#45;&gt;Node2</title>
<path fill="none" stroke="#9a32cd" stroke-dasharray="5,2" d="M222.141,-139.631C213.651,-132.174 203.048,-123.277 193,-116 183.854,-109.376 173.052,-102.732 164.44,-97.692"/>
<polygon fill="#9a32cd" stroke="#9a32cd" points="220.038,-142.446 229.828,-146.496 224.7,-137.225 220.038,-142.446"/>
<text text-anchor="middle" x="220.5" y="-119.5" font-family="Helvetica,sans-Serif" font-size="10.00"> rand</text>
</g>
<!-- Node6 -->
<g id="node6" class="node"><title>Node6</title>
<polygon fill="white" stroke="#bfbfbf" points="213.5,-78.5 213.5,-97.5 356.5,-97.5 356.5,-78.5 213.5,-78.5"/>
<text text-anchor="middle" x="285" y="-85.5" font-family="Helvetica,sans-Serif" font-size="10.00">Map&lt; Integer, utility.Ant &gt;</text>
</g>
<!-- Node6&#45;&gt;Node1 -->
<g id="edge5" class="edge"><title>Node6&#45;&gt;Node1</title>
<path fill="none" stroke="#9a32cd" stroke-dasharray="5,2" d="M285,-68.2239C285,-52.6974 285,-31.3582 285,-19.6165"/>
<polygon fill="#9a32cd" stroke="#9a32cd" points="281.5,-68.2818 285,-78.2818 288.5,-68.2819 281.5,-68.2818"/>
<text text-anchor="middle" x="297.5" y="-46.5" font-family="Helvetica,sans-Serif" font-size="10.00"> ants</text>
</g>
<!-- Node7 -->
<g id="node7" class="node"><title>Node7</title>
<g id="a_node7"><a xlink:href="../../df/dbf/classutility_1_1_pheromone.html" target="_top" xlink:title="utility.Pheromone">
<polygon fill="white" stroke="black" points="374.5,-78.5 374.5,-97.5 473.5,-97.5 473.5,-78.5 374.5,-78.5"/>
<text text-anchor="middle" x="424" y="-85.5" font-family="Helvetica,sans-Serif" font-size="10.00">utility.Pheromone</text>
</a>
</g>
</g>
<!-- Node7&#45;&gt;Node1 -->
<g id="edge6" class="edge"><title>Node7&#45;&gt;Node1</title>
<path fill="none" stroke="#9a32cd" stroke-dasharray="5,2" d="M399.403,-73.5515C370.942,-57.9897 324.911,-32.8217 300.831,-19.6557"/>
<polygon fill="#9a32cd" stroke="#9a32cd" points="397.872,-76.7031 408.325,-78.4296 401.23,-70.5612 397.872,-76.7031"/>
<text text-anchor="middle" x="392" y="-52" font-family="Helvetica,sans-Serif" font-size="10.00"> foodPh</text>
<text text-anchor="middle" x="392" y="-41" font-family="Helvetica,sans-Serif" font-size="10.00">homePh</text>
</g>
</g>
</svg>
