<?xml version="1.0" encoding="UTF-8" standalone="no"?>
<!DOCTYPE svg PUBLIC "-//W3C//DTD SVG 1.1//EN"
 "http://www.w3.org/Graphics/SVG/1.1/DTD/svg11.dtd">
<!-- Generated by graphviz version 2.36.0 (20140111.2315)
 -->
<!-- Title: simulations.Sim Pages: 1 -->
<svg width="274pt" height="96pt"
 viewBox="0.00 0.00 274.00 96.00" xmlns="http://www.w3.org/2000/svg" xmlns:xlink="http://www.w3.org/1999/xlink">
<g id="graph0" class="graph" transform="scale(1 1) rotate(0) translate(4 92)">
<title>simulations.Sim</title>
<polygon fill="white" stroke="none" points="-4,4 -4,-92 270,-92 270,4 -4,4"/>
<!-- Node1 -->
<g id="node1" class="node"><title>Node1</title>
<polygon fill="#bfbfbf" stroke="black" points="102.5,-0.5 102.5,-19.5 195.5,-19.5 195.5,-0.5 102.5,-0.5"/>
<text text-anchor="middle" x="149" y="-7.5" font-family="Helvetica,sans-Serif" font-size="10.00">simulations.Sim</text>
</g>
<!-- Node2 -->
<g id="node2" class="node"><title>Node2</title>
<g id="a_node2"><a xlink:href="../../dc/d26/classutility_1_1_sim_data.html" target="_top" xlink:title="utility.SimData">
<polygon fill="white" stroke="black" points="0,-68.5 0,-87.5 86,-87.5 86,-68.5 0,-68.5"/>
<text text-anchor="middle" x="43" y="-75.5" font-family="Helvetica,sans-Serif" font-size="10.00">utility.SimData</text>
</a>
</g>
</g>
<!-- Node2&#45;&gt;Node1 -->
<g id="edge1" class="edge"><title>Node2&#45;&gt;Node1</title>
<path fill="none" stroke="#9a32cd" stroke-dasharray="5,2" d="M59.3086,-61.6434C67.9962,-53.9484 79.1137,-44.839 90,-38 101.542,-30.7493 115.354,-24.3209 126.711,-19.5572"/>
<polygon fill="#9a32cd" stroke="#9a32cd" points="56.8505,-59.148 51.8107,-68.4674 61.5622,-64.325 56.8505,-59.148"/>
<text text-anchor="middle" x="117.5" y="-41.5" font-family="Helvetica,sans-Serif" font-size="10.00"> gameData</text>
</g>
<!-- Node3 -->
<g id="node3" class="node"><title>Node3</title>
<polygon fill="white" stroke="#bfbfbf" points="104.5,-68.5 104.5,-87.5 193.5,-87.5 193.5,-68.5 104.5,-68.5"/>
<text text-anchor="middle" x="149" y="-75.5" font-family="Helvetica,sans-Serif" font-size="10.00">List&lt; Integer &gt;</text>
</g>
<!-- Node3&#45;&gt;Node1 -->
<g id="edge2" class="edge"><title>Node3&#45;&gt;Node1</title>
<path fill="none" stroke="#9a32cd" stroke-dasharray="5,2" d="M149,-58.0413C149,-45.4724 149,-29.5631 149,-19.8411"/>
<polygon fill="#9a32cd" stroke="#9a32cd" points="145.5,-58.3716 149,-68.3717 152.5,-58.3717 145.5,-58.3716"/>
<text text-anchor="middle" x="169" y="-41.5" font-family="Helvetica,sans-Serif" font-size="10.00"> params</text>
</g>
<!-- Node4 -->
<g id="node4" class="node"><title>Node4</title>
<polygon fill="white" stroke="#bfbfbf" points="211,-68.5 211,-87.5 267,-87.5 267,-68.5 211,-68.5"/>
<text text-anchor="middle" x="239" y="-75.5" font-family="Helvetica,sans-Serif" font-size="10.00">Random</text>
</g>
<!-- Node4&#45;&gt;Node1 -->
<g id="edge3" class="edge"><title>Node4&#45;&gt;Node1</title>
<path fill="none" stroke="#9a32cd" stroke-dasharray="5,2" d="M222.141,-61.6315C213.651,-54.1741 203.048,-45.2775 193,-38 183.854,-31.3761 173.052,-24.7319 164.44,-19.692"/>
<polygon fill="#9a32cd" stroke="#9a32cd" points="220.038,-64.446 229.828,-68.4959 224.7,-59.2247 220.038,-64.446"/>
<text text-anchor="middle" x="220.5" y="-41.5" font-family="Helvetica,sans-Serif" font-size="10.00"> rand</text>
</g>
</g>
</svg>
