<?xml version="1.0" encoding="UTF-8" standalone="no"?>
<!DOCTYPE svg PUBLIC "-//W3C//DTD SVG 1.1//EN"
 "http://www.w3.org/Graphics/SVG/1.1/DTD/svg11.dtd">
<!-- Generated by graphviz version 2.36.0 (20140111.2315)
 -->
<!-- Title: utility.Neighborhood.getTorroFire Pages: 1 -->
<svg width="506pt" height="38pt"
 viewBox="0.00 0.00 506.00 38.00" xmlns="http://www.w3.org/2000/svg" xmlns:xlink="http://www.w3.org/1999/xlink">
<g id="graph0" class="graph" transform="scale(1 1) rotate(0) translate(4 34)">
<title>utility.Neighborhood.getTorroFire</title>
<polygon fill="white" stroke="none" points="-4,4 -4,-34 502,-34 502,4 -4,4"/>
<!-- Node1 -->
<g id="node1" class="node"><title>Node1</title>
<polygon fill="#bfbfbf" stroke="black" points="0,-0 0,-30 130,-30 130,-0 0,-0"/>
<text text-anchor="start" x="8" y="-18" font-family="Helvetica,sans-Serif" font-size="10.00">utility.Neighborhood.get</text>
<text text-anchor="middle" x="65" y="-7" font-family="Helvetica,sans-Serif" font-size="10.00">TorroFire</text>
</g>
<!-- Node2 -->
<g id="node2" class="node"><title>Node2</title>
<g id="a_node2"><a xlink:href="../../d7/da3/classsimulations_1_1_fire.html#ad27ddff9517302f372b3c3a587cf796d" target="_top" xlink:title="simulations.Fire.checkTorroFire">
<polygon fill="white" stroke="black" points="166.5,-5.5 166.5,-24.5 327.5,-24.5 327.5,-5.5 166.5,-5.5"/>
<text text-anchor="middle" x="247" y="-12.5" font-family="Helvetica,sans-Serif" font-size="10.00">simulations.Fire.checkTorroFire</text>
</a>
</g>
</g>
<!-- Node1&#45;&gt;Node2 -->
<g id="edge1" class="edge"><title>Node1&#45;&gt;Node2</title>
<path fill="none" stroke="midnightblue" d="M140.235,-15C148.859,-15 157.683,-15 166.376,-15"/>
<polygon fill="midnightblue" stroke="midnightblue" points="140.222,-11.5001 130.222,-15 140.222,-18.5001 140.222,-11.5001"/>
</g>
<!-- Node3 -->
<g id="node3" class="node"><title>Node3</title>
<g id="a_node3"><a xlink:href="../../d7/da3/classsimulations_1_1_fire.html#aaa551ede57a5d1978c90879551f65e43" target="_top" xlink:title="simulations.Fire.nextGen">
<polygon fill="white" stroke="black" points="364,-5.5 364,-24.5 498,-24.5 498,-5.5 364,-5.5"/>
<text text-anchor="middle" x="431" y="-12.5" font-family="Helvetica,sans-Serif" font-size="10.00">simulations.Fire.nextGen</text>
</a>
</g>
</g>
<!-- Node2&#45;&gt;Node3 -->
<g id="edge2" class="edge"><title>Node2&#45;&gt;Node3</title>
<path fill="none" stroke="midnightblue" d="M337.572,-15C346.46,-15 355.366,-15 363.951,-15"/>
<polygon fill="midnightblue" stroke="midnightblue" points="337.563,-11.5001 327.563,-15 337.563,-18.5001 337.563,-11.5001"/>
</g>
</g>
</svg>
