<?xml version="1.0" encoding="UTF-8" standalone="no"?>
<!DOCTYPE svg PUBLIC "-//W3C//DTD SVG 1.1//EN"
 "http://www.w3.org/Graphics/SVG/1.1/DTD/svg11.dtd">
<!-- Generated by graphviz version 2.36.0 (20140111.2315)
 -->
<!-- Title: utility.Neighborhood.getNeighbors Pages: 1 -->
<svg width="898pt" height="317pt"
 viewBox="0.00 0.00 898.00 317.00" xmlns="http://www.w3.org/2000/svg" xmlns:xlink="http://www.w3.org/1999/xlink">
<g id="graph0" class="graph" transform="scale(1 1) rotate(0) translate(4 313)">
<title>utility.Neighborhood.getNeighbors</title>
<polygon fill="white" stroke="none" points="-4,4 -4,-313 894,-313 894,4 -4,4"/>
<!-- Node1 -->
<g id="node1" class="node"><title>Node1</title>
<polygon fill="#bfbfbf" stroke="black" points="0,-139 0,-169 130,-169 130,-139 0,-139"/>
<text text-anchor="start" x="8" y="-157" font-family="Helvetica,sans-Serif" font-size="10.00">utility.Neighborhood.get</text>
<text text-anchor="middle" x="65" y="-146" font-family="Helvetica,sans-Serif" font-size="10.00">Neighbors</text>
</g>
<!-- Node2 -->
<g id="node2" class="node"><title>Node2</title>
<g id="a_node2"><a xlink:href="../../d7/da3/classsimulations_1_1_fire.html#aa9dab50c3701daab0ca3e44f2216c69c" target="_top" xlink:title="simulations.Fire.checkFire">
<polygon fill="white" stroke="black" points="179,-289.5 179,-308.5 317,-308.5 317,-289.5 179,-289.5"/>
<text text-anchor="middle" x="248" y="-296.5" font-family="Helvetica,sans-Serif" font-size="10.00">simulations.Fire.checkFire</text>
</a>
</g>
</g>
<!-- Node1&#45;&gt;Node2 -->
<g id="edge1" class="edge"><title>Node1&#45;&gt;Node2</title>
<path fill="none" stroke="midnightblue" d="M78.8556,-178.322C95.233,-206.881 126.246,-253.571 166,-279 172.833,-283.371 180.553,-286.786 188.444,-289.456"/>
<polygon fill="midnightblue" stroke="midnightblue" points="81.8002,-176.416 73.8711,-169.389 75.6873,-179.827 81.8002,-176.416"/>
</g>
<!-- Node3 -->
<g id="node3" class="node"><title>Node3</title>
<g id="a_node3"><a xlink:href="../../d4/d71/classsimulations_1_1_schelling.html#a7233428dffd4af8333d2ff5ee1ab06fe" target="_top" xlink:title="simulations.Schelling.compute\lNeighbourhood">
<polygon fill="white" stroke="black" points="166.5,-240 166.5,-270 329.5,-270 329.5,-240 166.5,-240"/>
<text text-anchor="start" x="174.5" y="-258" font-family="Helvetica,sans-Serif" font-size="10.00">simulations.Schelling.compute</text>
<text text-anchor="middle" x="248" y="-247" font-family="Helvetica,sans-Serif" font-size="10.00">Neighbourhood</text>
</a>
</g>
</g>
<!-- Node1&#45;&gt;Node3 -->
<g id="edge2" class="edge"><title>Node1&#45;&gt;Node3</title>
<path fill="none" stroke="midnightblue" d="M89.7881,-175.935C109.09,-192.738 137.658,-215.438 166,-230 173.331,-233.766 181.33,-237.081 189.355,-239.962"/>
<polygon fill="midnightblue" stroke="midnightblue" points="91.9175,-173.146 82.1108,-169.136 87.2764,-178.386 91.9175,-173.146"/>
</g>
<!-- Node4 -->
<g id="node4" class="node"><title>Node4</title>
<g id="a_node4"><a xlink:href="../../d3/d55/classsimulations_1_1_wator.html#a05eb1faadebfee3b8413375ec23e46f4" target="_top" xlink:title="simulations.Wator.findFish">
<polygon fill="white" stroke="black" points="178.5,-201.5 178.5,-220.5 317.5,-220.5 317.5,-201.5 178.5,-201.5"/>
<text text-anchor="middle" x="248" y="-208.5" font-family="Helvetica,sans-Serif" font-size="10.00">simulations.Wator.findFish</text>
</a>
</g>
</g>
<!-- Node1&#45;&gt;Node4 -->
<g id="edge3" class="edge"><title>Node1&#45;&gt;Node4</title>
<path fill="none" stroke="midnightblue" d="M111.784,-172.861C128.656,-179.422 148.036,-186.506 166,-192 177.465,-195.506 190.01,-198.736 201.729,-201.5"/>
<polygon fill="midnightblue" stroke="midnightblue" points="112.756,-169.482 102.169,-169.074 110.191,-175.995 112.756,-169.482"/>
</g>
<!-- Node5 -->
<g id="node5" class="node"><title>Node5</title>
<g id="a_node5"><a xlink:href="../../d3/d55/classsimulations_1_1_wator.html#a723c07d93c4921b81a66374136037e5c" target="_top" xlink:title="simulations.Wator.findTorroFish">
<polygon fill="white" stroke="black" points="167,-163.5 167,-182.5 329,-182.5 329,-163.5 167,-163.5"/>
<text text-anchor="middle" x="248" y="-170.5" font-family="Helvetica,sans-Serif" font-size="10.00">simulations.Wator.findTorroFish</text>
</a>
</g>
</g>
<!-- Node1&#45;&gt;Node5 -->
<g id="edge4" class="edge"><title>Node1&#45;&gt;Node5</title>
<path fill="none" stroke="midnightblue" d="M140.246,-161.794C149.015,-162.714 157.995,-163.657 166.841,-164.586"/>
<polygon fill="midnightblue" stroke="midnightblue" points="140.379,-158.289 130.069,-160.725 139.648,-165.25 140.379,-158.289"/>
</g>
<!-- Node7 -->
<g id="node7" class="node"><title>Node7</title>
<g id="a_node7"><a xlink:href="../../d4/d2e/classutility_1_1_agent.html#a35c4a8a52e006df0dea07a267caec828" target="_top" xlink:title="utility.Agent.hasEmptyPatch">
<polygon fill="white" stroke="black" points="173.5,-125.5 173.5,-144.5 322.5,-144.5 322.5,-125.5 173.5,-125.5"/>
<text text-anchor="middle" x="248" y="-132.5" font-family="Helvetica,sans-Serif" font-size="10.00">utility.Agent.hasEmptyPatch</text>
</a>
</g>
</g>
<!-- Node1&#45;&gt;Node7 -->
<g id="edge6" class="edge"><title>Node1&#45;&gt;Node7</title>
<path fill="none" stroke="midnightblue" d="M140.07,-146.225C151.084,-145.069 162.435,-143.877 173.438,-142.722"/>
<polygon fill="midnightblue" stroke="midnightblue" points="139.648,-142.75 130.069,-147.275 140.379,-149.711 139.648,-142.75"/>
</g>
<!-- Node9 -->
<g id="node9" class="node"><title>Node9</title>
<g id="a_node9"><a xlink:href="../../d7/d0c/classsimulations_1_1_sugar.html#ae28e368a8530f222d34a6ee29b55fb16" target="_top" xlink:title="simulations.Sugar.update\lAgent">
<polygon fill="white" stroke="black" points="562.5,-93 562.5,-123 701.5,-123 701.5,-93 562.5,-93"/>
<text text-anchor="start" x="570.5" y="-111" font-family="Helvetica,sans-Serif" font-size="10.00">simulations.Sugar.update</text>
<text text-anchor="middle" x="632" y="-100" font-family="Helvetica,sans-Serif" font-size="10.00">Agent</text>
</a>
</g>
</g>
<!-- Node1&#45;&gt;Node9 -->
<g id="edge15" class="edge"><title>Node1&#45;&gt;Node9</title>
<path fill="none" stroke="midnightblue" d="M106.645,-134.894C124.449,-127.494 145.842,-119.88 166,-116 304.75,-89.2906 471.097,-95.3595 562.473,-101.874"/>
<polygon fill="midnightblue" stroke="midnightblue" points="104.969,-131.804 97.1542,-138.957 107.725,-138.239 104.969,-131.804"/>
</g>
<!-- Node11 -->
<g id="node11" class="node"><title>Node11</title>
<g id="a_node11"><a xlink:href="../../df/dbf/classutility_1_1_pheromone.html#a7918d271386a364c9bdadbfda01de995" target="_top" xlink:title="utility.Pheromone.nextGen">
<polygon fill="white" stroke="black" points="371.5,-48.5 371.5,-67.5 514.5,-67.5 514.5,-48.5 371.5,-48.5"/>
<text text-anchor="middle" x="443" y="-55.5" font-family="Helvetica,sans-Serif" font-size="10.00">utility.Pheromone.nextGen</text>
</a>
</g>
</g>
<!-- Node1&#45;&gt;Node11 -->
<g id="edge10" class="edge"><title>Node1&#45;&gt;Node11</title>
<path fill="none" stroke="midnightblue" d="M88.981,-132.245C108.026,-115.647 136.64,-93.8461 166,-83 232.682,-58.3663 314.329,-53.8397 371.455,-54.4161"/>
<polygon fill="midnightblue" stroke="midnightblue" points="86.5546,-129.72 81.4308,-138.993 91.2192,-134.939 86.5546,-129.72"/>
</g>
<!-- Node13 -->
<g id="node13" class="node"><title>Node13</title>
<g id="a_node13"><a xlink:href="../../df/dbf/classutility_1_1_pheromone.html#a8d9e31109017715159ac1c35af9567d9" target="_top" xlink:title="utility.Pheromone.topOff\lPhero">
<polygon fill="white" stroke="black" points="182.5,-0 182.5,-30 313.5,-30 313.5,-0 182.5,-0"/>
<text text-anchor="start" x="190.5" y="-18" font-family="Helvetica,sans-Serif" font-size="10.00">utility.Pheromone.topOff</text>
<text text-anchor="middle" x="248" y="-7" font-family="Helvetica,sans-Serif" font-size="10.00">Phero</text>
</a>
</g>
</g>
<!-- Node1&#45;&gt;Node13 -->
<g id="edge12" class="edge"><title>Node1&#45;&gt;Node13</title>
<path fill="none" stroke="midnightblue" d="M82.2516,-130.532C100.219,-106.143 131.257,-68.3416 166,-45 174.838,-39.0624 185.004,-34.1108 195.082,-30.0549"/>
<polygon fill="midnightblue" stroke="midnightblue" points="79.256,-128.702 76.2406,-138.858 84.9316,-132.799 79.256,-128.702"/>
</g>
<!-- Node6 -->
<g id="node6" class="node"><title>Node6</title>
<g id="a_node6"><a xlink:href="../../d3/d55/classsimulations_1_1_wator.html#ae6531260f046fa980999a599be53532a" target="_top" xlink:title="simulations.Wator.nextGen">
<polygon fill="white" stroke="black" points="371,-163.5 371,-182.5 515,-182.5 515,-163.5 371,-163.5"/>
<text text-anchor="middle" x="443" y="-170.5" font-family="Helvetica,sans-Serif" font-size="10.00">simulations.Wator.nextGen</text>
</a>
</g>
</g>
<!-- Node5&#45;&gt;Node6 -->
<g id="edge5" class="edge"><title>Node5&#45;&gt;Node6</title>
<path fill="none" stroke="midnightblue" d="M339.245,-173C349.799,-173 360.454,-173 370.7,-173"/>
<polygon fill="midnightblue" stroke="midnightblue" points="339.173,-169.5 329.173,-173 339.173,-176.5 339.173,-169.5"/>
</g>
<!-- Node8 -->
<g id="node8" class="node"><title>Node8</title>
<g id="a_node8"><a xlink:href="../../d4/d2e/classutility_1_1_agent.html#a4e9d745c1021def9e1c69fe90a2016b4" target="_top" xlink:title="utility.Agent.mate">
<polygon fill="white" stroke="black" points="392.5,-125.5 392.5,-144.5 493.5,-144.5 493.5,-125.5 392.5,-125.5"/>
<text text-anchor="middle" x="443" y="-132.5" font-family="Helvetica,sans-Serif" font-size="10.00">utility.Agent.mate</text>
</a>
</g>
</g>
<!-- Node7&#45;&gt;Node8 -->
<g id="edge7" class="edge"><title>Node7&#45;&gt;Node8</title>
<path fill="none" stroke="midnightblue" d="M332.733,-135C353.055,-135 374.147,-135 392.316,-135"/>
<polygon fill="midnightblue" stroke="midnightblue" points="332.516,-131.5 322.516,-135 332.516,-138.5 332.516,-131.5"/>
</g>
<!-- Node8&#45;&gt;Node9 -->
<g id="edge8" class="edge"><title>Node8&#45;&gt;Node9</title>
<path fill="none" stroke="midnightblue" d="M503.771,-126.37C522.467,-123.671 543.241,-120.671 562.489,-117.892"/>
<polygon fill="midnightblue" stroke="midnightblue" points="503.019,-122.942 493.622,-127.835 504.019,-129.87 503.019,-122.942"/>
</g>
<!-- Node10 -->
<g id="node10" class="node"><title>Node10</title>
<g id="a_node10"><a xlink:href="../../d7/d0c/classsimulations_1_1_sugar.html#ad4fb26c7153efcfd9f960b745512687f" target="_top" xlink:title="simulations.Sugar.nextGen">
<polygon fill="white" stroke="black" points="744,-98.5 744,-117.5 890,-117.5 890,-98.5 744,-98.5"/>
<text text-anchor="middle" x="817" y="-105.5" font-family="Helvetica,sans-Serif" font-size="10.00">simulations.Sugar.nextGen</text>
</a>
</g>
</g>
<!-- Node9&#45;&gt;Node10 -->
<g id="edge9" class="edge"><title>Node9&#45;&gt;Node10</title>
<path fill="none" stroke="midnightblue" d="M711.795,-108C722.459,-108 733.357,-108 743.895,-108"/>
<polygon fill="midnightblue" stroke="midnightblue" points="711.663,-104.5 701.663,-108 711.663,-111.5 711.663,-104.5"/>
</g>
<!-- Node12 -->
<g id="node12" class="node"><title>Node12</title>
<g id="a_node12"><a xlink:href="../../da/d7a/classsimulations_1_1_forage.html#adae17e0a4217696191ba95b430ab4c81" target="_top" xlink:title="simulations.Forage.nextGen">
<polygon fill="white" stroke="black" points="556.5,-36.5 556.5,-55.5 707.5,-55.5 707.5,-36.5 556.5,-36.5"/>
<text text-anchor="middle" x="632" y="-43.5" font-family="Helvetica,sans-Serif" font-size="10.00">simulations.Forage.nextGen</text>
</a>
</g>
</g>
<!-- Node11&#45;&gt;Node12 -->
<g id="edge11" class="edge"><title>Node11&#45;&gt;Node12</title>
<path fill="none" stroke="midnightblue" d="M524.72,-52.8201C535.263,-52.1435 546.028,-51.4528 556.463,-50.7831"/>
<polygon fill="midnightblue" stroke="midnightblue" points="524.452,-49.33 514.697,-53.4633 524.9,-56.3156 524.452,-49.33"/>
</g>
<!-- Node14 -->
<g id="node14" class="node"><title>Node14</title>
<g id="a_node14"><a xlink:href="../../da/d7a/classsimulations_1_1_forage.html#a91ba1a576c24aeb6466b9c45769630ec" target="_top" xlink:title="simulations.Forage.moveAnt">
<polygon fill="white" stroke="black" points="366,-7.5 366,-26.5 520,-26.5 520,-7.5 366,-7.5"/>
<text text-anchor="middle" x="443" y="-14.5" font-family="Helvetica,sans-Serif" font-size="10.00">simulations.Forage.moveAnt</text>
</a>
</g>
</g>
<!-- Node13&#45;&gt;Node14 -->
<g id="edge13" class="edge"><title>Node13&#45;&gt;Node14</title>
<path fill="none" stroke="midnightblue" d="M323.911,-15.7763C337.664,-15.9188 352.033,-16.0677 365.822,-16.2106"/>
<polygon fill="midnightblue" stroke="midnightblue" points="323.57,-12.2727 313.535,-15.6688 323.498,-19.2723 323.57,-12.2727"/>
</g>
<!-- Node14&#45;&gt;Node12 -->
<g id="edge14" class="edge"><title>Node14&#45;&gt;Node12</title>
<path fill="none" stroke="midnightblue" d="M515.771,-28.1302C533.483,-30.877 552.296,-33.7946 569.473,-36.4584"/>
<polygon fill="midnightblue" stroke="midnightblue" points="515.908,-24.6098 505.49,-26.5359 514.835,-31.5271 515.908,-24.6098"/>
</g>
</g>
</svg>
