<?xml version="1.0" encoding="UTF-8" standalone="no"?>
<!DOCTYPE svg PUBLIC "-//W3C//DTD SVG 1.1//EN"
 "http://www.w3.org/Graphics/SVG/1.1/DTD/svg11.dtd">
<!-- Generated by graphviz version 2.36.0 (20140111.2315)
 -->
<!-- Title: utility.Neighborhood.getTorrodialNeighbors Pages: 1 -->
<svg width="706pt" height="87pt"
 viewBox="0.00 0.00 706.00 87.00" xmlns="http://www.w3.org/2000/svg" xmlns:xlink="http://www.w3.org/1999/xlink">
<g id="graph0" class="graph" transform="scale(1 1) rotate(0) translate(4 83)">
<title>utility.Neighborhood.getTorrodialNeighbors</title>
<polygon fill="white" stroke="none" points="-4,4 -4,-83 702,-83 702,4 -4,4"/>
<!-- Node1 -->
<g id="node1" class="node"><title>Node1</title>
<polygon fill="#bfbfbf" stroke="black" points="0,-24 0,-54 130,-54 130,-24 0,-24"/>
<text text-anchor="start" x="8" y="-42" font-family="Helvetica,sans-Serif" font-size="10.00">utility.Neighborhood.get</text>
<text text-anchor="middle" x="65" y="-31" font-family="Helvetica,sans-Serif" font-size="10.00">TorrodialNeighbors</text>
</g>
<!-- Node2 -->
<g id="node2" class="node"><title>Node2</title>
<g id="a_node2"><a xlink:href="../../d1/d4c/classsimulations_1_1_life.html#a7c1fbd3891a4c31eba36ba4e9c9d042c" target="_top" xlink:title="simulations.Life.compute\lNeighbourhood">
<polygon fill="white" stroke="black" points="179.5,-49 179.5,-79 316.5,-79 316.5,-49 179.5,-49"/>
<text text-anchor="start" x="187.5" y="-67" font-family="Helvetica,sans-Serif" font-size="10.00">simulations.Life.compute</text>
<text text-anchor="middle" x="248" y="-56" font-family="Helvetica,sans-Serif" font-size="10.00">Neighbourhood</text>
</a>
</g>
</g>
<!-- Node1&#45;&gt;Node2 -->
<g id="edge1" class="edge"><title>Node1&#45;&gt;Node2</title>
<path fill="none" stroke="midnightblue" d="M140.312,-49.2641C153.232,-51.0486 166.607,-52.896 179.337,-54.6543"/>
<polygon fill="midnightblue" stroke="midnightblue" points="140.453,-45.7505 130.069,-47.8492 139.496,-52.6846 140.453,-45.7505"/>
</g>
<!-- Node5 -->
<g id="node5" class="node"><title>Node5</title>
<g id="a_node5"><a xlink:href="../../d4/d71/classsimulations_1_1_schelling.html#a9b63adf9d7b850231a372c424c1c6a5b" target="_top" xlink:title="simulations.Schelling.compute\lTorrodialHood">
<polygon fill="white" stroke="black" points="166.5,-0 166.5,-30 329.5,-30 329.5,-0 166.5,-0"/>
<text text-anchor="start" x="174.5" y="-18" font-family="Helvetica,sans-Serif" font-size="10.00">simulations.Schelling.compute</text>
<text text-anchor="middle" x="248" y="-7" font-family="Helvetica,sans-Serif" font-size="10.00">TorrodialHood</text>
</a>
</g>
</g>
<!-- Node1&#45;&gt;Node5 -->
<g id="edge4" class="edge"><title>Node1&#45;&gt;Node5</title>
<path fill="none" stroke="midnightblue" d="M140.07,-29.1786C148.687,-28.036 157.509,-26.8662 166.21,-25.7125"/>
<polygon fill="midnightblue" stroke="midnightblue" points="139.522,-25.7205 130.069,-30.5047 140.442,-32.6598 139.522,-25.7205"/>
</g>
<!-- Node3 -->
<g id="node3" class="node"><title>Node3</title>
<g id="a_node3"><a xlink:href="../../d1/d4c/classsimulations_1_1_life.html#abe841c0629ccc8ddab9bedd99750989a" target="_top" xlink:title="simulations.Life.updateState">
<polygon fill="white" stroke="black" points="370,-54.5 370,-73.5 524,-73.5 524,-54.5 370,-54.5"/>
<text text-anchor="middle" x="447" y="-61.5" font-family="Helvetica,sans-Serif" font-size="10.00">simulations.Life.updateState</text>
</a>
</g>
</g>
<!-- Node2&#45;&gt;Node3 -->
<g id="edge2" class="edge"><title>Node2&#45;&gt;Node3</title>
<path fill="none" stroke="midnightblue" d="M326.713,-64C340.881,-64 355.65,-64 369.774,-64"/>
<polygon fill="midnightblue" stroke="midnightblue" points="326.521,-60.5001 316.521,-64 326.521,-67.5001 326.521,-60.5001"/>
</g>
<!-- Node4 -->
<g id="node4" class="node"><title>Node4</title>
<g id="a_node4"><a xlink:href="../../d1/d4c/classsimulations_1_1_life.html#af023a17455df6d032cdc3acb557f2f33" target="_top" xlink:title="simulations.Life.nextGen">
<polygon fill="white" stroke="black" points="564,-54.5 564,-73.5 698,-73.5 698,-54.5 564,-54.5"/>
<text text-anchor="middle" x="631" y="-61.5" font-family="Helvetica,sans-Serif" font-size="10.00">simulations.Life.nextGen</text>
</a>
</g>
</g>
<!-- Node3&#45;&gt;Node4 -->
<g id="edge3" class="edge"><title>Node3&#45;&gt;Node4</title>
<path fill="none" stroke="midnightblue" d="M534.366,-64C544.233,-64 554.172,-64 563.719,-64"/>
<polygon fill="midnightblue" stroke="midnightblue" points="534.13,-60.5001 524.13,-64 534.13,-67.5001 534.13,-60.5001"/>
</g>
<!-- Node6 -->
<g id="node6" class="node"><title>Node6</title>
<g id="a_node6"><a xlink:href="../../d4/d71/classsimulations_1_1_schelling.html#aaf5e92d9a18f4d6b6991bfb11d1fe922" target="_top" xlink:title="simulations.Schelling.nextGen">
<polygon fill="white" stroke="black" points="366.5,-5.5 366.5,-24.5 527.5,-24.5 527.5,-5.5 366.5,-5.5"/>
<text text-anchor="middle" x="447" y="-12.5" font-family="Helvetica,sans-Serif" font-size="10.00">simulations.Schelling.nextGen</text>
</a>
</g>
</g>
<!-- Node5&#45;&gt;Node6 -->
<g id="edge5" class="edge"><title>Node5&#45;&gt;Node6</title>
<path fill="none" stroke="midnightblue" d="M339.7,-15C348.608,-15 357.6,-15 366.385,-15"/>
<polygon fill="midnightblue" stroke="midnightblue" points="339.696,-11.5001 329.696,-15 339.696,-18.5001 339.696,-11.5001"/>
</g>
</g>
</svg>
