<?xml version="1.0" encoding="UTF-8" standalone="no"?>
<!DOCTYPE svg PUBLIC "-//W3C//DTD SVG 1.1//EN"
 "http://www.w3.org/Graphics/SVG/1.1/DTD/svg11.dtd">
<!-- Generated by graphviz version 2.36.0 (20140111.2315)
 -->
<!-- Title: animation.ForageAnimation.paramSliders Pages: 1 -->
<svg width="412pt" height="136pt"
 viewBox="0.00 0.00 412.00 136.00" xmlns="http://www.w3.org/2000/svg" xmlns:xlink="http://www.w3.org/1999/xlink">
<g id="graph0" class="graph" transform="scale(1 1) rotate(0) translate(4 132)">
<title>animation.ForageAnimation.paramSliders</title>
<polygon fill="white" stroke="none" points="-4,4 -4,-132 408,-132 408,4 -4,4"/>
<!-- Node1 -->
<g id="node1" class="node"><title>Node1</title>
<polygon fill="#bfbfbf" stroke="black" points="0,-49 0,-79 184,-79 184,-49 0,-49"/>
<text text-anchor="start" x="8" y="-67" font-family="Helvetica,sans-Serif" font-size="10.00">animation.ForageAnimation.param</text>
<text text-anchor="middle" x="92" y="-56" font-family="Helvetica,sans-Serif" font-size="10.00">Sliders</text>
</g>
<!-- Node2 -->
<g id="node2" class="node"><title>Node2</title>
<g id="a_node2"><a xlink:href="../../d2/d60/classanimation_1_1_g_u_i_creator.html#a5bc0f0e5c1557be5cc7c752ea2d8fc8c" target="_top" xlink:title="animation.GUICreator.make\lSlider">
<polygon fill="white" stroke="black" points="237,-98 237,-128 387,-128 387,-98 237,-98"/>
<text text-anchor="start" x="245" y="-116" font-family="Helvetica,sans-Serif" font-size="10.00">animation.GUICreator.make</text>
<text text-anchor="middle" x="312" y="-105" font-family="Helvetica,sans-Serif" font-size="10.00">Slider</text>
</a>
</g>
</g>
<!-- Node1&#45;&gt;Node2 -->
<g id="edge1" class="edge"><title>Node1&#45;&gt;Node2</title>
<path fill="none" stroke="midnightblue" d="M159.889,-79.0346C183.43,-84.3259 210.067,-90.3133 234.349,-95.7712"/>
<polygon fill="midnightblue" stroke="midnightblue" points="233.714,-99.2155 244.238,-97.9938 235.249,-92.3859 233.714,-99.2155"/>
</g>
<!-- Node3 -->
<g id="node3" class="node"><title>Node3</title>
<g id="a_node3"><a xlink:href="../../d2/d60/classanimation_1_1_g_u_i_creator.html#a5d95860656d7fe715018221dc5fd45da" target="_top" xlink:title="animation.GUICreator.new\lParams">
<polygon fill="white" stroke="black" points="241,-49 241,-79 383,-79 383,-49 241,-49"/>
<text text-anchor="start" x="249" y="-67" font-family="Helvetica,sans-Serif" font-size="10.00">animation.GUICreator.new</text>
<text text-anchor="middle" x="312" y="-56" font-family="Helvetica,sans-Serif" font-size="10.00">Params</text>
</a>
</g>
</g>
<!-- Node1&#45;&gt;Node3 -->
<g id="edge2" class="edge"><title>Node1&#45;&gt;Node3</title>
<path fill="none" stroke="midnightblue" d="M184.188,-64C199.546,-64 215.388,-64 230.451,-64"/>
<polygon fill="midnightblue" stroke="midnightblue" points="230.739,-67.5001 240.739,-64 230.739,-60.5001 230.739,-67.5001"/>
</g>
<!-- Node4 -->
<g id="node4" class="node"><title>Node4</title>
<g id="a_node4"><a xlink:href="../../d0/dad/classanimation_1_1_forage_animation.html#a634d4ef527c16ca84b44a1c244625ed2" target="_top" xlink:title="animation.ForageAnimation.param\lTitles">
<polygon fill="white" stroke="black" points="220,-0 220,-30 404,-30 404,-0 220,-0"/>
<text text-anchor="start" x="228" y="-18" font-family="Helvetica,sans-Serif" font-size="10.00">animation.ForageAnimation.param</text>
<text text-anchor="middle" x="312" y="-7" font-family="Helvetica,sans-Serif" font-size="10.00">Titles</text>
</a>
</g>
</g>
<!-- Node1&#45;&gt;Node4 -->
<g id="edge3" class="edge"><title>Node1&#45;&gt;Node4</title>
<path fill="none" stroke="midnightblue" d="M159.889,-48.9654C183.43,-43.6741 210.067,-37.6867 234.349,-32.2288"/>
<polygon fill="midnightblue" stroke="midnightblue" points="235.249,-35.6141 244.238,-30.0062 233.714,-28.7845 235.249,-35.6141"/>
</g>
</g>
</svg>
