<?xml version="1.0" encoding="UTF-8" standalone="no"?>
<!DOCTYPE svg PUBLIC "-//W3C//DTD SVG 1.1//EN"
 "http://www.w3.org/Graphics/SVG/1.1/DTD/svg11.dtd">
<!-- Generated by graphviz version 2.36.0 (20140111.2315)
 -->
<!-- Title: utility.RandomRange.randInt Pages: 1 -->
<svg width="520pt" height="66pt"
 viewBox="0.00 0.00 520.00 66.00" xmlns="http://www.w3.org/2000/svg" xmlns:xlink="http://www.w3.org/1999/xlink">
<g id="graph0" class="graph" transform="scale(1 1) rotate(0) translate(4 62)">
<title>utility.RandomRange.randInt</title>
<polygon fill="white" stroke="none" points="-4,4 -4,-62 516,-62 516,4 -4,4"/>
<!-- Node1 -->
<g id="node1" class="node"><title>Node1</title>
<polygon fill="#bfbfbf" stroke="black" points="0,-19.5 0,-38.5 150,-38.5 150,-19.5 0,-19.5"/>
<text text-anchor="middle" x="75" y="-26.5" font-family="Helvetica,sans-Serif" font-size="10.00">utility.RandomRange.randInt</text>
</g>
<!-- Node2 -->
<g id="node2" class="node"><title>Node2</title>
<g id="a_node2"><a xlink:href="../../d4/d2e/classutility_1_1_agent.html#a6919d1f140ba4d0d6155b33015a70812" target="_top" xlink:title="utility.Agent.Agent">
<polygon fill="white" stroke="black" points="209,-38.5 209,-57.5 313,-57.5 313,-38.5 209,-38.5"/>
<text text-anchor="middle" x="261" y="-45.5" font-family="Helvetica,sans-Serif" font-size="10.00">utility.Agent.Agent</text>
</a>
</g>
</g>
<!-- Node1&#45;&gt;Node2 -->
<g id="edge1" class="edge"><title>Node1&#45;&gt;Node2</title>
<path fill="none" stroke="midnightblue" d="M160.322,-37.7072C176.93,-39.4221 193.873,-41.1717 208.968,-42.7304"/>
<polygon fill="midnightblue" stroke="midnightblue" points="160.351,-34.1916 150.044,-36.6459 159.632,-41.1546 160.351,-34.1916"/>
</g>
<!-- Node3 -->
<g id="node3" class="node"><title>Node3</title>
<g id="a_node3"><a xlink:href="../../d7/d0c/classsimulations_1_1_sugar.html#a7a1008455430c8ea6ae4acc3c9ecf39c" target="_top" xlink:title="simulations.Sugar.fillAgents">
<polygon fill="white" stroke="black" points="186.5,-0.5 186.5,-19.5 335.5,-19.5 335.5,-0.5 186.5,-0.5"/>
<text text-anchor="middle" x="261" y="-7.5" font-family="Helvetica,sans-Serif" font-size="10.00">simulations.Sugar.fillAgents</text>
</a>
</g>
</g>
<!-- Node1&#45;&gt;Node3 -->
<g id="edge2" class="edge"><title>Node1&#45;&gt;Node3</title>
<path fill="none" stroke="midnightblue" d="M160.237,-20.3016C168.972,-19.3996 177.801,-18.4879 186.406,-17.5993"/>
<polygon fill="midnightblue" stroke="midnightblue" points="159.632,-16.8454 150.044,-21.3541 160.351,-23.8084 159.632,-16.8454"/>
</g>
<!-- Node4 -->
<g id="node4" class="node"><title>Node4</title>
<g id="a_node4"><a xlink:href="../../d7/d0c/classsimulations_1_1_sugar.html#ae585bf3ece593c9e21f074ce7f6f38ea" target="_top" xlink:title="simulations.Sugar.initMap">
<polygon fill="white" stroke="black" points="372,-0.5 372,-19.5 512,-19.5 512,-0.5 372,-0.5"/>
<text text-anchor="middle" x="442" y="-7.5" font-family="Helvetica,sans-Serif" font-size="10.00">simulations.Sugar.initMap</text>
</a>
</g>
</g>
<!-- Node3&#45;&gt;Node4 -->
<g id="edge3" class="edge"><title>Node3&#45;&gt;Node4</title>
<path fill="none" stroke="midnightblue" d="M345.743,-10C354.445,-10 363.219,-10 371.736,-10"/>
<polygon fill="midnightblue" stroke="midnightblue" points="345.581,-6.5001 335.581,-10 345.581,-13.5001 345.581,-6.5001"/>
</g>
</g>
</svg>
