<?xml version="1.0" encoding="UTF-8" standalone="no"?>
<!DOCTYPE svg PUBLIC "-//W3C//DTD SVG 1.1//EN"
 "http://www.w3.org/Graphics/SVG/1.1/DTD/svg11.dtd">
<!-- Generated by graphviz version 2.36.0 (20140111.2315)
 -->
<!-- Title: /tmp/git/duke&#45;compsci308&#45;spring2015/cellsociety_team05/repository/src Pages: 1 -->
<svg width="555pt" height="111pt"
 viewBox="0.00 0.00 555.00 111.00" xmlns="http://www.w3.org/2000/svg" xmlns:xlink="http://www.w3.org/1999/xlink">
<g id="graph0" class="graph" transform="scale(1 1) rotate(0) translate(4 107)">
<title>/tmp/git/duke&#45;compsci308&#45;spring2015/cellsociety_team05/repository/src</title>
<polygon fill="white" stroke="none" points="-4,4 -4,-107 551,-107 551,4 -4,4"/>
<g id="clust1" class="cluster"><title>clusterdir_fef2f05c4ae2f374d400c072cd50e05c</title>
<g id="a_clust1"><a xlink:href="dir_fef2f05c4ae2f374d400c072cd50e05c.html" target="_top" xlink:title="repository">
<polygon fill="#ddddee" stroke="black" points="8,-8 8,-95 539,-95 539,-8 8,-8"/>
<text text-anchor="middle" x="273.5" y="-83" font-family="Helvetica,sans-Serif" font-size="10.00">repository</text>
</a>
</g>
</g>
<g id="clust2" class="cluster"><title>clusterdir_ea37f08eb2475a4a27f76fcf979d29e0</title>
<g id="a_clust2"><a xlink:href="dir_ea37f08eb2475a4a27f76fcf979d29e0.html" target="_top">
<polygon fill="#eeeeff" stroke="black" points="16,-16 16,-68 531,-68 531,-16 16,-16"/>
</a>
</g>
</g>
<!-- dir_ea37f08eb2475a4a27f76fcf979d29e0 -->
<g id="node1" class="node"><title>dir_ea37f08eb2475a4a27f76fcf979d29e0</title>
<text text-anchor="middle" x="496" y="-39.5" font-family="Helvetica,sans-Serif" font-size="10.00">src</text>
</g>
<!-- dir_4b1d568402c2acf6558ed309db48eb92 -->
<g id="node2" class="node"><title>dir_4b1d568402c2acf6558ed309db48eb92</title>
<g id="a_node2"><a xlink:href="dir_4b1d568402c2acf6558ed309db48eb92.html" target="_top" xlink:title="animation">
<polygon fill="white" stroke="black" points="450.25,-60 385.75,-60 385.75,-24 450.25,-24 450.25,-60"/>
<text text-anchor="middle" x="418" y="-39.5" font-family="Helvetica,sans-Serif" font-size="10.00">animation</text>
</a>
</g>
</g>
<!-- dir_c785009ec5e969005f88429123aa1963 -->
<g id="node3" class="node"><title>dir_c785009ec5e969005f88429123aa1963</title>
<g id="a_node3"><a xlink:href="dir_c785009ec5e969005f88429123aa1963.html" target="_top" xlink:title="cellsociety_team05">
<polygon fill="white" stroke="black" points="367.25,-60 258.75,-60 258.75,-24 367.25,-24 367.25,-60"/>
<text text-anchor="middle" x="313" y="-39.5" font-family="Helvetica,sans-Serif" font-size="10.00">cellsociety_team05</text>
</a>
</g>
</g>
<!-- dir_56d54e1cde60dea5542d54a2ca6f1992 -->
<g id="node4" class="node"><title>dir_56d54e1cde60dea5542d54a2ca6f1992</title>
<g id="a_node4"><a xlink:href="dir_56d54e1cde60dea5542d54a2ca6f1992.html" target="_top" xlink:title="error">
<polygon fill="white" stroke="black" points="240,-60 186,-60 186,-24 240,-24 240,-60"/>
<text text-anchor="middle" x="213" y="-39.5" font-family="Helvetica,sans-Serif" font-size="10.00">error</text>
</a>
</g>
</g>
<!-- dir_274ee38d746900d2f60aec4d2069a38d -->
<g id="node5" class="node"><title>dir_274ee38d746900d2f60aec4d2069a38d</title>
<g id="a_node5"><a xlink:href="dir_274ee38d746900d2f60aec4d2069a38d.html" target="_top" xlink:title="simulations">
<polygon fill="white" stroke="black" points="167.25,-60 96.75,-60 96.75,-24 167.25,-24 167.25,-60"/>
<text text-anchor="middle" x="132" y="-39.5" font-family="Helvetica,sans-Serif" font-size="10.00">simulations</text>
</a>
</g>
</g>
<!-- dir_17c3ae9c2941b6279dae07b8102e07e8 -->
<g id="node6" class="node"><title>dir_17c3ae9c2941b6279dae07b8102e07e8</title>
<g id="a_node6"><a xlink:href="dir_17c3ae9c2941b6279dae07b8102e07e8.html" target="_top" xlink:title="utility">
<polygon fill="white" stroke="black" points="78,-60 24,-60 24,-24 78,-24 78,-60"/>
<text text-anchor="middle" x="51" y="-39.5" font-family="Helvetica,sans-Serif" font-size="10.00">utility</text>
</a>
</g>
</g>
</g>
</svg>
