<?xml version="1.0" encoding="UTF-8" standalone="no"?>
<!DOCTYPE svg PUBLIC "-//W3C//DTD SVG 1.1//EN"
 "http://www.w3.org/Graphics/SVG/1.1/DTD/svg11.dtd">
<!-- Generated by graphviz version 2.36.0 (20140111.2315)
 -->
<!-- Title: Graphical Class Hierarchy Pages: 1 -->
<svg width="262pt" height="256pt"
 viewBox="0.00 0.00 262.00 256.00" xmlns="http://www.w3.org/2000/svg" xmlns:xlink="http://www.w3.org/1999/xlink">
<g id="graph0" class="graph" transform="scale(1 1) rotate(0) translate(4 252)">
<title>Graphical Class Hierarchy</title>
<polygon fill="white" stroke="none" points="-4,4 -4,-252 258,-252 258,4 -4,4"/>
<!-- Node1 -->
<g id="node1" class="node"><title>Node1</title>
<g id="a_node1"><a xlink:href="d9/d7b/classsimulations_1_1_sim.html" target="_top" xlink:title="simulations.Sim">
<polygon fill="white" stroke="black" points="0.5,-114.5 0.5,-133.5 93.5,-133.5 93.5,-114.5 0.5,-114.5"/>
<text text-anchor="middle" x="47" y="-121.5" font-family="Helvetica,sans-Serif" font-size="10.00">simulations.Sim</text>
</a>
</g>
</g>
<!-- Node2 -->
<g id="node2" class="node"><title>Node2</title>
<g id="a_node2"><a xlink:href="d7/da3/classsimulations_1_1_fire.html" target="_top" xlink:title="simulations.Fire">
<polygon fill="white" stroke="black" points="146.5,-228.5 146.5,-247.5 237.5,-247.5 237.5,-228.5 146.5,-228.5"/>
<text text-anchor="middle" x="192" y="-235.5" font-family="Helvetica,sans-Serif" font-size="10.00">simulations.Fire</text>
</a>
</g>
</g>
<!-- Node1&#45;&gt;Node2 -->
<g id="edge1" class="edge"><title>Node1&#45;&gt;Node2</title>
<path fill="none" stroke="midnightblue" d="M59.0915,-142.136C73.0705,-163.519 99.0504,-198.708 130,-219 135.844,-222.832 142.506,-225.928 149.229,-228.419"/>
<polygon fill="midnightblue" stroke="midnightblue" points="62.0129,-140.208 53.6967,-133.643 56.1042,-143.961 62.0129,-140.208"/>
</g>
<!-- Node3 -->
<g id="node3" class="node"><title>Node3</title>
<g id="a_node3"><a xlink:href="da/d7a/classsimulations_1_1_forage.html" target="_top" xlink:title="simulations.Forage">
<polygon fill="white" stroke="black" points="138.5,-190.5 138.5,-209.5 245.5,-209.5 245.5,-190.5 138.5,-190.5"/>
<text text-anchor="middle" x="192" y="-197.5" font-family="Helvetica,sans-Serif" font-size="10.00">simulations.Forage</text>
</a>
</g>
</g>
<!-- Node1&#45;&gt;Node3 -->
<g id="edge2" class="edge"><title>Node1&#45;&gt;Node3</title>
<path fill="none" stroke="midnightblue" d="M67.2717,-139.945C83.2533,-152.521 107.001,-169.757 130,-181 137.474,-184.654 145.804,-187.797 153.848,-190.416"/>
<polygon fill="midnightblue" stroke="midnightblue" points="69.2363,-137.034 59.2462,-133.506 64.8557,-142.494 69.2363,-137.034"/>
</g>
<!-- Node4 -->
<g id="node4" class="node"><title>Node4</title>
<g id="a_node4"><a xlink:href="d1/d4c/classsimulations_1_1_life.html" target="_top" xlink:title="simulations.Life">
<polygon fill="white" stroke="black" points="146.5,-152.5 146.5,-171.5 237.5,-171.5 237.5,-152.5 146.5,-152.5"/>
<text text-anchor="middle" x="192" y="-159.5" font-family="Helvetica,sans-Serif" font-size="10.00">simulations.Life</text>
</a>
</g>
</g>
<!-- Node1&#45;&gt;Node4 -->
<g id="edge3" class="edge"><title>Node1&#45;&gt;Node4</title>
<path fill="none" stroke="midnightblue" d="M93.8133,-136.174C113.587,-141.429 136.384,-147.487 154.927,-152.414"/>
<polygon fill="midnightblue" stroke="midnightblue" points="94.6484,-132.775 84.0849,-133.589 92.8506,-139.54 94.6484,-132.775"/>
</g>
<!-- Node5 -->
<g id="node5" class="node"><title>Node5</title>
<g id="a_node5"><a xlink:href="d4/d71/classsimulations_1_1_schelling.html" target="_top" xlink:title="simulations.Schelling">
<polygon fill="white" stroke="black" points="133.5,-114.5 133.5,-133.5 250.5,-133.5 250.5,-114.5 133.5,-114.5"/>
<text text-anchor="middle" x="192" y="-121.5" font-family="Helvetica,sans-Serif" font-size="10.00">simulations.Schelling</text>
</a>
</g>
</g>
<!-- Node1&#45;&gt;Node5 -->
<g id="edge4" class="edge"><title>Node1&#45;&gt;Node5</title>
<path fill="none" stroke="midnightblue" d="M103.655,-124C113.443,-124 123.647,-124 133.484,-124"/>
<polygon fill="midnightblue" stroke="midnightblue" points="103.639,-120.5 93.6393,-124 103.639,-127.5 103.639,-120.5"/>
</g>
<!-- Node6 -->
<g id="node6" class="node"><title>Node6</title>
<g id="a_node6"><a xlink:href="dc/d9d/classsimulations_1_1_slime_mold.html" target="_top" xlink:title="simulations.SlimeMold">
<polygon fill="white" stroke="black" points="130,-76.5 130,-95.5 254,-95.5 254,-76.5 130,-76.5"/>
<text text-anchor="middle" x="192" y="-83.5" font-family="Helvetica,sans-Serif" font-size="10.00">simulations.SlimeMold</text>
</a>
</g>
</g>
<!-- Node1&#45;&gt;Node6 -->
<g id="edge5" class="edge"><title>Node1&#45;&gt;Node6</title>
<path fill="none" stroke="midnightblue" d="M93.8133,-111.826C113.587,-106.571 136.384,-100.513 154.927,-95.5859"/>
<polygon fill="midnightblue" stroke="midnightblue" points="92.8506,-108.46 84.0849,-114.411 94.6484,-115.225 92.8506,-108.46"/>
</g>
<!-- Node7 -->
<g id="node7" class="node"><title>Node7</title>
<g id="a_node7"><a xlink:href="d7/d0c/classsimulations_1_1_sugar.html" target="_top" xlink:title="simulations.Sugar">
<polygon fill="white" stroke="black" points="140.5,-38.5 140.5,-57.5 243.5,-57.5 243.5,-38.5 140.5,-38.5"/>
<text text-anchor="middle" x="192" y="-45.5" font-family="Helvetica,sans-Serif" font-size="10.00">simulations.Sugar</text>
</a>
</g>
</g>
<!-- Node1&#45;&gt;Node7 -->
<g id="edge6" class="edge"><title>Node1&#45;&gt;Node7</title>
<path fill="none" stroke="midnightblue" d="M67.2717,-108.055C83.2533,-95.4794 107.001,-78.2433 130,-67 137.474,-63.3463 145.804,-60.2027 153.848,-57.5839"/>
<polygon fill="midnightblue" stroke="midnightblue" points="64.8557,-105.506 59.2462,-114.494 69.2363,-110.966 64.8557,-105.506"/>
</g>
<!-- Node8 -->
<g id="node8" class="node"><title>Node8</title>
<g id="a_node8"><a xlink:href="d3/d55/classsimulations_1_1_wator.html" target="_top" xlink:title="simulations.Wator">
<polygon fill="white" stroke="black" points="141.5,-0.5 141.5,-19.5 242.5,-19.5 242.5,-0.5 141.5,-0.5"/>
<text text-anchor="middle" x="192" y="-7.5" font-family="Helvetica,sans-Serif" font-size="10.00">simulations.Wator</text>
</a>
</g>
</g>
<!-- Node1&#45;&gt;Node8 -->
<g id="edge7" class="edge"><title>Node1&#45;&gt;Node8</title>
<path fill="none" stroke="midnightblue" d="M59.0915,-105.864C73.0705,-84.481 99.0504,-49.2919 130,-29 135.844,-25.1685 142.506,-22.0721 149.229,-19.581"/>
<polygon fill="midnightblue" stroke="midnightblue" points="56.1042,-104.039 53.6967,-114.357 62.0129,-107.792 56.1042,-104.039"/>
</g>
</g>
</svg>
