<?xml version="1.0" encoding="UTF-8" standalone="no"?>
<!DOCTYPE svg PUBLIC "-//W3C//DTD SVG 1.1//EN"
 "http://www.w3.org/Graphics/SVG/1.1/DTD/svg11.dtd">
<!-- Generated by graphviz version 2.36.0 (20140111.2315)
 -->
<!-- Title: Graphical Class Hierarchy Pages: 1 -->
<svg width="206pt" height="104pt"
 viewBox="0.00 0.00 206.00 104.00" xmlns="http://www.w3.org/2000/svg" xmlns:xlink="http://www.w3.org/1999/xlink">
<g id="graph0" class="graph" transform="scale(1 1) rotate(0) translate(4 100)">
<title>Graphical Class Hierarchy</title>
<polygon fill="white" stroke="none" points="-4,4 -4,-100 202,-100 202,4 -4,4"/>
<!-- Node1 -->
<g id="node1" class="node"><title>Node1</title>
<g id="a_node1"><a xlink:href="d6/dff/classutility_1_1_cell_gen.html" target="_top" xlink:title="utility.CellGen">
<polygon fill="white" stroke="black" points="0,-38.5 0,-57.5 80,-57.5 80,-38.5 0,-38.5"/>
<text text-anchor="middle" x="40" y="-45.5" font-family="Helvetica,sans-Serif" font-size="10.00">utility.CellGen</text>
</a>
</g>
</g>
<!-- Node2 -->
<g id="node2" class="node"><title>Node2</title>
<g id="a_node2"><a xlink:href="dc/dcd/classutility_1_1_hex_gen.html" target="_top" xlink:title="utility.HexGen">
<polygon fill="white" stroke="black" points="116,-76.5 116,-95.5 198,-95.5 198,-76.5 116,-76.5"/>
<text text-anchor="middle" x="157" y="-83.5" font-family="Helvetica,sans-Serif" font-size="10.00">utility.HexGen</text>
</a>
</g>
</g>
<!-- Node1&#45;&gt;Node2 -->
<g id="edge1" class="edge"><title>Node1&#45;&gt;Node2</title>
<path fill="none" stroke="midnightblue" d="M79.8153,-60.8259C95.2459,-65.9247 112.691,-71.6891 126.99,-76.4141"/>
<polygon fill="midnightblue" stroke="midnightblue" points="80.6126,-57.4033 70.0194,-57.589 78.4163,-64.0498 80.6126,-57.4033"/>
</g>
<!-- Node3 -->
<g id="node3" class="node"><title>Node3</title>
<g id="a_node3"><a xlink:href="d1/dce/classutility_1_1_rec_gen.html" target="_top" xlink:title="utility.RecGen">
<polygon fill="white" stroke="black" points="117,-38.5 117,-57.5 197,-57.5 197,-38.5 117,-38.5"/>
<text text-anchor="middle" x="157" y="-45.5" font-family="Helvetica,sans-Serif" font-size="10.00">utility.RecGen</text>
</a>
</g>
</g>
<!-- Node1&#45;&gt;Node3 -->
<g id="edge2" class="edge"><title>Node1&#45;&gt;Node3</title>
<path fill="none" stroke="midnightblue" d="M90.4686,-48C99.3143,-48 108.419,-48 116.922,-48"/>
<polygon fill="midnightblue" stroke="midnightblue" points="90.2549,-44.5001 80.2548,-48 90.2548,-51.5001 90.2549,-44.5001"/>
</g>
<!-- Node4 -->
<g id="node4" class="node"><title>Node4</title>
<g id="a_node4"><a xlink:href="d3/dba/classutility_1_1_tri_gen.html" target="_top" xlink:title="utility.TriGen">
<polygon fill="white" stroke="black" points="120.5,-0.5 120.5,-19.5 193.5,-19.5 193.5,-0.5 120.5,-0.5"/>
<text text-anchor="middle" x="157" y="-7.5" font-family="Helvetica,sans-Serif" font-size="10.00">utility.TriGen</text>
</a>
</g>
</g>
<!-- Node1&#45;&gt;Node4 -->
<g id="edge3" class="edge"><title>Node1&#45;&gt;Node4</title>
<path fill="none" stroke="midnightblue" d="M79.8153,-35.1741C95.2459,-30.0753 112.691,-24.3109 126.99,-19.5859"/>
<polygon fill="midnightblue" stroke="midnightblue" points="78.4163,-31.9502 70.0194,-38.411 80.6126,-38.5967 78.4163,-31.9502"/>
</g>
</g>
</svg>
