<?xml version="1.0" encoding="UTF-8" standalone="no"?>
<!DOCTYPE svg PUBLIC "-//W3C//DTD SVG 1.1//EN"
 "http://www.w3.org/Graphics/SVG/1.1/DTD/svg11.dtd">
<!-- Generated by graphviz version 2.36.0 (20140111.2315)
 -->
<!-- Title: simulations.SlimeMold Pages: 1 -->
<svg width="556pt" height="164pt"
 viewBox="0.00 0.00 556.00 164.00" xmlns="http://www.w3.org/2000/svg" xmlns:xlink="http://www.w3.org/1999/xlink">
<g id="graph0" class="graph" transform="scale(1 1) rotate(0) translate(4 160)">
<title>simulations.SlimeMold</title>
<polygon fill="white" stroke="none" points="-4,4 -4,-160 552,-160 552,4 -4,4"/>
<!-- Node1 -->
<g id="node1" class="node"><title>Node1</title>
<polygon fill="#bfbfbf" stroke="black" points="424,-54.5 424,-73.5 548,-73.5 548,-54.5 424,-54.5"/>
<text text-anchor="middle" x="486" y="-61.5" font-family="Helvetica,sans-Serif" font-size="10.00">simulations.SlimeMold</text>
</g>
<!-- Node2 -->
<g id="node2" class="node"><title>Node2</title>
<g id="a_node2"><a xlink:href="../../d9/d7b/classsimulations_1_1_sim.html" target="_top" xlink:title="simulations.Sim">
<polygon fill="white" stroke="black" points="220.5,-98.5 220.5,-117.5 313.5,-117.5 313.5,-98.5 220.5,-98.5"/>
<text text-anchor="middle" x="267" y="-105.5" font-family="Helvetica,sans-Serif" font-size="10.00">simulations.Sim</text>
</a>
</g>
</g>
<!-- Node2&#45;&gt;Node1 -->
<g id="edge1" class="edge"><title>Node2&#45;&gt;Node1</title>
<path fill="none" stroke="midnightblue" d="M323.903,-96.6649C359.206,-89.5066 404.31,-80.3611 437.808,-73.5689"/>
<polygon fill="midnightblue" stroke="midnightblue" points="322.86,-93.305 313.755,-98.7225 324.251,-100.165 322.86,-93.305"/>
</g>
<!-- Node3 -->
<g id="node3" class="node"><title>Node3</title>
<g id="a_node3"><a xlink:href="../../dc/d26/classutility_1_1_sim_data.html" target="_top" xlink:title="utility.SimData">
<polygon fill="white" stroke="black" points="2,-136.5 2,-155.5 88,-155.5 88,-136.5 2,-136.5"/>
<text text-anchor="middle" x="45" y="-143.5" font-family="Helvetica,sans-Serif" font-size="10.00">utility.SimData</text>
</a>
</g>
</g>
<!-- Node3&#45;&gt;Node2 -->
<g id="edge2" class="edge"><title>Node3&#45;&gt;Node2</title>
<path fill="none" stroke="#9a32cd" stroke-dasharray="5,2" d="M98.2714,-136.971C135.353,-130.566 184.648,-122.052 220.19,-115.913"/>
<polygon fill="#9a32cd" stroke="#9a32cd" points="97.4162,-133.567 88.1579,-138.718 98.6077,-140.465 97.4162,-133.567"/>
<text text-anchor="middle" x="136" y="-138" font-family="Helvetica,sans-Serif" font-size="10.00"> gameData</text>
</g>
<!-- Node4 -->
<g id="node4" class="node"><title>Node4</title>
<polygon fill="white" stroke="#bfbfbf" points="0.5,-98.5 0.5,-117.5 89.5,-117.5 89.5,-98.5 0.5,-98.5"/>
<text text-anchor="middle" x="45" y="-105.5" font-family="Helvetica,sans-Serif" font-size="10.00">List&lt; Integer &gt;</text>
</g>
<!-- Node4&#45;&gt;Node2 -->
<g id="edge3" class="edge"><title>Node4&#45;&gt;Node2</title>
<path fill="none" stroke="#9a32cd" stroke-dasharray="5,2" d="M99.8333,-108C136.824,-108 185.396,-108 220.463,-108"/>
<polygon fill="#9a32cd" stroke="#9a32cd" points="99.728,-104.5 89.728,-108 99.7279,-111.5 99.728,-104.5"/>
<text text-anchor="middle" x="136" y="-111" font-family="Helvetica,sans-Serif" font-size="10.00"> params</text>
</g>
<!-- Node5 -->
<g id="node5" class="node"><title>Node5</title>
<polygon fill="white" stroke="#bfbfbf" points="17,-60.5 17,-79.5 73,-79.5 73,-60.5 17,-60.5"/>
<text text-anchor="middle" x="45" y="-67.5" font-family="Helvetica,sans-Serif" font-size="10.00">Random</text>
</g>
<!-- Node5&#45;&gt;Node2 -->
<g id="edge4" class="edge"><title>Node5&#45;&gt;Node2</title>
<path fill="none" stroke="#9a32cd" stroke-dasharray="5,2" d="M83.5013,-76.4775C121.299,-83.0062 179.687,-93.0913 220.2,-100.089"/>
<polygon fill="#9a32cd" stroke="#9a32cd" points="83.8682,-72.9891 73.4183,-74.7359 82.6767,-79.887 83.8682,-72.9891"/>
<text text-anchor="middle" x="136" y="-94" font-family="Helvetica,sans-Serif" font-size="10.00"> rand</text>
</g>
<!-- Node6 -->
<g id="node6" class="node"><title>Node6</title>
<polygon fill="white" stroke="#bfbfbf" points="182,-49 182,-79 352,-79 352,-49 182,-49"/>
<text text-anchor="start" x="190" y="-67" font-family="Helvetica,sans-Serif" font-size="10.00">HashMap&lt; Integer, simulations.</text>
<text text-anchor="middle" x="267" y="-56" font-family="Helvetica,sans-Serif" font-size="10.00">SlimeMold.SlimeBox &gt;</text>
</g>
<!-- Node6&#45;&gt;Node1 -->
<g id="edge5" class="edge"><title>Node6&#45;&gt;Node1</title>
<path fill="none" stroke="#9a32cd" stroke-dasharray="5,2" d="M362.345,-64C383.135,-64 404.632,-64 423.709,-64"/>
<polygon fill="#9a32cd" stroke="#9a32cd" points="362.208,-60.5001 352.208,-64 362.208,-67.5001 362.208,-60.5001"/>
<text text-anchor="middle" x="388" y="-67" font-family="Helvetica,sans-Serif" font-size="10.00"> terrain</text>
</g>
<!-- Node7 -->
<g id="node7" class="node"><title>Node7</title>
<polygon fill="white" stroke="#bfbfbf" points="182,-0 182,-30 352,-30 352,-0 182,-0"/>
<text text-anchor="start" x="190" y="-18" font-family="Helvetica,sans-Serif" font-size="10.00">HashMap&lt; Integer, simulations.</text>
<text text-anchor="middle" x="267" y="-7" font-family="Helvetica,sans-Serif" font-size="10.00">SlimeMold.SlimeCell &gt;</text>
</g>
<!-- Node7&#45;&gt;Node1 -->
<g id="edge6" class="edge"><title>Node7&#45;&gt;Node1</title>
<path fill="none" stroke="#9a32cd" stroke-dasharray="5,2" d="M344.667,-32.3119C377.658,-39.7615 414.957,-48.1838 442.805,-54.472"/>
<polygon fill="#9a32cd" stroke="#9a32cd" points="345.107,-28.8233 334.582,-30.0346 343.565,-35.6513 345.107,-28.8233"/>
<text text-anchor="middle" x="388" y="-49" font-family="Helvetica,sans-Serif" font-size="10.00"> cells</text>
</g>
</g>
</svg>
