<?xml version="1.0" encoding="UTF-8" standalone="no"?>
<!DOCTYPE svg PUBLIC "-//W3C//DTD SVG 1.1//EN"
 "http://www.w3.org/Graphics/SVG/1.1/DTD/svg11.dtd">
<!-- Generated by graphviz version 2.36.0 (20140111.2315)
 -->
<!-- Title: simulations.Schelling Pages: 1 -->
<svg width="274pt" height="154pt"
 viewBox="0.00 0.00 274.00 154.00" xmlns="http://www.w3.org/2000/svg" xmlns:xlink="http://www.w3.org/1999/xlink">
<g id="graph0" class="graph" transform="scale(1 1) rotate(0) translate(4 150)">
<title>simulations.Schelling</title>
<polygon fill="white" stroke="none" points="-4,4 -4,-150 270,-150 270,4 -4,4"/>
<!-- Node1 -->
<g id="node1" class="node"><title>Node1</title>
<polygon fill="#bfbfbf" stroke="black" points="90.5,-0.5 90.5,-19.5 207.5,-19.5 207.5,-0.5 90.5,-0.5"/>
<text text-anchor="middle" x="149" y="-7.5" font-family="Helvetica,sans-Serif" font-size="10.00">simulations.Schelling</text>
</g>
<!-- Node2 -->
<g id="node2" class="node"><title>Node2</title>
<g id="a_node2"><a xlink:href="../../d9/d7b/classsimulations_1_1_sim.html" target="_top" xlink:title="simulations.Sim">
<polygon fill="white" stroke="black" points="102.5,-58.5 102.5,-77.5 195.5,-77.5 195.5,-58.5 102.5,-58.5"/>
<text text-anchor="middle" x="149" y="-65.5" font-family="Helvetica,sans-Serif" font-size="10.00">simulations.Sim</text>
</a>
</g>
</g>
<!-- Node2&#45;&gt;Node1 -->
<g id="edge1" class="edge"><title>Node2&#45;&gt;Node1</title>
<path fill="none" stroke="midnightblue" d="M149,-47.953C149,-38.2875 149,-27.0312 149,-19.5052"/>
<polygon fill="midnightblue" stroke="midnightblue" points="145.5,-48.25 149,-58.25 152.5,-48.25 145.5,-48.25"/>
</g>
<!-- Node3 -->
<g id="node3" class="node"><title>Node3</title>
<g id="a_node3"><a xlink:href="../../dc/d26/classutility_1_1_sim_data.html" target="_top" xlink:title="utility.SimData">
<polygon fill="white" stroke="black" points="0,-126.5 0,-145.5 86,-145.5 86,-126.5 0,-126.5"/>
<text text-anchor="middle" x="43" y="-133.5" font-family="Helvetica,sans-Serif" font-size="10.00">utility.SimData</text>
</a>
</g>
</g>
<!-- Node3&#45;&gt;Node2 -->
<g id="edge2" class="edge"><title>Node3&#45;&gt;Node2</title>
<path fill="none" stroke="#9a32cd" stroke-dasharray="5,2" d="M59.3086,-119.643C67.9962,-111.948 79.1137,-102.839 90,-96 101.542,-88.7493 115.354,-82.3209 126.711,-77.5572"/>
<polygon fill="#9a32cd" stroke="#9a32cd" points="56.8505,-117.148 51.8107,-126.467 61.5622,-122.325 56.8505,-117.148"/>
<text text-anchor="middle" x="117.5" y="-99.5" font-family="Helvetica,sans-Serif" font-size="10.00"> gameData</text>
</g>
<!-- Node4 -->
<g id="node4" class="node"><title>Node4</title>
<polygon fill="white" stroke="#bfbfbf" points="104.5,-126.5 104.5,-145.5 193.5,-145.5 193.5,-126.5 104.5,-126.5"/>
<text text-anchor="middle" x="149" y="-133.5" font-family="Helvetica,sans-Serif" font-size="10.00">List&lt; Integer &gt;</text>
</g>
<!-- Node4&#45;&gt;Node2 -->
<g id="edge3" class="edge"><title>Node4&#45;&gt;Node2</title>
<path fill="none" stroke="#9a32cd" stroke-dasharray="5,2" d="M149,-116.041C149,-103.472 149,-87.5631 149,-77.8411"/>
<polygon fill="#9a32cd" stroke="#9a32cd" points="145.5,-116.372 149,-126.372 152.5,-116.372 145.5,-116.372"/>
<text text-anchor="middle" x="169" y="-99.5" font-family="Helvetica,sans-Serif" font-size="10.00"> params</text>
</g>
<!-- Node5 -->
<g id="node5" class="node"><title>Node5</title>
<polygon fill="white" stroke="#bfbfbf" points="211,-126.5 211,-145.5 267,-145.5 267,-126.5 211,-126.5"/>
<text text-anchor="middle" x="239" y="-133.5" font-family="Helvetica,sans-Serif" font-size="10.00">Random</text>
</g>
<!-- Node5&#45;&gt;Node2 -->
<g id="edge4" class="edge"><title>Node5&#45;&gt;Node2</title>
<path fill="none" stroke="#9a32cd" stroke-dasharray="5,2" d="M222.141,-119.631C213.651,-112.174 203.048,-103.277 193,-96 183.854,-89.3761 173.052,-82.7319 164.44,-77.692"/>
<polygon fill="#9a32cd" stroke="#9a32cd" points="220.038,-122.446 229.828,-126.496 224.7,-117.225 220.038,-122.446"/>
<text text-anchor="middle" x="220.5" y="-99.5" font-family="Helvetica,sans-Serif" font-size="10.00"> rand</text>
</g>
</g>
</svg>
