<?xml version="1.0" encoding="UTF-8" standalone="no"?>
<!DOCTYPE svg PUBLIC "-//W3C//DTD SVG 1.1//EN"
 "http://www.w3.org/Graphics/SVG/1.1/DTD/svg11.dtd">
<!-- Generated by graphviz version 2.36.0 (20140111.2315)
 -->
<!-- Title: animation.AnimatedGraph.createAddSeries Pages: 1 -->
<svg width="1366pt" height="77pt"
 viewBox="0.00 0.00 1366.00 77.00" xmlns="http://www.w3.org/2000/svg" xmlns:xlink="http://www.w3.org/1999/xlink">
<g id="graph0" class="graph" transform="scale(1 1) rotate(0) translate(4 73)">
<title>animation.AnimatedGraph.createAddSeries</title>
<polygon fill="white" stroke="none" points="-4,4 -4,-73 1362,-73 1362,4 -4,4"/>
<!-- Node1 -->
<g id="node1" class="node"><title>Node1</title>
<polygon fill="#bfbfbf" stroke="black" points="0.5,-17 0.5,-47 177.5,-47 177.5,-17 0.5,-17"/>
<text text-anchor="start" x="8.5" y="-35" font-family="Helvetica,sans-Serif" font-size="10.00">animation.AnimatedGraph.create</text>
<text text-anchor="middle" x="89" y="-24" font-family="Helvetica,sans-Serif" font-size="10.00">AddSeries</text>
</g>
<!-- Node2 -->
<g id="node2" class="node"><title>Node2</title>
<g id="a_node2"><a xlink:href="../../da/d16/classanimation_1_1_animated_graph.html#a5044ded5b535e0e440c6d1d5ce4585c8" target="_top" xlink:title="animation.AnimatedGraph.init">
<polygon fill="white" stroke="black" points="214.5,-22.5 214.5,-41.5 375.5,-41.5 375.5,-22.5 214.5,-22.5"/>
<text text-anchor="middle" x="295" y="-29.5" font-family="Helvetica,sans-Serif" font-size="10.00">animation.AnimatedGraph.init</text>
</a>
</g>
</g>
<!-- Node1&#45;&gt;Node2 -->
<g id="edge1" class="edge"><title>Node1&#45;&gt;Node2</title>
<path fill="none" stroke="midnightblue" d="M187.756,-32C196.694,-32 205.676,-32 214.425,-32"/>
<polygon fill="midnightblue" stroke="midnightblue" points="187.698,-28.5001 177.698,-32 187.698,-35.5001 187.698,-28.5001"/>
</g>
<!-- Node3 -->
<g id="node3" class="node"><title>Node3</title>
<g id="a_node3"><a xlink:href="../../d9/dd0/classcellsociety__team05_1_1_scene_updater.html#a797cf5fc8c06caca14a6415e348ee2d0" target="_top" xlink:title="cellsociety_team05.Scene\lUpdater.newScene">
<polygon fill="white" stroke="black" points="412,-17 412,-47 554,-47 554,-17 412,-17"/>
<text text-anchor="start" x="420" y="-35" font-family="Helvetica,sans-Serif" font-size="10.00">cellsociety_team05.Scene</text>
<text text-anchor="middle" x="483" y="-24" font-family="Helvetica,sans-Serif" font-size="10.00">Updater.newScene</text>
</a>
</g>
</g>
<!-- Node2&#45;&gt;Node3 -->
<g id="edge2" class="edge"><title>Node2&#45;&gt;Node3</title>
<path fill="none" stroke="midnightblue" d="M385.893,-32C394.615,-32 403.373,-32 411.861,-32"/>
<polygon fill="midnightblue" stroke="midnightblue" points="385.69,-28.5001 375.69,-32 385.69,-35.5001 385.69,-28.5001"/>
</g>
<!-- Node4 -->
<g id="node4" class="node"><title>Node4</title>
<g id="a_node4"><a xlink:href="../../d6/da5/classcellsociety__team05_1_1_master.html#ac10570db09b5b348c023bbd5e1df801b" target="_top" xlink:title="cellsociety_team05.Master.init">
<polygon fill="white" stroke="black" points="590.5,-22.5 590.5,-41.5 751.5,-41.5 751.5,-22.5 590.5,-22.5"/>
<text text-anchor="middle" x="671" y="-29.5" font-family="Helvetica,sans-Serif" font-size="10.00">cellsociety_team05.Master.init</text>
</a>
</g>
</g>
<!-- Node3&#45;&gt;Node4 -->
<g id="edge3" class="edge"><title>Node3&#45;&gt;Node4</title>
<path fill="none" stroke="midnightblue" d="M564.153,-32C572.831,-32 581.662,-32 590.335,-32"/>
<polygon fill="midnightblue" stroke="midnightblue" points="564.054,-28.5001 554.054,-32 564.054,-35.5001 564.054,-28.5001"/>
</g>
<!-- Node5 -->
<g id="node5" class="node"><title>Node5</title>
<g id="a_node5"><a xlink:href="../../d2/d60/classanimation_1_1_g_u_i_creator.html#a61c68b3e24b62788dab86e5240991107" target="_top" xlink:title="animation.GUICreator.load\lAction">
<polygon fill="white" stroke="black" points="796.5,-39 796.5,-69 939.5,-69 939.5,-39 796.5,-39"/>
<text text-anchor="start" x="804.5" y="-57" font-family="Helvetica,sans-Serif" font-size="10.00">animation.GUICreator.load</text>
<text text-anchor="middle" x="868" y="-46" font-family="Helvetica,sans-Serif" font-size="10.00">Action</text>
</a>
</g>
</g>
<!-- Node4&#45;&gt;Node5 -->
<g id="edge4" class="edge"><title>Node4&#45;&gt;Node5</title>
<path fill="none" stroke="midnightblue" d="M761.759,-42.1267C773.388,-43.4386 785.164,-44.7673 796.421,-46.0373"/>
<polygon fill="midnightblue" stroke="midnightblue" points="761.925,-38.6232 751.595,-40.98 761.14,-45.5791 761.925,-38.6232"/>
</g>
<!-- Node8 -->
<g id="node8" class="node"><title>Node8</title>
<g id="a_node8"><a xlink:href="../../de/d00/classcellsociety__team05_1_1_main.html#a7663311e53af8548f912c74dcc829624" target="_top" xlink:title="cellsociety_team05.Main.start">
<polygon fill="white" stroke="black" points="788,-0.5 788,-19.5 948,-19.5 948,-0.5 788,-0.5"/>
<text text-anchor="middle" x="868" y="-7.5" font-family="Helvetica,sans-Serif" font-size="10.00">cellsociety_team05.Main.start</text>
</a>
</g>
</g>
<!-- Node4&#45;&gt;Node8 -->
<g id="edge7" class="edge"><title>Node4&#45;&gt;Node8</title>
<path fill="none" stroke="midnightblue" d="M761.797,-21.8691C770.534,-20.8833 779.355,-19.8882 787.975,-18.9157"/>
<polygon fill="midnightblue" stroke="midnightblue" points="761.14,-18.4209 751.595,-23.02 761.925,-25.3768 761.14,-18.4209"/>
</g>
<!-- Node6 -->
<g id="node6" class="node"><title>Node6</title>
<g id="a_node6"><a xlink:href="../../d2/d60/classanimation_1_1_g_u_i_creator.html#ac4c8bd0d5bc08d30393866736d995aa5" target="_top" xlink:title="animation.GUICreator.addload\lXMLButton">
<polygon fill="white" stroke="black" points="984.5,-39 984.5,-69 1145.5,-69 1145.5,-39 984.5,-39"/>
<text text-anchor="start" x="992.5" y="-57" font-family="Helvetica,sans-Serif" font-size="10.00">animation.GUICreator.addload</text>
<text text-anchor="middle" x="1065" y="-46" font-family="Helvetica,sans-Serif" font-size="10.00">XMLButton</text>
</a>
</g>
</g>
<!-- Node5&#45;&gt;Node6 -->
<g id="edge5" class="edge"><title>Node5&#45;&gt;Node6</title>
<path fill="none" stroke="midnightblue" d="M949.991,-54C961.338,-54 972.992,-54 984.314,-54"/>
<polygon fill="midnightblue" stroke="midnightblue" points="949.675,-50.5001 939.675,-54 949.675,-57.5001 949.675,-50.5001"/>
</g>
<!-- Node7 -->
<g id="node7" class="node"><title>Node7</title>
<g id="a_node7"><a xlink:href="../../d2/d60/classanimation_1_1_g_u_i_creator.html#a9a94a22da284976e0a39d9b58e6646ae" target="_top" xlink:title="animation.GUICreator.GUICreator">
<polygon fill="white" stroke="black" points="1182,-44.5 1182,-63.5 1358,-63.5 1358,-44.5 1182,-44.5"/>
<text text-anchor="middle" x="1270" y="-51.5" font-family="Helvetica,sans-Serif" font-size="10.00">animation.GUICreator.GUICreator</text>
</a>
</g>
</g>
<!-- Node6&#45;&gt;Node7 -->
<g id="edge6" class="edge"><title>Node6&#45;&gt;Node7</title>
<path fill="none" stroke="midnightblue" d="M1155.76,-54C1164.43,-54 1173.22,-54 1181.87,-54"/>
<polygon fill="midnightblue" stroke="midnightblue" points="1155.65,-50.5001 1145.65,-54 1155.65,-57.5001 1155.65,-50.5001"/>
</g>
</g>
</svg>
