<?xml version="1.0" encoding="UTF-8" standalone="no"?>
<!DOCTYPE svg PUBLIC "-//W3C//DTD SVG 1.1//EN"
 "http://www.w3.org/Graphics/SVG/1.1/DTD/svg11.dtd">
<!-- Generated by graphviz version 2.36.0 (20140111.2315)
 -->
<!-- Title: animation.AnimatedGraph.addData Pages: 1 -->
<svg width="1798pt" height="77pt"
 viewBox="0.00 0.00 1798.00 77.00" xmlns="http://www.w3.org/2000/svg" xmlns:xlink="http://www.w3.org/1999/xlink">
<g id="graph0" class="graph" transform="scale(1 1) rotate(0) translate(4 73)">
<title>animation.AnimatedGraph.addData</title>
<polygon fill="white" stroke="none" points="-4,4 -4,-73 1794,-73 1794,4 -4,4"/>
<!-- Node1 -->
<g id="node1" class="node"><title>Node1</title>
<polygon fill="#bfbfbf" stroke="black" points="0,-22.5 0,-41.5 188,-41.5 188,-22.5 0,-22.5"/>
<text text-anchor="middle" x="94" y="-29.5" font-family="Helvetica,sans-Serif" font-size="10.00">animation.AnimatedGraph.addData</text>
</g>
<!-- Node2 -->
<g id="node2" class="node"><title>Node2</title>
<g id="a_node2"><a xlink:href="../../d9/dd0/classcellsociety__team05_1_1_scene_updater.html#a426e94fe0be8484ef5796171e64f8a3a" target="_top" xlink:title="cellsociety_team05.Scene\lUpdater.updateGraph">
<polygon fill="white" stroke="black" points="224,-17 224,-47 366,-47 366,-17 224,-17"/>
<text text-anchor="start" x="232" y="-35" font-family="Helvetica,sans-Serif" font-size="10.00">cellsociety_team05.Scene</text>
<text text-anchor="middle" x="295" y="-24" font-family="Helvetica,sans-Serif" font-size="10.00">Updater.updateGraph</text>
</a>
</g>
</g>
<!-- Node1&#45;&gt;Node2 -->
<g id="edge1" class="edge"><title>Node1&#45;&gt;Node2</title>
<path fill="none" stroke="midnightblue" d="M198.262,-32C206.924,-32 215.549,-32 223.872,-32"/>
<polygon fill="midnightblue" stroke="midnightblue" points="198.091,-28.5001 188.091,-32 198.091,-35.5001 198.091,-28.5001"/>
</g>
<!-- Node3 -->
<g id="node3" class="node"><title>Node3</title>
<g id="a_node3"><a xlink:href="../../d6/da5/classcellsociety__team05_1_1_master.html#aef1f14e30284edb3e1f8c0c5636de390" target="_top" xlink:title="cellsociety_team05.Master.evolve">
<polygon fill="white" stroke="black" points="402,-22.5 402,-41.5 580,-41.5 580,-22.5 402,-22.5"/>
<text text-anchor="middle" x="491" y="-29.5" font-family="Helvetica,sans-Serif" font-size="10.00">cellsociety_team05.Master.evolve</text>
</a>
</g>
</g>
<!-- Node2&#45;&gt;Node3 -->
<g id="edge2" class="edge"><title>Node2&#45;&gt;Node3</title>
<path fill="none" stroke="midnightblue" d="M376.232,-32C384.674,-32 393.291,-32 401.817,-32"/>
<polygon fill="midnightblue" stroke="midnightblue" points="376.038,-28.5001 366.038,-32 376.038,-35.5001 376.038,-28.5001"/>
</g>
<!-- Node4 -->
<g id="node4" class="node"><title>Node4</title>
<g id="a_node4"><a xlink:href="../../d6/da5/classcellsociety__team05_1_1_master.html#a9e0818f6e4d1389a401b337b2c5c9f81" target="_top" xlink:title="cellsociety_team05.Master.add\lKeyFrame">
<polygon fill="white" stroke="black" points="616.5,-17 616.5,-47 781.5,-47 781.5,-17 616.5,-17"/>
<text text-anchor="start" x="624.5" y="-35" font-family="Helvetica,sans-Serif" font-size="10.00">cellsociety_team05.Master.add</text>
<text text-anchor="middle" x="699" y="-24" font-family="Helvetica,sans-Serif" font-size="10.00">KeyFrame</text>
</a>
</g>
</g>
<!-- Node3&#45;&gt;Node4 -->
<g id="edge3" class="edge"><title>Node3&#45;&gt;Node4</title>
<path fill="none" stroke="midnightblue" d="M590.444,-32C599.15,-32 607.9,-32 616.444,-32"/>
<polygon fill="midnightblue" stroke="midnightblue" points="590.259,-28.5001 580.259,-32 590.259,-35.5001 590.259,-28.5001"/>
</g>
<!-- Node5 -->
<g id="node5" class="node"><title>Node5</title>
<g id="a_node5"><a xlink:href="../../d6/da5/classcellsociety__team05_1_1_master.html#ac07c303c9783fa437ccf0c702effcffd" target="_top" xlink:title="cellsociety_team05.Master.play">
<polygon fill="white" stroke="black" points="818.5,-22.5 818.5,-41.5 985.5,-41.5 985.5,-22.5 818.5,-22.5"/>
<text text-anchor="middle" x="902" y="-29.5" font-family="Helvetica,sans-Serif" font-size="10.00">cellsociety_team05.Master.play</text>
</a>
</g>
</g>
<!-- Node4&#45;&gt;Node5 -->
<g id="edge4" class="edge"><title>Node4&#45;&gt;Node5</title>
<path fill="none" stroke="midnightblue" d="M792.006,-32C800.787,-32 809.655,-32 818.339,-32"/>
<polygon fill="midnightblue" stroke="midnightblue" points="791.754,-28.5001 781.754,-32 791.754,-35.5001 791.754,-28.5001"/>
</g>
<!-- Node6 -->
<g id="node6" class="node"><title>Node6</title>
<g id="a_node6"><a xlink:href="../../d6/da5/classcellsociety__team05_1_1_master.html#ac10570db09b5b348c023bbd5e1df801b" target="_top" xlink:title="cellsociety_team05.Master.init">
<polygon fill="white" stroke="black" points="1022.5,-22.5 1022.5,-41.5 1183.5,-41.5 1183.5,-22.5 1022.5,-22.5"/>
<text text-anchor="middle" x="1103" y="-29.5" font-family="Helvetica,sans-Serif" font-size="10.00">cellsociety_team05.Master.init</text>
</a>
</g>
</g>
<!-- Node5&#45;&gt;Node6 -->
<g id="edge5" class="edge"><title>Node5&#45;&gt;Node6</title>
<path fill="none" stroke="midnightblue" d="M995.714,-32C1004.65,-32 1013.67,-32 1022.47,-32"/>
<polygon fill="midnightblue" stroke="midnightblue" points="995.665,-28.5001 985.665,-32 995.665,-35.5001 995.665,-28.5001"/>
</g>
<!-- Node7 -->
<g id="node7" class="node"><title>Node7</title>
<g id="a_node7"><a xlink:href="../../d2/d60/classanimation_1_1_g_u_i_creator.html#a61c68b3e24b62788dab86e5240991107" target="_top" xlink:title="animation.GUICreator.load\lAction">
<polygon fill="white" stroke="black" points="1228.5,-39 1228.5,-69 1371.5,-69 1371.5,-39 1228.5,-39"/>
<text text-anchor="start" x="1236.5" y="-57" font-family="Helvetica,sans-Serif" font-size="10.00">animation.GUICreator.load</text>
<text text-anchor="middle" x="1300" y="-46" font-family="Helvetica,sans-Serif" font-size="10.00">Action</text>
</a>
</g>
</g>
<!-- Node6&#45;&gt;Node7 -->
<g id="edge6" class="edge"><title>Node6&#45;&gt;Node7</title>
<path fill="none" stroke="midnightblue" d="M1193.76,-42.1267C1205.39,-43.4386 1217.16,-44.7673 1228.42,-46.0373"/>
<polygon fill="midnightblue" stroke="midnightblue" points="1193.92,-38.6232 1183.6,-40.98 1193.14,-45.5791 1193.92,-38.6232"/>
</g>
<!-- Node10 -->
<g id="node10" class="node"><title>Node10</title>
<g id="a_node10"><a xlink:href="../../de/d00/classcellsociety__team05_1_1_main.html#a7663311e53af8548f912c74dcc829624" target="_top" xlink:title="cellsociety_team05.Main.start">
<polygon fill="white" stroke="black" points="1220,-0.5 1220,-19.5 1380,-19.5 1380,-0.5 1220,-0.5"/>
<text text-anchor="middle" x="1300" y="-7.5" font-family="Helvetica,sans-Serif" font-size="10.00">cellsociety_team05.Main.start</text>
</a>
</g>
</g>
<!-- Node6&#45;&gt;Node10 -->
<g id="edge9" class="edge"><title>Node6&#45;&gt;Node10</title>
<path fill="none" stroke="midnightblue" d="M1193.8,-21.8691C1202.53,-20.8833 1211.35,-19.8882 1219.97,-18.9157"/>
<polygon fill="midnightblue" stroke="midnightblue" points="1193.14,-18.4209 1183.6,-23.02 1193.92,-25.3768 1193.14,-18.4209"/>
</g>
<!-- Node8 -->
<g id="node8" class="node"><title>Node8</title>
<g id="a_node8"><a xlink:href="../../d2/d60/classanimation_1_1_g_u_i_creator.html#ac4c8bd0d5bc08d30393866736d995aa5" target="_top" xlink:title="animation.GUICreator.addload\lXMLButton">
<polygon fill="white" stroke="black" points="1416.5,-39 1416.5,-69 1577.5,-69 1577.5,-39 1416.5,-39"/>
<text text-anchor="start" x="1424.5" y="-57" font-family="Helvetica,sans-Serif" font-size="10.00">animation.GUICreator.addload</text>
<text text-anchor="middle" x="1497" y="-46" font-family="Helvetica,sans-Serif" font-size="10.00">XMLButton</text>
</a>
</g>
</g>
<!-- Node7&#45;&gt;Node8 -->
<g id="edge7" class="edge"><title>Node7&#45;&gt;Node8</title>
<path fill="none" stroke="midnightblue" d="M1381.99,-54C1393.34,-54 1404.99,-54 1416.31,-54"/>
<polygon fill="midnightblue" stroke="midnightblue" points="1381.68,-50.5001 1371.68,-54 1381.68,-57.5001 1381.68,-50.5001"/>
</g>
<!-- Node9 -->
<g id="node9" class="node"><title>Node9</title>
<g id="a_node9"><a xlink:href="../../d2/d60/classanimation_1_1_g_u_i_creator.html#a9a94a22da284976e0a39d9b58e6646ae" target="_top" xlink:title="animation.GUICreator.GUICreator">
<polygon fill="white" stroke="black" points="1614,-44.5 1614,-63.5 1790,-63.5 1790,-44.5 1614,-44.5"/>
<text text-anchor="middle" x="1702" y="-51.5" font-family="Helvetica,sans-Serif" font-size="10.00">animation.GUICreator.GUICreator</text>
</a>
</g>
</g>
<!-- Node8&#45;&gt;Node9 -->
<g id="edge8" class="edge"><title>Node8&#45;&gt;Node9</title>
<path fill="none" stroke="midnightblue" d="M1587.76,-54C1596.43,-54 1605.22,-54 1613.87,-54"/>
<polygon fill="midnightblue" stroke="midnightblue" points="1587.65,-50.5001 1577.65,-54 1587.65,-57.5001 1587.65,-50.5001"/>
</g>
</g>
</svg>
