<?xml version="1.0" encoding="UTF-8" standalone="no"?>
<!DOCTYPE svg PUBLIC "-//W3C//DTD SVG 1.1//EN"
 "http://www.w3.org/Graphics/SVG/1.1/DTD/svg11.dtd">
<!-- Generated by graphviz version 2.36.0 (20140111.2315)
 -->
<!-- Title: cellsociety_team05.Main.start Pages: 1 -->
<svg width="1444pt" height="683pt"
 viewBox="0.00 0.00 1444.00 683.00" xmlns="http://www.w3.org/2000/svg" xmlns:xlink="http://www.w3.org/1999/xlink">
<g id="graph0" class="graph" transform="scale(1 1) rotate(0) translate(4 679)">
<title>cellsociety_team05.Main.start</title>
<polygon fill="white" stroke="none" points="-4,4 -4,-679 1440,-679 1440,4 -4,4"/>
<!-- Node1 -->
<g id="node1" class="node"><title>Node1</title>
<polygon fill="#bfbfbf" stroke="black" points="0,-491.5 0,-510.5 160,-510.5 160,-491.5 0,-491.5"/>
<text text-anchor="middle" x="80" y="-498.5" font-family="Helvetica,sans-Serif" font-size="10.00">cellsociety_team05.Main.start</text>
</g>
<!-- Node2 -->
<g id="node2" class="node"><title>Node2</title>
<g id="a_node2"><a xlink:href="../../d6/da5/classcellsociety__team05_1_1_master.html#ac10570db09b5b348c023bbd5e1df801b" target="_top" xlink:title="cellsociety_team05.Master.init">
<polygon fill="white" stroke="black" points="196.5,-491.5 196.5,-510.5 357.5,-510.5 357.5,-491.5 196.5,-491.5"/>
<text text-anchor="middle" x="277" y="-498.5" font-family="Helvetica,sans-Serif" font-size="10.00">cellsociety_team05.Master.init</text>
</a>
</g>
</g>
<!-- Node1&#45;&gt;Node2 -->
<g id="edge1" class="edge"><title>Node1&#45;&gt;Node2</title>
<path fill="none" stroke="midnightblue" d="M160.033,-501C168.607,-501 177.38,-501 186.071,-501"/>
<polygon fill="midnightblue" stroke="midnightblue" points="186.221,-504.5 196.221,-501 186.221,-497.5 186.221,-504.5"/>
</g>
<!-- Node3 -->
<g id="node3" class="node"><title>Node3</title>
<g id="a_node3"><a xlink:href="../../df/dd6/classcellsociety__team05_1_1_initializer.html#a27fd92c138189041dcd519cff632d61e" target="_top" xlink:title="cellsociety_team05.Initializer.readXML">
<polygon fill="white" stroke="black" points="394.5,-655.5 394.5,-674.5 591.5,-674.5 591.5,-655.5 394.5,-655.5"/>
<text text-anchor="middle" x="493" y="-662.5" font-family="Helvetica,sans-Serif" font-size="10.00">cellsociety_team05.Initializer.readXML</text>
</a>
</g>
</g>
<!-- Node2&#45;&gt;Node3 -->
<g id="edge2" class="edge"><title>Node2&#45;&gt;Node3</title>
<path fill="none" stroke="midnightblue" d="M283.036,-510.612C296.958,-536.188 338.625,-606.319 394,-641 401.389,-645.627 409.608,-649.363 418.057,-652.378"/>
<polygon fill="midnightblue" stroke="midnightblue" points="417.069,-655.736 427.66,-655.485 419.223,-649.076 417.069,-655.736"/>
</g>
<!-- Node4 -->
<g id="node4" class="node"><title>Node4</title>
<g id="a_node4"><a xlink:href="../../df/dd6/classcellsociety__team05_1_1_initializer.html#abb7d4a529b0f347ca21442045dd4e3f3" target="_top" xlink:title="cellsociety_team05.Initializer.setup">
<polygon fill="white" stroke="black" points="401.5,-579.5 401.5,-598.5 584.5,-598.5 584.5,-579.5 401.5,-579.5"/>
<text text-anchor="middle" x="493" y="-586.5" font-family="Helvetica,sans-Serif" font-size="10.00">cellsociety_team05.Initializer.setup</text>
</a>
</g>
</g>
<!-- Node2&#45;&gt;Node4 -->
<g id="edge3" class="edge"><title>Node2&#45;&gt;Node4</title>
<path fill="none" stroke="midnightblue" d="M291.186,-510.707C311.972,-525.538 354.106,-553.721 394,-569 402.188,-572.136 410.959,-574.813 419.765,-577.09"/>
<polygon fill="midnightblue" stroke="midnightblue" points="419.148,-580.542 429.691,-579.495 420.796,-573.739 419.148,-580.542"/>
</g>
<!-- Node5 -->
<g id="node5" class="node"><title>Node5</title>
<g id="a_node5"><a xlink:href="../../d9/d7b/classsimulations_1_1_sim.html#a252032535fe50e2eeabefc83cff438b3" target="_top" xlink:title="simulations.Sim.initMap">
<polygon fill="white" stroke="black" points="645.5,-617.5 645.5,-636.5 776.5,-636.5 776.5,-617.5 645.5,-617.5"/>
<text text-anchor="middle" x="711" y="-624.5" font-family="Helvetica,sans-Serif" font-size="10.00">simulations.Sim.initMap</text>
</a>
</g>
</g>
<!-- Node2&#45;&gt;Node5 -->
<g id="edge11" class="edge"><title>Node2&#45;&gt;Node5</title>
<path fill="none" stroke="midnightblue" d="M284.746,-510.707C300.718,-532.767 343.332,-586.425 394,-608 471.278,-640.906 568.905,-641.295 635.045,-636.264"/>
<polygon fill="midnightblue" stroke="midnightblue" points="635.702,-639.722 645.382,-635.414 635.129,-632.745 635.702,-639.722"/>
</g>
<!-- Node11 -->
<g id="node11" class="node"><title>Node11</title>
<g id="a_node11"><a xlink:href="../../d5/d80/classerror_1_1_x_m_l_not_found_exception.html#abf33f412c1b987517e43b10021909e5f" target="_top" xlink:title="error.XMLNotFoundException.return\lDefaultSim">
<polygon fill="white" stroke="black" points="399.5,-530 399.5,-560 586.5,-560 586.5,-530 399.5,-530"/>
<text text-anchor="start" x="407.5" y="-548" font-family="Helvetica,sans-Serif" font-size="10.00">error.XMLNotFoundException.return</text>
<text text-anchor="middle" x="493" y="-537" font-family="Helvetica,sans-Serif" font-size="10.00">DefaultSim</text>
</a>
</g>
</g>
<!-- Node2&#45;&gt;Node11 -->
<g id="edge10" class="edge"><title>Node2&#45;&gt;Node11</title>
<path fill="none" stroke="midnightblue" d="M324.435,-510.547C349.067,-515.612 380.083,-521.989 408.714,-527.876"/>
<polygon fill="midnightblue" stroke="midnightblue" points="408.228,-531.349 418.728,-529.935 409.637,-524.492 408.228,-531.349"/>
</g>
<!-- Node12 -->
<g id="node12" class="node"><title>Node12</title>
<g id="a_node12"><a xlink:href="../../d9/d7b/classsimulations_1_1_sim.html#af34d99b6d024da2704ee799bb0e94e48" target="_top" xlink:title="simulations.Sim.getData">
<polygon fill="white" stroke="black" points="425.5,-491.5 425.5,-510.5 560.5,-510.5 560.5,-491.5 425.5,-491.5"/>
<text text-anchor="middle" x="493" y="-498.5" font-family="Helvetica,sans-Serif" font-size="10.00">simulations.Sim.getData</text>
</a>
</g>
</g>
<!-- Node2&#45;&gt;Node12 -->
<g id="edge12" class="edge"><title>Node2&#45;&gt;Node12</title>
<path fill="none" stroke="midnightblue" d="M357.686,-501C376.436,-501 396.385,-501 415.013,-501"/>
<polygon fill="midnightblue" stroke="midnightblue" points="415.211,-504.5 425.211,-501 415.21,-497.5 415.211,-504.5"/>
</g>
<!-- Node15 -->
<g id="node15" class="node"><title>Node15</title>
<g id="a_node15"><a xlink:href="../../dc/d26/classutility_1_1_sim_data.html#acc4d2abaf2a354b4838b175eaa0e1514" target="_top" xlink:title="utility.SimData.simFPS">
<polygon fill="white" stroke="black" points="431,-453.5 431,-472.5 555,-472.5 555,-453.5 431,-453.5"/>
<text text-anchor="middle" x="493" y="-460.5" font-family="Helvetica,sans-Serif" font-size="10.00">utility.SimData.simFPS</text>
</a>
</g>
</g>
<!-- Node2&#45;&gt;Node15 -->
<g id="edge15" class="edge"><title>Node2&#45;&gt;Node15</title>
<path fill="none" stroke="midnightblue" d="M331.725,-491.46C360.98,-486.265 397.369,-479.804 428.076,-474.351"/>
<polygon fill="midnightblue" stroke="midnightblue" points="429.019,-477.738 438.253,-472.544 427.795,-470.846 429.019,-477.738"/>
</g>
<!-- Node16 -->
<g id="node16" class="node"><title>Node16</title>
<g id="a_node16"><a xlink:href="../../d9/dd0/classcellsociety__team05_1_1_scene_updater.html#a797cf5fc8c06caca14a6415e348ee2d0" target="_top" xlink:title="cellsociety_team05.Scene\lUpdater.newScene">
<polygon fill="white" stroke="black" points="422,-341 422,-371 564,-371 564,-341 422,-341"/>
<text text-anchor="start" x="430" y="-359" font-family="Helvetica,sans-Serif" font-size="10.00">cellsociety_team05.Scene</text>
<text text-anchor="middle" x="493" y="-348" font-family="Helvetica,sans-Serif" font-size="10.00">Updater.newScene</text>
</a>
</g>
</g>
<!-- Node2&#45;&gt;Node16 -->
<g id="edge16" class="edge"><title>Node2&#45;&gt;Node16</title>
<path fill="none" stroke="midnightblue" d="M292.041,-491.486C326.181,-468.354 414.18,-408.729 461.239,-376.842"/>
<polygon fill="midnightblue" stroke="midnightblue" points="463.213,-379.733 469.528,-371.226 459.286,-373.938 463.213,-379.733"/>
</g>
<!-- Node28 -->
<g id="node28" class="node"><title>Node28</title>
<g id="a_node28"><a xlink:href="../../d9/d7b/classsimulations_1_1_sim.html#a8c026c1b2a11b896470c72c4dc123b5e" target="_top" xlink:title="simulations.Sim.getParameters">
<polygon fill="white" stroke="black" points="409.5,-302.5 409.5,-321.5 576.5,-321.5 576.5,-302.5 409.5,-302.5"/>
<text text-anchor="middle" x="493" y="-309.5" font-family="Helvetica,sans-Serif" font-size="10.00">simulations.Sim.getParameters</text>
</a>
</g>
</g>
<!-- Node2&#45;&gt;Node28 -->
<g id="edge28" class="edge"><title>Node2&#45;&gt;Node28</title>
<path fill="none" stroke="midnightblue" d="M281.529,-491.433C292.831,-462.226 331.113,-373.678 394,-332 397.766,-329.504 401.778,-327.309 405.948,-325.38"/>
<polygon fill="midnightblue" stroke="midnightblue" points="407.358,-328.585 415.294,-321.566 404.713,-322.104 407.358,-328.585"/>
</g>
<!-- Node29 -->
<g id="node29" class="node"><title>Node29</title>
<g id="a_node29"><a xlink:href="../../d6/da5/classcellsociety__team05_1_1_master.html#ac07c303c9783fa437ccf0c702effcffd" target="_top" xlink:title="cellsociety_team05.Master.play">
<polygon fill="white" stroke="black" points="409.5,-188.5 409.5,-207.5 576.5,-207.5 576.5,-188.5 409.5,-188.5"/>
<text text-anchor="middle" x="493" y="-195.5" font-family="Helvetica,sans-Serif" font-size="10.00">cellsociety_team05.Master.play</text>
</a>
</g>
</g>
<!-- Node2&#45;&gt;Node29 -->
<g id="edge29" class="edge"><title>Node2&#45;&gt;Node29</title>
<path fill="none" stroke="midnightblue" d="M282.179,-491.279C295.677,-460.459 340.363,-362.852 394,-293 417.592,-262.276 451.016,-232.052 472.095,-214.218"/>
<polygon fill="midnightblue" stroke="midnightblue" points="474.61,-216.677 480.046,-207.583 470.126,-211.303 474.61,-216.677"/>
</g>
<!-- Node4&#45;&gt;Node5 -->
<g id="edge4" class="edge"><title>Node4&#45;&gt;Node5</title>
<path fill="none" stroke="midnightblue" d="M548.227,-598.54C577.884,-603.757 614.804,-610.253 645.882,-615.72"/>
<polygon fill="midnightblue" stroke="midnightblue" points="645.295,-619.17 655.751,-617.456 646.508,-612.276 645.295,-619.17"/>
</g>
<!-- Node10 -->
<g id="node10" class="node"><title>Node10</title>
<g id="a_node10"><a xlink:href="../../d3/dcc/classutility_1_1_reader.html#a69e7980c5726194ebc4f42f6baf66ca1" target="_top" xlink:title="utility.Reader.returnSim">
<polygon fill="white" stroke="black" points="647.5,-579.5 647.5,-598.5 774.5,-598.5 774.5,-579.5 647.5,-579.5"/>
<text text-anchor="middle" x="711" y="-586.5" font-family="Helvetica,sans-Serif" font-size="10.00">utility.Reader.returnSim</text>
</a>
</g>
</g>
<!-- Node4&#45;&gt;Node10 -->
<g id="edge9" class="edge"><title>Node4&#45;&gt;Node10</title>
<path fill="none" stroke="midnightblue" d="M584.665,-589C602.161,-589 620.28,-589 637.121,-589"/>
<polygon fill="midnightblue" stroke="midnightblue" points="637.425,-592.5 647.425,-589 637.425,-585.5 637.425,-592.5"/>
</g>
<!-- Node6 -->
<g id="node6" class="node"><title>Node6</title>
<g id="a_node6"><a xlink:href="../../d9/d7b/classsimulations_1_1_sim.html#a8053def01cba47bd9c66e26745495087" target="_top" xlink:title="simulations.Sim.populate">
<polygon fill="white" stroke="black" points="850,-617.5 850,-636.5 988,-636.5 988,-617.5 850,-617.5"/>
<text text-anchor="middle" x="919" y="-624.5" font-family="Helvetica,sans-Serif" font-size="10.00">simulations.Sim.populate</text>
</a>
</g>
</g>
<!-- Node5&#45;&gt;Node6 -->
<g id="edge5" class="edge"><title>Node5&#45;&gt;Node6</title>
<path fill="none" stroke="midnightblue" d="M776.614,-627C796.591,-627 818.814,-627 839.616,-627"/>
<polygon fill="midnightblue" stroke="midnightblue" points="839.697,-630.5 849.697,-627 839.697,-623.5 839.697,-630.5"/>
</g>
<!-- Node7 -->
<g id="node7" class="node"><title>Node7</title>
<g id="a_node7"><a xlink:href="../../d9/d7b/classsimulations_1_1_sim.html#adbed7e9c387ef5889ce9cf6c7c302ef3" target="_top" xlink:title="simulations.Sim.fillCell">
<polygon fill="white" stroke="black" points="1066.5,-617.5 1066.5,-636.5 1189.5,-636.5 1189.5,-617.5 1066.5,-617.5"/>
<text text-anchor="middle" x="1128" y="-624.5" font-family="Helvetica,sans-Serif" font-size="10.00">simulations.Sim.fillCell</text>
</a>
</g>
</g>
<!-- Node6&#45;&gt;Node7 -->
<g id="edge6" class="edge"><title>Node6&#45;&gt;Node7</title>
<path fill="none" stroke="midnightblue" d="M988.066,-627C1009.84,-627 1033.98,-627 1055.96,-627"/>
<polygon fill="midnightblue" stroke="midnightblue" points="1056.22,-630.5 1066.22,-627 1056.22,-623.5 1056.22,-630.5"/>
</g>
<!-- Node8 -->
<g id="node8" class="node"><title>Node8</title>
<g id="a_node8"><a xlink:href="../../d9/d7b/classsimulations_1_1_sim.html#a16809fc8db2a3e21f8169a487aeff124" target="_top" xlink:title="simulations.Sim.checkCell">
<polygon fill="white" stroke="black" points="1271.5,-636.5 1271.5,-655.5 1412.5,-655.5 1412.5,-636.5 1271.5,-636.5"/>
<text text-anchor="middle" x="1342" y="-643.5" font-family="Helvetica,sans-Serif" font-size="10.00">simulations.Sim.checkCell</text>
</a>
</g>
</g>
<!-- Node7&#45;&gt;Node8 -->
<g id="edge7" class="edge"><title>Node7&#45;&gt;Node8</title>
<path fill="none" stroke="midnightblue" d="M1189.75,-632.445C1212.02,-634.44 1237.57,-636.73 1261.25,-638.853"/>
<polygon fill="midnightblue" stroke="midnightblue" points="1261,-642.344 1271.27,-639.751 1261.62,-635.372 1261,-642.344"/>
</g>
<!-- Node9 -->
<g id="node9" class="node"><title>Node9</title>
<g id="a_node9"><a xlink:href="../../d9/d7b/classsimulations_1_1_sim.html#a4da2ab43816b7e030ba62c1a10c82cf6" target="_top" xlink:title="simulations.Sim.setCell">
<polygon fill="white" stroke="black" points="1278,-598.5 1278,-617.5 1406,-617.5 1406,-598.5 1278,-598.5"/>
<text text-anchor="middle" x="1342" y="-605.5" font-family="Helvetica,sans-Serif" font-size="10.00">simulations.Sim.setCell</text>
</a>
</g>
</g>
<!-- Node7&#45;&gt;Node9 -->
<g id="edge8" class="edge"><title>Node7&#45;&gt;Node9</title>
<path fill="none" stroke="midnightblue" d="M1189.75,-621.555C1214.05,-619.377 1242.26,-616.849 1267.69,-614.57"/>
<polygon fill="midnightblue" stroke="midnightblue" points="1268.01,-618.056 1277.66,-613.677 1267.38,-611.084 1268.01,-618.056"/>
</g>
<!-- Node13 -->
<g id="node13" class="node"><title>Node13</title>
<g id="a_node13"><a xlink:href="../../dc/d96/classutility_1_1_map_copier.html#a3308fa4bb52f888a9059da1c1d8380c0" target="_top" xlink:title="utility.MapCopier.copyOf\lArray">
<polygon fill="white" stroke="black" points="646,-530 646,-560 776,-560 776,-530 646,-530"/>
<text text-anchor="start" x="654" y="-548" font-family="Helvetica,sans-Serif" font-size="10.00">utility.MapCopier.copyOf</text>
<text text-anchor="middle" x="711" y="-537" font-family="Helvetica,sans-Serif" font-size="10.00">Array</text>
</a>
</g>
</g>
<!-- Node12&#45;&gt;Node13 -->
<g id="edge13" class="edge"><title>Node12&#45;&gt;Node13</title>
<path fill="none" stroke="midnightblue" d="M540.869,-510.547C568.523,-516.181 604.15,-523.438 635.569,-529.838"/>
<polygon fill="midnightblue" stroke="midnightblue" points="635.109,-533.316 645.607,-531.883 636.506,-526.457 635.109,-533.316"/>
</g>
<!-- Node14 -->
<g id="node14" class="node"><title>Node14</title>
<g id="a_node14"><a xlink:href="../../d9/d7b/classsimulations_1_1_sim.html#afc6df6fab0b427978dff42e7ef600759" target="_top" xlink:title="simulations.Sim.simTitle">
<polygon fill="white" stroke="black" points="644.5,-491.5 644.5,-510.5 777.5,-510.5 777.5,-491.5 644.5,-491.5"/>
<text text-anchor="middle" x="711" y="-498.5" font-family="Helvetica,sans-Serif" font-size="10.00">simulations.Sim.simTitle</text>
</a>
</g>
</g>
<!-- Node12&#45;&gt;Node14 -->
<g id="edge14" class="edge"><title>Node12&#45;&gt;Node14</title>
<path fill="none" stroke="midnightblue" d="M560.57,-501C583.889,-501 610.246,-501 634.26,-501"/>
<polygon fill="midnightblue" stroke="midnightblue" points="634.392,-504.5 644.392,-501 634.392,-497.5 634.392,-504.5"/>
</g>
<!-- Node17 -->
<g id="node17" class="node"><title>Node17</title>
<g id="a_node17"><a xlink:href="../../d1/d85/classutility_1_1_color_picker.html#a2bbe92796cec2866c8aac7f7576dbb34" target="_top" xlink:title="utility.ColorPicker.setColors">
<polygon fill="white" stroke="black" points="639,-453.5 639,-472.5 783,-472.5 783,-453.5 639,-453.5"/>
<text text-anchor="middle" x="711" y="-460.5" font-family="Helvetica,sans-Serif" font-size="10.00">utility.ColorPicker.setColors</text>
</a>
</g>
</g>
<!-- Node16&#45;&gt;Node17 -->
<g id="edge17" class="edge"><title>Node16&#45;&gt;Node17</title>
<path fill="none" stroke="midnightblue" d="M512.308,-371.099C537.046,-390.751 583.222,-424.836 628,-444 633.819,-446.49 640.016,-448.682 646.297,-450.604"/>
<polygon fill="midnightblue" stroke="midnightblue" points="645.618,-454.05 656.193,-453.408 647.526,-447.315 645.618,-454.05"/>
</g>
<!-- Node18 -->
<g id="node18" class="node"><title>Node18</title>
<g id="a_node18"><a xlink:href="../../df/d60/classutility_1_1_grid_filler.html#a30e2905099098e9d06cb1d22339af1c7" target="_top" xlink:title="utility.GridFiller.fill">
<polygon fill="white" stroke="black" points="663,-415.5 663,-434.5 759,-434.5 759,-415.5 663,-415.5"/>
<text text-anchor="middle" x="711" y="-422.5" font-family="Helvetica,sans-Serif" font-size="10.00">utility.GridFiller.fill</text>
</a>
</g>
</g>
<!-- Node16&#45;&gt;Node18 -->
<g id="edge18" class="edge"><title>Node16&#45;&gt;Node18</title>
<path fill="none" stroke="midnightblue" d="M531.74,-371.079C558.381,-381.407 595.055,-394.993 628,-405 637.261,-407.813 647.203,-410.506 656.857,-412.954"/>
<polygon fill="midnightblue" stroke="midnightblue" points="656.224,-416.403 666.772,-415.41 657.908,-409.608 656.224,-416.403"/>
</g>
<!-- Node20 -->
<g id="node20" class="node"><title>Node20</title>
<g id="a_node20"><a xlink:href="../../d9/dd0/classcellsociety__team05_1_1_scene_updater.html#a545cdd62a8b34d5d85411323a3395bf7" target="_top" xlink:title="cellsociety_team05.Scene\lUpdater.returnGUI">
<polygon fill="white" stroke="black" points="640,-366 640,-396 782,-396 782,-366 640,-366"/>
<text text-anchor="start" x="648" y="-384" font-family="Helvetica,sans-Serif" font-size="10.00">cellsociety_team05.Scene</text>
<text text-anchor="middle" x="711" y="-373" font-family="Helvetica,sans-Serif" font-size="10.00">Updater.returnGUI</text>
</a>
</g>
</g>
<!-- Node16&#45;&gt;Node20 -->
<g id="edge20" class="edge"><title>Node16&#45;&gt;Node20</title>
<path fill="none" stroke="midnightblue" d="M564.129,-364.117C585.079,-366.542 608.205,-369.218 629.751,-371.712"/>
<polygon fill="midnightblue" stroke="midnightblue" points="629.517,-375.208 639.854,-372.881 630.322,-368.255 629.517,-375.208"/>
</g>
<!-- Node21 -->
<g id="node21" class="node"><title>Node21</title>
<g id="a_node21"><a xlink:href="../../d2/d60/classanimation_1_1_g_u_i_creator.html#a02433f642bdae8ac5c8f6485f71c0c2b" target="_top" xlink:title="animation.GUICreator.param\lLabels">
<polygon fill="white" stroke="black" points="633.5,-317 633.5,-347 788.5,-347 788.5,-317 633.5,-317"/>
<text text-anchor="start" x="641.5" y="-335" font-family="Helvetica,sans-Serif" font-size="10.00">animation.GUICreator.param</text>
<text text-anchor="middle" x="711" y="-324" font-family="Helvetica,sans-Serif" font-size="10.00">Labels</text>
</a>
</g>
</g>
<!-- Node16&#45;&gt;Node21 -->
<g id="edge21" class="edge"><title>Node16&#45;&gt;Node21</title>
<path fill="none" stroke="midnightblue" d="M564.129,-348.208C582.906,-346.122 603.432,-343.841 623.001,-341.667"/>
<polygon fill="midnightblue" stroke="midnightblue" points="623.58,-345.124 633.132,-340.541 622.807,-338.167 623.58,-345.124"/>
</g>
<!-- Node22 -->
<g id="node22" class="node"><title>Node22</title>
<g id="a_node22"><a xlink:href="../../da/d16/classanimation_1_1_animated_graph.html#a5044ded5b535e0e440c6d1d5ce4585c8" target="_top" xlink:title="animation.AnimatedGraph.init">
<polygon fill="white" stroke="black" points="630.5,-278.5 630.5,-297.5 791.5,-297.5 791.5,-278.5 630.5,-278.5"/>
<text text-anchor="middle" x="711" y="-285.5" font-family="Helvetica,sans-Serif" font-size="10.00">animation.AnimatedGraph.init</text>
</a>
</g>
</g>
<!-- Node16&#45;&gt;Node22 -->
<g id="edge22" class="edge"><title>Node16&#45;&gt;Node22</title>
<path fill="none" stroke="midnightblue" d="M564.248,-340.993C573.737,-338.126 583.22,-334.807 592,-331 609.42,-323.447 610.541,-315.462 628,-308 634.763,-305.11 642.025,-302.584 649.332,-300.391"/>
<polygon fill="midnightblue" stroke="midnightblue" points="650.595,-303.672 659.28,-297.604 648.706,-296.932 650.595,-303.672"/>
</g>
<!-- Node24 -->
<g id="node24" class="node"><title>Node24</title>
<g id="a_node24"><a xlink:href="../../d2/d60/classanimation_1_1_g_u_i_creator.html#a9e1146fc27571ad138c4718cd237494b" target="_top" xlink:title="animation.GUICreator.add\lButtonGrid">
<polygon fill="white" stroke="black" points="640.5,-229 640.5,-259 781.5,-259 781.5,-229 640.5,-229"/>
<text text-anchor="start" x="648.5" y="-247" font-family="Helvetica,sans-Serif" font-size="10.00">animation.GUICreator.add</text>
<text text-anchor="middle" x="711" y="-236" font-family="Helvetica,sans-Serif" font-size="10.00">ButtonGrid</text>
</a>
</g>
</g>
<!-- Node16&#45;&gt;Node24 -->
<g id="edge24" class="edge"><title>Node16&#45;&gt;Node24</title>
<path fill="none" stroke="midnightblue" d="M564.101,-345.469C574.075,-341.942 583.736,-337.247 592,-331 617.419,-311.786 603.031,-288.795 628,-269 630.296,-267.18 632.724,-265.492 635.25,-263.926"/>
<polygon fill="midnightblue" stroke="midnightblue" points="637.064,-266.923 644.166,-259.061 633.711,-260.778 637.064,-266.923"/>
</g>
<!-- Node25 -->
<g id="node25" class="node"><title>Node25</title>
<g id="a_node25"><a xlink:href="../../d2/d60/classanimation_1_1_g_u_i_creator.html#a66bb402660c9929c3b89d9625728ef1e" target="_top" xlink:title="animation.GUICreator.fps\lSlider">
<polygon fill="white" stroke="black" points="642.5,-180 642.5,-210 779.5,-210 779.5,-180 642.5,-180"/>
<text text-anchor="start" x="650.5" y="-198" font-family="Helvetica,sans-Serif" font-size="10.00">animation.GUICreator.fps</text>
<text text-anchor="middle" x="711" y="-187" font-family="Helvetica,sans-Serif" font-size="10.00">Slider</text>
</a>
</g>
</g>
<!-- Node16&#45;&gt;Node25 -->
<g id="edge25" class="edge"><title>Node16&#45;&gt;Node25</title>
<path fill="none" stroke="midnightblue" d="M564.128,-347.447C574.392,-343.685 584.134,-338.399 592,-331 630.086,-295.177 590.546,-255.483 628,-219 629.859,-217.189 631.848,-215.513 633.939,-213.963"/>
<polygon fill="midnightblue" stroke="midnightblue" points="635.871,-216.882 642.458,-208.583 632.134,-210.963 635.871,-216.882"/>
</g>
<!-- Node27 -->
<g id="node27" class="node"><title>Node27</title>
<g id="a_node27"><a xlink:href="../../d2/d60/classanimation_1_1_g_u_i_creator.html#aad6a5704677eac1c4eb00bb8fb6ee42e" target="_top" xlink:title="animation.GUICreator.param\lSliders">
<polygon fill="white" stroke="black" points="633.5,-131 633.5,-161 788.5,-161 788.5,-131 633.5,-131"/>
<text text-anchor="start" x="641.5" y="-149" font-family="Helvetica,sans-Serif" font-size="10.00">animation.GUICreator.param</text>
<text text-anchor="middle" x="711" y="-138" font-family="Helvetica,sans-Serif" font-size="10.00">Sliders</text>
</a>
</g>
</g>
<!-- Node16&#45;&gt;Node27 -->
<g id="edge27" class="edge"><title>Node16&#45;&gt;Node27</title>
<path fill="none" stroke="midnightblue" d="M564.477,-348.147C574.76,-344.306 584.418,-338.812 592,-331 643.069,-278.387 577.858,-223.498 628,-170 628.913,-169.026 629.863,-168.091 630.847,-167.193"/>
<polygon fill="midnightblue" stroke="midnightblue" points="633.134,-169.851 638.979,-161.014 628.899,-164.277 633.134,-169.851"/>
</g>
<!-- Node19 -->
<g id="node19" class="node"><title>Node19</title>
<g id="a_node19"><a xlink:href="../../d6/dff/classutility_1_1_cell_gen.html#a3a8e739f206100620d83c9a293902584" target="_top" xlink:title="utility.CellGen.makeShape">
<polygon fill="white" stroke="black" points="848.5,-415.5 848.5,-434.5 989.5,-434.5 989.5,-415.5 848.5,-415.5"/>
<text text-anchor="middle" x="919" y="-422.5" font-family="Helvetica,sans-Serif" font-size="10.00">utility.CellGen.makeShape</text>
</a>
</g>
</g>
<!-- Node18&#45;&gt;Node19 -->
<g id="edge19" class="edge"><title>Node18&#45;&gt;Node19</title>
<path fill="none" stroke="midnightblue" d="M759.002,-425C782.378,-425 811.282,-425 838.008,-425"/>
<polygon fill="midnightblue" stroke="midnightblue" points="838.129,-428.5 848.129,-425 838.129,-421.5 838.129,-428.5"/>
</g>
<!-- Node23 -->
<g id="node23" class="node"><title>Node23</title>
<g id="a_node23"><a xlink:href="../../da/d16/classanimation_1_1_animated_graph.html#a150d323ef1d77399b14739d2fa245021" target="_top" xlink:title="animation.AnimatedGraph.create\lAddSeries">
<polygon fill="white" stroke="black" points="830.5,-273 830.5,-303 1007.5,-303 1007.5,-273 830.5,-273"/>
<text text-anchor="start" x="838.5" y="-291" font-family="Helvetica,sans-Serif" font-size="10.00">animation.AnimatedGraph.create</text>
<text text-anchor="middle" x="919" y="-280" font-family="Helvetica,sans-Serif" font-size="10.00">AddSeries</text>
</a>
</g>
</g>
<!-- Node22&#45;&gt;Node23 -->
<g id="edge23" class="edge"><title>Node22&#45;&gt;Node23</title>
<path fill="none" stroke="midnightblue" d="M791.645,-288C800.957,-288 810.538,-288 820.062,-288"/>
<polygon fill="midnightblue" stroke="midnightblue" points="820.357,-291.5 830.357,-288 820.357,-284.5 820.357,-291.5"/>
</g>
<!-- Node26 -->
<g id="node26" class="node"><title>Node26</title>
<g id="a_node26"><a xlink:href="../../d2/d60/classanimation_1_1_g_u_i_creator.html#a5bc0f0e5c1557be5cc7c752ea2d8fc8c" target="_top" xlink:title="animation.GUICreator.make\lSlider">
<polygon fill="white" stroke="black" points="844,-180 844,-210 994,-210 994,-180 844,-180"/>
<text text-anchor="start" x="852" y="-198" font-family="Helvetica,sans-Serif" font-size="10.00">animation.GUICreator.make</text>
<text text-anchor="middle" x="919" y="-187" font-family="Helvetica,sans-Serif" font-size="10.00">Slider</text>
</a>
</g>
</g>
<!-- Node25&#45;&gt;Node26 -->
<g id="edge26" class="edge"><title>Node25&#45;&gt;Node26</title>
<path fill="none" stroke="midnightblue" d="M779.737,-195C796.973,-195 815.706,-195 833.657,-195"/>
<polygon fill="midnightblue" stroke="midnightblue" points="833.825,-198.5 843.825,-195 833.825,-191.5 833.825,-198.5"/>
</g>
<!-- Node30 -->
<g id="node30" class="node"><title>Node30</title>
<g id="a_node30"><a xlink:href="../../d6/da5/classcellsociety__team05_1_1_master.html#a9e0818f6e4d1389a401b337b2c5c9f81" target="_top" xlink:title="cellsociety_team05.Master.add\lKeyFrame">
<polygon fill="white" stroke="black" points="628.5,-82 628.5,-112 793.5,-112 793.5,-82 628.5,-82"/>
<text text-anchor="start" x="636.5" y="-100" font-family="Helvetica,sans-Serif" font-size="10.00">cellsociety_team05.Master.add</text>
<text text-anchor="middle" x="711" y="-89" font-family="Helvetica,sans-Serif" font-size="10.00">KeyFrame</text>
</a>
</g>
</g>
<!-- Node29&#45;&gt;Node30 -->
<g id="edge30" class="edge"><title>Node29&#45;&gt;Node30</title>
<path fill="none" stroke="midnightblue" d="M508.281,-188.269C532.158,-172.355 582.095,-140.579 628,-121 632.656,-119.014 637.528,-117.131 642.475,-115.359"/>
<polygon fill="midnightblue" stroke="midnightblue" points="643.714,-118.635 652.045,-112.09 641.451,-112.011 643.714,-118.635"/>
</g>
<!-- Node31 -->
<g id="node31" class="node"><title>Node31</title>
<g id="a_node31"><a xlink:href="../../d6/da5/classcellsociety__team05_1_1_master.html#aef1f14e30284edb3e1f8c0c5636de390" target="_top" xlink:title="cellsociety_team05.Master.evolve">
<polygon fill="white" stroke="black" points="830,-87.5 830,-106.5 1008,-106.5 1008,-87.5 830,-87.5"/>
<text text-anchor="middle" x="919" y="-94.5" font-family="Helvetica,sans-Serif" font-size="10.00">cellsociety_team05.Master.evolve</text>
</a>
</g>
</g>
<!-- Node30&#45;&gt;Node31 -->
<g id="edge31" class="edge"><title>Node30&#45;&gt;Node31</title>
<path fill="none" stroke="midnightblue" d="M793.713,-97C802.271,-97 811.034,-97 819.752,-97"/>
<polygon fill="midnightblue" stroke="midnightblue" points="819.95,-100.5 829.95,-97 819.95,-93.5001 819.95,-100.5"/>
</g>
<!-- Node32 -->
<g id="node32" class="node"><title>Node32</title>
<g id="a_node32"><a xlink:href="../../d9/d7b/classsimulations_1_1_sim.html#a864a4b1e5ab91624cd70ed9fbdc855ac" target="_top" xlink:title="simulations.Sim.nextGen">
<polygon fill="white" stroke="black" points="1059.5,-175.5 1059.5,-194.5 1196.5,-194.5 1196.5,-175.5 1059.5,-175.5"/>
<text text-anchor="middle" x="1128" y="-182.5" font-family="Helvetica,sans-Serif" font-size="10.00">simulations.Sim.nextGen</text>
</a>
</g>
</g>
<!-- Node31&#45;&gt;Node32 -->
<g id="edge32" class="edge"><title>Node31&#45;&gt;Node32</title>
<path fill="none" stroke="midnightblue" d="M934.646,-106.72C957.232,-121.312 1002.32,-148.882 1044,-165 1051.75,-167.997 1060.09,-170.641 1068.38,-172.942"/>
<polygon fill="midnightblue" stroke="midnightblue" points="1067.5,-176.329 1078.06,-175.487 1069.28,-169.559 1067.5,-176.329"/>
</g>
<!-- Node33 -->
<g id="node33" class="node"><title>Node33</title>
<g id="a_node33"><a xlink:href="../../d9/dd0/classcellsociety__team05_1_1_scene_updater.html#a426e94fe0be8484ef5796171e64f8a3a" target="_top" xlink:title="cellsociety_team05.Scene\lUpdater.updateGraph">
<polygon fill="white" stroke="black" points="1057,-126 1057,-156 1199,-156 1199,-126 1057,-126"/>
<text text-anchor="start" x="1065" y="-144" font-family="Helvetica,sans-Serif" font-size="10.00">cellsociety_team05.Scene</text>
<text text-anchor="middle" x="1128" y="-133" font-family="Helvetica,sans-Serif" font-size="10.00">Updater.updateGraph</text>
</a>
</g>
</g>
<!-- Node31&#45;&gt;Node33 -->
<g id="edge33" class="edge"><title>Node31&#45;&gt;Node33</title>
<path fill="none" stroke="midnightblue" d="M964.916,-106.547C988.85,-111.635 1019.02,-118.047 1046.81,-123.956"/>
<polygon fill="midnightblue" stroke="midnightblue" points="1046.42,-127.451 1056.93,-126.106 1047.88,-120.604 1046.42,-127.451"/>
</g>
<!-- Node35 -->
<g id="node35" class="node"><title>Node35</title>
<g id="a_node35"><a xlink:href="../../d9/d7b/classsimulations_1_1_sim.html#ae840fd3e0813718f05bee889fb097fcc" target="_top" xlink:title="simulations.Sim.cellProportions">
<polygon fill="white" stroke="black" points="1044.5,-87.5 1044.5,-106.5 1211.5,-106.5 1211.5,-87.5 1044.5,-87.5"/>
<text text-anchor="middle" x="1128" y="-94.5" font-family="Helvetica,sans-Serif" font-size="10.00">simulations.Sim.cellProportions</text>
</a>
</g>
</g>
<!-- Node31&#45;&gt;Node35 -->
<g id="edge35" class="edge"><title>Node31&#45;&gt;Node35</title>
<path fill="none" stroke="midnightblue" d="M1008.09,-97C1016.71,-97 1025.47,-97 1034.14,-97"/>
<polygon fill="midnightblue" stroke="midnightblue" points="1034.25,-100.5 1044.25,-97 1034.25,-93.5001 1034.25,-100.5"/>
</g>
<!-- Node36 -->
<g id="node36" class="node"><title>Node36</title>
<g id="a_node36"><a xlink:href="../../d9/d7b/classsimulations_1_1_sim.html#aae4b6d35eccef9920616ce7a2fb86794" target="_top" xlink:title="simulations.Sim.setNewParams">
<polygon fill="white" stroke="black" points="1044.5,-49.5 1044.5,-68.5 1211.5,-68.5 1211.5,-49.5 1044.5,-49.5"/>
<text text-anchor="middle" x="1128" y="-56.5" font-family="Helvetica,sans-Serif" font-size="10.00">simulations.Sim.setNewParams</text>
</a>
</g>
</g>
<!-- Node31&#45;&gt;Node36 -->
<g id="edge36" class="edge"><title>Node31&#45;&gt;Node36</title>
<path fill="none" stroke="midnightblue" d="M971.968,-87.46C1000.27,-82.2652 1035.46,-75.8037 1065.17,-70.3511"/>
<polygon fill="midnightblue" stroke="midnightblue" points="1065.81,-73.792 1075.01,-68.5439 1064.54,-66.9071 1065.81,-73.792"/>
</g>
<!-- Node37 -->
<g id="node37" class="node"><title>Node37</title>
<g id="a_node37"><a xlink:href="../../d9/dd0/classcellsociety__team05_1_1_scene_updater.html#abc68af978ebd0da668f37510dd34aaf4" target="_top" xlink:title="cellsociety_team05.Scene\lUpdater.newParams">
<polygon fill="white" stroke="black" points="1057,-0 1057,-30 1199,-30 1199,-0 1057,-0"/>
<text text-anchor="start" x="1065" y="-18" font-family="Helvetica,sans-Serif" font-size="10.00">cellsociety_team05.Scene</text>
<text text-anchor="middle" x="1128" y="-7" font-family="Helvetica,sans-Serif" font-size="10.00">Updater.newParams</text>
</a>
</g>
</g>
<!-- Node31&#45;&gt;Node37 -->
<g id="edge37" class="edge"><title>Node31&#45;&gt;Node37</title>
<path fill="none" stroke="midnightblue" d="M938.562,-87.4844C962.512,-75.4366 1005.66,-54.5054 1044,-40 1050.24,-37.6384 1056.81,-35.3449 1063.41,-33.1666"/>
<polygon fill="midnightblue" stroke="midnightblue" points="1064.61,-36.4569 1073.06,-30.0633 1062.47,-29.7931 1064.61,-36.4569"/>
</g>
<!-- Node34 -->
<g id="node34" class="node"><title>Node34</title>
<g id="a_node34"><a xlink:href="../../da/d16/classanimation_1_1_animated_graph.html#a784a1784f9e1ad102bcc7e194da19c44" target="_top" xlink:title="animation.AnimatedGraph.addData">
<polygon fill="white" stroke="black" points="1248,-131.5 1248,-150.5 1436,-150.5 1436,-131.5 1248,-131.5"/>
<text text-anchor="middle" x="1342" y="-138.5" font-family="Helvetica,sans-Serif" font-size="10.00">animation.AnimatedGraph.addData</text>
</a>
</g>
</g>
<!-- Node33&#45;&gt;Node34 -->
<g id="edge34" class="edge"><title>Node33&#45;&gt;Node34</title>
<path fill="none" stroke="midnightblue" d="M1199,-141C1211.28,-141 1224.29,-141 1237.25,-141"/>
<polygon fill="midnightblue" stroke="midnightblue" points="1237.62,-144.5 1247.62,-141 1237.62,-137.5 1237.62,-144.5"/>
</g>
</g>
</svg>
