<?xml version="1.0" encoding="UTF-8" standalone="no"?>
<!DOCTYPE svg PUBLIC "-//W3C//DTD SVG 1.1//EN"
 "http://www.w3.org/Graphics/SVG/1.1/DTD/svg11.dtd">
<!-- Generated by graphviz version 2.36.0 (20140111.2315)
 -->
<!-- Title: simulations.SlimeMold.nextGen Pages: 1 -->
<svg width="594pt" height="224pt"
 viewBox="0.00 0.00 594.00 224.00" xmlns="http://www.w3.org/2000/svg" xmlns:xlink="http://www.w3.org/1999/xlink">
<g id="graph0" class="graph" transform="scale(1 1) rotate(0) translate(4 220)">
<title>simulations.SlimeMold.nextGen</title>
<polygon fill="white" stroke="none" points="-4,4 -4,-220 590,-220 590,4 -4,4"/>
<!-- Node1 -->
<g id="node1" class="node"><title>Node1</title>
<polygon fill="#bfbfbf" stroke="black" points="0.5,-103.5 0.5,-122.5 167.5,-122.5 167.5,-103.5 0.5,-103.5"/>
<text text-anchor="middle" x="84" y="-110.5" font-family="Helvetica,sans-Serif" font-size="10.00">simulations.SlimeMold.nextGen</text>
</g>
<!-- Node2 -->
<g id="node2" class="node"><title>Node2</title>
<g id="a_node2"><a xlink:href="../../dc/d96/classutility_1_1_map_copier.html#a3308fa4bb52f888a9059da1c1d8380c0" target="_top" xlink:title="utility.MapCopier.copyOf\lArray">
<polygon fill="white" stroke="black" points="223,-186 223,-216 353,-216 353,-186 223,-186"/>
<text text-anchor="start" x="231" y="-204" font-family="Helvetica,sans-Serif" font-size="10.00">utility.MapCopier.copyOf</text>
<text text-anchor="middle" x="288" y="-193" font-family="Helvetica,sans-Serif" font-size="10.00">Array</text>
</a>
</g>
</g>
<!-- Node1&#45;&gt;Node2 -->
<g id="edge1" class="edge"><title>Node1&#45;&gt;Node2</title>
<path fill="none" stroke="midnightblue" d="M100.69,-122.579C123.014,-135.908 165.51,-160.191 204,-176 209.755,-178.364 215.816,-180.616 221.935,-182.732"/>
<polygon fill="midnightblue" stroke="midnightblue" points="220.966,-186.098 231.56,-185.939 223.179,-179.457 220.966,-186.098"/>
</g>
<!-- Node3 -->
<g id="node3" class="node"><title>Node3</title>
<g id="a_node3"><a xlink:href="../../dc/d9d/classsimulations_1_1_slime_mold.html#ac19f83de61dd1236394f17350cc5298c" target="_top" xlink:title="simulations.SlimeMold.prepGrid">
<polygon fill="white" stroke="black" points="204,-147.5 204,-166.5 372,-166.5 372,-147.5 204,-147.5"/>
<text text-anchor="middle" x="288" y="-154.5" font-family="Helvetica,sans-Serif" font-size="10.00">simulations.SlimeMold.prepGrid</text>
</a>
</g>
</g>
<!-- Node1&#45;&gt;Node3 -->
<g id="edge2" class="edge"><title>Node1&#45;&gt;Node3</title>
<path fill="none" stroke="midnightblue" d="M128.831,-122.547C159.537,-129.236 200.754,-138.214 233.414,-145.328"/>
<polygon fill="midnightblue" stroke="midnightblue" points="232.739,-148.763 243.255,-147.471 234.229,-141.923 232.739,-148.763"/>
</g>
<!-- Node4 -->
<g id="node4" class="node"><title>Node4</title>
<g id="a_node4"><a xlink:href="../../dc/d9d/classsimulations_1_1_slime_mold.html#a37ab067823e2c73a71a382d0afc966bb" target="_top" xlink:title="simulations.SlimeMold.update\lCells">
<polygon fill="white" stroke="black" points="207.5,-98 207.5,-128 368.5,-128 368.5,-98 207.5,-98"/>
<text text-anchor="start" x="215.5" y="-116" font-family="Helvetica,sans-Serif" font-size="10.00">simulations.SlimeMold.update</text>
<text text-anchor="middle" x="288" y="-105" font-family="Helvetica,sans-Serif" font-size="10.00">Cells</text>
</a>
</g>
</g>
<!-- Node1&#45;&gt;Node4 -->
<g id="edge3" class="edge"><title>Node1&#45;&gt;Node4</title>
<path fill="none" stroke="midnightblue" d="M167.744,-113C177.448,-113 187.384,-113 197.179,-113"/>
<polygon fill="midnightblue" stroke="midnightblue" points="197.318,-116.5 207.318,-113 197.318,-109.5 197.318,-116.5"/>
</g>
<!-- Node6 -->
<g id="node6" class="node"><title>Node6</title>
<g id="a_node6"><a xlink:href="../../d9/dd0/classcellsociety__team05_1_1_scene_updater.html#a5b755feda214274401674bc34e08d9d2" target="_top" xlink:title="cellsociety_team05.Scene\lUpdater.updateScene">
<polygon fill="white" stroke="black" points="217,-49 217,-79 359,-79 359,-49 217,-49"/>
<text text-anchor="start" x="225" y="-67" font-family="Helvetica,sans-Serif" font-size="10.00">cellsociety_team05.Scene</text>
<text text-anchor="middle" x="288" y="-56" font-family="Helvetica,sans-Serif" font-size="10.00">Updater.updateScene</text>
</a>
</g>
</g>
<!-- Node1&#45;&gt;Node6 -->
<g id="edge5" class="edge"><title>Node1&#45;&gt;Node6</title>
<path fill="none" stroke="midnightblue" d="M124.427,-103.436C150.224,-97.1782 184.688,-88.8183 215.243,-81.4063"/>
<polygon fill="midnightblue" stroke="midnightblue" points="216.118,-84.7958 225.011,-79.037 214.468,-77.9931 216.118,-84.7958"/>
</g>
<!-- Node7 -->
<g id="node7" class="node"><title>Node7</title>
<g id="a_node7"><a xlink:href="../../dc/d9d/classsimulations_1_1_slime_mold.html#a2f7a6d5bbe322a3cdce404b7612ebfac" target="_top" xlink:title="simulations.SlimeMold.update\lTerrain">
<polygon fill="white" stroke="black" points="207.5,-0 207.5,-30 368.5,-30 368.5,-0 207.5,-0"/>
<text text-anchor="start" x="215.5" y="-18" font-family="Helvetica,sans-Serif" font-size="10.00">simulations.SlimeMold.update</text>
<text text-anchor="middle" x="288" y="-7" font-family="Helvetica,sans-Serif" font-size="10.00">Terrain</text>
</a>
</g>
</g>
<!-- Node1&#45;&gt;Node7 -->
<g id="edge6" class="edge"><title>Node1&#45;&gt;Node7</title>
<path fill="none" stroke="midnightblue" d="M98.2873,-103.254C119.633,-87.973 163.305,-58.2419 204,-40 209.278,-37.6339 214.843,-35.4147 220.489,-33.3517"/>
<polygon fill="midnightblue" stroke="midnightblue" points="221.738,-36.6229 230.03,-30.0288 219.436,-30.0123 221.738,-36.6229"/>
</g>
<!-- Node5 -->
<g id="node5" class="node"><title>Node5</title>
<g id="a_node5"><a xlink:href="../../dc/d9d/classsimulations_1_1_slime_mold.html#a34c8894c6dbeb06074456420e7eabfdf" target="_top" xlink:title="simulations.SlimeMold.whereNext">
<polygon fill="white" stroke="black" points="408,-103.5 408,-122.5 586,-122.5 586,-103.5 408,-103.5"/>
<text text-anchor="middle" x="497" y="-110.5" font-family="Helvetica,sans-Serif" font-size="10.00">simulations.SlimeMold.whereNext</text>
</a>
</g>
</g>
<!-- Node4&#45;&gt;Node5 -->
<g id="edge4" class="edge"><title>Node4&#45;&gt;Node5</title>
<path fill="none" stroke="midnightblue" d="M368.736,-113C378.203,-113 387.95,-113 397.638,-113"/>
<polygon fill="midnightblue" stroke="midnightblue" points="397.697,-116.5 407.697,-113 397.697,-109.5 397.697,-116.5"/>
</g>
</g>
</svg>
