<?xml version="1.0" encoding="UTF-8" standalone="no"?>
<!DOCTYPE svg PUBLIC "-//W3C//DTD SVG 1.1//EN"
 "http://www.w3.org/Graphics/SVG/1.1/DTD/svg11.dtd">
<!-- Generated by graphviz version 2.36.0 (20140111.2315)
 -->
<!-- Title: simulations.SlimeMold.whereNext Pages: 1 -->
<svg width="588pt" height="38pt"
 viewBox="0.00 0.00 588.00 38.00" xmlns="http://www.w3.org/2000/svg" xmlns:xlink="http://www.w3.org/1999/xlink">
<g id="graph0" class="graph" transform="scale(1 1) rotate(0) translate(4 34)">
<title>simulations.SlimeMold.whereNext</title>
<polygon fill="white" stroke="none" points="-4,4 -4,-34 584,-34 584,4 -4,4"/>
<!-- Node1 -->
<g id="node1" class="node"><title>Node1</title>
<polygon fill="#bfbfbf" stroke="black" points="0,-5.5 0,-24.5 178,-24.5 178,-5.5 0,-5.5"/>
<text text-anchor="middle" x="89" y="-12.5" font-family="Helvetica,sans-Serif" font-size="10.00">simulations.SlimeMold.whereNext</text>
</g>
<!-- Node2 -->
<g id="node2" class="node"><title>Node2</title>
<g id="a_node2"><a xlink:href="../../dc/d9d/classsimulations_1_1_slime_mold.html#a37ab067823e2c73a71a382d0afc966bb" target="_top" xlink:title="simulations.SlimeMold.update\lCells">
<polygon fill="white" stroke="black" points="214.5,-0 214.5,-30 375.5,-30 375.5,-0 214.5,-0"/>
<text text-anchor="start" x="222.5" y="-18" font-family="Helvetica,sans-Serif" font-size="10.00">simulations.SlimeMold.update</text>
<text text-anchor="middle" x="295" y="-7" font-family="Helvetica,sans-Serif" font-size="10.00">Cells</text>
</a>
</g>
</g>
<!-- Node1&#45;&gt;Node2 -->
<g id="edge1" class="edge"><title>Node1&#45;&gt;Node2</title>
<path fill="none" stroke="midnightblue" d="M188.422,-15C197.078,-15 205.769,-15 214.244,-15"/>
<polygon fill="midnightblue" stroke="midnightblue" points="188.291,-11.5001 178.291,-15 188.291,-18.5001 188.291,-11.5001"/>
</g>
<!-- Node3 -->
<g id="node3" class="node"><title>Node3</title>
<g id="a_node3"><a xlink:href="../../dc/d9d/classsimulations_1_1_slime_mold.html#a4cf08e9b64271d89ce0b50375bf1e1c6" target="_top" xlink:title="simulations.SlimeMold.nextGen">
<polygon fill="white" stroke="black" points="412.5,-5.5 412.5,-24.5 579.5,-24.5 579.5,-5.5 412.5,-5.5"/>
<text text-anchor="middle" x="496" y="-12.5" font-family="Helvetica,sans-Serif" font-size="10.00">simulations.SlimeMold.nextGen</text>
</a>
</g>
</g>
<!-- Node2&#45;&gt;Node3 -->
<g id="edge2" class="edge"><title>Node2&#45;&gt;Node3</title>
<path fill="none" stroke="midnightblue" d="M385.532,-15C394.464,-15 403.505,-15 412.362,-15"/>
<polygon fill="midnightblue" stroke="midnightblue" points="385.508,-11.5001 375.508,-15 385.508,-18.5001 385.508,-11.5001"/>
</g>
</g>
</svg>
