<?xml version="1.0" encoding="UTF-8" standalone="no"?>
<!DOCTYPE svg PUBLIC "-//W3C//DTD SVG 1.1//EN"
 "http://www.w3.org/Graphics/SVG/1.1/DTD/svg11.dtd">
<!-- Generated by graphviz version 2.36.0 (20140111.2315)
 -->
<!-- Title: utility.SimData.simFPS Pages: 1 -->
<svg width="936pt" height="77pt"
 viewBox="0.00 0.00 936.00 77.00" xmlns="http://www.w3.org/2000/svg" xmlns:xlink="http://www.w3.org/1999/xlink">
<g id="graph0" class="graph" transform="scale(1 1) rotate(0) translate(4 73)">
<title>utility.SimData.simFPS</title>
<polygon fill="white" stroke="none" points="-4,4 -4,-73 932,-73 932,4 -4,4"/>
<!-- Node1 -->
<g id="node1" class="node"><title>Node1</title>
<polygon fill="#bfbfbf" stroke="black" points="0,-22.5 0,-41.5 124,-41.5 124,-22.5 0,-22.5"/>
<text text-anchor="middle" x="62" y="-29.5" font-family="Helvetica,sans-Serif" font-size="10.00">utility.SimData.simFPS</text>
</g>
<!-- Node2 -->
<g id="node2" class="node"><title>Node2</title>
<g id="a_node2"><a xlink:href="../../d6/da5/classcellsociety__team05_1_1_master.html#ac10570db09b5b348c023bbd5e1df801b" target="_top" xlink:title="cellsociety_team05.Master.init">
<polygon fill="white" stroke="black" points="160.5,-22.5 160.5,-41.5 321.5,-41.5 321.5,-22.5 160.5,-22.5"/>
<text text-anchor="middle" x="241" y="-29.5" font-family="Helvetica,sans-Serif" font-size="10.00">cellsociety_team05.Master.init</text>
</a>
</g>
</g>
<!-- Node1&#45;&gt;Node2 -->
<g id="edge1" class="edge"><title>Node1&#45;&gt;Node2</title>
<path fill="none" stroke="midnightblue" d="M134.603,-32C143.065,-32 151.741,-32 160.307,-32"/>
<polygon fill="midnightblue" stroke="midnightblue" points="134.409,-28.5001 124.409,-32 134.409,-35.5001 134.409,-28.5001"/>
</g>
<!-- Node3 -->
<g id="node3" class="node"><title>Node3</title>
<g id="a_node3"><a xlink:href="../../d2/d60/classanimation_1_1_g_u_i_creator.html#a61c68b3e24b62788dab86e5240991107" target="_top" xlink:title="animation.GUICreator.load\lAction">
<polygon fill="white" stroke="black" points="366.5,-39 366.5,-69 509.5,-69 509.5,-39 366.5,-39"/>
<text text-anchor="start" x="374.5" y="-57" font-family="Helvetica,sans-Serif" font-size="10.00">animation.GUICreator.load</text>
<text text-anchor="middle" x="438" y="-46" font-family="Helvetica,sans-Serif" font-size="10.00">Action</text>
</a>
</g>
</g>
<!-- Node2&#45;&gt;Node3 -->
<g id="edge2" class="edge"><title>Node2&#45;&gt;Node3</title>
<path fill="none" stroke="midnightblue" d="M331.759,-42.1267C343.388,-43.4386 355.164,-44.7673 366.421,-46.0373"/>
<polygon fill="midnightblue" stroke="midnightblue" points="331.925,-38.6232 321.595,-40.98 331.14,-45.5791 331.925,-38.6232"/>
</g>
<!-- Node6 -->
<g id="node6" class="node"><title>Node6</title>
<g id="a_node6"><a xlink:href="../../de/d00/classcellsociety__team05_1_1_main.html#a7663311e53af8548f912c74dcc829624" target="_top" xlink:title="cellsociety_team05.Main.start">
<polygon fill="white" stroke="black" points="358,-0.5 358,-19.5 518,-19.5 518,-0.5 358,-0.5"/>
<text text-anchor="middle" x="438" y="-7.5" font-family="Helvetica,sans-Serif" font-size="10.00">cellsociety_team05.Main.start</text>
</a>
</g>
</g>
<!-- Node2&#45;&gt;Node6 -->
<g id="edge5" class="edge"><title>Node2&#45;&gt;Node6</title>
<path fill="none" stroke="midnightblue" d="M331.797,-21.8691C340.534,-20.8833 349.355,-19.8882 357.975,-18.9157"/>
<polygon fill="midnightblue" stroke="midnightblue" points="331.14,-18.4209 321.595,-23.02 331.925,-25.3768 331.14,-18.4209"/>
</g>
<!-- Node4 -->
<g id="node4" class="node"><title>Node4</title>
<g id="a_node4"><a xlink:href="../../d2/d60/classanimation_1_1_g_u_i_creator.html#ac4c8bd0d5bc08d30393866736d995aa5" target="_top" xlink:title="animation.GUICreator.addload\lXMLButton">
<polygon fill="white" stroke="black" points="554.5,-39 554.5,-69 715.5,-69 715.5,-39 554.5,-39"/>
<text text-anchor="start" x="562.5" y="-57" font-family="Helvetica,sans-Serif" font-size="10.00">animation.GUICreator.addload</text>
<text text-anchor="middle" x="635" y="-46" font-family="Helvetica,sans-Serif" font-size="10.00">XMLButton</text>
</a>
</g>
</g>
<!-- Node3&#45;&gt;Node4 -->
<g id="edge3" class="edge"><title>Node3&#45;&gt;Node4</title>
<path fill="none" stroke="midnightblue" d="M519.991,-54C531.338,-54 542.992,-54 554.314,-54"/>
<polygon fill="midnightblue" stroke="midnightblue" points="519.675,-50.5001 509.675,-54 519.675,-57.5001 519.675,-50.5001"/>
</g>
<!-- Node5 -->
<g id="node5" class="node"><title>Node5</title>
<g id="a_node5"><a xlink:href="../../d2/d60/classanimation_1_1_g_u_i_creator.html#a9a94a22da284976e0a39d9b58e6646ae" target="_top" xlink:title="animation.GUICreator.GUICreator">
<polygon fill="white" stroke="black" points="752,-44.5 752,-63.5 928,-63.5 928,-44.5 752,-44.5"/>
<text text-anchor="middle" x="840" y="-51.5" font-family="Helvetica,sans-Serif" font-size="10.00">animation.GUICreator.GUICreator</text>
</a>
</g>
</g>
<!-- Node4&#45;&gt;Node5 -->
<g id="edge4" class="edge"><title>Node4&#45;&gt;Node5</title>
<path fill="none" stroke="midnightblue" d="M725.761,-54C734.433,-54 743.222,-54 751.869,-54"/>
<polygon fill="midnightblue" stroke="midnightblue" points="725.648,-50.5001 715.648,-54 725.648,-57.5001 725.648,-50.5001"/>
</g>
</g>
</svg>
