<?xml version="1.0" encoding="UTF-8" standalone="no"?>
<!DOCTYPE svg PUBLIC "-//W3C//DTD SVG 1.1//EN"
 "http://www.w3.org/Graphics/SVG/1.1/DTD/svg11.dtd">
<!-- Generated by graphviz version 2.36.0 (20140111.2315)
 -->
<!-- Title: utility.CellGen Pages: 1 -->
<svg width="279pt" height="84pt"
 viewBox="0.00 0.00 279.00 84.00" xmlns="http://www.w3.org/2000/svg" xmlns:xlink="http://www.w3.org/1999/xlink">
<g id="graph0" class="graph" transform="scale(1 1) rotate(0) translate(4 80)">
<title>utility.CellGen</title>
<polygon fill="white" stroke="none" points="-4,4 -4,-80 275,-80 275,4 -4,4"/>
<!-- Node1 -->
<g id="node1" class="node"><title>Node1</title>
<polygon fill="#bfbfbf" stroke="black" points="100,-56.5 100,-75.5 180,-75.5 180,-56.5 100,-56.5"/>
<text text-anchor="middle" x="140" y="-63.5" font-family="Helvetica,sans-Serif" font-size="10.00">utility.CellGen</text>
</g>
<!-- Node2 -->
<g id="node2" class="node"><title>Node2</title>
<g id="a_node2"><a xlink:href="../../dc/dcd/classutility_1_1_hex_gen.html" target="_top" xlink:title="utility.HexGen">
<polygon fill="white" stroke="black" points="0,-0.5 0,-19.5 82,-19.5 82,-0.5 0,-0.5"/>
<text text-anchor="middle" x="41" y="-7.5" font-family="Helvetica,sans-Serif" font-size="10.00">utility.HexGen</text>
</a>
</g>
</g>
<!-- Node1&#45;&gt;Node2 -->
<g id="edge1" class="edge"><title>Node1&#45;&gt;Node2</title>
<path fill="none" stroke="midnightblue" d="M115.163,-51.4526C96.8864,-41.4835 72.5844,-28.2279 56.8666,-19.6545"/>
<polygon fill="midnightblue" stroke="midnightblue" points="113.639,-54.608 124.094,-56.324 116.991,-48.4628 113.639,-54.608"/>
</g>
<!-- Node3 -->
<g id="node3" class="node"><title>Node3</title>
<g id="a_node3"><a xlink:href="../../d1/dce/classutility_1_1_rec_gen.html" target="_top" xlink:title="utility.RecGen">
<polygon fill="white" stroke="black" points="100,-0.5 100,-19.5 180,-19.5 180,-0.5 100,-0.5"/>
<text text-anchor="middle" x="140" y="-7.5" font-family="Helvetica,sans-Serif" font-size="10.00">utility.RecGen</text>
</a>
</g>
</g>
<!-- Node1&#45;&gt;Node3 -->
<g id="edge2" class="edge"><title>Node1&#45;&gt;Node3</title>
<path fill="none" stroke="midnightblue" d="M140,-45.8045C140,-36.9102 140,-26.7798 140,-19.7511"/>
<polygon fill="midnightblue" stroke="midnightblue" points="136.5,-46.083 140,-56.083 143.5,-46.083 136.5,-46.083"/>
</g>
<!-- Node4 -->
<g id="node4" class="node"><title>Node4</title>
<g id="a_node4"><a xlink:href="../../d3/dba/classutility_1_1_tri_gen.html" target="_top" xlink:title="utility.TriGen">
<polygon fill="white" stroke="black" points="198.5,-0.5 198.5,-19.5 271.5,-19.5 271.5,-0.5 198.5,-0.5"/>
<text text-anchor="middle" x="235" y="-7.5" font-family="Helvetica,sans-Serif" font-size="10.00">utility.TriGen</text>
</a>
</g>
</g>
<!-- Node1&#45;&gt;Node4 -->
<g id="edge3" class="edge"><title>Node1&#45;&gt;Node4</title>
<path fill="none" stroke="midnightblue" d="M164.318,-51.1774C181.799,-41.2407 204.83,-28.1492 219.774,-19.6545"/>
<polygon fill="midnightblue" stroke="midnightblue" points="162.227,-48.3395 155.263,-56.324 165.687,-54.425 162.227,-48.3395"/>
</g>
</g>
</svg>
