<?xml version="1.0" encoding="UTF-8" standalone="no"?>
<!DOCTYPE svg PUBLIC "-//W3C//DTD SVG 1.1//EN"
 "http://www.w3.org/Graphics/SVG/1.1/DTD/svg11.dtd">
<!-- Generated by graphviz version 2.36.0 (20140111.2315)
 -->
<!-- Title: utility.Reader Pages: 1 -->
<svg width="229pt" height="96pt"
 viewBox="0.00 0.00 229.00 96.00" xmlns="http://www.w3.org/2000/svg" xmlns:xlink="http://www.w3.org/1999/xlink">
<g id="graph0" class="graph" transform="scale(1 1) rotate(0) translate(4 92)">
<title>utility.Reader</title>
<polygon fill="white" stroke="none" points="-4,4 -4,-92 225,-92 225,4 -4,4"/>
<!-- Node1 -->
<g id="node1" class="node"><title>Node1</title>
<polygon fill="#bfbfbf" stroke="black" points="65.5,-0.5 65.5,-19.5 142.5,-19.5 142.5,-0.5 65.5,-0.5"/>
<text text-anchor="middle" x="104" y="-7.5" font-family="Helvetica,sans-Serif" font-size="10.00">utility.Reader</text>
</g>
<!-- Node2 -->
<g id="node2" class="node"><title>Node2</title>
<polygon fill="white" stroke="#bfbfbf" points="-0.5,-68.5 -0.5,-87.5 88.5,-87.5 88.5,-68.5 -0.5,-68.5"/>
<text text-anchor="middle" x="44" y="-75.5" font-family="Helvetica,sans-Serif" font-size="10.00">DefaultHandler</text>
</g>
<!-- Node2&#45;&gt;Node1 -->
<g id="edge1" class="edge"><title>Node2&#45;&gt;Node1</title>
<path fill="none" stroke="midnightblue" d="M58.8364,-60.68C70.5666,-47.7768 86.4932,-30.2575 95.9626,-19.8411"/>
<polygon fill="midnightblue" stroke="midnightblue" points="55.9809,-58.6179 51.844,-68.3717 61.1605,-63.3266 55.9809,-58.6179"/>
</g>
<!-- Node3 -->
<g id="node3" class="node"><title>Node3</title>
<polygon fill="white" stroke="#bfbfbf" points="106.5,-68.5 106.5,-87.5 221.5,-87.5 221.5,-68.5 106.5,-68.5"/>
<text text-anchor="middle" x="164" y="-75.5" font-family="Helvetica,sans-Serif" font-size="10.00">ArrayList&lt; Integer &gt;</text>
</g>
<!-- Node3&#45;&gt;Node1 -->
<g id="edge2" class="edge"><title>Node3&#45;&gt;Node1</title>
<path fill="none" stroke="#9a32cd" stroke-dasharray="5,2" d="M149.164,-60.68C137.433,-47.7768 121.507,-30.2575 112.037,-19.8411"/>
<polygon fill="#9a32cd" stroke="#9a32cd" points="146.839,-63.3266 156.156,-68.3717 152.019,-58.6179 146.839,-63.3266"/>
<text text-anchor="middle" x="168.5" y="-41.5" font-family="Helvetica,sans-Serif" font-size="10.00"> paramsList</text>
</g>
</g>
</svg>
