<?xml version="1.0" encoding="UTF-8" standalone="no"?>
<!DOCTYPE svg PUBLIC "-//W3C//DTD SVG 1.1//EN"
 "http://www.w3.org/Graphics/SVG/1.1/DTD/svg11.dtd">
<!-- Generated by graphviz version 2.36.0 (20140111.2315)
 -->
<!-- Title: utility.Ant.getFrontNeighbors Pages: 1 -->
<svg width="538pt" height="28pt"
 viewBox="0.00 0.00 538.00 28.00" xmlns="http://www.w3.org/2000/svg" xmlns:xlink="http://www.w3.org/1999/xlink">
<g id="graph0" class="graph" transform="scale(1 1) rotate(0) translate(4 24)">
<title>utility.Ant.getFrontNeighbors</title>
<polygon fill="white" stroke="none" points="-4,4 -4,-24 534,-24 534,4 -4,4"/>
<!-- Node1 -->
<g id="node1" class="node"><title>Node1</title>
<polygon fill="#bfbfbf" stroke="black" points="0,-0.5 0,-19.5 152,-19.5 152,-0.5 0,-0.5"/>
<text text-anchor="middle" x="76" y="-7.5" font-family="Helvetica,sans-Serif" font-size="10.00">utility.Ant.getFrontNeighbors</text>
</g>
<!-- Node2 -->
<g id="node2" class="node"><title>Node2</title>
<g id="a_node2"><a xlink:href="../../da/d7a/classsimulations_1_1_forage.html#a91ba1a576c24aeb6466b9c45769630ec" target="_top" xlink:title="simulations.Forage.moveAnt">
<polygon fill="white" stroke="black" points="188,-0.5 188,-19.5 342,-19.5 342,-0.5 188,-0.5"/>
<text text-anchor="middle" x="265" y="-7.5" font-family="Helvetica,sans-Serif" font-size="10.00">simulations.Forage.moveAnt</text>
</a>
</g>
</g>
<!-- Node1&#45;&gt;Node2 -->
<g id="edge1" class="edge"><title>Node1&#45;&gt;Node2</title>
<path fill="none" stroke="midnightblue" d="M162.263,-10C170.842,-10 179.515,-10 187.988,-10"/>
<polygon fill="midnightblue" stroke="midnightblue" points="162.252,-6.5001 152.252,-10 162.252,-13.5001 162.252,-6.5001"/>
</g>
<!-- Node3 -->
<g id="node3" class="node"><title>Node3</title>
<g id="a_node3"><a xlink:href="../../da/d7a/classsimulations_1_1_forage.html#adae17e0a4217696191ba95b430ab4c81" target="_top" xlink:title="simulations.Forage.nextGen">
<polygon fill="white" stroke="black" points="378.5,-0.5 378.5,-19.5 529.5,-19.5 529.5,-0.5 378.5,-0.5"/>
<text text-anchor="middle" x="454" y="-7.5" font-family="Helvetica,sans-Serif" font-size="10.00">simulations.Forage.nextGen</text>
</a>
</g>
</g>
<!-- Node2&#45;&gt;Node3 -->
<g id="edge2" class="edge"><title>Node2&#45;&gt;Node3</title>
<path fill="none" stroke="midnightblue" d="M352.203,-10C360.891,-10 369.664,-10 378.219,-10"/>
<polygon fill="midnightblue" stroke="midnightblue" points="352.06,-6.5001 342.06,-10 352.06,-13.5001 352.06,-6.5001"/>
</g>
</g>
</svg>
