<?xml version="1.0" encoding="UTF-8" standalone="no"?>
<!DOCTYPE svg PUBLIC "-//W3C//DTD SVG 1.1//EN"
 "http://www.w3.org/Graphics/SVG/1.1/DTD/svg11.dtd">
<!-- Generated by graphviz version 2.36.0 (20140111.2315)
 -->
<!-- Title: utility.Ant.moveTo Pages: 1 -->
<svg width="486pt" height="28pt"
 viewBox="0.00 0.00 486.00 28.00" xmlns="http://www.w3.org/2000/svg" xmlns:xlink="http://www.w3.org/1999/xlink">
<g id="graph0" class="graph" transform="scale(1 1) rotate(0) translate(4 24)">
<title>utility.Ant.moveTo</title>
<polygon fill="white" stroke="none" points="-4,4 -4,-24 482,-24 482,4 -4,4"/>
<!-- Node1 -->
<g id="node1" class="node"><title>Node1</title>
<polygon fill="#bfbfbf" stroke="black" points="0,-0.5 0,-19.5 100,-19.5 100,-0.5 0,-0.5"/>
<text text-anchor="middle" x="50" y="-7.5" font-family="Helvetica,sans-Serif" font-size="10.00">utility.Ant.moveTo</text>
</g>
<!-- Node2 -->
<g id="node2" class="node"><title>Node2</title>
<g id="a_node2"><a xlink:href="../../da/d7a/classsimulations_1_1_forage.html#a91ba1a576c24aeb6466b9c45769630ec" target="_top" xlink:title="simulations.Forage.moveAnt">
<polygon fill="white" stroke="black" points="136,-0.5 136,-19.5 290,-19.5 290,-0.5 136,-0.5"/>
<text text-anchor="middle" x="213" y="-7.5" font-family="Helvetica,sans-Serif" font-size="10.00">simulations.Forage.moveAnt</text>
</a>
</g>
</g>
<!-- Node1&#45;&gt;Node2 -->
<g id="edge1" class="edge"><title>Node1&#45;&gt;Node2</title>
<path fill="none" stroke="midnightblue" d="M110.181,-10C118.536,-10 127.221,-10 135.839,-10"/>
<polygon fill="midnightblue" stroke="midnightblue" points="110.18,-6.5001 100.18,-10 110.18,-13.5001 110.18,-6.5001"/>
</g>
<!-- Node3 -->
<g id="node3" class="node"><title>Node3</title>
<g id="a_node3"><a xlink:href="../../da/d7a/classsimulations_1_1_forage.html#adae17e0a4217696191ba95b430ab4c81" target="_top" xlink:title="simulations.Forage.nextGen">
<polygon fill="white" stroke="black" points="326.5,-0.5 326.5,-19.5 477.5,-19.5 477.5,-0.5 326.5,-0.5"/>
<text text-anchor="middle" x="402" y="-7.5" font-family="Helvetica,sans-Serif" font-size="10.00">simulations.Forage.nextGen</text>
</a>
</g>
</g>
<!-- Node2&#45;&gt;Node3 -->
<g id="edge2" class="edge"><title>Node2&#45;&gt;Node3</title>
<path fill="none" stroke="midnightblue" d="M300.203,-10C308.891,-10 317.664,-10 326.219,-10"/>
<polygon fill="midnightblue" stroke="midnightblue" points="300.06,-6.5001 290.06,-10 300.06,-13.5001 300.06,-6.5001"/>
</g>
</g>
</svg>
