<?xml version="1.0" encoding="UTF-8" standalone="no"?>
<!DOCTYPE svg PUBLIC "-//W3C//DTD SVG 1.1//EN"
 "http://www.w3.org/Graphics/SVG/1.1/DTD/svg11.dtd">
<!-- Generated by graphviz version 2.36.0 (20140111.2315)
 -->
<!-- Title: cellsociety_team05.Master.addKeyFrame Pages: 1 -->
<svg width="1182pt" height="77pt"
 viewBox="0.00 0.00 1182.00 77.00" xmlns="http://www.w3.org/2000/svg" xmlns:xlink="http://www.w3.org/1999/xlink">
<g id="graph0" class="graph" transform="scale(1 1) rotate(0) translate(4 73)">
<title>cellsociety_team05.Master.addKeyFrame</title>
<polygon fill="white" stroke="none" points="-4,4 -4,-73 1178,-73 1178,4 -4,4"/>
<!-- Node1 -->
<g id="node1" class="node"><title>Node1</title>
<polygon fill="#bfbfbf" stroke="black" points="0.5,-17 0.5,-47 165.5,-47 165.5,-17 0.5,-17"/>
<text text-anchor="start" x="8.5" y="-35" font-family="Helvetica,sans-Serif" font-size="10.00">cellsociety_team05.Master.add</text>
<text text-anchor="middle" x="83" y="-24" font-family="Helvetica,sans-Serif" font-size="10.00">KeyFrame</text>
</g>
<!-- Node2 -->
<g id="node2" class="node"><title>Node2</title>
<g id="a_node2"><a xlink:href="../../d6/da5/classcellsociety__team05_1_1_master.html#ac07c303c9783fa437ccf0c702effcffd" target="_top" xlink:title="cellsociety_team05.Master.play">
<polygon fill="white" stroke="black" points="202.5,-22.5 202.5,-41.5 369.5,-41.5 369.5,-22.5 202.5,-22.5"/>
<text text-anchor="middle" x="286" y="-29.5" font-family="Helvetica,sans-Serif" font-size="10.00">cellsociety_team05.Master.play</text>
</a>
</g>
</g>
<!-- Node1&#45;&gt;Node2 -->
<g id="edge1" class="edge"><title>Node1&#45;&gt;Node2</title>
<path fill="none" stroke="midnightblue" d="M176.006,-32C184.787,-32 193.655,-32 202.339,-32"/>
<polygon fill="midnightblue" stroke="midnightblue" points="175.754,-28.5001 165.754,-32 175.754,-35.5001 175.754,-28.5001"/>
</g>
<!-- Node3 -->
<g id="node3" class="node"><title>Node3</title>
<g id="a_node3"><a xlink:href="../../d6/da5/classcellsociety__team05_1_1_master.html#ac10570db09b5b348c023bbd5e1df801b" target="_top" xlink:title="cellsociety_team05.Master.init">
<polygon fill="white" stroke="black" points="406.5,-22.5 406.5,-41.5 567.5,-41.5 567.5,-22.5 406.5,-22.5"/>
<text text-anchor="middle" x="487" y="-29.5" font-family="Helvetica,sans-Serif" font-size="10.00">cellsociety_team05.Master.init</text>
</a>
</g>
</g>
<!-- Node2&#45;&gt;Node3 -->
<g id="edge2" class="edge"><title>Node2&#45;&gt;Node3</title>
<path fill="none" stroke="midnightblue" d="M379.714,-32C388.655,-32 397.67,-32 406.467,-32"/>
<polygon fill="midnightblue" stroke="midnightblue" points="379.665,-28.5001 369.665,-32 379.665,-35.5001 379.665,-28.5001"/>
</g>
<!-- Node4 -->
<g id="node4" class="node"><title>Node4</title>
<g id="a_node4"><a xlink:href="../../d2/d60/classanimation_1_1_g_u_i_creator.html#a61c68b3e24b62788dab86e5240991107" target="_top" xlink:title="animation.GUICreator.load\lAction">
<polygon fill="white" stroke="black" points="612.5,-39 612.5,-69 755.5,-69 755.5,-39 612.5,-39"/>
<text text-anchor="start" x="620.5" y="-57" font-family="Helvetica,sans-Serif" font-size="10.00">animation.GUICreator.load</text>
<text text-anchor="middle" x="684" y="-46" font-family="Helvetica,sans-Serif" font-size="10.00">Action</text>
</a>
</g>
</g>
<!-- Node3&#45;&gt;Node4 -->
<g id="edge3" class="edge"><title>Node3&#45;&gt;Node4</title>
<path fill="none" stroke="midnightblue" d="M577.759,-42.1267C589.388,-43.4386 601.164,-44.7673 612.421,-46.0373"/>
<polygon fill="midnightblue" stroke="midnightblue" points="577.925,-38.6232 567.595,-40.98 577.14,-45.5791 577.925,-38.6232"/>
</g>
<!-- Node7 -->
<g id="node7" class="node"><title>Node7</title>
<g id="a_node7"><a xlink:href="../../de/d00/classcellsociety__team05_1_1_main.html#a7663311e53af8548f912c74dcc829624" target="_top" xlink:title="cellsociety_team05.Main.start">
<polygon fill="white" stroke="black" points="604,-0.5 604,-19.5 764,-19.5 764,-0.5 604,-0.5"/>
<text text-anchor="middle" x="684" y="-7.5" font-family="Helvetica,sans-Serif" font-size="10.00">cellsociety_team05.Main.start</text>
</a>
</g>
</g>
<!-- Node3&#45;&gt;Node7 -->
<g id="edge6" class="edge"><title>Node3&#45;&gt;Node7</title>
<path fill="none" stroke="midnightblue" d="M577.797,-21.8691C586.534,-20.8833 595.355,-19.8882 603.975,-18.9157"/>
<polygon fill="midnightblue" stroke="midnightblue" points="577.14,-18.4209 567.595,-23.02 577.925,-25.3768 577.14,-18.4209"/>
</g>
<!-- Node5 -->
<g id="node5" class="node"><title>Node5</title>
<g id="a_node5"><a xlink:href="../../d2/d60/classanimation_1_1_g_u_i_creator.html#ac4c8bd0d5bc08d30393866736d995aa5" target="_top" xlink:title="animation.GUICreator.addload\lXMLButton">
<polygon fill="white" stroke="black" points="800.5,-39 800.5,-69 961.5,-69 961.5,-39 800.5,-39"/>
<text text-anchor="start" x="808.5" y="-57" font-family="Helvetica,sans-Serif" font-size="10.00">animation.GUICreator.addload</text>
<text text-anchor="middle" x="881" y="-46" font-family="Helvetica,sans-Serif" font-size="10.00">XMLButton</text>
</a>
</g>
</g>
<!-- Node4&#45;&gt;Node5 -->
<g id="edge4" class="edge"><title>Node4&#45;&gt;Node5</title>
<path fill="none" stroke="midnightblue" d="M765.991,-54C777.338,-54 788.992,-54 800.314,-54"/>
<polygon fill="midnightblue" stroke="midnightblue" points="765.675,-50.5001 755.675,-54 765.675,-57.5001 765.675,-50.5001"/>
</g>
<!-- Node6 -->
<g id="node6" class="node"><title>Node6</title>
<g id="a_node6"><a xlink:href="../../d2/d60/classanimation_1_1_g_u_i_creator.html#a9a94a22da284976e0a39d9b58e6646ae" target="_top" xlink:title="animation.GUICreator.GUICreator">
<polygon fill="white" stroke="black" points="998,-44.5 998,-63.5 1174,-63.5 1174,-44.5 998,-44.5"/>
<text text-anchor="middle" x="1086" y="-51.5" font-family="Helvetica,sans-Serif" font-size="10.00">animation.GUICreator.GUICreator</text>
</a>
</g>
</g>
<!-- Node5&#45;&gt;Node6 -->
<g id="edge5" class="edge"><title>Node5&#45;&gt;Node6</title>
<path fill="none" stroke="midnightblue" d="M971.761,-54C980.433,-54 989.222,-54 997.869,-54"/>
<polygon fill="midnightblue" stroke="midnightblue" points="971.648,-50.5001 961.648,-54 971.648,-57.5001 971.648,-50.5001"/>
</g>
</g>
</svg>
