<?xml version="1.0" encoding="UTF-8" standalone="no"?>
<!DOCTYPE svg PUBLIC "-//W3C//DTD SVG 1.1//EN"
 "http://www.w3.org/Graphics/SVG/1.1/DTD/svg11.dtd">
<!-- Generated by graphviz version 2.36.0 (20140111.2315)
 -->
<!-- Title: cellsociety_team05.Master.addKeyFrame Pages: 1 -->
<!--zoomable 203 -->
<svg id="main" version="1.1" xmlns="http://www.w3.org/2000/svg" xmlns:xlink="http://www.w3.org/1999/xlink" xml:space="preserve" onload="init(evt)">
<style type="text/css"><![CDATA[
.edge:hover path { stroke: red; }
.edge:hover polygon { stroke: red; fill: red; }
]]></style>
<script type="text/javascript"><![CDATA[
var edges = document.getElementsByTagName('g');
if (edges && edges.length) {
  for (var i=0;i<edges.length;i++) {
    if (edges[i].id.substr(0,4)=='edge') {
      edges[i].setAttribute('class','edge');
    }
  }
}
]]></script>
        <defs>
                <circle id="rim" cx="0" cy="0" r="7"/>
                <circle id="rim2" cx="0" cy="0" r="3.5"/>
                <g id="zoomPlus">
                        <use xlink:href="#rim" fill="#404040">
                                <set attributeName="fill" to="#808080" begin="zoomplus.mouseover" end="zoomplus.mouseout"/>
                        </use>
                        <path d="M-4,0h8M0,-4v8" fill="none" stroke="white" stroke-width="1.5" pointer-events="none"/>
                </g>
                <g id="zoomMin">
                        <use xlink:href="#rim" fill="#404040">
                                <set attributeName="fill" to="#808080" begin="zoomminus.mouseover" end="zoomminus.mouseout"/>
                        </use>
                        <path d="M-4,0h8" fill="none" stroke="white" stroke-width="1.5" pointer-events="none"/>
                </g>
                <g id="dirArrow">
                        <path fill="none" stroke="white" stroke-width="1.5" d="M0,-3.0v7 M-2.5,-0.5L0,-3.0L2.5,-0.5"/>
                </g>
               <g id="resetDef">
                       <use xlink:href="#rim2" fill="#404040">
                               <set attributeName="fill" to="#808080" begin="reset.mouseover" end="reset.mouseout"/>
                       </use>
               </g>
        </defs>

<script type="text/javascript">
var viewWidth = 816;
var viewHeight = 203;
var sectionId = 'dynsection-1';
</script>
<script xlink:href="../../svgpan.js"/>
<svg id="graph" class="graph">
<g id="viewport">
<title>cellsociety_team05.Master.addKeyFrame</title>
<polygon fill="white" stroke="none" points="-4,4 -4,-199 812,-199 812,4 -4,4"/>
<!-- Node1 -->
<g id="node1" class="node"><title>Node1</title>
<polygon fill="#bfbfbf" stroke="black" points="0.5,-82 0.5,-112 165.5,-112 165.5,-82 0.5,-82"/>
<text text-anchor="start" x="8.5" y="-100" font-family="Helvetica,sans-Serif" font-size="10.00">cellsociety_team05.Master.add</text>
<text text-anchor="middle" x="83" y="-89" font-family="Helvetica,sans-Serif" font-size="10.00">KeyFrame</text>
</g>
<!-- Node2 -->
<g id="node2" class="node"><title>Node2</title>
<g id="a_node2"><a xlink:href="../../d6/da5/classcellsociety__team05_1_1_master.html#aef1f14e30284edb3e1f8c0c5636de390" target="_top" xlink:title="cellsociety_team05.Master.evolve">
<polygon fill="white" stroke="black" points="202,-87.5 202,-106.5 380,-106.5 380,-87.5 202,-87.5"/>
<text text-anchor="middle" x="291" y="-94.5" font-family="Helvetica,sans-Serif" font-size="10.00">cellsociety_team05.Master.evolve</text>
</a>
</g>
</g>
<!-- Node1&#45;&gt;Node2 -->
<g id="edge1" class="edge"><title>Node1&#45;&gt;Node2</title>
<path fill="none" stroke="midnightblue" d="M165.713,-97C174.271,-97 183.034,-97 191.752,-97"/>
<polygon fill="midnightblue" stroke="midnightblue" points="191.95,-100.5 201.95,-97 191.95,-93.5001 191.95,-100.5"/>
</g>
<!-- Node3 -->
<g id="node3" class="node"><title>Node3</title>
<g id="a_node3"><a xlink:href="../../d9/d7b/classsimulations_1_1_sim.html#a864a4b1e5ab91624cd70ed9fbdc855ac" target="_top" xlink:title="simulations.Sim.nextGen">
<polygon fill="white" stroke="black" points="431.5,-175.5 431.5,-194.5 568.5,-194.5 568.5,-175.5 431.5,-175.5"/>
<text text-anchor="middle" x="500" y="-182.5" font-family="Helvetica,sans-Serif" font-size="10.00">simulations.Sim.nextGen</text>
</a>
</g>
</g>
<!-- Node2&#45;&gt;Node3 -->
<g id="edge2" class="edge"><title>Node2&#45;&gt;Node3</title>
<path fill="none" stroke="midnightblue" d="M306.646,-106.72C329.232,-121.312 374.323,-148.882 416,-165 423.75,-167.997 432.087,-170.641 440.38,-172.942"/>
<polygon fill="midnightblue" stroke="midnightblue" points="439.498,-176.329 450.06,-175.487 441.278,-169.559 439.498,-176.329"/>
</g>
<!-- Node4 -->
<g id="node4" class="node"><title>Node4</title>
<g id="a_node4"><a xlink:href="../../d9/dd0/classcellsociety__team05_1_1_scene_updater.html#a426e94fe0be8484ef5796171e64f8a3a" target="_top" xlink:title="cellsociety_team05.Scene\lUpdater.updateGraph">
<polygon fill="white" stroke="black" points="429,-126 429,-156 571,-156 571,-126 429,-126"/>
<text text-anchor="start" x="437" y="-144" font-family="Helvetica,sans-Serif" font-size="10.00">cellsociety_team05.Scene</text>
<text text-anchor="middle" x="500" y="-133" font-family="Helvetica,sans-Serif" font-size="10.00">Updater.updateGraph</text>
</a>
</g>
</g>
<!-- Node2&#45;&gt;Node4 -->
<g id="edge3" class="edge"><title>Node2&#45;&gt;Node4</title>
<path fill="none" stroke="midnightblue" d="M336.916,-106.547C360.85,-111.635 391.015,-118.047 418.814,-123.956"/>
<polygon fill="midnightblue" stroke="midnightblue" points="418.424,-127.451 428.933,-126.106 419.879,-120.604 418.424,-127.451"/>
</g>
<!-- Node6 -->
<g id="node6" class="node"><title>Node6</title>
<g id="a_node6"><a xlink:href="../../d9/d7b/classsimulations_1_1_sim.html#ae840fd3e0813718f05bee889fb097fcc" target="_top" xlink:title="simulations.Sim.cellProportions">
<polygon fill="white" stroke="black" points="416.5,-87.5 416.5,-106.5 583.5,-106.5 583.5,-87.5 416.5,-87.5"/>
<text text-anchor="middle" x="500" y="-94.5" font-family="Helvetica,sans-Serif" font-size="10.00">simulations.Sim.cellProportions</text>
</a>
</g>
</g>
<!-- Node2&#45;&gt;Node6 -->
<g id="edge5" class="edge"><title>Node2&#45;&gt;Node6</title>
<path fill="none" stroke="midnightblue" d="M380.087,-97C388.708,-97 397.475,-97 406.141,-97"/>
<polygon fill="midnightblue" stroke="midnightblue" points="406.253,-100.5 416.253,-97 406.253,-93.5001 406.253,-100.5"/>
</g>
<!-- Node7 -->
<g id="node7" class="node"><title>Node7</title>
<g id="a_node7"><a xlink:href="../../d9/d7b/classsimulations_1_1_sim.html#aae4b6d35eccef9920616ce7a2fb86794" target="_top" xlink:title="simulations.Sim.setNewParams">
<polygon fill="white" stroke="black" points="416.5,-49.5 416.5,-68.5 583.5,-68.5 583.5,-49.5 416.5,-49.5"/>
<text text-anchor="middle" x="500" y="-56.5" font-family="Helvetica,sans-Serif" font-size="10.00">simulations.Sim.setNewParams</text>
</a>
</g>
</g>
<!-- Node2&#45;&gt;Node7 -->
<g id="edge6" class="edge"><title>Node2&#45;&gt;Node7</title>
<path fill="none" stroke="midnightblue" d="M343.968,-87.46C372.266,-82.2652 407.464,-75.8037 437.167,-70.3511"/>
<polygon fill="midnightblue" stroke="midnightblue" points="437.807,-73.792 447.011,-68.5439 436.543,-66.9071 437.807,-73.792"/>
</g>
<!-- Node8 -->
<g id="node8" class="node"><title>Node8</title>
<g id="a_node8"><a xlink:href="../../d9/dd0/classcellsociety__team05_1_1_scene_updater.html#abc68af978ebd0da668f37510dd34aaf4" target="_top" xlink:title="cellsociety_team05.Scene\lUpdater.newParams">
<polygon fill="white" stroke="black" points="429,-0 429,-30 571,-30 571,-0 429,-0"/>
<text text-anchor="start" x="437" y="-18" font-family="Helvetica,sans-Serif" font-size="10.00">cellsociety_team05.Scene</text>
<text text-anchor="middle" x="500" y="-7" font-family="Helvetica,sans-Serif" font-size="10.00">Updater.newParams</text>
</a>
</g>
</g>
<!-- Node2&#45;&gt;Node8 -->
<g id="edge7" class="edge"><title>Node2&#45;&gt;Node8</title>
<path fill="none" stroke="midnightblue" d="M310.562,-87.4844C334.512,-75.4366 377.663,-54.5054 416,-40 422.242,-37.6384 428.811,-35.3449 435.408,-33.1666"/>
<polygon fill="midnightblue" stroke="midnightblue" points="436.609,-36.4569 445.057,-30.0633 434.466,-29.7931 436.609,-36.4569"/>
</g>
<!-- Node5 -->
<g id="node5" class="node"><title>Node5</title>
<g id="a_node5"><a xlink:href="../../da/d16/classanimation_1_1_animated_graph.html#a784a1784f9e1ad102bcc7e194da19c44" target="_top" xlink:title="animation.AnimatedGraph.addData">
<polygon fill="white" stroke="black" points="620,-131.5 620,-150.5 808,-150.5 808,-131.5 620,-131.5"/>
<text text-anchor="middle" x="714" y="-138.5" font-family="Helvetica,sans-Serif" font-size="10.00">animation.AnimatedGraph.addData</text>
</a>
</g>
</g>
<!-- Node4&#45;&gt;Node5 -->
<g id="edge4" class="edge"><title>Node4&#45;&gt;Node5</title>
<path fill="none" stroke="midnightblue" d="M571.004,-141C583.281,-141 596.288,-141 609.251,-141"/>
<polygon fill="midnightblue" stroke="midnightblue" points="609.622,-144.5 619.622,-141 609.622,-137.5 609.622,-144.5"/>
</g>
</g>
</svg>
        <g id="navigator" transform="translate(0 0)" fill="#404254">
                <rect fill="#f2f5e9" fill-opacity="0.5" stroke="#606060" stroke-width=".5" x="0" y="0" width="60" height="60"/>
                <use id="zoomplus" xlink:href="#zoomPlus" x="17" y="9" onmousedown="handleZoom(evt,'in')"/>
                <use id="zoomminus" xlink:href="#zoomMin" x="42" y="9" onmousedown="handleZoom(evt,'out')"/>
                <use id="reset" xlink:href="#resetDef" x="30" y="36" onmousedown="handleReset()"/>
                <g id="arrowUp" xlink:href="#dirArrow" transform="translate(30 24)" onmousedown="handlePan(0,-1)">
                  <use xlink:href="#rim" fill="#404040">
                        <set attributeName="fill" to="#808080" begin="arrowUp.mouseover" end="arrowUp.mouseout"/>
                  </use>
                  <path fill="none" stroke="white" stroke-width="1.5" d="M0,-3.0v7 M-2.5,-0.5L0,-3.0L2.5,-0.5"/>
                </g>
                <g id="arrowRight" xlink:href="#dirArrow" transform="rotate(90) translate(36 -43)" onmousedown="handlePan(1,0)">
                  <use xlink:href="#rim" fill="#404040">
                        <set attributeName="fill" to="#808080" begin="arrowRight.mouseover" end="arrowRight.mouseout"/>
                  </use>
                  <path fill="none" stroke="white" stroke-width="1.5" d="M0,-3.0v7 M-2.5,-0.5L0,-3.0L2.5,-0.5"/>
                </g>
                <g id="arrowDown" xlink:href="#dirArrow" transform="rotate(180) translate(-30 -48)" onmousedown="handlePan(0,1)">
                  <use xlink:href="#rim" fill="#404040">
                        <set attributeName="fill" to="#808080" begin="arrowDown.mouseover" end="arrowDown.mouseout"/>
                  </use>
                  <path fill="none" stroke="white" stroke-width="1.5" d="M0,-3.0v7 M-2.5,-0.5L0,-3.0L2.5,-0.5"/>
                </g>
                <g id="arrowLeft" xlink:href="#dirArrow" transform="rotate(270) translate(-36 17)" onmousedown="handlePan(-1,0)">
                  <use xlink:href="#rim" fill="#404040">
                        <set attributeName="fill" to="#808080" begin="arrowLeft.mouseover" end="arrowLeft.mouseout"/>
                  </use>
                  <path fill="none" stroke="white" stroke-width="1.5" d="M0,-3.0v7 M-2.5,-0.5L0,-3.0L2.5,-0.5"/>
                </g>
        </g>
        <svg viewBox="0 0 15 15" width="100%" height="30px" preserveAspectRatio="xMaxYMin meet">
         <g id="arrow_out" transform="scale(0.3 0.3)">
          <a xlink:href="classcellsociety__team05_1_1_master_a9e0818f6e4d1389a401b337b2c5c9f81_cgraph_org.svg" target="_base">
           <rect id="button" ry="5" rx="5" y="6" x="6" height="38" width="38"
                fill="#f2f5e9" fill-opacity="0.5" stroke="#606060" stroke-width="1.0"/>
           <path id="arrow"
             d="M 11.500037,31.436501 C 11.940474,20.09759 22.043105,11.32322 32.158766,21.979434 L 37.068811,17.246167 C 37.068811,17.246167 37.088388,32 37.088388,32 L 22.160133,31.978069 C 22.160133,31.978069 26.997745,27.140456 26.997745,27.140456 C 18.528582,18.264221 13.291696,25.230495 11.500037,31.436501 z"
             style="fill:#404040;"/>
          </a>
         </g>
        </svg>
</svg>
