<?xml version="1.0" encoding="UTF-8" standalone="no"?>
<!DOCTYPE svg PUBLIC "-//W3C//DTD SVG 1.1//EN"
 "http://www.w3.org/Graphics/SVG/1.1/DTD/svg11.dtd">
<!-- Generated by graphviz version 2.36.0 (20140111.2315)
 -->
<!-- Title: cellsociety_team05.Master.init Pages: 1 -->
<!--zoomable 569 -->
<svg id="main" version="1.1" xmlns="http://www.w3.org/2000/svg" xmlns:xlink="http://www.w3.org/1999/xlink" xml:space="preserve" onload="init(evt)">
<style type="text/css"><![CDATA[
.edge:hover path { stroke: red; }
.edge:hover polygon { stroke: red; fill: red; }
]]></style>
<script type="text/javascript"><![CDATA[
var edges = document.getElementsByTagName('g');
if (edges && edges.length) {
  for (var i=0;i<edges.length;i++) {
    if (edges[i].id.substr(0,4)=='edge') {
      edges[i].setAttribute('class','edge');
    }
  }
}
]]></script>
        <defs>
                <circle id="rim" cx="0" cy="0" r="7"/>
                <circle id="rim2" cx="0" cy="0" r="3.5"/>
                <g id="zoomPlus">
                        <use xlink:href="#rim" fill="#404040">
                                <set attributeName="fill" to="#808080" begin="zoomplus.mouseover" end="zoomplus.mouseout"/>
                        </use>
                        <path d="M-4,0h8M0,-4v8" fill="none" stroke="white" stroke-width="1.5" pointer-events="none"/>
                </g>
                <g id="zoomMin">
                        <use xlink:href="#rim" fill="#404040">
                                <set attributeName="fill" to="#808080" begin="zoomminus.mouseover" end="zoomminus.mouseout"/>
                        </use>
                        <path d="M-4,0h8" fill="none" stroke="white" stroke-width="1.5" pointer-events="none"/>
                </g>
                <g id="dirArrow">
                        <path fill="none" stroke="white" stroke-width="1.5" d="M0,-3.0v7 M-2.5,-0.5L0,-3.0L2.5,-0.5"/>
                </g>
               <g id="resetDef">
                       <use xlink:href="#rim2" fill="#404040">
                               <set attributeName="fill" to="#808080" begin="reset.mouseover" end="reset.mouseout"/>
                       </use>
               </g>
        </defs>

<script type="text/javascript">
var viewWidth = 1248;
var viewHeight = 569;
var sectionId = 'dynsection-5';
</script>
<script xlink:href="../../svgpan.js"/>
<svg id="graph" class="graph">
<g id="viewport">
<title>cellsociety_team05.Master.init</title>
<polygon fill="white" stroke="none" points="-4,4 -4,-565 1244,-565 1244,4 -4,4"/>
<!-- Node1 -->
<g id="node1" class="node"><title>Node1</title>
<polygon fill="#bfbfbf" stroke="black" points="0.5,-169.5 0.5,-188.5 161.5,-188.5 161.5,-169.5 0.5,-169.5"/>
<text text-anchor="middle" x="81" y="-176.5" font-family="Helvetica,sans-Serif" font-size="10.00">cellsociety_team05.Master.init</text>
</g>
<!-- Node2 -->
<g id="node2" class="node"><title>Node2</title>
<g id="a_node2"><a xlink:href="../../d9/d7b/classsimulations_1_1_sim.html#af34d99b6d024da2704ee799bb0e94e48" target="_top" xlink:title="simulations.Sim.getData">
<polygon fill="white" stroke="black" points="229.5,-497.5 229.5,-516.5 364.5,-516.5 364.5,-497.5 229.5,-497.5"/>
<text text-anchor="middle" x="297" y="-504.5" font-family="Helvetica,sans-Serif" font-size="10.00">simulations.Sim.getData</text>
</a>
</g>
</g>
<!-- Node1&#45;&gt;Node2 -->
<g id="edge1" class="edge"><title>Node1&#45;&gt;Node2</title>
<path fill="none" stroke="midnightblue" d="M88.4046,-188.816C118.309,-234.651 244.406,-427.921 284.031,-488.655"/>
<polygon fill="midnightblue" stroke="midnightblue" points="281.225,-490.759 289.62,-497.222 287.087,-486.934 281.225,-490.759"/>
</g>
<!-- Node5 -->
<g id="node5" class="node"><title>Node5</title>
<g id="a_node5"><a xlink:href="../../d9/d7b/classsimulations_1_1_sim.html#a8c026c1b2a11b896470c72c4dc123b5e" target="_top" xlink:title="simulations.Sim.getParameters">
<polygon fill="white" stroke="black" points="213.5,-301.5 213.5,-320.5 380.5,-320.5 380.5,-301.5 213.5,-301.5"/>
<text text-anchor="middle" x="297" y="-308.5" font-family="Helvetica,sans-Serif" font-size="10.00">simulations.Sim.getParameters</text>
</a>
</g>
</g>
<!-- Node1&#45;&gt;Node5 -->
<g id="edge4" class="edge"><title>Node1&#45;&gt;Node5</title>
<path fill="none" stroke="midnightblue" d="M88.8677,-188.658C105.095,-210.692 148.21,-264.788 198,-291 203.315,-293.798 208.984,-296.206 214.813,-298.276"/>
<polygon fill="midnightblue" stroke="midnightblue" points="214.149,-301.739 224.74,-301.453 216.283,-295.072 214.149,-301.739"/>
</g>
<!-- Node6 -->
<g id="node6" class="node"><title>Node6</title>
<g id="a_node6"><a xlink:href="../../d9/d7b/classsimulations_1_1_sim.html#a252032535fe50e2eeabefc83cff438b3" target="_top" xlink:title="simulations.Sim.initMap">
<polygon fill="white" stroke="black" points="449.5,-43.5 449.5,-62.5 580.5,-62.5 580.5,-43.5 449.5,-43.5"/>
<text text-anchor="middle" x="515" y="-50.5" font-family="Helvetica,sans-Serif" font-size="10.00">simulations.Sim.initMap</text>
</a>
</g>
</g>
<!-- Node1&#45;&gt;Node6 -->
<g id="edge5" class="edge"><title>Node1&#45;&gt;Node6</title>
<path fill="none" stroke="midnightblue" d="M161.513,-183.546C242.048,-186.533 359.756,-185.954 396,-160 430.356,-135.397 399.819,-99.3868 432,-72 434.56,-69.8217 437.321,-67.8815 440.228,-66.1541"/>
<polygon fill="midnightblue" stroke="midnightblue" points="441.96,-69.2008 449.326,-61.5853 438.819,-62.9453 441.96,-69.2008"/>
</g>
<!-- Node11 -->
<g id="node11" class="node"><title>Node11</title>
<g id="a_node11"><a xlink:href="../../d9/dd0/classcellsociety__team05_1_1_scene_updater.html#a797cf5fc8c06caca14a6415e348ee2d0" target="_top" xlink:title="cellsociety_team05.Scene\lUpdater.newScene">
<polygon fill="white" stroke="black" points="226,-252 226,-282 368,-282 368,-252 226,-252"/>
<text text-anchor="start" x="234" y="-270" font-family="Helvetica,sans-Serif" font-size="10.00">cellsociety_team05.Scene</text>
<text text-anchor="middle" x="297" y="-259" font-family="Helvetica,sans-Serif" font-size="10.00">Updater.newScene</text>
</a>
</g>
</g>
<!-- Node1&#45;&gt;Node11 -->
<g id="edge10" class="edge"><title>Node1&#45;&gt;Node11</title>
<path fill="none" stroke="midnightblue" d="M99.3127,-188.532C121.663,-200.596 161.972,-221.545 198,-236 209.321,-240.542 221.584,-244.869 233.479,-248.772"/>
<polygon fill="midnightblue" stroke="midnightblue" points="232.763,-252.218 243.355,-251.946 234.905,-245.554 232.763,-252.218"/>
</g>
<!-- Node23 -->
<g id="node23" class="node"><title>Node23</title>
<g id="a_node23"><a xlink:href="../../d6/da5/classcellsociety__team05_1_1_master.html#ac07c303c9783fa437ccf0c702effcffd" target="_top" xlink:title="cellsociety_team05.Master.play">
<polygon fill="white" stroke="black" points="213.5,-207.5 213.5,-226.5 380.5,-226.5 380.5,-207.5 213.5,-207.5"/>
<text text-anchor="middle" x="297" y="-214.5" font-family="Helvetica,sans-Serif" font-size="10.00">cellsociety_team05.Master.play</text>
</a>
</g>
</g>
<!-- Node1&#45;&gt;Node23 -->
<g id="edge22" class="edge"><title>Node1&#45;&gt;Node23</title>
<path fill="none" stroke="midnightblue" d="M135.725,-188.54C164.98,-193.735 201.369,-200.196 232.076,-205.649"/>
<polygon fill="midnightblue" stroke="midnightblue" points="231.795,-209.154 242.253,-207.456 233.019,-202.262 231.795,-209.154"/>
</g>
<!-- Node32 -->
<g id="node32" class="node"><title>Node32</title>
<g id="a_node32"><a xlink:href="../../df/dd6/classcellsociety__team05_1_1_initializer.html#a27fd92c138189041dcd519cff632d61e" target="_top" xlink:title="cellsociety_team05.Initializer.readXML">
<polygon fill="white" stroke="black" points="198.5,-131.5 198.5,-150.5 395.5,-150.5 395.5,-131.5 198.5,-131.5"/>
<text text-anchor="middle" x="297" y="-138.5" font-family="Helvetica,sans-Serif" font-size="10.00">cellsociety_team05.Initializer.readXML</text>
</a>
</g>
</g>
<!-- Node1&#45;&gt;Node32 -->
<g id="edge31" class="edge"><title>Node1&#45;&gt;Node32</title>
<path fill="none" stroke="midnightblue" d="M135.725,-169.46C164.98,-164.265 201.369,-157.804 232.076,-152.351"/>
<polygon fill="midnightblue" stroke="midnightblue" points="233.019,-155.738 242.253,-150.544 231.795,-148.846 233.019,-155.738"/>
</g>
<!-- Node33 -->
<g id="node33" class="node"><title>Node33</title>
<g id="a_node33"><a xlink:href="../../d5/d80/classerror_1_1_x_m_l_not_found_exception.html#abf33f412c1b987517e43b10021909e5f" target="_top" xlink:title="error.XMLNotFoundException.return\lDefaultSim">
<polygon fill="white" stroke="black" points="203.5,-82 203.5,-112 390.5,-112 390.5,-82 203.5,-82"/>
<text text-anchor="start" x="211.5" y="-100" font-family="Helvetica,sans-Serif" font-size="10.00">error.XMLNotFoundException.return</text>
<text text-anchor="middle" x="297" y="-89" font-family="Helvetica,sans-Serif" font-size="10.00">DefaultSim</text>
</a>
</g>
</g>
<!-- Node1&#45;&gt;Node33 -->
<g id="edge32" class="edge"><title>Node1&#45;&gt;Node33</title>
<path fill="none" stroke="midnightblue" d="M98.8048,-169.359C120.943,-156.986 161.367,-135.507 198,-122 204.852,-119.473 212.065,-117.108 219.34,-114.918"/>
<polygon fill="midnightblue" stroke="midnightblue" points="220.64,-118.185 229.271,-112.041 218.692,-111.462 220.64,-118.185"/>
</g>
<!-- Node34 -->
<g id="node34" class="node"><title>Node34</title>
<g id="a_node34"><a xlink:href="../../df/dd6/classcellsociety__team05_1_1_initializer.html#abb7d4a529b0f347ca21442045dd4e3f3" target="_top" xlink:title="cellsociety_team05.Initializer.setup">
<polygon fill="white" stroke="black" points="205.5,-43.5 205.5,-62.5 388.5,-62.5 388.5,-43.5 205.5,-43.5"/>
<text text-anchor="middle" x="297" y="-50.5" font-family="Helvetica,sans-Serif" font-size="10.00">cellsociety_team05.Initializer.setup</text>
</a>
</g>
</g>
<!-- Node1&#45;&gt;Node34 -->
<g id="edge33" class="edge"><title>Node1&#45;&gt;Node34</title>
<path fill="none" stroke="midnightblue" d="M89.2045,-169.43C105.807,-148.128 149.103,-96.7325 198,-72 202.833,-69.5555 207.946,-67.4247 213.199,-65.5675"/>
<polygon fill="midnightblue" stroke="midnightblue" points="214.313,-68.8859 222.776,-62.5111 212.185,-62.2173 214.313,-68.8859"/>
</g>
<!-- Node36 -->
<g id="node36" class="node"><title>Node36</title>
<g id="a_node36"><a xlink:href="../../dc/d26/classutility_1_1_sim_data.html#acc4d2abaf2a354b4838b175eaa0e1514" target="_top" xlink:title="utility.SimData.simFPS">
<polygon fill="white" stroke="black" points="235,-5.5 235,-24.5 359,-24.5 359,-5.5 235,-5.5"/>
<text text-anchor="middle" x="297" y="-12.5" font-family="Helvetica,sans-Serif" font-size="10.00">utility.SimData.simFPS</text>
</a>
</g>
</g>
<!-- Node1&#45;&gt;Node36 -->
<g id="edge36" class="edge"><title>Node1&#45;&gt;Node36</title>
<path fill="none" stroke="midnightblue" d="M86.653,-169.278C99.9033,-142.732 140.617,-68.6924 198,-34 206.255,-29.0089 215.554,-25.29 225.052,-22.5261"/>
<polygon fill="midnightblue" stroke="midnightblue" points="226.17,-25.8528 234.987,-19.9781 224.431,-19.0722 226.17,-25.8528"/>
</g>
<!-- Node3 -->
<g id="node3" class="node"><title>Node3</title>
<g id="a_node3"><a xlink:href="../../dc/d96/classutility_1_1_map_copier.html#a3308fa4bb52f888a9059da1c1d8380c0" target="_top" xlink:title="utility.MapCopier.copyOf\lArray">
<polygon fill="white" stroke="black" points="450,-492 450,-522 580,-522 580,-492 450,-492"/>
<text text-anchor="start" x="458" y="-510" font-family="Helvetica,sans-Serif" font-size="10.00">utility.MapCopier.copyOf</text>
<text text-anchor="middle" x="515" y="-499" font-family="Helvetica,sans-Serif" font-size="10.00">Array</text>
</a>
</g>
</g>
<!-- Node2&#45;&gt;Node3 -->
<g id="edge2" class="edge"><title>Node2&#45;&gt;Node3</title>
<path fill="none" stroke="midnightblue" d="M364.57,-507C388.323,-507 415.228,-507 439.598,-507"/>
<polygon fill="midnightblue" stroke="midnightblue" points="439.87,-510.5 449.87,-507 439.87,-503.5 439.87,-510.5"/>
</g>
<!-- Node4 -->
<g id="node4" class="node"><title>Node4</title>
<g id="a_node4"><a xlink:href="../../d9/d7b/classsimulations_1_1_sim.html#afc6df6fab0b427978dff42e7ef600759" target="_top" xlink:title="simulations.Sim.simTitle">
<polygon fill="white" stroke="black" points="448.5,-541.5 448.5,-560.5 581.5,-560.5 581.5,-541.5 448.5,-541.5"/>
<text text-anchor="middle" x="515" y="-548.5" font-family="Helvetica,sans-Serif" font-size="10.00">simulations.Sim.simTitle</text>
</a>
</g>
</g>
<!-- Node2&#45;&gt;Node4 -->
<g id="edge3" class="edge"><title>Node2&#45;&gt;Node4</title>
<path fill="none" stroke="midnightblue" d="M344.869,-516.547C377.844,-523.265 422.156,-532.291 457.152,-539.42"/>
<polygon fill="midnightblue" stroke="midnightblue" points="456.725,-542.905 467.223,-541.471 458.123,-536.046 456.725,-542.905"/>
</g>
<!-- Node7 -->
<g id="node7" class="node"><title>Node7</title>
<g id="a_node7"><a xlink:href="../../d9/d7b/classsimulations_1_1_sim.html#a8053def01cba47bd9c66e26745495087" target="_top" xlink:title="simulations.Sim.populate">
<polygon fill="white" stroke="black" points="654,-27.5 654,-46.5 792,-46.5 792,-27.5 654,-27.5"/>
<text text-anchor="middle" x="723" y="-34.5" font-family="Helvetica,sans-Serif" font-size="10.00">simulations.Sim.populate</text>
</a>
</g>
</g>
<!-- Node6&#45;&gt;Node7 -->
<g id="edge6" class="edge"><title>Node6&#45;&gt;Node7</title>
<path fill="none" stroke="midnightblue" d="M580.614,-47.9814C600.591,-46.4299 622.814,-44.7037 643.616,-43.0881"/>
<polygon fill="midnightblue" stroke="midnightblue" points="643.998,-46.5691 653.697,-42.3051 643.456,-39.5901 643.998,-46.5691"/>
</g>
<!-- Node8 -->
<g id="node8" class="node"><title>Node8</title>
<g id="a_node8"><a xlink:href="../../d9/d7b/classsimulations_1_1_sim.html#adbed7e9c387ef5889ce9cf6c7c302ef3" target="_top" xlink:title="simulations.Sim.fillCell">
<polygon fill="white" stroke="black" points="870.5,-19.5 870.5,-38.5 993.5,-38.5 993.5,-19.5 870.5,-19.5"/>
<text text-anchor="middle" x="932" y="-26.5" font-family="Helvetica,sans-Serif" font-size="10.00">simulations.Sim.fillCell</text>
</a>
</g>
</g>
<!-- Node7&#45;&gt;Node8 -->
<g id="edge7" class="edge"><title>Node7&#45;&gt;Node8</title>
<path fill="none" stroke="midnightblue" d="M792.066,-34.3694C813.836,-33.5281 837.984,-32.5948 859.959,-31.7455"/>
<polygon fill="midnightblue" stroke="midnightblue" points="860.361,-35.2327 870.219,-31.349 860.091,-28.2379 860.361,-35.2327"/>
</g>
<!-- Node9 -->
<g id="node9" class="node"><title>Node9</title>
<g id="a_node9"><a xlink:href="../../d9/d7b/classsimulations_1_1_sim.html#a16809fc8db2a3e21f8169a487aeff124" target="_top" xlink:title="simulations.Sim.checkCell">
<polygon fill="white" stroke="black" points="1075.5,-38.5 1075.5,-57.5 1216.5,-57.5 1216.5,-38.5 1075.5,-38.5"/>
<text text-anchor="middle" x="1146" y="-45.5" font-family="Helvetica,sans-Serif" font-size="10.00">simulations.Sim.checkCell</text>
</a>
</g>
</g>
<!-- Node8&#45;&gt;Node9 -->
<g id="edge8" class="edge"><title>Node8&#45;&gt;Node9</title>
<path fill="none" stroke="midnightblue" d="M993.751,-34.4446C1016.02,-36.4404 1041.57,-38.7301 1065.25,-40.8527"/>
<polygon fill="midnightblue" stroke="midnightblue" points="1065,-44.344 1075.27,-41.7507 1065.62,-37.372 1065,-44.344"/>
</g>
<!-- Node10 -->
<g id="node10" class="node"><title>Node10</title>
<g id="a_node10"><a xlink:href="../../d9/d7b/classsimulations_1_1_sim.html#a4da2ab43816b7e030ba62c1a10c82cf6" target="_top" xlink:title="simulations.Sim.setCell">
<polygon fill="white" stroke="black" points="1082,-0.5 1082,-19.5 1210,-19.5 1210,-0.5 1082,-0.5"/>
<text text-anchor="middle" x="1146" y="-7.5" font-family="Helvetica,sans-Serif" font-size="10.00">simulations.Sim.setCell</text>
</a>
</g>
</g>
<!-- Node8&#45;&gt;Node10 -->
<g id="edge9" class="edge"><title>Node8&#45;&gt;Node10</title>
<path fill="none" stroke="midnightblue" d="M993.751,-23.5554C1018.05,-21.3772 1046.26,-18.8489 1071.69,-16.57"/>
<polygon fill="midnightblue" stroke="midnightblue" points="1072.01,-20.0558 1081.66,-15.677 1071.38,-13.0837 1072.01,-20.0558"/>
</g>
<!-- Node12 -->
<g id="node12" class="node"><title>Node12</title>
<g id="a_node12"><a xlink:href="../../d1/d85/classutility_1_1_color_picker.html#a2bbe92796cec2866c8aac7f7576dbb34" target="_top" xlink:title="utility.ColorPicker.setColors">
<polygon fill="white" stroke="black" points="443,-218.5 443,-237.5 587,-237.5 587,-218.5 443,-218.5"/>
<text text-anchor="middle" x="515" y="-225.5" font-family="Helvetica,sans-Serif" font-size="10.00">utility.ColorPicker.setColors</text>
</a>
</g>
</g>
<!-- Node11&#45;&gt;Node12 -->
<g id="edge11" class="edge"><title>Node11&#45;&gt;Node12</title>
<path fill="none" stroke="midnightblue" d="M368.129,-254.338C394.881,-249.508 425.183,-244.036 451.21,-239.337"/>
<polygon fill="midnightblue" stroke="midnightblue" points="452.112,-242.731 461.331,-237.51 450.868,-235.842 452.112,-242.731"/>
</g>
<!-- Node13 -->
<g id="node13" class="node"><title>Node13</title>
<g id="a_node13"><a xlink:href="../../df/d60/classutility_1_1_grid_filler.html#a30e2905099098e9d06cb1d22339af1c7" target="_top" xlink:title="utility.GridFiller.fill">
<polygon fill="white" stroke="black" points="467,-180.5 467,-199.5 563,-199.5 563,-180.5 467,-180.5"/>
<text text-anchor="middle" x="515" y="-187.5" font-family="Helvetica,sans-Serif" font-size="10.00">utility.GridFiller.fill</text>
</a>
</g>
</g>
<!-- Node11&#45;&gt;Node13 -->
<g id="edge12" class="edge"><title>Node11&#45;&gt;Node13</title>
<path fill="none" stroke="midnightblue" d="M356.812,-251.942C370.045,-247.591 383.78,-242.283 396,-236 413.786,-226.854 413.868,-217.439 432,-209 439.893,-205.326 448.554,-202.334 457.197,-199.904"/>
<polygon fill="midnightblue" stroke="midnightblue" points="458.101,-203.285 466.906,-197.393 456.349,-196.508 458.101,-203.285"/>
</g>
<!-- Node15 -->
<g id="node15" class="node"><title>Node15</title>
<g id="a_node15"><a xlink:href="../../d9/dd0/classcellsociety__team05_1_1_scene_updater.html#a545cdd62a8b34d5d85411323a3395bf7" target="_top" xlink:title="cellsociety_team05.Scene\lUpdater.returnGUI">
<polygon fill="white" stroke="black" points="444,-131 444,-161 586,-161 586,-131 444,-131"/>
<text text-anchor="start" x="452" y="-149" font-family="Helvetica,sans-Serif" font-size="10.00">cellsociety_team05.Scene</text>
<text text-anchor="middle" x="515" y="-138" font-family="Helvetica,sans-Serif" font-size="10.00">Updater.returnGUI</text>
</a>
</g>
</g>
<!-- Node11&#45;&gt;Node15 -->
<g id="edge14" class="edge"><title>Node11&#45;&gt;Node15</title>
<path fill="none" stroke="midnightblue" d="M368.054,-252.129C378.09,-247.996 387.782,-242.723 396,-236 421.56,-215.089 406.331,-191.777 432,-171 434.075,-169.32 436.262,-167.753 438.535,-166.292"/>
<polygon fill="midnightblue" stroke="midnightblue" points="440.668,-169.107 447.672,-161.158 437.24,-163.005 440.668,-169.107"/>
</g>
<!-- Node16 -->
<g id="node16" class="node"><title>Node16</title>
<g id="a_node16"><a xlink:href="../../d2/d60/classanimation_1_1_g_u_i_creator.html#a02433f642bdae8ac5c8f6485f71c0c2b" target="_top" xlink:title="animation.GUICreator.param\lLabels">
<polygon fill="white" stroke="black" points="437.5,-443 437.5,-473 592.5,-473 592.5,-443 437.5,-443"/>
<text text-anchor="start" x="445.5" y="-461" font-family="Helvetica,sans-Serif" font-size="10.00">animation.GUICreator.param</text>
<text text-anchor="middle" x="515" y="-450" font-family="Helvetica,sans-Serif" font-size="10.00">Labels</text>
</a>
</g>
</g>
<!-- Node11&#45;&gt;Node16 -->
<g id="edge15" class="edge"><title>Node11&#45;&gt;Node16</title>
<path fill="none" stroke="midnightblue" d="M368.276,-275.05C378.584,-278.868 388.301,-284.303 396,-292 441.738,-337.729 387.329,-386.228 432,-433 433.388,-434.453 434.857,-435.822 436.396,-437.113"/>
<polygon fill="midnightblue" stroke="midnightblue" points="434.424,-440.005 444.608,-442.929 438.47,-434.293 434.424,-440.005"/>
</g>
<!-- Node17 -->
<g id="node17" class="node"><title>Node17</title>
<g id="a_node17"><a xlink:href="../../da/d16/classanimation_1_1_animated_graph.html#a5044ded5b535e0e440c6d1d5ce4585c8" target="_top" xlink:title="animation.AnimatedGraph.init">
<polygon fill="white" stroke="black" points="434.5,-404.5 434.5,-423.5 595.5,-423.5 595.5,-404.5 434.5,-404.5"/>
<text text-anchor="middle" x="515" y="-411.5" font-family="Helvetica,sans-Serif" font-size="10.00">animation.AnimatedGraph.init</text>
</a>
</g>
</g>
<!-- Node11&#45;&gt;Node17 -->
<g id="edge16" class="edge"><title>Node11&#45;&gt;Node17</title>
<path fill="none" stroke="midnightblue" d="M368.199,-275.838C378.393,-279.57 388.095,-284.773 396,-292 431.48,-324.438 396.349,-361.749 432,-394 434.316,-396.095 436.815,-397.98 439.45,-399.675"/>
<polygon fill="midnightblue" stroke="midnightblue" points="437.814,-402.77 448.271,-404.468 441.156,-396.619 437.814,-402.77"/>
</g>
<!-- Node19 -->
<g id="node19" class="node"><title>Node19</title>
<g id="a_node19"><a xlink:href="../../d2/d60/classanimation_1_1_g_u_i_creator.html#a9e1146fc27571ad138c4718cd237494b" target="_top" xlink:title="animation.GUICreator.add\lButtonGrid">
<polygon fill="white" stroke="black" points="444.5,-355 444.5,-385 585.5,-385 585.5,-355 444.5,-355"/>
<text text-anchor="start" x="452.5" y="-373" font-family="Helvetica,sans-Serif" font-size="10.00">animation.GUICreator.add</text>
<text text-anchor="middle" x="515" y="-362" font-family="Helvetica,sans-Serif" font-size="10.00">ButtonGrid</text>
</a>
</g>
</g>
<!-- Node11&#45;&gt;Node19 -->
<g id="edge18" class="edge"><title>Node11&#45;&gt;Node19</title>
<path fill="none" stroke="midnightblue" d="M368.228,-278.232C378.075,-281.667 387.664,-286.15 396,-292 419.308,-308.358 409.076,-328.108 432,-345 434.636,-346.942 437.424,-348.735 440.32,-350.391"/>
<polygon fill="midnightblue" stroke="midnightblue" points="438.781,-353.535 449.281,-354.954 441.958,-347.297 438.781,-353.535"/>
</g>
<!-- Node20 -->
<g id="node20" class="node"><title>Node20</title>
<g id="a_node20"><a xlink:href="../../d2/d60/classanimation_1_1_g_u_i_creator.html#a66bb402660c9929c3b89d9625728ef1e" target="_top" xlink:title="animation.GUICreator.fps\lSlider">
<polygon fill="white" stroke="black" points="446.5,-306 446.5,-336 583.5,-336 583.5,-306 446.5,-306"/>
<text text-anchor="start" x="454.5" y="-324" font-family="Helvetica,sans-Serif" font-size="10.00">animation.GUICreator.fps</text>
<text text-anchor="middle" x="515" y="-313" font-family="Helvetica,sans-Serif" font-size="10.00">Slider</text>
</a>
</g>
</g>
<!-- Node11&#45;&gt;Node20 -->
<g id="edge19" class="edge"><title>Node11&#45;&gt;Node20</title>
<path fill="none" stroke="midnightblue" d="M358.168,-282.042C384.739,-288.685 416.151,-296.538 443.786,-303.446"/>
<polygon fill="midnightblue" stroke="midnightblue" points="443.23,-306.915 453.78,-305.945 444.928,-300.124 443.23,-306.915"/>
</g>
<!-- Node22 -->
<g id="node22" class="node"><title>Node22</title>
<g id="a_node22"><a xlink:href="../../d2/d60/classanimation_1_1_g_u_i_creator.html#aad6a5704677eac1c4eb00bb8fb6ee42e" target="_top" xlink:title="animation.GUICreator.param\lSliders">
<polygon fill="white" stroke="black" points="437.5,-257 437.5,-287 592.5,-287 592.5,-257 437.5,-257"/>
<text text-anchor="start" x="445.5" y="-275" font-family="Helvetica,sans-Serif" font-size="10.00">animation.GUICreator.param</text>
<text text-anchor="middle" x="515" y="-264" font-family="Helvetica,sans-Serif" font-size="10.00">Sliders</text>
</a>
</g>
</g>
<!-- Node11&#45;&gt;Node22 -->
<g id="edge21" class="edge"><title>Node11&#45;&gt;Node22</title>
<path fill="none" stroke="midnightblue" d="M368.129,-268.623C386.906,-269.058 407.432,-269.533 427.001,-269.986"/>
<polygon fill="midnightblue" stroke="midnightblue" points="427.054,-273.488 437.132,-270.221 427.216,-266.49 427.054,-273.488"/>
</g>
<!-- Node14 -->
<g id="node14" class="node"><title>Node14</title>
<g id="a_node14"><a xlink:href="../../d6/dff/classutility_1_1_cell_gen.html#a3a8e739f206100620d83c9a293902584" target="_top" xlink:title="utility.CellGen.makeShape">
<polygon fill="white" stroke="black" points="652.5,-180.5 652.5,-199.5 793.5,-199.5 793.5,-180.5 652.5,-180.5"/>
<text text-anchor="middle" x="723" y="-187.5" font-family="Helvetica,sans-Serif" font-size="10.00">utility.CellGen.makeShape</text>
</a>
</g>
</g>
<!-- Node13&#45;&gt;Node14 -->
<g id="edge13" class="edge"><title>Node13&#45;&gt;Node14</title>
<path fill="none" stroke="midnightblue" d="M563.002,-190C586.378,-190 615.282,-190 642.008,-190"/>
<polygon fill="midnightblue" stroke="midnightblue" points="642.129,-193.5 652.129,-190 642.129,-186.5 642.129,-193.5"/>
</g>
<!-- Node18 -->
<g id="node18" class="node"><title>Node18</title>
<g id="a_node18"><a xlink:href="../../da/d16/classanimation_1_1_animated_graph.html#a150d323ef1d77399b14739d2fa245021" target="_top" xlink:title="animation.AnimatedGraph.create\lAddSeries">
<polygon fill="white" stroke="black" points="634.5,-399 634.5,-429 811.5,-429 811.5,-399 634.5,-399"/>
<text text-anchor="start" x="642.5" y="-417" font-family="Helvetica,sans-Serif" font-size="10.00">animation.AnimatedGraph.create</text>
<text text-anchor="middle" x="723" y="-406" font-family="Helvetica,sans-Serif" font-size="10.00">AddSeries</text>
</a>
</g>
</g>
<!-- Node17&#45;&gt;Node18 -->
<g id="edge17" class="edge"><title>Node17&#45;&gt;Node18</title>
<path fill="none" stroke="midnightblue" d="M595.645,-414C604.957,-414 614.538,-414 624.062,-414"/>
<polygon fill="midnightblue" stroke="midnightblue" points="624.357,-417.5 634.357,-414 624.357,-410.5 624.357,-417.5"/>
</g>
<!-- Node21 -->
<g id="node21" class="node"><title>Node21</title>
<g id="a_node21"><a xlink:href="../../d2/d60/classanimation_1_1_g_u_i_creator.html#a5bc0f0e5c1557be5cc7c752ea2d8fc8c" target="_top" xlink:title="animation.GUICreator.make\lSlider">
<polygon fill="white" stroke="black" points="648,-306 648,-336 798,-336 798,-306 648,-306"/>
<text text-anchor="start" x="656" y="-324" font-family="Helvetica,sans-Serif" font-size="10.00">animation.GUICreator.make</text>
<text text-anchor="middle" x="723" y="-313" font-family="Helvetica,sans-Serif" font-size="10.00">Slider</text>
</a>
</g>
</g>
<!-- Node20&#45;&gt;Node21 -->
<g id="edge20" class="edge"><title>Node20&#45;&gt;Node21</title>
<path fill="none" stroke="midnightblue" d="M583.737,-321C600.973,-321 619.706,-321 637.657,-321"/>
<polygon fill="midnightblue" stroke="midnightblue" points="637.825,-324.5 647.825,-321 637.825,-317.5 637.825,-324.5"/>
</g>
<!-- Node24 -->
<g id="node24" class="node"><title>Node24</title>
<g id="a_node24"><a xlink:href="../../d6/da5/classcellsociety__team05_1_1_master.html#a9e0818f6e4d1389a401b337b2c5c9f81" target="_top" xlink:title="cellsociety_team05.Master.add\lKeyFrame">
<polygon fill="white" stroke="black" points="432.5,-82 432.5,-112 597.5,-112 597.5,-82 432.5,-82"/>
<text text-anchor="start" x="440.5" y="-100" font-family="Helvetica,sans-Serif" font-size="10.00">cellsociety_team05.Master.add</text>
<text text-anchor="middle" x="515" y="-89" font-family="Helvetica,sans-Serif" font-size="10.00">KeyFrame</text>
</a>
</g>
</g>
<!-- Node23&#45;&gt;Node24 -->
<g id="edge23" class="edge"><title>Node23&#45;&gt;Node24</title>
<path fill="none" stroke="midnightblue" d="M369.191,-207.422C378.849,-203.955 388.128,-199.283 396,-193 423.961,-170.68 404.543,-143.937 432,-121 433.537,-119.716 435.14,-118.501 436.797,-117.351"/>
<polygon fill="midnightblue" stroke="midnightblue" points="438.722,-120.277 445.489,-112.125 435.115,-114.278 438.722,-120.277"/>
</g>
<!-- Node25 -->
<g id="node25" class="node"><title>Node25</title>
<g id="a_node25"><a xlink:href="../../d6/da5/classcellsociety__team05_1_1_master.html#aef1f14e30284edb3e1f8c0c5636de390" target="_top" xlink:title="cellsociety_team05.Master.evolve">
<polygon fill="white" stroke="black" points="634,-117.5 634,-136.5 812,-136.5 812,-117.5 634,-117.5"/>
<text text-anchor="middle" x="723" y="-124.5" font-family="Helvetica,sans-Serif" font-size="10.00">cellsociety_team05.Master.evolve</text>
</a>
</g>
</g>
<!-- Node24&#45;&gt;Node25 -->
<g id="edge24" class="edge"><title>Node24&#45;&gt;Node25</title>
<path fill="none" stroke="midnightblue" d="M597.713,-108.9C613.746,-111.235 630.499,-113.675 646.325,-115.979"/>
<polygon fill="midnightblue" stroke="midnightblue" points="646.174,-119.494 656.574,-117.472 647.183,-112.567 646.174,-119.494"/>
</g>
<!-- Node26 -->
<g id="node26" class="node"><title>Node26</title>
<g id="a_node26"><a xlink:href="../../d9/d7b/classsimulations_1_1_sim.html#ae840fd3e0813718f05bee889fb097fcc" target="_top" xlink:title="simulations.Sim.cellProportions">
<polygon fill="white" stroke="black" points="848.5,-183.5 848.5,-202.5 1015.5,-202.5 1015.5,-183.5 848.5,-183.5"/>
<text text-anchor="middle" x="932" y="-190.5" font-family="Helvetica,sans-Serif" font-size="10.00">simulations.Sim.cellProportions</text>
</a>
</g>
</g>
<!-- Node25&#45;&gt;Node26 -->
<g id="edge25" class="edge"><title>Node25&#45;&gt;Node26</title>
<path fill="none" stroke="midnightblue" d="M747.486,-136.665C772.214,-146.615 812.419,-162.155 848,-173 857.464,-175.885 867.636,-178.625 877.502,-181.099"/>
<polygon fill="midnightblue" stroke="midnightblue" points="876.684,-184.502 887.23,-183.481 878.349,-177.703 876.684,-184.502"/>
</g>
<!-- Node27 -->
<g id="node27" class="node"><title>Node27</title>
<g id="a_node27"><a xlink:href="../../d9/dd0/classcellsociety__team05_1_1_scene_updater.html#abc68af978ebd0da668f37510dd34aaf4" target="_top" xlink:title="cellsociety_team05.Scene\lUpdater.newParams">
<polygon fill="white" stroke="black" points="861,-134 861,-164 1003,-164 1003,-134 861,-134"/>
<text text-anchor="start" x="869" y="-152" font-family="Helvetica,sans-Serif" font-size="10.00">cellsociety_team05.Scene</text>
<text text-anchor="middle" x="932" y="-141" font-family="Helvetica,sans-Serif" font-size="10.00">Updater.newParams</text>
</a>
</g>
</g>
<!-- Node25&#45;&gt;Node27 -->
<g id="edge26" class="edge"><title>Node25&#45;&gt;Node27</title>
<path fill="none" stroke="midnightblue" d="M812.087,-136.362C824.937,-137.728 838.112,-139.128 850.795,-140.476"/>
<polygon fill="midnightblue" stroke="midnightblue" points="850.531,-143.967 860.845,-141.544 851.271,-137.007 850.531,-143.967"/>
</g>
<!-- Node28 -->
<g id="node28" class="node"><title>Node28</title>
<g id="a_node28"><a xlink:href="../../d9/d7b/classsimulations_1_1_sim.html#a864a4b1e5ab91624cd70ed9fbdc855ac" target="_top" xlink:title="simulations.Sim.nextGen">
<polygon fill="white" stroke="black" points="863.5,-95.5 863.5,-114.5 1000.5,-114.5 1000.5,-95.5 863.5,-95.5"/>
<text text-anchor="middle" x="932" y="-102.5" font-family="Helvetica,sans-Serif" font-size="10.00">simulations.Sim.nextGen</text>
</a>
</g>
</g>
<!-- Node25&#45;&gt;Node28 -->
<g id="edge27" class="edge"><title>Node25&#45;&gt;Node28</title>
<path fill="none" stroke="midnightblue" d="M812.087,-117.638C825.766,-116.184 839.813,-114.691 853.242,-113.264"/>
<polygon fill="midnightblue" stroke="midnightblue" points="853.801,-116.725 863.375,-112.187 853.061,-109.764 853.801,-116.725"/>
</g>
<!-- Node29 -->
<g id="node29" class="node"><title>Node29</title>
<g id="a_node29"><a xlink:href="../../d9/d7b/classsimulations_1_1_sim.html#aae4b6d35eccef9920616ce7a2fb86794" target="_top" xlink:title="simulations.Sim.setNewParams">
<polygon fill="white" stroke="black" points="848.5,-57.5 848.5,-76.5 1015.5,-76.5 1015.5,-57.5 848.5,-57.5"/>
<text text-anchor="middle" x="932" y="-64.5" font-family="Helvetica,sans-Serif" font-size="10.00">simulations.Sim.setNewParams</text>
</a>
</g>
</g>
<!-- Node25&#45;&gt;Node29 -->
<g id="edge28" class="edge"><title>Node25&#45;&gt;Node29</title>
<path fill="none" stroke="midnightblue" d="M750.385,-117.472C775.337,-108.654 813.931,-95.5091 848,-86 856.888,-83.5193 866.376,-81.1187 875.644,-78.9067"/>
<polygon fill="midnightblue" stroke="midnightblue" points="876.633,-82.2697 885.574,-76.5855 875.04,-75.4535 876.633,-82.2697"/>
</g>
<!-- Node30 -->
<g id="node30" class="node"><title>Node30</title>
<g id="a_node30"><a xlink:href="../../d9/dd0/classcellsociety__team05_1_1_scene_updater.html#a426e94fe0be8484ef5796171e64f8a3a" target="_top" xlink:title="cellsociety_team05.Scene\lUpdater.updateGraph">
<polygon fill="white" stroke="black" points="861,-222 861,-252 1003,-252 1003,-222 861,-222"/>
<text text-anchor="start" x="869" y="-240" font-family="Helvetica,sans-Serif" font-size="10.00">cellsociety_team05.Scene</text>
<text text-anchor="middle" x="932" y="-229" font-family="Helvetica,sans-Serif" font-size="10.00">Updater.updateGraph</text>
</a>
</g>
</g>
<!-- Node25&#45;&gt;Node30 -->
<g id="edge29" class="edge"><title>Node25&#45;&gt;Node30</title>
<path fill="none" stroke="midnightblue" d="M749.384,-136.593C767.818,-144.27 792.793,-156.187 812,-171 831.202,-185.809 827.602,-198.885 848,-212 851.161,-214.032 854.494,-215.906 857.937,-217.632"/>
<polygon fill="midnightblue" stroke="midnightblue" points="856.71,-220.919 867.262,-221.867 859.604,-214.545 856.71,-220.919"/>
</g>
<!-- Node31 -->
<g id="node31" class="node"><title>Node31</title>
<g id="a_node31"><a xlink:href="../../da/d16/classanimation_1_1_animated_graph.html#a784a1784f9e1ad102bcc7e194da19c44" target="_top" xlink:title="animation.AnimatedGraph.addData">
<polygon fill="white" stroke="black" points="1052,-227.5 1052,-246.5 1240,-246.5 1240,-227.5 1052,-227.5"/>
<text text-anchor="middle" x="1146" y="-234.5" font-family="Helvetica,sans-Serif" font-size="10.00">animation.AnimatedGraph.addData</text>
</a>
</g>
</g>
<!-- Node30&#45;&gt;Node31 -->
<g id="edge30" class="edge"><title>Node30&#45;&gt;Node31</title>
<path fill="none" stroke="midnightblue" d="M1003,-237C1015.28,-237 1028.29,-237 1041.25,-237"/>
<polygon fill="midnightblue" stroke="midnightblue" points="1041.62,-240.5 1051.62,-237 1041.62,-233.5 1041.62,-240.5"/>
</g>
<!-- Node34&#45;&gt;Node6 -->
<g id="edge34" class="edge"><title>Node34&#45;&gt;Node6</title>
<path fill="none" stroke="midnightblue" d="M388.665,-53C405.587,-53 423.093,-53 439.461,-53"/>
<polygon fill="midnightblue" stroke="midnightblue" points="439.489,-56.5001 449.489,-53 439.489,-49.5001 439.489,-56.5001"/>
</g>
<!-- Node35 -->
<g id="node35" class="node"><title>Node35</title>
<g id="a_node35"><a xlink:href="../../d3/dcc/classutility_1_1_reader.html#a69e7980c5726194ebc4f42f6baf66ca1" target="_top" xlink:title="utility.Reader.returnSim">
<polygon fill="white" stroke="black" points="451.5,-5.5 451.5,-24.5 578.5,-24.5 578.5,-5.5 451.5,-5.5"/>
<text text-anchor="middle" x="515" y="-12.5" font-family="Helvetica,sans-Serif" font-size="10.00">utility.Reader.returnSim</text>
</a>
</g>
</g>
<!-- Node34&#45;&gt;Node35 -->
<g id="edge35" class="edge"><title>Node34&#45;&gt;Node35</title>
<path fill="none" stroke="midnightblue" d="M352.227,-43.46C381.884,-38.2426 418.804,-31.7475 449.882,-26.28"/>
<polygon fill="midnightblue" stroke="midnightblue" points="450.508,-29.7237 459.751,-24.5439 449.295,-22.8295 450.508,-29.7237"/>
</g>
</g>
</svg>
        <g id="navigator" transform="translate(0 0)" fill="#404254">
                <rect fill="#f2f5e9" fill-opacity="0.5" stroke="#606060" stroke-width=".5" x="0" y="0" width="60" height="60"/>
                <use id="zoomplus" xlink:href="#zoomPlus" x="17" y="9" onmousedown="handleZoom(evt,'in')"/>
                <use id="zoomminus" xlink:href="#zoomMin" x="42" y="9" onmousedown="handleZoom(evt,'out')"/>
                <use id="reset" xlink:href="#resetDef" x="30" y="36" onmousedown="handleReset()"/>
                <g id="arrowUp" xlink:href="#dirArrow" transform="translate(30 24)" onmousedown="handlePan(0,-1)">
                  <use xlink:href="#rim" fill="#404040">
                        <set attributeName="fill" to="#808080" begin="arrowUp.mouseover" end="arrowUp.mouseout"/>
                  </use>
                  <path fill="none" stroke="white" stroke-width="1.5" d="M0,-3.0v7 M-2.5,-0.5L0,-3.0L2.5,-0.5"/>
                </g>
                <g id="arrowRight" xlink:href="#dirArrow" transform="rotate(90) translate(36 -43)" onmousedown="handlePan(1,0)">
                  <use xlink:href="#rim" fill="#404040">
                        <set attributeName="fill" to="#808080" begin="arrowRight.mouseover" end="arrowRight.mouseout"/>
                  </use>
                  <path fill="none" stroke="white" stroke-width="1.5" d="M0,-3.0v7 M-2.5,-0.5L0,-3.0L2.5,-0.5"/>
                </g>
                <g id="arrowDown" xlink:href="#dirArrow" transform="rotate(180) translate(-30 -48)" onmousedown="handlePan(0,1)">
                  <use xlink:href="#rim" fill="#404040">
                        <set attributeName="fill" to="#808080" begin="arrowDown.mouseover" end="arrowDown.mouseout"/>
                  </use>
                  <path fill="none" stroke="white" stroke-width="1.5" d="M0,-3.0v7 M-2.5,-0.5L0,-3.0L2.5,-0.5"/>
                </g>
                <g id="arrowLeft" xlink:href="#dirArrow" transform="rotate(270) translate(-36 17)" onmousedown="handlePan(-1,0)">
                  <use xlink:href="#rim" fill="#404040">
                        <set attributeName="fill" to="#808080" begin="arrowLeft.mouseover" end="arrowLeft.mouseout"/>
                  </use>
                  <path fill="none" stroke="white" stroke-width="1.5" d="M0,-3.0v7 M-2.5,-0.5L0,-3.0L2.5,-0.5"/>
                </g>
        </g>
        <svg viewBox="0 0 15 15" width="100%" height="30px" preserveAspectRatio="xMaxYMin meet">
         <g id="arrow_out" transform="scale(0.3 0.3)">
          <a xlink:href="classcellsociety__team05_1_1_master_ac10570db09b5b348c023bbd5e1df801b_cgraph_org.svg" target="_base">
           <rect id="button" ry="5" rx="5" y="6" x="6" height="38" width="38"
                fill="#f2f5e9" fill-opacity="0.5" stroke="#606060" stroke-width="1.0"/>
           <path id="arrow"
             d="M 11.500037,31.436501 C 11.940474,20.09759 22.043105,11.32322 32.158766,21.979434 L 37.068811,17.246167 C 37.068811,17.246167 37.088388,32 37.088388,32 L 22.160133,31.978069 C 22.160133,31.978069 26.997745,27.140456 26.997745,27.140456 C 18.528582,18.264221 13.291696,25.230495 11.500037,31.436501 z"
             style="fill:#404040;"/>
          </a>
         </g>
        </svg>
</svg>
