<?xml version="1.0" encoding="UTF-8" standalone="no"?>
<!DOCTYPE svg PUBLIC "-//W3C//DTD SVG 1.1//EN"
 "http://www.w3.org/Graphics/SVG/1.1/DTD/svg11.dtd">
<!-- Generated by graphviz version 2.36.0 (20140111.2315)
 -->
<!-- Title: cellsociety_team05.Master.evolve Pages: 1 -->
<svg width="614pt" height="203pt"
 viewBox="0.00 0.00 614.00 203.00" xmlns="http://www.w3.org/2000/svg" xmlns:xlink="http://www.w3.org/1999/xlink">
<g id="graph0" class="graph" transform="scale(1 1) rotate(0) translate(4 199)">
<title>cellsociety_team05.Master.evolve</title>
<polygon fill="white" stroke="none" points="-4,4 -4,-199 610,-199 610,4 -4,4"/>
<!-- Node1 -->
<g id="node1" class="node"><title>Node1</title>
<polygon fill="#bfbfbf" stroke="black" points="0,-87.5 0,-106.5 178,-106.5 178,-87.5 0,-87.5"/>
<text text-anchor="middle" x="89" y="-94.5" font-family="Helvetica,sans-Serif" font-size="10.00">cellsociety_team05.Master.evolve</text>
</g>
<!-- Node2 -->
<g id="node2" class="node"><title>Node2</title>
<g id="a_node2"><a xlink:href="../../d9/d7b/classsimulations_1_1_sim.html#ae840fd3e0813718f05bee889fb097fcc" target="_top" xlink:title="simulations.Sim.cellProportions">
<polygon fill="white" stroke="black" points="214.5,-175.5 214.5,-194.5 381.5,-194.5 381.5,-175.5 214.5,-175.5"/>
<text text-anchor="middle" x="298" y="-182.5" font-family="Helvetica,sans-Serif" font-size="10.00">simulations.Sim.cellProportions</text>
</a>
</g>
</g>
<!-- Node1&#45;&gt;Node2 -->
<g id="edge1" class="edge"><title>Node1&#45;&gt;Node2</title>
<path fill="none" stroke="midnightblue" d="M104.646,-106.72C127.232,-121.312 172.323,-148.882 214,-165 221.75,-167.997 230.087,-170.641 238.38,-172.942"/>
<polygon fill="midnightblue" stroke="midnightblue" points="237.498,-176.329 248.06,-175.487 239.278,-169.559 237.498,-176.329"/>
</g>
<!-- Node3 -->
<g id="node3" class="node"><title>Node3</title>
<g id="a_node3"><a xlink:href="../../d9/dd0/classcellsociety__team05_1_1_scene_updater.html#abc68af978ebd0da668f37510dd34aaf4" target="_top" xlink:title="cellsociety_team05.Scene\lUpdater.newParams">
<polygon fill="white" stroke="black" points="227,-126 227,-156 369,-156 369,-126 227,-126"/>
<text text-anchor="start" x="235" y="-144" font-family="Helvetica,sans-Serif" font-size="10.00">cellsociety_team05.Scene</text>
<text text-anchor="middle" x="298" y="-133" font-family="Helvetica,sans-Serif" font-size="10.00">Updater.newParams</text>
</a>
</g>
</g>
<!-- Node1&#45;&gt;Node3 -->
<g id="edge2" class="edge"><title>Node1&#45;&gt;Node3</title>
<path fill="none" stroke="midnightblue" d="M134.916,-106.547C158.85,-111.635 189.015,-118.047 216.814,-123.956"/>
<polygon fill="midnightblue" stroke="midnightblue" points="216.424,-127.451 226.933,-126.106 217.879,-120.604 216.424,-127.451"/>
</g>
<!-- Node4 -->
<g id="node4" class="node"><title>Node4</title>
<g id="a_node4"><a xlink:href="../../d9/d7b/classsimulations_1_1_sim.html#a864a4b1e5ab91624cd70ed9fbdc855ac" target="_top" xlink:title="simulations.Sim.nextGen">
<polygon fill="white" stroke="black" points="229.5,-87.5 229.5,-106.5 366.5,-106.5 366.5,-87.5 229.5,-87.5"/>
<text text-anchor="middle" x="298" y="-94.5" font-family="Helvetica,sans-Serif" font-size="10.00">simulations.Sim.nextGen</text>
</a>
</g>
</g>
<!-- Node1&#45;&gt;Node4 -->
<g id="edge3" class="edge"><title>Node1&#45;&gt;Node4</title>
<path fill="none" stroke="midnightblue" d="M178.087,-97C191.766,-97 205.813,-97 219.242,-97"/>
<polygon fill="midnightblue" stroke="midnightblue" points="219.375,-100.5 229.375,-97 219.375,-93.5001 219.375,-100.5"/>
</g>
<!-- Node5 -->
<g id="node5" class="node"><title>Node5</title>
<g id="a_node5"><a xlink:href="../../d9/d7b/classsimulations_1_1_sim.html#aae4b6d35eccef9920616ce7a2fb86794" target="_top" xlink:title="simulations.Sim.setNewParams">
<polygon fill="white" stroke="black" points="214.5,-49.5 214.5,-68.5 381.5,-68.5 381.5,-49.5 214.5,-49.5"/>
<text text-anchor="middle" x="298" y="-56.5" font-family="Helvetica,sans-Serif" font-size="10.00">simulations.Sim.setNewParams</text>
</a>
</g>
</g>
<!-- Node1&#45;&gt;Node5 -->
<g id="edge4" class="edge"><title>Node1&#45;&gt;Node5</title>
<path fill="none" stroke="midnightblue" d="M141.968,-87.46C170.266,-82.2652 205.464,-75.8037 235.167,-70.3511"/>
<polygon fill="midnightblue" stroke="midnightblue" points="235.807,-73.792 245.011,-68.5439 234.543,-66.9071 235.807,-73.792"/>
</g>
<!-- Node6 -->
<g id="node6" class="node"><title>Node6</title>
<g id="a_node6"><a xlink:href="../../d9/dd0/classcellsociety__team05_1_1_scene_updater.html#a426e94fe0be8484ef5796171e64f8a3a" target="_top" xlink:title="cellsociety_team05.Scene\lUpdater.updateGraph">
<polygon fill="white" stroke="black" points="227,-0 227,-30 369,-30 369,-0 227,-0"/>
<text text-anchor="start" x="235" y="-18" font-family="Helvetica,sans-Serif" font-size="10.00">cellsociety_team05.Scene</text>
<text text-anchor="middle" x="298" y="-7" font-family="Helvetica,sans-Serif" font-size="10.00">Updater.updateGraph</text>
</a>
</g>
</g>
<!-- Node1&#45;&gt;Node6 -->
<g id="edge5" class="edge"><title>Node1&#45;&gt;Node6</title>
<path fill="none" stroke="midnightblue" d="M108.562,-87.4844C132.512,-75.4366 175.663,-54.5054 214,-40 220.242,-37.6384 226.811,-35.3449 233.408,-33.1666"/>
<polygon fill="midnightblue" stroke="midnightblue" points="234.609,-36.4569 243.057,-30.0633 232.466,-29.7931 234.609,-36.4569"/>
</g>
<!-- Node7 -->
<g id="node7" class="node"><title>Node7</title>
<g id="a_node7"><a xlink:href="../../da/d16/classanimation_1_1_animated_graph.html#a784a1784f9e1ad102bcc7e194da19c44" target="_top" xlink:title="animation.AnimatedGraph.addData">
<polygon fill="white" stroke="black" points="418,-5.5 418,-24.5 606,-24.5 606,-5.5 418,-5.5"/>
<text text-anchor="middle" x="512" y="-12.5" font-family="Helvetica,sans-Serif" font-size="10.00">animation.AnimatedGraph.addData</text>
</a>
</g>
</g>
<!-- Node6&#45;&gt;Node7 -->
<g id="edge6" class="edge"><title>Node6&#45;&gt;Node7</title>
<path fill="none" stroke="midnightblue" d="M369.004,-15C381.281,-15 394.288,-15 407.251,-15"/>
<polygon fill="midnightblue" stroke="midnightblue" points="407.622,-18.5001 417.622,-15 407.622,-11.5001 407.622,-18.5001"/>
</g>
</g>
</svg>
