<?xml version="1.0" encoding="UTF-8" standalone="no"?>
<!DOCTYPE svg PUBLIC "-//W3C//DTD SVG 1.1//EN"
 "http://www.w3.org/Graphics/SVG/1.1/DTD/svg11.dtd">
<!-- Generated by graphviz version 2.36.0 (20140111.2315)
 -->
<!-- Title: cellsociety_team05.Master.evolve Pages: 1 -->
<svg width="1396pt" height="77pt"
 viewBox="0.00 0.00 1396.00 77.00" xmlns="http://www.w3.org/2000/svg" xmlns:xlink="http://www.w3.org/1999/xlink">
<g id="graph0" class="graph" transform="scale(1 1) rotate(0) translate(4 73)">
<title>cellsociety_team05.Master.evolve</title>
<polygon fill="white" stroke="none" points="-4,4 -4,-73 1392,-73 1392,4 -4,4"/>
<!-- Node1 -->
<g id="node1" class="node"><title>Node1</title>
<polygon fill="#bfbfbf" stroke="black" points="0,-22.5 0,-41.5 178,-41.5 178,-22.5 0,-22.5"/>
<text text-anchor="middle" x="89" y="-29.5" font-family="Helvetica,sans-Serif" font-size="10.00">cellsociety_team05.Master.evolve</text>
</g>
<!-- Node2 -->
<g id="node2" class="node"><title>Node2</title>
<g id="a_node2"><a xlink:href="../../d6/da5/classcellsociety__team05_1_1_master.html#a9e0818f6e4d1389a401b337b2c5c9f81" target="_top" xlink:title="cellsociety_team05.Master.add\lKeyFrame">
<polygon fill="white" stroke="black" points="214.5,-17 214.5,-47 379.5,-47 379.5,-17 214.5,-17"/>
<text text-anchor="start" x="222.5" y="-35" font-family="Helvetica,sans-Serif" font-size="10.00">cellsociety_team05.Master.add</text>
<text text-anchor="middle" x="297" y="-24" font-family="Helvetica,sans-Serif" font-size="10.00">KeyFrame</text>
</a>
</g>
</g>
<!-- Node1&#45;&gt;Node2 -->
<g id="edge1" class="edge"><title>Node1&#45;&gt;Node2</title>
<path fill="none" stroke="midnightblue" d="M188.444,-32C197.15,-32 205.9,-32 214.444,-32"/>
<polygon fill="midnightblue" stroke="midnightblue" points="188.259,-28.5001 178.259,-32 188.259,-35.5001 188.259,-28.5001"/>
</g>
<!-- Node3 -->
<g id="node3" class="node"><title>Node3</title>
<g id="a_node3"><a xlink:href="../../d6/da5/classcellsociety__team05_1_1_master.html#ac07c303c9783fa437ccf0c702effcffd" target="_top" xlink:title="cellsociety_team05.Master.play">
<polygon fill="white" stroke="black" points="416.5,-22.5 416.5,-41.5 583.5,-41.5 583.5,-22.5 416.5,-22.5"/>
<text text-anchor="middle" x="500" y="-29.5" font-family="Helvetica,sans-Serif" font-size="10.00">cellsociety_team05.Master.play</text>
</a>
</g>
</g>
<!-- Node2&#45;&gt;Node3 -->
<g id="edge2" class="edge"><title>Node2&#45;&gt;Node3</title>
<path fill="none" stroke="midnightblue" d="M390.006,-32C398.787,-32 407.655,-32 416.339,-32"/>
<polygon fill="midnightblue" stroke="midnightblue" points="389.754,-28.5001 379.754,-32 389.754,-35.5001 389.754,-28.5001"/>
</g>
<!-- Node4 -->
<g id="node4" class="node"><title>Node4</title>
<g id="a_node4"><a xlink:href="../../d6/da5/classcellsociety__team05_1_1_master.html#ac10570db09b5b348c023bbd5e1df801b" target="_top" xlink:title="cellsociety_team05.Master.init">
<polygon fill="white" stroke="black" points="620.5,-22.5 620.5,-41.5 781.5,-41.5 781.5,-22.5 620.5,-22.5"/>
<text text-anchor="middle" x="701" y="-29.5" font-family="Helvetica,sans-Serif" font-size="10.00">cellsociety_team05.Master.init</text>
</a>
</g>
</g>
<!-- Node3&#45;&gt;Node4 -->
<g id="edge3" class="edge"><title>Node3&#45;&gt;Node4</title>
<path fill="none" stroke="midnightblue" d="M593.714,-32C602.655,-32 611.67,-32 620.467,-32"/>
<polygon fill="midnightblue" stroke="midnightblue" points="593.665,-28.5001 583.665,-32 593.665,-35.5001 593.665,-28.5001"/>
</g>
<!-- Node5 -->
<g id="node5" class="node"><title>Node5</title>
<g id="a_node5"><a xlink:href="../../d2/d60/classanimation_1_1_g_u_i_creator.html#a61c68b3e24b62788dab86e5240991107" target="_top" xlink:title="animation.GUICreator.load\lAction">
<polygon fill="white" stroke="black" points="826.5,-39 826.5,-69 969.5,-69 969.5,-39 826.5,-39"/>
<text text-anchor="start" x="834.5" y="-57" font-family="Helvetica,sans-Serif" font-size="10.00">animation.GUICreator.load</text>
<text text-anchor="middle" x="898" y="-46" font-family="Helvetica,sans-Serif" font-size="10.00">Action</text>
</a>
</g>
</g>
<!-- Node4&#45;&gt;Node5 -->
<g id="edge4" class="edge"><title>Node4&#45;&gt;Node5</title>
<path fill="none" stroke="midnightblue" d="M791.759,-42.1267C803.388,-43.4386 815.164,-44.7673 826.421,-46.0373"/>
<polygon fill="midnightblue" stroke="midnightblue" points="791.925,-38.6232 781.595,-40.98 791.14,-45.5791 791.925,-38.6232"/>
</g>
<!-- Node8 -->
<g id="node8" class="node"><title>Node8</title>
<g id="a_node8"><a xlink:href="../../de/d00/classcellsociety__team05_1_1_main.html#a7663311e53af8548f912c74dcc829624" target="_top" xlink:title="cellsociety_team05.Main.start">
<polygon fill="white" stroke="black" points="818,-0.5 818,-19.5 978,-19.5 978,-0.5 818,-0.5"/>
<text text-anchor="middle" x="898" y="-7.5" font-family="Helvetica,sans-Serif" font-size="10.00">cellsociety_team05.Main.start</text>
</a>
</g>
</g>
<!-- Node4&#45;&gt;Node8 -->
<g id="edge7" class="edge"><title>Node4&#45;&gt;Node8</title>
<path fill="none" stroke="midnightblue" d="M791.797,-21.8691C800.534,-20.8833 809.355,-19.8882 817.975,-18.9157"/>
<polygon fill="midnightblue" stroke="midnightblue" points="791.14,-18.4209 781.595,-23.02 791.925,-25.3768 791.14,-18.4209"/>
</g>
<!-- Node6 -->
<g id="node6" class="node"><title>Node6</title>
<g id="a_node6"><a xlink:href="../../d2/d60/classanimation_1_1_g_u_i_creator.html#ac4c8bd0d5bc08d30393866736d995aa5" target="_top" xlink:title="animation.GUICreator.addload\lXMLButton">
<polygon fill="white" stroke="black" points="1014.5,-39 1014.5,-69 1175.5,-69 1175.5,-39 1014.5,-39"/>
<text text-anchor="start" x="1022.5" y="-57" font-family="Helvetica,sans-Serif" font-size="10.00">animation.GUICreator.addload</text>
<text text-anchor="middle" x="1095" y="-46" font-family="Helvetica,sans-Serif" font-size="10.00">XMLButton</text>
</a>
</g>
</g>
<!-- Node5&#45;&gt;Node6 -->
<g id="edge5" class="edge"><title>Node5&#45;&gt;Node6</title>
<path fill="none" stroke="midnightblue" d="M979.991,-54C991.338,-54 1002.99,-54 1014.31,-54"/>
<polygon fill="midnightblue" stroke="midnightblue" points="979.675,-50.5001 969.675,-54 979.675,-57.5001 979.675,-50.5001"/>
</g>
<!-- Node7 -->
<g id="node7" class="node"><title>Node7</title>
<g id="a_node7"><a xlink:href="../../d2/d60/classanimation_1_1_g_u_i_creator.html#a9a94a22da284976e0a39d9b58e6646ae" target="_top" xlink:title="animation.GUICreator.GUICreator">
<polygon fill="white" stroke="black" points="1212,-44.5 1212,-63.5 1388,-63.5 1388,-44.5 1212,-44.5"/>
<text text-anchor="middle" x="1300" y="-51.5" font-family="Helvetica,sans-Serif" font-size="10.00">animation.GUICreator.GUICreator</text>
</a>
</g>
</g>
<!-- Node6&#45;&gt;Node7 -->
<g id="edge6" class="edge"><title>Node6&#45;&gt;Node7</title>
<path fill="none" stroke="midnightblue" d="M1185.76,-54C1194.43,-54 1203.22,-54 1211.87,-54"/>
<polygon fill="midnightblue" stroke="midnightblue" points="1185.65,-50.5001 1175.65,-54 1185.65,-57.5001 1185.65,-50.5001"/>
</g>
</g>
</svg>
