<?xml version="1.0" encoding="UTF-8" standalone="no"?>
<!DOCTYPE svg PUBLIC "-//W3C//DTD SVG 1.1//EN"
 "http://www.w3.org/Graphics/SVG/1.1/DTD/svg11.dtd">
<!-- Generated by graphviz version 2.36.0 (20140111.2315)
 -->
<!-- Title: animation.GUICreator Pages: 1 -->
<svg width="332pt" height="256pt"
 viewBox="0.00 0.00 332.00 256.00" xmlns="http://www.w3.org/2000/svg" xmlns:xlink="http://www.w3.org/1999/xlink">
<g id="graph0" class="graph" transform="scale(1 1) rotate(0) translate(4 252)">
<title>animation.GUICreator</title>
<polygon fill="white" stroke="none" points="-4,4 -4,-252 328,-252 328,4 -4,4"/>
<!-- Node1 -->
<g id="node1" class="node"><title>Node1</title>
<polygon fill="#bfbfbf" stroke="black" points="0.5,-114.5 0.5,-133.5 121.5,-133.5 121.5,-114.5 0.5,-114.5"/>
<text text-anchor="middle" x="61" y="-121.5" font-family="Helvetica,sans-Serif" font-size="10.00">animation.GUICreator</text>
</g>
<!-- Node2 -->
<g id="node2" class="node"><title>Node2</title>
<g id="a_node2"><a xlink:href="../../d5/d52/classanimation_1_1_fire_animation.html" target="_top" xlink:title="animation.FireAnimation">
<polygon fill="white" stroke="black" points="174.5,-228.5 174.5,-247.5 307.5,-247.5 307.5,-228.5 174.5,-228.5"/>
<text text-anchor="middle" x="241" y="-235.5" font-family="Helvetica,sans-Serif" font-size="10.00">animation.FireAnimation</text>
</a>
</g>
</g>
<!-- Node1&#45;&gt;Node2 -->
<g id="edge1" class="edge"><title>Node1&#45;&gt;Node2</title>
<path fill="none" stroke="midnightblue" d="M74.7404,-141.582C91.391,-163.224 122.629,-199.496 158,-219 165.038,-222.881 172.837,-225.971 180.745,-228.432"/>
<polygon fill="midnightblue" stroke="midnightblue" points="77.5171,-139.451 68.7162,-133.552 71.9177,-143.652 77.5171,-139.451"/>
</g>
<!-- Node3 -->
<g id="node3" class="node"><title>Node3</title>
<g id="a_node3"><a xlink:href="../../d0/dad/classanimation_1_1_forage_animation.html" target="_top" xlink:title="animation.ForageAnimation">
<polygon fill="white" stroke="black" points="166.5,-190.5 166.5,-209.5 315.5,-209.5 315.5,-190.5 166.5,-190.5"/>
<text text-anchor="middle" x="241" y="-197.5" font-family="Helvetica,sans-Serif" font-size="10.00">animation.ForageAnimation</text>
</a>
</g>
</g>
<!-- Node1&#45;&gt;Node3 -->
<g id="edge2" class="edge"><title>Node1&#45;&gt;Node3</title>
<path fill="none" stroke="midnightblue" d="M83.7221,-139.554C102.549,-152.368 130.948,-170.14 158,-181 167.357,-184.756 177.628,-187.868 187.639,-190.41"/>
<polygon fill="midnightblue" stroke="midnightblue" points="85.5089,-136.533 75.2964,-133.713 81.5209,-142.286 85.5089,-136.533"/>
</g>
<!-- Node4 -->
<g id="node4" class="node"><title>Node4</title>
<g id="a_node4"><a xlink:href="../../dc/d28/classanimation_1_1_life_animation.html" target="_top" xlink:title="animation.LifeAnimation">
<polygon fill="white" stroke="black" points="174.5,-152.5 174.5,-171.5 307.5,-171.5 307.5,-152.5 174.5,-152.5"/>
<text text-anchor="middle" x="241" y="-159.5" font-family="Helvetica,sans-Serif" font-size="10.00">animation.LifeAnimation</text>
</a>
</g>
</g>
<!-- Node1&#45;&gt;Node4 -->
<g id="edge3" class="edge"><title>Node1&#45;&gt;Node4</title>
<path fill="none" stroke="midnightblue" d="M116.716,-135.681C141.959,-141.07 171.545,-147.386 195.406,-152.48"/>
<polygon fill="midnightblue" stroke="midnightblue" points="117.427,-132.254 106.917,-133.589 115.966,-139.1 117.427,-132.254"/>
</g>
<!-- Node5 -->
<g id="node5" class="node"><title>Node5</title>
<g id="a_node5"><a xlink:href="../../da/dfb/classanimation_1_1_schelling_animation.html" target="_top" xlink:title="animation.SchellingAnimation">
<polygon fill="white" stroke="black" points="161.5,-114.5 161.5,-133.5 320.5,-133.5 320.5,-114.5 161.5,-114.5"/>
<text text-anchor="middle" x="241" y="-121.5" font-family="Helvetica,sans-Serif" font-size="10.00">animation.SchellingAnimation</text>
</a>
</g>
</g>
<!-- Node1&#45;&gt;Node5 -->
<g id="edge4" class="edge"><title>Node1&#45;&gt;Node5</title>
<path fill="none" stroke="midnightblue" d="M131.767,-124C141.496,-124 151.546,-124 161.423,-124"/>
<polygon fill="midnightblue" stroke="midnightblue" points="131.767,-120.5 121.767,-124 131.767,-127.5 131.767,-120.5"/>
</g>
<!-- Node6 -->
<g id="node6" class="node"><title>Node6</title>
<g id="a_node6"><a xlink:href="../../db/d43/classanimation_1_1_slime_mold_animation.html" target="_top" xlink:title="animation.SlimeMoldAnimation">
<polygon fill="white" stroke="black" points="158,-76.5 158,-95.5 324,-95.5 324,-76.5 158,-76.5"/>
<text text-anchor="middle" x="241" y="-83.5" font-family="Helvetica,sans-Serif" font-size="10.00">animation.SlimeMoldAnimation</text>
</a>
</g>
</g>
<!-- Node1&#45;&gt;Node6 -->
<g id="edge5" class="edge"><title>Node1&#45;&gt;Node6</title>
<path fill="none" stroke="midnightblue" d="M116.716,-112.319C141.959,-106.93 171.545,-100.614 195.406,-95.5201"/>
<polygon fill="midnightblue" stroke="midnightblue" points="115.966,-108.9 106.917,-114.411 117.427,-115.746 115.966,-108.9"/>
</g>
<!-- Node7 -->
<g id="node7" class="node"><title>Node7</title>
<g id="a_node7"><a xlink:href="../../d3/da0/classanimation_1_1_sugar_animation.html" target="_top" xlink:title="animation.SugarAnimation">
<polygon fill="white" stroke="black" points="168.5,-38.5 168.5,-57.5 313.5,-57.5 313.5,-38.5 168.5,-38.5"/>
<text text-anchor="middle" x="241" y="-45.5" font-family="Helvetica,sans-Serif" font-size="10.00">animation.SugarAnimation</text>
</a>
</g>
</g>
<!-- Node1&#45;&gt;Node7 -->
<g id="edge6" class="edge"><title>Node1&#45;&gt;Node7</title>
<path fill="none" stroke="midnightblue" d="M83.7221,-108.446C102.549,-95.6316 130.948,-77.8598 158,-67 167.357,-63.2436 177.628,-60.1318 187.639,-57.5901"/>
<polygon fill="midnightblue" stroke="midnightblue" points="81.5209,-105.714 75.2964,-114.287 85.5089,-111.467 81.5209,-105.714"/>
</g>
<!-- Node8 -->
<g id="node8" class="node"><title>Node8</title>
<g id="a_node8"><a xlink:href="../../de/df1/classanimation_1_1_wator_animation.html" target="_top" xlink:title="animation.WatorAnimation">
<polygon fill="white" stroke="black" points="169.5,-0.5 169.5,-19.5 312.5,-19.5 312.5,-0.5 169.5,-0.5"/>
<text text-anchor="middle" x="241" y="-7.5" font-family="Helvetica,sans-Serif" font-size="10.00">animation.WatorAnimation</text>
</a>
</g>
</g>
<!-- Node1&#45;&gt;Node8 -->
<g id="edge7" class="edge"><title>Node1&#45;&gt;Node8</title>
<path fill="none" stroke="midnightblue" d="M74.7404,-106.418C91.391,-84.7762 122.629,-48.5042 158,-29 165.038,-25.1191 172.837,-22.0287 180.745,-19.5684"/>
<polygon fill="midnightblue" stroke="midnightblue" points="71.9177,-104.348 68.7162,-114.448 77.5171,-108.549 71.9177,-104.348"/>
</g>
</g>
</svg>
