<?xml version="1.0" encoding="UTF-8" standalone="no"?>
<!DOCTYPE svg PUBLIC "-//W3C//DTD SVG 1.1//EN"
 "http://www.w3.org/Graphics/SVG/1.1/DTD/svg11.dtd">
<!-- Generated by graphviz version 2.36.0 (20140111.2315)
 -->
<!-- Title: simulations.Sugar Pages: 1 -->
<svg width="377pt" height="164pt"
 viewBox="0.00 0.00 377.00 164.00" xmlns="http://www.w3.org/2000/svg" xmlns:xlink="http://www.w3.org/1999/xlink">
<g id="graph0" class="graph" transform="scale(1 1) rotate(0) translate(4 160)">
<title>simulations.Sugar</title>
<polygon fill="white" stroke="none" points="-4,4 -4,-160 373,-160 373,4 -4,4"/>
<!-- Node1 -->
<g id="node1" class="node"><title>Node1</title>
<polygon fill="#bfbfbf" stroke="black" points="203.5,-0.5 203.5,-19.5 306.5,-19.5 306.5,-0.5 203.5,-0.5"/>
<text text-anchor="middle" x="255" y="-7.5" font-family="Helvetica,sans-Serif" font-size="10.00">simulations.Sugar</text>
</g>
<!-- Node2 -->
<g id="node2" class="node"><title>Node2</title>
<g id="a_node2"><a xlink:href="../../d9/d7b/classsimulations_1_1_sim.html" target="_top" xlink:title="simulations.Sim">
<polygon fill="white" stroke="black" points="102.5,-68.5 102.5,-87.5 195.5,-87.5 195.5,-68.5 102.5,-68.5"/>
<text text-anchor="middle" x="149" y="-75.5" font-family="Helvetica,sans-Serif" font-size="10.00">simulations.Sim</text>
</a>
</g>
</g>
<!-- Node2&#45;&gt;Node1 -->
<g id="edge1" class="edge"><title>Node2&#45;&gt;Node1</title>
<path fill="none" stroke="midnightblue" d="M171.504,-62.9883C192.591,-49.8584 223.441,-30.6498 241.139,-19.6305"/>
<polygon fill="midnightblue" stroke="midnightblue" points="169.497,-60.1149 162.858,-68.3717 173.197,-66.0572 169.497,-60.1149"/>
</g>
<!-- Node3 -->
<g id="node3" class="node"><title>Node3</title>
<g id="a_node3"><a xlink:href="../../dc/d26/classutility_1_1_sim_data.html" target="_top" xlink:title="utility.SimData">
<polygon fill="white" stroke="black" points="0,-136.5 0,-155.5 86,-155.5 86,-136.5 0,-136.5"/>
<text text-anchor="middle" x="43" y="-143.5" font-family="Helvetica,sans-Serif" font-size="10.00">utility.SimData</text>
</a>
</g>
</g>
<!-- Node3&#45;&gt;Node2 -->
<g id="edge2" class="edge"><title>Node3&#45;&gt;Node2</title>
<path fill="none" stroke="#9a32cd" stroke-dasharray="5,2" d="M59.3086,-129.643C67.9962,-121.948 79.1137,-112.839 90,-106 101.542,-98.7493 115.354,-92.3209 126.711,-87.5572"/>
<polygon fill="#9a32cd" stroke="#9a32cd" points="56.8505,-127.148 51.8107,-136.467 61.5622,-132.325 56.8505,-127.148"/>
<text text-anchor="middle" x="117.5" y="-109.5" font-family="Helvetica,sans-Serif" font-size="10.00"> gameData</text>
</g>
<!-- Node4 -->
<g id="node4" class="node"><title>Node4</title>
<polygon fill="white" stroke="#bfbfbf" points="104.5,-136.5 104.5,-155.5 193.5,-155.5 193.5,-136.5 104.5,-136.5"/>
<text text-anchor="middle" x="149" y="-143.5" font-family="Helvetica,sans-Serif" font-size="10.00">List&lt; Integer &gt;</text>
</g>
<!-- Node4&#45;&gt;Node2 -->
<g id="edge3" class="edge"><title>Node4&#45;&gt;Node2</title>
<path fill="none" stroke="#9a32cd" stroke-dasharray="5,2" d="M149,-126.041C149,-113.472 149,-97.5631 149,-87.8411"/>
<polygon fill="#9a32cd" stroke="#9a32cd" points="145.5,-126.372 149,-136.372 152.5,-126.372 145.5,-126.372"/>
<text text-anchor="middle" x="169" y="-109.5" font-family="Helvetica,sans-Serif" font-size="10.00"> params</text>
</g>
<!-- Node5 -->
<g id="node5" class="node"><title>Node5</title>
<polygon fill="white" stroke="#bfbfbf" points="211,-136.5 211,-155.5 267,-155.5 267,-136.5 211,-136.5"/>
<text text-anchor="middle" x="239" y="-143.5" font-family="Helvetica,sans-Serif" font-size="10.00">Random</text>
</g>
<!-- Node5&#45;&gt;Node2 -->
<g id="edge4" class="edge"><title>Node5&#45;&gt;Node2</title>
<path fill="none" stroke="#9a32cd" stroke-dasharray="5,2" d="M222.141,-129.631C213.651,-122.174 203.048,-113.277 193,-106 183.854,-99.3761 173.052,-92.7319 164.44,-87.692"/>
<polygon fill="#9a32cd" stroke="#9a32cd" points="220.038,-132.446 229.828,-136.496 224.7,-127.225 220.038,-132.446"/>
<text text-anchor="middle" x="220.5" y="-109.5" font-family="Helvetica,sans-Serif" font-size="10.00"> rand</text>
</g>
<!-- Node6 -->
<g id="node6" class="node"><title>Node6</title>
<polygon fill="white" stroke="#bfbfbf" points="213.5,-68.5 213.5,-87.5 368.5,-87.5 368.5,-68.5 213.5,-68.5"/>
<text text-anchor="middle" x="291" y="-75.5" font-family="Helvetica,sans-Serif" font-size="10.00">Map&lt; Integer, utility.Agent &gt;</text>
</g>
<!-- Node6&#45;&gt;Node1 -->
<g id="edge5" class="edge"><title>Node6&#45;&gt;Node1</title>
<path fill="none" stroke="#9a32cd" stroke-dasharray="5,2" d="M281.489,-59.563C274.517,-46.7815 265.342,-29.9599 259.822,-19.8411"/>
<polygon fill="#9a32cd" stroke="#9a32cd" points="278.432,-61.2687 286.294,-68.3717 284.578,-57.9167 278.432,-61.2687"/>
<text text-anchor="middle" x="295.5" y="-41.5" font-family="Helvetica,sans-Serif" font-size="10.00"> agents</text>
</g>
</g>
</svg>
