<?xml version="1.0" encoding="UTF-8" standalone="no"?>
<!DOCTYPE svg PUBLIC "-//W3C//DTD SVG 1.1//EN"
 "http://www.w3.org/Graphics/SVG/1.1/DTD/svg11.dtd">
<!-- Generated by graphviz version 2.36.0 (20140111.2315)
 -->
<!-- Title: animation.GUICreator Pages: 1 -->
<svg width="372pt" height="128pt"
 viewBox="0.00 0.00 372.00 128.00" xmlns="http://www.w3.org/2000/svg" xmlns:xlink="http://www.w3.org/1999/xlink">
<g id="graph0" class="graph" transform="scale(1 1) rotate(0) translate(4 124)">
<title>animation.GUICreator</title>
<polygon fill="white" stroke="none" points="-4,4 -4,-124 368,-124 368,4 -4,4"/>
<!-- Node1 -->
<g id="node1" class="node"><title>Node1</title>
<polygon fill="#bfbfbf" stroke="black" points="98.5,-0.5 98.5,-19.5 219.5,-19.5 219.5,-0.5 98.5,-0.5"/>
<text text-anchor="middle" x="159" y="-7.5" font-family="Helvetica,sans-Serif" font-size="10.00">animation.GUICreator</text>
</g>
<!-- Node2 -->
<g id="node2" class="node"><title>Node2</title>
<polygon fill="white" stroke="#bfbfbf" points="0,-100.5 0,-119.5 56,-119.5 56,-100.5 0,-100.5"/>
<text text-anchor="middle" x="28" y="-107.5" font-family="Helvetica,sans-Serif" font-size="10.00">Timeline</text>
</g>
<!-- Node2&#45;&gt;Node1 -->
<g id="edge1" class="edge"><title>Node2&#45;&gt;Node1</title>
<path fill="none" stroke="#9a32cd" stroke-dasharray="5,2" d="M32.3247,-90.2142C36.9921,-74.0983 46.004,-51.4142 62,-38 72.3805,-29.295 85.3658,-23.3861 98.4274,-19.3781"/>
<polygon fill="#9a32cd" stroke="#9a32cd" points="28.8763,-89.569 29.7551,-100.127 35.6524,-91.3255 28.8763,-89.569"/>
<text text-anchor="middle" x="88" y="-57.5" font-family="Helvetica,sans-Serif" font-size="10.00"> animation</text>
</g>
<!-- Node3 -->
<g id="node3" class="node"><title>Node3</title>
<polygon fill="white" stroke="#bfbfbf" points="77.5,-100.5 77.5,-119.5 122.5,-119.5 122.5,-100.5 77.5,-100.5"/>
<text text-anchor="middle" x="100" y="-107.5" font-family="Helvetica,sans-Serif" font-size="10.00">Stage</text>
</g>
<!-- Node3&#45;&gt;Node1 -->
<g id="edge2" class="edge"><title>Node3&#45;&gt;Node1</title>
<path fill="none" stroke="#9a32cd" stroke-dasharray="5,2" d="M110.433,-91.6703C123.169,-70.5154 144.201,-35.581 153.86,-19.5374"/>
<polygon fill="#9a32cd" stroke="#9a32cd" points="107.395,-89.9307 105.236,-100.303 113.392,-93.5412 107.395,-89.9307"/>
<text text-anchor="middle" x="146.5" y="-57.5" font-family="Helvetica,sans-Serif" font-size="10.00"> s</text>
</g>
<!-- Node4 -->
<g id="node4" class="node"><title>Node4</title>
<polygon fill="white" stroke="#bfbfbf" points="140,-100.5 140,-119.5 298,-119.5 298,-100.5 140,-100.5"/>
<text text-anchor="middle" x="219" y="-107.5" font-family="Helvetica,sans-Serif" font-size="10.00">HashMap&lt; Integer, Integer &gt;</text>
</g>
<!-- Node4&#45;&gt;Node1 -->
<g id="edge3" class="edge"><title>Node4&#45;&gt;Node1</title>
<path fill="none" stroke="#9a32cd" stroke-dasharray="5,2" d="M208.39,-91.6703C195.438,-70.5154 174.05,-35.581 164.227,-19.5374"/>
<polygon fill="#9a32cd" stroke="#9a32cd" points="205.469,-93.6022 213.675,-100.303 211.439,-89.9471 205.469,-93.6022"/>
<text text-anchor="middle" x="231" y="-57.5" font-family="Helvetica,sans-Serif" font-size="10.00"> newParams</text>
</g>
<!-- Node5 -->
<g id="node5" class="node"><title>Node5</title>
<polygon fill="white" stroke="#bfbfbf" points="315.5,-100.5 315.5,-119.5 364.5,-119.5 364.5,-100.5 315.5,-100.5"/>
<text text-anchor="middle" x="340" y="-107.5" font-family="Helvetica,sans-Serif" font-size="10.00">Button</text>
</g>
<!-- Node5&#45;&gt;Node1 -->
<g id="edge4" class="edge"><title>Node5&#45;&gt;Node1</title>
<path fill="none" stroke="#9a32cd" stroke-dasharray="5,2" d="M326.278,-91.9744C312.285,-75.7355 289.114,-51.7705 264,-38 248.486,-29.4936 230.208,-23.5938 213.288,-19.5332"/>
<polygon fill="#9a32cd" stroke="#9a32cd" points="323.962,-94.661 333.062,-100.087 329.332,-90.1707 323.962,-94.661"/>
<text text-anchor="middle" x="333" y="-74" font-family="Helvetica,sans-Serif" font-size="10.00"> play</text>
<text text-anchor="middle" x="333" y="-63" font-family="Helvetica,sans-Serif" font-size="10.00">load</text>
<text text-anchor="middle" x="333" y="-52" font-family="Helvetica,sans-Serif" font-size="10.00">step</text>
<text text-anchor="middle" x="333" y="-41" font-family="Helvetica,sans-Serif" font-size="10.00">pause</text>
</g>
</g>
</svg>
