<?xml version="1.0" encoding="UTF-8" standalone="no"?>
<!DOCTYPE svg PUBLIC "-//W3C//DTD SVG 1.1//EN"
 "http://www.w3.org/Graphics/SVG/1.1/DTD/svg11.dtd">
<!-- Generated by graphviz version 2.36.0 (20140111.2315)
 -->
<!-- Title: animation.AnimatedGraph Pages: 1 -->
<svg width="330pt" height="108pt"
 viewBox="0.00 0.00 330.00 108.00" xmlns="http://www.w3.org/2000/svg" xmlns:xlink="http://www.w3.org/1999/xlink">
<g id="graph0" class="graph" transform="scale(1 1) rotate(0) translate(4 104)">
<title>animation.AnimatedGraph</title>
<polygon fill="white" stroke="none" points="-4,4 -4,-104 326,-104 326,4 -4,4"/>
<!-- Node1 -->
<g id="node1" class="node"><title>Node1</title>
<polygon fill="#bfbfbf" stroke="black" points="89.5,-0.5 89.5,-19.5 232.5,-19.5 232.5,-0.5 89.5,-0.5"/>
<text text-anchor="middle" x="161" y="-7.5" font-family="Helvetica,sans-Serif" font-size="10.00">animation.AnimatedGraph</text>
</g>
<!-- Node2 -->
<g id="node2" class="node"><title>Node2</title>
<polygon fill="white" stroke="#bfbfbf" points="0,-69 0,-99 152,-99 152,-69 0,-69"/>
<text text-anchor="start" x="8" y="-87" font-family="Helvetica,sans-Serif" font-size="10.00">HashMap&lt; Integer, XYChart.</text>
<text text-anchor="middle" x="76" y="-76" font-family="Helvetica,sans-Serif" font-size="10.00">Series &gt;</text>
</g>
<!-- Node2&#45;&gt;Node1 -->
<g id="edge1" class="edge"><title>Node2&#45;&gt;Node1</title>
<path fill="none" stroke="#9a32cd" stroke-dasharray="5,2" d="M100.537,-62.2158C117.165,-48.1309 138.289,-30.2378 150.66,-19.7589"/>
<polygon fill="#9a32cd" stroke="#9a32cd" points="98.1615,-59.641 92.7933,-68.7751 102.686,-64.9823 98.1615,-59.641"/>
<text text-anchor="middle" x="155" y="-41.5" font-family="Helvetica,sans-Serif" font-size="10.00"> seriesMap</text>
</g>
<!-- Node3 -->
<g id="node3" class="node"><title>Node3</title>
<polygon fill="white" stroke="#bfbfbf" points="170,-74.5 170,-93.5 322,-93.5 322,-74.5 170,-74.5"/>
<text text-anchor="middle" x="246" y="-81.5" font-family="Helvetica,sans-Serif" font-size="10.00">HashMap&lt; Integer, String &gt;</text>
</g>
<!-- Node3&#45;&gt;Node1 -->
<g id="edge2" class="edge"><title>Node3&#45;&gt;Node1</title>
<path fill="none" stroke="#9a32cd" stroke-dasharray="5,2" d="M228.166,-67.8935C210.831,-53.2096 185.123,-31.4332 171.071,-19.531"/>
<polygon fill="#9a32cd" stroke="#9a32cd" points="226.023,-70.6651 235.916,-74.4579 230.547,-65.3238 226.023,-70.6651"/>
<text text-anchor="middle" x="239" y="-41.5" font-family="Helvetica,sans-Serif" font-size="10.00"> paramLabels</text>
</g>
</g>
</svg>
